  0
SECTION
  2
HEADER
  9
$ACADVER
  1
AC1002
  9
$INSBASE
 10
0.0
 20
0.0
  9
$EXTMIN
 10
-23.611
 20
-66.6237
  9
$EXTMAX
 10
20.7234
 20
101.2195
  9
$LIMMIN
 10
0.0
 20
0.0
  9
$LIMMAX
 10
12.0
 20
9.0
  9
$ORTHOMODE
 70
     0
  9
$REGENMODE
 70
     1
  9
$FILLMODE
 70
     1
  9
$QTEXTMODE
 70
     0
  9
$DRAGMODE
 70
     2
  9
$LTSCALE
 40
1.0
  9
$OSMODE
 70
    37
  9
$ATTMODE
 70
     1
  9
$TEXTSIZE
 40
0.2
  9
$TRACEWID
 40
0.05
  9
$TEXTSTYLE
  7
STANDARD
  9
$CLAYER
  8
0
  9
$CELTYPE
  6
BYLAYER
  9
$CECOLOR
 62
   256
  9
$DIMSCALE
 40
1.0
  9
$DIMASZ
 40
0.18
  9
$DIMEXO
 40
0.0625
  9
$DIMDLI
 40
0.38
  9
$DIMRND
 40
0.0
  9
$DIMDLE
 40
0.0
  9
$DIMEXE
 40
0.18
  9
$DIMTP
 40
0.0
  9
$DIMTM
 40
0.0
  9
$DIMTXT
 40
0.18
  9
$DIMCEN
 40
0.09
  9
$DIMTSZ
 40
0.0
  9
$DIMTOL
 70
     0
  9
$DIMLIM
 70
     0
  9
$DIMTIH
 70
     1
  9
$DIMTOH
 70
     1
  9
$DIMSE1
 70
     0
  9
$DIMSE2
 70
     0
  9
$DIMTAD
 70
     0
  9
$DIMZIN
 70
     0
  9
$DIMBLK
  1

  9
$LUNITS
 70
     2
  9
$LUPREC
 70
     4
  9
$SKETCHINC
 40
0.1
  9
$FILLETRAD
 40
0.5
  9
$AUNITS
 70
     0
  9
$AUPREC
 70
     0
  9
$MENU
  1
.
  9
$ELEVATION
 40
0.0
  9
$THICKNESS
 40
0.0
  9
$LIMCHECK
 70
     0
  9
$CHAMFERA
 40
0.5
  9
$CHAMFERB
 40
0.5
  9
$SKPOLY
 70
     0
  9
$TDCREATE
 40
2458524.585143889
  9
$TDUPDATE
 40
2458524.5851439
  9
$TDINDWG
 40
0.0000000116
  9
$TDUSRTIMER
 40
0.0000000116
  9
$USRTIMER
 70
     1
  9
$ANGBASE
 50
0.0
  9
$ANGDIR
 70
     0
  9
$PDMODE
 70
     0
  9
$PDSIZE
 40
0.0
  9
$PLINEWID
 40
0.0
  9
$COORDS
 70
     1
  9
$SURFTAB1
 70
     6
  9
$SURFTAB2
 70
     6
  9
$SURFTYPE
 70
     6
  9
$SURFU
 70
     6
  9
$SURFV
 70
     6
  9
$UCSNAME
  2

  9
$UCSORG
 10
0.0
 20
0.0
 30
0.0
  9
$UCSXDIR
 10
1.0
 20
0.0
 30
0.0
  9
$UCSYDIR
 10
0.0
 20
1.0
 30
0.0
  9
$USERI1
 70
     0
  9
$USERI2
 70
     0
  9
$USERI3
 70
     0
  9
$USERI4
 70
     0
  9
$USERI5
 70
     0
  9
$USERR1
 40
0.0
  9
$USERR2
 40
0.0
  9
$USERR3
 40
0.0
  9
$USERR4
 40
0.0
  9
$USERR5
 40
0.0
  0
ENDSEC
  0
SECTION
  2
TABLES
  0
TABLE
  2
LTYPE
 70
     1
  0
LTYPE
  2
CONTINUOUS
 70
     0
  3
Solid line
 72
    65
 73
     0
 40
0.0
  0
ENDTAB
  0
TABLE
  2
LAYER
 70
     2
  0
LAYER
  2
0
 70
     0
 62
     7
  6
CONTINUOUS
  0
LAYER
  2
CAPA_1
 70
     0
 62
     7
  6
CONTINUOUS
  0
ENDTAB
  0
TABLE
  2
STYLE
 70
     1
  0
STYLE
  2
STANDARD
 70
     0
 40
0.0
 41
1.0
 50
0.0
 71
     0
 42
0.2
  3
txt
  4

  0
ENDTAB
  0
TABLE
  2
VIEW
 70
     0
  0
ENDTAB
  0
ENDSEC
  0
SECTION
  2
BLOCKS
  0
ENDSEC
  0
SECTION
  2
ENTITIES
  0
POLYLINE
  8
CAPA_1
 66
     1
 70
     1
  0
VERTEX
  8
CAPA_1
 10
-6.3424
 20
98.9407
  0
VERTEX
  8
CAPA_1
 10
-6.2894
 20
99.067
  0
VERTEX
  8
CAPA_1
 10
-6.1179
 20
99.3923
  0
VERTEX
  8
CAPA_1
 10
-5.8093
 20
99.8359
  0
VERTEX
  8
CAPA_1
 10
-5.345
 20
100.3172
  0
VERTEX
  8
CAPA_1
 10
-4.7064
 20
100.7556
  0
VERTEX
  8
CAPA_1
 10
-3.8748
 20
101.0706
  0
VERTEX
  8
CAPA_1
 10
-2.8316
 20
101.1814
  0
VERTEX
  8
CAPA_1
 10
-1.5581
 20
101.0076
  0
VERTEX
  8
CAPA_1
 10
-0.3558
 20
100.5502
  0
VERTEX
  8
CAPA_1
 10
0.4998
 20
99.9137
  0
VERTEX
  8
CAPA_1
 10
1.0662
 20
99.1719
  0
VERTEX
  8
CAPA_1
 10
1.4007
 20
98.3989
  0
VERTEX
  8
CAPA_1
 10
1.561
 20
97.6688
  0
VERTEX
  8
CAPA_1
 10
1.6043
 20
97.0557
  0
VERTEX
  8
CAPA_1
 10
1.5881
 20
96.6335
  0
VERTEX
  8
CAPA_1
 10
1.57
 20
96.4763
  0
VERTEX
  8
CAPA_1
 10
-1.366
 20
58.5584
  0
VERTEX
  8
CAPA_1
 10
-1.2756
 20
57.9532
  0
VERTEX
  8
CAPA_1
 10
-1.0474
 20
57.5486
  0
VERTEX
  8
CAPA_1
 10
-0.7043
 20
57.3074
  0
VERTEX
  8
CAPA_1
 10
-0.2693
 20
57.1925
  0
VERTEX
  8
CAPA_1
 10
0.2348
 20
57.1666
  0
VERTEX
  8
CAPA_1
 10
0.785
 20
57.1926
  0
VERTEX
  8
CAPA_1
 10
1.3583
 20
57.2334
  0
VERTEX
  8
CAPA_1
 10
1.9318
 20
57.2518
  0
VERTEX
  8
CAPA_1
 10
16.4738
 20
57.1186
  0
VERTEX
  8
CAPA_1
 10
16.2603
 20
43.5998
  0
VERTEX
  8
CAPA_1
 10
20.6853
 20
29.7786
  0
VERTEX
  8
CAPA_1
 10
20.6853
 20
-37.6747
  0
VERTEX
  8
CAPA_1
 10
14.5962
 20
-47.8437
  0
VERTEX
  8
CAPA_1
 10
13.9116
 20
-47.494
  0
VERTEX
  8
CAPA_1
 10
13.8083
 20
-47.4484
  0
VERTEX
  8
CAPA_1
 10
13.7098
 20
-47.4187
  0
VERTEX
  8
CAPA_1
 10
13.6163
 20
-47.4037
  0
VERTEX
  8
CAPA_1
 10
13.528
 20
-47.4026
  0
VERTEX
  8
CAPA_1
 10
13.4454
 20
-47.4141
  0
VERTEX
  8
CAPA_1
 10
13.3686
 20
-47.4372
  0
VERTEX
  8
CAPA_1
 10
13.298
 20
-47.4708
  0
VERTEX
  8
CAPA_1
 10
13.2338
 20
-47.5139
  0
VERTEX
  8
CAPA_1
 10
13.1496
 20
-47.5946
  0
VERTEX
  8
CAPA_1
 10
13.0698
 20
-47.7126
  0
VERTEX
  8
CAPA_1
 10
13.0158
 20
-47.8468
  0
VERTEX
  8
CAPA_1
 10
12.9894
 20
-47.9906
  0
VERTEX
  8
CAPA_1
 10
12.9924
 20
-48.1374
  0
VERTEX
  8
CAPA_1
 10
13.0265
 20
-48.2806
  0
VERTEX
  8
CAPA_1
 10
13.0936
 20
-48.4138
  0
VERTEX
  8
CAPA_1
 10
13.1954
 20
-48.5303
  0
VERTEX
  8
CAPA_1
 10
13.3337
 20
-48.6237
  0
VERTEX
  8
CAPA_1
 10
13.5073
 20
-48.7676
  0
VERTEX
  8
CAPA_1
 10
10.4418
 20
-54.5826
  0
VERTEX
  8
CAPA_1
 10
9.799
 20
-55.8019
  0
VERTEX
  8
CAPA_1
 10
9.1171
 20
-57.0955
  0
VERTEX
  8
CAPA_1
 10
8.4744
 20
-58.3148
  0
VERTEX
  8
CAPA_1
 10
3.9148
 20
-66.572
  0
VERTEX
  8
CAPA_1
 10
-5.1485
 20
-61.6035
  0
VERTEX
  8
CAPA_1
 10
-6.0643
 20
-59.6948
  0
VERTEX
  8
CAPA_1
 10
-6.9887
 20
-57.7815
  0
VERTEX
  8
CAPA_1
 10
-7.9189
 20
-55.8651
  0
VERTEX
  8
CAPA_1
 10
-8.852
 20
-53.9472
  0
VERTEX
  8
CAPA_1
 10
-9.7851
 20
-52.0293
  0
VERTEX
  8
CAPA_1
 10
-10.7153
 20
-50.1129
  0
VERTEX
  8
CAPA_1
 10
-11.6398
 20
-48.1996
  0
VERTEX
  8
CAPA_1
 10
-12.5556
 20
-46.2909
  0
VERTEX
  8
CAPA_1
 10
-12.624
 20
-46.1849
  0
VERTEX
  8
CAPA_1
 10
-12.705
 20
-46.0876
  0
VERTEX
  8
CAPA_1
 10
-12.7991
 20
-46.0007
  0
VERTEX
  8
CAPA_1
 10
-12.907
 20
-45.9261
  0
VERTEX
  8
CAPA_1
 10
-13.0291
 20
-45.8653
  0
VERTEX
  8
CAPA_1
 10
-13.1661
 20
-45.8203
  0
VERTEX
  8
CAPA_1
 10
-13.3185
 20
-45.7927
  0
VERTEX
  8
CAPA_1
 10
-13.4868
 20
-45.7843
  0
VERTEX
  8
CAPA_1
 10
-18.5799
 20
-45.8356
  0
VERTEX
  8
CAPA_1
 10
-23.5727
 20
-37.3266
  0
VERTEX
  8
CAPA_1
 10
-22.0816
 20
30.0021
  0
VERTEX
  8
CAPA_1
 10
-17.2315
 20
43.6646
  0
VERTEX
  8
CAPA_1
 10
-16.3185
 20
56.9426
  0
VERTEX
  8
CAPA_1
 10
-16.3312
 20
57.1686
  0
VERTEX
  8
CAPA_1
 10
-16.3495
 20
57.3926
  0
VERTEX
  8
CAPA_1
 10
-16.4054
 20
57.6173
  0
VERTEX
  8
CAPA_1
 10
-16.5309
 20
57.8457
  0
VERTEX
  8
CAPA_1
 10
-16.7578
 20
58.0807
  0
VERTEX
  8
CAPA_1
 10
-17.1181
 20
58.3252
  0
VERTEX
  8
CAPA_1
 10
-17.6437
 20
58.5821
  0
VERTEX
  8
CAPA_1
 10
-18.3666
 20
58.8542
  0
VERTEX
  8
CAPA_1
 10
-23.2061
 20
60.5656
  0
VERTEX
  8
CAPA_1
 10
-11.4711
 20
94.5743
  0
VERTEX
  8
CAPA_1
 10
-7.1315
 20
93.0747
  0
VERTEX
  8
CAPA_1
 10
-6.3424
 20
98.9407
  0
SEQEND
  8
CAPA_1
  0
POLYLINE
  8
CAPA_1
 66
     1
 70
     1
  0
VERTEX
  8
CAPA_1
 10
-15.1835
 20
-38.1166
  0
VERTEX
  8
CAPA_1
 10
-9.2137
 20
-38.2187
  0
VERTEX
  8
CAPA_1
 10
-8.7773
 20
-38.8774
  0
VERTEX
  8
CAPA_1
 10
-8.3198
 20
-39.5385
  0
VERTEX
  8
CAPA_1
 10
-7.848
 20
-40.2011
  0
VERTEX
  8
CAPA_1
 10
-7.3692
 20
-40.8646
  0
VERTEX
  8
CAPA_1
 10
-6.8904
 20
-41.5281
  0
VERTEX
  8
CAPA_1
 10
-6.4186
 20
-42.1907
  0
VERTEX
  8
CAPA_1
 10
-5.9611
 20
-42.8518
  0
VERTEX
  8
CAPA_1
 10
-5.5247
 20
-43.5105
  0
VERTEX
  8
CAPA_1
 10
-5.2141
 20
-45.2068
  0
VERTEX
  8
CAPA_1
 10
-4.3938
 20
-46.4777
  0
VERTEX
  8
CAPA_1
 10
-3.2177
 20
-47.2936
  0
VERTEX
  8
CAPA_1
 10
-1.8397
 20
-47.6246
  0
VERTEX
  8
CAPA_1
 10
-0.4138
 20
-47.4408
  0
VERTEX
  8
CAPA_1
 10
0.9061
 20
-46.7125
  0
VERTEX
  8
CAPA_1
 10
1.966
 20
-45.4098
  0
VERTEX
  8
CAPA_1
 10
2.6121
 20
-43.5029
  0
VERTEX
  8
CAPA_1
 10
6.26
 20
-38.4409
  0
VERTEX
  8
CAPA_1
 10
12.5251
 20
-38.3821
  0
VERTEX
  8
CAPA_1
 10
12.9687
 20
-38.2318
  0
VERTEX
  8
CAPA_1
 10
13.3565
 20
-37.9662
  0
VERTEX
  8
CAPA_1
 10
13.69
 20
-37.6006
  0
VERTEX
  8
CAPA_1
 10
13.971
 20
-37.1506
  0
VERTEX
  8
CAPA_1
 10
14.2011
 20
-36.6317
  0
VERTEX
  8
CAPA_1
 10
14.3819
 20
-36.0593
  0
VERTEX
  8
CAPA_1
 10
14.515
 20
-35.4489
  0
VERTEX
  8
CAPA_1
 10
14.6021
 20
-34.816
  0
VERTEX
  8
CAPA_1
 10
14.2335
 20
-6.8347
  0
VERTEX
  8
CAPA_1
 10
12.2287
 20
19.6974
  0
VERTEX
  8
CAPA_1
 10
11.439
 20
22.2722
  0
VERTEX
  8
CAPA_1
 10
10.6656
 20
24.8738
  0
VERTEX
  8
CAPA_1
 10
9.903
 20
27.4932
  0
VERTEX
  8
CAPA_1
 10
9.1459
 20
30.1216
  0
VERTEX
  8
CAPA_1
 10
8.3887
 20
32.7499
  0
VERTEX
  8
CAPA_1
 10
7.6261
 20
35.3693
  0
VERTEX
  8
CAPA_1
 10
6.8527
 20
37.9709
  0
VERTEX
  8
CAPA_1
 10
6.063
 20
40.5458
  0
VERTEX
  8
CAPA_1
 10
4.7909
 20
42.7492
  0
VERTEX
  8
CAPA_1
 10
3.1547
 20
44.2579
  0
VERTEX
  8
CAPA_1
 10
1.2865
 20
45.1128
  0
VERTEX
  8
CAPA_1
 10
-0.6818
 20
45.3547
  0
VERTEX
  8
CAPA_1
 10
-2.6182
 20
45.0246
  0
VERTEX
  8
CAPA_1
 10
-4.391
 20
44.1633
  0
VERTEX
  8
CAPA_1
 10
-5.868
 20
42.8116
  0
VERTEX
  8
CAPA_1
 10
-6.9174
 20
41.0104
  0
VERTEX
  8
CAPA_1
 10
-13.5451
 20
20.8265
  0
VERTEX
  8
CAPA_1
 10
-16.3397
 20
-7.2626
  0
VERTEX
  8
CAPA_1
 10
-16.3983
 20
-10.8022
  0
VERTEX
  8
CAPA_1
 10
-16.4871
 20
-14.2987
  0
VERTEX
  8
CAPA_1
 10
-16.5961
 20
-17.7666
  0
VERTEX
  8
CAPA_1
 10
-16.7152
 20
-21.2201
  0
VERTEX
  8
CAPA_1
 10
-16.8342
 20
-24.6735
  0
VERTEX
  8
CAPA_1
 10
-16.9432
 20
-28.1414
  0
VERTEX
  8
CAPA_1
 10
-17.032
 20
-31.6379
  0
VERTEX
  8
CAPA_1
 10
-17.0906
 20
-35.1775
  0
VERTEX
  8
CAPA_1
 10
-17.0527
 20
-35.7307
  0
VERTEX
  8
CAPA_1
 10
-16.9524
 20
-36.2324
  0
VERTEX
  8
CAPA_1
 10
-16.7922
 20
-36.6818
  0
VERTEX
  8
CAPA_1
 10
-16.5748
 20
-37.0781
  0
VERTEX
  8
CAPA_1
 10
-16.3026
 20
-37.4205
  0
VERTEX
  8
CAPA_1
 10
-15.9783
 20
-37.7083
  0
VERTEX
  8
CAPA_1
 10
-15.6044
 20
-37.9406
  0
VERTEX
  8
CAPA_1
 10
-15.1835
 20
-38.1166
  0
SEQEND
  8
CAPA_1
  0
POLYLINE
  8
CAPA_1
 66
     1
 70
     1
  0
VERTEX
  8
CAPA_1
 10
-2.7979
 20
98.6184
  0
VERTEX
  8
CAPA_1
 10
-3.090535483024192
 20
98.58957792060484
  0
VERTEX
  8
CAPA_1
 10
-3.371925148547635
 20
98.50421929876693
  0
VERTEX
  8
CAPA_1
 10
-3.631255349529403
 20
98.36560441845381
  0
VERTEX
  8
CAPA_1
 10
-3.858560171779821
 20
98.17906017177981
  0
VERTEX
  8
CAPA_1
 10
-4.045104418453818
 20
97.95175534952939
  0
VERTEX
  8
CAPA_1
 10
-4.183719298766929
 20
97.69242514854763
  0
VERTEX
  8
CAPA_1
 10
-4.269077920604845
 20
97.4110354830242
  0
VERTEX
  8
CAPA_1
 10
-4.2979
 20
97.1184
  0
VERTEX
  8
CAPA_1
 10
-4.269077920604845
 20
96.8257645169758
  0
VERTEX
  8
CAPA_1
 10
-4.183719298766929
 20
96.54437485145236
  0
VERTEX
  8
CAPA_1
 10
-4.045104418453818
 20
96.2850446504706
  0
VERTEX
  8
CAPA_1
 10
-3.858560171779821
 20
96.05773982822018
  0
VERTEX
  8
CAPA_1
 10
-3.631255349529403
 20
95.87119558154617
  0
VERTEX
  8
CAPA_1
 10
-3.371925148547634
 20
95.73258070123306
  0
VERTEX
  8
CAPA_1
 10
-3.090535483024191
 20
95.64722207939515
  0
VERTEX
  8
CAPA_1
 10
-2.797899999999998
 20
95.6184
  0
VERTEX
  8
CAPA_1
 10
-2.505264516975806
 20
95.64722207939515
  0
VERTEX
  8
CAPA_1
 10
-2.223874851452364
 20
95.73258070123306
  0
VERTEX
  8
CAPA_1
 10
-1.964544650470595
 20
95.87119558154617
  0
VERTEX
  8
CAPA_1
 10
-1.737239828220177
 20
96.05773982822018
  0
VERTEX
  8
CAPA_1
 10
-1.55069558154618
 20
96.2850446504706
  0
VERTEX
  8
CAPA_1
 10
-1.412080701233069
 20
96.54437485145236
  0
VERTEX
  8
CAPA_1
 10
-1.326722079395154
 20
96.82576451697581
  0
VERTEX
  8
CAPA_1
 10
-1.2979
 20
97.1184
  0
VERTEX
  8
CAPA_1
 10
-1.326722079395155
 20
97.4110354830242
  0
VERTEX
  8
CAPA_1
 10
-1.412080701233071
 20
97.69242514854763
  0
VERTEX
  8
CAPA_1
 10
-1.550695581546185
 20
97.9517553495294
  0
VERTEX
  8
CAPA_1
 10
-1.737239828220182
 20
98.17906017177982
  0
VERTEX
  8
CAPA_1
 10
-1.964544650470601
 20
98.36560441845381
  0
VERTEX
  8
CAPA_1
 10
-2.22387485145237
 20
98.50421929876693
  0
VERTEX
  8
CAPA_1
 10
-2.505264516975813
 20
98.58957792060484
  0
SEQEND
  8
CAPA_1
  0
POLYLINE
  8
CAPA_1
 66
     1
 70
     1
  0
VERTEX
  8
CAPA_1
 10
-13.7017
 20
88.11
  0
VERTEX
  8
CAPA_1
 10
-5.9515
 20
85.2467
  0
VERTEX
  8
CAPA_1
 10
-6.6117
 20
83.4598
  0
VERTEX
  8
CAPA_1
 10
-14.3232
 20
86.3088
  0
VERTEX
  8
CAPA_1
 10
-13.7017
 20
88.11
  0
SEQEND
  8
CAPA_1
  0
POLYLINE
  8
CAPA_1
 66
     1
 70
     1
  0
VERTEX
  8
CAPA_1
 10
-12.136
 20
92.6476
  0
VERTEX
  8
CAPA_1
 10
-4.2979
 20
89.7519
  0
VERTEX
  8
CAPA_1
 10
-4.9581
 20
87.965
  0
VERTEX
  8
CAPA_1
 10
-12.7575
 20
90.8464
  0
VERTEX
  8
CAPA_1
 10
-12.136
 20
92.6476
  0
SEQEND
  8
CAPA_1
  0
POLYLINE
  8
CAPA_1
 66
     1
 70
     1
  0
VERTEX
  8
CAPA_1
 10
-16.9815
 20
78.605
  0
VERTEX
  8
CAPA_1
 10
-9.0761
 20
75.6906
  0
VERTEX
  8
CAPA_1
 10
-9.7363
 20
73.9037
  0
VERTEX
  8
CAPA_1
 10
-17.6039
 20
76.8104
  0
VERTEX
  8
CAPA_1
 10
-16.9815
 20
78.605
  0
SEQEND
  8
CAPA_1
  0
POLYLINE
  8
CAPA_1
 66
     1
 70
     1
  0
VERTEX
  8
CAPA_1
 10
-18.6141
 20
73.8736
  0
VERTEX
  8
CAPA_1
 10
-10.8455
 20
71.0035
  0
VERTEX
  8
CAPA_1
 10
-11.5057
 20
69.2166
  0
VERTEX
  8
CAPA_1
 10
-19.2356
 20
72.0724
  0
VERTEX
  8
CAPA_1
 10
-18.6141
 20
73.8736
  0
SEQEND
  8
CAPA_1
  0
POLYLINE
  8
CAPA_1
 66
     1
 70
     1
  0
VERTEX
  8
CAPA_1
 10
-20.2718
 20
69.0695
  0
VERTEX
  8
CAPA_1
 10
-12.3333
 20
66.1262
  0
VERTEX
  8
CAPA_1
 10
-12.9935
 20
64.3393
  0
VERTEX
  8
CAPA_1
 10
-20.9087
 20
67.2667
  0
VERTEX
  8
CAPA_1
 10
-20.2718
 20
69.0695
  0
SEQEND
  8
CAPA_1
  0
POLYLINE
  8
CAPA_1
 66
     1
 70
     1
  0
VERTEX
  8
CAPA_1
 10
-21.8821
 20
64.4027
  0
VERTEX
  8
CAPA_1
 10
-14.1027
 20
61.5287
  0
VERTEX
  8
CAPA_1
 10
-14.7629
 20
59.7418
  0
VERTEX
  8
CAPA_1
 10
-22.5036
 20
62.6016
  0
VERTEX
  8
CAPA_1
 10
-21.8821
 20
64.4027
  0
SEQEND
  8
CAPA_1
  0
POLYLINE
  8
CAPA_1
 66
     1
 70
     1
  0
VERTEX
  8
CAPA_1
 10
-15.3597
 20
83.305
  0
VERTEX
  8
CAPA_1
 10
-7.4442
 20
80.3777
  0
VERTEX
  8
CAPA_1
 10
-8.1044
 20
78.5908
  0
VERTEX
  8
CAPA_1
 10
-15.972
 20
81.4975
  0
VERTEX
  8
CAPA_1
 10
-15.3597
 20
83.305
  0
SEQEND
  8
CAPA_1
  0
POLYLINE
  8
CAPA_1
 66
     1
 70
     1
  0
VERTEX
  8
CAPA_1
 10
3.3343
 20
-64.8061
  0
VERTEX
  8
CAPA_1
 10
3.9813
 20
-63.5891
  0
VERTEX
  8
CAPA_1
 10
5.2248
 20
-64.228
  0
VERTEX
  8
CAPA_1
 10
4.5778
 20
-65.4449
  0
VERTEX
  8
CAPA_1
 10
3.3343
 20
-64.8061
  0
SEQEND
  8
CAPA_1
  0
POLYLINE
  8
CAPA_1
 66
     1
 70
     1
  0
VERTEX
  8
CAPA_1
 10
8.5653
 20
-55.0934
  0
VERTEX
  8
CAPA_1
 10
9.2123
 20
-53.8764
  0
VERTEX
  8
CAPA_1
 10
10.4558
 20
-54.5153
  0
VERTEX
  8
CAPA_1
 10
9.8088
 20
-55.7322
  0
VERTEX
  8
CAPA_1
 10
8.5653
 20
-55.0934
  0
SEQEND
  8
CAPA_1
  0
POLYLINE
  8
CAPA_1
 66
     1
 70
     1
  0
VERTEX
  8
CAPA_1
 10
11.1119
 20
-50.2813
  0
VERTEX
  8
CAPA_1
 10
12.0571
 20
-48.5682
  0
VERTEX
  8
CAPA_1
 10
13.2665
 20
-49.2243
  0
VERTEX
  8
CAPA_1
 10
12.3554
 20
-50.9201
  0
VERTEX
  8
CAPA_1
 10
11.1119
 20
-50.2813
  0
SEQEND
  8
CAPA_1
  0
POLYLINE
  8
CAPA_1
 66
     1
 70
     1
  0
VERTEX
  8
CAPA_1
 10
9.8717
 20
-52.6854
  0
VERTEX
  8
CAPA_1
 10
10.5187
 20
-51.4684
  0
VERTEX
  8
CAPA_1
 10
11.7622
 20
-52.1073
  0
VERTEX
  8
CAPA_1
 10
11.1073
 20
-53.3201
  0
VERTEX
  8
CAPA_1
 10
9.8717
 20
-52.6854
  0
SEQEND
  8
CAPA_1
  0
POLYLINE
  8
CAPA_1
 66
     1
 70
     1
  0
VERTEX
  8
CAPA_1
 10
7.3584
 20
-57.4084
  0
VERTEX
  8
CAPA_1
 10
8.0054
 20
-56.1914
  0
VERTEX
  8
CAPA_1
 10
9.2489
 20
-56.8303
  0
VERTEX
  8
CAPA_1
 10
8.6019
 20
-58.0472
  0
VERTEX
  8
CAPA_1
 10
7.3584
 20
-57.4084
  0
SEQEND
  8
CAPA_1
  0
POLYLINE
  8
CAPA_1
 66
     1
 70
     1
  0
VERTEX
  8
CAPA_1
 10
6.0499
 20
-59.7566
  0
VERTEX
  8
CAPA_1
 10
6.6969
 20
-58.5396
  0
VERTEX
  8
CAPA_1
 10
7.9404
 20
-59.1785
  0
VERTEX
  8
CAPA_1
 10
7.2934
 20
-60.3954
  0
VERTEX
  8
CAPA_1
 10
6.0499
 20
-59.7566
  0
SEQEND
  8
CAPA_1
  0
POLYLINE
  8
CAPA_1
 66
     1
 70
     1
  0
VERTEX
  8
CAPA_1
 10
4.696
 20
-62.2701
  0
VERTEX
  8
CAPA_1
 10
5.343
 20
-61.0531
  0
VERTEX
  8
CAPA_1
 10
6.5865
 20
-61.692
  0
VERTEX
  8
CAPA_1
 10
5.9395
 20
-62.9089
  0
VERTEX
  8
CAPA_1
 10
4.696
 20
-62.2701
  0
SEQEND
  8
CAPA_1
  0
ENDSEC
  0
EOF
