  0
SECTION
  2
HEADER
  9
$ACADVER
  1
AC1002
  9
$INSBASE
 10
0.0
 20
0.0
  9
$EXTMIN
 10
-14.5223
 20
-24.4476
  9
$EXTMAX
 10
14.3243
 20
82.4762
  9
$LIMMIN
 10
0.0
 20
0.0
  9
$LIMMAX
 10
12.0
 20
9.0
  9
$ORTHOMODE
 70
     0
  9
$REGENMODE
 70
     1
  9
$FILLMODE
 70
     1
  9
$QTEXTMODE
 70
     0
  9
$DRAGMODE
 70
     2
  9
$LTSCALE
 40
1.0
  9
$OSMODE
 70
    37
  9
$ATTMODE
 70
     1
  9
$TEXTSIZE
 40
0.2
  9
$TRACEWID
 40
0.05
  9
$TEXTSTYLE
  7
STANDARD
  9
$CLAYER
  8
0
  9
$CELTYPE
  6
BYLAYER
  9
$CECOLOR
 62
   256
  9
$DIMSCALE
 40
1.0
  9
$DIMASZ
 40
0.18
  9
$DIMEXO
 40
0.0625
  9
$DIMDLI
 40
0.38
  9
$DIMRND
 40
0.0
  9
$DIMDLE
 40
0.0
  9
$DIMEXE
 40
0.18
  9
$DIMTP
 40
0.0
  9
$DIMTM
 40
0.0
  9
$DIMTXT
 40
0.18
  9
$DIMCEN
 40
0.09
  9
$DIMTSZ
 40
0.0
  9
$DIMTOL
 70
     0
  9
$DIMLIM
 70
     0
  9
$DIMTIH
 70
     1
  9
$DIMTOH
 70
     1
  9
$DIMSE1
 70
     0
  9
$DIMSE2
 70
     0
  9
$DIMTAD
 70
     0
  9
$DIMZIN
 70
     0
  9
$DIMBLK
  1

  9
$LUNITS
 70
     2
  9
$LUPREC
 70
     4
  9
$SKETCHINC
 40
0.1
  9
$FILLETRAD
 40
0.5
  9
$AUNITS
 70
     0
  9
$AUPREC
 70
     0
  9
$MENU
  1
.
  9
$ELEVATION
 40
0.0
  9
$THICKNESS
 40
0.0
  9
$LIMCHECK
 70
     0
  9
$CHAMFERA
 40
0.0
  9
$CHAMFERB
 40
0.0
  9
$SKPOLY
 70
     0
  9
$TDCREATE
 40
2458099.787432916
  9
$TDUPDATE
 40
2458099.787434306
  9
$TDINDWG
 40
0.0000000116
  9
$TDUSRTIMER
 40
0.0000000116
  9
$USRTIMER
 70
     1
  9
$ANGBASE
 50
0.0
  9
$ANGDIR
 70
     0
  9
$PDMODE
 70
     0
  9
$PDSIZE
 40
0.0
  9
$PLINEWID
 40
0.0
  9
$COORDS
 70
     1
  9
$SURFTAB1
 70
     6
  9
$SURFTAB2
 70
     6
  9
$SURFTYPE
 70
     6
  9
$SURFU
 70
     6
  9
$SURFV
 70
     6
  9
$UCSNAME
  2

  9
$UCSORG
 10
0.0
 20
0.0
 30
0.0
  9
$UCSXDIR
 10
1.0
 20
0.0
 30
0.0
  9
$UCSYDIR
 10
0.0
 20
1.0
 30
0.0
  9
$USERI1
 70
     0
  9
$USERI2
 70
     0
  9
$USERI3
 70
     0
  9
$USERI4
 70
     0
  9
$USERI5
 70
     0
  9
$USERR1
 40
0.0
  9
$USERR2
 40
0.0
  9
$USERR3
 40
0.0
  9
$USERR4
 40
0.0
  9
$USERR5
 40
0.0
  0
ENDSEC
  0
SECTION
  2
TABLES
  0
TABLE
  2
LTYPE
 70
     1
  0
LTYPE
  2
CONTINUOUS
 70
     0
  3
Solid line
 72
    65
 73
     0
 40
0.0
  0
ENDTAB
  0
TABLE
  2
LAYER
 70
     2
  0
LAYER
  2
0
 70
     0
 62
     7
  6
CONTINUOUS
  0
LAYER
  2
CAPA_1
 70
     0
 62
     7
  6
CONTINUOUS
  0
ENDTAB
  0
TABLE
  2
STYLE
 70
     1
  0
STYLE
  2
STANDARD
 70
     0
 40
0.0
 41
1.0
 50
0.0
 71
     0
 42
0.2
  3
txt
  4

  0
ENDTAB
  0
TABLE
  2
VIEW
 70
     0
  0
ENDTAB
  0
ENDSEC
  0
SECTION
  2
BLOCKS
  0
ENDSEC
  0
SECTION
  2
ENTITIES
  0
POLYLINE
  8
CAPA_1
 62
     2
 66
     1
 70
     1
  0
VERTEX
  8
CAPA_1
 62
     2
 10
0.0092
 20
47.2504
  0
VERTEX
  8
CAPA_1
 62
     2
 10
-1.1055
 20
47.1431
  0
VERTEX
  8
CAPA_1
 62
     2
 10
-2.0217
 20
46.864
  0
VERTEX
  8
CAPA_1
 62
     2
 10
-2.7598
 20
46.4569
  0
VERTEX
  8
CAPA_1
 62
     2
 10
-3.3401
 20
45.9659
  0
VERTEX
  8
CAPA_1
 62
     2
 10
-3.7831
 20
45.4349
  0
VERTEX
  8
CAPA_1
 62
     2
 10
-4.109
 20
44.9079
  0
VERTEX
  8
CAPA_1
 62
     2
 10
-4.3385
 20
44.4287
  0
VERTEX
  8
CAPA_1
 62
     2
 10
-4.4917
 20
44.0414
  0
VERTEX
  8
CAPA_1
 62
     2
 10
-8.0112
 20
31.5265
  0
VERTEX
  8
CAPA_1
 62
     2
 10
-10.2342
 20
-4.0305
  0
VERTEX
  8
CAPA_1
 62
     2
 10
-10.213
 20
-4.2823
  0
VERTEX
  8
CAPA_1
 62
     2
 10
-10.1147
 20
-4.5456
  0
VERTEX
  8
CAPA_1
 62
     2
 10
-9.9569
 20
-4.8066
  0
VERTEX
  8
CAPA_1
 62
     2
 10
-9.757
 20
-5.0512
  0
VERTEX
  8
CAPA_1
 62
     2
 10
-9.5326
 20
-5.2656
  0
VERTEX
  8
CAPA_1
 62
     2
 10
-9.3012
 20
-5.4359
  0
VERTEX
  8
CAPA_1
 62
     2
 10
-9.0803
 20
-5.5483
  0
VERTEX
  8
CAPA_1
 62
     2
 10
-8.8874
 20
-5.5889
  0
VERTEX
  8
CAPA_1
 62
     2
 10
-5.4777
 20
-5.5674
  0
VERTEX
  8
CAPA_1
 62
     2
 10
-3.0508
 20
-8.9683
  0
VERTEX
  8
CAPA_1
 62
     2
 10
-2.9876
 20
-9.4612
  0
VERTEX
  8
CAPA_1
 62
     2
 10
-2.8246
 20
-9.9485
  0
VERTEX
  8
CAPA_1
 62
     2
 10
-2.5655
 20
-10.4116
  0
VERTEX
  8
CAPA_1
 62
     2
 10
-2.2141
 20
-10.8319
  0
VERTEX
  8
CAPA_1
 62
     2
 10
-1.774
 20
-11.1909
  0
VERTEX
  8
CAPA_1
 62
     2
 10
-1.2489
 20
-11.4698
  0
VERTEX
  8
CAPA_1
 62
     2
 10
-0.6425
 20
-11.6502
  0
VERTEX
  8
CAPA_1
 62
     2
 10
0.0414
 20
-11.7133
  0
VERTEX
  8
CAPA_1
 62
     2
 10
0.0092
 20
47.2504
  0
SEQEND
  8
CAPA_1
 62
     2
  0
POLYLINE
  8
CAPA_1
 62
     2
 66
     1
 70
     1
  0
VERTEX
  8
CAPA_1
 62
     2
 10
-10.3535
 20
54.5585
  0
VERTEX
  8
CAPA_1
 62
     2
 10
-10.1939
 20
55.2013
  0
VERTEX
  8
CAPA_1
 62
     2
 10
-14.4746
 20
56.7716
  0
VERTEX
  8
CAPA_1
 62
     2
 10
-7.3327
 20
78.4611
  0
VERTEX
  8
CAPA_1
 62
     2
 10
-4.3486
 20
77.4324
  0
VERTEX
  8
CAPA_1
 62
     2
 10
-4.1707
 20
79.6267
  0
VERTEX
  8
CAPA_1
 62
     2
 10
-3.8947
 20
80.9556
  0
VERTEX
  8
CAPA_1
 62
     2
 10
-3.27
 20
81.8494
  0
VERTEX
  8
CAPA_1
 62
     2
 10
-2.4181
 20
82.3319
  0
VERTEX
  8
CAPA_1
 62
     2
 10
-1.4603
 20
82.4269
  0
VERTEX
  8
CAPA_1
 62
     2
 10
-0.5181
 20
82.1581
  0
VERTEX
  8
CAPA_1
 62
     2
 10
0.2874
 20
81.5494
  0
VERTEX
  8
CAPA_1
 62
     2
 10
0.8345
 20
80.6245
  0
VERTEX
  8
CAPA_1
 62
     2
 10
1.002
 20
79.4073
  0
VERTEX
  8
CAPA_1
 62
     2
 10
-0.079
 20
54.7504
  0
VERTEX
  8
CAPA_1
 62
     2
 10
10.6171
 20
54.5585
  0
VERTEX
  8
CAPA_1
 62
     2
 10
10.5753
 20
46.3828
  0
VERTEX
  8
CAPA_1
 62
     2
 10
13.5202
 20
38.1148
  0
VERTEX
  8
CAPA_1
 62
     2
 10
14.286
 20
-4.9553
  0
VERTEX
  8
CAPA_1
 62
     2
 10
9.9712
 20
-11.5656
  0
VERTEX
  8
CAPA_1
 62
     2
 10
9.703
 20
-11.3961
  0
VERTEX
  8
CAPA_1
 62
     2
 10
9.4621
 20
-11.354
  0
VERTEX
  8
CAPA_1
 62
     2
 10
9.2604
 20
-11.411
  0
VERTEX
  8
CAPA_1
 62
     2
 10
9.1097
 20
-11.5391
  0
VERTEX
  8
CAPA_1
 62
     2
 10
9.0221
 20
-11.7101
  0
VERTEX
  8
CAPA_1
 62
     2
 10
9.0095
 20
-11.8959
  0
VERTEX
  8
CAPA_1
 62
     2
 10
9.0838
 20
-12.0682
  0
VERTEX
  8
CAPA_1
 62
     2
 10
9.257
 20
-12.199
  0
VERTEX
  8
CAPA_1
 62
     2
 10
11.0829
 20
-13.1565
  0
VERTEX
  8
CAPA_1
 62
     2
 10
5.2034
 20
-24.3962
  0
VERTEX
  8
CAPA_1
 62
     2
 10
-2.6834
 20
-20.3003
  0
VERTEX
  8
CAPA_1
 62
     2
 10
-7.6773
 20
-10.2215
  0
VERTEX
  8
CAPA_1
 62
     2
 10
-11.3723
 20
-10.2648
  0
VERTEX
  8
CAPA_1
 62
     2
 10
-14.243
 20
-4.9995
  0
VERTEX
  8
CAPA_1
 62
     2
 10
-13.2566
 20
38.1148
  0
VERTEX
  8
CAPA_1
 62
     2
 10
-10.3117
 20
46.3828
  0
VERTEX
  8
CAPA_1
 62
     2
 10
-10.3535
 20
54.5585
  0
SEQEND
  8
CAPA_1
 62
     2
  0
POLYLINE
  8
CAPA_1
 62
     2
 66
     1
 70
     1
  0
VERTEX
  8
CAPA_1
 62
     2
 10
-1.6604
 20
80.8018
  0
VERTEX
  8
CAPA_1
 62
     2
 10
-1.4891
 20
80.7845
  0
VERTEX
  8
CAPA_1
 62
     2
 10
-1.3295
 20
80.735
  0
VERTEX
  8
CAPA_1
 62
     2
 10
-1.1851
 20
80.6566
  0
VERTEX
  8
CAPA_1
 62
     2
 10
-1.0593
 20
80.5529
  0
VERTEX
  8
CAPA_1
 62
     2
 10
-0.9556
 20
80.4271
  0
VERTEX
  8
CAPA_1
 62
     2
 10
-0.8772
 20
80.2827
  0
VERTEX
  8
CAPA_1
 62
     2
 10
-0.8277
 20
80.1231
  0
VERTEX
  8
CAPA_1
 62
     2
 10
-0.8104
 20
79.9518
  0
VERTEX
  8
CAPA_1
 62
     2
 10
-0.8277
 20
79.7805
  0
VERTEX
  8
CAPA_1
 62
     2
 10
-0.8772
 20
79.6209
  0
VERTEX
  8
CAPA_1
 62
     2
 10
-0.9556
 20
79.4765
  0
VERTEX
  8
CAPA_1
 62
     2
 10
-1.0593
 20
79.3507
  0
VERTEX
  8
CAPA_1
 62
     2
 10
-1.1851
 20
79.247
  0
VERTEX
  8
CAPA_1
 62
     2
 10
-1.3295
 20
79.1686
  0
VERTEX
  8
CAPA_1
 62
     2
 10
-1.4891
 20
79.1191
  0
VERTEX
  8
CAPA_1
 62
     2
 10
-1.6604
 20
79.1018
  0
VERTEX
  8
CAPA_1
 62
     2
 10
-1.8317
 20
79.1191
  0
VERTEX
  8
CAPA_1
 62
     2
 10
-1.9913
 20
79.1686
  0
VERTEX
  8
CAPA_1
 62
     2
 10
-2.1357
 20
79.247
  0
VERTEX
  8
CAPA_1
 62
     2
 10
-2.2615
 20
79.3507
  0
VERTEX
  8
CAPA_1
 62
     2
 10
-2.3652
 20
79.4765
  0
VERTEX
  8
CAPA_1
 62
     2
 10
-2.4436
 20
79.6209
  0
VERTEX
  8
CAPA_1
 62
     2
 10
-2.4931
 20
79.7805
  0
VERTEX
  8
CAPA_1
 62
     2
 10
-2.5104
 20
79.9518
  0
VERTEX
  8
CAPA_1
 62
     2
 10
-2.4931
 20
80.1231
  0
VERTEX
  8
CAPA_1
 62
     2
 10
-2.4436
 20
80.2827
  0
VERTEX
  8
CAPA_1
 62
     2
 10
-2.3652
 20
80.4271
  0
VERTEX
  8
CAPA_1
 62
     2
 10
-2.2615
 20
80.5529
  0
VERTEX
  8
CAPA_1
 62
     2
 10
-2.1357
 20
80.6566
  0
VERTEX
  8
CAPA_1
 62
     2
 10
-1.9913
 20
80.735
  0
VERTEX
  8
CAPA_1
 62
     2
 10
-1.8317
 20
80.7845
  0
VERTEX
  8
CAPA_1
 62
     2
 10
-1.6604
 20
80.8018
  0
SEQEND
  8
CAPA_1
 62
     2
  0
POLYLINE
  8
CAPA_1
 62
     2
 66
     1
 70
     1
  0
VERTEX
  8
CAPA_1
 62
     2
 10
0.0409
 20
-11.7312
  0
VERTEX
  8
CAPA_1
 62
     2
 10
0.7326
 20
-11.6673
  0
VERTEX
  8
CAPA_1
 62
     2
 10
1.3595
 20
-11.4849
  0
VERTEX
  8
CAPA_1
 62
     2
 10
1.9136
 20
-11.2031
  0
VERTEX
  8
CAPA_1
 62
     2
 10
2.387
 20
-10.8409
  0
VERTEX
  8
CAPA_1
 62
     2
 10
2.7718
 20
-10.4173
  0
VERTEX
  8
CAPA_1
 62
     2
 10
3.0599
 20
-9.9513
  0
VERTEX
  8
CAPA_1
 62
     2
 10
3.2434
 20
-9.462
  0
VERTEX
  8
CAPA_1
 62
     2
 10
3.3144
 20
-8.9683
  0
VERTEX
  8
CAPA_1
 62
     2
 10
5.7413
 20
-5.5674
  0
VERTEX
  8
CAPA_1
 62
     2
 10
9.151
 20
-5.5889
  0
VERTEX
  8
CAPA_1
 62
     2
 10
9.3439
 20
-5.5483
  0
VERTEX
  8
CAPA_1
 62
     2
 10
9.5648
 20
-5.4359
  0
VERTEX
  8
CAPA_1
 62
     2
 10
9.7962
 20
-5.2656
  0
VERTEX
  8
CAPA_1
 62
     2
 10
10.0206
 20
-5.0512
  0
VERTEX
  8
CAPA_1
 62
     2
 10
10.2205
 20
-4.8066
  0
VERTEX
  8
CAPA_1
 62
     2
 10
10.3783
 20
-4.5456
  0
VERTEX
  8
CAPA_1
 62
     2
 10
10.4766
 20
-4.2823
  0
VERTEX
  8
CAPA_1
 62
     2
 10
10.4978
 20
-4.0305
  0
VERTEX
  8
CAPA_1
 62
     2
 10
8.2748
 20
31.5265
  0
VERTEX
  8
CAPA_1
 62
     2
 10
4.7553
 20
44.0414
  0
VERTEX
  8
CAPA_1
 62
     2
 10
4.5915
 20
44.4287
  0
VERTEX
  8
CAPA_1
 62
     2
 10
4.3343
 20
44.9079
  0
VERTEX
  8
CAPA_1
 62
     2
 10
3.9691
 20
45.4349
  0
VERTEX
  8
CAPA_1
 62
     2
 10
3.4811
 20
45.9659
  0
VERTEX
  8
CAPA_1
 62
     2
 10
2.8558
 20
46.4569
  0
VERTEX
  8
CAPA_1
 62
     2
 10
2.0785
 20
46.864
  0
VERTEX
  8
CAPA_1
 62
     2
 10
1.1345
 20
47.1431
  0
VERTEX
  8
CAPA_1
 62
     2
 10
0.0092
 20
47.2504
  0
VERTEX
  8
CAPA_1
 62
     2
 10
0.0409
 20
-11.7312
  0
SEQEND
  8
CAPA_1
 62
     2
  0
POLYLINE
  8
CAPA_1
 66
     1
  0
VERTEX
  8
CAPA_1
 10
0.0092
 20
47.2504
  0
VERTEX
  8
CAPA_1
 10
-1.1055
 20
47.1431
  0
VERTEX
  8
CAPA_1
 10
-2.0217
 20
46.864
  0
VERTEX
  8
CAPA_1
 10
-2.7598
 20
46.4569
  0
VERTEX
  8
CAPA_1
 10
-3.3401
 20
45.9659
  0
VERTEX
  8
CAPA_1
 10
-3.7831
 20
45.4349
  0
VERTEX
  8
CAPA_1
 10
-4.109
 20
44.9079
  0
VERTEX
  8
CAPA_1
 10
-4.3385
 20
44.4287
  0
VERTEX
  8
CAPA_1
 10
-4.4917
 20
44.0414
  0
VERTEX
  8
CAPA_1
 10
-8.0112
 20
31.5265
  0
VERTEX
  8
CAPA_1
 10
-10.2342
 20
-4.0305
  0
VERTEX
  8
CAPA_1
 10
-10.213
 20
-4.2823
  0
VERTEX
  8
CAPA_1
 10
-10.1147
 20
-4.5456
  0
VERTEX
  8
CAPA_1
 10
-9.9569
 20
-4.8066
  0
VERTEX
  8
CAPA_1
 10
-9.757
 20
-5.0512
  0
VERTEX
  8
CAPA_1
 10
-9.5326
 20
-5.2656
  0
VERTEX
  8
CAPA_1
 10
-9.3012
 20
-5.4359
  0
VERTEX
  8
CAPA_1
 10
-9.0803
 20
-5.5483
  0
VERTEX
  8
CAPA_1
 10
-8.8874
 20
-5.5889
  0
VERTEX
  8
CAPA_1
 10
-5.4777
 20
-5.5674
  0
VERTEX
  8
CAPA_1
 10
-3.0508
 20
-8.9683
  0
VERTEX
  8
CAPA_1
 10
-2.9876
 20
-9.4612
  0
VERTEX
  8
CAPA_1
 10
-2.8246
 20
-9.9485
  0
VERTEX
  8
CAPA_1
 10
-2.5655
 20
-10.4116
  0
VERTEX
  8
CAPA_1
 10
-2.2141
 20
-10.8319
  0
VERTEX
  8
CAPA_1
 10
-1.774
 20
-11.1909
  0
VERTEX
  8
CAPA_1
 10
-1.2489
 20
-11.4698
  0
VERTEX
  8
CAPA_1
 10
-0.6425
 20
-11.6502
  0
VERTEX
  8
CAPA_1
 10
0.0414
 20
-11.7133
  0
SEQEND
  8
CAPA_1
  0
POLYLINE
  8
CAPA_1
 66
     1
 70
     1
  0
VERTEX
  8
CAPA_1
 10
-10.3535
 20
54.5585
  0
VERTEX
  8
CAPA_1
 10
-10.1939
 20
55.2013
  0
VERTEX
  8
CAPA_1
 10
-14.4746
 20
56.7716
  0
VERTEX
  8
CAPA_1
 10
-7.3327
 20
78.4611
  0
VERTEX
  8
CAPA_1
 10
-4.3486
 20
77.4324
  0
VERTEX
  8
CAPA_1
 10
-4.1707
 20
79.6267
  0
VERTEX
  8
CAPA_1
 10
-3.8947
 20
80.9556
  0
VERTEX
  8
CAPA_1
 10
-3.27
 20
81.8494
  0
VERTEX
  8
CAPA_1
 10
-2.4181
 20
82.3319
  0
VERTEX
  8
CAPA_1
 10
-1.4603
 20
82.4269
  0
VERTEX
  8
CAPA_1
 10
-0.5181
 20
82.1581
  0
VERTEX
  8
CAPA_1
 10
0.2874
 20
81.5494
  0
VERTEX
  8
CAPA_1
 10
0.8345
 20
80.6245
  0
VERTEX
  8
CAPA_1
 10
1.002
 20
79.4073
  0
VERTEX
  8
CAPA_1
 10
-0.079
 20
54.7504
  0
VERTEX
  8
CAPA_1
 10
10.6171
 20
54.5585
  0
VERTEX
  8
CAPA_1
 10
10.5753
 20
46.3828
  0
VERTEX
  8
CAPA_1
 10
13.5202
 20
38.1148
  0
VERTEX
  8
CAPA_1
 10
14.286
 20
-4.9553
  0
VERTEX
  8
CAPA_1
 10
9.9712
 20
-11.5656
  0
VERTEX
  8
CAPA_1
 10
9.703
 20
-11.3961
  0
VERTEX
  8
CAPA_1
 10
9.4621
 20
-11.354
  0
VERTEX
  8
CAPA_1
 10
9.2604
 20
-11.411
  0
VERTEX
  8
CAPA_1
 10
9.1097
 20
-11.5391
  0
VERTEX
  8
CAPA_1
 10
9.0221
 20
-11.7101
  0
VERTEX
  8
CAPA_1
 10
9.0095
 20
-11.8959
  0
VERTEX
  8
CAPA_1
 10
9.0838
 20
-12.0682
  0
VERTEX
  8
CAPA_1
 10
9.257
 20
-12.199
  0
VERTEX
  8
CAPA_1
 10
11.0829
 20
-13.1565
  0
VERTEX
  8
CAPA_1
 10
5.2034
 20
-24.3962
  0
VERTEX
  8
CAPA_1
 10
-2.6834
 20
-20.3003
  0
VERTEX
  8
CAPA_1
 10
-7.6773
 20
-10.2215
  0
VERTEX
  8
CAPA_1
 10
-11.3723
 20
-10.2648
  0
VERTEX
  8
CAPA_1
 10
-14.243
 20
-4.9995
  0
VERTEX
  8
CAPA_1
 10
-13.2566
 20
38.1148
  0
VERTEX
  8
CAPA_1
 10
-10.3117
 20
46.3828
  0
VERTEX
  8
CAPA_1
 10
-10.3535
 20
54.5585
  0
SEQEND
  8
CAPA_1
  0
POLYLINE
  8
CAPA_1
 66
     1
 70
     1
  0
VERTEX
  8
CAPA_1
 10
-1.6604
 20
80.8018
  0
VERTEX
  8
CAPA_1
 10
-1.4891
 20
80.7845
  0
VERTEX
  8
CAPA_1
 10
-1.3295
 20
80.735
  0
VERTEX
  8
CAPA_1
 10
-1.1851
 20
80.6566
  0
VERTEX
  8
CAPA_1
 10
-1.0593
 20
80.5529
  0
VERTEX
  8
CAPA_1
 10
-0.9556
 20
80.4271
  0
VERTEX
  8
CAPA_1
 10
-0.8772
 20
80.2827
  0
VERTEX
  8
CAPA_1
 10
-0.8277
 20
80.1231
  0
VERTEX
  8
CAPA_1
 10
-0.8104
 20
79.9518
  0
VERTEX
  8
CAPA_1
 10
-0.8277
 20
79.7805
  0
VERTEX
  8
CAPA_1
 10
-0.8772
 20
79.6209
  0
VERTEX
  8
CAPA_1
 10
-0.9556
 20
79.4765
  0
VERTEX
  8
CAPA_1
 10
-1.0593
 20
79.3507
  0
VERTEX
  8
CAPA_1
 10
-1.1851
 20
79.247
  0
VERTEX
  8
CAPA_1
 10
-1.3295
 20
79.1686
  0
VERTEX
  8
CAPA_1
 10
-1.4891
 20
79.1191
  0
VERTEX
  8
CAPA_1
 10
-1.6604
 20
79.1018
  0
VERTEX
  8
CAPA_1
 10
-1.8317
 20
79.1191
  0
VERTEX
  8
CAPA_1
 10
-1.9913
 20
79.1686
  0
VERTEX
  8
CAPA_1
 10
-2.1357
 20
79.247
  0
VERTEX
  8
CAPA_1
 10
-2.2615
 20
79.3507
  0
VERTEX
  8
CAPA_1
 10
-2.3652
 20
79.4765
  0
VERTEX
  8
CAPA_1
 10
-2.4436
 20
79.6209
  0
VERTEX
  8
CAPA_1
 10
-2.4931
 20
79.7805
  0
VERTEX
  8
CAPA_1
 10
-2.5104
 20
79.9518
  0
VERTEX
  8
CAPA_1
 10
-2.4931
 20
80.1231
  0
VERTEX
  8
CAPA_1
 10
-2.4436
 20
80.2827
  0
VERTEX
  8
CAPA_1
 10
-2.3652
 20
80.4271
  0
VERTEX
  8
CAPA_1
 10
-2.2615
 20
80.5529
  0
VERTEX
  8
CAPA_1
 10
-2.1357
 20
80.6566
  0
VERTEX
  8
CAPA_1
 10
-1.9913
 20
80.735
  0
VERTEX
  8
CAPA_1
 10
-1.8317
 20
80.7845
  0
VERTEX
  8
CAPA_1
 10
-1.6604
 20
80.8018
  0
SEQEND
  8
CAPA_1
  0
POLYLINE
  8
CAPA_1
 66
     1
  0
VERTEX
  8
CAPA_1
 10
0.0409
 20
-11.7312
  0
VERTEX
  8
CAPA_1
 10
0.7326
 20
-11.6673
  0
VERTEX
  8
CAPA_1
 10
1.3595
 20
-11.4849
  0
VERTEX
  8
CAPA_1
 10
1.9136
 20
-11.2031
  0
VERTEX
  8
CAPA_1
 10
2.387
 20
-10.8409
  0
VERTEX
  8
CAPA_1
 10
2.7718
 20
-10.4173
  0
VERTEX
  8
CAPA_1
 10
3.0599
 20
-9.9513
  0
VERTEX
  8
CAPA_1
 10
3.2434
 20
-9.462
  0
VERTEX
  8
CAPA_1
 10
3.3144
 20
-8.9683
  0
VERTEX
  8
CAPA_1
 10
5.7413
 20
-5.5674
  0
VERTEX
  8
CAPA_1
 10
9.151
 20
-5.5889
  0
VERTEX
  8
CAPA_1
 10
9.3439
 20
-5.5483
  0
VERTEX
  8
CAPA_1
 10
9.5648
 20
-5.4359
  0
VERTEX
  8
CAPA_1
 10
9.7962
 20
-5.2656
  0
VERTEX
  8
CAPA_1
 10
10.0206
 20
-5.0512
  0
VERTEX
  8
CAPA_1
 10
10.2205
 20
-4.8066
  0
VERTEX
  8
CAPA_1
 10
10.3783
 20
-4.5456
  0
VERTEX
  8
CAPA_1
 10
10.4766
 20
-4.2823
  0
VERTEX
  8
CAPA_1
 10
10.4978
 20
-4.0305
  0
VERTEX
  8
CAPA_1
 10
8.2748
 20
31.5265
  0
VERTEX
  8
CAPA_1
 10
4.7553
 20
44.0414
  0
VERTEX
  8
CAPA_1
 10
4.5915
 20
44.4287
  0
VERTEX
  8
CAPA_1
 10
4.3343
 20
44.9079
  0
VERTEX
  8
CAPA_1
 10
3.9691
 20
45.4349
  0
VERTEX
  8
CAPA_1
 10
3.4811
 20
45.9659
  0
VERTEX
  8
CAPA_1
 10
2.8558
 20
46.4569
  0
VERTEX
  8
CAPA_1
 10
2.0785
 20
46.864
  0
VERTEX
  8
CAPA_1
 10
1.1345
 20
47.1431
  0
VERTEX
  8
CAPA_1
 10
0.0092
 20
47.2504
  0
SEQEND
  8
CAPA_1
  0
POLYLINE
  8
CAPA_1
 62
     2
 66
     1
 70
     1
  0
VERTEX
  8
CAPA_1
 62
     2
 10
3.5746
 20
-20.9277
  0
VERTEX
  8
CAPA_1
 62
     2
 10
4.0286
 20
-20.0367
  0
VERTEX
  8
CAPA_1
 62
     2
 10
6.7016
 20
-21.3987
  0
VERTEX
  8
CAPA_1
 62
     2
 10
6.2476
 20
-22.2897
  0
VERTEX
  8
CAPA_1
 62
     2
 10
3.5746
 20
-20.9277
  0
SEQEND
  8
CAPA_1
 62
     2
  0
POLYLINE
  8
CAPA_1
 62
     2
 66
     1
 70
     1
  0
VERTEX
  8
CAPA_1
 62
     2
 10
2.8249
 20
-22.4817
  0
VERTEX
  8
CAPA_1
 62
     2
 10
3.2789
 20
-21.5907
  0
VERTEX
  8
CAPA_1
 62
     2
 10
5.9519
 20
-22.9527
  0
VERTEX
  8
CAPA_1
 62
     2
 10
5.4979
 20
-23.8437
  0
VERTEX
  8
CAPA_1
 62
     2
 10
2.8249
 20
-22.4817
  0
SEQEND
  8
CAPA_1
 62
     2
  0
POLYLINE
  8
CAPA_1
 62
     2
 66
     1
 70
     1
  0
VERTEX
  8
CAPA_1
 62
     2
 10
4.3884
 20
-19.3949
  0
VERTEX
  8
CAPA_1
 62
     2
 10
4.8424
 20
-18.5039
  0
VERTEX
  8
CAPA_1
 62
     2
 10
7.5154
 20
-19.8659
  0
VERTEX
  8
CAPA_1
 62
     2
 10
7.0614
 20
-20.7569
  0
VERTEX
  8
CAPA_1
 62
     2
 10
4.3884
 20
-19.3949
  0
SEQEND
  8
CAPA_1
 62
     2
  0
POLYLINE
  8
CAPA_1
 62
     2
 66
     1
 70
     1
  0
VERTEX
  8
CAPA_1
 62
     2
 10
5.2003
 20
-17.9178
  0
VERTEX
  8
CAPA_1
 62
     2
 10
5.6543
 20
-17.0268
  0
VERTEX
  8
CAPA_1
 62
     2
 10
8.3273
 20
-18.3888
  0
VERTEX
  8
CAPA_1
 62
     2
 10
7.8733
 20
-19.2798
  0
VERTEX
  8
CAPA_1
 62
     2
 10
5.2003
 20
-17.9178
  0
SEQEND
  8
CAPA_1
 62
     2
  0
POLYLINE
  8
CAPA_1
 62
     2
 66
     1
 70
     1
  0
VERTEX
  8
CAPA_1
 62
     2
 10
6.0491
 20
-16.3191
  0
VERTEX
  8
CAPA_1
 62
     2
 10
6.5031
 20
-15.4281
  0
VERTEX
  8
CAPA_1
 62
     2
 10
9.1761
 20
-16.7901
  0
VERTEX
  8
CAPA_1
 62
     2
 10
8.7221
 20
-17.6811
  0
VERTEX
  8
CAPA_1
 62
     2
 10
6.0491
 20
-16.3191
  0
SEQEND
  8
CAPA_1
 62
     2
  0
POLYLINE
  8
CAPA_1
 62
     2
 66
     1
 70
     1
  0
VERTEX
  8
CAPA_1
 62
     2
 10
6.8024
 20
-14.8239
  0
VERTEX
  8
CAPA_1
 62
     2
 10
7.2564
 20
-13.9329
  0
VERTEX
  8
CAPA_1
 62
     2
 10
9.9294
 20
-15.2949
  0
VERTEX
  8
CAPA_1
 62
     2
 10
9.4754
 20
-16.1859
  0
VERTEX
  8
CAPA_1
 62
     2
 10
6.8024
 20
-14.8239
  0
SEQEND
  8
CAPA_1
 62
     2
  0
POLYLINE
  8
CAPA_1
 62
     2
 66
     1
 70
     1
  0
VERTEX
  8
CAPA_1
 62
     2
 10
7.7298
 20
-13.1549
  0
VERTEX
  8
CAPA_1
 62
     2
 10
8.1838
 20
-12.2639
  0
VERTEX
  8
CAPA_1
 62
     2
 10
10.8568
 20
-13.6259
  0
VERTEX
  8
CAPA_1
 62
     2
 10
10.4028
 20
-14.5169
  0
VERTEX
  8
CAPA_1
 62
     2
 10
7.7298
 20
-13.1549
  0
SEQEND
  8
CAPA_1
 62
     2
  0
POLYLINE
  8
CAPA_1
 62
     2
 66
     1
 70
     1
  0
VERTEX
  8
CAPA_1
 62
     2
 10
-14.0601
 20
58.0231
  0
VERTEX
  8
CAPA_1
 62
     2
 10
-13.6694
 20
59.1577
  0
VERTEX
  8
CAPA_1
 62
     2
 10
-8.8473
 20
57.4973
  0
VERTEX
  8
CAPA_1
 62
     2
 10
-9.238
 20
56.3627
  0
VERTEX
  8
CAPA_1
 62
     2
 10
-14.0601
 20
58.0231
  0
SEQEND
  8
CAPA_1
 62
     2
  0
POLYLINE
  8
CAPA_1
 62
     2
 66
     1
 70
     1
  0
VERTEX
  8
CAPA_1
 62
     2
 10
-13.0679
 20
60.9886
  0
VERTEX
  8
CAPA_1
 62
     2
 10
-12.6772
 20
62.1232
  0
VERTEX
  8
CAPA_1
 62
     2
 10
-7.8551
 20
60.4628
  0
VERTEX
  8
CAPA_1
 62
     2
 10
-8.2458
 20
59.3282
  0
VERTEX
  8
CAPA_1
 62
     2
 10
-13.0679
 20
60.9886
  0
SEQEND
  8
CAPA_1
 62
     2
  0
POLYLINE
  8
CAPA_1
 62
     2
 66
     1
 70
     1
  0
VERTEX
  8
CAPA_1
 62
     2
 10
-12.0975
 20
64.0865
  0
VERTEX
  8
CAPA_1
 62
     2
 10
-11.7068
 20
65.2211
  0
VERTEX
  8
CAPA_1
 62
     2
 10
-6.8847
 20
63.5607
  0
VERTEX
  8
CAPA_1
 62
     2
 10
-7.2754
 20
62.4261
  0
VERTEX
  8
CAPA_1
 62
     2
 10
-12.0975
 20
64.0865
  0
SEQEND
  8
CAPA_1
 62
     2
  0
POLYLINE
  8
CAPA_1
 62
     2
 66
     1
 70
     1
  0
VERTEX
  8
CAPA_1
 62
     2
 10
-11.1274
 20
66.8815
  0
VERTEX
  8
CAPA_1
 62
     2
 10
-10.7367
 20
68.0161
  0
VERTEX
  8
CAPA_1
 62
     2
 10
-5.9146
 20
66.3557
  0
VERTEX
  8
CAPA_1
 62
     2
 10
-6.3053
 20
65.2211
  0
VERTEX
  8
CAPA_1
 62
     2
 10
-11.1274
 20
66.8815
  0
SEQEND
  8
CAPA_1
 62
     2
  0
POLYLINE
  8
CAPA_1
 62
     2
 66
     1
 70
     1
  0
VERTEX
  8
CAPA_1
 62
     2
 10
-10.1131
 20
70.0396
  0
VERTEX
  8
CAPA_1
 62
     2
 10
-9.7224
 20
71.1742
  0
VERTEX
  8
CAPA_1
 62
     2
 10
-4.9003
 20
69.5138
  0
VERTEX
  8
CAPA_1
 62
     2
 10
-5.291
 20
68.3792
  0
VERTEX
  8
CAPA_1
 62
     2
 10
-10.1131
 20
70.0396
  0
SEQEND
  8
CAPA_1
 62
     2
  0
POLYLINE
  8
CAPA_1
 62
     2
 66
     1
 70
     1
  0
VERTEX
  8
CAPA_1
 62
     2
 10
-9.165
 20
73.0823
  0
VERTEX
  8
CAPA_1
 62
     2
 10
-8.7743
 20
74.2169
  0
VERTEX
  8
CAPA_1
 62
     2
 10
-3.9522
 20
72.5565
  0
VERTEX
  8
CAPA_1
 62
     2
 10
-4.3429
 20
71.4219
  0
VERTEX
  8
CAPA_1
 62
     2
 10
-9.165
 20
73.0823
  0
SEQEND
  8
CAPA_1
 62
     2
  0
POLYLINE
  8
CAPA_1
 62
     2
 66
     1
 70
     1
  0
VERTEX
  8
CAPA_1
 62
     2
 10
-8.1508
 20
76.125
  0
VERTEX
  8
CAPA_1
 62
     2
 10
-7.7601
 20
77.2596
  0
VERTEX
  8
CAPA_1
 62
     2
 10
-2.938
 20
75.5992
  0
VERTEX
  8
CAPA_1
 62
     2
 10
-3.3287
 20
74.4646
  0
VERTEX
  8
CAPA_1
 62
     2
 10
-8.1508
 20
76.125
  0
SEQEND
  8
CAPA_1
 62
     2
  0
ENDSEC
  0
EOF
