  0
SECTION
  2
HEADER
  9
$ACADVER
  1
AC1002
  9
$INSBASE
 10
0.0
 20
0.0
  9
$EXTMIN
 10
-47.9841
 20
-14.2376
  9
$EXTMAX
 10
47.9842
 20
14.2505
  9
$LIMMIN
 10
0.0
 20
0.0
  9
$LIMMAX
 10
12.0
 20
9.0
  9
$ORTHOMODE
 70
     0
  9
$REGENMODE
 70
     1
  9
$FILLMODE
 70
     1
  9
$QTEXTMODE
 70
     0
  9
$DRAGMODE
 70
     2
  9
$LTSCALE
 40
1.0
  9
$OSMODE
 70
    37
  9
$ATTMODE
 70
     1
  9
$TEXTSIZE
 40
0.2
  9
$TRACEWID
 40
0.05
  9
$TEXTSTYLE
  7
STANDARD
  9
$CLAYER
  8
0
  9
$CELTYPE
  6
BYLAYER
  9
$CECOLOR
 62
   256
  9
$DIMSCALE
 40
1.0
  9
$DIMASZ
 40
0.18
  9
$DIMEXO
 40
0.0625
  9
$DIMDLI
 40
0.38
  9
$DIMRND
 40
0.0
  9
$DIMDLE
 40
0.0
  9
$DIMEXE
 40
0.18
  9
$DIMTP
 40
0.0
  9
$DIMTM
 40
0.0
  9
$DIMTXT
 40
0.18
  9
$DIMCEN
 40
0.09
  9
$DIMTSZ
 40
0.0
  9
$DIMTOL
 70
     0
  9
$DIMLIM
 70
     0
  9
$DIMTIH
 70
     1
  9
$DIMTOH
 70
     1
  9
$DIMSE1
 70
     0
  9
$DIMSE2
 70
     0
  9
$DIMTAD
 70
     0
  9
$DIMZIN
 70
     0
  9
$DIMBLK
  1

  9
$LUNITS
 70
     2
  9
$LUPREC
 70
     4
  9
$SKETCHINC
 40
0.1
  9
$FILLETRAD
 40
0.5
  9
$AUNITS
 70
     0
  9
$AUPREC
 70
     0
  9
$MENU
  1
.
  9
$ELEVATION
 40
0.0
  9
$THICKNESS
 40
0.0
  9
$LIMCHECK
 70
     0
  9
$CHAMFERA
 40
0.5
  9
$CHAMFERB
 40
0.5
  9
$SKPOLY
 70
     0
  9
$TDCREATE
 40
2458404.494433299
  9
$TDUPDATE
 40
2458404.494433773
  9
$TDINDWG
 40
0.0000000116
  9
$TDUSRTIMER
 40
0.0000000116
  9
$USRTIMER
 70
     1
  9
$ANGBASE
 50
0.0
  9
$ANGDIR
 70
     0
  9
$PDMODE
 70
     0
  9
$PDSIZE
 40
0.0
  9
$PLINEWID
 40
0.0
  9
$COORDS
 70
     1
  9
$SURFTAB1
 70
     6
  9
$SURFTAB2
 70
     6
  9
$SURFTYPE
 70
     6
  9
$SURFU
 70
     6
  9
$SURFV
 70
     6
  9
$UCSNAME
  2

  9
$UCSORG
 10
0.0
 20
0.0
 30
0.0
  9
$UCSXDIR
 10
1.0
 20
0.0
 30
0.0
  9
$UCSYDIR
 10
0.0
 20
1.0
 30
0.0
  9
$USERI1
 70
     0
  9
$USERI2
 70
     0
  9
$USERI3
 70
     0
  9
$USERI4
 70
     0
  9
$USERI5
 70
     0
  9
$USERR1
 40
0.0
  9
$USERR2
 40
0.0
  9
$USERR3
 40
0.0
  9
$USERR4
 40
0.0
  9
$USERR5
 40
0.0
  0
ENDSEC
  0
SECTION
  2
TABLES
  0
TABLE
  2
LTYPE
 70
    10
  0
LTYPE
  2
CONTINUOUS
 70
     0
  3
Solid line
 72
    65
 73
     0
 40
0.0
  0
LTYPE
  2
NEW_LINE1
 70
     0
  3

 72
    65
 73
     2
 40
0.2
 49
0.1
 49
-0.1
  0
LTYPE
  2
NEW_LINE2
 70
     0
  3

 72
    65
 73
     2
 40
0.2
 49
0.1
 49
-0.1
  0
LTYPE
  2
NEW_LINE3
 70
     0
  3

 72
    65
 73
     2
 40
0.2
 49
0.1
 49
-0.1
  0
LTYPE
  2
NEW_LINE4
 70
     0
  3

 72
    65
 73
     2
 40
0.2
 49
0.1
 49
-0.1
  0
LTYPE
  2
NEW_LINE5
 70
     0
  3

 72
    65
 73
     2
 40
0.2
 49
0.1
 49
-0.1
  0
LTYPE
  2
NEW_LINE6
 70
     0
  3

 72
    65
 73
     2
 40
0.2
 49
0.1
 49
-0.1
  0
LTYPE
  2
NEW_LINE7
 70
     0
  3

 72
    65
 73
     2
 40
0.2
 49
0.1
 49
-0.1
  0
LTYPE
  2
NEW_LINE8
 70
     0
  3

 72
    65
 73
     2
 40
0.2
 49
0.1
 49
-0.1
  0
LTYPE
  2
NEW_LINE9
 70
     0
  3

 72
    65
 73
     2
 40
0.2
 49
0.1
 49
-0.1
  0
ENDTAB
  0
TABLE
  2
LAYER
 70
     2
  0
LAYER
  2
0
 70
     0
 62
     7
  6
CONTINUOUS
  0
LAYER
  2
CAPA_1
 70
     0
 62
     7
  6
CONTINUOUS
  0
ENDTAB
  0
TABLE
  2
STYLE
 70
     1
  0
STYLE
  2
STANDARD
 70
     0
 40
0.0
 41
1.0
 50
0.0
 71
     0
 42
0.2
  3
txt
  4

  0
ENDTAB
  0
TABLE
  2
VIEW
 70
     0
  0
ENDTAB
  0
ENDSEC
  0
SECTION
  2
BLOCKS
  0
ENDSEC
  0
SECTION
  2
ENTITIES
  0
POLYLINE
  8
CAPA_1
 62
     1
 66
     1
  0
VERTEX
  8
CAPA_1
 62
     1
 10
19.3051
 20
11.7993
  0
VERTEX
  8
CAPA_1
 62
     1
 10
19.3294
 20
12.04
  0
VERTEX
  8
CAPA_1
 62
     1
 10
19.3989
 20
12.2642
  0
VERTEX
  8
CAPA_1
 62
     1
 10
19.509
 20
12.467
  0
VERTEX
  8
CAPA_1
 62
     1
 10
19.6549
 20
12.6438
  0
VERTEX
  8
CAPA_1
 62
     1
 10
19.8316
 20
12.7896
  0
VERTEX
  8
CAPA_1
 62
     1
 10
20.0344
 20
12.8997
  0
VERTEX
  8
CAPA_1
 62
     1
 10
20.2586
 20
12.9692
  0
VERTEX
  8
CAPA_1
 62
     1
 10
20.4993
 20
12.9935
  0
VERTEX
  8
CAPA_1
 62
     1
 10
20.74
 20
12.9692
  0
VERTEX
  8
CAPA_1
 62
     1
 10
20.9642
 20
12.8997
  0
VERTEX
  8
CAPA_1
 62
     1
 10
21.167
 20
12.7896
  0
VERTEX
  8
CAPA_1
 62
     1
 10
21.3438
 20
12.6438
  0
VERTEX
  8
CAPA_1
 62
     1
 10
21.4896
 20
12.467
  0
VERTEX
  8
CAPA_1
 62
     1
 10
21.5997
 20
12.2642
  0
VERTEX
  8
CAPA_1
 62
     1
 10
21.6692
 20
12.04
  0
VERTEX
  8
CAPA_1
 62
     1
 10
21.6935
 20
11.7993
  0
SEQEND
  8
CAPA_1
 62
     1
  0
POLYLINE
  8
CAPA_1
 62
   251
 66
     1
 70
     1
  0
VERTEX
  8
CAPA_1
 62
   251
 10
-43.7546
 20
7.9161
  0
VERTEX
  8
CAPA_1
 62
   251
 10
-43.8245
 20
7.9175
  0
VERTEX
  8
CAPA_1
 62
   251
 10
-47.9417
 20
7.9147
  0
VERTEX
  8
CAPA_1
 62
   251
 10
-47.9417
 20
-8.5569
  0
VERTEX
  8
CAPA_1
 62
   251
 10
-36.4625
 20
-8.5569
  0
VERTEX
  8
CAPA_1
 62
   251
 10
-36.211
 20
-8.5996
  0
VERTEX
  8
CAPA_1
 62
   251
 10
-35.8911
 20
-8.7231
  0
VERTEX
  8
CAPA_1
 62
   251
 10
-35.5342
 20
-8.9211
  0
VERTEX
  8
CAPA_1
 62
   251
 10
-35.1718
 20
-9.1869
  0
VERTEX
  8
CAPA_1
 62
   251
 10
-34.8352
 20
-9.514
  0
VERTEX
  8
CAPA_1
 62
   251
 10
-34.5559
 20
-9.8958
  0
VERTEX
  8
CAPA_1
 62
   251
 10
-34.3653
 20
-10.3258
  0
VERTEX
  8
CAPA_1
 62
   251
 10
-34.2947
 20
-10.7974
  0
VERTEX
  8
CAPA_1
 62
   251
 10
-34.2947
 20
-11.7863
  0
VERTEX
  8
CAPA_1
 62
   251
 10
-20.5259
 20
-11.7863
  0
VERTEX
  8
CAPA_1
 62
   251
 10
-20.5259
 20
-14.1952
  0
VERTEX
  8
CAPA_1
 62
   251
 10
43.7754
 20
-14.1952
  0
VERTEX
  8
CAPA_1
 62
   251
 10
43.7754
 20
-10.5907
  0
VERTEX
  8
CAPA_1
 62
   251
 10
43.8339
 20
-10.2972
  0
VERTEX
  8
CAPA_1
 62
   251
 10
43.9983
 20
-9.9701
  0
VERTEX
  8
CAPA_1
 62
   251
 10
44.2521
 20
-9.6317
  0
VERTEX
  8
CAPA_1
 62
   251
 10
44.5789
 20
-9.3046
  0
VERTEX
  8
CAPA_1
 62
   251
 10
44.962
 20
-9.0111
  0
VERTEX
  8
CAPA_1
 62
   251
 10
45.3849
 20
-8.7737
  0
VERTEX
  8
CAPA_1
 62
   251
 10
45.8312
 20
-8.6148
  0
VERTEX
  8
CAPA_1
 62
   251
 10
46.2843
 20
-8.5569
  0
VERTEX
  8
CAPA_1
 62
   251
 10
47.9418
 20
-8.5569
  0
VERTEX
  8
CAPA_1
 62
   251
 10
47.9418
 20
-0.3756
  0
VERTEX
  8
CAPA_1
 62
   251
 10
45.3539
 20
-0.3556
  0
VERTEX
  8
CAPA_1
 62
   251
 10
45.1274
 20
-0.2333
  0
VERTEX
  8
CAPA_1
 62
   251
 10
44.966
 20
-0.0416
  0
VERTEX
  8
CAPA_1
 62
   251
 10
44.8696
 20
0.1962
  0
VERTEX
  8
CAPA_1
 62
   251
 10
44.838
 20
0.4567
  0
VERTEX
  8
CAPA_1
 62
   251
 10
44.8708
 20
0.7166
  0
VERTEX
  8
CAPA_1
 62
   251
 10
44.9679
 20
0.9525
  0
VERTEX
  8
CAPA_1
 62
   251
 10
45.129
 20
1.141
  0
VERTEX
  8
CAPA_1
 62
   251
 10
45.3539
 20
1.2589
  0
VERTEX
  8
CAPA_1
 62
   251
 10
47.9418
 20
1.2627
  0
VERTEX
  8
CAPA_1
 62
   251
 10
47.9418
 20
5.09
  0
VERTEX
  8
CAPA_1
 62
   251
 10
45.3539
 20
5.09
  0
VERTEX
  8
CAPA_1
 62
   251
 10
44.8046
 20
5.1629
  0
VERTEX
  8
CAPA_1
 62
   251
 10
44.3386
 20
5.3653
  0
VERTEX
  8
CAPA_1
 62
   251
 10
43.9528
 20
5.6724
  0
VERTEX
  8
CAPA_1
 62
   251
 10
43.6441
 20
6.0596
  0
VERTEX
  8
CAPA_1
 62
   251
 10
43.4094
 20
6.502
  0
VERTEX
  8
CAPA_1
 62
   251
 10
43.2456
 20
6.9752
  0
VERTEX
  8
CAPA_1
 62
   251
 10
43.1495
 20
7.4543
  0
VERTEX
  8
CAPA_1
 62
   251
 10
43.1182
 20
7.9147
  0
VERTEX
  8
CAPA_1
 62
   251
 10
43.1182
 20
12.8772
  0
VERTEX
  8
CAPA_1
 62
   251
 10
32.8384
 20
12.8772
  0
VERTEX
  8
CAPA_1
 62
   251
 10
32.8384
 20
11.7473
  0
VERTEX
  8
CAPA_1
 62
   251
 10
16.7308
 20
11.9127
  0
VERTEX
  8
CAPA_1
 62
   251
 10
16.6645
 20
13.6663
  0
VERTEX
  8
CAPA_1
 62
   251
 10
-23.7652
 20
13.6663
  0
VERTEX
  8
CAPA_1
 62
   251
 10
-24.576
 20
12.8772
  0
VERTEX
  8
CAPA_1
 62
   251
 10
-41.6056
 20
12.8772
  0
VERTEX
  8
CAPA_1
 62
   251
 10
-41.6116
 20
10.0125
  0
VERTEX
  8
CAPA_1
 62
   251
 10
-41.6704
 20
9.7043
  0
VERTEX
  8
CAPA_1
 62
   251
 10
-41.8137
 20
9.3643
  0
VERTEX
  8
CAPA_1
 62
   251
 10
-42.0291
 20
9.0151
  0
VERTEX
  8
CAPA_1
 62
   251
 10
-42.3042
 20
8.679
  0
VERTEX
  8
CAPA_1
 62
   251
 10
-42.6267
 20
8.3785
  0
VERTEX
  8
CAPA_1
 62
   251
 10
-42.9842
 20
8.1363
  0
VERTEX
  8
CAPA_1
 62
   251
 10
-43.3643
 20
7.9746
  0
VERTEX
  8
CAPA_1
 62
   251
 10
-43.7546
 20
7.9161
  0
SEQEND
  8
CAPA_1
 62
   251
  0
POLYLINE
  8
CAPA_1
 62
   251
 66
     1
 70
     1
  0
VERTEX
  8
CAPA_1
 62
   251
 10
16.4192
 20
2.1521
  0
VERTEX
  8
CAPA_1
 62
   251
 10
6.4456
 20
8.3391
  0
VERTEX
  8
CAPA_1
 62
   251
 10
5.9308
 20
8.6252
  0
VERTEX
  8
CAPA_1
 62
   251
 10
5.2001
 20
8.8356
  0
VERTEX
  8
CAPA_1
 62
   251
 10
4.3197
 20
8.9672
  0
VERTEX
  8
CAPA_1
 62
   251
 10
3.3557
 20
9.017
  0
VERTEX
  8
CAPA_1
 62
   251
 10
2.3742
 20
8.9821
  0
VERTEX
  8
CAPA_1
 62
   251
 10
1.4415
 20
8.8595
  0
VERTEX
  8
CAPA_1
 62
   251
 10
0.6236
 20
8.6462
  0
VERTEX
  8
CAPA_1
 62
   251
 10
-0.0134
 20
8.3391
  0
VERTEX
  8
CAPA_1
 62
   251
 10
-10.1057
 20
2.0338
  0
VERTEX
  8
CAPA_1
 62
   251
 10
-10.4673
 20
1.7047
  0
VERTEX
  8
CAPA_1
 62
   251
 10
-10.7025
 20
1.3106
  0
VERTEX
  8
CAPA_1
 62
   251
 10
-10.8233
 20
0.8739
  0
VERTEX
  8
CAPA_1
 62
   251
 10
-10.8412
 20
0.4167
  0
VERTEX
  8
CAPA_1
 62
   251
 10
-10.7682
 20
-0.0385
  0
VERTEX
  8
CAPA_1
 62
   251
 10
-10.6161
 20
-0.4695
  0
VERTEX
  8
CAPA_1
 62
   251
 10
-10.3965
 20
-0.8539
  0
VERTEX
  8
CAPA_1
 62
   251
 10
-10.1213
 20
-1.1695
  0
VERTEX
  8
CAPA_1
 62
   251
 10
-1.8393
 20
-6.4303
  0
VERTEX
  8
CAPA_1
 62
   251
 10
-0.77
 20
-7.1435
  0
VERTEX
  8
CAPA_1
 62
   251
 10
0.3687
 20
-7.6823
  0
VERTEX
  8
CAPA_1
 62
   251
 10
1.5664
 20
-8.0376
  0
VERTEX
  8
CAPA_1
 62
   251
 10
2.8125
 20
-8.2006
  0
VERTEX
  8
CAPA_1
 62
   251
 10
4.0967
 20
-8.1623
  0
VERTEX
  8
CAPA_1
 62
   251
 10
5.4084
 20
-7.9137
  0
VERTEX
  8
CAPA_1
 62
   251
 10
6.7372
 20
-7.4459
  0
VERTEX
  8
CAPA_1
 62
   251
 10
8.0727
 20
-6.7499
  0
VERTEX
  8
CAPA_1
 62
   251
 10
16.7188
 20
-1.265
  0
VERTEX
  8
CAPA_1
 62
   251
 10
17.1088
 20
-0.9646
  0
VERTEX
  8
CAPA_1
 62
   251
 10
17.3953
 20
-0.5784
  0
VERTEX
  8
CAPA_1
 62
   251
 10
17.5691
 20
-0.1313
  0
VERTEX
  8
CAPA_1
 62
   251
 10
17.6207
 20
0.3521
  0
VERTEX
  8
CAPA_1
 62
   251
 10
17.5408
 20
0.8468
  0
VERTEX
  8
CAPA_1
 62
   251
 10
17.3202
 20
1.3283
  0
VERTEX
  8
CAPA_1
 62
   251
 10
16.9494
 20
1.7716
  0
VERTEX
  8
CAPA_1
 62
   251
 10
16.4192
 20
2.1521
  0
SEQEND
  8
CAPA_1
 62
   251
  0
POLYLINE
  8
CAPA_1
  6
NEW_LINE1
 62
   251
 66
     1
 70
     1
  0
VERTEX
  8
CAPA_1
  6
NEW_LINE1
 62
   251
 10
-30.415
 20
11.511
  0
VERTEX
  8
CAPA_1
  6
NEW_LINE1
 62
   251
 10
-31.7045
 20
11.511
  0
VERTEX
  8
CAPA_1
  6
NEW_LINE1
 62
   251
 10
-31.7713
 20
11.5042
  0
VERTEX
  8
CAPA_1
  6
NEW_LINE1
 62
   251
 10
-31.8335
 20
11.4848
  0
VERTEX
  8
CAPA_1
  6
NEW_LINE1
 62
   251
 10
-31.89
 20
11.4541
  0
VERTEX
  8
CAPA_1
  6
NEW_LINE1
 62
   251
 10
-31.9392
 20
11.4134
  0
VERTEX
  8
CAPA_1
  6
NEW_LINE1
 62
   251
 10
-31.9799
 20
11.3642
  0
VERTEX
  8
CAPA_1
  6
NEW_LINE1
 62
   251
 10
-32.0106
 20
11.3077
  0
VERTEX
  8
CAPA_1
  6
NEW_LINE1
 62
   251
 10
-32.03
 20
11.2455
  0
VERTEX
  8
CAPA_1
  6
NEW_LINE1
 62
   251
 10
-32.0368
 20
11.1787
  0
VERTEX
  8
CAPA_1
  6
NEW_LINE1
 62
   251
 10
-32.0368
 20
10.7001
  0
VERTEX
  8
CAPA_1
  6
NEW_LINE1
 62
   251
 10
-32.03
 20
10.6333
  0
VERTEX
  8
CAPA_1
  6
NEW_LINE1
 62
   251
 10
-32.0106
 20
10.5711
  0
VERTEX
  8
CAPA_1
  6
NEW_LINE1
 62
   251
 10
-31.9799
 20
10.5146
  0
VERTEX
  8
CAPA_1
  6
NEW_LINE1
 62
   251
 10
-31.9392
 20
10.4654
  0
VERTEX
  8
CAPA_1
  6
NEW_LINE1
 62
   251
 10
-31.89
 20
10.4247
  0
VERTEX
  8
CAPA_1
  6
NEW_LINE1
 62
   251
 10
-31.8335
 20
10.394
  0
VERTEX
  8
CAPA_1
  6
NEW_LINE1
 62
   251
 10
-31.7713
 20
10.3746
  0
VERTEX
  8
CAPA_1
  6
NEW_LINE1
 62
   251
 10
-31.7045
 20
10.3678
  0
VERTEX
  8
CAPA_1
  6
NEW_LINE1
 62
   251
 10
-30.415
 20
10.3678
  0
VERTEX
  8
CAPA_1
  6
NEW_LINE1
 62
   251
 10
-30.3483
 20
10.3746
  0
VERTEX
  8
CAPA_1
  6
NEW_LINE1
 62
   251
 10
-30.286
 20
10.394
  0
VERTEX
  8
CAPA_1
  6
NEW_LINE1
 62
   251
 10
-30.2296
 20
10.4247
  0
VERTEX
  8
CAPA_1
  6
NEW_LINE1
 62
   251
 10
-30.1804
 20
10.4654
  0
VERTEX
  8
CAPA_1
  6
NEW_LINE1
 62
   251
 10
-30.1397
 20
10.5146
  0
VERTEX
  8
CAPA_1
  6
NEW_LINE1
 62
   251
 10
-30.109
 20
10.5711
  0
VERTEX
  8
CAPA_1
  6
NEW_LINE1
 62
   251
 10
-30.0896
 20
10.6333
  0
VERTEX
  8
CAPA_1
  6
NEW_LINE1
 62
   251
 10
-30.0828
 20
10.7001
  0
VERTEX
  8
CAPA_1
  6
NEW_LINE1
 62
   251
 10
-30.0828
 20
11.1787
  0
VERTEX
  8
CAPA_1
  6
NEW_LINE1
 62
   251
 10
-30.0896
 20
11.2455
  0
VERTEX
  8
CAPA_1
  6
NEW_LINE1
 62
   251
 10
-30.109
 20
11.3077
  0
VERTEX
  8
CAPA_1
  6
NEW_LINE1
 62
   251
 10
-30.1397
 20
11.3642
  0
VERTEX
  8
CAPA_1
  6
NEW_LINE1
 62
   251
 10
-30.1804
 20
11.4134
  0
VERTEX
  8
CAPA_1
  6
NEW_LINE1
 62
   251
 10
-30.2296
 20
11.4541
  0
VERTEX
  8
CAPA_1
  6
NEW_LINE1
 62
   251
 10
-30.286
 20
11.4848
  0
VERTEX
  8
CAPA_1
  6
NEW_LINE1
 62
   251
 10
-30.3483
 20
11.5042
  0
VERTEX
  8
CAPA_1
  6
NEW_LINE1
 62
   251
 10
-30.415
 20
11.511
  0
SEQEND
  8
CAPA_1
  6
NEW_LINE1
 62
   251
  0
POLYLINE
  8
CAPA_1
  6
NEW_LINE2
 62
   251
 66
     1
 70
     1
  0
VERTEX
  8
CAPA_1
  6
NEW_LINE2
 62
   251
 10
-35.8183
 20
6.5721
  0
VERTEX
  8
CAPA_1
  6
NEW_LINE2
 62
   251
 10
-35.8183
 20
7.8616
  0
VERTEX
  8
CAPA_1
  6
NEW_LINE2
 62
   251
 10
-35.8251
 20
7.9284
  0
VERTEX
  8
CAPA_1
  6
NEW_LINE2
 62
   251
 10
-35.8445
 20
7.9906
  0
VERTEX
  8
CAPA_1
  6
NEW_LINE2
 62
   251
 10
-35.8752
 20
8.0471
  0
VERTEX
  8
CAPA_1
  6
NEW_LINE2
 62
   251
 10
-35.9159
 20
8.0963
  0
VERTEX
  8
CAPA_1
  6
NEW_LINE2
 62
   251
 10
-35.9651
 20
8.137
  0
VERTEX
  8
CAPA_1
  6
NEW_LINE2
 62
   251
 10
-36.0216
 20
8.1677
  0
VERTEX
  8
CAPA_1
  6
NEW_LINE2
 62
   251
 10
-36.0838
 20
8.1871
  0
VERTEX
  8
CAPA_1
  6
NEW_LINE2
 62
   251
 10
-36.1506
 20
8.1939
  0
VERTEX
  8
CAPA_1
  6
NEW_LINE2
 62
   251
 10
-36.6291
 20
8.1939
  0
VERTEX
  8
CAPA_1
  6
NEW_LINE2
 62
   251
 10
-36.6959
 20
8.1871
  0
VERTEX
  8
CAPA_1
  6
NEW_LINE2
 62
   251
 10
-36.7582
 20
8.1677
  0
VERTEX
  8
CAPA_1
  6
NEW_LINE2
 62
   251
 10
-36.8146
 20
8.137
  0
VERTEX
  8
CAPA_1
  6
NEW_LINE2
 62
   251
 10
-36.8639
 20
8.0963
  0
VERTEX
  8
CAPA_1
  6
NEW_LINE2
 62
   251
 10
-36.9046
 20
8.0471
  0
VERTEX
  8
CAPA_1
  6
NEW_LINE2
 62
   251
 10
-36.9353
 20
7.9906
  0
VERTEX
  8
CAPA_1
  6
NEW_LINE2
 62
   251
 10
-36.9547
 20
7.9284
  0
VERTEX
  8
CAPA_1
  6
NEW_LINE2
 62
   251
 10
-36.9615
 20
7.8616
  0
VERTEX
  8
CAPA_1
  6
NEW_LINE2
 62
   251
 10
-36.9615
 20
6.5721
  0
VERTEX
  8
CAPA_1
  6
NEW_LINE2
 62
   251
 10
-36.9547
 20
6.5054
  0
VERTEX
  8
CAPA_1
  6
NEW_LINE2
 62
   251
 10
-36.9353
 20
6.4431
  0
VERTEX
  8
CAPA_1
  6
NEW_LINE2
 62
   251
 10
-36.9046
 20
6.3867
  0
VERTEX
  8
CAPA_1
  6
NEW_LINE2
 62
   251
 10
-36.8639
 20
6.3375
  0
VERTEX
  8
CAPA_1
  6
NEW_LINE2
 62
   251
 10
-36.8146
 20
6.2968
  0
VERTEX
  8
CAPA_1
  6
NEW_LINE2
 62
   251
 10
-36.7582
 20
6.2661
  0
VERTEX
  8
CAPA_1
  6
NEW_LINE2
 62
   251
 10
-36.6959
 20
6.2467
  0
VERTEX
  8
CAPA_1
  6
NEW_LINE2
 62
   251
 10
-36.6291
 20
6.2399
  0
VERTEX
  8
CAPA_1
  6
NEW_LINE2
 62
   251
 10
-36.1506
 20
6.2399
  0
VERTEX
  8
CAPA_1
  6
NEW_LINE2
 62
   251
 10
-36.0838
 20
6.2467
  0
VERTEX
  8
CAPA_1
  6
NEW_LINE2
 62
   251
 10
-36.0216
 20
6.2661
  0
VERTEX
  8
CAPA_1
  6
NEW_LINE2
 62
   251
 10
-35.9651
 20
6.2968
  0
VERTEX
  8
CAPA_1
  6
NEW_LINE2
 62
   251
 10
-35.9159
 20
6.3375
  0
VERTEX
  8
CAPA_1
  6
NEW_LINE2
 62
   251
 10
-35.8752
 20
6.3867
  0
VERTEX
  8
CAPA_1
  6
NEW_LINE2
 62
   251
 10
-35.8445
 20
6.4431
  0
VERTEX
  8
CAPA_1
  6
NEW_LINE2
 62
   251
 10
-35.8251
 20
6.5054
  0
VERTEX
  8
CAPA_1
  6
NEW_LINE2
 62
   251
 10
-35.8183
 20
6.5721
  0
SEQEND
  8
CAPA_1
  6
NEW_LINE2
 62
   251
  0
POLYLINE
  8
CAPA_1
  6
NEW_LINE3
 62
   251
 66
     1
 70
     1
  0
VERTEX
  8
CAPA_1
  6
NEW_LINE3
 62
   251
 10
-36.3856
 20
11.4465
  0
VERTEX
  8
CAPA_1
  6
NEW_LINE3
 62
   251
 10
-36.474
 20
11.4376
  0
VERTEX
  8
CAPA_1
  6
NEW_LINE3
 62
   251
 10
-36.5563
 20
11.412
  0
VERTEX
  8
CAPA_1
  6
NEW_LINE3
 62
   251
 10
-36.6308
 20
11.3716
  0
VERTEX
  8
CAPA_1
  6
NEW_LINE3
 62
   251
 10
-36.6958
 20
11.318
  0
VERTEX
  8
CAPA_1
  6
NEW_LINE3
 62
   251
 10
-36.7494
 20
11.2531
  0
VERTEX
  8
CAPA_1
  6
NEW_LINE3
 62
   251
 10
-36.7898
 20
11.1786
  0
VERTEX
  8
CAPA_1
  6
NEW_LINE3
 62
   251
 10
-36.8154
 20
11.0962
  0
VERTEX
  8
CAPA_1
  6
NEW_LINE3
 62
   251
 10
-36.8243
 20
11.0078
  0
VERTEX
  8
CAPA_1
  6
NEW_LINE3
 62
   251
 10
-36.8154
 20
10.9194
  0
VERTEX
  8
CAPA_1
  6
NEW_LINE3
 62
   251
 10
-36.7898
 20
10.8371
  0
VERTEX
  8
CAPA_1
  6
NEW_LINE3
 62
   251
 10
-36.7494
 20
10.7626
  0
VERTEX
  8
CAPA_1
  6
NEW_LINE3
 62
   251
 10
-36.6958
 20
10.6977
  0
VERTEX
  8
CAPA_1
  6
NEW_LINE3
 62
   251
 10
-36.6308
 20
10.6441
  0
VERTEX
  8
CAPA_1
  6
NEW_LINE3
 62
   251
 10
-36.5563
 20
10.6037
  0
VERTEX
  8
CAPA_1
  6
NEW_LINE3
 62
   251
 10
-36.474
 20
10.5781
  0
VERTEX
  8
CAPA_1
  6
NEW_LINE3
 62
   251
 10
-36.3856
 20
10.5692
  0
VERTEX
  8
CAPA_1
  6
NEW_LINE3
 62
   251
 10
-36.2972
 20
10.5781
  0
VERTEX
  8
CAPA_1
  6
NEW_LINE3
 62
   251
 10
-36.2149
 20
10.6037
  0
VERTEX
  8
CAPA_1
  6
NEW_LINE3
 62
   251
 10
-36.1404
 20
10.6441
  0
VERTEX
  8
CAPA_1
  6
NEW_LINE3
 62
   251
 10
-36.0754
 20
10.6977
  0
VERTEX
  8
CAPA_1
  6
NEW_LINE3
 62
   251
 10
-36.0218
 20
10.7626
  0
VERTEX
  8
CAPA_1
  6
NEW_LINE3
 62
   251
 10
-35.9814
 20
10.8371
  0
VERTEX
  8
CAPA_1
  6
NEW_LINE3
 62
   251
 10
-35.9558
 20
10.9194
  0
VERTEX
  8
CAPA_1
  6
NEW_LINE3
 62
   251
 10
-35.9469
 20
11.0078
  0
VERTEX
  8
CAPA_1
  6
NEW_LINE3
 62
   251
 10
-35.9558
 20
11.0962
  0
VERTEX
  8
CAPA_1
  6
NEW_LINE3
 62
   251
 10
-35.9814
 20
11.1786
  0
VERTEX
  8
CAPA_1
  6
NEW_LINE3
 62
   251
 10
-36.0218
 20
11.2531
  0
VERTEX
  8
CAPA_1
  6
NEW_LINE3
 62
   251
 10
-36.0754
 20
11.318
  0
VERTEX
  8
CAPA_1
  6
NEW_LINE3
 62
   251
 10
-36.1404
 20
11.3716
  0
VERTEX
  8
CAPA_1
  6
NEW_LINE3
 62
   251
 10
-36.2149
 20
11.412
  0
VERTEX
  8
CAPA_1
  6
NEW_LINE3
 62
   251
 10
-36.2972
 20
11.4376
  0
VERTEX
  8
CAPA_1
  6
NEW_LINE3
 62
   251
 10
-36.3856
 20
11.4465
  0
SEQEND
  8
CAPA_1
  6
NEW_LINE3
 62
   251
  0
POLYLINE
  8
CAPA_1
  6
NEW_LINE4
 62
   251
 66
     1
 70
     1
  0
VERTEX
  8
CAPA_1
  6
NEW_LINE4
 62
   251
 10
-39.3965
 20
11.3535
  0
VERTEX
  8
CAPA_1
  6
NEW_LINE4
 62
   251
 10
-39.4849
 20
11.3446
  0
VERTEX
  8
CAPA_1
  6
NEW_LINE4
 62
   251
 10
-39.5672
 20
11.319
  0
VERTEX
  8
CAPA_1
  6
NEW_LINE4
 62
   251
 10
-39.6417
 20
11.2786
  0
VERTEX
  8
CAPA_1
  6
NEW_LINE4
 62
   251
 10
-39.7067
 20
11.225
  0
VERTEX
  8
CAPA_1
  6
NEW_LINE4
 62
   251
 10
-39.7603
 20
11.16
  0
VERTEX
  8
CAPA_1
  6
NEW_LINE4
 62
   251
 10
-39.8007
 20
11.0855
  0
VERTEX
  8
CAPA_1
  6
NEW_LINE4
 62
   251
 10
-39.8263
 20
11.0032
  0
VERTEX
  8
CAPA_1
  6
NEW_LINE4
 62
   251
 10
-39.8352
 20
10.9148
  0
VERTEX
  8
CAPA_1
  6
NEW_LINE4
 62
   251
 10
-39.8263
 20
10.8264
  0
VERTEX
  8
CAPA_1
  6
NEW_LINE4
 62
   251
 10
-39.8007
 20
10.7441
  0
VERTEX
  8
CAPA_1
  6
NEW_LINE4
 62
   251
 10
-39.7603
 20
10.6696
  0
VERTEX
  8
CAPA_1
  6
NEW_LINE4
 62
   251
 10
-39.7067
 20
10.6046
  0
VERTEX
  8
CAPA_1
  6
NEW_LINE4
 62
   251
 10
-39.6417
 20
10.551
  0
VERTEX
  8
CAPA_1
  6
NEW_LINE4
 62
   251
 10
-39.5672
 20
10.5106
  0
VERTEX
  8
CAPA_1
  6
NEW_LINE4
 62
   251
 10
-39.4849
 20
10.485
  0
VERTEX
  8
CAPA_1
  6
NEW_LINE4
 62
   251
 10
-39.3965
 20
10.4761
  0
VERTEX
  8
CAPA_1
  6
NEW_LINE4
 62
   251
 10
-39.3081
 20
10.485
  0
VERTEX
  8
CAPA_1
  6
NEW_LINE4
 62
   251
 10
-39.2257
 20
10.5106
  0
VERTEX
  8
CAPA_1
  6
NEW_LINE4
 62
   251
 10
-39.1512
 20
10.551
  0
VERTEX
  8
CAPA_1
  6
NEW_LINE4
 62
   251
 10
-39.0863
 20
10.6046
  0
VERTEX
  8
CAPA_1
  6
NEW_LINE4
 62
   251
 10
-39.0327
 20
10.6696
  0
VERTEX
  8
CAPA_1
  6
NEW_LINE4
 62
   251
 10
-38.9923
 20
10.7441
  0
VERTEX
  8
CAPA_1
  6
NEW_LINE4
 62
   251
 10
-38.9667
 20
10.8264
  0
VERTEX
  8
CAPA_1
  6
NEW_LINE4
 62
   251
 10
-38.9578
 20
10.9148
  0
VERTEX
  8
CAPA_1
  6
NEW_LINE4
 62
   251
 10
-38.9667
 20
11.0032
  0
VERTEX
  8
CAPA_1
  6
NEW_LINE4
 62
   251
 10
-38.9923
 20
11.0855
  0
VERTEX
  8
CAPA_1
  6
NEW_LINE4
 62
   251
 10
-39.0327
 20
11.16
  0
VERTEX
  8
CAPA_1
  6
NEW_LINE4
 62
   251
 10
-39.0863
 20
11.225
  0
VERTEX
  8
CAPA_1
  6
NEW_LINE4
 62
   251
 10
-39.1512
 20
11.2786
  0
VERTEX
  8
CAPA_1
  6
NEW_LINE4
 62
   251
 10
-39.2257
 20
11.319
  0
VERTEX
  8
CAPA_1
  6
NEW_LINE4
 62
   251
 10
-39.3081
 20
11.3446
  0
VERTEX
  8
CAPA_1
  6
NEW_LINE4
 62
   251
 10
-39.3965
 20
11.3535
  0
SEQEND
  8
CAPA_1
  6
NEW_LINE4
 62
   251
  0
POLYLINE
  8
CAPA_1
 62
   251
 66
     1
 70
     1
  0
VERTEX
  8
CAPA_1
 62
   251
 10
32.2253
 20
11.1365
  0
VERTEX
  8
CAPA_1
 62
   251
 10
30.2426
 20
11.1365
  0
VERTEX
  8
CAPA_1
 62
   251
 10
30.2426
 20
9.1869
  0
VERTEX
  8
CAPA_1
 62
   251
 10
32.2253
 20
9.1869
  0
VERTEX
  8
CAPA_1
 62
   251
 10
32.2253
 20
11.1365
  0
SEQEND
  8
CAPA_1
 62
   251
  0
POLYLINE
  8
CAPA_1
 62
   251
 66
     1
 70
     1
  0
VERTEX
  8
CAPA_1
 62
   251
 10
27.728
 20
11.1365
  0
VERTEX
  8
CAPA_1
 62
   251
 10
26.6758
 20
11.1365
  0
VERTEX
  8
CAPA_1
 62
   251
 10
26.6758
 20
9.1869
  0
VERTEX
  8
CAPA_1
 62
   251
 10
27.728
 20
9.1869
  0
VERTEX
  8
CAPA_1
 62
   251
 10
27.728
 20
11.1365
  0
SEQEND
  8
CAPA_1
 62
   251
  0
POLYLINE
  8
CAPA_1
 62
   251
 66
     1
 70
     1
  0
VERTEX
  8
CAPA_1
 62
   251
 10
26.0597
 20
11.1365
  0
VERTEX
  8
CAPA_1
 62
   251
 10
24.0726
 20
11.1365
  0
VERTEX
  8
CAPA_1
 62
   251
 10
24.0726
 20
9.1869
  0
VERTEX
  8
CAPA_1
 62
   251
 10
26.0597
 20
9.1869
  0
VERTEX
  8
CAPA_1
 62
   251
 10
26.0597
 20
11.1365
  0
SEQEND
  8
CAPA_1
 62
   251
  0
POLYLINE
  8
CAPA_1
 62
   251
 66
     1
 70
     1
  0
VERTEX
  8
CAPA_1
 62
   251
 10
29.3619
 20
11.1365
  0
VERTEX
  8
CAPA_1
 62
   251
 10
28.3097
 20
11.1365
  0
VERTEX
  8
CAPA_1
 62
   251
 10
28.3097
 20
9.1869
  0
VERTEX
  8
CAPA_1
 62
   251
 10
29.3619
 20
9.1869
  0
VERTEX
  8
CAPA_1
 62
   251
 10
29.3619
 20
11.1365
  0
SEQEND
  8
CAPA_1
 62
   251
  0
POLYLINE
  8
CAPA_1
  6
NEW_LINE5
 62
   251
 66
     1
 70
     1
  0
VERTEX
  8
CAPA_1
  6
NEW_LINE5
 62
   251
 10
-17.01
 20
11.6419
  0
VERTEX
  8
CAPA_1
  6
NEW_LINE5
 62
   251
 10
-18.2994
 20
11.6419
  0
VERTEX
  8
CAPA_1
  6
NEW_LINE5
 62
   251
 10
-18.3662
 20
11.6351
  0
VERTEX
  8
CAPA_1
  6
NEW_LINE5
 62
   251
 10
-18.4284
 20
11.6157
  0
VERTEX
  8
CAPA_1
  6
NEW_LINE5
 62
   251
 10
-18.4849
 20
11.585
  0
VERTEX
  8
CAPA_1
  6
NEW_LINE5
 62
   251
 10
-18.5341
 20
11.5443
  0
VERTEX
  8
CAPA_1
  6
NEW_LINE5
 62
   251
 10
-18.5748
 20
11.4951
  0
VERTEX
  8
CAPA_1
  6
NEW_LINE5
 62
   251
 10
-18.6055
 20
11.4386
  0
VERTEX
  8
CAPA_1
  6
NEW_LINE5
 62
   251
 10
-18.6249
 20
11.3764
  0
VERTEX
  8
CAPA_1
  6
NEW_LINE5
 62
   251
 10
-18.6317
 20
11.3096
  0
VERTEX
  8
CAPA_1
  6
NEW_LINE5
 62
   251
 10
-18.6317
 20
10.831
  0
VERTEX
  8
CAPA_1
  6
NEW_LINE5
 62
   251
 10
-18.6249
 20
10.7642
  0
VERTEX
  8
CAPA_1
  6
NEW_LINE5
 62
   251
 10
-18.6055
 20
10.7019
  0
VERTEX
  8
CAPA_1
  6
NEW_LINE5
 62
   251
 10
-18.5748
 20
10.6455
  0
VERTEX
  8
CAPA_1
  6
NEW_LINE5
 62
   251
 10
-18.5341
 20
10.5962
  0
VERTEX
  8
CAPA_1
  6
NEW_LINE5
 62
   251
 10
-18.4849
 20
10.5555
  0
VERTEX
  8
CAPA_1
  6
NEW_LINE5
 62
   251
 10
-18.4284
 20
10.5248
  0
VERTEX
  8
CAPA_1
  6
NEW_LINE5
 62
   251
 10
-18.3662
 20
10.5054
  0
VERTEX
  8
CAPA_1
  6
NEW_LINE5
 62
   251
 10
-18.2994
 20
10.4986
  0
VERTEX
  8
CAPA_1
  6
NEW_LINE5
 62
   251
 10
-17.01
 20
10.4986
  0
VERTEX
  8
CAPA_1
  6
NEW_LINE5
 62
   251
 10
-16.9432
 20
10.5054
  0
VERTEX
  8
CAPA_1
  6
NEW_LINE5
 62
   251
 10
-16.881
 20
10.5248
  0
VERTEX
  8
CAPA_1
  6
NEW_LINE5
 62
   251
 10
-16.8245
 20
10.5555
  0
VERTEX
  8
CAPA_1
  6
NEW_LINE5
 62
   251
 10
-16.7753
 20
10.5962
  0
VERTEX
  8
CAPA_1
  6
NEW_LINE5
 62
   251
 10
-16.7346
 20
10.6455
  0
VERTEX
  8
CAPA_1
  6
NEW_LINE5
 62
   251
 10
-16.7039
 20
10.7019
  0
VERTEX
  8
CAPA_1
  6
NEW_LINE5
 62
   251
 10
-16.6845
 20
10.7642
  0
VERTEX
  8
CAPA_1
  6
NEW_LINE5
 62
   251
 10
-16.6777
 20
10.831
  0
VERTEX
  8
CAPA_1
  6
NEW_LINE5
 62
   251
 10
-16.6777
 20
11.3096
  0
VERTEX
  8
CAPA_1
  6
NEW_LINE5
 62
   251
 10
-16.6845
 20
11.3764
  0
VERTEX
  8
CAPA_1
  6
NEW_LINE5
 62
   251
 10
-16.7039
 20
11.4386
  0
VERTEX
  8
CAPA_1
  6
NEW_LINE5
 62
   251
 10
-16.7346
 20
11.4951
  0
VERTEX
  8
CAPA_1
  6
NEW_LINE5
 62
   251
 10
-16.7753
 20
11.5443
  0
VERTEX
  8
CAPA_1
  6
NEW_LINE5
 62
   251
 10
-16.8245
 20
11.585
  0
VERTEX
  8
CAPA_1
  6
NEW_LINE5
 62
   251
 10
-16.881
 20
11.6157
  0
VERTEX
  8
CAPA_1
  6
NEW_LINE5
 62
   251
 10
-16.9432
 20
11.6351
  0
VERTEX
  8
CAPA_1
  6
NEW_LINE5
 62
   251
 10
-17.01
 20
11.6419
  0
SEQEND
  8
CAPA_1
  6
NEW_LINE5
 62
   251
  0
POLYLINE
  8
CAPA_1
  6
NEW_LINE6
 62
   251
 66
     1
 70
     1
  0
VERTEX
  8
CAPA_1
  6
NEW_LINE6
 62
   251
 10
-20.9286
 20
11.6419
  0
VERTEX
  8
CAPA_1
  6
NEW_LINE6
 62
   251
 10
-22.2181
 20
11.6419
  0
VERTEX
  8
CAPA_1
  6
NEW_LINE6
 62
   251
 10
-22.2849
 20
11.6351
  0
VERTEX
  8
CAPA_1
  6
NEW_LINE6
 62
   251
 10
-22.3471
 20
11.6157
  0
VERTEX
  8
CAPA_1
  6
NEW_LINE6
 62
   251
 10
-22.4036
 20
11.585
  0
VERTEX
  8
CAPA_1
  6
NEW_LINE6
 62
   251
 10
-22.4528
 20
11.5443
  0
VERTEX
  8
CAPA_1
  6
NEW_LINE6
 62
   251
 10
-22.4935
 20
11.4951
  0
VERTEX
  8
CAPA_1
  6
NEW_LINE6
 62
   251
 10
-22.5242
 20
11.4386
  0
VERTEX
  8
CAPA_1
  6
NEW_LINE6
 62
   251
 10
-22.5436
 20
11.3764
  0
VERTEX
  8
CAPA_1
  6
NEW_LINE6
 62
   251
 10
-22.5504
 20
11.3096
  0
VERTEX
  8
CAPA_1
  6
NEW_LINE6
 62
   251
 10
-22.5504
 20
10.831
  0
VERTEX
  8
CAPA_1
  6
NEW_LINE6
 62
   251
 10
-22.5436
 20
10.7642
  0
VERTEX
  8
CAPA_1
  6
NEW_LINE6
 62
   251
 10
-22.5242
 20
10.7019
  0
VERTEX
  8
CAPA_1
  6
NEW_LINE6
 62
   251
 10
-22.4935
 20
10.6455
  0
VERTEX
  8
CAPA_1
  6
NEW_LINE6
 62
   251
 10
-22.4528
 20
10.5962
  0
VERTEX
  8
CAPA_1
  6
NEW_LINE6
 62
   251
 10
-22.4036
 20
10.5555
  0
VERTEX
  8
CAPA_1
  6
NEW_LINE6
 62
   251
 10
-22.3471
 20
10.5248
  0
VERTEX
  8
CAPA_1
  6
NEW_LINE6
 62
   251
 10
-22.2849
 20
10.5054
  0
VERTEX
  8
CAPA_1
  6
NEW_LINE6
 62
   251
 10
-22.2181
 20
10.4986
  0
VERTEX
  8
CAPA_1
  6
NEW_LINE6
 62
   251
 10
-20.9286
 20
10.4986
  0
VERTEX
  8
CAPA_1
  6
NEW_LINE6
 62
   251
 10
-20.8619
 20
10.5054
  0
VERTEX
  8
CAPA_1
  6
NEW_LINE6
 62
   251
 10
-20.7996
 20
10.5248
  0
VERTEX
  8
CAPA_1
  6
NEW_LINE6
 62
   251
 10
-20.7432
 20
10.5555
  0
VERTEX
  8
CAPA_1
  6
NEW_LINE6
 62
   251
 10
-20.694
 20
10.5962
  0
VERTEX
  8
CAPA_1
  6
NEW_LINE6
 62
   251
 10
-20.6533
 20
10.6455
  0
VERTEX
  8
CAPA_1
  6
NEW_LINE6
 62
   251
 10
-20.6226
 20
10.7019
  0
VERTEX
  8
CAPA_1
  6
NEW_LINE6
 62
   251
 10
-20.6032
 20
10.7642
  0
VERTEX
  8
CAPA_1
  6
NEW_LINE6
 62
   251
 10
-20.5964
 20
10.831
  0
VERTEX
  8
CAPA_1
  6
NEW_LINE6
 62
   251
 10
-20.5964
 20
11.3096
  0
VERTEX
  8
CAPA_1
  6
NEW_LINE6
 62
   251
 10
-20.6032
 20
11.3764
  0
VERTEX
  8
CAPA_1
  6
NEW_LINE6
 62
   251
 10
-20.6226
 20
11.4386
  0
VERTEX
  8
CAPA_1
  6
NEW_LINE6
 62
   251
 10
-20.6533
 20
11.4951
  0
VERTEX
  8
CAPA_1
  6
NEW_LINE6
 62
   251
 10
-20.694
 20
11.5443
  0
VERTEX
  8
CAPA_1
  6
NEW_LINE6
 62
   251
 10
-20.7432
 20
11.585
  0
VERTEX
  8
CAPA_1
  6
NEW_LINE6
 62
   251
 10
-20.7996
 20
11.6157
  0
VERTEX
  8
CAPA_1
  6
NEW_LINE6
 62
   251
 10
-20.8619
 20
11.6351
  0
VERTEX
  8
CAPA_1
  6
NEW_LINE6
 62
   251
 10
-20.9286
 20
11.6419
  0
SEQEND
  8
CAPA_1
  6
NEW_LINE6
 62
   251
  0
POLYLINE
  8
CAPA_1
 62
   254
 66
     1
 70
     1
  0
VERTEX
  8
CAPA_1
 62
   254
 10
-34.9525
 20
11.8442
  0
VERTEX
  8
CAPA_1
 62
   254
 10
-34.8159
 20
11.8565
  0
VERTEX
  8
CAPA_1
 62
   254
 10
-34.7706
 20
11.7204
  0
VERTEX
  8
CAPA_1
 62
   254
 10
-34.6601
 20
11.6345
  0
VERTEX
  8
CAPA_1
 62
   254
 10
-34.4915
 20
11.6017
  0
VERTEX
  8
CAPA_1
 62
   254
 10
-34.3447
 20
11.6265
  0
VERTEX
  8
CAPA_1
 62
   254
 10
-34.25
 20
11.6948
  0
VERTEX
  8
CAPA_1
 62
   254
 10
-34.2188
 20
11.789
  0
VERTEX
  8
CAPA_1
 62
   254
 10
-34.2487
 20
11.879
  0
VERTEX
  8
CAPA_1
 62
   254
 10
-34.3477
 20
11.9437
  0
VERTEX
  8
CAPA_1
 62
   254
 10
-34.5434
 20
11.9972
  0
VERTEX
  8
CAPA_1
 62
   254
 10
-34.7555
 20
12.0658
  0
VERTEX
  8
CAPA_1
 62
   254
 10
-34.8724
 20
12.1683
  0
VERTEX
  8
CAPA_1
 62
   254
 10
-34.9111
 20
12.3052
  0
VERTEX
  8
CAPA_1
 62
   254
 10
-34.8637
 20
12.461
  0
VERTEX
  8
CAPA_1
 62
   254
 10
-34.7258
 20
12.571
  0
VERTEX
  8
CAPA_1
 62
   254
 10
-34.5243
 20
12.6086
  0
VERTEX
  8
CAPA_1
 62
   254
 10
-34.3089
 20
12.5692
  0
VERTEX
  8
CAPA_1
 62
   254
 10
-34.1653
 20
12.4533
  0
VERTEX
  8
CAPA_1
 62
   254
 10
-34.1114
 20
12.2801
  0
VERTEX
  8
CAPA_1
 62
   254
 10
-34.251
 20
12.2694
  0
VERTEX
  8
CAPA_1
 62
   254
 10
-34.327
 20
12.4265
  0
VERTEX
  8
CAPA_1
 62
   254
 10
-34.5186
 20
12.4797
  0
VERTEX
  8
CAPA_1
 62
   254
 10
-34.711
 20
12.4313
  0
VERTEX
  8
CAPA_1
 62
   254
 10
-34.7714
 20
12.3147
  0
VERTEX
  8
CAPA_1
 62
   254
 10
-34.7287
 20
12.2172
  0
VERTEX
  8
CAPA_1
 62
   254
 10
-34.5094
 20
12.1389
  0
VERTEX
  8
CAPA_1
 62
   254
 10
-34.2661
 20
12.0688
  0
VERTEX
  8
CAPA_1
 62
   254
 10
-34.1247
 20
11.957
  0
VERTEX
  8
CAPA_1
 62
   254
 10
-34.0791
 20
11.8012
  0
VERTEX
  8
CAPA_1
 62
   254
 10
-34.1293
 20
11.6362
  0
VERTEX
  8
CAPA_1
 62
   254
 10
-34.2733
 20
11.5158
  0
VERTEX
  8
CAPA_1
 62
   254
 10
-34.4849
 20
11.4728
  0
VERTEX
  8
CAPA_1
 62
   254
 10
-34.7343
 20
11.5163
  0
VERTEX
  8
CAPA_1
 62
   254
 10
-34.8921
 20
11.647
  0
VERTEX
  8
CAPA_1
 62
   254
 10
-34.9525
 20
11.8442
  0
SEQEND
  8
CAPA_1
 62
   254
  0
POLYLINE
  8
CAPA_1
 62
   254
 66
     1
 70
     1
  0
VERTEX
  8
CAPA_1
 62
   254
 10
-33.9256
 20
12.0261
  0
VERTEX
  8
CAPA_1
 62
   254
 10
-33.9164
 20
12.1553
  0
VERTEX
  8
CAPA_1
 62
   254
 10
-33.8888
 20
12.2698
  0
VERTEX
  8
CAPA_1
 62
   254
 10
-33.8428
 20
12.3694
  0
VERTEX
  8
CAPA_1
 62
   254
 10
-33.7785
 20
12.4541
  0
VERTEX
  8
CAPA_1
 62
   254
 10
-33.6997
 20
12.5217
  0
VERTEX
  8
CAPA_1
 62
   254
 10
-33.6103
 20
12.57
  0
VERTEX
  8
CAPA_1
 62
   254
 10
-33.5101
 20
12.599
  0
VERTEX
  8
CAPA_1
 62
   254
 10
-33.3992
 20
12.6086
  0
VERTEX
  8
CAPA_1
 62
   254
 10
-33.1247
 20
12.536
  0
VERTEX
  8
CAPA_1
 62
   254
 10
-32.9384
 20
12.3333
  0
VERTEX
  8
CAPA_1
 62
   254
 10
-32.8742
 20
12.0389
  0
VERTEX
  8
CAPA_1
 62
   254
 10
-32.9418
 20
11.7401
  0
VERTEX
  8
CAPA_1
 62
   254
 10
-33.1328
 20
11.5406
  0
VERTEX
  8
CAPA_1
 62
   254
 10
-33.3999
 20
11.4728
  0
VERTEX
  8
CAPA_1
 62
   254
 10
-33.6775
 20
11.5477
  0
VERTEX
  8
CAPA_1
 62
   254
 10
-33.8627
 20
11.7521
  0
VERTEX
  8
CAPA_1
 62
   254
 10
-33.9256
 20
12.0261
  0
SEQEND
  8
CAPA_1
 62
   254
  0
POLYLINE
  8
CAPA_1
 62
   254
 66
     1
 70
     1
  0
VERTEX
  8
CAPA_1
 62
   254
 10
-33.7752
 20
12.0236
  0
VERTEX
  8
CAPA_1
 62
   254
 10
-33.7685
 20
11.9297
  0
VERTEX
  8
CAPA_1
 62
   254
 10
-33.7485
 20
11.8463
  0
VERTEX
  8
CAPA_1
 62
   254
 10
-33.7152
 20
11.7735
  0
VERTEX
  8
CAPA_1
 62
   254
 10
-33.6685
 20
11.7112
  0
VERTEX
  8
CAPA_1
 62
   254
 10
-33.6118
 20
11.6613
  0
VERTEX
  8
CAPA_1
 62
   254
 10
-33.5482
 20
11.6257
  0
VERTEX
  8
CAPA_1
 62
   254
 10
-33.4779
 20
11.6042
  0
VERTEX
  8
CAPA_1
 62
   254
 10
-33.4007
 20
11.5971
  0
VERTEX
  8
CAPA_1
 62
   254
 10
-33.3223
 20
11.6043
  0
VERTEX
  8
CAPA_1
 62
   254
 10
-33.2511
 20
11.6259
  0
VERTEX
  8
CAPA_1
 62
   254
 10
-33.1872
 20
11.6619
  0
VERTEX
  8
CAPA_1
 62
   254
 10
-33.1305
 20
11.7122
  0
VERTEX
  8
CAPA_1
 62
   254
 10
-33.0842
 20
11.7758
  0
VERTEX
  8
CAPA_1
 62
   254
 10
-33.0511
 20
11.8515
  0
VERTEX
  8
CAPA_1
 62
   254
 10
-33.0312
 20
11.9393
  0
VERTEX
  8
CAPA_1
 62
   254
 10
-33.0246
 20
12.0392
  0
VERTEX
  8
CAPA_1
 62
   254
 10
-33.0699
 20
12.273
  0
VERTEX
  8
CAPA_1
 62
   254
 10
-33.2024
 20
12.4277
  0
VERTEX
  8
CAPA_1
 62
   254
 10
-33.3984
 20
12.4827
  0
VERTEX
  8
CAPA_1
 62
   254
 10
-33.6639
 20
12.3768
  0
VERTEX
  8
CAPA_1
 62
   254
 10
-33.7126
 20
12.315
  0
VERTEX
  8
CAPA_1
 62
   254
 10
-33.7474
 20
12.2356
  0
VERTEX
  8
CAPA_1
 62
   254
 10
-33.7682
 20
12.1385
  0
VERTEX
  8
CAPA_1
 62
   254
 10
-33.7752
 20
12.0236
  0
SEQEND
  8
CAPA_1
 62
   254
  0
POLYLINE
  8
CAPA_1
 62
   254
 66
     1
 70
     1
  0
VERTEX
  8
CAPA_1
 62
   254
 10
-32.6934
 20
11.4912
  0
VERTEX
  8
CAPA_1
 62
   254
 10
-32.6934
 20
12.5902
  0
VERTEX
  8
CAPA_1
 62
   254
 10
-32.5475
 20
12.5902
  0
VERTEX
  8
CAPA_1
 62
   254
 10
-32.5475
 20
11.6201
  0
VERTEX
  8
CAPA_1
 62
   254
 10
-32.0073
 20
11.6201
  0
VERTEX
  8
CAPA_1
 62
   254
 10
-32.0073
 20
11.4912
  0
VERTEX
  8
CAPA_1
 62
   254
 10
-32.6934
 20
11.4912
  0
SEQEND
  8
CAPA_1
 62
   254
  0
POLYLINE
  8
CAPA_1
 62
   254
 66
     1
 70
     1
  0
VERTEX
  8
CAPA_1
 62
   254
 10
-31.875
 20
11.4728
  0
VERTEX
  8
CAPA_1
 62
   254
 10
-31.8097
 20
11.792
  0
VERTEX
  8
CAPA_1
 62
   254
 10
-31.9364
 20
11.792
  0
VERTEX
  8
CAPA_1
 62
   254
 10
-31.9364
 20
11.9041
  0
VERTEX
  8
CAPA_1
 62
   254
 10
-31.787
 20
11.9041
  0
VERTEX
  8
CAPA_1
 62
   254
 10
-31.7314
 20
12.1758
  0
VERTEX
  8
CAPA_1
 62
   254
 10
-31.9364
 20
12.1758
  0
VERTEX
  8
CAPA_1
 62
   254
 10
-31.9364
 20
12.2878
  0
VERTEX
  8
CAPA_1
 62
   254
 10
-31.7087
 20
12.2878
  0
VERTEX
  8
CAPA_1
 62
   254
 10
-31.6432
 20
12.6086
  0
VERTEX
  8
CAPA_1
 62
   254
 10
-31.5306
 20
12.6086
  0
VERTEX
  8
CAPA_1
 62
   254
 10
-31.5961
 20
12.2878
  0
VERTEX
  8
CAPA_1
 62
   254
 10
-31.362
 20
12.2878
  0
VERTEX
  8
CAPA_1
 62
   254
 10
-31.2966
 20
12.6086
  0
VERTEX
  8
CAPA_1
 62
   254
 10
-31.1842
 20
12.6086
  0
VERTEX
  8
CAPA_1
 62
   254
 10
-31.2497
 20
12.2878
  0
VERTEX
  8
CAPA_1
 62
   254
 10
-31.1198
 20
12.2878
  0
VERTEX
  8
CAPA_1
 62
   254
 10
-31.1198
 20
12.1758
  0
VERTEX
  8
CAPA_1
 62
   254
 10
-31.2725
 20
12.1758
  0
VERTEX
  8
CAPA_1
 62
   254
 10
-31.328
 20
11.9041
  0
VERTEX
  8
CAPA_1
 62
   254
 10
-31.1198
 20
11.9041
  0
VERTEX
  8
CAPA_1
 62
   254
 10
-31.1198
 20
11.792
  0
VERTEX
  8
CAPA_1
 62
   254
 10
-31.3508
 20
11.792
  0
VERTEX
  8
CAPA_1
 62
   254
 10
-31.416
 20
11.4728
  0
VERTEX
  8
CAPA_1
 62
   254
 10
-31.5286
 20
11.4728
  0
VERTEX
  8
CAPA_1
 62
   254
 10
-31.4633
 20
11.792
  0
VERTEX
  8
CAPA_1
 62
   254
 10
-31.6974
 20
11.792
  0
VERTEX
  8
CAPA_1
 62
   254
 10
-31.7627
 20
11.4728
  0
VERTEX
  8
CAPA_1
 62
   254
 10
-31.875
 20
11.4728
  0
SEQEND
  8
CAPA_1
 62
   254
  0
POLYLINE
  8
CAPA_1
 62
   254
 66
     1
 70
     1
  0
VERTEX
  8
CAPA_1
 62
   254
 10
-31.6747
 20
11.9041
  0
VERTEX
  8
CAPA_1
 62
   254
 10
-31.4406
 20
11.9041
  0
VERTEX
  8
CAPA_1
 62
   254
 10
-31.3851
 20
12.1758
  0
VERTEX
  8
CAPA_1
 62
   254
 10
-31.6191
 20
12.1758
  0
VERTEX
  8
CAPA_1
 62
   254
 10
-31.6747
 20
11.9041
  0
SEQEND
  8
CAPA_1
 62
   254
  0
POLYLINE
  8
CAPA_1
 62
   254
 66
     1
 70
     1
  0
VERTEX
  8
CAPA_1
 62
   254
 10
-30.3259
 20
11.6201
  0
VERTEX
  8
CAPA_1
 62
   254
 10
-30.3259
 20
11.4912
  0
VERTEX
  8
CAPA_1
 62
   254
 10
-31.0535
 20
11.4912
  0
VERTEX
  8
CAPA_1
 62
   254
 10
-31.0376
 20
11.5851
  0
VERTEX
  8
CAPA_1
 62
   254
 10
-30.9478
 20
11.7312
  0
VERTEX
  8
CAPA_1
 62
   254
 10
-30.7713
 20
11.8969
  0
VERTEX
  8
CAPA_1
 62
   254
 10
-30.5293
 20
12.1297
  0
VERTEX
  8
CAPA_1
 62
   254
 10
-30.4656
 20
12.2924
  0
VERTEX
  8
CAPA_1
 62
   254
 10
-30.5232
 20
12.4277
  0
VERTEX
  8
CAPA_1
 62
   254
 10
-30.6733
 20
12.4827
  0
VERTEX
  8
CAPA_1
 62
   254
 10
-30.8299
 20
12.4244
  0
VERTEX
  8
CAPA_1
 62
   254
 10
-30.8893
 20
12.2633
  0
VERTEX
  8
CAPA_1
 62
   254
 10
-31.0274
 20
12.2771
  0
VERTEX
  8
CAPA_1
 62
   254
 10
-30.9202
 20
12.5134
  0
VERTEX
  8
CAPA_1
 62
   254
 10
-30.6703
 20
12.5948
  0
VERTEX
  8
CAPA_1
 62
   254
 10
-30.4198
 20
12.507
  0
VERTEX
  8
CAPA_1
 62
   254
 10
-30.3275
 20
12.2893
  0
VERTEX
  8
CAPA_1
 62
   254
 10
-30.3546
 20
12.1596
  0
VERTEX
  8
CAPA_1
 62
   254
 10
-30.4441
 20
12.0251
  0
VERTEX
  8
CAPA_1
 62
   254
 10
-30.6521
 20
11.8317
  0
VERTEX
  8
CAPA_1
 62
   254
 10
-30.8084
 20
11.6933
  0
VERTEX
  8
CAPA_1
 62
   254
 10
-30.8655
 20
11.6201
  0
VERTEX
  8
CAPA_1
 62
   254
 10
-30.3259
 20
11.6201
  0
SEQEND
  8
CAPA_1
 62
   254
  0
POLYLINE
  8
CAPA_1
 62
   254
 66
     1
 70
     1
  0
VERTEX
  8
CAPA_1
 62
   254
 10
-30.1967
 20
11.8212
  0
VERTEX
  8
CAPA_1
 62
   254
 10
-30.1967
 20
11.9563
  0
VERTEX
  8
CAPA_1
 62
   254
 10
-29.7792
 20
11.9563
  0
VERTEX
  8
CAPA_1
 62
   254
 10
-29.7792
 20
11.8212
  0
VERTEX
  8
CAPA_1
 62
   254
 10
-30.1967
 20
11.8212
  0
SEQEND
  8
CAPA_1
 62
   254
  0
POLYLINE
  8
CAPA_1
 62
   253
 66
     1
 70
     1
  0
VERTEX
  8
CAPA_1
 62
   253
 10
-38.0383
 20
4.5101
  0
VERTEX
  8
CAPA_1
 62
   253
 10
-37.9017
 20
4.5224
  0
VERTEX
  8
CAPA_1
 62
   253
 10
-37.8564
 20
4.3863
  0
VERTEX
  8
CAPA_1
 62
   253
 10
-37.7459
 20
4.3004
  0
VERTEX
  8
CAPA_1
 62
   253
 10
-37.5773
 20
4.2676
  0
VERTEX
  8
CAPA_1
 62
   253
 10
-37.4305
 20
4.2924
  0
VERTEX
  8
CAPA_1
 62
   253
 10
-37.3358
 20
4.3607
  0
VERTEX
  8
CAPA_1
 62
   253
 10
-37.3046
 20
4.4549
  0
VERTEX
  8
CAPA_1
 62
   253
 10
-37.3345
 20
4.5449
  0
VERTEX
  8
CAPA_1
 62
   253
 10
-37.4335
 20
4.6096
  0
VERTEX
  8
CAPA_1
 62
   253
 10
-37.6292
 20
4.6631
  0
VERTEX
  8
CAPA_1
 62
   253
 10
-37.8413
 20
4.7317
  0
VERTEX
  8
CAPA_1
 62
   253
 10
-37.9582
 20
4.8342
  0
VERTEX
  8
CAPA_1
 62
   253
 10
-37.9969
 20
4.9711
  0
VERTEX
  8
CAPA_1
 62
   253
 10
-37.9495
 20
5.1269
  0
VERTEX
  8
CAPA_1
 62
   253
 10
-37.8116
 20
5.2369
  0
VERTEX
  8
CAPA_1
 62
   253
 10
-37.6101
 20
5.2745
  0
VERTEX
  8
CAPA_1
 62
   253
 10
-37.3947
 20
5.2351
  0
VERTEX
  8
CAPA_1
 62
   253
 10
-37.2511
 20
5.1192
  0
VERTEX
  8
CAPA_1
 62
   253
 10
-37.1972
 20
4.946
  0
VERTEX
  8
CAPA_1
 62
   253
 10
-37.3368
 20
4.9353
  0
VERTEX
  8
CAPA_1
 62
   253
 10
-37.4128
 20
5.0924
  0
VERTEX
  8
CAPA_1
 62
   253
 10
-37.6044
 20
5.1456
  0
VERTEX
  8
CAPA_1
 62
   253
 10
-37.7968
 20
5.0972
  0
VERTEX
  8
CAPA_1
 62
   253
 10
-37.8572
 20
4.9806
  0
VERTEX
  8
CAPA_1
 62
   253
 10
-37.8145
 20
4.8831
  0
VERTEX
  8
CAPA_1
 62
   253
 10
-37.5952
 20
4.8048
  0
VERTEX
  8
CAPA_1
 62
   253
 10
-37.3519
 20
4.7347
  0
VERTEX
  8
CAPA_1
 62
   253
 10
-37.2105
 20
4.6229
  0
VERTEX
  8
CAPA_1
 62
   253
 10
-37.1649
 20
4.4671
  0
VERTEX
  8
CAPA_1
 62
   253
 10
-37.2151
 20
4.3021
  0
VERTEX
  8
CAPA_1
 62
   253
 10
-37.3591
 20
4.1817
  0
VERTEX
  8
CAPA_1
 62
   253
 10
-37.5707
 20
4.1387
  0
VERTEX
  8
CAPA_1
 62
   253
 10
-37.8201
 20
4.1822
  0
VERTEX
  8
CAPA_1
 62
   253
 10
-37.9779
 20
4.3129
  0
VERTEX
  8
CAPA_1
 62
   253
 10
-38.0383
 20
4.5101
  0
SEQEND
  8
CAPA_1
 62
   253
  0
POLYLINE
  8
CAPA_1
 62
   253
 66
     1
 70
     1
  0
VERTEX
  8
CAPA_1
 62
   253
 10
-37.0114
 20
4.692
  0
VERTEX
  8
CAPA_1
 62
   253
 10
-37.0022
 20
4.8212
  0
VERTEX
  8
CAPA_1
 62
   253
 10
-36.9746
 20
4.9357
  0
VERTEX
  8
CAPA_1
 62
   253
 10
-36.9286
 20
5.0353
  0
VERTEX
  8
CAPA_1
 62
   253
 10
-36.8643
 20
5.12
  0
VERTEX
  8
CAPA_1
 62
   253
 10
-36.7855
 20
5.1876
  0
VERTEX
  8
CAPA_1
 62
   253
 10
-36.6961
 20
5.2359
  0
VERTEX
  8
CAPA_1
 62
   253
 10
-36.5959
 20
5.2649
  0
VERTEX
  8
CAPA_1
 62
   253
 10
-36.485
 20
5.2745
  0
VERTEX
  8
CAPA_1
 62
   253
 10
-36.2105
 20
5.2019
  0
VERTEX
  8
CAPA_1
 62
   253
 10
-36.0242
 20
4.9992
  0
VERTEX
  8
CAPA_1
 62
   253
 10
-35.96
 20
4.7048
  0
VERTEX
  8
CAPA_1
 62
   253
 10
-36.0276
 20
4.406
  0
VERTEX
  8
CAPA_1
 62
   253
 10
-36.2186
 20
4.2065
  0
VERTEX
  8
CAPA_1
 62
   253
 10
-36.4857
 20
4.1387
  0
VERTEX
  8
CAPA_1
 62
   253
 10
-36.7633
 20
4.2136
  0
VERTEX
  8
CAPA_1
 62
   253
 10
-36.9485
 20
4.418
  0
VERTEX
  8
CAPA_1
 62
   253
 10
-37.0114
 20
4.692
  0
SEQEND
  8
CAPA_1
 62
   253
  0
POLYLINE
  8
CAPA_1
 62
   253
 66
     1
 70
     1
  0
VERTEX
  8
CAPA_1
 62
   253
 10
-36.861
 20
4.6895
  0
VERTEX
  8
CAPA_1
 62
   253
 10
-36.8543
 20
4.5956
  0
VERTEX
  8
CAPA_1
 62
   253
 10
-36.8343
 20
4.5122
  0
VERTEX
  8
CAPA_1
 62
   253
 10
-36.801
 20
4.4394
  0
VERTEX
  8
CAPA_1
 62
   253
 10
-36.7543
 20
4.3771
  0
VERTEX
  8
CAPA_1
 62
   253
 10
-36.6976
 20
4.3272
  0
VERTEX
  8
CAPA_1
 62
   253
 10
-36.634
 20
4.2916
  0
VERTEX
  8
CAPA_1
 62
   253
 10
-36.5637
 20
4.2701
  0
VERTEX
  8
CAPA_1
 62
   253
 10
-36.4865
 20
4.263
  0
VERTEX
  8
CAPA_1
 62
   253
 10
-36.4081
 20
4.2702
  0
VERTEX
  8
CAPA_1
 62
   253
 10
-36.3369
 20
4.2918
  0
VERTEX
  8
CAPA_1
 62
   253
 10
-36.273
 20
4.3278
  0
VERTEX
  8
CAPA_1
 62
   253
 10
-36.2163
 20
4.3781
  0
VERTEX
  8
CAPA_1
 62
   253
 10
-36.17
 20
4.4417
  0
VERTEX
  8
CAPA_1
 62
   253
 10
-36.1369
 20
4.5174
  0
VERTEX
  8
CAPA_1
 62
   253
 10
-36.117
 20
4.6052
  0
VERTEX
  8
CAPA_1
 62
   253
 10
-36.1104
 20
4.7051
  0
VERTEX
  8
CAPA_1
 62
   253
 10
-36.1557
 20
4.9389
  0
VERTEX
  8
CAPA_1
 62
   253
 10
-36.2882
 20
5.0936
  0
VERTEX
  8
CAPA_1
 62
   253
 10
-36.4842
 20
5.1486
  0
VERTEX
  8
CAPA_1
 62
   253
 10
-36.7497
 20
5.0427
  0
VERTEX
  8
CAPA_1
 62
   253
 10
-36.7984
 20
4.9809
  0
VERTEX
  8
CAPA_1
 62
   253
 10
-36.8332
 20
4.9015
  0
VERTEX
  8
CAPA_1
 62
   253
 10
-36.854
 20
4.8044
  0
VERTEX
  8
CAPA_1
 62
   253
 10
-36.861
 20
4.6895
  0
SEQEND
  8
CAPA_1
 62
   253
  0
POLYLINE
  8
CAPA_1
 62
   253
 66
     1
 70
     1
  0
VERTEX
  8
CAPA_1
 62
   253
 10
-35.7792
 20
4.1571
  0
VERTEX
  8
CAPA_1
 62
   253
 10
-35.7792
 20
5.2561
  0
VERTEX
  8
CAPA_1
 62
   253
 10
-35.6333
 20
5.2561
  0
VERTEX
  8
CAPA_1
 62
   253
 10
-35.6333
 20
4.286
  0
VERTEX
  8
CAPA_1
 62
   253
 10
-35.0931
 20
4.286
  0
VERTEX
  8
CAPA_1
 62
   253
 10
-35.0931
 20
4.1571
  0
VERTEX
  8
CAPA_1
 62
   253
 10
-35.7792
 20
4.1571
  0
SEQEND
  8
CAPA_1
 62
   253
  0
POLYLINE
  8
CAPA_1
 62
   253
 66
     1
 70
     1
  0
VERTEX
  8
CAPA_1
 62
   253
 10
-34.9608
 20
4.1387
  0
VERTEX
  8
CAPA_1
 62
   253
 10
-34.8955
 20
4.4579
  0
VERTEX
  8
CAPA_1
 62
   253
 10
-35.0222
 20
4.4579
  0
VERTEX
  8
CAPA_1
 62
   253
 10
-35.0222
 20
4.57
  0
VERTEX
  8
CAPA_1
 62
   253
 10
-34.8728
 20
4.57
  0
VERTEX
  8
CAPA_1
 62
   253
 10
-34.8172
 20
4.8417
  0
VERTEX
  8
CAPA_1
 62
   253
 10
-35.0222
 20
4.8417
  0
VERTEX
  8
CAPA_1
 62
   253
 10
-35.0222
 20
4.9537
  0
VERTEX
  8
CAPA_1
 62
   253
 10
-34.7945
 20
4.9537
  0
VERTEX
  8
CAPA_1
 62
   253
 10
-34.729
 20
5.2745
  0
VERTEX
  8
CAPA_1
 62
   253
 10
-34.6164
 20
5.2745
  0
VERTEX
  8
CAPA_1
 62
   253
 10
-34.6819
 20
4.9537
  0
VERTEX
  8
CAPA_1
 62
   253
 10
-34.4478
 20
4.9537
  0
VERTEX
  8
CAPA_1
 62
   253
 10
-34.3824
 20
5.2745
  0
VERTEX
  8
CAPA_1
 62
   253
 10
-34.27
 20
5.2745
  0
VERTEX
  8
CAPA_1
 62
   253
 10
-34.3355
 20
4.9537
  0
VERTEX
  8
CAPA_1
 62
   253
 10
-34.2056
 20
4.9537
  0
VERTEX
  8
CAPA_1
 62
   253
 10
-34.2056
 20
4.8417
  0
VERTEX
  8
CAPA_1
 62
   253
 10
-34.3583
 20
4.8417
  0
VERTEX
  8
CAPA_1
 62
   253
 10
-34.4138
 20
4.57
  0
VERTEX
  8
CAPA_1
 62
   253
 10
-34.2056
 20
4.57
  0
VERTEX
  8
CAPA_1
 62
   253
 10
-34.2056
 20
4.4579
  0
VERTEX
  8
CAPA_1
 62
   253
 10
-34.4366
 20
4.4579
  0
VERTEX
  8
CAPA_1
 62
   253
 10
-34.5018
 20
4.1387
  0
VERTEX
  8
CAPA_1
 62
   253
 10
-34.6144
 20
4.1387
  0
VERTEX
  8
CAPA_1
 62
   253
 10
-34.5491
 20
4.4579
  0
VERTEX
  8
CAPA_1
 62
   253
 10
-34.7832
 20
4.4579
  0
VERTEX
  8
CAPA_1
 62
   253
 10
-34.8485
 20
4.1387
  0
VERTEX
  8
CAPA_1
 62
   253
 10
-34.9608
 20
4.1387
  0
SEQEND
  8
CAPA_1
 62
   253
  0
POLYLINE
  8
CAPA_1
 62
   253
 66
     1
 70
     1
  0
VERTEX
  8
CAPA_1
 62
   253
 10
-34.7605
 20
4.57
  0
VERTEX
  8
CAPA_1
 62
   253
 10
-34.5264
 20
4.57
  0
VERTEX
  8
CAPA_1
 62
   253
 10
-34.4709
 20
4.8417
  0
VERTEX
  8
CAPA_1
 62
   253
 10
-34.7049
 20
4.8417
  0
VERTEX
  8
CAPA_1
 62
   253
 10
-34.7605
 20
4.57
  0
SEQEND
  8
CAPA_1
 62
   253
  0
POLYLINE
  8
CAPA_1
 62
   253
 66
     1
 70
     1
  0
VERTEX
  8
CAPA_1
 62
   253
 10
-33.4117
 20
4.286
  0
VERTEX
  8
CAPA_1
 62
   253
 10
-33.4117
 20
4.1571
  0
VERTEX
  8
CAPA_1
 62
   253
 10
-34.1393
 20
4.1571
  0
VERTEX
  8
CAPA_1
 62
   253
 10
-34.1234
 20
4.251
  0
VERTEX
  8
CAPA_1
 62
   253
 10
-34.0336
 20
4.3971
  0
VERTEX
  8
CAPA_1
 62
   253
 10
-33.8571
 20
4.5628
  0
VERTEX
  8
CAPA_1
 62
   253
 10
-33.6151
 20
4.7956
  0
VERTEX
  8
CAPA_1
 62
   253
 10
-33.5514
 20
4.9583
  0
VERTEX
  8
CAPA_1
 62
   253
 10
-33.609
 20
5.0936
  0
VERTEX
  8
CAPA_1
 62
   253
 10
-33.7591
 20
5.1486
  0
VERTEX
  8
CAPA_1
 62
   253
 10
-33.9157
 20
5.0903
  0
VERTEX
  8
CAPA_1
 62
   253
 10
-33.9751
 20
4.9292
  0
VERTEX
  8
CAPA_1
 62
   253
 10
-34.1132
 20
4.943
  0
VERTEX
  8
CAPA_1
 62
   253
 10
-34.006
 20
5.1793
  0
VERTEX
  8
CAPA_1
 62
   253
 10
-33.7561
 20
5.2607
  0
VERTEX
  8
CAPA_1
 62
   253
 10
-33.5056
 20
5.1729
  0
VERTEX
  8
CAPA_1
 62
   253
 10
-33.4133
 20
4.9552
  0
VERTEX
  8
CAPA_1
 62
   253
 10
-33.4404
 20
4.8255
  0
VERTEX
  8
CAPA_1
 62
   253
 10
-33.5299
 20
4.691
  0
VERTEX
  8
CAPA_1
 62
   253
 10
-33.7379
 20
4.4976
  0
VERTEX
  8
CAPA_1
 62
   253
 10
-33.8942
 20
4.3592
  0
VERTEX
  8
CAPA_1
 62
   253
 10
-33.9513
 20
4.286
  0
VERTEX
  8
CAPA_1
 62
   253
 10
-33.4117
 20
4.286
  0
SEQEND
  8
CAPA_1
 62
   253
  0
POLYLINE
  8
CAPA_1
 62
   253
 66
     1
 70
     1
  0
VERTEX
  8
CAPA_1
 62
   253
 10
-32.9448
 20
4.3351
  0
VERTEX
  8
CAPA_1
 62
   253
 10
-32.9448
 20
4.636
  0
VERTEX
  8
CAPA_1
 62
   253
 10
-33.2441
 20
4.636
  0
VERTEX
  8
CAPA_1
 62
   253
 10
-33.2441
 20
4.7619
  0
VERTEX
  8
CAPA_1
 62
   253
 10
-32.9448
 20
4.7619
  0
VERTEX
  8
CAPA_1
 62
   253
 10
-32.9448
 20
5.0612
  0
VERTEX
  8
CAPA_1
 62
   253
 10
-32.8174
 20
5.0612
  0
VERTEX
  8
CAPA_1
 62
   253
 10
-32.8174
 20
4.7619
  0
VERTEX
  8
CAPA_1
 62
   253
 10
-32.5181
 20
4.7619
  0
VERTEX
  8
CAPA_1
 62
   253
 10
-32.5181
 20
4.636
  0
VERTEX
  8
CAPA_1
 62
   253
 10
-32.8174
 20
4.636
  0
VERTEX
  8
CAPA_1
 62
   253
 10
-32.8174
 20
4.3351
  0
VERTEX
  8
CAPA_1
 62
   253
 10
-32.9448
 20
4.3351
  0
SEQEND
  8
CAPA_1
 62
   253
  0
POLYLINE
  8
CAPA_1
 62
   251
 66
     1
 70
     1
  0
VERTEX
  8
CAPA_1
 62
   251
 10
-25.9639
 20
-8.7867
  0
VERTEX
  8
CAPA_1
 62
   251
 10
-27.3463
 20
-8.7867
  0
VERTEX
  8
CAPA_1
 62
   251
 10
-27.3463
 20
-11.3256
  0
VERTEX
  8
CAPA_1
 62
   251
 10
-25.9639
 20
-11.3256
  0
VERTEX
  8
CAPA_1
 62
   251
 10
-25.9639
 20
-8.7867
  0
SEQEND
  8
CAPA_1
 62
   251
  0
POLYLINE
  8
CAPA_1
 62
   251
 66
     1
 70
     1
  0
VERTEX
  8
CAPA_1
 62
   251
 10
-27.8116
 20
-8.7933
  0
VERTEX
  8
CAPA_1
 62
   251
 10
-29.194
 20
-8.7933
  0
VERTEX
  8
CAPA_1
 62
   251
 10
-29.194
 20
-11.3322
  0
VERTEX
  8
CAPA_1
 62
   251
 10
-27.8116
 20
-11.3322
  0
VERTEX
  8
CAPA_1
 62
   251
 10
-27.8116
 20
-8.7933
  0
SEQEND
  8
CAPA_1
 62
   251
  0
POLYLINE
  8
CAPA_1
 62
   254
 66
     1
 70
     1
  0
VERTEX
  8
CAPA_1
 62
   254
 10
-26.0939
 20
-10.6556
  0
VERTEX
  8
CAPA_1
 62
   254
 10
-26.5532
 20
-9.4582
  0
VERTEX
  8
CAPA_1
 62
   254
 10
-26.7275
 20
-9.4582
  0
VERTEX
  8
CAPA_1
 62
   254
 10
-27.215
 20
-10.6556
  0
VERTEX
  8
CAPA_1
 62
   254
 10
-27.0346
 20
-10.6556
  0
VERTEX
  8
CAPA_1
 62
   254
 10
-26.8961
 20
-10.2927
  0
VERTEX
  8
CAPA_1
 62
   254
 10
-26.3919
 20
-10.2927
  0
VERTEX
  8
CAPA_1
 62
   254
 10
-26.262
 20
-10.6556
  0
VERTEX
  8
CAPA_1
 62
   254
 10
-26.0939
 20
-10.6556
  0
SEQEND
  8
CAPA_1
 62
   254
  0
POLYLINE
  8
CAPA_1
 62
   254
 66
     1
 70
     1
  0
VERTEX
  8
CAPA_1
 62
   254
 10
-26.4384
 20
-10.1639
  0
VERTEX
  8
CAPA_1
 62
   254
 10
-26.8465
 20
-10.1639
  0
VERTEX
  8
CAPA_1
 62
   254
 10
-26.7216
 20
-9.8319
  0
VERTEX
  8
CAPA_1
 62
   254
 10
-26.6357
 20
-9.5819
  0
VERTEX
  8
CAPA_1
 62
   254
 10
-26.5697
 20
-9.8124
  0
VERTEX
  8
CAPA_1
 62
   254
 10
-26.4384
 20
-10.1639
  0
SEQEND
  8
CAPA_1
 62
   254
  0
POLYLINE
  8
CAPA_1
 62
   254
 66
     1
 70
     1
  0
VERTEX
  8
CAPA_1
 62
   254
 10
-28.971
 20
-10.6623
  0
VERTEX
  8
CAPA_1
 62
   254
 10
-28.971
 20
-9.4649
  0
VERTEX
  8
CAPA_1
 62
   254
 10
-28.5217
 20
-9.4649
  0
VERTEX
  8
CAPA_1
 62
   254
 10
-28.3015
 20
-9.5011
  0
VERTEX
  8
CAPA_1
 62
   254
 10
-28.1719
 20
-9.6131
  0
VERTEX
  8
CAPA_1
 62
   254
 10
-28.1248
 20
-9.7712
  0
VERTEX
  8
CAPA_1
 62
   254
 10
-28.1663
 20
-9.9156
  0
VERTEX
  8
CAPA_1
 62
   254
 10
-28.2917
 20
-10.0251
  0
VERTEX
  8
CAPA_1
 62
   254
 10
-28.1248
 20
-10.1338
  0
VERTEX
  8
CAPA_1
 62
   254
 10
-28.0662
 20
-10.315
  0
VERTEX
  8
CAPA_1
 62
   254
 10
-28.1019
 20
-10.4716
  0
VERTEX
  8
CAPA_1
 62
   254
 10
-28.1897
 20
-10.5831
  0
VERTEX
  8
CAPA_1
 62
   254
 10
-28.3207
 20
-10.6422
  0
VERTEX
  8
CAPA_1
 62
   254
 10
-28.5142
 20
-10.6623
  0
VERTEX
  8
CAPA_1
 62
   254
 10
-28.971
 20
-10.6623
  0
SEQEND
  8
CAPA_1
 62
   254
  0
POLYLINE
  8
CAPA_1
 62
   254
 66
     1
 70
     1
  0
VERTEX
  8
CAPA_1
 62
   254
 10
-28.8121
 20
-9.9683
  0
VERTEX
  8
CAPA_1
 62
   254
 10
-28.5532
 20
-9.9683
  0
VERTEX
  8
CAPA_1
 62
   254
 10
-28.4021
 20
-9.9543
  0
VERTEX
  8
CAPA_1
 62
   254
 10
-28.311
 20
-9.8944
  0
VERTEX
  8
CAPA_1
 62
   254
 10
-28.2803
 20
-9.7896
  0
VERTEX
  8
CAPA_1
 62
   254
 10
-28.309
 20
-9.6845
  0
VERTEX
  8
CAPA_1
 62
   254
 10
-28.3907
 20
-9.6221
  0
VERTEX
  8
CAPA_1
 62
   254
 10
-28.5727
 20
-9.6053
  0
VERTEX
  8
CAPA_1
 62
   254
 10
-28.8121
 20
-9.6053
  0
VERTEX
  8
CAPA_1
 62
   254
 10
-28.8121
 20
-9.9683
  0
SEQEND
  8
CAPA_1
 62
   254
  0
POLYLINE
  8
CAPA_1
 62
   254
 66
     1
 70
     1
  0
VERTEX
  8
CAPA_1
 62
   254
 10
-28.8121
 20
-10.5218
  0
VERTEX
  8
CAPA_1
 62
   254
 10
-28.5139
 20
-10.5218
  0
VERTEX
  8
CAPA_1
 62
   254
 10
-28.4057
 20
-10.516
  0
VERTEX
  8
CAPA_1
 62
   254
 10
-28.3143
 20
-10.4834
  0
VERTEX
  8
CAPA_1
 62
   254
 10
-28.2538
 20
-10.4165
  0
VERTEX
  8
CAPA_1
 62
   254
 10
-28.2301
 20
-10.3153
  0
VERTEX
  8
CAPA_1
 62
   254
 10
-28.2647
 20
-10.1985
  0
VERTEX
  8
CAPA_1
 62
   254
 10
-28.36
 20
-10.1288
  0
VERTEX
  8
CAPA_1
 62
   254
 10
-28.5351
 20
-10.1087
  0
VERTEX
  8
CAPA_1
 62
   254
 10
-28.8121
 20
-10.1087
  0
VERTEX
  8
CAPA_1
 62
   254
 10
-28.8121
 20
-10.5218
  0
SEQEND
  8
CAPA_1
 62
   254
  0
POLYLINE
  8
CAPA_1
 62
   253
 66
     1
 70
     1
  0
VERTEX
  8
CAPA_1
 62
   253
 10
-30.1912
 20
-10.6445
  0
VERTEX
  8
CAPA_1
 62
   253
 10
-30.1912
 20
-10.1716
  0
VERTEX
  8
CAPA_1
 62
   253
 10
-29.7207
 20
-10.1716
  0
VERTEX
  8
CAPA_1
 62
   253
 10
-29.7207
 20
-9.9738
  0
VERTEX
  8
CAPA_1
 62
   253
 10
-30.1912
 20
-9.9738
  0
VERTEX
  8
CAPA_1
 62
   253
 10
-30.1912
 20
-9.5033
  0
VERTEX
  8
CAPA_1
 62
   253
 10
-30.3914
 20
-9.5033
  0
VERTEX
  8
CAPA_1
 62
   253
 10
-30.3914
 20
-9.9738
  0
VERTEX
  8
CAPA_1
 62
   253
 10
-30.8619
 20
-9.9738
  0
VERTEX
  8
CAPA_1
 62
   253
 10
-30.8619
 20
-10.1716
  0
VERTEX
  8
CAPA_1
 62
   253
 10
-30.3914
 20
-10.1716
  0
VERTEX
  8
CAPA_1
 62
   253
 10
-30.3914
 20
-10.6445
  0
VERTEX
  8
CAPA_1
 62
   253
 10
-30.1912
 20
-10.6445
  0
SEQEND
  8
CAPA_1
 62
   253
  0
POLYLINE
  8
CAPA_1
 62
   251
 66
     1
 70
     1
  0
VERTEX
  8
CAPA_1
 62
   251
 10
-31.3448
 20
-8.8008
  0
VERTEX
  8
CAPA_1
 62
   251
 10
-32.7272
 20
-8.8008
  0
VERTEX
  8
CAPA_1
 62
   251
 10
-32.7272
 20
-11.3397
  0
VERTEX
  8
CAPA_1
 62
   251
 10
-31.3448
 20
-11.3397
  0
VERTEX
  8
CAPA_1
 62
   251
 10
-31.3448
 20
-8.8008
  0
SEQEND
  8
CAPA_1
 62
   251
  0
POLYLINE
  8
CAPA_1
 62
   251
 66
     1
 70
     1
  0
VERTEX
  8
CAPA_1
 62
   251
 10
-25.9639
 20
-8.7867
  0
VERTEX
  8
CAPA_1
 62
   251
 10
-27.3463
 20
-8.7867
  0
VERTEX
  8
CAPA_1
 62
   251
 10
-27.3463
 20
-11.3256
  0
VERTEX
  8
CAPA_1
 62
   251
 10
-25.9639
 20
-11.3256
  0
VERTEX
  8
CAPA_1
 62
   251
 10
-25.9639
 20
-8.7867
  0
SEQEND
  8
CAPA_1
 62
   251
  0
POLYLINE
  8
CAPA_1
 62
   251
 66
     1
 70
     1
  0
VERTEX
  8
CAPA_1
 62
   251
 10
-27.8116
 20
-8.7933
  0
VERTEX
  8
CAPA_1
 62
   251
 10
-29.194
 20
-8.7933
  0
VERTEX
  8
CAPA_1
 62
   251
 10
-29.194
 20
-11.3322
  0
VERTEX
  8
CAPA_1
 62
   251
 10
-27.8116
 20
-11.3322
  0
VERTEX
  8
CAPA_1
 62
   251
 10
-27.8116
 20
-8.7933
  0
SEQEND
  8
CAPA_1
 62
   251
  0
POLYLINE
  8
CAPA_1
 62
     7
 66
     1
 70
     1
  0
VERTEX
  8
CAPA_1
 62
     7
 10
-29.5759
 20
-8.8037
  0
VERTEX
  8
CAPA_1
 62
     7
 10
-30.9583
 20
-8.8037
  0
VERTEX
  8
CAPA_1
 62
     7
 10
-30.9583
 20
-11.3426
  0
VERTEX
  8
CAPA_1
 62
     7
 10
-29.5759
 20
-11.3426
  0
VERTEX
  8
CAPA_1
 62
     7
 10
-29.5759
 20
-8.8037
  0
SEQEND
  8
CAPA_1
 62
     7
  0
POLYLINE
  8
CAPA_1
 62
     7
 66
     1
 70
     1
  0
VERTEX
  8
CAPA_1
 62
     7
 10
-31.3448
 20
-8.8008
  0
VERTEX
  8
CAPA_1
 62
     7
 10
-32.7272
 20
-8.8008
  0
VERTEX
  8
CAPA_1
 62
     7
 10
-32.7272
 20
-11.3397
  0
VERTEX
  8
CAPA_1
 62
     7
 10
-31.3448
 20
-11.3397
  0
VERTEX
  8
CAPA_1
 62
     7
 10
-31.3448
 20
-8.8008
  0
SEQEND
  8
CAPA_1
 62
     7
  0
POLYLINE
  8
CAPA_1
 62
   253
 66
     1
 70
     1
  0
VERTEX
  8
CAPA_1
 62
   253
 10
-31.6143
 20
-10.2072
  0
VERTEX
  8
CAPA_1
 62
   253
 10
-31.6143
 20
-9.9345
  0
VERTEX
  8
CAPA_1
 62
   253
 10
-32.457
 20
-9.9345
  0
VERTEX
  8
CAPA_1
 62
   253
 10
-32.457
 20
-10.2072
  0
VERTEX
  8
CAPA_1
 62
   253
 10
-31.6143
 20
-10.2072
  0
SEQEND
  8
CAPA_1
 62
   253
  0
POLYLINE
  8
CAPA_1
 62
   253
 66
     1
 70
     1
  0
VERTEX
  8
CAPA_1
 62
   253
 10
-32.0525
 20
-7.5828
  0
VERTEX
  8
CAPA_1
 62
   253
 10
-31.9159
 20
-7.5705
  0
VERTEX
  8
CAPA_1
 62
   253
 10
-31.8706
 20
-7.7066
  0
VERTEX
  8
CAPA_1
 62
   253
 10
-31.7601
 20
-7.7925
  0
VERTEX
  8
CAPA_1
 62
   253
 10
-31.5915
 20
-7.8253
  0
VERTEX
  8
CAPA_1
 62
   253
 10
-31.4447
 20
-7.8005
  0
VERTEX
  8
CAPA_1
 62
   253
 10
-31.35
 20
-7.7322
  0
VERTEX
  8
CAPA_1
 62
   253
 10
-31.3188
 20
-7.638
  0
VERTEX
  8
CAPA_1
 62
   253
 10
-31.3487
 20
-7.548
  0
VERTEX
  8
CAPA_1
 62
   253
 10
-31.4477
 20
-7.4833
  0
VERTEX
  8
CAPA_1
 62
   253
 10
-31.6434
 20
-7.4298
  0
VERTEX
  8
CAPA_1
 62
   253
 10
-31.8555
 20
-7.3612
  0
VERTEX
  8
CAPA_1
 62
   253
 10
-31.9724
 20
-7.2587
  0
VERTEX
  8
CAPA_1
 62
   253
 10
-32.0111
 20
-7.1218
  0
VERTEX
  8
CAPA_1
 62
   253
 10
-31.9637
 20
-6.966
  0
VERTEX
  8
CAPA_1
 62
   253
 10
-31.8258
 20
-6.856
  0
VERTEX
  8
CAPA_1
 62
   253
 10
-31.6243
 20
-6.8184
  0
VERTEX
  8
CAPA_1
 62
   253
 10
-31.4089
 20
-6.8578
  0
VERTEX
  8
CAPA_1
 62
   253
 10
-31.2653
 20
-6.9737
  0
VERTEX
  8
CAPA_1
 62
   253
 10
-31.2114
 20
-7.1469
  0
VERTEX
  8
CAPA_1
 62
   253
 10
-31.351
 20
-7.1576
  0
VERTEX
  8
CAPA_1
 62
   253
 10
-31.427
 20
-7.0005
  0
VERTEX
  8
CAPA_1
 62
   253
 10
-31.6186
 20
-6.9473
  0
VERTEX
  8
CAPA_1
 62
   253
 10
-31.811
 20
-6.9957
  0
VERTEX
  8
CAPA_1
 62
   253
 10
-31.8714
 20
-7.1123
  0
VERTEX
  8
CAPA_1
 62
   253
 10
-31.8287
 20
-7.2098
  0
VERTEX
  8
CAPA_1
 62
   253
 10
-31.6094
 20
-7.2881
  0
VERTEX
  8
CAPA_1
 62
   253
 10
-31.3661
 20
-7.3582
  0
VERTEX
  8
CAPA_1
 62
   253
 10
-31.2247
 20
-7.47
  0
VERTEX
  8
CAPA_1
 62
   253
 10
-31.1791
 20
-7.6258
  0
VERTEX
  8
CAPA_1
 62
   253
 10
-31.2293
 20
-7.7908
  0
VERTEX
  8
CAPA_1
 62
   253
 10
-31.3733
 20
-7.9112
  0
VERTEX
  8
CAPA_1
 62
   253
 10
-31.5849
 20
-7.9542
  0
VERTEX
  8
CAPA_1
 62
   253
 10
-31.8343
 20
-7.9107
  0
VERTEX
  8
CAPA_1
 62
   253
 10
-31.9921
 20
-7.78
  0
VERTEX
  8
CAPA_1
 62
   253
 10
-32.0525
 20
-7.5828
  0
SEQEND
  8
CAPA_1
 62
   253
  0
POLYLINE
  8
CAPA_1
 62
   253
 66
     1
 70
     1
  0
VERTEX
  8
CAPA_1
 62
   253
 10
-31.0256
 20
-7.4009
  0
VERTEX
  8
CAPA_1
 62
   253
 10
-31.0164
 20
-7.2717
  0
VERTEX
  8
CAPA_1
 62
   253
 10
-30.9888
 20
-7.1572
  0
VERTEX
  8
CAPA_1
 62
   253
 10
-30.9428
 20
-7.0576
  0
VERTEX
  8
CAPA_1
 62
   253
 10
-30.8785
 20
-6.9729
  0
VERTEX
  8
CAPA_1
 62
   253
 10
-30.7997
 20
-6.9053
  0
VERTEX
  8
CAPA_1
 62
   253
 10
-30.7103
 20
-6.857
  0
VERTEX
  8
CAPA_1
 62
   253
 10
-30.6101
 20
-6.828
  0
VERTEX
  8
CAPA_1
 62
   253
 10
-30.4992
 20
-6.8184
  0
VERTEX
  8
CAPA_1
 62
   253
 10
-30.2247
 20
-6.891
  0
VERTEX
  8
CAPA_1
 62
   253
 10
-30.0384
 20
-7.0937
  0
VERTEX
  8
CAPA_1
 62
   253
 10
-29.9742
 20
-7.3881
  0
VERTEX
  8
CAPA_1
 62
   253
 10
-30.0418
 20
-7.6869
  0
VERTEX
  8
CAPA_1
 62
   253
 10
-30.2328
 20
-7.8864
  0
VERTEX
  8
CAPA_1
 62
   253
 10
-30.4999
 20
-7.9542
  0
VERTEX
  8
CAPA_1
 62
   253
 10
-30.7775
 20
-7.8793
  0
VERTEX
  8
CAPA_1
 62
   253
 10
-30.9627
 20
-7.6749
  0
VERTEX
  8
CAPA_1
 62
   253
 10
-31.0256
 20
-7.4009
  0
SEQEND
  8
CAPA_1
 62
   253
  0
POLYLINE
  8
CAPA_1
 62
   253
 66
     1
 70
     1
  0
VERTEX
  8
CAPA_1
 62
   253
 10
-30.8752
 20
-7.4034
  0
VERTEX
  8
CAPA_1
 62
   253
 10
-30.8685
 20
-7.4973
  0
VERTEX
  8
CAPA_1
 62
   253
 10
-30.8485
 20
-7.5807
  0
VERTEX
  8
CAPA_1
 62
   253
 10
-30.8152
 20
-7.6535
  0
VERTEX
  8
CAPA_1
 62
   253
 10
-30.7685
 20
-7.7158
  0
VERTEX
  8
CAPA_1
 62
   253
 10
-30.7118
 20
-7.7657
  0
VERTEX
  8
CAPA_1
 62
   253
 10
-30.6482
 20
-7.8014
  0
VERTEX
  8
CAPA_1
 62
   253
 10
-30.5779
 20
-7.8228
  0
VERTEX
  8
CAPA_1
 62
   253
 10
-30.5007
 20
-7.8299
  0
VERTEX
  8
CAPA_1
 62
   253
 10
-30.4223
 20
-7.8227
  0
VERTEX
  8
CAPA_1
 62
   253
 10
-30.3511
 20
-7.8011
  0
VERTEX
  8
CAPA_1
 62
   253
 10
-30.2872
 20
-7.7651
  0
VERTEX
  8
CAPA_1
 62
   253
 10
-30.2305
 20
-7.7148
  0
VERTEX
  8
CAPA_1
 62
   253
 10
-30.1842
 20
-7.6512
  0
VERTEX
  8
CAPA_1
 62
   253
 10
-30.1511
 20
-7.5755
  0
VERTEX
  8
CAPA_1
 62
   253
 10
-30.1312
 20
-7.4877
  0
VERTEX
  8
CAPA_1
 62
   253
 10
-30.1246
 20
-7.3878
  0
VERTEX
  8
CAPA_1
 62
   253
 10
-30.1699
 20
-7.154
  0
VERTEX
  8
CAPA_1
 62
   253
 10
-30.3024
 20
-6.9993
  0
VERTEX
  8
CAPA_1
 62
   253
 10
-30.4984
 20
-6.9443
  0
VERTEX
  8
CAPA_1
 62
   253
 10
-30.7639
 20
-7.0502
  0
VERTEX
  8
CAPA_1
 62
   253
 10
-30.8126
 20
-7.112
  0
VERTEX
  8
CAPA_1
 62
   253
 10
-30.8474
 20
-7.1914
  0
VERTEX
  8
CAPA_1
 62
   253
 10
-30.8682
 20
-7.2885
  0
VERTEX
  8
CAPA_1
 62
   253
 10
-30.8752
 20
-7.4034
  0
SEQEND
  8
CAPA_1
 62
   253
  0
POLYLINE
  8
CAPA_1
 62
   253
 66
     1
 70
     1
  0
VERTEX
  8
CAPA_1
 62
   253
 10
-29.7934
 20
-7.9358
  0
VERTEX
  8
CAPA_1
 62
   253
 10
-29.7934
 20
-6.8368
  0
VERTEX
  8
CAPA_1
 62
   253
 10
-29.6475
 20
-6.8368
  0
VERTEX
  8
CAPA_1
 62
   253
 10
-29.6475
 20
-7.8069
  0
VERTEX
  8
CAPA_1
 62
   253
 10
-29.1073
 20
-7.8069
  0
VERTEX
  8
CAPA_1
 62
   253
 10
-29.1073
 20
-7.9358
  0
VERTEX
  8
CAPA_1
 62
   253
 10
-29.7934
 20
-7.9358
  0
SEQEND
  8
CAPA_1
 62
   253
  0
POLYLINE
  8
CAPA_1
 62
   253
 66
     1
 70
     1
  0
VERTEX
  8
CAPA_1
 62
   253
 10
-28.975
 20
-7.9542
  0
VERTEX
  8
CAPA_1
 62
   253
 10
-28.9097
 20
-7.635
  0
VERTEX
  8
CAPA_1
 62
   253
 10
-29.0364
 20
-7.635
  0
VERTEX
  8
CAPA_1
 62
   253
 10
-29.0364
 20
-7.5229
  0
VERTEX
  8
CAPA_1
 62
   253
 10
-28.887
 20
-7.5229
  0
VERTEX
  8
CAPA_1
 62
   253
 10
-28.8314
 20
-7.2512
  0
VERTEX
  8
CAPA_1
 62
   253
 10
-29.0364
 20
-7.2512
  0
VERTEX
  8
CAPA_1
 62
   253
 10
-29.0364
 20
-7.1392
  0
VERTEX
  8
CAPA_1
 62
   253
 10
-28.8087
 20
-7.1392
  0
VERTEX
  8
CAPA_1
 62
   253
 10
-28.7432
 20
-6.8184
  0
VERTEX
  8
CAPA_1
 62
   253
 10
-28.6306
 20
-6.8184
  0
VERTEX
  8
CAPA_1
 62
   253
 10
-28.6961
 20
-7.1392
  0
VERTEX
  8
CAPA_1
 62
   253
 10
-28.462
 20
-7.1392
  0
VERTEX
  8
CAPA_1
 62
   253
 10
-28.3966
 20
-6.8184
  0
VERTEX
  8
CAPA_1
 62
   253
 10
-28.2842
 20
-6.8184
  0
VERTEX
  8
CAPA_1
 62
   253
 10
-28.3497
 20
-7.1392
  0
VERTEX
  8
CAPA_1
 62
   253
 10
-28.2198
 20
-7.1392
  0
VERTEX
  8
CAPA_1
 62
   253
 10
-28.2198
 20
-7.2512
  0
VERTEX
  8
CAPA_1
 62
   253
 10
-28.3725
 20
-7.2512
  0
VERTEX
  8
CAPA_1
 62
   253
 10
-28.428
 20
-7.5229
  0
VERTEX
  8
CAPA_1
 62
   253
 10
-28.2198
 20
-7.5229
  0
VERTEX
  8
CAPA_1
 62
   253
 10
-28.2198
 20
-7.635
  0
VERTEX
  8
CAPA_1
 62
   253
 10
-28.4508
 20
-7.635
  0
VERTEX
  8
CAPA_1
 62
   253
 10
-28.516
 20
-7.9542
  0
VERTEX
  8
CAPA_1
 62
   253
 10
-28.6286
 20
-7.9542
  0
VERTEX
  8
CAPA_1
 62
   253
 10
-28.5633
 20
-7.635
  0
VERTEX
  8
CAPA_1
 62
   253
 10
-28.7974
 20
-7.635
  0
VERTEX
  8
CAPA_1
 62
   253
 10
-28.8627
 20
-7.9542
  0
VERTEX
  8
CAPA_1
 62
   253
 10
-28.975
 20
-7.9542
  0
SEQEND
  8
CAPA_1
 62
   253
  0
POLYLINE
  8
CAPA_1
 62
   253
 66
     1
 70
     1
  0
VERTEX
  8
CAPA_1
 62
   253
 10
-28.7747
 20
-7.5229
  0
VERTEX
  8
CAPA_1
 62
   253
 10
-28.5406
 20
-7.5229
  0
VERTEX
  8
CAPA_1
 62
   253
 10
-28.4851
 20
-7.2512
  0
VERTEX
  8
CAPA_1
 62
   253
 10
-28.7191
 20
-7.2512
  0
VERTEX
  8
CAPA_1
 62
   253
 10
-28.7747
 20
-7.5229
  0
SEQEND
  8
CAPA_1
 62
   253
  0
POLYLINE
  8
CAPA_1
 62
   253
 66
     1
 70
     1
  0
VERTEX
  8
CAPA_1
 62
   253
 10
-27.627
 20
-7.9358
  0
VERTEX
  8
CAPA_1
 62
   253
 10
-27.7621
 20
-7.9358
  0
VERTEX
  8
CAPA_1
 62
   253
 10
-27.7621
 20
-7.0757
  0
VERTEX
  8
CAPA_1
 62
   253
 10
-27.89
 20
-7.1689
  0
VERTEX
  8
CAPA_1
 62
   253
 10
-28.0322
 20
-7.2384
  0
VERTEX
  8
CAPA_1
 62
   253
 10
-28.0322
 20
-7.108
  0
VERTEX
  8
CAPA_1
 62
   253
 10
-27.8342
 20
-6.979
  0
VERTEX
  8
CAPA_1
 62
   253
 10
-27.714
 20
-6.8322
  0
VERTEX
  8
CAPA_1
 62
   253
 10
-27.627
 20
-6.8322
  0
VERTEX
  8
CAPA_1
 62
   253
 10
-27.627
 20
-7.9358
  0
SEQEND
  8
CAPA_1
 62
   253
  0
POLYLINE
  8
CAPA_1
 62
   254
 66
     1
 70
     1
  0
VERTEX
  8
CAPA_1
 62
   254
 10
-19.3574
 20
12.4542
  0
VERTEX
  8
CAPA_1
 62
   254
 10
-19.2208
 20
12.4665
  0
VERTEX
  8
CAPA_1
 62
   254
 10
-19.1755
 20
12.3304
  0
VERTEX
  8
CAPA_1
 62
   254
 10
-19.065
 20
12.2445
  0
VERTEX
  8
CAPA_1
 62
   254
 10
-18.8964
 20
12.2117
  0
VERTEX
  8
CAPA_1
 62
   254
 10
-18.7496
 20
12.2365
  0
VERTEX
  8
CAPA_1
 62
   254
 10
-18.6549
 20
12.3048
  0
VERTEX
  8
CAPA_1
 62
   254
 10
-18.6237
 20
12.399
  0
VERTEX
  8
CAPA_1
 62
   254
 10
-18.6536
 20
12.489
  0
VERTEX
  8
CAPA_1
 62
   254
 10
-18.7526
 20
12.5537
  0
VERTEX
  8
CAPA_1
 62
   254
 10
-18.9483
 20
12.6072
  0
VERTEX
  8
CAPA_1
 62
   254
 10
-19.1604
 20
12.6758
  0
VERTEX
  8
CAPA_1
 62
   254
 10
-19.2773
 20
12.7783
  0
VERTEX
  8
CAPA_1
 62
   254
 10
-19.316
 20
12.9152
  0
VERTEX
  8
CAPA_1
 62
   254
 10
-19.2686
 20
13.071
  0
VERTEX
  8
CAPA_1
 62
   254
 10
-19.1307
 20
13.181
  0
VERTEX
  8
CAPA_1
 62
   254
 10
-18.9292
 20
13.2186
  0
VERTEX
  8
CAPA_1
 62
   254
 10
-18.7138
 20
13.1792
  0
VERTEX
  8
CAPA_1
 62
   254
 10
-18.5702
 20
13.0633
  0
VERTEX
  8
CAPA_1
 62
   254
 10
-18.5163
 20
12.8901
  0
VERTEX
  8
CAPA_1
 62
   254
 10
-18.6559
 20
12.8794
  0
VERTEX
  8
CAPA_1
 62
   254
 10
-18.7319
 20
13.0365
  0
VERTEX
  8
CAPA_1
 62
   254
 10
-18.9235
 20
13.0897
  0
VERTEX
  8
CAPA_1
 62
   254
 10
-19.1159
 20
13.0413
  0
VERTEX
  8
CAPA_1
 62
   254
 10
-19.1763
 20
12.9247
  0
VERTEX
  8
CAPA_1
 62
   254
 10
-19.1336
 20
12.8272
  0
VERTEX
  8
CAPA_1
 62
   254
 10
-18.9143
 20
12.7489
  0
VERTEX
  8
CAPA_1
 62
   254
 10
-18.671
 20
12.6788
  0
VERTEX
  8
CAPA_1
 62
   254
 10
-18.5296
 20
12.567
  0
VERTEX
  8
CAPA_1
 62
   254
 10
-18.484
 20
12.4112
  0
VERTEX
  8
CAPA_1
 62
   254
 10
-18.5342
 20
12.2462
  0
VERTEX
  8
CAPA_1
 62
   254
 10
-18.6782
 20
12.1258
  0
VERTEX
  8
CAPA_1
 62
   254
 10
-18.8898
 20
12.0828
  0
VERTEX
  8
CAPA_1
 62
   254
 10
-19.1392
 20
12.1263
  0
VERTEX
  8
CAPA_1
 62
   254
 10
-19.297
 20
12.257
  0
VERTEX
  8
CAPA_1
 62
   254
 10
-19.3574
 20
12.4542
  0
SEQEND
  8
CAPA_1
 62
   254
  0
POLYLINE
  8
CAPA_1
 62
   254
 66
     1
 70
     1
  0
VERTEX
  8
CAPA_1
 62
   254
 10
-17.6321
 20
12.2301
  0
VERTEX
  8
CAPA_1
 62
   254
 10
-17.6321
 20
12.1012
  0
VERTEX
  8
CAPA_1
 62
   254
 10
-18.3597
 20
12.1012
  0
VERTEX
  8
CAPA_1
 62
   254
 10
-18.3438
 20
12.1951
  0
VERTEX
  8
CAPA_1
 62
   254
 10
-18.254
 20
12.3412
  0
VERTEX
  8
CAPA_1
 62
   254
 10
-18.0775
 20
12.5069
  0
VERTEX
  8
CAPA_1
 62
   254
 10
-17.8355
 20
12.7397
  0
VERTEX
  8
CAPA_1
 62
   254
 10
-17.7718
 20
12.9024
  0
VERTEX
  8
CAPA_1
 62
   254
 10
-17.8294
 20
13.0377
  0
VERTEX
  8
CAPA_1
 62
   254
 10
-17.9795
 20
13.0927
  0
VERTEX
  8
CAPA_1
 62
   254
 10
-18.1361
 20
13.0344
  0
VERTEX
  8
CAPA_1
 62
   254
 10
-18.1955
 20
12.8733
  0
VERTEX
  8
CAPA_1
 62
   254
 10
-18.3336
 20
12.8871
  0
VERTEX
  8
CAPA_1
 62
   254
 10
-18.2264
 20
13.1234
  0
VERTEX
  8
CAPA_1
 62
   254
 10
-17.9765
 20
13.2048
  0
VERTEX
  8
CAPA_1
 62
   254
 10
-17.726
 20
13.117
  0
VERTEX
  8
CAPA_1
 62
   254
 10
-17.6337
 20
12.8993
  0
VERTEX
  8
CAPA_1
 62
   254
 10
-17.6608
 20
12.7696
  0
VERTEX
  8
CAPA_1
 62
   254
 10
-17.7503
 20
12.6351
  0
VERTEX
  8
CAPA_1
 62
   254
 10
-17.9583
 20
12.4417
  0
VERTEX
  8
CAPA_1
 62
   254
 10
-18.1146
 20
12.3033
  0
VERTEX
  8
CAPA_1
 62
   254
 10
-18.1717
 20
12.2301
  0
VERTEX
  8
CAPA_1
 62
   254
 10
-17.6321
 20
12.2301
  0
SEQEND
  8
CAPA_1
 62
   254
  0
POLYLINE
  8
CAPA_1
 62
   254
 66
     1
 70
     1
  0
VERTEX
  8
CAPA_1
 62
   254
 10
-17.1652
 20
12.2792
  0
VERTEX
  8
CAPA_1
 62
   254
 10
-17.1652
 20
12.5801
  0
VERTEX
  8
CAPA_1
 62
   254
 10
-17.4645
 20
12.5801
  0
VERTEX
  8
CAPA_1
 62
   254
 10
-17.4645
 20
12.706
  0
VERTEX
  8
CAPA_1
 62
   254
 10
-17.1652
 20
12.706
  0
VERTEX
  8
CAPA_1
 62
   254
 10
-17.1652
 20
13.0053
  0
VERTEX
  8
CAPA_1
 62
   254
 10
-17.0378
 20
13.0053
  0
VERTEX
  8
CAPA_1
 62
   254
 10
-17.0378
 20
12.706
  0
VERTEX
  8
CAPA_1
 62
   254
 10
-16.7385
 20
12.706
  0
VERTEX
  8
CAPA_1
 62
   254
 10
-16.7385
 20
12.5801
  0
VERTEX
  8
CAPA_1
 62
   254
 10
-17.0378
 20
12.5801
  0
VERTEX
  8
CAPA_1
 62
   254
 10
-17.0378
 20
12.2792
  0
VERTEX
  8
CAPA_1
 62
   254
 10
-17.1652
 20
12.2792
  0
SEQEND
  8
CAPA_1
 62
   254
  0
POLYLINE
  8
CAPA_1
 62
   254
 66
     1
 70
     1
  0
VERTEX
  8
CAPA_1
 62
   254
 10
-22.8431
 20
12.4153
  0
VERTEX
  8
CAPA_1
 62
   254
 10
-22.7065
 20
12.4276
  0
VERTEX
  8
CAPA_1
 62
   254
 10
-22.6612
 20
12.2915
  0
VERTEX
  8
CAPA_1
 62
   254
 10
-22.5507
 20
12.2056
  0
VERTEX
  8
CAPA_1
 62
   254
 10
-22.3821
 20
12.1728
  0
VERTEX
  8
CAPA_1
 62
   254
 10
-22.2353
 20
12.1976
  0
VERTEX
  8
CAPA_1
 62
   254
 10
-22.1406
 20
12.2659
  0
VERTEX
  8
CAPA_1
 62
   254
 10
-22.1094
 20
12.3601
  0
VERTEX
  8
CAPA_1
 62
   254
 10
-22.1393
 20
12.4501
  0
VERTEX
  8
CAPA_1
 62
   254
 10
-22.2383
 20
12.5148
  0
VERTEX
  8
CAPA_1
 62
   254
 10
-22.434
 20
12.5683
  0
VERTEX
  8
CAPA_1
 62
   254
 10
-22.6461
 20
12.6369
  0
VERTEX
  8
CAPA_1
 62
   254
 10
-22.763
 20
12.7394
  0
VERTEX
  8
CAPA_1
 62
   254
 10
-22.8017
 20
12.8763
  0
VERTEX
  8
CAPA_1
 62
   254
 10
-22.7543
 20
13.0321
  0
VERTEX
  8
CAPA_1
 62
   254
 10
-22.6164
 20
13.1421
  0
VERTEX
  8
CAPA_1
 62
   254
 10
-22.4149
 20
13.1797
  0
VERTEX
  8
CAPA_1
 62
   254
 10
-22.1995
 20
13.1403
  0
VERTEX
  8
CAPA_1
 62
   254
 10
-22.0559
 20
13.0244
  0
VERTEX
  8
CAPA_1
 62
   254
 10
-22.002
 20
12.8512
  0
VERTEX
  8
CAPA_1
 62
   254
 10
-22.1416
 20
12.8405
  0
VERTEX
  8
CAPA_1
 62
   254
 10
-22.2176
 20
12.9976
  0
VERTEX
  8
CAPA_1
 62
   254
 10
-22.4092
 20
13.0508
  0
VERTEX
  8
CAPA_1
 62
   254
 10
-22.6016
 20
13.0024
  0
VERTEX
  8
CAPA_1
 62
   254
 10
-22.662
 20
12.8858
  0
VERTEX
  8
CAPA_1
 62
   254
 10
-22.6193
 20
12.7883
  0
VERTEX
  8
CAPA_1
 62
   254
 10
-22.4
 20
12.71
  0
VERTEX
  8
CAPA_1
 62
   254
 10
-22.1567
 20
12.6399
  0
VERTEX
  8
CAPA_1
 62
   254
 10
-22.0153
 20
12.5281
  0
VERTEX
  8
CAPA_1
 62
   254
 10
-21.9697
 20
12.3723
  0
VERTEX
  8
CAPA_1
 62
   254
 10
-22.0199
 20
12.2073
  0
VERTEX
  8
CAPA_1
 62
   254
 10
-22.1639
 20
12.0869
  0
VERTEX
  8
CAPA_1
 62
   254
 10
-22.3755
 20
12.0439
  0
VERTEX
  8
CAPA_1
 62
   254
 10
-22.6249
 20
12.0874
  0
VERTEX
  8
CAPA_1
 62
   254
 10
-22.7827
 20
12.2181
  0
VERTEX
  8
CAPA_1
 62
   254
 10
-22.8431
 20
12.4153
  0
SEQEND
  8
CAPA_1
 62
   254
  0
POLYLINE
  8
CAPA_1
 62
   254
 66
     1
 70
     1
  0
VERTEX
  8
CAPA_1
 62
   254
 10
-21.1178
 20
12.1912
  0
VERTEX
  8
CAPA_1
 62
   254
 10
-21.1178
 20
12.0623
  0
VERTEX
  8
CAPA_1
 62
   254
 10
-21.8454
 20
12.0623
  0
VERTEX
  8
CAPA_1
 62
   254
 10
-21.8295
 20
12.1562
  0
VERTEX
  8
CAPA_1
 62
   254
 10
-21.7397
 20
12.3023
  0
VERTEX
  8
CAPA_1
 62
   254
 10
-21.5632
 20
12.468
  0
VERTEX
  8
CAPA_1
 62
   254
 10
-21.3212
 20
12.7008
  0
VERTEX
  8
CAPA_1
 62
   254
 10
-21.2575
 20
12.8635
  0
VERTEX
  8
CAPA_1
 62
   254
 10
-21.3151
 20
12.9988
  0
VERTEX
  8
CAPA_1
 62
   254
 10
-21.4652
 20
13.0538
  0
VERTEX
  8
CAPA_1
 62
   254
 10
-21.6218
 20
12.9955
  0
VERTEX
  8
CAPA_1
 62
   254
 10
-21.6812
 20
12.8344
  0
VERTEX
  8
CAPA_1
 62
   254
 10
-21.8193
 20
12.8482
  0
VERTEX
  8
CAPA_1
 62
   254
 10
-21.7121
 20
13.0845
  0
VERTEX
  8
CAPA_1
 62
   254
 10
-21.4622
 20
13.1659
  0
VERTEX
  8
CAPA_1
 62
   254
 10
-21.2117
 20
13.0781
  0
VERTEX
  8
CAPA_1
 62
   254
 10
-21.1194
 20
12.8604
  0
VERTEX
  8
CAPA_1
 62
   254
 10
-21.1465
 20
12.7307
  0
VERTEX
  8
CAPA_1
 62
   254
 10
-21.236
 20
12.5962
  0
VERTEX
  8
CAPA_1
 62
   254
 10
-21.444
 20
12.4028
  0
VERTEX
  8
CAPA_1
 62
   254
 10
-21.6003
 20
12.2644
  0
VERTEX
  8
CAPA_1
 62
   254
 10
-21.6574
 20
12.1912
  0
VERTEX
  8
CAPA_1
 62
   254
 10
-21.1178
 20
12.1912
  0
SEQEND
  8
CAPA_1
 62
   254
  0
POLYLINE
  8
CAPA_1
 62
   254
 66
     1
 70
     1
  0
VERTEX
  8
CAPA_1
 62
   254
 10
-20.9886
 20
12.3923
  0
VERTEX
  8
CAPA_1
 62
   254
 10
-20.9886
 20
12.5274
  0
VERTEX
  8
CAPA_1
 62
   254
 10
-20.5711
 20
12.5274
  0
VERTEX
  8
CAPA_1
 62
   254
 10
-20.5711
 20
12.3923
  0
VERTEX
  8
CAPA_1
 62
   254
 10
-20.9886
 20
12.3923
  0
SEQEND
  8
CAPA_1
 62
   254
  0
POLYLINE
  8
CAPA_1
 62
   251
 66
     1
 70
     1
  0
VERTEX
  8
CAPA_1
 62
   251
 10
-45.6085
 20
-6.5059
  0
VERTEX
  8
CAPA_1
 62
   251
 10
-46.1811
 20
-7.6799
  0
VERTEX
  8
CAPA_1
 62
   251
 10
-45.0071
 20
-8.2525
  0
VERTEX
  8
CAPA_1
 62
   251
 10
-44.4345
 20
-7.0785
  0
VERTEX
  8
CAPA_1
 62
   251
 10
-45.6085
 20
-6.5059
  0
SEQEND
  8
CAPA_1
 62
   251
  0
POLYLINE
  8
CAPA_1
 62
   251
 66
     1
 70
     1
  0
VERTEX
  8
CAPA_1
 62
   251
 10
-41.7285
 20
1.3456
  0
VERTEX
  8
CAPA_1
 62
   251
 10
-42.3011
 20
0.1715
  0
VERTEX
  8
CAPA_1
 62
   251
 10
-41.127
 20
-0.4011
  0
VERTEX
  8
CAPA_1
 62
   251
 10
-40.5544
 20
0.7729
  0
VERTEX
  8
CAPA_1
 62
   251
 10
-41.7285
 20
1.3456
  0
SEQEND
  8
CAPA_1
 62
   251
  0
POLYLINE
  8
CAPA_1
 62
   251
 66
     1
 70
     1
  0
VERTEX
  8
CAPA_1
 62
   251
 10
-40.9607
 20
2.9197
  0
VERTEX
  8
CAPA_1
 62
   251
 10
-41.5333
 20
1.7457
  0
VERTEX
  8
CAPA_1
 62
   251
 10
-40.3593
 20
1.173
  0
VERTEX
  8
CAPA_1
 62
   251
 10
-39.7867
 20
2.3471
  0
VERTEX
  8
CAPA_1
 62
   251
 10
-40.9607
 20
2.9197
  0
SEQEND
  8
CAPA_1
 62
   251
  0
POLYLINE
  8
CAPA_1
 62
   251
 66
     1
 70
     1
  0
VERTEX
  8
CAPA_1
 62
   251
 10
-42.4962
 20
-0.2285
  0
VERTEX
  8
CAPA_1
 62
   251
 10
-43.0688
 20
-1.4025
  0
VERTEX
  8
CAPA_1
 62
   251
 10
-41.8948
 20
-1.9751
  0
VERTEX
  8
CAPA_1
 62
   251
 10
-41.3222
 20
-0.8011
  0
VERTEX
  8
CAPA_1
 62
   251
 10
-42.4962
 20
-0.2285
  0
SEQEND
  8
CAPA_1
 62
   251
  0
POLYLINE
  8
CAPA_1
 62
   251
 66
     1
 70
     1
  0
VERTEX
  8
CAPA_1
 62
   251
 10
-43.264
 20
-1.8025
  0
VERTEX
  8
CAPA_1
 62
   251
 10
-43.8366
 20
-2.9766
  0
VERTEX
  8
CAPA_1
 62
   251
 10
-42.6625
 20
-3.5492
  0
VERTEX
  8
CAPA_1
 62
   251
 10
-42.0899
 20
-2.3752
  0
VERTEX
  8
CAPA_1
 62
   251
 10
-43.264
 20
-1.8025
  0
SEQEND
  8
CAPA_1
 62
   251
  0
POLYLINE
  8
CAPA_1
 62
   251
 66
     1
 70
     1
  0
VERTEX
  8
CAPA_1
 62
   251
 10
-44.0316
 20
-3.3765
  0
VERTEX
  8
CAPA_1
 62
   251
 10
-44.6042
 20
-4.5506
  0
VERTEX
  8
CAPA_1
 62
   251
 10
-43.4302
 20
-5.1232
  0
VERTEX
  8
CAPA_1
 62
   251
 10
-42.8576
 20
-3.9491
  0
VERTEX
  8
CAPA_1
 62
   251
 10
-44.0316
 20
-3.3765
  0
SEQEND
  8
CAPA_1
 62
   251
  0
POLYLINE
  8
CAPA_1
 62
   251
 66
     1
 70
     1
  0
VERTEX
  8
CAPA_1
 62
   251
 10
-44.7994
 20
-4.9507
  0
VERTEX
  8
CAPA_1
 62
   251
 10
-45.372
 20
-6.1247
  0
VERTEX
  8
CAPA_1
 62
   251
 10
-44.1979
 20
-6.6973
  0
VERTEX
  8
CAPA_1
 62
   251
 10
-43.6253
 20
-5.5233
  0
VERTEX
  8
CAPA_1
 62
   251
 10
-44.7994
 20
-4.9507
  0
SEQEND
  8
CAPA_1
 62
   251
  0
POLYLINE
  8
CAPA_1
 62
   253
 66
     1
 70
     1
  0
VERTEX
  8
CAPA_1
 62
   253
 10
-39.6223
 20
1.1534
  0
VERTEX
  8
CAPA_1
 62
   253
 10
-39.4883
 20
1.1241
  0
VERTEX
  8
CAPA_1
 62
   253
 10
-39.486
 20
0.9807
  0
VERTEX
  8
CAPA_1
 62
   253
 10
-39.4065
 20
0.8655
  0
VERTEX
  8
CAPA_1
 62
   253
 10
-39.2555
 20
0.7835
  0
VERTEX
  8
CAPA_1
 62
   253
 10
-39.1081
 20
0.763
  0
VERTEX
  8
CAPA_1
 62
   253
 10
-38.9972
 20
0.7997
  0
VERTEX
  8
CAPA_1
 62
   253
 10
-38.9391
 20
0.8802
  0
VERTEX
  8
CAPA_1
 62
   253
 10
-38.9406
 20
0.975
  0
VERTEX
  8
CAPA_1
 62
   253
 10
-39.0155
 20
1.0665
  0
VERTEX
  8
CAPA_1
 62
   253
 10
-39.1861
 20
1.1763
  0
VERTEX
  8
CAPA_1
 62
   253
 10
-39.3678
 20
1.3055
  0
VERTEX
  8
CAPA_1
 62
   253
 10
-39.4484
 20
1.4384
  0
VERTEX
  8
CAPA_1
 62
   253
 10
-39.4442
 20
1.5807
  0
VERTEX
  8
CAPA_1
 62
   253
 10
-39.3521
 20
1.715
  0
VERTEX
  8
CAPA_1
 62
   253
 10
-39.1875
 20
1.7784
  0
VERTEX
  8
CAPA_1
 62
   253
 10
-38.984
 20
1.7537
  0
VERTEX
  8
CAPA_1
 62
   253
 10
-38.7904
 20
1.6513
  0
VERTEX
  8
CAPA_1
 62
   253
 10
-38.6883
 20
1.4976
  0
VERTEX
  8
CAPA_1
 62
   253
 10
-38.689
 20
1.3162
  0
VERTEX
  8
CAPA_1
 62
   253
 10
-38.8254
 20
1.348
  0
VERTEX
  8
CAPA_1
 62
   253
 10
-38.8506
 20
1.5207
  0
VERTEX
  8
CAPA_1
 62
   253
 10
-39.0174
 20
1.629
  0
VERTEX
  8
CAPA_1
 62
   253
 10
-39.2154
 20
1.6407
  0
VERTEX
  8
CAPA_1
 62
   253
 10
-39.3081
 20
1.5477
  0
VERTEX
  8
CAPA_1
 62
   253
 10
-39.2967
 20
1.4419
  0
VERTEX
  8
CAPA_1
 62
   253
 10
-39.1111
 20
1.3013
  0
VERTEX
  8
CAPA_1
 62
   253
 10
-38.9001
 20
1.1612
  0
VERTEX
  8
CAPA_1
 62
   253
 10
-38.7989
 20
1.0121
  0
VERTEX
  8
CAPA_1
 62
   253
 10
-38.8022
 20
0.8498
  0
VERTEX
  8
CAPA_1
 62
   253
 10
-38.8997
 20
0.7075
  0
VERTEX
  8
CAPA_1
 62
   253
 10
-39.0733
 20
0.636
  0
VERTEX
  8
CAPA_1
 62
   253
 10
-39.288
 20
0.6586
  0
VERTEX
  8
CAPA_1
 62
   253
 10
-39.5128
 20
0.7751
  0
VERTEX
  8
CAPA_1
 62
   253
 10
-39.624
 20
0.9472
  0
VERTEX
  8
CAPA_1
 62
   253
 10
-39.6223
 20
1.1534
  0
SEQEND
  8
CAPA_1
 62
   253
  0
POLYLINE
  8
CAPA_1
 62
   253
 66
     1
 70
     1
  0
VERTEX
  8
CAPA_1
 62
   253
 10
-38.3804
 20
1.0164
  0
VERTEX
  8
CAPA_1
 62
   253
 10
-38.4728
 20
1.1375
  0
VERTEX
  8
CAPA_1
 62
   253
 10
-38.4703
 20
1.28
  0
VERTEX
  8
CAPA_1
 62
   253
 10
-38.3277
 20
1.4464
  0
VERTEX
  8
CAPA_1
 62
   253
 10
-38.0845
 20
1.4555
  0
VERTEX
  8
CAPA_1
 62
   253
 10
-37.889
 20
1.3062
  0
VERTEX
  8
CAPA_1
 62
   253
 10
-37.8668
 20
1.0857
  0
VERTEX
  8
CAPA_1
 62
   253
 10
-37.9449
 20
0.9709
  0
VERTEX
  8
CAPA_1
 62
   253
 10
-38.0871
 20
0.9239
  0
VERTEX
  8
CAPA_1
 62
   253
 10
-37.9729
 20
0.7764
  0
VERTEX
  8
CAPA_1
 62
   253
 10
-37.9754
 20
0.5933
  0
VERTEX
  8
CAPA_1
 62
   253
 10
-38.1414
 20
0.3976
  0
VERTEX
  8
CAPA_1
 62
   253
 10
-38.4201
 20
0.3849
  0
VERTEX
  8
CAPA_1
 62
   253
 10
-38.6411
 20
0.5555
  0
VERTEX
  8
CAPA_1
 62
   253
 10
-38.6637
 20
0.8145
  0
VERTEX
  8
CAPA_1
 62
   253
 10
-38.5578
 20
0.9691
  0
VERTEX
  8
CAPA_1
 62
   253
 10
-38.3804
 20
1.0164
  0
SEQEND
  8
CAPA_1
 62
   253
  0
POLYLINE
  8
CAPA_1
 62
   253
 66
     1
 70
     1
  0
VERTEX
  8
CAPA_1
 62
   253
 10
-38.337
 20
1.2431
  0
VERTEX
  8
CAPA_1
 62
   253
 10
-38.3281
 20
1.1065
  0
VERTEX
  8
CAPA_1
 62
   253
 10
-38.2184
 20
1.0198
  0
VERTEX
  8
CAPA_1
 62
   253
 10
-38.0817
 20
1.0281
  0
VERTEX
  8
CAPA_1
 62
   253
 10
-37.9983
 20
1.1282
  0
VERTEX
  8
CAPA_1
 62
   253
 10
-38.0092
 20
1.2628
  0
VERTEX
  8
CAPA_1
 62
   253
 10
-38.116
 20
1.3496
  0
VERTEX
  8
CAPA_1
 62
   253
 10
-38.2533
 20
1.3409
  0
VERTEX
  8
CAPA_1
 62
   253
 10
-38.337
 20
1.2431
  0
SEQEND
  8
CAPA_1
 62
   253
  0
POLYLINE
  8
CAPA_1
 62
   253
 66
     1
 70
     1
  0
VERTEX
  8
CAPA_1
 62
   253
 10
-38.5322
 20
0.772
  0
VERTEX
  8
CAPA_1
 62
   253
 10
-38.5403
 20
0.6573
  0
VERTEX
  8
CAPA_1
 62
   253
 10
-38.4877
 20
0.5533
  0
VERTEX
  8
CAPA_1
 62
   253
 10
-38.3859
 20
0.49
  0
VERTEX
  8
CAPA_1
 62
   253
 10
-38.2147
 20
0.5013
  0
VERTEX
  8
CAPA_1
 62
   253
 10
-38.1077
 20
0.6333
  0
VERTEX
  8
CAPA_1
 62
   253
 10
-38.1205
 20
0.8062
  0
VERTEX
  8
CAPA_1
 62
   253
 10
-38.2562
 20
0.9158
  0
VERTEX
  8
CAPA_1
 62
   253
 10
-38.4257
 20
0.9033
  0
VERTEX
  8
CAPA_1
 62
   253
 10
-38.5322
 20
0.772
  0
SEQEND
  8
CAPA_1
 62
   253
  0
POLYLINE
  8
CAPA_1
 62
   253
 66
     1
 70
     1
  0
VERTEX
  8
CAPA_1
 62
   253
 10
-43.4612
 20
-6.5315
  0
VERTEX
  8
CAPA_1
 62
   253
 10
-43.333
 20
-6.5803
  0
VERTEX
  8
CAPA_1
 62
   253
 10
-43.352
 20
-6.7225
  0
VERTEX
  8
CAPA_1
 62
   253
 10
-43.2903
 20
-6.8482
  0
VERTEX
  8
CAPA_1
 62
   253
 10
-43.1532
 20
-6.9516
  0
VERTEX
  8
CAPA_1
 62
   253
 10
-43.0104
 20
-6.9936
  0
VERTEX
  8
CAPA_1
 62
   253
 10
-42.8953
 20
-6.9738
  0
VERTEX
  8
CAPA_1
 62
   253
 10
-42.826
 20
-6.9028
  0
VERTEX
  8
CAPA_1
 62
   253
 10
-42.8134
 20
-6.8088
  0
VERTEX
  8
CAPA_1
 62
   253
 10
-42.874
 20
-6.7072
  0
VERTEX
  8
CAPA_1
 62
   253
 10
-43.0264
 20
-6.5733
  0
VERTEX
  8
CAPA_1
 62
   253
 10
-43.187
 20
-6.4187
  0
VERTEX
  8
CAPA_1
 62
   253
 10
-43.2471
 20
-6.2753
  0
VERTEX
  8
CAPA_1
 62
   253
 10
-43.2219
 20
-6.1353
  0
VERTEX
  8
CAPA_1
 62
   253
 10
-43.111
 20
-6.0161
  0
VERTEX
  8
CAPA_1
 62
   253
 10
-42.9388
 20
-5.9777
  0
VERTEX
  8
CAPA_1
 62
   253
 10
-42.7413
 20
-6.0322
  0
VERTEX
  8
CAPA_1
 62
   253
 10
-42.5649
 20
-6.162
  0
VERTEX
  8
CAPA_1
 62
   253
 10
-42.4867
 20
-6.3292
  0
VERTEX
  8
CAPA_1
 62
   253
 10
-42.5141
 20
-6.5085
  0
VERTEX
  8
CAPA_1
 62
   253
 10
-42.6443
 20
-6.4569
  0
VERTEX
  8
CAPA_1
 62
   253
 10
-42.6438
 20
-6.2824
  0
VERTEX
  8
CAPA_1
 62
   253
 10
-42.7926
 20
-6.1505
  0
VERTEX
  8
CAPA_1
 62
   253
 10
-42.9868
 20
-6.1097
  0
VERTEX
  8
CAPA_1
 62
   253
 10
-43.0922
 20
-6.188
  0
VERTEX
  8
CAPA_1
 62
   253
 10
-43.0965
 20
-6.2944
  0
VERTEX
  8
CAPA_1
 62
   253
 10
-42.9338
 20
-6.4609
  0
VERTEX
  8
CAPA_1
 62
   253
 10
-42.7458
 20
-6.6306
  0
VERTEX
  8
CAPA_1
 62
   253
 10
-42.6677
 20
-6.793
  0
VERTEX
  8
CAPA_1
 62
   253
 10
-42.6951
 20
-6.953
  0
VERTEX
  8
CAPA_1
 62
   253
 10
-42.8125
 20
-7.0793
  0
VERTEX
  8
CAPA_1
 62
   253
 10
-42.9947
 20
-7.1244
  0
VERTEX
  8
CAPA_1
 62
   253
 10
-43.2037
 20
-7.0703
  0
VERTEX
  8
CAPA_1
 62
   253
 10
-43.4088
 20
-6.9219
  0
VERTEX
  8
CAPA_1
 62
   253
 10
-43.4934
 20
-6.7352
  0
VERTEX
  8
CAPA_1
 62
   253
 10
-43.4612
 20
-6.5315
  0
SEQEND
  8
CAPA_1
 62
   253
  0
POLYLINE
  8
CAPA_1
 62
   253
 66
     1
 70
     1
  0
VERTEX
  8
CAPA_1
 62
   253
 10
-42.5734
 20
-7.0328
  0
VERTEX
  8
CAPA_1
 62
   253
 10
-42.444
 20
-7.0755
  0
VERTEX
  8
CAPA_1
 62
   253
 10
-42.4458
 20
-7.2589
  0
VERTEX
  8
CAPA_1
 62
   253
 10
-42.3453
 20
-7.3644
  0
VERTEX
  8
CAPA_1
 62
   253
 10
-42.1712
 20
-7.3759
  0
VERTEX
  8
CAPA_1
 62
   253
 10
-42.0409
 20
-7.2575
  0
VERTEX
  8
CAPA_1
 62
   253
 10
-42.0284
 20
-7.0928
  0
VERTEX
  8
CAPA_1
 62
   253
 10
-42.1407
 20
-6.9708
  0
VERTEX
  8
CAPA_1
 62
   253
 10
-42.2331
 20
-6.9426
  0
VERTEX
  8
CAPA_1
 62
   253
 10
-42.1677
 20
-6.843
  0
VERTEX
  8
CAPA_1
 62
   253
 10
-42.1489
 20
-6.8539
  0
VERTEX
  8
CAPA_1
 62
   253
 10
-41.9892
 20
-6.8818
  0
VERTEX
  8
CAPA_1
 62
   253
 10
-41.8665
 20
-6.7878
  0
VERTEX
  8
CAPA_1
 62
   253
 10
-41.8579
 20
-6.6554
  0
VERTEX
  8
CAPA_1
 62
   253
 10
-41.9532
 20
-6.5548
  0
VERTEX
  8
CAPA_1
 62
   253
 10
-42.0933
 20
-6.542
  0
VERTEX
  8
CAPA_1
 62
   253
 10
-42.2196
 20
-6.647
  0
VERTEX
  8
CAPA_1
 62
   253
 10
-42.3302
 20
-6.5657
  0
VERTEX
  8
CAPA_1
 62
   253
 10
-42.1367
 20
-6.4255
  0
VERTEX
  8
CAPA_1
 62
   253
 10
-41.9077
 20
-6.4541
  0
VERTEX
  8
CAPA_1
 62
   253
 10
-41.7759
 20
-6.5613
  0
VERTEX
  8
CAPA_1
 62
   253
 10
-41.7178
 20
-6.7064
  0
VERTEX
  8
CAPA_1
 62
   253
 10
-41.7437
 20
-6.8512
  0
VERTEX
  8
CAPA_1
 62
   253
 10
-41.8346
 20
-6.9506
  0
VERTEX
  8
CAPA_1
 62
   253
 10
-41.9771
 20
-6.9843
  0
VERTEX
  8
CAPA_1
 62
   253
 10
-41.882
 20
-7.1346
  0
VERTEX
  8
CAPA_1
 62
   253
 10
-41.9114
 20
-7.3175
  0
VERTEX
  8
CAPA_1
 62
   253
 10
-42.1128
 20
-7.4911
  0
VERTEX
  8
CAPA_1
 62
   253
 10
-42.3953
 20
-7.4646
  0
VERTEX
  8
CAPA_1
 62
   253
 10
-42.5733
 20
-7.2817
  0
VERTEX
  8
CAPA_1
 62
   253
 10
-42.5734
 20
-7.0328
  0
SEQEND
  8
CAPA_1
 62
   253
  0
POLYLINE
  8
CAPA_1
 62
   253
 66
     1
 70
     1
  0
VERTEX
  8
CAPA_1
 62
   253
 10
-40.3347
 20
-0.2405
  0
VERTEX
  8
CAPA_1
 62
   253
 10
-40.2065
 20
-0.2894
  0
VERTEX
  8
CAPA_1
 62
   253
 10
-40.2255
 20
-0.4315
  0
VERTEX
  8
CAPA_1
 62
   253
 10
-40.1638
 20
-0.5572
  0
VERTEX
  8
CAPA_1
 62
   253
 10
-40.0267
 20
-0.6606
  0
VERTEX
  8
CAPA_1
 62
   253
 10
-39.8838
 20
-0.7026
  0
VERTEX
  8
CAPA_1
 62
   253
 10
-39.7688
 20
-0.6828
  0
VERTEX
  8
CAPA_1
 62
   253
 10
-39.6994
 20
-0.6118
  0
VERTEX
  8
CAPA_1
 62
   253
 10
-39.6869
 20
-0.5178
  0
VERTEX
  8
CAPA_1
 62
   253
 10
-39.7475
 20
-0.4162
  0
VERTEX
  8
CAPA_1
 62
   253
 10
-39.8999
 20
-0.2824
  0
VERTEX
  8
CAPA_1
 62
   253
 10
-40.0605
 20
-0.1277
  0
VERTEX
  8
CAPA_1
 62
   253
 10
-40.1206
 20
0.0156
  0
VERTEX
  8
CAPA_1
 62
   253
 10
-40.0954
 20
0.1557
  0
VERTEX
  8
CAPA_1
 62
   253
 10
-39.9845
 20
0.2749
  0
VERTEX
  8
CAPA_1
 62
   253
 10
-39.8123
 20
0.3133
  0
VERTEX
  8
CAPA_1
 62
   253
 10
-39.6147
 20
0.2588
  0
VERTEX
  8
CAPA_1
 62
   253
 10
-39.4384
 20
0.129
  0
VERTEX
  8
CAPA_1
 62
   253
 10
-39.3602
 20
-0.0382
  0
VERTEX
  8
CAPA_1
 62
   253
 10
-39.3876
 20
-0.2175
  0
VERTEX
  8
CAPA_1
 62
   253
 10
-39.5178
 20
-0.1659
  0
VERTEX
  8
CAPA_1
 62
   253
 10
-39.5172
 20
0.0086
  0
VERTEX
  8
CAPA_1
 62
   253
 10
-39.6661
 20
0.1404
  0
VERTEX
  8
CAPA_1
 62
   253
 10
-39.8603
 20
0.1813
  0
VERTEX
  8
CAPA_1
 62
   253
 10
-39.9657
 20
0.103
  0
VERTEX
  8
CAPA_1
 62
   253
 10
-39.97
 20
-0.0034
  0
VERTEX
  8
CAPA_1
 62
   253
 10
-39.8072
 20
-0.1699
  0
VERTEX
  8
CAPA_1
 62
   253
 10
-39.6193
 20
-0.3396
  0
VERTEX
  8
CAPA_1
 62
   253
 10
-39.5412
 20
-0.502
  0
VERTEX
  8
CAPA_1
 62
   253
 10
-39.5685
 20
-0.6621
  0
VERTEX
  8
CAPA_1
 62
   253
 10
-39.686
 20
-0.7884
  0
VERTEX
  8
CAPA_1
 62
   253
 10
-39.8682
 20
-0.8334
  0
VERTEX
  8
CAPA_1
 62
   253
 10
-40.0772
 20
-0.7793
  0
VERTEX
  8
CAPA_1
 62
   253
 10
-40.2823
 20
-0.6309
  0
VERTEX
  8
CAPA_1
 62
   253
 10
-40.3669
 20
-0.4443
  0
VERTEX
  8
CAPA_1
 62
   253
 10
-40.3347
 20
-0.2405
  0
SEQEND
  8
CAPA_1
 62
   253
  0
POLYLINE
  8
CAPA_1
 62
   253
 66
     1
 70
     1
  0
VERTEX
  8
CAPA_1
 62
   253
 10
-39.4451
 20
-0.7836
  0
VERTEX
  8
CAPA_1
 62
   253
 10
-39.3245
 20
-0.8306
  0
VERTEX
  8
CAPA_1
 62
   253
 10
-39.3259
 20
-0.977
  0
VERTEX
  8
CAPA_1
 62
   253
 10
-39.2368
 20
-1.0663
  0
VERTEX
  8
CAPA_1
 62
   253
 10
-39.1262
 20
-1.0884
  0
VERTEX
  8
CAPA_1
 62
   253
 10
-39.0237
 20
-1.0535
  0
VERTEX
  8
CAPA_1
 62
   253
 10
-38.9224
 20
-0.9597
  0
VERTEX
  8
CAPA_1
 62
   253
 10
-38.8319
 20
-0.8203
  0
VERTEX
  8
CAPA_1
 62
   253
 10
-38.8208
 20
-0.7956
  0
VERTEX
  8
CAPA_1
 62
   253
 10
-38.9658
 20
-0.8413
  0
VERTEX
  8
CAPA_1
 62
   253
 10
-39.1195
 20
-0.811
  0
VERTEX
  8
CAPA_1
 62
   253
 10
-39.2832
 20
-0.621
  0
VERTEX
  8
CAPA_1
 62
   253
 10
-39.2535
 20
-0.3454
  0
VERTEX
  8
CAPA_1
 62
   253
 10
-39.2131
 20
-0.2766
  0
VERTEX
  8
CAPA_1
 62
   253
 10
-39.1653
 20
-0.2206
  0
VERTEX
  8
CAPA_1
 62
   253
 10
-39.1099
 20
-0.1773
  0
VERTEX
  8
CAPA_1
 62
   253
 10
-39.047
 20
-0.1467
  0
VERTEX
  8
CAPA_1
 62
   253
 10
-38.7808
 20
-0.1633
  0
VERTEX
  8
CAPA_1
 62
   253
 10
-38.6302
 20
-0.3011
  0
VERTEX
  8
CAPA_1
 62
   253
 10
-38.5814
 20
-0.5079
  0
VERTEX
  8
CAPA_1
 62
   253
 10
-38.6755
 20
-0.8058
  0
VERTEX
  8
CAPA_1
 62
   253
 10
-38.8635
 20
-1.0873
  0
VERTEX
  8
CAPA_1
 62
   253
 10
-39.0691
 20
-1.1985
  0
VERTEX
  8
CAPA_1
 62
   253
 10
-39.2876
 20
-1.1644
  0
VERTEX
  8
CAPA_1
 62
   253
 10
-39.4454
 20
-1.0078
  0
VERTEX
  8
CAPA_1
 62
   253
 10
-39.4451
 20
-0.7836
  0
SEQEND
  8
CAPA_1
 62
   253
  0
POLYLINE
  8
CAPA_1
 62
   253
 66
     1
 70
     1
  0
VERTEX
  8
CAPA_1
 62
   253
 10
-38.7374
 20
-0.5895
  0
VERTEX
  8
CAPA_1
 62
   253
 10
-38.7119
 20
-0.3973
  0
VERTEX
  8
CAPA_1
 62
   253
 10
-38.8157
 20
-0.271
  0
VERTEX
  8
CAPA_1
 62
   253
 10
-38.9884
 20
-0.2681
  0
VERTEX
  8
CAPA_1
 62
   253
 10
-39.1313
 20
-0.4099
  0
VERTEX
  8
CAPA_1
 62
   253
 10
-39.1495
 20
-0.5903
  0
VERTEX
  8
CAPA_1
 62
   253
 10
-39.0378
 20
-0.7176
  0
VERTEX
  8
CAPA_1
 62
   253
 10
-38.8709
 20
-0.7262
  0
VERTEX
  8
CAPA_1
 62
   253
 10
-38.7374
 20
-0.5895
  0
SEQEND
  8
CAPA_1
 62
   253
  0
POLYLINE
  8
CAPA_1
 62
   253
 66
     1
 70
     1
  0
VERTEX
  8
CAPA_1
 62
   253
 10
-40.6723
 20
-2.453
  0
VERTEX
  8
CAPA_1
 62
   253
 10
-40.5722
 20
-1.279
  0
VERTEX
  8
CAPA_1
 62
   253
 10
-40.4306
 20
-1.3481
  0
VERTEX
  8
CAPA_1
 62
   253
 10
-40.5241
 20
-2.1911
  0
VERTEX
  8
CAPA_1
 62
   253
 10
-40.5512
 20
-2.378
  0
VERTEX
  8
CAPA_1
 62
   253
 10
-40.4193
 20
-2.2423
  0
VERTEX
  8
CAPA_1
 62
   253
 10
-39.8029
 20
-1.6542
  0
VERTEX
  8
CAPA_1
 62
   253
 10
-39.6695
 20
-1.7193
  0
VERTEX
  8
CAPA_1
 62
   253
 10
-40.5364
 20
-2.5192
  0
VERTEX
  8
CAPA_1
 62
   253
 10
-40.6723
 20
-2.453
  0
SEQEND
  8
CAPA_1
 62
   253
  0
POLYLINE
  8
CAPA_1
 62
   253
 66
     1
 70
     1
  0
VERTEX
  8
CAPA_1
 62
   253
 10
-39.4533
 20
-2.7231
  0
VERTEX
  8
CAPA_1
 62
   253
 10
-39.3427
 20
-2.7975
  0
VERTEX
  8
CAPA_1
 62
   253
 10
-39.5359
 20
-2.9404
  0
VERTEX
  8
CAPA_1
 62
   253
 10
-39.7671
 20
-2.9133
  0
VERTEX
  8
CAPA_1
 62
   253
 10
-39.8339
 20
-2.8733
  0
VERTEX
  8
CAPA_1
 62
   253
 10
-39.8877
 20
-2.8248
  0
VERTEX
  8
CAPA_1
 62
   253
 10
-39.9283
 20
-2.7678
  0
VERTEX
  8
CAPA_1
 62
   253
 10
-39.956
 20
-2.7024
  0
VERTEX
  8
CAPA_1
 62
   253
 10
-39.9692
 20
-2.6302
  0
VERTEX
  8
CAPA_1
 62
   253
 10
-39.9661
 20
-2.5532
  0
VERTEX
  8
CAPA_1
 62
   253
 10
-39.9468
 20
-2.4713
  0
VERTEX
  8
CAPA_1
 62
   253
 10
-39.9113
 20
-2.3844
  0
VERTEX
  8
CAPA_1
 62
   253
 10
-39.7742
 20
-2.2005
  0
VERTEX
  8
CAPA_1
 62
   253
 10
-39.594
 20
-2.1276
  0
VERTEX
  8
CAPA_1
 62
   253
 10
-39.4022
 20
-2.1673
  0
VERTEX
  8
CAPA_1
 62
   253
 10
-39.2405
 20
-2.3191
  0
VERTEX
  8
CAPA_1
 62
   253
 10
-39.2271
 20
-2.5327
  0
VERTEX
  8
CAPA_1
 62
   253
 10
-39.3532
 20
-2.4935
  0
VERTEX
  8
CAPA_1
 62
   253
 10
-39.36
 20
-2.3558
  0
VERTEX
  8
CAPA_1
 62
   253
 10
-39.4458
 20
-2.269
  0
VERTEX
  8
CAPA_1
 62
   253
 10
-39.627
 20
-2.2617
  0
VERTEX
  8
CAPA_1
 62
   253
 10
-39.7855
 20
-2.4414
  0
VERTEX
  8
CAPA_1
 62
   253
 10
-39.8324
 20
-2.6776
  0
VERTEX
  8
CAPA_1
 62
   253
 10
-39.7201
 20
-2.8132
  0
VERTEX
  8
CAPA_1
 62
   253
 10
-39.5794
 20
-2.8278
  0
VERTEX
  8
CAPA_1
 62
   253
 10
-39.4533
 20
-2.7231
  0
SEQEND
  8
CAPA_1
 62
   253
  0
POLYLINE
  8
CAPA_1
 62
   253
 66
     1
 70
     1
  0
VERTEX
  8
CAPA_1
 62
   253
 10
-38.7635
 20
-3.0596
  0
VERTEX
  8
CAPA_1
 62
   253
 10
-38.6529
 20
-3.134
  0
VERTEX
  8
CAPA_1
 62
   253
 10
-38.8461
 20
-3.2769
  0
VERTEX
  8
CAPA_1
 62
   253
 10
-39.0773
 20
-3.2498
  0
VERTEX
  8
CAPA_1
 62
   253
 10
-39.1441
 20
-3.2098
  0
VERTEX
  8
CAPA_1
 62
   253
 10
-39.1979
 20
-3.1613
  0
VERTEX
  8
CAPA_1
 62
   253
 10
-39.2385
 20
-3.1043
  0
VERTEX
  8
CAPA_1
 62
   253
 10
-39.2662
 20
-3.0389
  0
VERTEX
  8
CAPA_1
 62
   253
 10
-39.2794
 20
-2.9667
  0
VERTEX
  8
CAPA_1
 62
   253
 10
-39.2763
 20
-2.8897
  0
VERTEX
  8
CAPA_1
 62
   253
 10
-39.257
 20
-2.8078
  0
VERTEX
  8
CAPA_1
 62
   253
 10
-39.2215
 20
-2.7209
  0
VERTEX
  8
CAPA_1
 62
   253
 10
-39.0844
 20
-2.537
  0
VERTEX
  8
CAPA_1
 62
   253
 10
-38.9042
 20
-2.4641
  0
VERTEX
  8
CAPA_1
 62
   253
 10
-38.7124
 20
-2.5038
  0
VERTEX
  8
CAPA_1
 62
   253
 10
-38.5507
 20
-2.6556
  0
VERTEX
  8
CAPA_1
 62
   253
 10
-38.5373
 20
-2.8692
  0
VERTEX
  8
CAPA_1
 62
   253
 10
-38.6634
 20
-2.83
  0
VERTEX
  8
CAPA_1
 62
   253
 10
-38.6702
 20
-2.6923
  0
VERTEX
  8
CAPA_1
 62
   253
 10
-38.756
 20
-2.6055
  0
VERTEX
  8
CAPA_1
 62
   253
 10
-38.9372
 20
-2.5982
  0
VERTEX
  8
CAPA_1
 62
   253
 10
-39.0957
 20
-2.7779
  0
VERTEX
  8
CAPA_1
 62
   253
 10
-39.1426
 20
-3.0141
  0
VERTEX
  8
CAPA_1
 62
   253
 10
-39.0303
 20
-3.1497
  0
VERTEX
  8
CAPA_1
 62
   253
 10
-38.8896
 20
-3.1643
  0
VERTEX
  8
CAPA_1
 62
   253
 10
-38.7635
 20
-3.0596
  0
SEQEND
  8
CAPA_1
 62
   253
  0
POLYLINE
  8
CAPA_1
 62
   253
 66
     1
 70
     1
  0
VERTEX
  8
CAPA_1
 62
   253
 10
-38.5727
 20
-3.1098
  0
VERTEX
  8
CAPA_1
 62
   253
 10
-38.5135
 20
-2.9884
  0
VERTEX
  8
CAPA_1
 62
   253
 10
-38.1383
 20
-3.1714
  0
VERTEX
  8
CAPA_1
 62
   253
 10
-38.1975
 20
-3.2929
  0
VERTEX
  8
CAPA_1
 62
   253
 10
-38.5727
 20
-3.1098
  0
SEQEND
  8
CAPA_1
 62
   253
  0
POLYLINE
  8
CAPA_1
 62
   253
 66
     1
 70
     1
  0
VERTEX
  8
CAPA_1
 62
   253
 10
-37.2484
 20
-3.1991
  0
VERTEX
  8
CAPA_1
 62
   253
 10
-37.3731
 20
-3.1503
  0
VERTEX
  8
CAPA_1
 62
   253
 10
-37.3686
 20
-3.0237
  0
VERTEX
  8
CAPA_1
 62
   253
 10
-37.4651
 20
-2.9123
  0
VERTEX
  8
CAPA_1
 62
   253
 10
-37.5839
 20
-2.8945
  0
VERTEX
  8
CAPA_1
 62
   253
 10
-37.7337
 20
-2.9721
  0
VERTEX
  8
CAPA_1
 62
   253
 10
-37.8794
 20
-3.1836
  0
VERTEX
  8
CAPA_1
 62
   253
 10
-37.7239
 20
-3.137
  0
VERTEX
  8
CAPA_1
 62
   253
 10
-37.5752
 20
-3.1695
  0
VERTEX
  8
CAPA_1
 62
   253
 10
-37.4119
 20
-3.3599
  0
VERTEX
  8
CAPA_1
 62
   253
 10
-37.4392
 20
-3.6323
  0
VERTEX
  8
CAPA_1
 62
   253
 10
-37.5635
 20
-3.7857
  0
VERTEX
  8
CAPA_1
 62
   253
 10
-37.7336
 20
-3.8542
  0
VERTEX
  8
CAPA_1
 62
   253
 10
-37.9134
 20
-3.8191
  0
VERTEX
  8
CAPA_1
 62
   253
 10
-37.9822
 20
-3.7769
  0
VERTEX
  8
CAPA_1
 62
   253
 10
-38.0374
 20
-3.7241
  0
VERTEX
  8
CAPA_1
 62
   253
 10
-38.0787
 20
-3.6608
  0
VERTEX
  8
CAPA_1
 62
   253
 10
-38.1064
 20
-3.5869
  0
VERTEX
  8
CAPA_1
 62
   253
 10
-38.1166
 20
-3.5018
  0
VERTEX
  8
CAPA_1
 62
   253
 10
-38.1061
 20
-3.4044
  0
VERTEX
  8
CAPA_1
 62
   253
 10
-38.0749
 20
-3.2948
  0
VERTEX
  8
CAPA_1
 62
   253
 10
-38.0229
 20
-3.1729
  0
VERTEX
  8
CAPA_1
 62
   253
 10
-37.9512
 20
-3.0427
  0
VERTEX
  8
CAPA_1
 62
   253
 10
-37.8757
 20
-2.9385
  0
VERTEX
  8
CAPA_1
 62
   253
 10
-37.7966
 20
-2.8604
  0
VERTEX
  8
CAPA_1
 62
   253
 10
-37.7137
 20
-2.8082
  0
VERTEX
  8
CAPA_1
 62
   253
 10
-37.6394
 20
-2.7832
  0
VERTEX
  8
CAPA_1
 62
   253
 10
-37.5639
 20
-2.7763
  0
VERTEX
  8
CAPA_1
 62
   253
 10
-37.4872
 20
-2.7874
  0
VERTEX
  8
CAPA_1
 62
   253
 10
-37.4093
 20
-2.8166
  0
VERTEX
  8
CAPA_1
 62
   253
 10
-37.2499
 20
-2.9752
  0
VERTEX
  8
CAPA_1
 62
   253
 10
-37.2484
 20
-3.1991
  0
SEQEND
  8
CAPA_1
 62
   253
  0
POLYLINE
  8
CAPA_1
 62
   253
 66
     1
 70
     1
  0
VERTEX
  8
CAPA_1
 62
   253
 10
-37.9529
 20
-3.3832
  0
VERTEX
  8
CAPA_1
 62
   253
 10
-37.9848
 20
-3.5161
  0
VERTEX
  8
CAPA_1
 62
   253
 10
-37.9533
 20
-3.6394
  0
VERTEX
  8
CAPA_1
 62
   253
 10
-37.867
 20
-3.7188
  0
VERTEX
  8
CAPA_1
 62
   253
 10
-37.7042
 20
-3.7213
  0
VERTEX
  8
CAPA_1
 62
   253
 10
-37.5671
 20
-3.5795
  0
VERTEX
  8
CAPA_1
 62
   253
 10
-37.5427
 20
-3.3916
  0
VERTEX
  8
CAPA_1
 62
   253
 10
-37.6518
 20
-3.2653
  0
VERTEX
  8
CAPA_1
 62
   253
 10
-37.8202
 20
-3.2563
  0
VERTEX
  8
CAPA_1
 62
   253
 10
-37.9529
 20
-3.3832
  0
SEQEND
  8
CAPA_1
 62
   253
  0
POLYLINE
  8
CAPA_1
 62
   253
 66
     1
 70
     1
  0
VERTEX
  8
CAPA_1
 62
   253
 10
-37.1458
 20
-4.173
  0
VERTEX
  8
CAPA_1
 62
   253
 10
-37.0457
 20
-2.999
  0
VERTEX
  8
CAPA_1
 62
   253
 10
-36.9041
 20
-3.0681
  0
VERTEX
  8
CAPA_1
 62
   253
 10
-36.9976
 20
-3.9111
  0
VERTEX
  8
CAPA_1
 62
   253
 10
-37.0247
 20
-4.098
  0
VERTEX
  8
CAPA_1
 62
   253
 10
-36.8928
 20
-3.9623
  0
VERTEX
  8
CAPA_1
 62
   253
 10
-36.2764
 20
-3.3742
  0
VERTEX
  8
CAPA_1
 62
   253
 10
-36.143
 20
-3.4393
  0
VERTEX
  8
CAPA_1
 62
   253
 10
-37.0099
 20
-4.2392
  0
VERTEX
  8
CAPA_1
 62
   253
 10
-37.1458
 20
-4.173
  0
SEQEND
  8
CAPA_1
 62
   253
  0
POLYLINE
  8
CAPA_1
 62
   253
 66
     1
 70
     1
  0
VERTEX
  8
CAPA_1
 62
   253
 10
-41.6964
 20
-3.9415
  0
VERTEX
  8
CAPA_1
 62
   253
 10
-41.2146
 20
-2.9537
  0
VERTEX
  8
CAPA_1
 62
   253
 10
-41.0187
 20
-3.0493
  0
VERTEX
  8
CAPA_1
 62
   253
 10
-41.1262
 20
-3.8625
  0
VERTEX
  8
CAPA_1
 62
   253
 10
-41.1503
 20
-4.0316
  0
VERTEX
  8
CAPA_1
 62
   253
 10
-41.0202
 20
-3.899
  0
VERTEX
  8
CAPA_1
 62
   253
 10
-40.4473
 20
-3.3279
  0
VERTEX
  8
CAPA_1
 62
   253
 10
-40.2723
 20
-3.4133
  0
VERTEX
  8
CAPA_1
 62
   253
 10
-40.7541
 20
-4.4011
  0
VERTEX
  8
CAPA_1
 62
   253
 10
-40.8797
 20
-4.3398
  0
VERTEX
  8
CAPA_1
 62
   253
 10
-40.4766
 20
-3.5135
  0
VERTEX
  8
CAPA_1
 62
   253
 10
-41.168
 20
-4.1992
  0
VERTEX
  8
CAPA_1
 62
   253
 10
-41.2857
 20
-4.1418
  0
VERTEX
  8
CAPA_1
 62
   253
 10
-41.1604
 20
-3.1612
  0
VERTEX
  8
CAPA_1
 62
   253
 10
-41.5708
 20
-4.0027
  0
VERTEX
  8
CAPA_1
 62
   253
 10
-41.6964
 20
-3.9415
  0
SEQEND
  8
CAPA_1
 62
   253
  0
POLYLINE
  8
CAPA_1
 62
   253
 66
     1
 70
     1
  0
VERTEX
  8
CAPA_1
 62
   253
 10
-40.4305
 20
-4.1158
  0
VERTEX
  8
CAPA_1
 62
   253
 10
-40.3784
 20
-4.0264
  0
VERTEX
  8
CAPA_1
 62
   253
 10
-40.3187
 20
-3.9566
  0
VERTEX
  8
CAPA_1
 62
   253
 10
-40.2515
 20
-3.9064
  0
VERTEX
  8
CAPA_1
 62
   253
 10
-40.1766
 20
-3.8759
  0
VERTEX
  8
CAPA_1
 62
   253
 10
-39.9129
 20
-3.9063
  0
VERTEX
  8
CAPA_1
 62
   253
 10
-39.8455
 20
-3.9466
  0
VERTEX
  8
CAPA_1
 62
   253
 10
-39.7906
 20
-3.9958
  0
VERTEX
  8
CAPA_1
 62
   253
 10
-39.7484
 20
-4.0537
  0
VERTEX
  8
CAPA_1
 62
   253
 10
-39.7187
 20
-4.1205
  0
VERTEX
  8
CAPA_1
 62
   253
 10
-39.7035
 20
-4.1932
  0
VERTEX
  8
CAPA_1
 62
   253
 10
-39.7045
 20
-4.2695
  0
VERTEX
  8
CAPA_1
 62
   253
 10
-39.7217
 20
-4.3493
  0
VERTEX
  8
CAPA_1
 62
   253
 10
-39.7551
 20
-4.4326
  0
VERTEX
  8
CAPA_1
 62
   253
 10
-39.9022
 20
-4.6293
  0
VERTEX
  8
CAPA_1
 62
   253
 10
-40.0828
 20
-4.6932
  0
VERTEX
  8
CAPA_1
 62
   253
 10
-40.2769
 20
-4.6526
  0
VERTEX
  8
CAPA_1
 62
   253
 10
-40.3455
 20
-4.6117
  0
VERTEX
  8
CAPA_1
 62
   253
 10
-40.4011
 20
-4.5623
  0
VERTEX
  8
CAPA_1
 62
   253
 10
-40.4436
 20
-4.5044
  0
VERTEX
  8
CAPA_1
 62
   253
 10
-40.4731
 20
-4.438
  0
VERTEX
  8
CAPA_1
 62
   253
 10
-40.4876
 20
-4.3648
  0
VERTEX
  8
CAPA_1
 62
   253
 10
-40.4853
 20
-4.2867
  0
VERTEX
  8
CAPA_1
 62
   253
 10
-40.4662
 20
-4.2037
  0
VERTEX
  8
CAPA_1
 62
   253
 10
-40.4305
 20
-4.1158
  0
SEQEND
  8
CAPA_1
 62
   253
  0
POLYLINE
  8
CAPA_1
 62
   253
 66
     1
 70
     1
  0
VERTEX
  8
CAPA_1
 62
   253
 10
-40.3064
 20
-4.1765
  0
VERTEX
  8
CAPA_1
 62
   253
 10
-40.3466
 20
-4.4111
  0
VERTEX
  8
CAPA_1
 62
   253
 10
-40.2284
 20
-4.5533
  0
VERTEX
  8
CAPA_1
 62
   253
 10
-40.0444
 20
-4.5582
  0
VERTEX
  8
CAPA_1
 62
   253
 10
-39.8824
 20
-4.3785
  0
VERTEX
  8
CAPA_1
 62
   253
 10
-39.8451
 20
-4.1485
  0
VERTEX
  8
CAPA_1
 62
   253
 10
-39.962
 20
-4.007
  0
VERTEX
  8
CAPA_1
 62
   253
 10
-40.1465
 20
-4.0009
  0
VERTEX
  8
CAPA_1
 62
   253
 10
-40.3064
 20
-4.1765
  0
SEQEND
  8
CAPA_1
 62
   253
  0
POLYLINE
  8
CAPA_1
 62
   253
 66
     1
 70
     1
  0
VERTEX
  8
CAPA_1
 62
   253
 10
-39.476
 20
-4.8904
  0
VERTEX
  8
CAPA_1
 62
   253
 10
-39.5117
 20
-5.0056
  0
VERTEX
  8
CAPA_1
 62
   253
 10
-39.6083
 20
-4.9718
  0
VERTEX
  8
CAPA_1
 62
   253
 10
-39.7004
 20
-4.9011
  0
VERTEX
  8
CAPA_1
 62
   253
 10
-39.7246
 20
-4.8212
  0
VERTEX
  8
CAPA_1
 62
   253
 10
-39.6694
 20
-4.6705
  0
VERTEX
  8
CAPA_1
 62
   253
 10
-39.4682
 20
-4.2581
  0
VERTEX
  8
CAPA_1
 62
   253
 10
-39.5578
 20
-4.2144
  0
VERTEX
  8
CAPA_1
 62
   253
 10
-39.512
 20
-4.1205
  0
VERTEX
  8
CAPA_1
 62
   253
 10
-39.4224
 20
-4.1642
  0
VERTEX
  8
CAPA_1
 62
   253
 10
-39.3361
 20
-3.9872
  0
VERTEX
  8
CAPA_1
 62
   253
 10
-39.1791
 20
-3.9735
  0
VERTEX
  8
CAPA_1
 62
   253
 10
-39.301
 20
-4.2235
  0
VERTEX
  8
CAPA_1
 62
   253
 10
-39.1796
 20
-4.2827
  0
VERTEX
  8
CAPA_1
 62
   253
 10
-39.2253
 20
-4.3765
  0
VERTEX
  8
CAPA_1
 62
   253
 10
-39.3468
 20
-4.3173
  0
VERTEX
  8
CAPA_1
 62
   253
 10
-39.5513
 20
-4.7367
  0
VERTEX
  8
CAPA_1
 62
   253
 10
-39.5775
 20
-4.8067
  0
VERTEX
  8
CAPA_1
 62
   253
 10
-39.5684
 20
-4.8405
  0
VERTEX
  8
CAPA_1
 62
   253
 10
-39.5313
 20
-4.8694
  0
VERTEX
  8
CAPA_1
 62
   253
 10
-39.476
 20
-4.8904
  0
SEQEND
  8
CAPA_1
 62
   253
  0
POLYLINE
  8
CAPA_1
 62
   253
 66
     1
 70
     1
  0
VERTEX
  8
CAPA_1
 62
   253
 10
-39.28
 20
-4.677
  0
VERTEX
  8
CAPA_1
 62
   253
 10
-39.2279
 20
-4.5876
  0
VERTEX
  8
CAPA_1
 62
   253
 10
-39.1682
 20
-4.5178
  0
VERTEX
  8
CAPA_1
 62
   253
 10
-39.101
 20
-4.4676
  0
VERTEX
  8
CAPA_1
 62
   253
 10
-39.0261
 20
-4.4371
  0
VERTEX
  8
CAPA_1
 62
   253
 10
-38.7624
 20
-4.4675
  0
VERTEX
  8
CAPA_1
 62
   253
 10
-38.695
 20
-4.5078
  0
VERTEX
  8
CAPA_1
 62
   253
 10
-38.6401
 20
-4.557
  0
VERTEX
  8
CAPA_1
 62
   253
 10
-38.5979
 20
-4.6149
  0
VERTEX
  8
CAPA_1
 62
   253
 10
-38.5682
 20
-4.6817
  0
VERTEX
  8
CAPA_1
 62
   253
 10
-38.553
 20
-4.7544
  0
VERTEX
  8
CAPA_1
 62
   253
 10
-38.554
 20
-4.8307
  0
VERTEX
  8
CAPA_1
 62
   253
 10
-38.5712
 20
-4.9105
  0
VERTEX
  8
CAPA_1
 62
   253
 10
-38.6046
 20
-4.9938
  0
VERTEX
  8
CAPA_1
 62
   253
 10
-38.7517
 20
-5.1905
  0
VERTEX
  8
CAPA_1
 62
   253
 10
-38.9323
 20
-5.2544
  0
VERTEX
  8
CAPA_1
 62
   253
 10
-39.1264
 20
-5.2138
  0
VERTEX
  8
CAPA_1
 62
   253
 10
-39.195
 20
-5.1729
  0
VERTEX
  8
CAPA_1
 62
   253
 10
-39.2506
 20
-5.1235
  0
VERTEX
  8
CAPA_1
 62
   253
 10
-39.2931
 20
-5.0656
  0
VERTEX
  8
CAPA_1
 62
   253
 10
-39.3226
 20
-4.9992
  0
VERTEX
  8
CAPA_1
 62
   253
 10
-39.3371
 20
-4.926
  0
VERTEX
  8
CAPA_1
 62
   253
 10
-39.3348
 20
-4.8479
  0
VERTEX
  8
CAPA_1
 62
   253
 10
-39.3157
 20
-4.7649
  0
VERTEX
  8
CAPA_1
 62
   253
 10
-39.28
 20
-4.677
  0
SEQEND
  8
CAPA_1
 62
   253
  0
POLYLINE
  8
CAPA_1
 62
   253
 66
     1
 70
     1
  0
VERTEX
  8
CAPA_1
 62
   253
 10
-39.1559
 20
-4.7377
  0
VERTEX
  8
CAPA_1
 62
   253
 10
-39.1961
 20
-4.9723
  0
VERTEX
  8
CAPA_1
 62
   253
 10
-39.0779
 20
-5.1145
  0
VERTEX
  8
CAPA_1
 62
   253
 10
-38.8939
 20
-5.1194
  0
VERTEX
  8
CAPA_1
 62
   253
 10
-38.7319
 20
-4.9397
  0
VERTEX
  8
CAPA_1
 62
   253
 10
-38.6946
 20
-4.7097
  0
VERTEX
  8
CAPA_1
 62
   253
 10
-38.8115
 20
-4.5682
  0
VERTEX
  8
CAPA_1
 62
   253
 10
-38.996
 20
-4.5621
  0
VERTEX
  8
CAPA_1
 62
   253
 10
-39.1559
 20
-4.7377
  0
SEQEND
  8
CAPA_1
 62
   253
  0
POLYLINE
  8
CAPA_1
 62
   253
 66
     1
 70
     1
  0
VERTEX
  8
CAPA_1
 62
   253
 10
-38.6432
 20
-5.4307
  0
VERTEX
  8
CAPA_1
 62
   253
 10
-38.294
 20
-4.7147
  0
VERTEX
  8
CAPA_1
 62
   253
 10
-38.185
 20
-4.7678
  0
VERTEX
  8
CAPA_1
 62
   253
 10
-38.2385
 20
-4.8775
  0
VERTEX
  8
CAPA_1
 62
   253
 10
-38.1122
 20
-4.8147
  0
VERTEX
  8
CAPA_1
 62
   253
 10
-38.0224
 20
-4.8283
  0
VERTEX
  8
CAPA_1
 62
   253
 10
-37.9163
 20
-4.9276
  0
VERTEX
  8
CAPA_1
 62
   253
 10
-38.0141
 20
-5.0185
  0
VERTEX
  8
CAPA_1
 62
   253
 10
-38.0903
 20
-4.9507
  0
VERTEX
  8
CAPA_1
 62
   253
 10
-38.173
 20
-4.9399
  0
VERTEX
  8
CAPA_1
 62
   253
 10
-38.2501
 20
-4.9843
  0
VERTEX
  8
CAPA_1
 62
   253
 10
-38.3394
 20
-5.1158
  0
VERTEX
  8
CAPA_1
 62
   253
 10
-38.5218
 20
-5.4899
  0
VERTEX
  8
CAPA_1
 62
   253
 10
-38.6432
 20
-5.4307
  0
SEQEND
  8
CAPA_1
 62
   253
  0
POLYLINE
  8
CAPA_1
 62
   253
 66
     1
 70
     1
  0
VERTEX
  8
CAPA_1
 62
   253
 10
-37.8491
 20
-5.6199
  0
VERTEX
  8
CAPA_1
 62
   253
 10
-37.7172
 20
-5.3495
  0
VERTEX
  8
CAPA_1
 62
   253
 10
-37.9862
 20
-5.2183
  0
VERTEX
  8
CAPA_1
 62
   253
 10
-37.931
 20
-5.1051
  0
VERTEX
  8
CAPA_1
 62
   253
 10
-37.662
 20
-5.2363
  0
VERTEX
  8
CAPA_1
 62
   253
 10
-37.5308
 20
-4.9673
  0
VERTEX
  8
CAPA_1
 62
   253
 10
-37.4163
 20
-5.0232
  0
VERTEX
  8
CAPA_1
 62
   253
 10
-37.5475
 20
-5.2922
  0
VERTEX
  8
CAPA_1
 62
   253
 10
-37.2785
 20
-5.4234
  0
VERTEX
  8
CAPA_1
 62
   253
 10
-37.3337
 20
-5.5365
  0
VERTEX
  8
CAPA_1
 62
   253
 10
-37.6027
 20
-5.4053
  0
VERTEX
  8
CAPA_1
 62
   253
 10
-37.7346
 20
-5.6758
  0
VERTEX
  8
CAPA_1
 62
   253
 10
-37.8491
 20
-5.6199
  0
SEQEND
  8
CAPA_1
 62
   253
  0
POLYLINE
  8
CAPA_1
 62
   253
 66
     1
 70
     1
  0
VERTEX
  8
CAPA_1
 62
   253
 10
-42.2031
 20
-5.0977
  0
VERTEX
  8
CAPA_1
 62
   253
 10
-42.1466
 20
-4.9819
  0
VERTEX
  8
CAPA_1
 62
   253
 10
-41.7286
 20
-5.1858
  0
VERTEX
  8
CAPA_1
 62
   253
 10
-41.9071
 20
-5.5517
  0
VERTEX
  8
CAPA_1
 62
   253
 10
-42.1621
 20
-5.5702
  0
VERTEX
  8
CAPA_1
 62
   253
 10
-42.3911
 20
-5.5064
  0
VERTEX
  8
CAPA_1
 62
   253
 10
-42.6251
 20
-5.3151
  0
VERTEX
  8
CAPA_1
 62
   253
 10
-42.7166
 20
-5.0476
  0
VERTEX
  8
CAPA_1
 62
   253
 10
-42.649
 20
-4.7548
  0
VERTEX
  8
CAPA_1
 62
   253
 10
-42.4573
 20
-4.5149
  0
VERTEX
  8
CAPA_1
 62
   253
 10
-42.1936
 20
-4.4141
  0
VERTEX
  8
CAPA_1
 62
   253
 10
-41.9032
 20
-4.4806
  0
VERTEX
  8
CAPA_1
 62
   253
 10
-41.7266
 20
-4.6097
  0
VERTEX
  8
CAPA_1
 62
   253
 10
-41.6381
 20
-4.7725
  0
VERTEX
  8
CAPA_1
 62
   253
 10
-41.6423
 20
-4.9708
  0
VERTEX
  8
CAPA_1
 62
   253
 10
-41.7759
 20
-4.9455
  0
VERTEX
  8
CAPA_1
 62
   253
 10
-41.7733
 20
-4.7999
  0
VERTEX
  8
CAPA_1
 62
   253
 10
-41.8339
 20
-4.6849
  0
VERTEX
  8
CAPA_1
 62
   253
 10
-41.9571
 20
-4.5927
  0
VERTEX
  8
CAPA_1
 62
   253
 10
-42.1252
 20
-4.5446
  0
VERTEX
  8
CAPA_1
 62
   253
 10
-42.2656
 20
-4.5651
  0
VERTEX
  8
CAPA_1
 62
   253
 10
-42.3754
 20
-4.6326
  0
VERTEX
  8
CAPA_1
 62
   253
 10
-42.5101
 20
-4.8134
  0
VERTEX
  8
CAPA_1
 62
   253
 10
-42.5729
 20
-5.0571
  0
VERTEX
  8
CAPA_1
 62
   253
 10
-42.5052
 20
-5.2538
  0
VERTEX
  8
CAPA_1
 62
   253
 10
-42.3419
 20
-5.3869
  0
VERTEX
  8
CAPA_1
 62
   253
 10
-42.1603
 20
-5.4348
  0
VERTEX
  8
CAPA_1
 62
   253
 10
-42.0037
 20
-5.4241
  0
VERTEX
  8
CAPA_1
 62
   253
 10
-41.9134
 20
-5.239
  0
VERTEX
  8
CAPA_1
 62
   253
 10
-42.2031
 20
-5.0977
  0
SEQEND
  8
CAPA_1
 62
   253
  0
POLYLINE
  8
CAPA_1
 62
   253
 66
     1
 70
     1
  0
VERTEX
  8
CAPA_1
 62
   253
 10
-41.7826
 20
-5.7827
  0
VERTEX
  8
CAPA_1
 62
   253
 10
-41.3008
 20
-4.7949
  0
VERTEX
  8
CAPA_1
 62
   253
 10
-41.1666
 20
-4.8604
  0
VERTEX
  8
CAPA_1
 62
   253
 10
-41.0264
 20
-5.8885
  0
VERTEX
  8
CAPA_1
 62
   253
 10
-40.6483
 20
-5.1132
  0
VERTEX
  8
CAPA_1
 62
   253
 10
-40.5228
 20
-5.1744
  0
VERTEX
  8
CAPA_1
 62
   253
 10
-41.0046
 20
-6.1622
  0
VERTEX
  8
CAPA_1
 62
   253
 10
-41.1389
 20
-6.0967
  0
VERTEX
  8
CAPA_1
 62
   253
 10
-41.279
 20
-5.0686
  0
VERTEX
  8
CAPA_1
 62
   253
 10
-41.6571
 20
-5.8439
  0
VERTEX
  8
CAPA_1
 62
   253
 10
-41.7826
 20
-5.7827
  0
SEQEND
  8
CAPA_1
 62
   253
  0
POLYLINE
  8
CAPA_1
 62
   253
 66
     1
 70
     1
  0
VERTEX
  8
CAPA_1
 62
   253
 10
-40.7849
 20
-6.2693
  0
VERTEX
  8
CAPA_1
 62
   253
 10
-40.3032
 20
-5.2815
  0
VERTEX
  8
CAPA_1
 62
   253
 10
-39.9629
 20
-5.4475
  0
VERTEX
  8
CAPA_1
 62
   253
 10
-39.7938
 20
-5.5473
  0
VERTEX
  8
CAPA_1
 62
   253
 10
-39.6835
 20
-5.6888
  0
VERTEX
  8
CAPA_1
 62
   253
 10
-39.6491
 20
-5.9145
  0
VERTEX
  8
CAPA_1
 62
   253
 10
-39.7248
 20
-6.1684
  0
VERTEX
  8
CAPA_1
 62
   253
 10
-39.8482
 20
-6.355
  0
VERTEX
  8
CAPA_1
 62
   253
 10
-39.9859
 20
-6.4661
  0
VERTEX
  8
CAPA_1
 62
   253
 10
-40.1195
 20
-6.5116
  0
VERTEX
  8
CAPA_1
 62
   253
 10
-40.2615
 20
-6.5038
  0
VERTEX
  8
CAPA_1
 62
   253
 10
-40.4286
 20
-6.4431
  0
VERTEX
  8
CAPA_1
 62
   253
 10
-40.7849
 20
-6.2693
  0
SEQEND
  8
CAPA_1
 62
   253
  0
POLYLINE
  8
CAPA_1
 62
   253
 66
     1
 70
     1
  0
VERTEX
  8
CAPA_1
 62
   253
 10
-40.5974
 20
-6.2173
  0
VERTEX
  8
CAPA_1
 62
   253
 10
-40.3868
 20
-6.32
  0
VERTEX
  8
CAPA_1
 62
   253
 10
-40.2248
 20
-6.3766
  0
VERTEX
  8
CAPA_1
 62
   253
 10
-40.1112
 20
-6.3684
  0
VERTEX
  8
CAPA_1
 62
   253
 10
-39.978
 20
-6.2783
  0
VERTEX
  8
CAPA_1
 62
   253
 10
-39.859
 20
-6.1004
  0
VERTEX
  8
CAPA_1
 62
   253
 10
-39.7934
 20
-5.837
  0
VERTEX
  8
CAPA_1
 62
   253
 10
-39.8624
 20
-5.665
  0
VERTEX
  8
CAPA_1
 62
   253
 10
-40.0215
 20
-5.5623
  0
VERTEX
  8
CAPA_1
 62
   253
 10
-40.2286
 20
-5.4613
  0
VERTEX
  8
CAPA_1
 62
   253
 10
-40.5974
 20
-6.2173
  0
SEQEND
  8
CAPA_1
 62
   253
  0
POLYLINE
  8
CAPA_1
 62
   253
 66
     1
 70
     1
  0
VERTEX
  8
CAPA_1
 62
   253
 10
-39.7074
 20
-6.4276
  0
VERTEX
  8
CAPA_1
 62
   253
 10
-39.6482
 20
-6.3062
  0
VERTEX
  8
CAPA_1
 62
   253
 10
-39.273
 20
-6.4892
  0
VERTEX
  8
CAPA_1
 62
   253
 10
-39.3322
 20
-6.6106
  0
VERTEX
  8
CAPA_1
 62
   253
 10
-39.7074
 20
-6.4276
  0
SEQEND
  8
CAPA_1
 62
   253
  0
POLYLINE
  8
CAPA_1
 62
   253
 66
     1
 70
     1
  0
VERTEX
  8
CAPA_1
 62
   253
 10
-44.3518
 20
-8.2131
  0
VERTEX
  8
CAPA_1
 62
   253
 10
-44.2236
 20
-8.2619
  0
VERTEX
  8
CAPA_1
 62
   253
 10
-44.2426
 20
-8.4041
  0
VERTEX
  8
CAPA_1
 62
   253
 10
-44.1809
 20
-8.5297
  0
VERTEX
  8
CAPA_1
 62
   253
 10
-44.0438
 20
-8.6331
  0
VERTEX
  8
CAPA_1
 62
   253
 10
-43.9009
 20
-8.6752
  0
VERTEX
  8
CAPA_1
 62
   253
 10
-43.7859
 20
-8.6553
  0
VERTEX
  8
CAPA_1
 62
   253
 10
-43.7165
 20
-8.5843
  0
VERTEX
  8
CAPA_1
 62
   253
 10
-43.704
 20
-8.4903
  0
VERTEX
  8
CAPA_1
 62
   253
 10
-43.7646
 20
-8.3887
  0
VERTEX
  8
CAPA_1
 62
   253
 10
-43.917
 20
-8.2549
  0
VERTEX
  8
CAPA_1
 62
   253
 10
-44.0776
 20
-8.1002
  0
VERTEX
  8
CAPA_1
 62
   253
 10
-44.1377
 20
-7.9569
  0
VERTEX
  8
CAPA_1
 62
   253
 10
-44.1125
 20
-7.8169
  0
VERTEX
  8
CAPA_1
 62
   253
 10
-44.0016
 20
-7.6976
  0
VERTEX
  8
CAPA_1
 62
   253
 10
-43.8294
 20
-7.6592
  0
VERTEX
  8
CAPA_1
 62
   253
 10
-43.6318
 20
-7.7137
  0
VERTEX
  8
CAPA_1
 62
   253
 10
-43.4555
 20
-7.8436
  0
VERTEX
  8
CAPA_1
 62
   253
 10
-43.3773
 20
-8.0107
  0
VERTEX
  8
CAPA_1
 62
   253
 10
-43.4047
 20
-8.19
  0
VERTEX
  8
CAPA_1
 62
   253
 10
-43.5349
 20
-8.1384
  0
VERTEX
  8
CAPA_1
 62
   253
 10
-43.5343
 20
-7.9639
  0
VERTEX
  8
CAPA_1
 62
   253
 10
-43.6832
 20
-7.8321
  0
VERTEX
  8
CAPA_1
 62
   253
 10
-43.8774
 20
-7.7912
  0
VERTEX
  8
CAPA_1
 62
   253
 10
-43.9828
 20
-7.8696
  0
VERTEX
  8
CAPA_1
 62
   253
 10
-43.9871
 20
-7.9759
  0
VERTEX
  8
CAPA_1
 62
   253
 10
-43.8244
 20
-8.1424
  0
VERTEX
  8
CAPA_1
 62
   253
 10
-43.6364
 20
-8.3121
  0
VERTEX
  8
CAPA_1
 62
   253
 10
-43.5583
 20
-8.4746
  0
VERTEX
  8
CAPA_1
 62
   253
 10
-43.5856
 20
-8.6346
  0
VERTEX
  8
CAPA_1
 62
   253
 10
-43.7031
 20
-8.7609
  0
VERTEX
  8
CAPA_1
 62
   253
 10
-43.8853
 20
-8.806
  0
VERTEX
  8
CAPA_1
 62
   253
 10
-44.0943
 20
-8.7518
  0
VERTEX
  8
CAPA_1
 62
   253
 10
-44.2994
 20
-8.6034
  0
VERTEX
  8
CAPA_1
 62
   253
 10
-44.384
 20
-8.4168
  0
VERTEX
  8
CAPA_1
 62
   253
 10
-44.3518
 20
-8.2131
  0
SEQEND
  8
CAPA_1
 62
   253
  0
POLYLINE
  8
CAPA_1
 62
   253
 66
     1
 70
     1
  0
VERTEX
  8
CAPA_1
 62
   253
 10
-43.4653
 20
-8.7171
  0
VERTEX
  8
CAPA_1
 62
   253
 10
-43.3337
 20
-8.7693
  0
VERTEX
  8
CAPA_1
 62
   253
 10
-43.3365
 20
-8.9407
  0
VERTEX
  8
CAPA_1
 62
   253
 10
-43.2346
 20
-9.0482
  0
VERTEX
  8
CAPA_1
 62
   253
 10
-43.0537
 20
-9.0548
  0
VERTEX
  8
CAPA_1
 62
   253
 10
-42.9082
 20
-8.9089
  0
VERTEX
  8
CAPA_1
 62
   253
 10
-42.8859
 20
-8.7171
  0
VERTEX
  8
CAPA_1
 62
   253
 10
-43.009
 20
-8.5827
  0
VERTEX
  8
CAPA_1
 62
   253
 10
-43.128
 20
-8.558
  0
VERTEX
  8
CAPA_1
 62
   253
 10
-43.2353
 20
-8.5919
  0
VERTEX
  8
CAPA_1
 62
   253
 10
-43.3417
 20
-8.5195
  0
VERTEX
  8
CAPA_1
 62
   253
 10
-42.9989
 20
-8.0582
  0
VERTEX
  8
CAPA_1
 62
   253
 10
-42.5091
 20
-8.2971
  0
VERTEX
  8
CAPA_1
 62
   253
 10
-42.5657
 20
-8.4131
  0
VERTEX
  8
CAPA_1
 62
   253
 10
-42.9586
 20
-8.2214
  0
VERTEX
  8
CAPA_1
 62
   253
 10
-43.1413
 20
-8.4621
  0
VERTEX
  8
CAPA_1
 62
   253
 10
-42.9248
 20
-8.4906
  0
VERTEX
  8
CAPA_1
 62
   253
 10
-42.7508
 20
-8.6865
  0
VERTEX
  8
CAPA_1
 62
   253
 10
-42.7744
 20
-8.9601
  0
VERTEX
  8
CAPA_1
 62
   253
 10
-42.9654
 20
-9.1539
  0
VERTEX
  8
CAPA_1
 62
   253
 10
-43.0428
 20
-9.1811
  0
VERTEX
  8
CAPA_1
 62
   253
 10
-43.1216
 20
-9.1891
  0
VERTEX
  8
CAPA_1
 62
   253
 10
-43.2017
 20
-9.1779
  0
VERTEX
  8
CAPA_1
 62
   253
 10
-43.2831
 20
-9.1475
  0
VERTEX
  8
CAPA_1
 62
   253
 10
-43.4658
 20
-8.9648
  0
VERTEX
  8
CAPA_1
 62
   253
 10
-43.4653
 20
-8.7171
  0
SEQEND
  8
CAPA_1
 62
   253
  0
POLYLINE
  8
CAPA_1
 62
   253
 66
     1
 70
     1
  0
VERTEX
  8
CAPA_1
 62
   253
 10
-45.7454
 20
6.9203
  0
VERTEX
  8
CAPA_1
 62
   253
 10
-45.6512
 20
6.9288
  0
VERTEX
  8
CAPA_1
 62
   253
 10
-45.62
 20
6.8349
  0
VERTEX
  8
CAPA_1
 62
   253
 10
-45.5438
 20
6.7757
  0
VERTEX
  8
CAPA_1
 62
   253
 10
-45.4276
 20
6.7531
  0
VERTEX
  8
CAPA_1
 62
   253
 10
-45.3263
 20
6.7702
  0
VERTEX
  8
CAPA_1
 62
   253
 10
-45.2611
 20
6.8173
  0
VERTEX
  8
CAPA_1
 62
   253
 10
-45.2396
 20
6.8822
  0
VERTEX
  8
CAPA_1
 62
   253
 10
-45.2602
 20
6.9443
  0
VERTEX
  8
CAPA_1
 62
   253
 10
-45.3284
 20
6.9889
  0
VERTEX
  8
CAPA_1
 62
   253
 10
-45.4634
 20
7.0258
  0
VERTEX
  8
CAPA_1
 62
   253
 10
-45.6096
 20
7.0731
  0
VERTEX
  8
CAPA_1
 62
   253
 10
-45.6902
 20
7.1438
  0
VERTEX
  8
CAPA_1
 62
   253
 10
-45.7168
 20
7.2382
  0
VERTEX
  8
CAPA_1
 62
   253
 10
-45.6842
 20
7.3456
  0
VERTEX
  8
CAPA_1
 62
   253
 10
-45.5891
 20
7.4214
  0
VERTEX
  8
CAPA_1
 62
   253
 10
-45.4502
 20
7.4473
  0
VERTEX
  8
CAPA_1
 62
   253
 10
-45.3016
 20
7.4202
  0
VERTEX
  8
CAPA_1
 62
   253
 10
-45.2027
 20
7.3403
  0
VERTEX
  8
CAPA_1
 62
   253
 10
-45.1655
 20
7.2209
  0
VERTEX
  8
CAPA_1
 62
   253
 10
-45.2618
 20
7.2135
  0
VERTEX
  8
CAPA_1
 62
   253
 10
-45.3142
 20
7.3218
  0
VERTEX
  8
CAPA_1
 62
   253
 10
-45.4463
 20
7.3584
  0
VERTEX
  8
CAPA_1
 62
   253
 10
-45.5789
 20
7.3251
  0
VERTEX
  8
CAPA_1
 62
   253
 10
-45.6205
 20
7.2447
  0
VERTEX
  8
CAPA_1
 62
   253
 10
-45.5911
 20
7.1775
  0
VERTEX
  8
CAPA_1
 62
   253
 10
-45.4399
 20
7.1235
  0
VERTEX
  8
CAPA_1
 62
   253
 10
-45.2722
 20
7.0752
  0
VERTEX
  8
CAPA_1
 62
   253
 10
-45.1746
 20
6.9981
  0
VERTEX
  8
CAPA_1
 62
   253
 10
-45.1432
 20
6.8907
  0
VERTEX
  8
CAPA_1
 62
   253
 10
-45.1778
 20
6.7769
  0
VERTEX
  8
CAPA_1
 62
   253
 10
-45.2771
 20
6.6938
  0
VERTEX
  8
CAPA_1
 62
   253
 10
-45.423
 20
6.6642
  0
VERTEX
  8
CAPA_1
 62
   253
 10
-45.595
 20
6.6942
  0
VERTEX
  8
CAPA_1
 62
   253
 10
-45.7038
 20
6.7843
  0
VERTEX
  8
CAPA_1
 62
   253
 10
-45.7454
 20
6.9203
  0
SEQEND
  8
CAPA_1
 62
   253
  0
POLYLINE
  8
CAPA_1
 62
   253
 66
     1
 70
     1
  0
VERTEX
  8
CAPA_1
 62
   253
 10
-44.6945
 20
6.6769
  0
VERTEX
  8
CAPA_1
 62
   253
 10
-44.7876
 20
6.6769
  0
VERTEX
  8
CAPA_1
 62
   253
 10
-44.7876
 20
7.2699
  0
VERTEX
  8
CAPA_1
 62
   253
 10
-44.8758
 20
7.2057
  0
VERTEX
  8
CAPA_1
 62
   253
 10
-44.9739
 20
7.1577
  0
VERTEX
  8
CAPA_1
 62
   253
 10
-44.9739
 20
7.2477
  0
VERTEX
  8
CAPA_1
 62
   253
 10
-44.8374
 20
7.3366
  0
VERTEX
  8
CAPA_1
 62
   253
 10
-44.7545
 20
7.4378
  0
VERTEX
  8
CAPA_1
 62
   253
 10
-44.6945
 20
7.4378
  0
VERTEX
  8
CAPA_1
 62
   253
 10
-44.6945
 20
6.6769
  0
SEQEND
  8
CAPA_1
 62
   253
  0
POLYLINE
  8
CAPA_1
 62
   253
 66
     1
 70
     1
  0
VERTEX
  8
CAPA_1
 62
   253
 10
-44.2255
 20
6.6769
  0
VERTEX
  8
CAPA_1
 62
   253
 10
-44.2255
 20
7.3457
  0
VERTEX
  8
CAPA_1
 62
   253
 10
-44.4753
 20
7.3457
  0
VERTEX
  8
CAPA_1
 62
   253
 10
-44.4753
 20
7.4346
  0
VERTEX
  8
CAPA_1
 62
   253
 10
-43.8752
 20
7.4346
  0
VERTEX
  8
CAPA_1
 62
   253
 10
-43.8752
 20
7.3457
  0
VERTEX
  8
CAPA_1
 62
   253
 10
-44.125
 20
7.3457
  0
VERTEX
  8
CAPA_1
 62
   253
 10
-44.125
 20
6.6769
  0
VERTEX
  8
CAPA_1
 62
   253
 10
-44.2255
 20
6.6769
  0
SEQEND
  8
CAPA_1
 62
   253
  0
POLYLINE
  8
CAPA_1
 62
   251
 66
     1
 70
     1
  0
VERTEX
  8
CAPA_1
 62
   251
 10
-44.7994
 20
-4.9507
  0
VERTEX
  8
CAPA_1
 62
   251
 10
-45.372
 20
-6.1247
  0
VERTEX
  8
CAPA_1
 62
   251
 10
-44.1979
 20
-6.6973
  0
VERTEX
  8
CAPA_1
 62
   251
 10
-43.6253
 20
-5.5233
  0
VERTEX
  8
CAPA_1
 62
   251
 10
-44.7994
 20
-4.9507
  0
SEQEND
  8
CAPA_1
 62
   251
  0
POLYLINE
  8
CAPA_1
 62
   251
 66
     1
 70
     1
  0
VERTEX
  8
CAPA_1
 62
   251
 10
-41.7285
 20
1.3456
  0
VERTEX
  8
CAPA_1
 62
   251
 10
-42.3011
 20
0.1715
  0
VERTEX
  8
CAPA_1
 62
   251
 10
-41.127
 20
-0.4011
  0
VERTEX
  8
CAPA_1
 62
   251
 10
-40.5544
 20
0.7729
  0
VERTEX
  8
CAPA_1
 62
   251
 10
-41.7285
 20
1.3456
  0
SEQEND
  8
CAPA_1
 62
   251
  0
POLYLINE
  8
CAPA_1
 62
   251
 66
     1
 70
     1
  0
VERTEX
  8
CAPA_1
 62
   251
 10
-40.9607
 20
2.9197
  0
VERTEX
  8
CAPA_1
 62
   251
 10
-41.5333
 20
1.7457
  0
VERTEX
  8
CAPA_1
 62
   251
 10
-40.3593
 20
1.173
  0
VERTEX
  8
CAPA_1
 62
   251
 10
-39.7867
 20
2.3471
  0
VERTEX
  8
CAPA_1
 62
   251
 10
-40.9607
 20
2.9197
  0
SEQEND
  8
CAPA_1
 62
   251
  0
POLYLINE
  8
CAPA_1
 62
   251
 66
     1
 70
     1
  0
VERTEX
  8
CAPA_1
 62
   251
 10
-42.4962
 20
-0.2285
  0
VERTEX
  8
CAPA_1
 62
   251
 10
-43.0688
 20
-1.4025
  0
VERTEX
  8
CAPA_1
 62
   251
 10
-41.8948
 20
-1.9751
  0
VERTEX
  8
CAPA_1
 62
   251
 10
-41.3222
 20
-0.8011
  0
VERTEX
  8
CAPA_1
 62
   251
 10
-42.4962
 20
-0.2285
  0
SEQEND
  8
CAPA_1
 62
   251
  0
POLYLINE
  8
CAPA_1
 62
   251
 66
     1
 70
     1
  0
VERTEX
  8
CAPA_1
 62
   251
 10
-43.264
 20
-1.8025
  0
VERTEX
  8
CAPA_1
 62
   251
 10
-43.8366
 20
-2.9766
  0
VERTEX
  8
CAPA_1
 62
   251
 10
-42.6625
 20
-3.5492
  0
VERTEX
  8
CAPA_1
 62
   251
 10
-42.0899
 20
-2.3752
  0
VERTEX
  8
CAPA_1
 62
   251
 10
-43.264
 20
-1.8025
  0
SEQEND
  8
CAPA_1
 62
   251
  0
POLYLINE
  8
CAPA_1
 62
   251
 66
     1
 70
     1
  0
VERTEX
  8
CAPA_1
 62
   251
 10
-44.0316
 20
-3.3765
  0
VERTEX
  8
CAPA_1
 62
   251
 10
-44.6042
 20
-4.5506
  0
VERTEX
  8
CAPA_1
 62
   251
 10
-43.4302
 20
-5.1232
  0
VERTEX
  8
CAPA_1
 62
   251
 10
-42.8576
 20
-3.9491
  0
VERTEX
  8
CAPA_1
 62
   251
 10
-44.0316
 20
-3.3765
  0
SEQEND
  8
CAPA_1
 62
   251
  0
POLYLINE
  8
CAPA_1
 62
   251
 66
     1
 70
     1
  0
VERTEX
  8
CAPA_1
 62
   251
 10
-45.6085
 20
-6.5059
  0
VERTEX
  8
CAPA_1
 62
   251
 10
-46.1811
 20
-7.6799
  0
VERTEX
  8
CAPA_1
 62
   251
 10
-45.0071
 20
-8.2525
  0
VERTEX
  8
CAPA_1
 62
   251
 10
-44.4345
 20
-7.0785
  0
VERTEX
  8
CAPA_1
 62
   251
 10
-45.6085
 20
-6.5059
  0
SEQEND
  8
CAPA_1
 62
   251
  0
POLYLINE
  8
CAPA_1
 62
   254
 66
     1
 70
     1
  0
VERTEX
  8
CAPA_1
 62
   254
 10
27.1789
 20
12.6441
  0
VERTEX
  8
CAPA_1
 62
   254
 10
27.1789
 20
13.7431
  0
VERTEX
  8
CAPA_1
 62
   254
 10
27.9202
 20
13.7431
  0
VERTEX
  8
CAPA_1
 62
   254
 10
27.9202
 20
13.6142
  0
VERTEX
  8
CAPA_1
 62
   254
 10
27.3247
 20
13.6142
  0
VERTEX
  8
CAPA_1
 62
   254
 10
27.3247
 20
13.2719
  0
VERTEX
  8
CAPA_1
 62
   254
 10
27.8404
 20
13.2719
  0
VERTEX
  8
CAPA_1
 62
   254
 10
27.8404
 20
13.1429
  0
VERTEX
  8
CAPA_1
 62
   254
 10
27.3247
 20
13.1429
  0
VERTEX
  8
CAPA_1
 62
   254
 10
27.3247
 20
12.6441
  0
VERTEX
  8
CAPA_1
 62
   254
 10
27.1789
 20
12.6441
  0
SEQEND
  8
CAPA_1
 62
   254
  0
POLYLINE
  8
CAPA_1
 62
   254
 66
     1
 70
     1
  0
VERTEX
  8
CAPA_1
 62
   254
 10
28.1165
 20
12.6441
  0
VERTEX
  8
CAPA_1
 62
   254
 10
28.1165
 20
13.7431
  0
VERTEX
  8
CAPA_1
 62
   254
 10
28.8578
 20
13.7431
  0
VERTEX
  8
CAPA_1
 62
   254
 10
28.8578
 20
13.6142
  0
VERTEX
  8
CAPA_1
 62
   254
 10
28.2623
 20
13.6142
  0
VERTEX
  8
CAPA_1
 62
   254
 10
28.2623
 20
13.2719
  0
VERTEX
  8
CAPA_1
 62
   254
 10
28.778
 20
13.2719
  0
VERTEX
  8
CAPA_1
 62
   254
 10
28.778
 20
13.1429
  0
VERTEX
  8
CAPA_1
 62
   254
 10
28.2623
 20
13.1429
  0
VERTEX
  8
CAPA_1
 62
   254
 10
28.2623
 20
12.6441
  0
VERTEX
  8
CAPA_1
 62
   254
 10
28.1165
 20
12.6441
  0
SEQEND
  8
CAPA_1
 62
   254
  0
POLYLINE
  8
CAPA_1
 62
   254
 66
     1
 70
     1
  0
VERTEX
  8
CAPA_1
 62
   254
 10
28.8412
 20
12.6441
  0
VERTEX
  8
CAPA_1
 62
   254
 10
29.2628
 20
13.7431
  0
VERTEX
  8
CAPA_1
 62
   254
 10
29.4227
 20
13.7431
  0
VERTEX
  8
CAPA_1
 62
   254
 10
29.8701
 20
12.6441
  0
VERTEX
  8
CAPA_1
 62
   254
 10
29.7046
 20
12.6441
  0
VERTEX
  8
CAPA_1
 62
   254
 10
29.5774
 20
12.9772
  0
VERTEX
  8
CAPA_1
 62
   254
 10
29.1147
 20
12.9772
  0
VERTEX
  8
CAPA_1
 62
   254
 10
28.9955
 20
12.6441
  0
VERTEX
  8
CAPA_1
 62
   254
 10
28.8412
 20
12.6441
  0
SEQEND
  8
CAPA_1
 62
   254
  0
POLYLINE
  8
CAPA_1
 62
   254
 66
     1
 70
     1
  0
VERTEX
  8
CAPA_1
 62
   254
 10
29.1574
 20
13.0954
  0
VERTEX
  8
CAPA_1
 62
   254
 10
29.5319
 20
13.0954
  0
VERTEX
  8
CAPA_1
 62
   254
 10
29.4173
 20
13.4
  0
VERTEX
  8
CAPA_1
 62
   254
 10
29.3385
 20
13.6295
  0
VERTEX
  8
CAPA_1
 62
   254
 10
29.2779
 20
13.4179
  0
VERTEX
  8
CAPA_1
 62
   254
 10
29.1574
 20
13.0954
  0
SEQEND
  8
CAPA_1
 62
   254
  0
POLYLINE
  8
CAPA_1
 66
     1
 70
     1
  0
VERTEX
  8
CAPA_1
 10
-34.043
 20
9.0023
  0
VERTEX
  8
CAPA_1
 10
-33.1531
 20
10.2272
  0
VERTEX
  8
CAPA_1
 10
-32.3269
 20
9.6269
  0
VERTEX
  8
CAPA_1
 10
-32.4313
 20
9.4832
  0
VERTEX
  8
CAPA_1
 10
-33.095
 20
9.9654
  0
VERTEX
  8
CAPA_1
 10
-33.3722
 20
9.5839
  0
VERTEX
  8
CAPA_1
 10
-32.7975
 20
9.1663
  0
VERTEX
  8
CAPA_1
 10
-32.9019
 20
9.0226
  0
VERTEX
  8
CAPA_1
 10
-33.4766
 20
9.4402
  0
VERTEX
  8
CAPA_1
 10
-33.8805
 20
8.8842
  0
VERTEX
  8
CAPA_1
 10
-34.043
 20
9.0023
  0
SEQEND
  8
CAPA_1
  0
POLYLINE
  8
CAPA_1
 66
     1
 70
     1
  0
VERTEX
  8
CAPA_1
 10
-33.0135
 20
8.2543
  0
VERTEX
  8
CAPA_1
 10
-32.1236
 20
9.4791
  0
VERTEX
  8
CAPA_1
 10
-31.9612
 20
9.3611
  0
VERTEX
  8
CAPA_1
 10
-32.7467
 20
8.2799
  0
VERTEX
  8
CAPA_1
 10
-32.1445
 20
7.8425
  0
VERTEX
  8
CAPA_1
 10
-32.2489
 20
7.6988
  0
VERTEX
  8
CAPA_1
 10
-33.0135
 20
8.2543
  0
SEQEND
  8
CAPA_1
  0
POLYLINE
  8
CAPA_1
 66
     1
 70
     1
  0
VERTEX
  8
CAPA_1
 10
-32.1896
 20
7.6557
  0
VERTEX
  8
CAPA_1
 10
-30.8298
 20
8.5392
  0
VERTEX
  8
CAPA_1
 10
-30.6516
 20
8.4097
  0
VERTEX
  8
CAPA_1
 10
-31.0429
 20
6.8226
  0
VERTEX
  8
CAPA_1
 10
-31.2274
 20
6.9566
  0
VERTEX
  8
CAPA_1
 10
-31.0994
 20
7.4307
  0
VERTEX
  8
CAPA_1
 10
-31.6151
 20
7.8054
  0
VERTEX
  8
CAPA_1
 10
-32.0177
 20
7.5308
  0
VERTEX
  8
CAPA_1
 10
-32.1896
 20
7.6557
  0
SEQEND
  8
CAPA_1
  0
POLYLINE
  8
CAPA_1
 66
     1
 70
     1
  0
VERTEX
  8
CAPA_1
 10
-31.4718
 20
7.9027
  0
VERTEX
  8
CAPA_1
 10
-31.0543
 20
7.5994
  0
VERTEX
  8
CAPA_1
 10
-30.9354
 20
8.0317
  0
VERTEX
  8
CAPA_1
 10
-30.8374
 20
8.3513
  0
VERTEX
  8
CAPA_1
 10
-31.0763
 20
8.1646
  0
VERTEX
  8
CAPA_1
 10
-31.4718
 20
7.9027
  0
SEQEND
  8
CAPA_1
  0
POLYLINE
  8
CAPA_1
 66
     1
 70
     1
  0
VERTEX
  8
CAPA_1
 10
-30.6814
 20
7.1611
  0
VERTEX
  8
CAPA_1
 10
-30.5191
 20
7.0642
  0
VERTEX
  8
CAPA_1
 10
-30.5789
 20
6.8759
  0
VERTEX
  8
CAPA_1
 10
-30.5253
 20
6.6906
  0
VERTEX
  8
CAPA_1
 10
-30.364
 20
6.5175
  0
VERTEX
  8
CAPA_1
 10
-30.1803
 20
6.4263
  0
VERTEX
  8
CAPA_1
 10
-30.0194
 20
6.4258
  0
VERTEX
  8
CAPA_1
 10
-29.9084
 20
6.5054
  0
VERTEX
  8
CAPA_1
 10
-29.8688
 20
6.6301
  0
VERTEX
  8
CAPA_1
 10
-29.9268
 20
6.7823
  0
VERTEX
  8
CAPA_1
 10
-30.1016
 20
7.0004
  0
VERTEX
  8
CAPA_1
 10
-30.2825
 20
7.2485
  0
VERTEX
  8
CAPA_1
 10
-30.3297
 20
7.4575
  0
VERTEX
  8
CAPA_1
 10
-30.2619
 20
7.6413
  0
VERTEX
  8
CAPA_1
 10
-30.083
 20
7.7766
  0
VERTEX
  8
CAPA_1
 10
-29.8402
 20
7.7876
  0
VERTEX
  8
CAPA_1
 10
-29.5851
 20
7.6663
  0
VERTEX
  8
CAPA_1
 10
-29.377
 20
7.448
  0
VERTEX
  8
CAPA_1
 10
-29.3109
 20
7.2025
  0
VERTEX
  8
CAPA_1
 10
-29.3909
 20
6.9659
  0
VERTEX
  8
CAPA_1
 10
-29.5553
 20
7.067
  0
VERTEX
  8
CAPA_1
 10
-29.5129
 20
7.3036
  0
VERTEX
  8
CAPA_1
 10
-29.6833
 20
7.518
  0
VERTEX
  8
CAPA_1
 10
-29.9369
 20
7.6199
  0
VERTEX
  8
CAPA_1
 10
-30.0986
 20
7.5388
  0
VERTEX
  8
CAPA_1
 10
-30.1299
 20
7.3956
  0
VERTEX
  8
CAPA_1
 10
-29.9489
 20
7.1308
  0
VERTEX
  8
CAPA_1
 10
-29.7345
 20
6.8557
  0
VERTEX
  8
CAPA_1
 10
-29.6674
 20
6.6166
  0
VERTEX
  8
CAPA_1
 10
-29.7428
 20
6.406
  0
VERTEX
  8
CAPA_1
 10
-29.9323
 20
6.2627
  0
VERTEX
  8
CAPA_1
 10
-30.1904
 20
6.2451
  0
VERTEX
  8
CAPA_1
 10
-30.461
 20
6.3685
  0
VERTEX
  8
CAPA_1
 10
-30.7037
 20
6.6189
  0
VERTEX
  8
CAPA_1
 10
-30.7738
 20
6.8924
  0
VERTEX
  8
CAPA_1
 10
-30.6814
 20
7.1611
  0
SEQEND
  8
CAPA_1
  0
POLYLINE
  8
CAPA_1
 66
     1
 70
     1
  0
VERTEX
  8
CAPA_1
 10
-29.7663
 20
5.8952
  0
VERTEX
  8
CAPA_1
 10
-28.8764
 20
7.12
  0
VERTEX
  8
CAPA_1
 10
-28.7139
 20
7.0019
  0
VERTEX
  8
CAPA_1
 10
-29.0806
 20
6.4973
  0
VERTEX
  8
CAPA_1
 10
-28.4477
 20
6.0374
  0
VERTEX
  8
CAPA_1
 10
-28.081
 20
6.5421
  0
VERTEX
  8
CAPA_1
 10
-27.9185
 20
6.424
  0
VERTEX
  8
CAPA_1
 10
-28.8084
 20
5.1992
  0
VERTEX
  8
CAPA_1
 10
-28.9709
 20
5.3172
  0
VERTEX
  8
CAPA_1
 10
-28.5521
 20
5.8938
  0
VERTEX
  8
CAPA_1
 10
-29.185
 20
6.3536
  0
VERTEX
  8
CAPA_1
 10
-29.6038
 20
5.7771
  0
VERTEX
  8
CAPA_1
 10
-29.7663
 20
5.8952
  0
SEQEND
  8
CAPA_1
  0
POLYLINE
  8
CAPA_1
 66
     1
 70
     1
  0
VERTEX
  8
CAPA_1
 10
-28.5292
 20
4.9963
  0
VERTEX
  8
CAPA_1
 10
-27.6393
 20
6.2212
  0
VERTEX
  8
CAPA_1
 10
-26.8131
 20
5.6209
  0
VERTEX
  8
CAPA_1
 10
-26.9175
 20
5.4772
  0
VERTEX
  8
CAPA_1
 10
-27.5812
 20
5.9594
  0
VERTEX
  8
CAPA_1
 10
-27.8584
 20
5.5779
  0
VERTEX
  8
CAPA_1
 10
-27.2837
 20
5.1603
  0
VERTEX
  8
CAPA_1
 10
-27.3881
 20
5.0166
  0
VERTEX
  8
CAPA_1
 10
-27.9628
 20
5.4342
  0
VERTEX
  8
CAPA_1
 10
-28.3667
 20
4.8782
  0
VERTEX
  8
CAPA_1
 10
-28.5292
 20
4.9963
  0
SEQEND
  8
CAPA_1
  0
POLYLINE
  8
CAPA_1
 66
     1
 70
     1
  0
VERTEX
  8
CAPA_1
 10
-27.4997
 20
4.2483
  0
VERTEX
  8
CAPA_1
 10
-26.6098
 20
5.4731
  0
VERTEX
  8
CAPA_1
 10
-26.4474
 20
5.3551
  0
VERTEX
  8
CAPA_1
 10
-27.2329
 20
4.2739
  0
VERTEX
  8
CAPA_1
 10
-26.6307
 20
3.8365
  0
VERTEX
  8
CAPA_1
 10
-26.7351
 20
3.6928
  0
VERTEX
  8
CAPA_1
 10
-27.4997
 20
4.2483
  0
SEQEND
  8
CAPA_1
  0
POLYLINE
  8
CAPA_1
 66
     1
 70
     1
  0
VERTEX
  8
CAPA_1
 10
-26.5381
 20
3.5497
  0
VERTEX
  8
CAPA_1
 10
-25.6482
 20
4.7745
  0
VERTEX
  8
CAPA_1
 10
-24.7638
 20
4.132
  0
VERTEX
  8
CAPA_1
 10
-24.8682
 20
3.9883
  0
VERTEX
  8
CAPA_1
 10
-25.5901
 20
4.5128
  0
VERTEX
  8
CAPA_1
 10
-25.8635
 20
4.1364
  0
VERTEX
  8
CAPA_1
 10
-25.1877
 20
3.6454
  0
VERTEX
  8
CAPA_1
 10
-25.2921
 20
3.5018
  0
VERTEX
  8
CAPA_1
 10
-25.9679
 20
3.9927
  0
VERTEX
  8
CAPA_1
 10
-26.2712
 20
3.5753
  0
VERTEX
  8
CAPA_1
 10
-25.5202
 20
3.0296
  0
VERTEX
  8
CAPA_1
 10
-25.6246
 20
2.886
  0
VERTEX
  8
CAPA_1
 10
-26.5381
 20
3.5497
  0
SEQEND
  8
CAPA_1
  0
POLYLINE
  8
CAPA_1
 66
     1
 70
     1
  0
VERTEX
  8
CAPA_1
 10
-25.5248
 20
2.8134
  0
VERTEX
  8
CAPA_1
 10
-24.5898
 20
3.1051
  0
VERTEX
  8
CAPA_1
 10
-24.5785
 20
3.9973
  0
VERTEX
  8
CAPA_1
 10
-24.3855
 20
3.8571
  0
VERTEX
  8
CAPA_1
 10
-24.3898
 20
3.3815
  0
VERTEX
  8
CAPA_1
 10
-24.401
 20
3.1618
  0
VERTEX
  8
CAPA_1
 10
-24.2042
 20
3.2275
  0
VERTEX
  8
CAPA_1
 10
-23.7229
 20
3.3757
  0
VERTEX
  8
CAPA_1
 10
-23.5452
 20
3.2466
  0
VERTEX
  8
CAPA_1
 10
-24.3936
 20
2.9734
  0
VERTEX
  8
CAPA_1
 10
-24.4026
 20
1.9981
  0
VERTEX
  8
CAPA_1
 10
-24.6016
 20
2.1427
  0
VERTEX
  8
CAPA_1
 10
-24.5933
 20
2.804
  0
VERTEX
  8
CAPA_1
 10
-24.5897
 20
2.9146
  0
VERTEX
  8
CAPA_1
 10
-24.711
 20
2.8712
  0
VERTEX
  8
CAPA_1
 10
-25.3301
 20
2.672
  0
VERTEX
  8
CAPA_1
 10
-25.5248
 20
2.8134
  0
SEQEND
  8
CAPA_1
  0
POLYLINE
  8
CAPA_1
 66
     1
 70
     1
  0
VERTEX
  8
CAPA_1
 10
-23.7765
 20
0.9944
  0
VERTEX
  8
CAPA_1
 10
-23.7198
 20
1.5143
  0
VERTEX
  8
CAPA_1
 10
-23.4889
 20
2.0125
  0
VERTEX
  8
CAPA_1
 10
-23.1482
 20
2.3466
  0
VERTEX
  8
CAPA_1
 10
-22.6107
 20
2.599
  0
VERTEX
  8
CAPA_1
 10
-22.5029
 20
2.5207
  0
VERTEX
  8
CAPA_1
 10
-22.8169
 20
2.3698
  0
VERTEX
  8
CAPA_1
 10
-23.0716
 20
2.1877
  0
VERTEX
  8
CAPA_1
 10
-23.3356
 20
1.8999
  0
VERTEX
  8
CAPA_1
 10
-23.4658
 20
1.6878
  0
VERTEX
  8
CAPA_1
 10
-23.5647
 20
1.4531
  0
VERTEX
  8
CAPA_1
 10
-23.6324
 20
1.1959
  0
VERTEX
  8
CAPA_1
 10
-23.6687
 20
0.9161
  0
VERTEX
  8
CAPA_1
 10
-23.7765
 20
0.9944
  0
SEQEND
  8
CAPA_1
  0
POLYLINE
  8
CAPA_1
 66
     1
 70
     1
  0
VERTEX
  8
CAPA_1
 10
-23.1006
 20
1.4573
  0
VERTEX
  8
CAPA_1
 10
-22.9343
 20
1.3731
  0
VERTEX
  8
CAPA_1
 10
-22.9641
 20
1.1851
  0
VERTEX
  8
CAPA_1
 10
-22.8385
 20
1.0212
  0
VERTEX
  8
CAPA_1
 10
-22.6536
 20
0.9512
  0
VERTEX
  8
CAPA_1
 10
-22.5315
 20
1.0137
  0
VERTEX
  8
CAPA_1
 10
-22.5183
 20
1.1267
  0
VERTEX
  8
CAPA_1
 10
-22.6353
 20
1.2895
  0
VERTEX
  8
CAPA_1
 10
-22.812
 20
1.5278
  0
VERTEX
  8
CAPA_1
 10
-22.8473
 20
1.6824
  0
VERTEX
  8
CAPA_1
 10
-22.7942
 20
1.825
  0
VERTEX
  8
CAPA_1
 10
-22.6874
 20
1.9151
  0
VERTEX
  8
CAPA_1
 10
-22.5526
 20
1.9453
  0
VERTEX
  8
CAPA_1
 10
-22.4254
 20
1.9194
  0
VERTEX
  8
CAPA_1
 10
-22.2827
 20
1.8432
  0
VERTEX
  8
CAPA_1
 10
-22.1216
 20
1.6799
  0
VERTEX
  8
CAPA_1
 10
-22.0642
 20
1.5137
  0
VERTEX
  8
CAPA_1
 10
-22.1128
 20
1.3382
  0
VERTEX
  8
CAPA_1
 10
-22.2748
 20
1.4245
  0
VERTEX
  8
CAPA_1
 10
-22.2541
 20
1.5749
  0
VERTEX
  8
CAPA_1
 10
-22.3613
 20
1.7121
  0
VERTEX
  8
CAPA_1
 10
-22.5335
 20
1.785
  0
VERTEX
  8
CAPA_1
 10
-22.636
 20
1.737
  0
VERTEX
  8
CAPA_1
 10
-22.656
 20
1.6709
  0
VERTEX
  8
CAPA_1
 10
-22.6275
 20
1.5893
  0
VERTEX
  8
CAPA_1
 10
-22.5228
 20
1.4544
  0
VERTEX
  8
CAPA_1
 10
-22.351
 20
1.2233
  0
VERTEX
  8
CAPA_1
 10
-22.3089
 20
1.0726
  0
VERTEX
  8
CAPA_1
 10
-22.3662
 20
0.9176
  0
VERTEX
  8
CAPA_1
 10
-22.5126
 20
0.8084
  0
VERTEX
  8
CAPA_1
 10
-22.7137
 20
0.7977
  0
VERTEX
  8
CAPA_1
 10
-22.9274
 20
0.8976
  0
VERTEX
  8
CAPA_1
 10
-23.0055
 20
0.9612
  0
VERTEX
  8
CAPA_1
 10
-23.0668
 20
1.0262
  0
VERTEX
  8
CAPA_1
 10
-23.1113
 20
1.0928
  0
VERTEX
  8
CAPA_1
 10
-23.1391
 20
1.1608
  0
VERTEX
  8
CAPA_1
 10
-23.1006
 20
1.4573
  0
SEQEND
  8
CAPA_1
  0
POLYLINE
  8
CAPA_1
 66
     1
 70
     1
  0
VERTEX
  8
CAPA_1
 10
-22.1119
 20
1.0121
  0
VERTEX
  8
CAPA_1
 10
-22.0198
 20
1.1209
  0
VERTEX
  8
CAPA_1
 10
-21.9221
 20
1.2013
  0
VERTEX
  8
CAPA_1
 10
-21.8189
 20
1.2533
  0
VERTEX
  8
CAPA_1
 10
-21.7101
 20
1.2769
  0
VERTEX
  8
CAPA_1
 10
-21.6185
 20
1.2761
  0
VERTEX
  8
CAPA_1
 10
-21.5296
 20
1.2585
  0
VERTEX
  8
CAPA_1
 10
-21.4432
 20
1.2239
  0
VERTEX
  8
CAPA_1
 10
-21.3595
 20
1.1725
  0
VERTEX
  8
CAPA_1
 10
-21.2777
 20
1.1016
  0
VERTEX
  8
CAPA_1
 10
-21.2151
 20
1.0218
  0
VERTEX
  8
CAPA_1
 10
-21.1717
 20
0.9331
  0
VERTEX
  8
CAPA_1
 10
-21.1474
 20
0.8354
  0
VERTEX
  8
CAPA_1
 10
-21.1442
 20
0.7331
  0
VERTEX
  8
CAPA_1
 10
-21.1639
 20
0.6299
  0
VERTEX
  8
CAPA_1
 10
-21.2063
 20
0.5257
  0
VERTEX
  8
CAPA_1
 10
-21.2715
 20
0.4207
  0
VERTEX
  8
CAPA_1
 10
-21.5181
 20
0.1891
  0
VERTEX
  8
CAPA_1
 10
-21.7784
 20
0.1456
  0
VERTEX
  8
CAPA_1
 10
-22.0319
 20
0.247
  0
VERTEX
  8
CAPA_1
 10
-22.1152
 20
0.3189
  0
VERTEX
  8
CAPA_1
 10
-22.1788
 20
0.3992
  0
VERTEX
  8
CAPA_1
 10
-22.2226
 20
0.4879
  0
VERTEX
  8
CAPA_1
 10
-22.2466
 20
0.5852
  0
VERTEX
  8
CAPA_1
 10
-22.2488
 20
0.6879
  0
VERTEX
  8
CAPA_1
 10
-22.2271
 20
0.7933
  0
VERTEX
  8
CAPA_1
 10
-22.1814
 20
0.9014
  0
VERTEX
  8
CAPA_1
 10
-22.1119
 20
1.0121
  0
SEQEND
  8
CAPA_1
  0
POLYLINE
  8
CAPA_1
 66
     1
 70
     1
  0
VERTEX
  8
CAPA_1
 10
-21.9582
 20
0.9
  0
VERTEX
  8
CAPA_1
 10
-22.0115
 20
0.8169
  0
VERTEX
  8
CAPA_1
 10
-22.0477
 20
0.7377
  0
VERTEX
  8
CAPA_1
 10
-22.0668
 20
0.6626
  0
VERTEX
  8
CAPA_1
 10
-22.0687
 20
0.5914
  0
VERTEX
  8
CAPA_1
 10
-21.9424
 20
0.3702
  0
VERTEX
  8
CAPA_1
 10
-21.694
 20
0.3195
  0
VERTEX
  8
CAPA_1
 10
-21.6264
 20
0.3439
  0
VERTEX
  8
CAPA_1
 10
-21.5601
 20
0.3862
  0
VERTEX
  8
CAPA_1
 10
-21.495
 20
0.4465
  0
VERTEX
  8
CAPA_1
 10
-21.4312
 20
0.5246
  0
VERTEX
  8
CAPA_1
 10
-21.3799
 20
0.6051
  0
VERTEX
  8
CAPA_1
 10
-21.3452
 20
0.6825
  0
VERTEX
  8
CAPA_1
 10
-21.3271
 20
0.7567
  0
VERTEX
  8
CAPA_1
 10
-21.3256
 20
0.8277
  0
VERTEX
  8
CAPA_1
 10
-21.4502
 20
1.0476
  0
VERTEX
  8
CAPA_1
 10
-21.6992
 20
1.1
  0
VERTEX
  8
CAPA_1
 10
-21.7663
 20
1.0761
  0
VERTEX
  8
CAPA_1
 10
-21.8318
 20
1.0349
  0
VERTEX
  8
CAPA_1
 10
-21.8957
 20
0.9762
  0
VERTEX
  8
CAPA_1
 10
-21.9582
 20
0.9
  0
SEQEND
  8
CAPA_1
  0
POLYLINE
  8
CAPA_1
 66
     1
 70
     1
  0
VERTEX
  8
CAPA_1
 10
-21.4266
 20
-0.1641
  0
VERTEX
  8
CAPA_1
 10
-20.7816
 20
0.7237
  0
VERTEX
  8
CAPA_1
 10
-20.6464
 20
0.6255
  0
VERTEX
  8
CAPA_1
 10
-20.738
 20
0.4996
  0
VERTEX
  8
CAPA_1
 10
-20.6377
 20
0.5236
  0
VERTEX
  8
CAPA_1
 10
-20.5397
 20
0.5215
  0
VERTEX
  8
CAPA_1
 10
-20.4441
 20
0.4935
  0
VERTEX
  8
CAPA_1
 10
-20.3508
 20
0.4396
  0
VERTEX
  8
CAPA_1
 10
-20.2243
 20
0.3037
  0
VERTEX
  8
CAPA_1
 10
-20.1786
 20
0.155
  0
VERTEX
  8
CAPA_1
 10
-20.2124
 20
0.0101
  0
VERTEX
  8
CAPA_1
 10
-20.3103
 20
-0.1422
  0
VERTEX
  8
CAPA_1
 10
-20.7064
 20
-0.6874
  0
VERTEX
  8
CAPA_1
 10
-20.857
 20
-0.578
  0
VERTEX
  8
CAPA_1
 10
-20.465
 20
-0.0385
  0
VERTEX
  8
CAPA_1
 10
-20.3826
 20
0.1115
  0
VERTEX
  8
CAPA_1
 10
-20.3919
 20
0.2294
  0
VERTEX
  8
CAPA_1
 10
-20.4769
 20
0.3325
  0
VERTEX
  8
CAPA_1
 10
-20.6866
 20
0.3917
  0
VERTEX
  8
CAPA_1
 10
-20.7441
 20
0.3765
  0
VERTEX
  8
CAPA_1
 10
-20.8029
 20
0.3413
  0
VERTEX
  8
CAPA_1
 10
-20.8629
 20
0.2861
  0
VERTEX
  8
CAPA_1
 10
-20.9241
 20
0.211
  0
VERTEX
  8
CAPA_1
 10
-21.2761
 20
-0.2734
  0
VERTEX
  8
CAPA_1
 10
-21.4266
 20
-0.1641
  0
SEQEND
  8
CAPA_1
  0
POLYLINE
  8
CAPA_1
 66
     1
 70
     1
  0
VERTEX
  8
CAPA_1
 10
-19.8145
 20
-1.1655
  0
VERTEX
  8
CAPA_1
 10
-20.049
 20
-1.1489
  0
VERTEX
  8
CAPA_1
 10
-20.2366
 20
-1.0574
  0
VERTEX
  8
CAPA_1
 10
-20.3023
 20
-1.0029
  0
VERTEX
  8
CAPA_1
 10
-20.3531
 20
-0.9457
  0
VERTEX
  8
CAPA_1
 10
-20.3889
 20
-0.8856
  0
VERTEX
  8
CAPA_1
 10
-20.4098
 20
-0.8228
  0
VERTEX
  8
CAPA_1
 10
-20.3563
 20
-0.5836
  0
VERTEX
  8
CAPA_1
 10
-20.2402
 20
-0.4863
  0
VERTEX
  8
CAPA_1
 10
-20.0998
 20
-0.4567
  0
VERTEX
  8
CAPA_1
 10
-19.9557
 20
-0.4862
  0
VERTEX
  8
CAPA_1
 10
-19.8053
 20
-0.5609
  0
VERTEX
  8
CAPA_1
 10
-19.4992
 20
-0.7045
  0
VERTEX
  8
CAPA_1
 10
-19.4699
 20
-0.666
  0
VERTEX
  8
CAPA_1
 10
-19.4189
 20
-0.5058
  0
VERTEX
  8
CAPA_1
 10
-19.5537
 20
-0.3304
  0
VERTEX
  8
CAPA_1
 10
-19.7379
 20
-0.2536
  0
VERTEX
  8
CAPA_1
 10
-19.9088
 20
-0.3311
  0
VERTEX
  8
CAPA_1
 10
-20.041
 20
-0.2036
  0
VERTEX
  8
CAPA_1
 10
-19.8638
 20
-0.0989
  0
VERTEX
  8
CAPA_1
 10
-19.6654
 20
-0.1063
  0
VERTEX
  8
CAPA_1
 10
-19.4407
 20
-0.2216
  0
VERTEX
  8
CAPA_1
 10
-19.2749
 20
-0.3831
  0
VERTEX
  8
CAPA_1
 10
-19.2192
 20
-0.5264
  0
VERTEX
  8
CAPA_1
 10
-19.2467
 20
-0.6632
  0
VERTEX
  8
CAPA_1
 10
-19.3397
 20
-0.8069
  0
VERTEX
  8
CAPA_1
 10
-19.4847
 20
-1.0065
  0
VERTEX
  8
CAPA_1
 10
-19.6677
 20
-1.2782
  0
VERTEX
  8
CAPA_1
 10
-19.7088
 20
-1.4121
  0
VERTEX
  8
CAPA_1
 10
-19.8662
 20
-1.2977
  0
VERTEX
  8
CAPA_1
 10
-19.8145
 20
-1.1655
  0
SEQEND
  8
CAPA_1
  0
POLYLINE
  8
CAPA_1
 66
     1
 70
     1
  0
VERTEX
  8
CAPA_1
 10
-19.5841
 20
-0.8231
  0
VERTEX
  8
CAPA_1
 10
-19.8715
 20
-0.7006
  0
VERTEX
  8
CAPA_1
 10
-20.0249
 20
-0.6349
  0
VERTEX
  8
CAPA_1
 10
-20.1194
 20
-0.6402
  0
VERTEX
  8
CAPA_1
 10
-20.1923
 20
-0.6962
  0
VERTEX
  8
CAPA_1
 10
-20.219
 20
-0.8288
  0
VERTEX
  8
CAPA_1
 10
-20.1146
 20
-0.9657
  0
VERTEX
  8
CAPA_1
 10
-19.9322
 20
-1.0403
  0
VERTEX
  8
CAPA_1
 10
-19.7577
 20
-1.0094
  0
VERTEX
  8
CAPA_1
 10
-19.6248
 20
-0.8773
  0
VERTEX
  8
CAPA_1
 10
-19.5841
 20
-0.8231
  0
SEQEND
  8
CAPA_1
  0
POLYLINE
  8
CAPA_1
 66
     1
 70
     1
  0
VERTEX
  8
CAPA_1
 10
-19.5256
 20
-1.5452
  0
VERTEX
  8
CAPA_1
 10
-18.8805
 20
-0.6574
  0
VERTEX
  8
CAPA_1
 10
-18.7453
 20
-0.7556
  0
VERTEX
  8
CAPA_1
 10
-18.8442
 20
-0.8916
  0
VERTEX
  8
CAPA_1
 10
-18.6578
 20
-0.8366
  0
VERTEX
  8
CAPA_1
 10
-18.5392
 20
-0.8766
  0
VERTEX
  8
CAPA_1
 10
-18.419
 20
-1.0367
  0
VERTEX
  8
CAPA_1
 10
-18.5735
 20
-1.1366
  0
VERTEX
  8
CAPA_1
 10
-18.6606
 20
-1.0262
  0
VERTEX
  8
CAPA_1
 10
-18.7702
 20
-0.9919
  0
VERTEX
  8
CAPA_1
 10
-18.8855
 20
-1.0336
  0
VERTEX
  8
CAPA_1
 10
-19.038
 20
-1.1907
  0
VERTEX
  8
CAPA_1
 10
-19.375
 20
-1.6546
  0
VERTEX
  8
CAPA_1
 10
-19.5256
 20
-1.5452
  0
SEQEND
  8
CAPA_1
  0
POLYLINE
  8
CAPA_1
 66
     1
 70
     1
  0
VERTEX
  8
CAPA_1
 10
-19.116
 20
-2.3917
  0
VERTEX
  8
CAPA_1
 10
-19.2237
 20
-2.3134
  0
VERTEX
  8
CAPA_1
 10
-18.9689
 20
-2.1924
  0
VERTEX
  8
CAPA_1
 10
-18.7452
 20
-2.0486
  0
VERTEX
  8
CAPA_1
 10
-18.5526
 20
-1.8819
  0
VERTEX
  8
CAPA_1
 10
-18.3911
 20
-1.6925
  0
VERTEX
  8
CAPA_1
 10
-18.2008
 20
-1.3551
  0
VERTEX
  8
CAPA_1
 10
-18.1053
 20
-1.0569
  0
VERTEX
  8
CAPA_1
 10
-18.0579
 20
-0.7088
  0
VERTEX
  8
CAPA_1
 10
-17.9502
 20
-0.7871
  0
VERTEX
  8
CAPA_1
 10
-18.0241
 20
-1.3763
  0
VERTEX
  8
CAPA_1
 10
-18.2365
 20
-1.8036
  0
VERTEX
  8
CAPA_1
 10
-18.6396
 20
-2.1767
  0
VERTEX
  8
CAPA_1
 10
-19.116
 20
-2.3917
  0
SEQEND
  8
CAPA_1
  0
POLYLINE
  8
CAPA_1
 66
     1
 70
     1
  0
VERTEX
  8
CAPA_1
 10
-18.8575
 20
3.5623
  0
VERTEX
  8
CAPA_1
 10
-19.7402
 20
4.2036
  0
VERTEX
  8
CAPA_1
 10
-20.8479
 20
2.679
  0
VERTEX
  8
CAPA_1
 10
-19.9652
 20
2.0376
  0
VERTEX
  8
CAPA_1
 10
-18.8575
 20
3.5623
  0
SEQEND
  8
CAPA_1
  0
POLYLINE
  8
CAPA_1
 66
     1
 70
     1
  0
VERTEX
  8
CAPA_1
 10
-20.1469
 20
4.5708
  0
VERTEX
  8
CAPA_1
 10
-21.0296
 20
5.2122
  0
VERTEX
  8
CAPA_1
 10
-22.1373
 20
3.6875
  0
VERTEX
  8
CAPA_1
 10
-21.2546
 20
3.0462
  0
VERTEX
  8
CAPA_1
 10
-20.1469
 20
4.5708
  0
SEQEND
  8
CAPA_1
  0
POLYLINE
  8
CAPA_1
 66
     1
 70
     1
  0
VERTEX
  8
CAPA_1
 10
-21.4198
 20
5.5792
  0
VERTEX
  8
CAPA_1
 10
-22.3026
 20
6.2206
  0
VERTEX
  8
CAPA_1
 10
-23.4103
 20
4.6959
  0
VERTEX
  8
CAPA_1
 10
-22.5276
 20
4.0546
  0
VERTEX
  8
CAPA_1
 10
-21.4198
 20
5.5792
  0
SEQEND
  8
CAPA_1
  0
POLYLINE
  8
CAPA_1
 66
     1
 70
     1
  0
VERTEX
  8
CAPA_1
 10
-22.7094
 20
6.5547
  0
VERTEX
  8
CAPA_1
 10
-23.5921
 20
7.196
  0
VERTEX
  8
CAPA_1
 10
-24.6998
 20
5.6713
  0
VERTEX
  8
CAPA_1
 10
-23.8171
 20
5.03
  0
VERTEX
  8
CAPA_1
 10
-22.7094
 20
6.5547
  0
SEQEND
  8
CAPA_1
  0
POLYLINE
  8
CAPA_1
 66
     1
 70
     1
  0
VERTEX
  8
CAPA_1
 10
-23.9823
 20
7.4473
  0
VERTEX
  8
CAPA_1
 10
-24.8651
 20
8.0886
  0
VERTEX
  8
CAPA_1
 10
-25.9728
 20
6.564
  0
VERTEX
  8
CAPA_1
 10
-25.0901
 20
5.9227
  0
VERTEX
  8
CAPA_1
 10
-23.9823
 20
7.4473
  0
SEQEND
  8
CAPA_1
  0
POLYLINE
  8
CAPA_1
 66
     1
 70
     1
  0
VERTEX
  8
CAPA_1
 10
-25.2719
 20
8.3897
  0
VERTEX
  8
CAPA_1
 10
-26.1546
 20
9.031
  0
VERTEX
  8
CAPA_1
 10
-27.2623
 20
7.5063
  0
VERTEX
  8
CAPA_1
 10
-26.3796
 20
6.865
  0
VERTEX
  8
CAPA_1
 10
-25.2719
 20
8.3897
  0
SEQEND
  8
CAPA_1
  0
POLYLINE
  8
CAPA_1
 66
     1
 70
     1
  0
VERTEX
  8
CAPA_1
 10
-26.5613
 20
9.3467
  0
VERTEX
  8
CAPA_1
 10
-27.444
 20
9.988
  0
VERTEX
  8
CAPA_1
 10
-28.5518
 20
8.4634
  0
VERTEX
  8
CAPA_1
 10
-27.669
 20
7.822
  0
VERTEX
  8
CAPA_1
 10
-26.5613
 20
9.3467
  0
SEQEND
  8
CAPA_1
  0
POLYLINE
  8
CAPA_1
 66
     1
 70
     1
  0
VERTEX
  8
CAPA_1
 10
-27.7682
 20
10.3405
  0
VERTEX
  8
CAPA_1
 10
-28.6509
 20
10.9818
  0
VERTEX
  8
CAPA_1
 10
-29.7586
 20
9.4572
  0
VERTEX
  8
CAPA_1
 10
-28.8759
 20
8.8159
  0
VERTEX
  8
CAPA_1
 10
-27.7682
 20
10.3405
  0
SEQEND
  8
CAPA_1
  0
POLYLINE
  8
CAPA_1
 66
     1
 70
     1
  0
VERTEX
  8
CAPA_1
 10
-18.4548
 20
4.683
  0
VERTEX
  8
CAPA_1
 10
-18.5746
 20
4.77
  0
VERTEX
  8
CAPA_1
 10
-18.2604
 20
5.2025
  0
VERTEX
  8
CAPA_1
 10
-17.8818
 20
4.9274
  0
VERTEX
  8
CAPA_1
 10
-17.9117
 20
4.6351
  0
VERTEX
  8
CAPA_1
 10
-18.0296
 20
4.3887
  0
VERTEX
  8
CAPA_1
 10
-18.2929
 20
4.162
  0
VERTEX
  8
CAPA_1
 10
-18.6139
 20
4.1118
  0
VERTEX
  8
CAPA_1
 10
-18.9318
 20
4.2469
  0
VERTEX
  8
CAPA_1
 10
-19.1651
 20
4.5116
  0
VERTEX
  8
CAPA_1
 10
-19.2264
 20
4.8302
  0
VERTEX
  8
CAPA_1
 10
-19.0932
 20
5.1455
  0
VERTEX
  8
CAPA_1
 10
-18.9118
 20
5.3196
  0
VERTEX
  8
CAPA_1
 10
-18.7101
 20
5.3874
  0
VERTEX
  8
CAPA_1
 10
-18.4864
 20
5.3431
  0
VERTEX
  8
CAPA_1
 10
-18.5417
 20
5.1968
  0
VERTEX
  8
CAPA_1
 10
-18.706
 20
5.2289
  0
VERTEX
  8
CAPA_1
 10
-18.8481
 20
5.1833
  0
VERTEX
  8
CAPA_1
 10
-18.9772
 20
5.0622
  0
VERTEX
  8
CAPA_1
 10
-19.0652
 20
4.8816
  0
VERTEX
  8
CAPA_1
 10
-19.0698
 20
4.7185
  0
VERTEX
  8
CAPA_1
 10
-19.0154
 20
4.5809
  0
VERTEX
  8
CAPA_1
 10
-18.8378
 20
4.3922
  0
VERTEX
  8
CAPA_1
 10
-18.5745
 20
4.2726
  0
VERTEX
  8
CAPA_1
 10
-18.3384
 20
4.31
  0
VERTEX
  8
CAPA_1
 10
-18.1551
 20
4.4682
  0
VERTEX
  8
CAPA_1
 10
-18.0647
 20
4.6641
  0
VERTEX
  8
CAPA_1
 10
-18.0455
 20
4.8435
  0
VERTEX
  8
CAPA_1
 10
-18.237
 20
4.9827
  0
VERTEX
  8
CAPA_1
 10
-18.4548
 20
4.683
  0
SEQEND
  8
CAPA_1
  0
POLYLINE
  8
CAPA_1
 66
     1
 70
     1
  0
VERTEX
  8
CAPA_1
 10
-17.4059
 20
5.2834
  0
VERTEX
  8
CAPA_1
 10
-18.3078
 20
5.9386
  0
VERTEX
  8
CAPA_1
 10
-18.5525
 20
5.6018
  0
VERTEX
  8
CAPA_1
 10
-18.6724
 20
5.6889
  0
VERTEX
  8
CAPA_1
 10
-18.0846
 20
6.498
  0
VERTEX
  8
CAPA_1
 10
-17.9647
 20
6.4109
  0
VERTEX
  8
CAPA_1
 10
-18.2094
 20
6.0741
  0
VERTEX
  8
CAPA_1
 10
-17.3075
 20
5.4189
  0
VERTEX
  8
CAPA_1
 10
-17.4059
 20
5.2834
  0
SEQEND
  8
CAPA_1
  0
POLYLINE
  8
CAPA_1
 66
     1
 70
     1
  0
VERTEX
  8
CAPA_1
 10
-16.9614
 20
5.8952
  0
VERTEX
  8
CAPA_1
 10
-17.9831
 20
6.6375
  0
VERTEX
  8
CAPA_1
 10
-17.7274
 20
6.9896
  0
VERTEX
  8
CAPA_1
 10
-17.5806
 20
7.1609
  0
VERTEX
  8
CAPA_1
 10
-17.3986
 20
7.2576
  0
VERTEX
  8
CAPA_1
 10
-17.1362
 20
7.2516
  0
VERTEX
  8
CAPA_1
 10
-16.8639
 20
7.1151
  0
VERTEX
  8
CAPA_1
 10
-16.6775
 20
6.9382
  0
VERTEX
  8
CAPA_1
 10
-16.5791
 20
6.7603
  0
VERTEX
  8
CAPA_1
 10
-16.5544
 20
6.6
  0
VERTEX
  8
CAPA_1
 10
-16.5915
 20
6.4408
  0
VERTEX
  8
CAPA_1
 10
-16.6935
 20
6.2638
  0
VERTEX
  8
CAPA_1
 10
-16.9614
 20
5.8952
  0
SEQEND
  8
CAPA_1
  0
POLYLINE
  8
CAPA_1
 66
     1
 70
     1
  0
VERTEX
  8
CAPA_1
 10
-16.9827
 20
6.1179
  0
VERTEX
  8
CAPA_1
 10
-16.8244
 20
6.3357
  0
VERTEX
  8
CAPA_1
 10
-16.7281
 20
6.5078
  0
VERTEX
  8
CAPA_1
 10
-16.7147
 20
6.6379
  0
VERTEX
  8
CAPA_1
 10
-16.79
 20
6.8068
  0
VERTEX
  8
CAPA_1
 10
-16.9677
 20
6.9769
  0
VERTEX
  8
CAPA_1
 10
-17.2527
 20
7.1036
  0
VERTEX
  8
CAPA_1
 10
-17.4611
 20
7.0599
  0
VERTEX
  8
CAPA_1
 10
-17.609
 20
6.9003
  0
VERTEX
  8
CAPA_1
 10
-17.7647
 20
6.686
  0
VERTEX
  8
CAPA_1
 10
-16.9827
 20
6.1179
  0
SEQEND
  8
CAPA_1
  0
POLYLINE
  8
CAPA_1
 66
     1
 70
     1
  0
VERTEX
  8
CAPA_1
 10
-19.3044
 20
5.5988
  0
VERTEX
  8
CAPA_1
 10
-20.6131
 20
5.9463
  0
VERTEX
  8
CAPA_1
 10
-20.5067
 20
6.0929
  0
VERTEX
  8
CAPA_1
 10
-19.5712
 20
5.8188
  0
VERTEX
  8
CAPA_1
 10
-19.3652
 20
5.7509
  0
VERTEX
  8
CAPA_1
 10
-19.4924
 20
5.9273
  0
VERTEX
  8
CAPA_1
 10
-20.0349
 20
6.7422
  0
VERTEX
  8
CAPA_1
 10
-19.9347
 20
6.8801
  0
VERTEX
  8
CAPA_1
 10
-19.2023
 20
5.7394
  0
VERTEX
  8
CAPA_1
 10
-19.3044
 20
5.5988
  0
SEQEND
  8
CAPA_1
  0
POLYLINE
  8
CAPA_1
 66
     1
 70
     1
  0
VERTEX
  8
CAPA_1
 10
-18.7555
 20
6.9245
  0
VERTEX
  8
CAPA_1
 10
-18.6492
 20
7.0349
  0
VERTEX
  8
CAPA_1
 10
-18.5261
 20
6.7877
  0
VERTEX
  8
CAPA_1
 10
-18.6029
 20
6.5314
  0
VERTEX
  8
CAPA_1
 10
-18.6615
 20
6.4638
  0
VERTEX
  8
CAPA_1
 10
-18.7272
 20
6.4126
  0
VERTEX
  8
CAPA_1
 10
-18.7997
 20
6.3779
  0
VERTEX
  8
CAPA_1
 10
-18.8793
 20
6.3596
  0
VERTEX
  8
CAPA_1
 10
-18.9635
 20
6.3591
  0
VERTEX
  8
CAPA_1
 10
-19.0501
 20
6.378
  0
VERTEX
  8
CAPA_1
 10
-19.139
 20
6.4162
  0
VERTEX
  8
CAPA_1
 10
-19.2302
 20
6.4737
  0
VERTEX
  8
CAPA_1
 10
-19.4109
 20
6.6657
  0
VERTEX
  8
CAPA_1
 10
-19.4575
 20
6.8841
  0
VERTEX
  8
CAPA_1
 10
-19.3743
 20
7.0932
  0
VERTEX
  8
CAPA_1
 10
-19.1703
 20
7.2459
  0
VERTEX
  8
CAPA_1
 10
-18.9258
 20
7.2184
  0
VERTEX
  8
CAPA_1
 10
-18.9954
 20
7.0836
  0
VERTEX
  8
CAPA_1
 10
-19.1526
 20
7.1033
  0
VERTEX
  8
CAPA_1
 10
-19.2679
 20
7.0236
  0
VERTEX
  8
CAPA_1
 10
-19.3123
 20
6.82
  0
VERTEX
  8
CAPA_1
 10
-19.1405
 20
6.6047
  0
VERTEX
  8
CAPA_1
 10
-18.8826
 20
6.5046
  0
VERTEX
  8
CAPA_1
 10
-18.7067
 20
6.6046
  0
VERTEX
  8
CAPA_1
 10
-18.6623
 20
6.7609
  0
VERTEX
  8
CAPA_1
 10
-18.7555
 20
6.9245
  0
SEQEND
  8
CAPA_1
  0
POLYLINE
  8
CAPA_1
 66
     1
 70
     1
  0
VERTEX
  8
CAPA_1
 10
-18.237
 20
7.6381
  0
VERTEX
  8
CAPA_1
 10
-18.1307
 20
7.7485
  0
VERTEX
  8
CAPA_1
 10
-18.0076
 20
7.5013
  0
VERTEX
  8
CAPA_1
 10
-18.0844
 20
7.245
  0
VERTEX
  8
CAPA_1
 10
-18.143
 20
7.1774
  0
VERTEX
  8
CAPA_1
 10
-18.2087
 20
7.1262
  0
VERTEX
  8
CAPA_1
 10
-18.2812
 20
7.0915
  0
VERTEX
  8
CAPA_1
 10
-18.3608
 20
7.0732
  0
VERTEX
  8
CAPA_1
 10
-18.445
 20
7.0727
  0
VERTEX
  8
CAPA_1
 10
-18.5316
 20
7.0916
  0
VERTEX
  8
CAPA_1
 10
-18.6205
 20
7.1298
  0
VERTEX
  8
CAPA_1
 10
-18.7117
 20
7.1873
  0
VERTEX
  8
CAPA_1
 10
-18.8924
 20
7.3793
  0
VERTEX
  8
CAPA_1
 10
-18.939
 20
7.5977
  0
VERTEX
  8
CAPA_1
 10
-18.8558
 20
7.8068
  0
VERTEX
  8
CAPA_1
 10
-18.6518
 20
7.9595
  0
VERTEX
  8
CAPA_1
 10
-18.4073
 20
7.932
  0
VERTEX
  8
CAPA_1
 10
-18.4769
 20
7.7972
  0
VERTEX
  8
CAPA_1
 10
-18.6341
 20
7.8169
  0
VERTEX
  8
CAPA_1
 10
-18.7494
 20
7.7372
  0
VERTEX
  8
CAPA_1
 10
-18.7938
 20
7.5336
  0
VERTEX
  8
CAPA_1
 10
-18.622
 20
7.3183
  0
VERTEX
  8
CAPA_1
 10
-18.3641
 20
7.2182
  0
VERTEX
  8
CAPA_1
 10
-18.1882
 20
7.3182
  0
VERTEX
  8
CAPA_1
 10
-18.1438
 20
7.4745
  0
VERTEX
  8
CAPA_1
 10
-18.237
 20
7.6381
  0
SEQEND
  8
CAPA_1
  0
POLYLINE
  8
CAPA_1
 66
     1
 70
     1
  0
VERTEX
  8
CAPA_1
 10
-20.6408
 20
6.0378
  0
VERTEX
  8
CAPA_1
 10
-21.6626
 20
6.7802
  0
VERTEX
  8
CAPA_1
 10
-21.1618
 20
7.4694
  0
VERTEX
  8
CAPA_1
 10
-21.0419
 20
7.3823
  0
VERTEX
  8
CAPA_1
 10
-21.4442
 20
6.8286
  0
VERTEX
  8
CAPA_1
 10
-21.1259
 20
6.5974
  0
VERTEX
  8
CAPA_1
 10
-20.7776
 20
7.0769
  0
VERTEX
  8
CAPA_1
 10
-20.6577
 20
6.9899
  0
VERTEX
  8
CAPA_1
 10
-21.0061
 20
6.5104
  0
VERTEX
  8
CAPA_1
 10
-20.5423
 20
6.1734
  0
VERTEX
  8
CAPA_1
 10
-20.6408
 20
6.0378
  0
SEQEND
  8
CAPA_1
  0
POLYLINE
  8
CAPA_1
 66
     1
 70
     1
  0
VERTEX
  8
CAPA_1
 10
-19.824
 20
7.162
  0
VERTEX
  8
CAPA_1
 10
-20.7259
 20
7.8173
  0
VERTEX
  8
CAPA_1
 10
-20.9705
 20
7.4805
  0
VERTEX
  8
CAPA_1
 10
-21.0904
 20
7.5676
  0
VERTEX
  8
CAPA_1
 10
-20.5026
 20
8.3767
  0
VERTEX
  8
CAPA_1
 10
-20.3827
 20
8.2896
  0
VERTEX
  8
CAPA_1
 10
-20.6274
 20
7.9528
  0
VERTEX
  8
CAPA_1
 10
-19.7255
 20
7.2976
  0
VERTEX
  8
CAPA_1
 10
-19.824
 20
7.162
  0
SEQEND
  8
CAPA_1
  0
POLYLINE
  8
CAPA_1
 66
     1
 70
     1
  0
VERTEX
  8
CAPA_1
 10
-21.9465
 20
7.0922
  0
VERTEX
  8
CAPA_1
 10
-22.9683
 20
7.8346
  0
VERTEX
  8
CAPA_1
 10
-22.4675
 20
8.5239
  0
VERTEX
  8
CAPA_1
 10
-22.3476
 20
8.4368
  0
VERTEX
  8
CAPA_1
 10
-22.7499
 20
7.8831
  0
VERTEX
  8
CAPA_1
 10
-22.4316
 20
7.6519
  0
VERTEX
  8
CAPA_1
 10
-22.0833
 20
8.1314
  0
VERTEX
  8
CAPA_1
 10
-21.9634
 20
8.0443
  0
VERTEX
  8
CAPA_1
 10
-22.3118
 20
7.5648
  0
VERTEX
  8
CAPA_1
 10
-21.848
 20
7.2278
  0
VERTEX
  8
CAPA_1
 10
-21.9465
 20
7.0922
  0
SEQEND
  8
CAPA_1
  0
POLYLINE
  8
CAPA_1
 66
     1
 70
     1
  0
VERTEX
  8
CAPA_1
 10
-21.3132
 20
7.9638
  0
VERTEX
  8
CAPA_1
 10
-22.335
 20
8.7062
  0
VERTEX
  8
CAPA_1
 10
-21.8342
 20
9.3955
  0
VERTEX
  8
CAPA_1
 10
-21.7143
 20
9.3084
  0
VERTEX
  8
CAPA_1
 10
-22.1166
 20
8.7547
  0
VERTEX
  8
CAPA_1
 10
-21.7983
 20
8.5235
  0
VERTEX
  8
CAPA_1
 10
-21.45
 20
9.003
  0
VERTEX
  8
CAPA_1
 10
-21.3301
 20
8.9159
  0
VERTEX
  8
CAPA_1
 10
-21.6785
 20
8.4364
  0
VERTEX
  8
CAPA_1
 10
-21.2147
 20
8.0994
  0
VERTEX
  8
CAPA_1
 10
-21.3132
 20
7.9638
  0
SEQEND
  8
CAPA_1
  0
POLYLINE
  8
CAPA_1
 66
     1
 70
     1
  0
VERTEX
  8
CAPA_1
 10
-24.0156
 20
8.0858
  0
VERTEX
  8
CAPA_1
 10
-23.9348
 20
8.2211
  0
VERTEX
  8
CAPA_1
 10
-23.7776
 20
8.1714
  0
VERTEX
  8
CAPA_1
 10
-23.623
 20
8.216
  0
VERTEX
  8
CAPA_1
 10
-23.4788
 20
8.3506
  0
VERTEX
  8
CAPA_1
 10
-23.4027
 20
8.5039
  0
VERTEX
  8
CAPA_1
 10
-23.4022
 20
8.638
  0
VERTEX
  8
CAPA_1
 10
-23.4687
 20
8.7307
  0
VERTEX
  8
CAPA_1
 10
-23.5726
 20
8.7637
  0
VERTEX
  8
CAPA_1
 10
-23.6997
 20
8.7154
  0
VERTEX
  8
CAPA_1
 10
-23.8816
 20
8.5695
  0
VERTEX
  8
CAPA_1
 10
-24.0886
 20
8.4187
  0
VERTEX
  8
CAPA_1
 10
-24.2629
 20
8.3793
  0
VERTEX
  8
CAPA_1
 10
-24.4162
 20
8.4358
  0
VERTEX
  8
CAPA_1
 10
-24.5291
 20
8.5851
  0
VERTEX
  8
CAPA_1
 10
-24.5382
 20
8.7875
  0
VERTEX
  8
CAPA_1
 10
-24.437
 20
9.0004
  0
VERTEX
  8
CAPA_1
 10
-24.2549
 20
9.174
  0
VERTEX
  8
CAPA_1
 10
-24.0503
 20
9.2291
  0
VERTEX
  8
CAPA_1
 10
-23.8527
 20
9.1623
  0
VERTEX
  8
CAPA_1
 10
-23.9371
 20
9.0252
  0
VERTEX
  8
CAPA_1
 10
-24.1345
 20
9.0607
  0
VERTEX
  8
CAPA_1
 10
-24.3134
 20
8.9185
  0
VERTEX
  8
CAPA_1
 10
-24.3983
 20
8.707
  0
VERTEX
  8
CAPA_1
 10
-24.3306
 20
8.572
  0
VERTEX
  8
CAPA_1
 10
-24.2112
 20
8.5459
  0
VERTEX
  8
CAPA_1
 10
-23.9904
 20
8.6969
  0
VERTEX
  8
CAPA_1
 10
-23.7608
 20
8.8757
  0
VERTEX
  8
CAPA_1
 10
-23.5613
 20
8.9317
  0
VERTEX
  8
CAPA_1
 10
-23.3857
 20
8.8688
  0
VERTEX
  8
CAPA_1
 10
-23.2662
 20
8.7108
  0
VERTEX
  8
CAPA_1
 10
-23.2514
 20
8.4955
  0
VERTEX
  8
CAPA_1
 10
-23.3544
 20
8.2697
  0
VERTEX
  8
CAPA_1
 10
-23.5633
 20
8.0672
  0
VERTEX
  8
CAPA_1
 10
-23.7915
 20
8.0087
  0
VERTEX
  8
CAPA_1
 10
-24.0156
 20
8.0858
  0
SEQEND
  8
CAPA_1
  0
POLYLINE
  8
CAPA_1
 66
     1
 70
     1
  0
VERTEX
  8
CAPA_1
 10
-22.6579
 20
9.2644
  0
VERTEX
  8
CAPA_1
 10
-22.7492
 20
9.1388
  0
VERTEX
  8
CAPA_1
 10
-23.5488
 20
9.7198
  0
VERTEX
  8
CAPA_1
 10
-23.5486
 20
9.538
  0
VERTEX
  8
CAPA_1
 10
-23.58
 20
9.3587
  0
VERTEX
  8
CAPA_1
 10
-23.7012
 20
9.4468
  0
VERTEX
  8
CAPA_1
 10
-23.6874
 20
9.718
  0
VERTEX
  8
CAPA_1
 10
-23.7427
 20
9.929
  0
VERTEX
  8
CAPA_1
 10
-23.6839
 20
10.0099
  0
VERTEX
  8
CAPA_1
 10
-22.6579
 20
9.2644
  0
SEQEND
  8
CAPA_1
  0
POLYLINE
  8
CAPA_1
 66
     1
 70
     1
  0
VERTEX
  8
CAPA_1
 10
-22.1984
 20
9.8969
  0
VERTEX
  8
CAPA_1
 10
-23.1003
 20
10.5522
  0
VERTEX
  8
CAPA_1
 10
-23.345
 20
10.2154
  0
VERTEX
  8
CAPA_1
 10
-23.4649
 20
10.3025
  0
VERTEX
  8
CAPA_1
 10
-22.8771
 20
11.1116
  0
VERTEX
  8
CAPA_1
 10
-22.7572
 20
11.0245
  0
VERTEX
  8
CAPA_1
 10
-23.0019
 20
10.6877
  0
VERTEX
  8
CAPA_1
 10
-22.1
 20
10.0324
  0
VERTEX
  8
CAPA_1
 10
-22.1984
 20
9.8969
  0
SEQEND
  8
CAPA_1
  0
POLYLINE
  8
CAPA_1
 66
     1
 70
     1
  0
VERTEX
  8
CAPA_1
 10
-25.2773
 20
9.0079
  0
VERTEX
  8
CAPA_1
 10
-25.1965
 20
9.1432
  0
VERTEX
  8
CAPA_1
 10
-25.0393
 20
9.0934
  0
VERTEX
  8
CAPA_1
 10
-24.8847
 20
9.1381
  0
VERTEX
  8
CAPA_1
 10
-24.7404
 20
9.2727
  0
VERTEX
  8
CAPA_1
 10
-24.6643
 20
9.4259
  0
VERTEX
  8
CAPA_1
 10
-24.6639
 20
9.5601
  0
VERTEX
  8
CAPA_1
 10
-24.7303
 20
9.6527
  0
VERTEX
  8
CAPA_1
 10
-24.8343
 20
9.6858
  0
VERTEX
  8
CAPA_1
 10
-24.9614
 20
9.6374
  0
VERTEX
  8
CAPA_1
 10
-25.1432
 20
9.4916
  0
VERTEX
  8
CAPA_1
 10
-25.3502
 20
9.3407
  0
VERTEX
  8
CAPA_1
 10
-25.5246
 20
9.3014
  0
VERTEX
  8
CAPA_1
 10
-25.6779
 20
9.3579
  0
VERTEX
  8
CAPA_1
 10
-25.7907
 20
9.5071
  0
VERTEX
  8
CAPA_1
 10
-25.7999
 20
9.7096
  0
VERTEX
  8
CAPA_1
 10
-25.6987
 20
9.9224
  0
VERTEX
  8
CAPA_1
 10
-25.5165
 20
10.096
  0
VERTEX
  8
CAPA_1
 10
-25.3119
 20
10.1512
  0
VERTEX
  8
CAPA_1
 10
-25.1144
 20
10.0844
  0
VERTEX
  8
CAPA_1
 10
-25.1988
 20
9.9472
  0
VERTEX
  8
CAPA_1
 10
-25.3961
 20
9.9827
  0
VERTEX
  8
CAPA_1
 10
-25.5751
 20
9.8405
  0
VERTEX
  8
CAPA_1
 10
-25.66
 20
9.6291
  0
VERTEX
  8
CAPA_1
 10
-25.5923
 20
9.4941
  0
VERTEX
  8
CAPA_1
 10
-25.4728
 20
9.468
  0
VERTEX
  8
CAPA_1
 10
-25.252
 20
9.6189
  0
VERTEX
  8
CAPA_1
 10
-25.0225
 20
9.7978
  0
VERTEX
  8
CAPA_1
 10
-24.823
 20
9.8538
  0
VERTEX
  8
CAPA_1
 10
-24.6474
 20
9.7909
  0
VERTEX
  8
CAPA_1
 10
-24.5279
 20
9.6328
  0
VERTEX
  8
CAPA_1
 10
-24.5131
 20
9.4175
  0
VERTEX
  8
CAPA_1
 10
-24.6161
 20
9.1917
  0
VERTEX
  8
CAPA_1
 10
-24.825
 20
8.9893
  0
VERTEX
  8
CAPA_1
 10
-25.0531
 20
8.9308
  0
VERTEX
  8
CAPA_1
 10
-25.2773
 20
9.0079
  0
SEQEND
  8
CAPA_1
  0
POLYLINE
  8
CAPA_1
 66
     1
 70
     1
  0
VERTEX
  8
CAPA_1
 10
-23.9196
 20
10.1865
  0
VERTEX
  8
CAPA_1
 10
-24.0109
 20
10.0609
  0
VERTEX
  8
CAPA_1
 10
-24.8105
 20
10.6418
  0
VERTEX
  8
CAPA_1
 10
-24.8103
 20
10.4601
  0
VERTEX
  8
CAPA_1
 10
-24.8417
 20
10.2808
  0
VERTEX
  8
CAPA_1
 10
-24.9629
 20
10.3689
  0
VERTEX
  8
CAPA_1
 10
-24.9491
 20
10.6401
  0
VERTEX
  8
CAPA_1
 10
-25.0043
 20
10.851
  0
VERTEX
  8
CAPA_1
 10
-24.9456
 20
10.9319
  0
VERTEX
  8
CAPA_1
 10
-23.9196
 20
10.1865
  0
SEQEND
  8
CAPA_1
  0
POLYLINE
  8
CAPA_1
 66
     1
 70
     1
  0
VERTEX
  8
CAPA_1
 10
-23.6437
 20
10.5663
  0
VERTEX
  8
CAPA_1
 10
-24.6655
 20
11.3087
  0
VERTEX
  8
CAPA_1
 10
-24.1647
 20
11.998
  0
VERTEX
  8
CAPA_1
 10
-24.0448
 20
11.9109
  0
VERTEX
  8
CAPA_1
 10
-24.4471
 20
11.3572
  0
VERTEX
  8
CAPA_1
 10
-24.1288
 20
11.1259
  0
VERTEX
  8
CAPA_1
 10
-23.7804
 20
11.6054
  0
VERTEX
  8
CAPA_1
 10
-23.6606
 20
11.5184
  0
VERTEX
  8
CAPA_1
 10
-24.009
 20
11.0389
  0
VERTEX
  8
CAPA_1
 10
-23.5452
 20
10.7019
  0
VERTEX
  8
CAPA_1
 10
-23.6437
 20
10.5663
  0
SEQEND
  8
CAPA_1
  0
POLYLINE
  8
CAPA_1
 66
     1
 70
     1
  0
VERTEX
  8
CAPA_1
 10
-25.3874
 20
11.5566
  0
VERTEX
  8
CAPA_1
 10
-25.4911
 20
11.4379
  0
VERTEX
  8
CAPA_1
 10
-25.3952
 20
11.3038
  0
VERTEX
  8
CAPA_1
 10
-25.3899
 20
11.143
  0
VERTEX
  8
CAPA_1
 10
-25.4734
 20
10.9642
  0
VERTEX
  8
CAPA_1
 10
-25.5956
 20
10.8445
  0
VERTEX
  8
CAPA_1
 10
-25.723
 20
10.8026
  0
VERTEX
  8
CAPA_1
 10
-25.8317
 20
10.8371
  0
VERTEX
  8
CAPA_1
 10
-25.8952
 20
10.9258
  0
VERTEX
  8
CAPA_1
 10
-25.8885
 20
11.0616
  0
VERTEX
  8
CAPA_1
 10
-25.806
 20
11.2796
  0
VERTEX
  8
CAPA_1
 10
-25.7265
 20
11.5231
  0
VERTEX
  8
CAPA_1
 10
-25.7429
 20
11.7011
  0
VERTEX
  8
CAPA_1
 10
-25.8441
 20
11.8294
  0
VERTEX
  8
CAPA_1
 10
-26.0209
 20
11.8906
  0
VERTEX
  8
CAPA_1
 10
-26.2162
 20
11.8368
  0
VERTEX
  8
CAPA_1
 10
-26.3874
 20
11.6747
  0
VERTEX
  8
CAPA_1
 10
-26.4962
 20
11.4479
  0
VERTEX
  8
CAPA_1
 10
-26.4854
 20
11.2362
  0
VERTEX
  8
CAPA_1
 10
-26.3609
 20
11.069
  0
VERTEX
  8
CAPA_1
 10
-26.2565
 20
11.1917
  0
VERTEX
  8
CAPA_1
 10
-26.3512
 20
11.3684
  0
VERTEX
  8
CAPA_1
 10
-26.2713
 20
11.5825
  0
VERTEX
  8
CAPA_1
 10
-26.0964
 20
11.7286
  0
VERTEX
  8
CAPA_1
 10
-25.9472
 20
11.7059
  0
VERTEX
  8
CAPA_1
 10
-25.8854
 20
11.6004
  0
VERTEX
  8
CAPA_1
 10
-25.9607
 20
11.3437
  0
VERTEX
  8
CAPA_1
 10
-26.0599
 20
11.0702
  0
VERTEX
  8
CAPA_1
 10
-26.0515
 20
10.8631
  0
VERTEX
  8
CAPA_1
 10
-25.9374
 20
10.7156
  0
VERTEX
  8
CAPA_1
 10
-25.7502
 20
10.6507
  0
VERTEX
  8
CAPA_1
 10
-25.5408
 20
10.7032
  0
VERTEX
  8
CAPA_1
 10
-25.3579
 20
10.8709
  0
VERTEX
  8
CAPA_1
 10
-25.2299
 20
11.1322
  0
VERTEX
  8
CAPA_1
 10
-25.2448
 20
11.3672
  0
VERTEX
  8
CAPA_1
 10
-25.3874
 20
11.5566
  0
SEQEND
  8
CAPA_1
  0
POLYLINE
  8
CAPA_1
 66
     1
 70
     1
  0
VERTEX
  8
CAPA_1
 10
-26.3444
 20
9.8013
  0
VERTEX
  8
CAPA_1
 10
-26.2245
 20
9.7142
  0
VERTEX
  8
CAPA_1
 10
-25.7331
 20
10.3905
  0
VERTEX
  8
CAPA_1
 10
-25.8311
 20
10.4392
  0
VERTEX
  8
CAPA_1
 10
-26.0276
 20
10.4544
  0
VERTEX
  8
CAPA_1
 10
-26.3009
 20
10.4023
  0
VERTEX
  8
CAPA_1
 10
-26.6808
 20
10.3346
  0
VERTEX
  8
CAPA_1
 10
-26.8751
 20
10.3853
  0
VERTEX
  8
CAPA_1
 10
-26.9621
 20
10.5302
  0
VERTEX
  8
CAPA_1
 10
-26.9118
 20
10.7069
  0
VERTEX
  8
CAPA_1
 10
-26.7518
 20
10.8131
  0
VERTEX
  8
CAPA_1
 10
-26.5618
 20
10.7594
  0
VERTEX
  8
CAPA_1
 10
-26.4813
 20
10.8972
  0
VERTEX
  8
CAPA_1
 10
-26.5572
 20
10.9352
  0
VERTEX
  8
CAPA_1
 10
-26.6313
 20
10.9579
  0
VERTEX
  8
CAPA_1
 10
-26.7034
 20
10.9652
  0
VERTEX
  8
CAPA_1
 10
-26.7736
 20
10.9572
  0
VERTEX
  8
CAPA_1
 10
-26.8408
 20
10.9342
  0
VERTEX
  8
CAPA_1
 10
-26.9039
 20
10.897
  0
VERTEX
  8
CAPA_1
 10
-26.9629
 20
10.8455
  0
VERTEX
  8
CAPA_1
 10
-27.0179
 20
10.7798
  0
VERTEX
  8
CAPA_1
 10
-27.0635
 20
10.7064
  0
VERTEX
  8
CAPA_1
 10
-27.0934
 20
10.6332
  0
VERTEX
  8
CAPA_1
 10
-27.1074
 20
10.5603
  0
VERTEX
  8
CAPA_1
 10
-27.1055
 20
10.4877
  0
VERTEX
  8
CAPA_1
 10
-26.9656
 20
10.2547
  0
VERTEX
  8
CAPA_1
 10
-26.8267
 20
10.1924
  0
VERTEX
  8
CAPA_1
 10
-26.641
 20
10.1847
  0
VERTEX
  8
CAPA_1
 10
-26.3208
 20
10.2474
  0
VERTEX
  8
CAPA_1
 10
-26.0865
 20
10.2992
  0
VERTEX
  8
CAPA_1
 10
-25.98
 20
10.3029
  0
VERTEX
  8
CAPA_1
 10
-26.3444
 20
9.8013
  0
SEQEND
  8
CAPA_1
  0
POLYLINE
  8
CAPA_1
 66
     1
 70
     1
  0
VERTEX
  8
CAPA_1
 10
-27.793
 20
10.9211
  0
VERTEX
  8
CAPA_1
 10
-27.9187
 20
11.0124
  0
VERTEX
  8
CAPA_1
 10
-27.6367
 20
11.4005
  0
VERTEX
  8
CAPA_1
 10
-27.511
 20
11.3093
  0
VERTEX
  8
CAPA_1
 10
-27.793
 20
10.9211
  0
SEQEND
  8
CAPA_1
  0
POLYLINE
  8
CAPA_1
  6
NEW_LINE7
 62
   251
 66
     1
 70
     1
  0
VERTEX
  8
CAPA_1
  6
NEW_LINE7
 62
   251
 10
-39.2465
 20
6.3299
  0
VERTEX
  8
CAPA_1
  6
NEW_LINE7
 62
   251
 10
-40.5359
 20
6.3299
  0
VERTEX
  8
CAPA_1
  6
NEW_LINE7
 62
   251
 10
-40.6027
 20
6.3231
  0
VERTEX
  8
CAPA_1
  6
NEW_LINE7
 62
   251
 10
-40.6649
 20
6.3037
  0
VERTEX
  8
CAPA_1
  6
NEW_LINE7
 62
   251
 10
-40.7214
 20
6.2729
  0
VERTEX
  8
CAPA_1
  6
NEW_LINE7
 62
   251
 10
-40.7706
 20
6.2323
  0
VERTEX
  8
CAPA_1
  6
NEW_LINE7
 62
   251
 10
-40.8113
 20
6.183
  0
VERTEX
  8
CAPA_1
  6
NEW_LINE7
 62
   251
 10
-40.842
 20
6.1266
  0
VERTEX
  8
CAPA_1
  6
NEW_LINE7
 62
   251
 10
-40.8614
 20
6.0643
  0
VERTEX
  8
CAPA_1
  6
NEW_LINE7
 62
   251
 10
-40.8682
 20
5.9976
  0
VERTEX
  8
CAPA_1
  6
NEW_LINE7
 62
   251
 10
-40.8682
 20
5.519
  0
VERTEX
  8
CAPA_1
  6
NEW_LINE7
 62
   251
 10
-40.8614
 20
5.4522
  0
VERTEX
  8
CAPA_1
  6
NEW_LINE7
 62
   251
 10
-40.842
 20
5.3899
  0
VERTEX
  8
CAPA_1
  6
NEW_LINE7
 62
   251
 10
-40.8113
 20
5.3335
  0
VERTEX
  8
CAPA_1
  6
NEW_LINE7
 62
   251
 10
-40.7706
 20
5.2842
  0
VERTEX
  8
CAPA_1
  6
NEW_LINE7
 62
   251
 10
-40.7214
 20
5.2435
  0
VERTEX
  8
CAPA_1
  6
NEW_LINE7
 62
   251
 10
-40.6649
 20
5.2128
  0
VERTEX
  8
CAPA_1
  6
NEW_LINE7
 62
   251
 10
-40.6027
 20
5.1934
  0
VERTEX
  8
CAPA_1
  6
NEW_LINE7
 62
   251
 10
-40.5359
 20
5.1866
  0
VERTEX
  8
CAPA_1
  6
NEW_LINE7
 62
   251
 10
-39.2465
 20
5.1866
  0
VERTEX
  8
CAPA_1
  6
NEW_LINE7
 62
   251
 10
-39.1797
 20
5.1934
  0
VERTEX
  8
CAPA_1
  6
NEW_LINE7
 62
   251
 10
-39.1175
 20
5.2128
  0
VERTEX
  8
CAPA_1
  6
NEW_LINE7
 62
   251
 10
-39.061
 20
5.2435
  0
VERTEX
  8
CAPA_1
  6
NEW_LINE7
 62
   251
 10
-39.0118
 20
5.2842
  0
VERTEX
  8
CAPA_1
  6
NEW_LINE7
 62
   251
 10
-38.9711
 20
5.3335
  0
VERTEX
  8
CAPA_1
  6
NEW_LINE7
 62
   251
 10
-38.9404
 20
5.3899
  0
VERTEX
  8
CAPA_1
  6
NEW_LINE7
 62
   251
 10
-38.921
 20
5.4522
  0
VERTEX
  8
CAPA_1
  6
NEW_LINE7
 62
   251
 10
-38.9142
 20
5.519
  0
VERTEX
  8
CAPA_1
  6
NEW_LINE7
 62
   251
 10
-38.9142
 20
5.9976
  0
VERTEX
  8
CAPA_1
  6
NEW_LINE7
 62
   251
 10
-38.921
 20
6.0643
  0
VERTEX
  8
CAPA_1
  6
NEW_LINE7
 62
   251
 10
-38.9404
 20
6.1266
  0
VERTEX
  8
CAPA_1
  6
NEW_LINE7
 62
   251
 10
-38.9711
 20
6.183
  0
VERTEX
  8
CAPA_1
  6
NEW_LINE7
 62
   251
 10
-39.0118
 20
6.2323
  0
VERTEX
  8
CAPA_1
  6
NEW_LINE7
 62
   251
 10
-39.061
 20
6.2729
  0
VERTEX
  8
CAPA_1
  6
NEW_LINE7
 62
   251
 10
-39.1175
 20
6.3037
  0
VERTEX
  8
CAPA_1
  6
NEW_LINE7
 62
   251
 10
-39.1797
 20
6.3231
  0
VERTEX
  8
CAPA_1
  6
NEW_LINE7
 62
   251
 10
-39.2465
 20
6.3299
  0
SEQEND
  8
CAPA_1
  6
NEW_LINE7
 62
   251
  0
POLYLINE
  8
CAPA_1
  6
NEW_LINE8
 62
   251
 66
     1
 70
     1
  0
VERTEX
  8
CAPA_1
  6
NEW_LINE8
 62
   251
 10
-43.9007
 20
6.3299
  0
VERTEX
  8
CAPA_1
  6
NEW_LINE8
 62
   251
 10
-45.1902
 20
6.3299
  0
VERTEX
  8
CAPA_1
  6
NEW_LINE8
 62
   251
 10
-45.2569
 20
6.3231
  0
VERTEX
  8
CAPA_1
  6
NEW_LINE8
 62
   251
 10
-45.3192
 20
6.3037
  0
VERTEX
  8
CAPA_1
  6
NEW_LINE8
 62
   251
 10
-45.3756
 20
6.2729
  0
VERTEX
  8
CAPA_1
  6
NEW_LINE8
 62
   251
 10
-45.4248
 20
6.2323
  0
VERTEX
  8
CAPA_1
  6
NEW_LINE8
 62
   251
 10
-45.4655
 20
6.183
  0
VERTEX
  8
CAPA_1
  6
NEW_LINE8
 62
   251
 10
-45.4962
 20
6.1266
  0
VERTEX
  8
CAPA_1
  6
NEW_LINE8
 62
   251
 10
-45.5156
 20
6.0643
  0
VERTEX
  8
CAPA_1
  6
NEW_LINE8
 62
   251
 10
-45.5224
 20
5.9976
  0
VERTEX
  8
CAPA_1
  6
NEW_LINE8
 62
   251
 10
-45.5224
 20
5.519
  0
VERTEX
  8
CAPA_1
  6
NEW_LINE8
 62
   251
 10
-45.5156
 20
5.4522
  0
VERTEX
  8
CAPA_1
  6
NEW_LINE8
 62
   251
 10
-45.4962
 20
5.3899
  0
VERTEX
  8
CAPA_1
  6
NEW_LINE8
 62
   251
 10
-45.4655
 20
5.3335
  0
VERTEX
  8
CAPA_1
  6
NEW_LINE8
 62
   251
 10
-45.4248
 20
5.2842
  0
VERTEX
  8
CAPA_1
  6
NEW_LINE8
 62
   251
 10
-45.3756
 20
5.2435
  0
VERTEX
  8
CAPA_1
  6
NEW_LINE8
 62
   251
 10
-45.3192
 20
5.2128
  0
VERTEX
  8
CAPA_1
  6
NEW_LINE8
 62
   251
 10
-45.2569
 20
5.1934
  0
VERTEX
  8
CAPA_1
  6
NEW_LINE8
 62
   251
 10
-45.1902
 20
5.1866
  0
VERTEX
  8
CAPA_1
  6
NEW_LINE8
 62
   251
 10
-43.9007
 20
5.1866
  0
VERTEX
  8
CAPA_1
  6
NEW_LINE8
 62
   251
 10
-43.8339
 20
5.1934
  0
VERTEX
  8
CAPA_1
  6
NEW_LINE8
 62
   251
 10
-43.7717
 20
5.2128
  0
VERTEX
  8
CAPA_1
  6
NEW_LINE8
 62
   251
 10
-43.7152
 20
5.2435
  0
VERTEX
  8
CAPA_1
  6
NEW_LINE8
 62
   251
 10
-43.666
 20
5.2842
  0
VERTEX
  8
CAPA_1
  6
NEW_LINE8
 62
   251
 10
-43.6253
 20
5.3335
  0
VERTEX
  8
CAPA_1
  6
NEW_LINE8
 62
   251
 10
-43.5946
 20
5.3899
  0
VERTEX
  8
CAPA_1
  6
NEW_LINE8
 62
   251
 10
-43.5752
 20
5.4522
  0
VERTEX
  8
CAPA_1
  6
NEW_LINE8
 62
   251
 10
-43.5684
 20
5.519
  0
VERTEX
  8
CAPA_1
  6
NEW_LINE8
 62
   251
 10
-43.5684
 20
5.9976
  0
VERTEX
  8
CAPA_1
  6
NEW_LINE8
 62
   251
 10
-43.5752
 20
6.0643
  0
VERTEX
  8
CAPA_1
  6
NEW_LINE8
 62
   251
 10
-43.5946
 20
6.1266
  0
VERTEX
  8
CAPA_1
  6
NEW_LINE8
 62
   251
 10
-43.6253
 20
6.183
  0
VERTEX
  8
CAPA_1
  6
NEW_LINE8
 62
   251
 10
-43.666
 20
6.2323
  0
VERTEX
  8
CAPA_1
  6
NEW_LINE8
 62
   251
 10
-43.7152
 20
6.2729
  0
VERTEX
  8
CAPA_1
  6
NEW_LINE8
 62
   251
 10
-43.7717
 20
6.3037
  0
VERTEX
  8
CAPA_1
  6
NEW_LINE8
 62
   251
 10
-43.8339
 20
6.3231
  0
VERTEX
  8
CAPA_1
  6
NEW_LINE8
 62
   251
 10
-43.9007
 20
6.3299
  0
SEQEND
  8
CAPA_1
  6
NEW_LINE8
 62
   251
  0
POLYLINE
  8
CAPA_1
  6
NEW_LINE9
 62
   251
 66
     1
 70
     1
  0
VERTEX
  8
CAPA_1
  6
NEW_LINE9
 62
   251
 10
-41.6003
 20
7.1384
  0
VERTEX
  8
CAPA_1
  6
NEW_LINE9
 62
   251
 10
-42.8897
 20
7.1384
  0
VERTEX
  8
CAPA_1
  6
NEW_LINE9
 62
   251
 10
-42.9565
 20
7.1316
  0
VERTEX
  8
CAPA_1
  6
NEW_LINE9
 62
   251
 10
-43.0187
 20
7.1122
  0
VERTEX
  8
CAPA_1
  6
NEW_LINE9
 62
   251
 10
-43.0752
 20
7.0814
  0
VERTEX
  8
CAPA_1
  6
NEW_LINE9
 62
   251
 10
-43.1244
 20
7.0408
  0
VERTEX
  8
CAPA_1
  6
NEW_LINE9
 62
   251
 10
-43.1651
 20
6.9915
  0
VERTEX
  8
CAPA_1
  6
NEW_LINE9
 62
   251
 10
-43.1958
 20
6.9351
  0
VERTEX
  8
CAPA_1
  6
NEW_LINE9
 62
   251
 10
-43.2152
 20
6.8728
  0
VERTEX
  8
CAPA_1
  6
NEW_LINE9
 62
   251
 10
-43.222
 20
6.8061
  0
VERTEX
  8
CAPA_1
  6
NEW_LINE9
 62
   251
 10
-43.222
 20
6.3275
  0
VERTEX
  8
CAPA_1
  6
NEW_LINE9
 62
   251
 10
-43.2152
 20
6.2607
  0
VERTEX
  8
CAPA_1
  6
NEW_LINE9
 62
   251
 10
-43.1958
 20
6.1984
  0
VERTEX
  8
CAPA_1
  6
NEW_LINE9
 62
   251
 10
-43.1651
 20
6.142
  0
VERTEX
  8
CAPA_1
  6
NEW_LINE9
 62
   251
 10
-43.1244
 20
6.0927
  0
VERTEX
  8
CAPA_1
  6
NEW_LINE9
 62
   251
 10
-43.0752
 20
6.052
  0
VERTEX
  8
CAPA_1
  6
NEW_LINE9
 62
   251
 10
-43.0187
 20
6.0213
  0
VERTEX
  8
CAPA_1
  6
NEW_LINE9
 62
   251
 10
-42.9565
 20
6.0019
  0
VERTEX
  8
CAPA_1
  6
NEW_LINE9
 62
   251
 10
-42.8897
 20
5.9951
  0
VERTEX
  8
CAPA_1
  6
NEW_LINE9
 62
   251
 10
-41.6003
 20
5.9951
  0
VERTEX
  8
CAPA_1
  6
NEW_LINE9
 62
   251
 10
-41.5335
 20
6.0019
  0
VERTEX
  8
CAPA_1
  6
NEW_LINE9
 62
   251
 10
-41.4713
 20
6.0213
  0
VERTEX
  8
CAPA_1
  6
NEW_LINE9
 62
   251
 10
-41.4148
 20
6.052
  0
VERTEX
  8
CAPA_1
  6
NEW_LINE9
 62
   251
 10
-41.3656
 20
6.0927
  0
VERTEX
  8
CAPA_1
  6
NEW_LINE9
 62
   251
 10
-41.3249
 20
6.142
  0
VERTEX
  8
CAPA_1
  6
NEW_LINE9
 62
   251
 10
-41.2942
 20
6.1984
  0
VERTEX
  8
CAPA_1
  6
NEW_LINE9
 62
   251
 10
-41.2748
 20
6.2607
  0
VERTEX
  8
CAPA_1
  6
NEW_LINE9
 62
   251
 10
-41.268
 20
6.3275
  0
VERTEX
  8
CAPA_1
  6
NEW_LINE9
 62
   251
 10
-41.268
 20
6.8061
  0
VERTEX
  8
CAPA_1
  6
NEW_LINE9
 62
   251
 10
-41.2748
 20
6.8728
  0
VERTEX
  8
CAPA_1
  6
NEW_LINE9
 62
   251
 10
-41.2942
 20
6.9351
  0
VERTEX
  8
CAPA_1
  6
NEW_LINE9
 62
   251
 10
-41.3249
 20
6.9915
  0
VERTEX
  8
CAPA_1
  6
NEW_LINE9
 62
   251
 10
-41.3656
 20
7.0408
  0
VERTEX
  8
CAPA_1
  6
NEW_LINE9
 62
   251
 10
-41.4148
 20
7.0814
  0
VERTEX
  8
CAPA_1
  6
NEW_LINE9
 62
   251
 10
-41.4713
 20
7.1122
  0
VERTEX
  8
CAPA_1
  6
NEW_LINE9
 62
   251
 10
-41.5335
 20
7.1316
  0
VERTEX
  8
CAPA_1
  6
NEW_LINE9
 62
   251
 10
-41.6003
 20
7.1384
  0
SEQEND
  8
CAPA_1
  6
NEW_LINE9
 62
   251
  0
POLYLINE
  8
CAPA_1
 66
     1
 70
     1
  0
VERTEX
  8
CAPA_1
 10
42.7758
 20
11.5472
  0
VERTEX
  8
CAPA_1
 10
40.6591
 20
11.5472
  0
VERTEX
  8
CAPA_1
 10
40.6591
 20
9.2718
  0
VERTEX
  8
CAPA_1
 10
42.7758
 20
9.2718
  0
VERTEX
  8
CAPA_1
 10
42.7758
 20
11.5472
  0
SEQEND
  8
CAPA_1
  0
POLYLINE
  8
CAPA_1
 66
     1
 70
     1
  0
VERTEX
  8
CAPA_1
 10
36.2275
 20
9.2553
  0
VERTEX
  8
CAPA_1
 10
39.9845
 20
9.2553
  0
VERTEX
  8
CAPA_1
 10
39.9845
 20
11.5671
  0
VERTEX
  8
CAPA_1
 10
36.2275
 20
11.5671
  0
VERTEX
  8
CAPA_1
 10
36.2275
 20
9.2553
  0
SEQEND
  8
CAPA_1
  0
POLYLINE
  8
CAPA_1
 66
     1
 70
     1
  0
VERTEX
  8
CAPA_1
 10
29.2059
 20
2.7299
  0
VERTEX
  8
CAPA_1
 10
36.7729
 20
2.7299
  0
VERTEX
  8
CAPA_1
 10
36.7729
 20
7.7041
  0
VERTEX
  8
CAPA_1
 10
29.2059
 20
7.7041
  0
VERTEX
  8
CAPA_1
 10
29.2059
 20
2.7299
  0
SEQEND
  8
CAPA_1
  0
POLYLINE
  8
CAPA_1
 66
     1
 70
     1
  0
VERTEX
  8
CAPA_1
 10
17.8659
 20
9.1519
  0
VERTEX
  8
CAPA_1
 10
21.6229
 20
9.1519
  0
VERTEX
  8
CAPA_1
 10
21.6229
 20
11.3215
  0
VERTEX
  8
CAPA_1
 10
17.8659
 20
11.3215
  0
VERTEX
  8
CAPA_1
 10
17.8659
 20
9.1519
  0
SEQEND
  8
CAPA_1
  0
POLYLINE
  8
CAPA_1
 62
   253
 66
     1
 70
     1
  0
VERTEX
  8
CAPA_1
 62
   253
 10
-43.1391
 20
7.681
  0
VERTEX
  8
CAPA_1
 62
   253
 10
-43.0449
 20
7.6895
  0
VERTEX
  8
CAPA_1
 62
   253
 10
-43.0137
 20
7.5956
  0
VERTEX
  8
CAPA_1
 62
   253
 10
-42.9375
 20
7.5364
  0
VERTEX
  8
CAPA_1
 62
   253
 10
-42.8213
 20
7.5138
  0
VERTEX
  8
CAPA_1
 62
   253
 10
-42.72
 20
7.5309
  0
VERTEX
  8
CAPA_1
 62
   253
 10
-42.6548
 20
7.578
  0
VERTEX
  8
CAPA_1
 62
   253
 10
-42.6333
 20
7.6429
  0
VERTEX
  8
CAPA_1
 62
   253
 10
-42.6539
 20
7.705
  0
VERTEX
  8
CAPA_1
 62
   253
 10
-42.7221
 20
7.7496
  0
VERTEX
  8
CAPA_1
 62
   253
 10
-42.8571
 20
7.7865
  0
VERTEX
  8
CAPA_1
 62
   253
 10
-43.0033
 20
7.8338
  0
VERTEX
  8
CAPA_1
 62
   253
 10
-43.0839
 20
7.9045
  0
VERTEX
  8
CAPA_1
 62
   253
 10
-43.1105
 20
7.9989
  0
VERTEX
  8
CAPA_1
 62
   253
 10
-43.0779
 20
8.1063
  0
VERTEX
  8
CAPA_1
 62
   253
 10
-42.9828
 20
8.1821
  0
VERTEX
  8
CAPA_1
 62
   253
 10
-42.8439
 20
8.208
  0
VERTEX
  8
CAPA_1
 62
   253
 10
-42.6953
 20
8.1809
  0
VERTEX
  8
CAPA_1
 62
   253
 10
-42.5964
 20
8.101
  0
VERTEX
  8
CAPA_1
 62
   253
 10
-42.5592
 20
7.9816
  0
VERTEX
  8
CAPA_1
 62
   253
 10
-42.6555
 20
7.9742
  0
VERTEX
  8
CAPA_1
 62
   253
 10
-42.7079
 20
8.0825
  0
VERTEX
  8
CAPA_1
 62
   253
 10
-42.84
 20
8.1191
  0
VERTEX
  8
CAPA_1
 62
   253
 10
-42.9726
 20
8.0858
  0
VERTEX
  8
CAPA_1
 62
   253
 10
-43.0142
 20
8.0054
  0
VERTEX
  8
CAPA_1
 62
   253
 10
-42.9848
 20
7.9382
  0
VERTEX
  8
CAPA_1
 62
   253
 10
-42.8336
 20
7.8842
  0
VERTEX
  8
CAPA_1
 62
   253
 10
-42.6659
 20
7.8359
  0
VERTEX
  8
CAPA_1
 62
   253
 10
-42.5683
 20
7.7588
  0
VERTEX
  8
CAPA_1
 62
   253
 10
-42.5369
 20
7.6514
  0
VERTEX
  8
CAPA_1
 62
   253
 10
-42.5715
 20
7.5376
  0
VERTEX
  8
CAPA_1
 62
   253
 10
-42.6708
 20
7.4545
  0
VERTEX
  8
CAPA_1
 62
   253
 10
-42.8167
 20
7.4249
  0
VERTEX
  8
CAPA_1
 62
   253
 10
-42.9887
 20
7.4549
  0
VERTEX
  8
CAPA_1
 62
   253
 10
-43.0975
 20
7.545
  0
VERTEX
  8
CAPA_1
 62
   253
 10
-43.1391
 20
7.681
  0
SEQEND
  8
CAPA_1
 62
   253
  0
POLYLINE
  8
CAPA_1
 62
   253
 66
     1
 70
     1
  0
VERTEX
  8
CAPA_1
 62
   253
 10
-42.0882
 20
7.4376
  0
VERTEX
  8
CAPA_1
 62
   253
 10
-42.1813
 20
7.4376
  0
VERTEX
  8
CAPA_1
 62
   253
 10
-42.1813
 20
8.0306
  0
VERTEX
  8
CAPA_1
 62
   253
 10
-42.2695
 20
7.9664
  0
VERTEX
  8
CAPA_1
 62
   253
 10
-42.3676
 20
7.9184
  0
VERTEX
  8
CAPA_1
 62
   253
 10
-42.3676
 20
8.0084
  0
VERTEX
  8
CAPA_1
 62
   253
 10
-42.2311
 20
8.0973
  0
VERTEX
  8
CAPA_1
 62
   253
 10
-42.1482
 20
8.1985
  0
VERTEX
  8
CAPA_1
 62
   253
 10
-42.0882
 20
8.1985
  0
VERTEX
  8
CAPA_1
 62
   253
 10
-42.0882
 20
7.4376
  0
SEQEND
  8
CAPA_1
 62
   253
  0
POLYLINE
  8
CAPA_1
 62
   253
 66
     1
 70
     1
  0
VERTEX
  8
CAPA_1
 62
   253
 10
-41.8065
 20
7.4376
  0
VERTEX
  8
CAPA_1
 62
   253
 10
-41.8065
 20
8.1953
  0
VERTEX
  8
CAPA_1
 62
   253
 10
-41.2954
 20
8.1953
  0
VERTEX
  8
CAPA_1
 62
   253
 10
-41.2954
 20
8.1064
  0
VERTEX
  8
CAPA_1
 62
   253
 10
-41.706
 20
8.1064
  0
VERTEX
  8
CAPA_1
 62
   253
 10
-41.706
 20
7.8704
  0
VERTEX
  8
CAPA_1
 62
   253
 10
-41.3504
 20
7.8704
  0
VERTEX
  8
CAPA_1
 62
   253
 10
-41.3504
 20
7.7815
  0
VERTEX
  8
CAPA_1
 62
   253
 10
-41.706
 20
7.7815
  0
VERTEX
  8
CAPA_1
 62
   253
 10
-41.706
 20
7.4376
  0
VERTEX
  8
CAPA_1
 62
   253
 10
-41.8065
 20
7.4376
  0
SEQEND
  8
CAPA_1
 62
   253
  0
POLYLINE
  8
CAPA_1
 62
   253
 66
     1
 70
     1
  0
VERTEX
  8
CAPA_1
 62
   253
 10
36.681
 20
8.0649
  0
VERTEX
  8
CAPA_1
 62
   253
 10
36.8176
 20
8.0772
  0
VERTEX
  8
CAPA_1
 62
   253
 10
36.8629
 20
7.9411
  0
VERTEX
  8
CAPA_1
 62
   253
 10
36.9734
 20
7.8552
  0
VERTEX
  8
CAPA_1
 62
   253
 10
37.142
 20
7.8224
  0
VERTEX
  8
CAPA_1
 62
   253
 10
37.2888
 20
7.8472
  0
VERTEX
  8
CAPA_1
 62
   253
 10
37.3835
 20
7.9155
  0
VERTEX
  8
CAPA_1
 62
   253
 10
37.4147
 20
8.0097
  0
VERTEX
  8
CAPA_1
 62
   253
 10
37.3848
 20
8.0997
  0
VERTEX
  8
CAPA_1
 62
   253
 10
37.2858
 20
8.1644
  0
VERTEX
  8
CAPA_1
 62
   253
 10
37.0901
 20
8.2179
  0
VERTEX
  8
CAPA_1
 62
   253
 10
36.878
 20
8.2865
  0
VERTEX
  8
CAPA_1
 62
   253
 10
36.7611
 20
8.389
  0
VERTEX
  8
CAPA_1
 62
   253
 10
36.7224
 20
8.5259
  0
VERTEX
  8
CAPA_1
 62
   253
 10
36.7698
 20
8.6817
  0
VERTEX
  8
CAPA_1
 62
   253
 10
36.9077
 20
8.7917
  0
VERTEX
  8
CAPA_1
 62
   253
 10
37.1092
 20
8.8293
  0
VERTEX
  8
CAPA_1
 62
   253
 10
37.3246
 20
8.7899
  0
VERTEX
  8
CAPA_1
 62
   253
 10
37.4682
 20
8.674
  0
VERTEX
  8
CAPA_1
 62
   253
 10
37.5221
 20
8.5008
  0
VERTEX
  8
CAPA_1
 62
   253
 10
37.3825
 20
8.4901
  0
VERTEX
  8
CAPA_1
 62
   253
 10
37.3065
 20
8.6472
  0
VERTEX
  8
CAPA_1
 62
   253
 10
37.1149
 20
8.7004
  0
VERTEX
  8
CAPA_1
 62
   253
 10
36.9225
 20
8.652
  0
VERTEX
  8
CAPA_1
 62
   253
 10
36.8621
 20
8.5354
  0
VERTEX
  8
CAPA_1
 62
   253
 10
36.9048
 20
8.4379
  0
VERTEX
  8
CAPA_1
 62
   253
 10
37.1241
 20
8.3596
  0
VERTEX
  8
CAPA_1
 62
   253
 10
37.3674
 20
8.2895
  0
VERTEX
  8
CAPA_1
 62
   253
 10
37.5088
 20
8.1777
  0
VERTEX
  8
CAPA_1
 62
   253
 10
37.5544
 20
8.0219
  0
VERTEX
  8
CAPA_1
 62
   253
 10
37.5042
 20
7.8569
  0
VERTEX
  8
CAPA_1
 62
   253
 10
37.3602
 20
7.7365
  0
VERTEX
  8
CAPA_1
 62
   253
 10
37.1486
 20
7.6935
  0
VERTEX
  8
CAPA_1
 62
   253
 10
36.8992
 20
7.737
  0
VERTEX
  8
CAPA_1
 62
   253
 10
36.7414
 20
7.8677
  0
VERTEX
  8
CAPA_1
 62
   253
 10
36.681
 20
8.0649
  0
SEQEND
  8
CAPA_1
 62
   253
  0
POLYLINE
  8
CAPA_1
 62
   253
 66
     1
 70
     1
  0
VERTEX
  8
CAPA_1
 62
   253
 10
38.4063
 20
7.8408
  0
VERTEX
  8
CAPA_1
 62
   253
 10
38.4063
 20
7.7119
  0
VERTEX
  8
CAPA_1
 62
   253
 10
37.6787
 20
7.7119
  0
VERTEX
  8
CAPA_1
 62
   253
 10
37.6946
 20
7.8058
  0
VERTEX
  8
CAPA_1
 62
   253
 10
37.7844
 20
7.9519
  0
VERTEX
  8
CAPA_1
 62
   253
 10
37.9609
 20
8.1176
  0
VERTEX
  8
CAPA_1
 62
   253
 10
38.2029
 20
8.3504
  0
VERTEX
  8
CAPA_1
 62
   253
 10
38.2666
 20
8.5131
  0
VERTEX
  8
CAPA_1
 62
   253
 10
38.209
 20
8.6484
  0
VERTEX
  8
CAPA_1
 62
   253
 10
38.0589
 20
8.7034
  0
VERTEX
  8
CAPA_1
 62
   253
 10
37.9023
 20
8.6451
  0
VERTEX
  8
CAPA_1
 62
   253
 10
37.8429
 20
8.484
  0
VERTEX
  8
CAPA_1
 62
   253
 10
37.7048
 20
8.4978
  0
VERTEX
  8
CAPA_1
 62
   253
 10
37.812
 20
8.7341
  0
VERTEX
  8
CAPA_1
 62
   253
 10
38.0619
 20
8.8155
  0
VERTEX
  8
CAPA_1
 62
   253
 10
38.3124
 20
8.7277
  0
VERTEX
  8
CAPA_1
 62
   253
 10
38.4047
 20
8.51
  0
VERTEX
  8
CAPA_1
 62
   253
 10
38.3776
 20
8.3803
  0
VERTEX
  8
CAPA_1
 62
   253
 10
38.2881
 20
8.2458
  0
VERTEX
  8
CAPA_1
 62
   253
 10
38.0801
 20
8.0524
  0
VERTEX
  8
CAPA_1
 62
   253
 10
37.9238
 20
7.914
  0
VERTEX
  8
CAPA_1
 62
   253
 10
37.8667
 20
7.8408
  0
VERTEX
  8
CAPA_1
 62
   253
 10
38.4063
 20
7.8408
  0
SEQEND
  8
CAPA_1
 62
   253
  0
POLYLINE
  8
CAPA_1
 62
   253
 66
     1
 70
     1
  0
VERTEX
  8
CAPA_1
 62
   253
 10
40.0294
 20
8.1035
  0
VERTEX
  8
CAPA_1
 62
   253
 10
40.0294
 20
8.2324
  0
VERTEX
  8
CAPA_1
 62
   253
 10
40.4945
 20
8.2324
  0
VERTEX
  8
CAPA_1
 62
   253
 10
40.4945
 20
7.8252
  0
VERTEX
  8
CAPA_1
 62
   253
 10
40.2734
 20
7.6968
  0
VERTEX
  8
CAPA_1
 62
   253
 10
40.0396
 20
7.6538
  0
VERTEX
  8
CAPA_1
 62
   253
 10
39.7454
 20
7.7231
  0
VERTEX
  8
CAPA_1
 62
   253
 10
39.5459
 20
7.9234
  0
VERTEX
  8
CAPA_1
 62
   253
 10
39.4783
 20
8.2163
  0
VERTEX
  8
CAPA_1
 62
   253
 10
39.5454
 20
8.5159
  0
VERTEX
  8
CAPA_1
 62
   253
 10
39.7383
 20
8.7221
  0
VERTEX
  8
CAPA_1
 62
   253
 10
40.0284
 20
8.7896
  0
VERTEX
  8
CAPA_1
 62
   253
 10
40.2438
 20
8.751
  0
VERTEX
  8
CAPA_1
 62
   253
 10
40.3947
 20
8.6435
  0
VERTEX
  8
CAPA_1
 62
   253
 10
40.4778
 20
8.4634
  0
VERTEX
  8
CAPA_1
 62
   253
 10
40.3466
 20
8.4276
  0
VERTEX
  8
CAPA_1
 62
   253
 10
40.2852
 20
8.5596
  0
VERTEX
  8
CAPA_1
 62
   253
 10
40.1803
 20
8.6364
  0
VERTEX
  8
CAPA_1
 62
   253
 10
40.0291
 20
8.6653
  0
VERTEX
  8
CAPA_1
 62
   253
 10
39.857
 20
8.6348
  0
VERTEX
  8
CAPA_1
 62
   253
 10
39.7398
 20
8.5548
  0
VERTEX
  8
CAPA_1
 62
   253
 10
39.6707
 20
8.446
  0
VERTEX
  8
CAPA_1
 62
   253
 10
39.6288
 20
8.2245
  0
VERTEX
  8
CAPA_1
 62
   253
 10
39.6792
 20
7.9779
  0
VERTEX
  8
CAPA_1
 62
   253
 10
39.8263
 20
7.8308
  0
VERTEX
  8
CAPA_1
 62
   253
 10
40.0314
 20
7.7827
  0
VERTEX
  8
CAPA_1
 62
   253
 10
40.2156
 20
7.8193
  0
VERTEX
  8
CAPA_1
 62
   253
 10
40.3517
 20
7.8976
  0
VERTEX
  8
CAPA_1
 62
   253
 10
40.3517
 20
8.1035
  0
VERTEX
  8
CAPA_1
 62
   253
 10
40.0294
 20
8.1035
  0
SEQEND
  8
CAPA_1
 62
   253
  0
POLYLINE
  8
CAPA_1
 62
   253
 66
     1
 70
     1
  0
VERTEX
  8
CAPA_1
 62
   253
 10
40.7076
 20
7.6722
  0
VERTEX
  8
CAPA_1
 62
   253
 10
40.7076
 20
8.7712
  0
VERTEX
  8
CAPA_1
 62
   253
 10
40.8569
 20
8.7712
  0
VERTEX
  8
CAPA_1
 62
   253
 10
41.4336
 20
7.9086
  0
VERTEX
  8
CAPA_1
 62
   253
 10
41.4336
 20
8.7712
  0
VERTEX
  8
CAPA_1
 62
   253
 10
41.5732
 20
8.7712
  0
VERTEX
  8
CAPA_1
 62
   253
 10
41.5732
 20
7.6722
  0
VERTEX
  8
CAPA_1
 62
   253
 10
41.4238
 20
7.6722
  0
VERTEX
  8
CAPA_1
 62
   253
 10
40.8472
 20
8.5348
  0
VERTEX
  8
CAPA_1
 62
   253
 10
40.8472
 20
7.6722
  0
VERTEX
  8
CAPA_1
 62
   253
 10
40.7076
 20
7.6722
  0
SEQEND
  8
CAPA_1
 62
   253
  0
POLYLINE
  8
CAPA_1
 62
   253
 66
     1
 70
     1
  0
VERTEX
  8
CAPA_1
 62
   253
 10
41.8176
 20
7.6722
  0
VERTEX
  8
CAPA_1
 62
   253
 10
41.8176
 20
8.7712
  0
VERTEX
  8
CAPA_1
 62
   253
 10
42.1962
 20
8.7712
  0
VERTEX
  8
CAPA_1
 62
   253
 10
42.3919
 20
8.7556
  0
VERTEX
  8
CAPA_1
 62
   253
 10
42.5531
 20
8.6768
  0
VERTEX
  8
CAPA_1
 62
   253
 10
42.683
 20
8.489
  0
VERTEX
  8
CAPA_1
 62
   253
 10
42.7262
 20
8.2276
  0
VERTEX
  8
CAPA_1
 62
   253
 10
42.6971
 20
8.0058
  0
VERTEX
  8
CAPA_1
 62
   253
 10
42.6221
 20
7.8456
  0
VERTEX
  8
CAPA_1
 62
   253
 10
42.5219
 20
7.7461
  0
VERTEX
  8
CAPA_1
 62
   253
 10
42.3909
 20
7.6909
  0
VERTEX
  8
CAPA_1
 62
   253
 10
42.2141
 20
7.6722
  0
VERTEX
  8
CAPA_1
 62
   253
 10
41.8176
 20
7.6722
  0
SEQEND
  8
CAPA_1
 62
   253
  0
POLYLINE
  8
CAPA_1
 62
   253
 66
     1
 70
     1
  0
VERTEX
  8
CAPA_1
 62
   253
 10
41.9634
 20
7.8011
  0
VERTEX
  8
CAPA_1
 62
   253
 10
42.1977
 20
7.8011
  0
VERTEX
  8
CAPA_1
 62
   253
 10
42.3681
 20
7.8213
  0
VERTEX
  8
CAPA_1
 62
   253
 10
42.4666
 20
7.8784
  0
VERTEX
  8
CAPA_1
 62
   253
 10
42.5469
 20
8.0178
  0
VERTEX
  8
CAPA_1
 62
   253
 10
42.5758
 20
8.2299
  0
VERTEX
  8
CAPA_1
 62
   253
 10
42.5193
 20
8.4954
  0
VERTEX
  8
CAPA_1
 62
   253
 10
42.3819
 20
8.6197
  0
VERTEX
  8
CAPA_1
 62
   253
 10
42.1939
 20
8.6423
  0
VERTEX
  8
CAPA_1
 62
   253
 10
41.9634
 20
8.6423
  0
VERTEX
  8
CAPA_1
 62
   253
 10
41.9634
 20
7.8011
  0
SEQEND
  8
CAPA_1
 62
   253
  0
POLYLINE
  8
CAPA_1
 62
   253
 66
     1
 70
     1
  0
VERTEX
  8
CAPA_1
 62
   253
 10
-40.7317
 20
6.8872
  0
VERTEX
  8
CAPA_1
 62
   253
 10
-40.6375
 20
6.8957
  0
VERTEX
  8
CAPA_1
 62
   253
 10
-40.6063
 20
6.8018
  0
VERTEX
  8
CAPA_1
 62
   253
 10
-40.5301
 20
6.7426
  0
VERTEX
  8
CAPA_1
 62
   253
 10
-40.4139
 20
6.72
  0
VERTEX
  8
CAPA_1
 62
   253
 10
-40.3126
 20
6.7371
  0
VERTEX
  8
CAPA_1
 62
   253
 10
-40.2474
 20
6.7842
  0
VERTEX
  8
CAPA_1
 62
   253
 10
-40.2259
 20
6.8491
  0
VERTEX
  8
CAPA_1
 62
   253
 10
-40.2465
 20
6.9112
  0
VERTEX
  8
CAPA_1
 62
   253
 10
-40.3147
 20
6.9558
  0
VERTEX
  8
CAPA_1
 62
   253
 10
-40.4497
 20
6.9927
  0
VERTEX
  8
CAPA_1
 62
   253
 10
-40.5959
 20
7.04
  0
VERTEX
  8
CAPA_1
 62
   253
 10
-40.6765
 20
7.1107
  0
VERTEX
  8
CAPA_1
 62
   253
 10
-40.7031
 20
7.2051
  0
VERTEX
  8
CAPA_1
 62
   253
 10
-40.6705
 20
7.3125
  0
VERTEX
  8
CAPA_1
 62
   253
 10
-40.5754
 20
7.3883
  0
VERTEX
  8
CAPA_1
 62
   253
 10
-40.4365
 20
7.4142
  0
VERTEX
  8
CAPA_1
 62
   253
 10
-40.2879
 20
7.3871
  0
VERTEX
  8
CAPA_1
 62
   253
 10
-40.189
 20
7.3072
  0
VERTEX
  8
CAPA_1
 62
   253
 10
-40.1518
 20
7.1878
  0
VERTEX
  8
CAPA_1
 62
   253
 10
-40.2481
 20
7.1804
  0
VERTEX
  8
CAPA_1
 62
   253
 10
-40.3005
 20
7.2887
  0
VERTEX
  8
CAPA_1
 62
   253
 10
-40.4326
 20
7.3253
  0
VERTEX
  8
CAPA_1
 62
   253
 10
-40.5652
 20
7.292
  0
VERTEX
  8
CAPA_1
 62
   253
 10
-40.6068
 20
7.2116
  0
VERTEX
  8
CAPA_1
 62
   253
 10
-40.5774
 20
7.1444
  0
VERTEX
  8
CAPA_1
 62
   253
 10
-40.4262
 20
7.0904
  0
VERTEX
  8
CAPA_1
 62
   253
 10
-40.2585
 20
7.0421
  0
VERTEX
  8
CAPA_1
 62
   253
 10
-40.1609
 20
6.965
  0
VERTEX
  8
CAPA_1
 62
   253
 10
-40.1295
 20
6.8576
  0
VERTEX
  8
CAPA_1
 62
   253
 10
-40.1641
 20
6.7438
  0
VERTEX
  8
CAPA_1
 62
   253
 10
-40.2634
 20
6.6607
  0
VERTEX
  8
CAPA_1
 62
   253
 10
-40.4093
 20
6.6311
  0
VERTEX
  8
CAPA_1
 62
   253
 10
-40.5813
 20
6.6611
  0
VERTEX
  8
CAPA_1
 62
   253
 10
-40.6901
 20
6.7512
  0
VERTEX
  8
CAPA_1
 62
   253
 10
-40.7317
 20
6.8872
  0
SEQEND
  8
CAPA_1
 62
   253
  0
POLYLINE
  8
CAPA_1
 62
   253
 66
     1
 70
     1
  0
VERTEX
  8
CAPA_1
 62
   253
 10
-39.6808
 20
6.6438
  0
VERTEX
  8
CAPA_1
 62
   253
 10
-39.7739
 20
6.6438
  0
VERTEX
  8
CAPA_1
 62
   253
 10
-39.7739
 20
7.2368
  0
VERTEX
  8
CAPA_1
 62
   253
 10
-39.8621
 20
7.1726
  0
VERTEX
  8
CAPA_1
 62
   253
 10
-39.9602
 20
7.1246
  0
VERTEX
  8
CAPA_1
 62
   253
 10
-39.9602
 20
7.2146
  0
VERTEX
  8
CAPA_1
 62
   253
 10
-39.8237
 20
7.3035
  0
VERTEX
  8
CAPA_1
 62
   253
 10
-39.7408
 20
7.4047
  0
VERTEX
  8
CAPA_1
 62
   253
 10
-39.6808
 20
7.4047
  0
VERTEX
  8
CAPA_1
 62
   253
 10
-39.6808
 20
6.6438
  0
SEQEND
  8
CAPA_1
 62
   253
  0
POLYLINE
  8
CAPA_1
 62
   253
 66
     1
 70
     1
  0
VERTEX
  8
CAPA_1
 62
   253
 10
-39.4531
 20
6.8713
  0
VERTEX
  8
CAPA_1
 62
   253
 10
-39.4531
 20
6.9645
  0
VERTEX
  8
CAPA_1
 62
   253
 10
-39.1652
 20
6.9645
  0
VERTEX
  8
CAPA_1
 62
   253
 10
-39.1652
 20
6.8713
  0
VERTEX
  8
CAPA_1
 62
   253
 10
-39.4531
 20
6.8713
  0
SEQEND
  8
CAPA_1
 62
   253
  0
POLYLINE
  8
CAPA_1
 62
   253
 66
     1
 70
     1
  0
VERTEX
  8
CAPA_1
 62
   253
 10
30.6038
 20
9.7829
  0
VERTEX
  8
CAPA_1
 62
   253
 10
30.311
 20
10.5406
  0
VERTEX
  8
CAPA_1
 62
   253
 10
30.4196
 20
10.5406
  0
VERTEX
  8
CAPA_1
 62
   253
 10
30.6165
 20
9.99
  0
VERTEX
  8
CAPA_1
 62
   253
 10
30.6562
 20
9.866
  0
VERTEX
  8
CAPA_1
 62
   253
 10
30.6969
 20
9.99
  0
VERTEX
  8
CAPA_1
 62
   253
 10
30.9012
 20
10.5406
  0
VERTEX
  8
CAPA_1
 62
   253
 10
31.0035
 20
10.5406
  0
VERTEX
  8
CAPA_1
 62
   253
 10
30.708
 20
9.7829
  0
VERTEX
  8
CAPA_1
 62
   253
 10
30.6038
 20
9.7829
  0
SEQEND
  8
CAPA_1
 62
   253
  0
POLYLINE
  8
CAPA_1
 62
   253
 66
     1
 70
     1
  0
VERTEX
  8
CAPA_1
 62
   253
 10
31.4409
 20
9.984
  0
VERTEX
  8
CAPA_1
 62
   253
 10
31.5319
 20
9.9713
  0
VERTEX
  8
CAPA_1
 62
   253
 10
31.4554
 20
9.8244
  0
VERTEX
  8
CAPA_1
 62
   253
 10
31.3039
 20
9.7713
  0
VERTEX
  8
CAPA_1
 62
   253
 10
31.1231
 20
9.8448
  0
VERTEX
  8
CAPA_1
 62
   253
 10
31.0546
 20
10.0554
  0
VERTEX
  8
CAPA_1
 62
   253
 10
31.0841
 20
10.2108
  0
VERTEX
  8
CAPA_1
 62
   253
 10
31.1737
 20
10.3105
  0
VERTEX
  8
CAPA_1
 62
   253
 10
31.3046
 20
10.3438
  0
VERTEX
  8
CAPA_1
 62
   253
 10
31.4506
 20
10.2986
  0
VERTEX
  8
CAPA_1
 62
   253
 10
31.5235
 20
10.1702
  0
VERTEX
  8
CAPA_1
 62
   253
 10
31.4335
 20
10.1565
  0
VERTEX
  8
CAPA_1
 62
   253
 10
31.3876
 20
10.2397
  0
VERTEX
  8
CAPA_1
 62
   253
 10
31.3083
 20
10.2676
  0
VERTEX
  8
CAPA_1
 62
   253
 10
31.1938
 20
10.2173
  0
VERTEX
  8
CAPA_1
 62
   253
 10
31.1499
 20
10.0581
  0
VERTEX
  8
CAPA_1
 62
   253
 10
31.1922
 20
9.8975
  0
VERTEX
  8
CAPA_1
 62
   253
 10
31.3028
 20
9.8475
  0
VERTEX
  8
CAPA_1
 62
   253
 10
31.3943
 20
9.881
  0
VERTEX
  8
CAPA_1
 62
   253
 10
31.4409
 20
9.984
  0
SEQEND
  8
CAPA_1
 62
   253
  0
POLYLINE
  8
CAPA_1
 62
   253
 66
     1
 70
     1
  0
VERTEX
  8
CAPA_1
 62
   253
 10
31.9701
 20
9.984
  0
VERTEX
  8
CAPA_1
 62
   253
 10
32.0611
 20
9.9713
  0
VERTEX
  8
CAPA_1
 62
   253
 10
31.9846
 20
9.8244
  0
VERTEX
  8
CAPA_1
 62
   253
 10
31.8331
 20
9.7713
  0
VERTEX
  8
CAPA_1
 62
   253
 10
31.6523
 20
9.8448
  0
VERTEX
  8
CAPA_1
 62
   253
 10
31.5838
 20
10.0554
  0
VERTEX
  8
CAPA_1
 62
   253
 10
31.6133
 20
10.2108
  0
VERTEX
  8
CAPA_1
 62
   253
 10
31.7029
 20
10.3105
  0
VERTEX
  8
CAPA_1
 62
   253
 10
31.8338
 20
10.3438
  0
VERTEX
  8
CAPA_1
 62
   253
 10
31.9798
 20
10.2986
  0
VERTEX
  8
CAPA_1
 62
   253
 10
32.0527
 20
10.1702
  0
VERTEX
  8
CAPA_1
 62
   253
 10
31.9627
 20
10.1565
  0
VERTEX
  8
CAPA_1
 62
   253
 10
31.9168
 20
10.2397
  0
VERTEX
  8
CAPA_1
 62
   253
 10
31.8375
 20
10.2676
  0
VERTEX
  8
CAPA_1
 62
   253
 10
31.723
 20
10.2173
  0
VERTEX
  8
CAPA_1
 62
   253
 10
31.6791
 20
10.0581
  0
VERTEX
  8
CAPA_1
 62
   253
 10
31.7214
 20
9.8975
  0
VERTEX
  8
CAPA_1
 62
   253
 10
31.832
 20
9.8475
  0
VERTEX
  8
CAPA_1
 62
   253
 10
31.9235
 20
9.881
  0
VERTEX
  8
CAPA_1
 62
   253
 10
31.9701
 20
9.984
  0
SEQEND
  8
CAPA_1
 62
   253
  0
POLYLINE
  8
CAPA_1
 62
   253
 66
     1
 70
     1
  0
VERTEX
  8
CAPA_1
 62
   253
 10
28.2364
 20
8.1586
  0
VERTEX
  8
CAPA_1
 62
   253
 10
28.2364
 20
8.9163
  0
VERTEX
  8
CAPA_1
 62
   253
 10
28.7475
 20
8.9163
  0
VERTEX
  8
CAPA_1
 62
   253
 10
28.7475
 20
8.8274
  0
VERTEX
  8
CAPA_1
 62
   253
 10
28.3369
 20
8.8274
  0
VERTEX
  8
CAPA_1
 62
   253
 10
28.3369
 20
8.5914
  0
VERTEX
  8
CAPA_1
 62
   253
 10
28.6925
 20
8.5914
  0
VERTEX
  8
CAPA_1
 62
   253
 10
28.6925
 20
8.5025
  0
VERTEX
  8
CAPA_1
 62
   253
 10
28.3369
 20
8.5025
  0
VERTEX
  8
CAPA_1
 62
   253
 10
28.3369
 20
8.1586
  0
VERTEX
  8
CAPA_1
 62
   253
 10
28.2364
 20
8.1586
  0
SEQEND
  8
CAPA_1
 62
   253
  0
POLYLINE
  8
CAPA_1
 62
   253
 66
     1
 70
     1
  0
VERTEX
  8
CAPA_1
 62
   253
 10
28.8828
 20
8.1586
  0
VERTEX
  8
CAPA_1
 62
   253
 10
28.8828
 20
8.9163
  0
VERTEX
  8
CAPA_1
 62
   253
 10
29.3939
 20
8.9163
  0
VERTEX
  8
CAPA_1
 62
   253
 10
29.3939
 20
8.8274
  0
VERTEX
  8
CAPA_1
 62
   253
 10
28.9833
 20
8.8274
  0
VERTEX
  8
CAPA_1
 62
   253
 10
28.9833
 20
8.5914
  0
VERTEX
  8
CAPA_1
 62
   253
 10
29.3389
 20
8.5914
  0
VERTEX
  8
CAPA_1
 62
   253
 10
29.3389
 20
8.5025
  0
VERTEX
  8
CAPA_1
 62
   253
 10
28.9833
 20
8.5025
  0
VERTEX
  8
CAPA_1
 62
   253
 10
28.9833
 20
8.1586
  0
VERTEX
  8
CAPA_1
 62
   253
 10
28.8828
 20
8.1586
  0
SEQEND
  8
CAPA_1
 62
   253
  0
POLYLINE
  8
CAPA_1
 62
   253
 66
     1
 70
     1
  0
VERTEX
  8
CAPA_1
 62
   253
 10
26.4902
 20
8.1255
  0
VERTEX
  8
CAPA_1
 62
   253
 10
26.4902
 20
8.8832
  0
VERTEX
  8
CAPA_1
 62
   253
 10
27.0013
 20
8.8832
  0
VERTEX
  8
CAPA_1
 62
   253
 10
27.0013
 20
8.7943
  0
VERTEX
  8
CAPA_1
 62
   253
 10
26.5907
 20
8.7943
  0
VERTEX
  8
CAPA_1
 62
   253
 10
26.5907
 20
8.5583
  0
VERTEX
  8
CAPA_1
 62
   253
 10
26.9463
 20
8.5583
  0
VERTEX
  8
CAPA_1
 62
   253
 10
26.9463
 20
8.4694
  0
VERTEX
  8
CAPA_1
 62
   253
 10
26.5907
 20
8.4694
  0
VERTEX
  8
CAPA_1
 62
   253
 10
26.5907
 20
8.1255
  0
VERTEX
  8
CAPA_1
 62
   253
 10
26.4902
 20
8.1255
  0
SEQEND
  8
CAPA_1
 62
   253
  0
POLYLINE
  8
CAPA_1
 62
   253
 66
     1
 70
     1
  0
VERTEX
  8
CAPA_1
 62
   253
 10
27.3239
 20
8.1255
  0
VERTEX
  8
CAPA_1
 62
   253
 10
27.3239
 20
8.7943
  0
VERTEX
  8
CAPA_1
 62
   253
 10
27.0741
 20
8.7943
  0
VERTEX
  8
CAPA_1
 62
   253
 10
27.0741
 20
8.8832
  0
VERTEX
  8
CAPA_1
 62
   253
 10
27.6742
 20
8.8832
  0
VERTEX
  8
CAPA_1
 62
   253
 10
27.6742
 20
8.7943
  0
VERTEX
  8
CAPA_1
 62
   253
 10
27.4244
 20
8.7943
  0
VERTEX
  8
CAPA_1
 62
   253
 10
27.4244
 20
8.1255
  0
VERTEX
  8
CAPA_1
 62
   253
 10
27.3239
 20
8.1255
  0
SEQEND
  8
CAPA_1
 62
   253
  0
POLYLINE
  8
CAPA_1
 62
   253
 66
     1
 70
     1
  0
VERTEX
  8
CAPA_1
 62
   253
 10
24.7028
 20
8.1269
  0
VERTEX
  8
CAPA_1
 62
   253
 10
24.7028
 20
8.8846
  0
VERTEX
  8
CAPA_1
 62
   253
 10
25.2139
 20
8.8846
  0
VERTEX
  8
CAPA_1
 62
   253
 10
25.2139
 20
8.7957
  0
VERTEX
  8
CAPA_1
 62
   253
 10
24.8033
 20
8.7957
  0
VERTEX
  8
CAPA_1
 62
   253
 10
24.8033
 20
8.5597
  0
VERTEX
  8
CAPA_1
 62
   253
 10
25.1589
 20
8.5597
  0
VERTEX
  8
CAPA_1
 62
   253
 10
25.1589
 20
8.4708
  0
VERTEX
  8
CAPA_1
 62
   253
 10
24.8033
 20
8.4708
  0
VERTEX
  8
CAPA_1
 62
   253
 10
24.8033
 20
8.1269
  0
VERTEX
  8
CAPA_1
 62
   253
 10
24.7028
 20
8.1269
  0
SEQEND
  8
CAPA_1
 62
   253
  0
POLYLINE
  8
CAPA_1
 62
   253
 66
     1
 70
     1
  0
VERTEX
  8
CAPA_1
 62
   253
 10
25.2952
 20
8.3544
  0
VERTEX
  8
CAPA_1
 62
   253
 10
25.2952
 20
8.4476
  0
VERTEX
  8
CAPA_1
 62
   253
 10
25.5831
 20
8.4476
  0
VERTEX
  8
CAPA_1
 62
   253
 10
25.5831
 20
8.3544
  0
VERTEX
  8
CAPA_1
 62
   253
 10
25.2952
 20
8.3544
  0
SEQEND
  8
CAPA_1
 62
   253
  0
POLYLINE
  8
CAPA_1
 62
   253
 66
     1
 70
     1
  0
VERTEX
  8
CAPA_1
 62
   253
 10
30.4963
 20
8.1798
  0
VERTEX
  8
CAPA_1
 62
   253
 10
30.4963
 20
8.9375
  0
VERTEX
  8
CAPA_1
 62
   253
 10
31.0074
 20
8.9375
  0
VERTEX
  8
CAPA_1
 62
   253
 10
31.0074
 20
8.8486
  0
VERTEX
  8
CAPA_1
 62
   253
 10
30.5968
 20
8.8486
  0
VERTEX
  8
CAPA_1
 62
   253
 10
30.5968
 20
8.6126
  0
VERTEX
  8
CAPA_1
 62
   253
 10
30.9524
 20
8.6126
  0
VERTEX
  8
CAPA_1
 62
   253
 10
30.9524
 20
8.5237
  0
VERTEX
  8
CAPA_1
 62
   253
 10
30.5968
 20
8.5237
  0
VERTEX
  8
CAPA_1
 62
   253
 10
30.5968
 20
8.1798
  0
VERTEX
  8
CAPA_1
 62
   253
 10
30.4963
 20
8.1798
  0
SEQEND
  8
CAPA_1
 62
   253
  0
POLYLINE
  8
CAPA_1
 62
   253
 66
     1
 70
     1
  0
VERTEX
  8
CAPA_1
 62
   253
 10
31.3215
 20
8.3026
  0
VERTEX
  8
CAPA_1
 62
   253
 10
31.3215
 20
8.51
  0
VERTEX
  8
CAPA_1
 62
   253
 10
31.1152
 20
8.51
  0
VERTEX
  8
CAPA_1
 62
   253
 10
31.1152
 20
8.5968
  0
VERTEX
  8
CAPA_1
 62
   253
 10
31.3215
 20
8.5968
  0
VERTEX
  8
CAPA_1
 62
   253
 10
31.3215
 20
8.8031
  0
VERTEX
  8
CAPA_1
 62
   253
 10
31.4094
 20
8.8031
  0
VERTEX
  8
CAPA_1
 62
   253
 10
31.4094
 20
8.5968
  0
VERTEX
  8
CAPA_1
 62
   253
 10
31.6157
 20
8.5968
  0
VERTEX
  8
CAPA_1
 62
   253
 10
31.6157
 20
8.51
  0
VERTEX
  8
CAPA_1
 62
   253
 10
31.4094
 20
8.51
  0
VERTEX
  8
CAPA_1
 62
   253
 10
31.4094
 20
8.3026
  0
VERTEX
  8
CAPA_1
 62
   253
 10
31.3215
 20
8.3026
  0
SEQEND
  8
CAPA_1
 62
   253
  0
POLYLINE
  8
CAPA_1
 66
     1
 70
     1
  0
VERTEX
  8
CAPA_1
 10
-27.1257
 20
1.012
  0
VERTEX
  8
CAPA_1
 10
-27.22570329906547
 20
1.002150534734696
  0
VERTEX
  8
CAPA_1
 10
-27.32186352743034
 20
0.9729806483652855
  0
VERTEX
  8
CAPA_1
 10
-27.41048530144585
 20
0.9256113232662846
  0
VERTEX
  8
CAPA_1
 10
-27.48816293603622
 20
0.8618629360362242
  0
VERTEX
  8
CAPA_1
 10
-27.55191132326628
 20
0.7841853014458482
  0
VERTEX
  8
CAPA_1
 10
-27.59928064836528
 20
0.6955635274303451
  0
VERTEX
  8
CAPA_1
 10
-27.62845053473469
 20
0.5994032990654674
  0
VERTEX
  8
CAPA_1
 10
-27.6383
 20
0.4994000000000001
  0
VERTEX
  8
CAPA_1
 10
-27.62845053473469
 20
0.3993967009345327
  0
VERTEX
  8
CAPA_1
 10
-27.59928064836528
 20
0.303236472569655
  0
VERTEX
  8
CAPA_1
 10
-27.55191132326628
 20
0.2146146985541521
  0
VERTEX
  8
CAPA_1
 10
-27.48816293603622
 20
0.1369370639637758
  0
VERTEX
  8
CAPA_1
 10
-27.41048530144585
 20
0.0731886767337153
  0
VERTEX
  8
CAPA_1
 10
-27.32186352743034
 20
0.0258193516347144
  0
VERTEX
  8
CAPA_1
 10
-27.22570329906547
 20
-0.0033505347346959
  0
VERTEX
  8
CAPA_1
 10
-27.1257
 20
-0.0131999999999999
  0
VERTEX
  8
CAPA_1
 10
-27.02569670093453
 20
-0.0033505347346958
  0
VERTEX
  8
CAPA_1
 10
-26.92953647256965
 20
0.0258193516347147
  0
VERTEX
  8
CAPA_1
 10
-26.84091469855415
 20
0.0731886767337158
  0
VERTEX
  8
CAPA_1
 10
-26.76323706396377
 20
0.1369370639637764
  0
VERTEX
  8
CAPA_1
 10
-26.69948867673371
 20
0.2146146985541527
  0
VERTEX
  8
CAPA_1
 10
-26.65211935163471
 20
0.303236472569656
  0
VERTEX
  8
CAPA_1
 10
-26.6229494652653
 20
0.3993967009345338
  0
VERTEX
  8
CAPA_1
 10
-26.6131
 20
0.4994000000000013
  0
VERTEX
  8
CAPA_1
 10
-26.6229494652653
 20
0.5994032990654687
  0
VERTEX
  8
CAPA_1
 10
-26.65211935163471
 20
0.6955635274303464
  0
VERTEX
  8
CAPA_1
 10
-26.69948867673371
 20
0.7841853014458494
  0
VERTEX
  8
CAPA_1
 10
-26.76323706396377
 20
0.8618629360362254
  0
VERTEX
  8
CAPA_1
 10
-26.84091469855415
 20
0.9256113232662857
  0
VERTEX
  8
CAPA_1
 10
-26.92953647256966
 20
0.9729806483652863
  0
VERTEX
  8
CAPA_1
 10
-27.02569670093453
 20
1.002150534734696
  0
SEQEND
  8
CAPA_1
  0
POLYLINE
  8
CAPA_1
 62
   253
 66
     1
 70
     1
  0
VERTEX
  8
CAPA_1
 62
   253
 10
18.6068
 20
7.7336
  0
VERTEX
  8
CAPA_1
 62
   253
 10
18.701
 20
7.7421
  0
VERTEX
  8
CAPA_1
 62
   253
 10
18.7322
 20
7.6482
  0
VERTEX
  8
CAPA_1
 62
   253
 10
18.8084
 20
7.589
  0
VERTEX
  8
CAPA_1
 62
   253
 10
18.9246
 20
7.5664
  0
VERTEX
  8
CAPA_1
 62
   253
 10
19.0259
 20
7.5835
  0
VERTEX
  8
CAPA_1
 62
   253
 10
19.0911
 20
7.6306
  0
VERTEX
  8
CAPA_1
 62
   253
 10
19.1126
 20
7.6955
  0
VERTEX
  8
CAPA_1
 62
   253
 10
19.092
 20
7.7576
  0
VERTEX
  8
CAPA_1
 62
   253
 10
19.0238
 20
7.8022
  0
VERTEX
  8
CAPA_1
 62
   253
 10
18.8888
 20
7.8391
  0
VERTEX
  8
CAPA_1
 62
   253
 10
18.7426
 20
7.8864
  0
VERTEX
  8
CAPA_1
 62
   253
 10
18.662
 20
7.9571
  0
VERTEX
  8
CAPA_1
 62
   253
 10
18.6354
 20
8.0515
  0
VERTEX
  8
CAPA_1
 62
   253
 10
18.668
 20
8.1589
  0
VERTEX
  8
CAPA_1
 62
   253
 10
18.7631
 20
8.2347
  0
VERTEX
  8
CAPA_1
 62
   253
 10
18.902
 20
8.2606
  0
VERTEX
  8
CAPA_1
 62
   253
 10
19.0506
 20
8.2335
  0
VERTEX
  8
CAPA_1
 62
   253
 10
19.1495
 20
8.1536
  0
VERTEX
  8
CAPA_1
 62
   253
 10
19.1867
 20
8.0342
  0
VERTEX
  8
CAPA_1
 62
   253
 10
19.0904
 20
8.0268
  0
VERTEX
  8
CAPA_1
 62
   253
 10
19.038
 20
8.1351
  0
VERTEX
  8
CAPA_1
 62
   253
 10
18.9059
 20
8.1717
  0
VERTEX
  8
CAPA_1
 62
   253
 10
18.7733
 20
8.1384
  0
VERTEX
  8
CAPA_1
 62
   253
 10
18.7317
 20
8.058
  0
VERTEX
  8
CAPA_1
 62
   253
 10
18.7611
 20
7.9908
  0
VERTEX
  8
CAPA_1
 62
   253
 10
18.9123
 20
7.9368
  0
VERTEX
  8
CAPA_1
 62
   253
 10
19.08
 20
7.8885
  0
VERTEX
  8
CAPA_1
 62
   253
 10
19.1776
 20
7.8114
  0
VERTEX
  8
CAPA_1
 62
   253
 10
19.209
 20
7.704
  0
VERTEX
  8
CAPA_1
 62
   253
 10
19.1744
 20
7.5902
  0
VERTEX
  8
CAPA_1
 62
   253
 10
19.0751
 20
7.5071
  0
VERTEX
  8
CAPA_1
 62
   253
 10
18.9292
 20
7.4775
  0
VERTEX
  8
CAPA_1
 62
   253
 10
18.7572
 20
7.5075
  0
VERTEX
  8
CAPA_1
 62
   253
 10
18.6484
 20
7.5976
  0
VERTEX
  8
CAPA_1
 62
   253
 10
18.6068
 20
7.7336
  0
SEQEND
  8
CAPA_1
 62
   253
  0
POLYLINE
  8
CAPA_1
 62
   253
 66
     1
 70
     1
  0
VERTEX
  8
CAPA_1
 62
   253
 10
19.6577
 20
7.4902
  0
VERTEX
  8
CAPA_1
 62
   253
 10
19.5646
 20
7.4902
  0
VERTEX
  8
CAPA_1
 62
   253
 10
19.5646
 20
8.0832
  0
VERTEX
  8
CAPA_1
 62
   253
 10
19.4764
 20
8.019
  0
VERTEX
  8
CAPA_1
 62
   253
 10
19.3783
 20
7.971
  0
VERTEX
  8
CAPA_1
 62
   253
 10
19.3783
 20
8.061
  0
VERTEX
  8
CAPA_1
 62
   253
 10
19.5148
 20
8.1499
  0
VERTEX
  8
CAPA_1
 62
   253
 10
19.5977
 20
8.2511
  0
VERTEX
  8
CAPA_1
 62
   253
 10
19.6577
 20
8.2511
  0
VERTEX
  8
CAPA_1
 62
   253
 10
19.6577
 20
7.4902
  0
SEQEND
  8
CAPA_1
 62
   253
  0
POLYLINE
  8
CAPA_1
 62
   253
 66
     1
 70
     1
  0
VERTEX
  8
CAPA_1
 62
   253
 10
19.9394
 20
7.4902
  0
VERTEX
  8
CAPA_1
 62
   253
 10
19.9394
 20
8.2479
  0
VERTEX
  8
CAPA_1
 62
   253
 10
20.4505
 20
8.2479
  0
VERTEX
  8
CAPA_1
 62
   253
 10
20.4505
 20
8.159
  0
VERTEX
  8
CAPA_1
 62
   253
 10
20.0399
 20
8.159
  0
VERTEX
  8
CAPA_1
 62
   253
 10
20.0399
 20
7.923
  0
VERTEX
  8
CAPA_1
 62
   253
 10
20.3955
 20
7.923
  0
VERTEX
  8
CAPA_1
 62
   253
 10
20.3955
 20
7.8341
  0
VERTEX
  8
CAPA_1
 62
   253
 10
20.0399
 20
7.8341
  0
VERTEX
  8
CAPA_1
 62
   253
 10
20.0399
 20
7.4902
  0
VERTEX
  8
CAPA_1
 62
   253
 10
19.9394
 20
7.4902
  0
SEQEND
  8
CAPA_1
 62
   253
  0
POLYLINE
  8
CAPA_1
 62
   253
 66
     1
 70
     1
  0
VERTEX
  8
CAPA_1
 62
   253
 10
19.2443
 20
13.4928
  0
VERTEX
  8
CAPA_1
 62
   253
 10
19.2443
 20
14.2505
  0
VERTEX
  8
CAPA_1
 62
   253
 10
19.3448
 20
14.2505
  0
VERTEX
  8
CAPA_1
 62
   253
 10
19.3448
 20
13.5817
  0
VERTEX
  8
CAPA_1
 62
   253
 10
19.7173
 20
13.5817
  0
VERTEX
  8
CAPA_1
 62
   253
 10
19.7173
 20
13.4928
  0
VERTEX
  8
CAPA_1
 62
   253
 10
19.2443
 20
13.4928
  0
SEQEND
  8
CAPA_1
 62
   253
  0
POLYLINE
  8
CAPA_1
 62
   253
 66
     1
 70
     1
  0
VERTEX
  8
CAPA_1
 62
   253
 10
19.8392
 20
13.4928
  0
VERTEX
  8
CAPA_1
 62
   253
 10
19.8392
 20
14.2505
  0
VERTEX
  8
CAPA_1
 62
   253
 10
20.3863
 20
14.2505
  0
VERTEX
  8
CAPA_1
 62
   253
 10
20.3863
 20
14.1616
  0
VERTEX
  8
CAPA_1
 62
   253
 10
19.9397
 20
14.1616
  0
VERTEX
  8
CAPA_1
 62
   253
 10
19.9397
 20
13.9288
  0
VERTEX
  8
CAPA_1
 62
   253
 10
20.3578
 20
13.9288
  0
VERTEX
  8
CAPA_1
 62
   253
 10
20.3578
 20
13.8399
  0
VERTEX
  8
CAPA_1
 62
   253
 10
19.9397
 20
13.8399
  0
VERTEX
  8
CAPA_1
 62
   253
 10
19.9397
 20
13.5817
  0
VERTEX
  8
CAPA_1
 62
   253
 10
20.4043
 20
13.5817
  0
VERTEX
  8
CAPA_1
 62
   253
 10
20.4043
 20
13.4928
  0
VERTEX
  8
CAPA_1
 62
   253
 10
19.8392
 20
13.4928
  0
SEQEND
  8
CAPA_1
 62
   253
  0
POLYLINE
  8
CAPA_1
 62
   253
 66
     1
 70
     1
  0
VERTEX
  8
CAPA_1
 62
   253
 10
20.543
 20
13.4928
  0
VERTEX
  8
CAPA_1
 62
   253
 10
20.543
 20
14.2505
  0
VERTEX
  8
CAPA_1
 62
   253
 10
20.804
 20
14.2505
  0
VERTEX
  8
CAPA_1
 62
   253
 10
20.939
 20
14.2398
  0
VERTEX
  8
CAPA_1
 62
   253
 10
21.0501
 20
14.1855
  0
VERTEX
  8
CAPA_1
 62
   253
 10
21.1397
 20
14.056
  0
VERTEX
  8
CAPA_1
 62
   253
 10
21.1695
 20
13.8757
  0
VERTEX
  8
CAPA_1
 62
   253
 10
21.1494
 20
13.7228
  0
VERTEX
  8
CAPA_1
 62
   253
 10
21.0977
 20
13.6124
  0
VERTEX
  8
CAPA_1
 62
   253
 10
21.0286
 20
13.5438
  0
VERTEX
  8
CAPA_1
 62
   253
 10
20.9383
 20
13.5057
  0
VERTEX
  8
CAPA_1
 62
   253
 10
20.8164
 20
13.4928
  0
VERTEX
  8
CAPA_1
 62
   253
 10
20.543
 20
13.4928
  0
SEQEND
  8
CAPA_1
 62
   253
  0
POLYLINE
  8
CAPA_1
 62
   253
 66
     1
 70
     1
  0
VERTEX
  8
CAPA_1
 62
   253
 10
20.6435
 20
13.5817
  0
VERTEX
  8
CAPA_1
 62
   253
 10
20.8051
 20
13.5817
  0
VERTEX
  8
CAPA_1
 62
   253
 10
20.9226
 20
13.5956
  0
VERTEX
  8
CAPA_1
 62
   253
 10
20.9905
 20
13.635
  0
VERTEX
  8
CAPA_1
 62
   253
 10
21.0459
 20
13.7311
  0
VERTEX
  8
CAPA_1
 62
   253
 10
21.0658
 20
13.8773
  0
VERTEX
  8
CAPA_1
 62
   253
 10
21.0268
 20
14.0604
  0
VERTEX
  8
CAPA_1
 62
   253
 10
20.9321
 20
14.1461
  0
VERTEX
  8
CAPA_1
 62
   253
 10
20.8024
 20
14.1616
  0
VERTEX
  8
CAPA_1
 62
   253
 10
20.6435
 20
14.1616
  0
VERTEX
  8
CAPA_1
 62
   253
 10
20.6435
 20
13.5817
  0
SEQEND
  8
CAPA_1
 62
   253
  0
POLYLINE
  8
CAPA_1
 62
   253
 66
     1
 70
     1
  0
VERTEX
  8
CAPA_1
 62
   253
 10
-32.0617
 20
-13.5046
  0
VERTEX
  8
CAPA_1
 62
   253
 10
-32.0617
 20
-13.0317
  0
VERTEX
  8
CAPA_1
 62
   253
 10
-31.5912
 20
-13.0317
  0
VERTEX
  8
CAPA_1
 62
   253
 10
-31.5912
 20
-12.8339
  0
VERTEX
  8
CAPA_1
 62
   253
 10
-32.0617
 20
-12.8339
  0
VERTEX
  8
CAPA_1
 62
   253
 10
-32.0617
 20
-12.3634
  0
VERTEX
  8
CAPA_1
 62
   253
 10
-32.2619
 20
-12.3634
  0
VERTEX
  8
CAPA_1
 62
   253
 10
-32.2619
 20
-12.8339
  0
VERTEX
  8
CAPA_1
 62
   253
 10
-32.7324
 20
-12.8339
  0
VERTEX
  8
CAPA_1
 62
   253
 10
-32.7324
 20
-13.0317
  0
VERTEX
  8
CAPA_1
 62
   253
 10
-32.2619
 20
-13.0317
  0
VERTEX
  8
CAPA_1
 62
   253
 10
-32.2619
 20
-13.5046
  0
VERTEX
  8
CAPA_1
 62
   253
 10
-32.0617
 20
-13.5046
  0
SEQEND
  8
CAPA_1
 62
   253
  0
POLYLINE
  8
CAPA_1
 62
   253
 66
     1
 70
     1
  0
VERTEX
  8
CAPA_1
 62
   253
 10
-29.9876
 20
-13.0704
  0
VERTEX
  8
CAPA_1
 62
   253
 10
-29.9876
 20
-12.7977
  0
VERTEX
  8
CAPA_1
 62
   253
 10
-30.8303
 20
-12.7977
  0
VERTEX
  8
CAPA_1
 62
   253
 10
-30.8303
 20
-13.0704
  0
VERTEX
  8
CAPA_1
 62
   253
 10
-29.9876
 20
-13.0704
  0
SEQEND
  8
CAPA_1
 62
   253
  0
POLYLINE
  8
CAPA_1
 62
   253
 66
     1
 70
     1
  0
VERTEX
  8
CAPA_1
 62
   253
 10
-30.1912
 20
-10.6445
  0
VERTEX
  8
CAPA_1
 62
   253
 10
-30.1912
 20
-10.1716
  0
VERTEX
  8
CAPA_1
 62
   253
 10
-29.7207
 20
-10.1716
  0
VERTEX
  8
CAPA_1
 62
   253
 10
-29.7207
 20
-9.9738
  0
VERTEX
  8
CAPA_1
 62
   253
 10
-30.1912
 20
-9.9738
  0
VERTEX
  8
CAPA_1
 62
   253
 10
-30.1912
 20
-9.5033
  0
VERTEX
  8
CAPA_1
 62
   253
 10
-30.3914
 20
-9.5033
  0
VERTEX
  8
CAPA_1
 62
   253
 10
-30.3914
 20
-9.9738
  0
VERTEX
  8
CAPA_1
 62
   253
 10
-30.8619
 20
-9.9738
  0
VERTEX
  8
CAPA_1
 62
   253
 10
-30.8619
 20
-10.1716
  0
VERTEX
  8
CAPA_1
 62
   253
 10
-30.3914
 20
-10.1716
  0
VERTEX
  8
CAPA_1
 62
   253
 10
-30.3914
 20
-10.6445
  0
VERTEX
  8
CAPA_1
 62
   253
 10
-30.1912
 20
-10.6445
  0
SEQEND
  8
CAPA_1
 62
   253
  0
ENDSEC
  0
EOF
