  0
SECTION
  2
HEADER
  9
$ACADVER
  1
AC1002
  9
$INSBASE
 10
0.0
 20
0.0
  9
$EXTMIN
 10
-42.7263
 20
-13.5046
  9
$EXTMAX
 10
45.7454
 20
14.2505
  9
$LIMMIN
 10
0.0
 20
0.0
  9
$LIMMAX
 10
12.0
 20
9.0
  9
$ORTHOMODE
 70
     0
  9
$REGENMODE
 70
     1
  9
$FILLMODE
 70
     1
  9
$QTEXTMODE
 70
     0
  9
$DRAGMODE
 70
     2
  9
$LTSCALE
 40
1.0
  9
$OSMODE
 70
    37
  9
$ATTMODE
 70
     1
  9
$TEXTSIZE
 40
0.2
  9
$TRACEWID
 40
0.05
  9
$TEXTSTYLE
  7
STANDARD
  9
$CLAYER
  8
0
  9
$CELTYPE
  6
BYLAYER
  9
$CECOLOR
 62
   256
  9
$DIMSCALE
 40
1.0
  9
$DIMASZ
 40
0.18
  9
$DIMEXO
 40
0.0625
  9
$DIMDLI
 40
0.38
  9
$DIMRND
 40
0.0
  9
$DIMDLE
 40
0.0
  9
$DIMEXE
 40
0.18
  9
$DIMTP
 40
0.0
  9
$DIMTM
 40
0.0
  9
$DIMTXT
 40
0.18
  9
$DIMCEN
 40
0.09
  9
$DIMTSZ
 40
0.0
  9
$DIMTOL
 70
     0
  9
$DIMLIM
 70
     0
  9
$DIMTIH
 70
     1
  9
$DIMTOH
 70
     1
  9
$DIMSE1
 70
     0
  9
$DIMSE2
 70
     0
  9
$DIMTAD
 70
     0
  9
$DIMZIN
 70
     0
  9
$DIMBLK
  1

  9
$LUNITS
 70
     2
  9
$LUPREC
 70
     4
  9
$SKETCHINC
 40
0.1
  9
$FILLETRAD
 40
0.5
  9
$AUNITS
 70
     0
  9
$AUPREC
 70
     0
  9
$MENU
  1
.
  9
$ELEVATION
 40
0.0
  9
$THICKNESS
 40
0.0
  9
$LIMCHECK
 70
     0
  9
$CHAMFERA
 40
0.5
  9
$CHAMFERB
 40
0.5
  9
$SKPOLY
 70
     0
  9
$TDCREATE
 40
2458404.496151458
  9
$TDUPDATE
 40
2458404.496151724
  9
$TDINDWG
 40
0.0000000116
  9
$TDUSRTIMER
 40
0.0000000116
  9
$USRTIMER
 70
     1
  9
$ANGBASE
 50
0.0
  9
$ANGDIR
 70
     0
  9
$PDMODE
 70
     0
  9
$PDSIZE
 40
0.0
  9
$PLINEWID
 40
0.0
  9
$COORDS
 70
     1
  9
$SURFTAB1
 70
     6
  9
$SURFTAB2
 70
     6
  9
$SURFTYPE
 70
     6
  9
$SURFU
 70
     6
  9
$SURFV
 70
     6
  9
$UCSNAME
  2

  9
$UCSORG
 10
0.0
 20
0.0
 30
0.0
  9
$UCSXDIR
 10
1.0
 20
0.0
 30
0.0
  9
$UCSYDIR
 10
0.0
 20
1.0
 30
0.0
  9
$USERI1
 70
     0
  9
$USERI2
 70
     0
  9
$USERI3
 70
     0
  9
$USERI4
 70
     0
  9
$USERI5
 70
     0
  9
$USERR1
 40
0.0
  9
$USERR2
 40
0.0
  9
$USERR3
 40
0.0
  9
$USERR4
 40
0.0
  9
$USERR5
 40
0.0
  0
ENDSEC
  0
SECTION
  2
TABLES
  0
TABLE
  2
LTYPE
 70
     1
  0
LTYPE
  2
CONTINUOUS
 70
     0
  3
Solid line
 72
    65
 73
     0
 40
0.0
  0
ENDTAB
  0
TABLE
  2
LAYER
 70
     2
  0
LAYER
  2
0
 70
     0
 62
     7
  6
CONTINUOUS
  0
LAYER
  2
CAPA_1
 70
     0
 62
     7
  6
CONTINUOUS
  0
ENDTAB
  0
TABLE
  2
STYLE
 70
     1
  0
STYLE
  2
STANDARD
 70
     0
 40
0.0
 41
1.0
 50
0.0
 71
     0
 42
0.2
  3
txt
  4

  0
ENDTAB
  0
TABLE
  2
VIEW
 70
     0
  0
ENDTAB
  0
ENDSEC
  0
SECTION
  2
BLOCKS
  0
ENDSEC
  0
SECTION
  2
ENTITIES
  0
POLYLINE
  8
CAPA_1
 62
   254
 66
     1
 70
     1
  0
VERTEX
  8
CAPA_1
 62
   254
 10
29.7793
 20
11.8442
  0
VERTEX
  8
CAPA_1
 62
   254
 10
29.9159
 20
11.8565
  0
VERTEX
  8
CAPA_1
 62
   254
 10
29.9612
 20
11.7204
  0
VERTEX
  8
CAPA_1
 62
   254
 10
30.0717
 20
11.6345
  0
VERTEX
  8
CAPA_1
 62
   254
 10
30.2403
 20
11.6017
  0
VERTEX
  8
CAPA_1
 62
   254
 10
30.3871
 20
11.6265
  0
VERTEX
  8
CAPA_1
 62
   254
 10
30.4818
 20
11.6948
  0
VERTEX
  8
CAPA_1
 62
   254
 10
30.513
 20
11.789
  0
VERTEX
  8
CAPA_1
 62
   254
 10
30.4831
 20
11.879
  0
VERTEX
  8
CAPA_1
 62
   254
 10
30.3841
 20
11.9437
  0
VERTEX
  8
CAPA_1
 62
   254
 10
30.1884
 20
11.9972
  0
VERTEX
  8
CAPA_1
 62
   254
 10
29.9763
 20
12.0658
  0
VERTEX
  8
CAPA_1
 62
   254
 10
29.8594
 20
12.1683
  0
VERTEX
  8
CAPA_1
 62
   254
 10
29.8207
 20
12.3052
  0
VERTEX
  8
CAPA_1
 62
   254
 10
29.8681
 20
12.461
  0
VERTEX
  8
CAPA_1
 62
   254
 10
30.006
 20
12.571
  0
VERTEX
  8
CAPA_1
 62
   254
 10
30.2075
 20
12.6086
  0
VERTEX
  8
CAPA_1
 62
   254
 10
30.4229
 20
12.5692
  0
VERTEX
  8
CAPA_1
 62
   254
 10
30.5665
 20
12.4533
  0
VERTEX
  8
CAPA_1
 62
   254
 10
30.6204
 20
12.2801
  0
VERTEX
  8
CAPA_1
 62
   254
 10
30.4808
 20
12.2694
  0
VERTEX
  8
CAPA_1
 62
   254
 10
30.4048
 20
12.4265
  0
VERTEX
  8
CAPA_1
 62
   254
 10
30.2132
 20
12.4797
  0
VERTEX
  8
CAPA_1
 62
   254
 10
30.0208
 20
12.4313
  0
VERTEX
  8
CAPA_1
 62
   254
 10
29.9604
 20
12.3147
  0
VERTEX
  8
CAPA_1
 62
   254
 10
30.0031
 20
12.2172
  0
VERTEX
  8
CAPA_1
 62
   254
 10
30.2224
 20
12.1389
  0
VERTEX
  8
CAPA_1
 62
   254
 10
30.4657
 20
12.0688
  0
VERTEX
  8
CAPA_1
 62
   254
 10
30.6071
 20
11.957
  0
VERTEX
  8
CAPA_1
 62
   254
 10
30.6527
 20
11.8012
  0
VERTEX
  8
CAPA_1
 62
   254
 10
30.6025
 20
11.6362
  0
VERTEX
  8
CAPA_1
 62
   254
 10
30.4585
 20
11.5158
  0
VERTEX
  8
CAPA_1
 62
   254
 10
30.2469
 20
11.4728
  0
VERTEX
  8
CAPA_1
 62
   254
 10
29.9975
 20
11.5163
  0
VERTEX
  8
CAPA_1
 62
   254
 10
29.8397
 20
11.647
  0
VERTEX
  8
CAPA_1
 62
   254
 10
29.7793
 20
11.8442
  0
SEQEND
  8
CAPA_1
 62
   254
  0
POLYLINE
  8
CAPA_1
 62
   254
 66
     1
 70
     1
  0
VERTEX
  8
CAPA_1
 62
   254
 10
30.8062
 20
12.0261
  0
VERTEX
  8
CAPA_1
 62
   254
 10
30.8154
 20
12.1553
  0
VERTEX
  8
CAPA_1
 62
   254
 10
30.843
 20
12.2698
  0
VERTEX
  8
CAPA_1
 62
   254
 10
30.889
 20
12.3694
  0
VERTEX
  8
CAPA_1
 62
   254
 10
30.9533
 20
12.4541
  0
VERTEX
  8
CAPA_1
 62
   254
 10
31.0321
 20
12.5217
  0
VERTEX
  8
CAPA_1
 62
   254
 10
31.1215
 20
12.57
  0
VERTEX
  8
CAPA_1
 62
   254
 10
31.2217
 20
12.599
  0
VERTEX
  8
CAPA_1
 62
   254
 10
31.3326
 20
12.6086
  0
VERTEX
  8
CAPA_1
 62
   254
 10
31.6071
 20
12.536
  0
VERTEX
  8
CAPA_1
 62
   254
 10
31.7934
 20
12.3333
  0
VERTEX
  8
CAPA_1
 62
   254
 10
31.8576
 20
12.0389
  0
VERTEX
  8
CAPA_1
 62
   254
 10
31.79
 20
11.7401
  0
VERTEX
  8
CAPA_1
 62
   254
 10
31.599
 20
11.5406
  0
VERTEX
  8
CAPA_1
 62
   254
 10
31.3319
 20
11.4728
  0
VERTEX
  8
CAPA_1
 62
   254
 10
31.0543
 20
11.5477
  0
VERTEX
  8
CAPA_1
 62
   254
 10
30.8691
 20
11.7521
  0
VERTEX
  8
CAPA_1
 62
   254
 10
30.8062
 20
12.0261
  0
SEQEND
  8
CAPA_1
 62
   254
  0
POLYLINE
  8
CAPA_1
 62
   254
 66
     1
 70
     1
  0
VERTEX
  8
CAPA_1
 62
   254
 10
30.9566
 20
12.0236
  0
VERTEX
  8
CAPA_1
 62
   254
 10
30.9633
 20
11.9297
  0
VERTEX
  8
CAPA_1
 62
   254
 10
30.9833
 20
11.8463
  0
VERTEX
  8
CAPA_1
 62
   254
 10
31.0166
 20
11.7735
  0
VERTEX
  8
CAPA_1
 62
   254
 10
31.0633
 20
11.7112
  0
VERTEX
  8
CAPA_1
 62
   254
 10
31.12
 20
11.6613
  0
VERTEX
  8
CAPA_1
 62
   254
 10
31.1836
 20
11.6257
  0
VERTEX
  8
CAPA_1
 62
   254
 10
31.2539
 20
11.6042
  0
VERTEX
  8
CAPA_1
 62
   254
 10
31.3311
 20
11.5971
  0
VERTEX
  8
CAPA_1
 62
   254
 10
31.4095
 20
11.6043
  0
VERTEX
  8
CAPA_1
 62
   254
 10
31.4807
 20
11.6259
  0
VERTEX
  8
CAPA_1
 62
   254
 10
31.5446
 20
11.6619
  0
VERTEX
  8
CAPA_1
 62
   254
 10
31.6013
 20
11.7122
  0
VERTEX
  8
CAPA_1
 62
   254
 10
31.6476
 20
11.7758
  0
VERTEX
  8
CAPA_1
 62
   254
 10
31.6807
 20
11.8515
  0
VERTEX
  8
CAPA_1
 62
   254
 10
31.7006
 20
11.9393
  0
VERTEX
  8
CAPA_1
 62
   254
 10
31.7072
 20
12.0392
  0
VERTEX
  8
CAPA_1
 62
   254
 10
31.6619
 20
12.273
  0
VERTEX
  8
CAPA_1
 62
   254
 10
31.5294
 20
12.4277
  0
VERTEX
  8
CAPA_1
 62
   254
 10
31.3334
 20
12.4827
  0
VERTEX
  8
CAPA_1
 62
   254
 10
31.0679
 20
12.3768
  0
VERTEX
  8
CAPA_1
 62
   254
 10
31.0192
 20
12.315
  0
VERTEX
  8
CAPA_1
 62
   254
 10
30.9844
 20
12.2356
  0
VERTEX
  8
CAPA_1
 62
   254
 10
30.9636
 20
12.1385
  0
VERTEX
  8
CAPA_1
 62
   254
 10
30.9566
 20
12.0236
  0
SEQEND
  8
CAPA_1
 62
   254
  0
POLYLINE
  8
CAPA_1
 62
   254
 66
     1
 70
     1
  0
VERTEX
  8
CAPA_1
 62
   254
 10
32.0384
 20
11.4912
  0
VERTEX
  8
CAPA_1
 62
   254
 10
32.0384
 20
12.5902
  0
VERTEX
  8
CAPA_1
 62
   254
 10
32.1843
 20
12.5902
  0
VERTEX
  8
CAPA_1
 62
   254
 10
32.1843
 20
11.6201
  0
VERTEX
  8
CAPA_1
 62
   254
 10
32.7245
 20
11.6201
  0
VERTEX
  8
CAPA_1
 62
   254
 10
32.7245
 20
11.4912
  0
VERTEX
  8
CAPA_1
 62
   254
 10
32.0384
 20
11.4912
  0
SEQEND
  8
CAPA_1
 62
   254
  0
POLYLINE
  8
CAPA_1
 62
   254
 66
     1
 70
     1
  0
VERTEX
  8
CAPA_1
 62
   254
 10
32.8568
 20
11.4728
  0
VERTEX
  8
CAPA_1
 62
   254
 10
32.9221
 20
11.792
  0
VERTEX
  8
CAPA_1
 62
   254
 10
32.7954
 20
11.792
  0
VERTEX
  8
CAPA_1
 62
   254
 10
32.7954
 20
11.9041
  0
VERTEX
  8
CAPA_1
 62
   254
 10
32.9448
 20
11.9041
  0
VERTEX
  8
CAPA_1
 62
   254
 10
33.0004
 20
12.1758
  0
VERTEX
  8
CAPA_1
 62
   254
 10
32.7954
 20
12.1758
  0
VERTEX
  8
CAPA_1
 62
   254
 10
32.7954
 20
12.2878
  0
VERTEX
  8
CAPA_1
 62
   254
 10
33.0231
 20
12.2878
  0
VERTEX
  8
CAPA_1
 62
   254
 10
33.0886
 20
12.6086
  0
VERTEX
  8
CAPA_1
 62
   254
 10
33.2012
 20
12.6086
  0
VERTEX
  8
CAPA_1
 62
   254
 10
33.1357
 20
12.2878
  0
VERTEX
  8
CAPA_1
 62
   254
 10
33.3698
 20
12.2878
  0
VERTEX
  8
CAPA_1
 62
   254
 10
33.4352
 20
12.6086
  0
VERTEX
  8
CAPA_1
 62
   254
 10
33.5476
 20
12.6086
  0
VERTEX
  8
CAPA_1
 62
   254
 10
33.4821
 20
12.2878
  0
VERTEX
  8
CAPA_1
 62
   254
 10
33.612
 20
12.2878
  0
VERTEX
  8
CAPA_1
 62
   254
 10
33.612
 20
12.1758
  0
VERTEX
  8
CAPA_1
 62
   254
 10
33.4593
 20
12.1758
  0
VERTEX
  8
CAPA_1
 62
   254
 10
33.4038
 20
11.9041
  0
VERTEX
  8
CAPA_1
 62
   254
 10
33.612
 20
11.9041
  0
VERTEX
  8
CAPA_1
 62
   254
 10
33.612
 20
11.792
  0
VERTEX
  8
CAPA_1
 62
   254
 10
33.381
 20
11.792
  0
VERTEX
  8
CAPA_1
 62
   254
 10
33.3158
 20
11.4728
  0
VERTEX
  8
CAPA_1
 62
   254
 10
33.2032
 20
11.4728
  0
VERTEX
  8
CAPA_1
 62
   254
 10
33.2685
 20
11.792
  0
VERTEX
  8
CAPA_1
 62
   254
 10
33.0344
 20
11.792
  0
VERTEX
  8
CAPA_1
 62
   254
 10
32.9691
 20
11.4728
  0
VERTEX
  8
CAPA_1
 62
   254
 10
32.8568
 20
11.4728
  0
SEQEND
  8
CAPA_1
 62
   254
  0
POLYLINE
  8
CAPA_1
 62
   254
 66
     1
 70
     1
  0
VERTEX
  8
CAPA_1
 62
   254
 10
33.0571
 20
11.9041
  0
VERTEX
  8
CAPA_1
 62
   254
 10
33.2912
 20
11.9041
  0
VERTEX
  8
CAPA_1
 62
   254
 10
33.3467
 20
12.1758
  0
VERTEX
  8
CAPA_1
 62
   254
 10
33.1127
 20
12.1758
  0
VERTEX
  8
CAPA_1
 62
   254
 10
33.0571
 20
11.9041
  0
SEQEND
  8
CAPA_1
 62
   254
  0
POLYLINE
  8
CAPA_1
 62
   254
 66
     1
 70
     1
  0
VERTEX
  8
CAPA_1
 62
   254
 10
34.4059
 20
11.6201
  0
VERTEX
  8
CAPA_1
 62
   254
 10
34.4059
 20
11.4912
  0
VERTEX
  8
CAPA_1
 62
   254
 10
33.6783
 20
11.4912
  0
VERTEX
  8
CAPA_1
 62
   254
 10
33.6942
 20
11.5851
  0
VERTEX
  8
CAPA_1
 62
   254
 10
33.784
 20
11.7312
  0
VERTEX
  8
CAPA_1
 62
   254
 10
33.9605
 20
11.8969
  0
VERTEX
  8
CAPA_1
 62
   254
 10
34.2025
 20
12.1297
  0
VERTEX
  8
CAPA_1
 62
   254
 10
34.2662
 20
12.2924
  0
VERTEX
  8
CAPA_1
 62
   254
 10
34.2086
 20
12.4277
  0
VERTEX
  8
CAPA_1
 62
   254
 10
34.0585
 20
12.4827
  0
VERTEX
  8
CAPA_1
 62
   254
 10
33.9019
 20
12.4244
  0
VERTEX
  8
CAPA_1
 62
   254
 10
33.8425
 20
12.2633
  0
VERTEX
  8
CAPA_1
 62
   254
 10
33.7044
 20
12.2771
  0
VERTEX
  8
CAPA_1
 62
   254
 10
33.8116
 20
12.5134
  0
VERTEX
  8
CAPA_1
 62
   254
 10
34.0615
 20
12.5948
  0
VERTEX
  8
CAPA_1
 62
   254
 10
34.312
 20
12.507
  0
VERTEX
  8
CAPA_1
 62
   254
 10
34.4043
 20
12.2893
  0
VERTEX
  8
CAPA_1
 62
   254
 10
34.3772
 20
12.1596
  0
VERTEX
  8
CAPA_1
 62
   254
 10
34.2877
 20
12.0251
  0
VERTEX
  8
CAPA_1
 62
   254
 10
34.0797
 20
11.8317
  0
VERTEX
  8
CAPA_1
 62
   254
 10
33.9234
 20
11.6933
  0
VERTEX
  8
CAPA_1
 62
   254
 10
33.8663
 20
11.6201
  0
VERTEX
  8
CAPA_1
 62
   254
 10
34.4059
 20
11.6201
  0
SEQEND
  8
CAPA_1
 62
   254
  0
POLYLINE
  8
CAPA_1
 62
   254
 66
     1
 70
     1
  0
VERTEX
  8
CAPA_1
 62
   254
 10
34.5351
 20
11.8212
  0
VERTEX
  8
CAPA_1
 62
   254
 10
34.5351
 20
11.9563
  0
VERTEX
  8
CAPA_1
 62
   254
 10
34.9526
 20
11.9563
  0
VERTEX
  8
CAPA_1
 62
   254
 10
34.9526
 20
11.8212
  0
VERTEX
  8
CAPA_1
 62
   254
 10
34.5351
 20
11.8212
  0
SEQEND
  8
CAPA_1
 62
   254
  0
POLYLINE
  8
CAPA_1
 62
   253
 66
     1
 70
     1
  0
VERTEX
  8
CAPA_1
 62
   253
 10
32.5181
 20
4.5101
  0
VERTEX
  8
CAPA_1
 62
   253
 10
32.6547
 20
4.5224
  0
VERTEX
  8
CAPA_1
 62
   253
 10
32.7
 20
4.3863
  0
VERTEX
  8
CAPA_1
 62
   253
 10
32.8105
 20
4.3004
  0
VERTEX
  8
CAPA_1
 62
   253
 10
32.9791
 20
4.2676
  0
VERTEX
  8
CAPA_1
 62
   253
 10
33.1259
 20
4.2924
  0
VERTEX
  8
CAPA_1
 62
   253
 10
33.2206
 20
4.3607
  0
VERTEX
  8
CAPA_1
 62
   253
 10
33.2518
 20
4.4549
  0
VERTEX
  8
CAPA_1
 62
   253
 10
33.2219
 20
4.5449
  0
VERTEX
  8
CAPA_1
 62
   253
 10
33.1229
 20
4.6096
  0
VERTEX
  8
CAPA_1
 62
   253
 10
32.9272
 20
4.6631
  0
VERTEX
  8
CAPA_1
 62
   253
 10
32.7151
 20
4.7317
  0
VERTEX
  8
CAPA_1
 62
   253
 10
32.5982
 20
4.8342
  0
VERTEX
  8
CAPA_1
 62
   253
 10
32.5595
 20
4.9711
  0
VERTEX
  8
CAPA_1
 62
   253
 10
32.6069
 20
5.1269
  0
VERTEX
  8
CAPA_1
 62
   253
 10
32.7448
 20
5.2369
  0
VERTEX
  8
CAPA_1
 62
   253
 10
32.9463
 20
5.2745
  0
VERTEX
  8
CAPA_1
 62
   253
 10
33.1617
 20
5.2351
  0
VERTEX
  8
CAPA_1
 62
   253
 10
33.3053
 20
5.1192
  0
VERTEX
  8
CAPA_1
 62
   253
 10
33.3592
 20
4.946
  0
VERTEX
  8
CAPA_1
 62
   253
 10
33.2196
 20
4.9353
  0
VERTEX
  8
CAPA_1
 62
   253
 10
33.1436
 20
5.0924
  0
VERTEX
  8
CAPA_1
 62
   253
 10
32.952
 20
5.1456
  0
VERTEX
  8
CAPA_1
 62
   253
 10
32.7596
 20
5.0972
  0
VERTEX
  8
CAPA_1
 62
   253
 10
32.6992
 20
4.9806
  0
VERTEX
  8
CAPA_1
 62
   253
 10
32.7419
 20
4.8831
  0
VERTEX
  8
CAPA_1
 62
   253
 10
32.9612
 20
4.8048
  0
VERTEX
  8
CAPA_1
 62
   253
 10
33.2045
 20
4.7347
  0
VERTEX
  8
CAPA_1
 62
   253
 10
33.3459
 20
4.6229
  0
VERTEX
  8
CAPA_1
 62
   253
 10
33.3915
 20
4.4671
  0
VERTEX
  8
CAPA_1
 62
   253
 10
33.3413
 20
4.3021
  0
VERTEX
  8
CAPA_1
 62
   253
 10
33.1973
 20
4.1817
  0
VERTEX
  8
CAPA_1
 62
   253
 10
32.9857
 20
4.1387
  0
VERTEX
  8
CAPA_1
 62
   253
 10
32.7363
 20
4.1822
  0
VERTEX
  8
CAPA_1
 62
   253
 10
32.5785
 20
4.3129
  0
VERTEX
  8
CAPA_1
 62
   253
 10
32.5181
 20
4.5101
  0
SEQEND
  8
CAPA_1
 62
   253
  0
POLYLINE
  8
CAPA_1
 62
   253
 66
     1
 70
     1
  0
VERTEX
  8
CAPA_1
 62
   253
 10
33.545
 20
4.692
  0
VERTEX
  8
CAPA_1
 62
   253
 10
33.5542
 20
4.8212
  0
VERTEX
  8
CAPA_1
 62
   253
 10
33.5818
 20
4.9357
  0
VERTEX
  8
CAPA_1
 62
   253
 10
33.6278
 20
5.0353
  0
VERTEX
  8
CAPA_1
 62
   253
 10
33.6921
 20
5.12
  0
VERTEX
  8
CAPA_1
 62
   253
 10
33.7709
 20
5.1876
  0
VERTEX
  8
CAPA_1
 62
   253
 10
33.8603
 20
5.2359
  0
VERTEX
  8
CAPA_1
 62
   253
 10
33.9605
 20
5.2649
  0
VERTEX
  8
CAPA_1
 62
   253
 10
34.0714
 20
5.2745
  0
VERTEX
  8
CAPA_1
 62
   253
 10
34.3459
 20
5.2019
  0
VERTEX
  8
CAPA_1
 62
   253
 10
34.5322
 20
4.9992
  0
VERTEX
  8
CAPA_1
 62
   253
 10
34.5964
 20
4.7048
  0
VERTEX
  8
CAPA_1
 62
   253
 10
34.5288
 20
4.406
  0
VERTEX
  8
CAPA_1
 62
   253
 10
34.3378
 20
4.2065
  0
VERTEX
  8
CAPA_1
 62
   253
 10
34.0707
 20
4.1387
  0
VERTEX
  8
CAPA_1
 62
   253
 10
33.7931
 20
4.2136
  0
VERTEX
  8
CAPA_1
 62
   253
 10
33.6079
 20
4.418
  0
VERTEX
  8
CAPA_1
 62
   253
 10
33.545
 20
4.692
  0
SEQEND
  8
CAPA_1
 62
   253
  0
POLYLINE
  8
CAPA_1
 62
   253
 66
     1
 70
     1
  0
VERTEX
  8
CAPA_1
 62
   253
 10
33.6954
 20
4.6895
  0
VERTEX
  8
CAPA_1
 62
   253
 10
33.7021
 20
4.5956
  0
VERTEX
  8
CAPA_1
 62
   253
 10
33.7221
 20
4.5122
  0
VERTEX
  8
CAPA_1
 62
   253
 10
33.7554
 20
4.4394
  0
VERTEX
  8
CAPA_1
 62
   253
 10
33.8021
 20
4.3771
  0
VERTEX
  8
CAPA_1
 62
   253
 10
33.8588
 20
4.3272
  0
VERTEX
  8
CAPA_1
 62
   253
 10
33.9224
 20
4.2916
  0
VERTEX
  8
CAPA_1
 62
   253
 10
33.9927
 20
4.2701
  0
VERTEX
  8
CAPA_1
 62
   253
 10
34.0699
 20
4.263
  0
VERTEX
  8
CAPA_1
 62
   253
 10
34.1483
 20
4.2702
  0
VERTEX
  8
CAPA_1
 62
   253
 10
34.2195
 20
4.2918
  0
VERTEX
  8
CAPA_1
 62
   253
 10
34.2834
 20
4.3278
  0
VERTEX
  8
CAPA_1
 62
   253
 10
34.3401
 20
4.3781
  0
VERTEX
  8
CAPA_1
 62
   253
 10
34.3864
 20
4.4417
  0
VERTEX
  8
CAPA_1
 62
   253
 10
34.4195
 20
4.5174
  0
VERTEX
  8
CAPA_1
 62
   253
 10
34.4394
 20
4.6052
  0
VERTEX
  8
CAPA_1
 62
   253
 10
34.446
 20
4.7051
  0
VERTEX
  8
CAPA_1
 62
   253
 10
34.4007
 20
4.9389
  0
VERTEX
  8
CAPA_1
 62
   253
 10
34.2682
 20
5.0936
  0
VERTEX
  8
CAPA_1
 62
   253
 10
34.0722
 20
5.1486
  0
VERTEX
  8
CAPA_1
 62
   253
 10
33.8067
 20
5.0427
  0
VERTEX
  8
CAPA_1
 62
   253
 10
33.758
 20
4.9809
  0
VERTEX
  8
CAPA_1
 62
   253
 10
33.7232
 20
4.9015
  0
VERTEX
  8
CAPA_1
 62
   253
 10
33.7024
 20
4.8044
  0
VERTEX
  8
CAPA_1
 62
   253
 10
33.6954
 20
4.6895
  0
SEQEND
  8
CAPA_1
 62
   253
  0
POLYLINE
  8
CAPA_1
 62
   253
 66
     1
 70
     1
  0
VERTEX
  8
CAPA_1
 62
   253
 10
34.7772
 20
4.1571
  0
VERTEX
  8
CAPA_1
 62
   253
 10
34.7772
 20
5.2561
  0
VERTEX
  8
CAPA_1
 62
   253
 10
34.9231
 20
5.2561
  0
VERTEX
  8
CAPA_1
 62
   253
 10
34.9231
 20
4.286
  0
VERTEX
  8
CAPA_1
 62
   253
 10
35.4633
 20
4.286
  0
VERTEX
  8
CAPA_1
 62
   253
 10
35.4633
 20
4.1571
  0
VERTEX
  8
CAPA_1
 62
   253
 10
34.7772
 20
4.1571
  0
SEQEND
  8
CAPA_1
 62
   253
  0
POLYLINE
  8
CAPA_1
 62
   253
 66
     1
 70
     1
  0
VERTEX
  8
CAPA_1
 62
   253
 10
35.5956
 20
4.1387
  0
VERTEX
  8
CAPA_1
 62
   253
 10
35.6609
 20
4.4579
  0
VERTEX
  8
CAPA_1
 62
   253
 10
35.5342
 20
4.4579
  0
VERTEX
  8
CAPA_1
 62
   253
 10
35.5342
 20
4.57
  0
VERTEX
  8
CAPA_1
 62
   253
 10
35.6836
 20
4.57
  0
VERTEX
  8
CAPA_1
 62
   253
 10
35.7392
 20
4.8417
  0
VERTEX
  8
CAPA_1
 62
   253
 10
35.5342
 20
4.8417
  0
VERTEX
  8
CAPA_1
 62
   253
 10
35.5342
 20
4.9537
  0
VERTEX
  8
CAPA_1
 62
   253
 10
35.7619
 20
4.9537
  0
VERTEX
  8
CAPA_1
 62
   253
 10
35.8274
 20
5.2745
  0
VERTEX
  8
CAPA_1
 62
   253
 10
35.94
 20
5.2745
  0
VERTEX
  8
CAPA_1
 62
   253
 10
35.8745
 20
4.9537
  0
VERTEX
  8
CAPA_1
 62
   253
 10
36.1086
 20
4.9537
  0
VERTEX
  8
CAPA_1
 62
   253
 10
36.174
 20
5.2745
  0
VERTEX
  8
CAPA_1
 62
   253
 10
36.2864
 20
5.2745
  0
VERTEX
  8
CAPA_1
 62
   253
 10
36.2209
 20
4.9537
  0
VERTEX
  8
CAPA_1
 62
   253
 10
36.3508
 20
4.9537
  0
VERTEX
  8
CAPA_1
 62
   253
 10
36.3508
 20
4.8417
  0
VERTEX
  8
CAPA_1
 62
   253
 10
36.1981
 20
4.8417
  0
VERTEX
  8
CAPA_1
 62
   253
 10
36.1426
 20
4.57
  0
VERTEX
  8
CAPA_1
 62
   253
 10
36.3508
 20
4.57
  0
VERTEX
  8
CAPA_1
 62
   253
 10
36.3508
 20
4.4579
  0
VERTEX
  8
CAPA_1
 62
   253
 10
36.1198
 20
4.4579
  0
VERTEX
  8
CAPA_1
 62
   253
 10
36.0546
 20
4.1387
  0
VERTEX
  8
CAPA_1
 62
   253
 10
35.942
 20
4.1387
  0
VERTEX
  8
CAPA_1
 62
   253
 10
36.0073
 20
4.4579
  0
VERTEX
  8
CAPA_1
 62
   253
 10
35.7732
 20
4.4579
  0
VERTEX
  8
CAPA_1
 62
   253
 10
35.7079
 20
4.1387
  0
VERTEX
  8
CAPA_1
 62
   253
 10
35.5956
 20
4.1387
  0
SEQEND
  8
CAPA_1
 62
   253
  0
POLYLINE
  8
CAPA_1
 62
   253
 66
     1
 70
     1
  0
VERTEX
  8
CAPA_1
 62
   253
 10
35.7959
 20
4.57
  0
VERTEX
  8
CAPA_1
 62
   253
 10
36.03
 20
4.57
  0
VERTEX
  8
CAPA_1
 62
   253
 10
36.0855
 20
4.8417
  0
VERTEX
  8
CAPA_1
 62
   253
 10
35.8515
 20
4.8417
  0
VERTEX
  8
CAPA_1
 62
   253
 10
35.7959
 20
4.57
  0
SEQEND
  8
CAPA_1
 62
   253
  0
POLYLINE
  8
CAPA_1
 62
   253
 66
     1
 70
     1
  0
VERTEX
  8
CAPA_1
 62
   253
 10
37.1447
 20
4.286
  0
VERTEX
  8
CAPA_1
 62
   253
 10
37.1447
 20
4.1571
  0
VERTEX
  8
CAPA_1
 62
   253
 10
36.4171
 20
4.1571
  0
VERTEX
  8
CAPA_1
 62
   253
 10
36.433
 20
4.251
  0
VERTEX
  8
CAPA_1
 62
   253
 10
36.5228
 20
4.3971
  0
VERTEX
  8
CAPA_1
 62
   253
 10
36.6993
 20
4.5628
  0
VERTEX
  8
CAPA_1
 62
   253
 10
36.9413
 20
4.7956
  0
VERTEX
  8
CAPA_1
 62
   253
 10
37.005
 20
4.9583
  0
VERTEX
  8
CAPA_1
 62
   253
 10
36.9474
 20
5.0936
  0
VERTEX
  8
CAPA_1
 62
   253
 10
36.7973
 20
5.1486
  0
VERTEX
  8
CAPA_1
 62
   253
 10
36.6407
 20
5.0903
  0
VERTEX
  8
CAPA_1
 62
   253
 10
36.5813
 20
4.9292
  0
VERTEX
  8
CAPA_1
 62
   253
 10
36.4432
 20
4.943
  0
VERTEX
  8
CAPA_1
 62
   253
 10
36.5504
 20
5.1793
  0
VERTEX
  8
CAPA_1
 62
   253
 10
36.8003
 20
5.2607
  0
VERTEX
  8
CAPA_1
 62
   253
 10
37.0508
 20
5.1729
  0
VERTEX
  8
CAPA_1
 62
   253
 10
37.1431
 20
4.9552
  0
VERTEX
  8
CAPA_1
 62
   253
 10
37.116
 20
4.8255
  0
VERTEX
  8
CAPA_1
 62
   253
 10
37.0265
 20
4.691
  0
VERTEX
  8
CAPA_1
 62
   253
 10
36.8185
 20
4.4976
  0
VERTEX
  8
CAPA_1
 62
   253
 10
36.6622
 20
4.3592
  0
VERTEX
  8
CAPA_1
 62
   253
 10
36.6051
 20
4.286
  0
VERTEX
  8
CAPA_1
 62
   253
 10
37.1447
 20
4.286
  0
SEQEND
  8
CAPA_1
 62
   253
  0
POLYLINE
  8
CAPA_1
 62
   253
 66
     1
 70
     1
  0
VERTEX
  8
CAPA_1
 62
   253
 10
37.6116
 20
4.3351
  0
VERTEX
  8
CAPA_1
 62
   253
 10
37.6116
 20
4.636
  0
VERTEX
  8
CAPA_1
 62
   253
 10
37.3123
 20
4.636
  0
VERTEX
  8
CAPA_1
 62
   253
 10
37.3123
 20
4.7619
  0
VERTEX
  8
CAPA_1
 62
   253
 10
37.6116
 20
4.7619
  0
VERTEX
  8
CAPA_1
 62
   253
 10
37.6116
 20
5.0612
  0
VERTEX
  8
CAPA_1
 62
   253
 10
37.739
 20
5.0612
  0
VERTEX
  8
CAPA_1
 62
   253
 10
37.739
 20
4.7619
  0
VERTEX
  8
CAPA_1
 62
   253
 10
38.0383
 20
4.7619
  0
VERTEX
  8
CAPA_1
 62
   253
 10
38.0383
 20
4.636
  0
VERTEX
  8
CAPA_1
 62
   253
 10
37.739
 20
4.636
  0
VERTEX
  8
CAPA_1
 62
   253
 10
37.739
 20
4.3351
  0
VERTEX
  8
CAPA_1
 62
   253
 10
37.6116
 20
4.3351
  0
SEQEND
  8
CAPA_1
 62
   253
  0
POLYLINE
  8
CAPA_1
 62
   254
 66
     1
 70
     1
  0
VERTEX
  8
CAPA_1
 62
   254
 10
16.7386
 20
12.4542
  0
VERTEX
  8
CAPA_1
 62
   254
 10
16.8752
 20
12.4665
  0
VERTEX
  8
CAPA_1
 62
   254
 10
16.9205
 20
12.3304
  0
VERTEX
  8
CAPA_1
 62
   254
 10
17.031
 20
12.2445
  0
VERTEX
  8
CAPA_1
 62
   254
 10
17.1996
 20
12.2117
  0
VERTEX
  8
CAPA_1
 62
   254
 10
17.3464
 20
12.2365
  0
VERTEX
  8
CAPA_1
 62
   254
 10
17.4411
 20
12.3048
  0
VERTEX
  8
CAPA_1
 62
   254
 10
17.4723
 20
12.399
  0
VERTEX
  8
CAPA_1
 62
   254
 10
17.4424
 20
12.489
  0
VERTEX
  8
CAPA_1
 62
   254
 10
17.3434
 20
12.5537
  0
VERTEX
  8
CAPA_1
 62
   254
 10
17.1477
 20
12.6072
  0
VERTEX
  8
CAPA_1
 62
   254
 10
16.9356
 20
12.6758
  0
VERTEX
  8
CAPA_1
 62
   254
 10
16.8187
 20
12.7783
  0
VERTEX
  8
CAPA_1
 62
   254
 10
16.78
 20
12.9152
  0
VERTEX
  8
CAPA_1
 62
   254
 10
16.8274
 20
13.071
  0
VERTEX
  8
CAPA_1
 62
   254
 10
16.9653
 20
13.181
  0
VERTEX
  8
CAPA_1
 62
   254
 10
17.1668
 20
13.2186
  0
VERTEX
  8
CAPA_1
 62
   254
 10
17.3822
 20
13.1792
  0
VERTEX
  8
CAPA_1
 62
   254
 10
17.5258
 20
13.0633
  0
VERTEX
  8
CAPA_1
 62
   254
 10
17.5797
 20
12.8901
  0
VERTEX
  8
CAPA_1
 62
   254
 10
17.4401
 20
12.8794
  0
VERTEX
  8
CAPA_1
 62
   254
 10
17.3641
 20
13.0365
  0
VERTEX
  8
CAPA_1
 62
   254
 10
17.1725
 20
13.0897
  0
VERTEX
  8
CAPA_1
 62
   254
 10
16.9801
 20
13.0413
  0
VERTEX
  8
CAPA_1
 62
   254
 10
16.9197
 20
12.9247
  0
VERTEX
  8
CAPA_1
 62
   254
 10
16.9624
 20
12.8272
  0
VERTEX
  8
CAPA_1
 62
   254
 10
17.1817
 20
12.7489
  0
VERTEX
  8
CAPA_1
 62
   254
 10
17.425
 20
12.6788
  0
VERTEX
  8
CAPA_1
 62
   254
 10
17.5664
 20
12.567
  0
VERTEX
  8
CAPA_1
 62
   254
 10
17.612
 20
12.4112
  0
VERTEX
  8
CAPA_1
 62
   254
 10
17.5618
 20
12.2462
  0
VERTEX
  8
CAPA_1
 62
   254
 10
17.4178
 20
12.1258
  0
VERTEX
  8
CAPA_1
 62
   254
 10
17.2062
 20
12.0828
  0
VERTEX
  8
CAPA_1
 62
   254
 10
16.9568
 20
12.1263
  0
VERTEX
  8
CAPA_1
 62
   254
 10
16.799
 20
12.257
  0
VERTEX
  8
CAPA_1
 62
   254
 10
16.7386
 20
12.4542
  0
SEQEND
  8
CAPA_1
 62
   254
  0
POLYLINE
  8
CAPA_1
 62
   254
 66
     1
 70
     1
  0
VERTEX
  8
CAPA_1
 62
   254
 10
18.4639
 20
12.2301
  0
VERTEX
  8
CAPA_1
 62
   254
 10
18.4639
 20
12.1012
  0
VERTEX
  8
CAPA_1
 62
   254
 10
17.7363
 20
12.1012
  0
VERTEX
  8
CAPA_1
 62
   254
 10
17.7522
 20
12.1951
  0
VERTEX
  8
CAPA_1
 62
   254
 10
17.842
 20
12.3412
  0
VERTEX
  8
CAPA_1
 62
   254
 10
18.0185
 20
12.5069
  0
VERTEX
  8
CAPA_1
 62
   254
 10
18.2605
 20
12.7397
  0
VERTEX
  8
CAPA_1
 62
   254
 10
18.3242
 20
12.9024
  0
VERTEX
  8
CAPA_1
 62
   254
 10
18.2666
 20
13.0377
  0
VERTEX
  8
CAPA_1
 62
   254
 10
18.1165
 20
13.0927
  0
VERTEX
  8
CAPA_1
 62
   254
 10
17.9599
 20
13.0344
  0
VERTEX
  8
CAPA_1
 62
   254
 10
17.9005
 20
12.8733
  0
VERTEX
  8
CAPA_1
 62
   254
 10
17.7624
 20
12.8871
  0
VERTEX
  8
CAPA_1
 62
   254
 10
17.8696
 20
13.1234
  0
VERTEX
  8
CAPA_1
 62
   254
 10
18.1195
 20
13.2048
  0
VERTEX
  8
CAPA_1
 62
   254
 10
18.37
 20
13.117
  0
VERTEX
  8
CAPA_1
 62
   254
 10
18.4623
 20
12.8993
  0
VERTEX
  8
CAPA_1
 62
   254
 10
18.4352
 20
12.7696
  0
VERTEX
  8
CAPA_1
 62
   254
 10
18.3457
 20
12.6351
  0
VERTEX
  8
CAPA_1
 62
   254
 10
18.1377
 20
12.4417
  0
VERTEX
  8
CAPA_1
 62
   254
 10
17.9814
 20
12.3033
  0
VERTEX
  8
CAPA_1
 62
   254
 10
17.9243
 20
12.2301
  0
VERTEX
  8
CAPA_1
 62
   254
 10
18.4639
 20
12.2301
  0
SEQEND
  8
CAPA_1
 62
   254
  0
POLYLINE
  8
CAPA_1
 62
   254
 66
     1
 70
     1
  0
VERTEX
  8
CAPA_1
 62
   254
 10
18.9308
 20
12.2792
  0
VERTEX
  8
CAPA_1
 62
   254
 10
18.9308
 20
12.5801
  0
VERTEX
  8
CAPA_1
 62
   254
 10
18.6315
 20
12.5801
  0
VERTEX
  8
CAPA_1
 62
   254
 10
18.6315
 20
12.706
  0
VERTEX
  8
CAPA_1
 62
   254
 10
18.9308
 20
12.706
  0
VERTEX
  8
CAPA_1
 62
   254
 10
18.9308
 20
13.0053
  0
VERTEX
  8
CAPA_1
 62
   254
 10
19.0582
 20
13.0053
  0
VERTEX
  8
CAPA_1
 62
   254
 10
19.0582
 20
12.706
  0
VERTEX
  8
CAPA_1
 62
   254
 10
19.3575
 20
12.706
  0
VERTEX
  8
CAPA_1
 62
   254
 10
19.3575
 20
12.5801
  0
VERTEX
  8
CAPA_1
 62
   254
 10
19.0582
 20
12.5801
  0
VERTEX
  8
CAPA_1
 62
   254
 10
19.0582
 20
12.2792
  0
VERTEX
  8
CAPA_1
 62
   254
 10
18.9308
 20
12.2792
  0
SEQEND
  8
CAPA_1
 62
   254
  0
POLYLINE
  8
CAPA_1
 62
   254
 66
     1
 70
     1
  0
VERTEX
  8
CAPA_1
 62
   254
 10
20.5711
 20
12.4153
  0
VERTEX
  8
CAPA_1
 62
   254
 10
20.7077
 20
12.4276
  0
VERTEX
  8
CAPA_1
 62
   254
 10
20.753
 20
12.2915
  0
VERTEX
  8
CAPA_1
 62
   254
 10
20.8635
 20
12.2056
  0
VERTEX
  8
CAPA_1
 62
   254
 10
21.0321
 20
12.1728
  0
VERTEX
  8
CAPA_1
 62
   254
 10
21.1789
 20
12.1976
  0
VERTEX
  8
CAPA_1
 62
   254
 10
21.2736
 20
12.2659
  0
VERTEX
  8
CAPA_1
 62
   254
 10
21.3048
 20
12.3601
  0
VERTEX
  8
CAPA_1
 62
   254
 10
21.2749
 20
12.4501
  0
VERTEX
  8
CAPA_1
 62
   254
 10
21.1759
 20
12.5148
  0
VERTEX
  8
CAPA_1
 62
   254
 10
20.9802
 20
12.5683
  0
VERTEX
  8
CAPA_1
 62
   254
 10
20.7681
 20
12.6369
  0
VERTEX
  8
CAPA_1
 62
   254
 10
20.6512
 20
12.7394
  0
VERTEX
  8
CAPA_1
 62
   254
 10
20.6125
 20
12.8763
  0
VERTEX
  8
CAPA_1
 62
   254
 10
20.6599
 20
13.0321
  0
VERTEX
  8
CAPA_1
 62
   254
 10
20.7978
 20
13.1421
  0
VERTEX
  8
CAPA_1
 62
   254
 10
20.9993
 20
13.1797
  0
VERTEX
  8
CAPA_1
 62
   254
 10
21.2147
 20
13.1403
  0
VERTEX
  8
CAPA_1
 62
   254
 10
21.3583
 20
13.0244
  0
VERTEX
  8
CAPA_1
 62
   254
 10
21.4122
 20
12.8512
  0
VERTEX
  8
CAPA_1
 62
   254
 10
21.2726
 20
12.8405
  0
VERTEX
  8
CAPA_1
 62
   254
 10
21.1966
 20
12.9976
  0
VERTEX
  8
CAPA_1
 62
   254
 10
21.005
 20
13.0508
  0
VERTEX
  8
CAPA_1
 62
   254
 10
20.8126
 20
13.0024
  0
VERTEX
  8
CAPA_1
 62
   254
 10
20.7522
 20
12.8858
  0
VERTEX
  8
CAPA_1
 62
   254
 10
20.7949
 20
12.7883
  0
VERTEX
  8
CAPA_1
 62
   254
 10
21.0142
 20
12.71
  0
VERTEX
  8
CAPA_1
 62
   254
 10
21.2575
 20
12.6399
  0
VERTEX
  8
CAPA_1
 62
   254
 10
21.3989
 20
12.5281
  0
VERTEX
  8
CAPA_1
 62
   254
 10
21.4445
 20
12.3723
  0
VERTEX
  8
CAPA_1
 62
   254
 10
21.3943
 20
12.2073
  0
VERTEX
  8
CAPA_1
 62
   254
 10
21.2503
 20
12.0869
  0
VERTEX
  8
CAPA_1
 62
   254
 10
21.0387
 20
12.0439
  0
VERTEX
  8
CAPA_1
 62
   254
 10
20.7893
 20
12.0874
  0
VERTEX
  8
CAPA_1
 62
   254
 10
20.6315
 20
12.2181
  0
VERTEX
  8
CAPA_1
 62
   254
 10
20.5711
 20
12.4153
  0
SEQEND
  8
CAPA_1
 62
   254
  0
POLYLINE
  8
CAPA_1
 62
   254
 66
     1
 70
     1
  0
VERTEX
  8
CAPA_1
 62
   254
 10
22.2964
 20
12.1912
  0
VERTEX
  8
CAPA_1
 62
   254
 10
22.2964
 20
12.0623
  0
VERTEX
  8
CAPA_1
 62
   254
 10
21.5688
 20
12.0623
  0
VERTEX
  8
CAPA_1
 62
   254
 10
21.5847
 20
12.1562
  0
VERTEX
  8
CAPA_1
 62
   254
 10
21.6745
 20
12.3023
  0
VERTEX
  8
CAPA_1
 62
   254
 10
21.851
 20
12.468
  0
VERTEX
  8
CAPA_1
 62
   254
 10
22.093
 20
12.7008
  0
VERTEX
  8
CAPA_1
 62
   254
 10
22.1567
 20
12.8635
  0
VERTEX
  8
CAPA_1
 62
   254
 10
22.0991
 20
12.9988
  0
VERTEX
  8
CAPA_1
 62
   254
 10
21.949
 20
13.0538
  0
VERTEX
  8
CAPA_1
 62
   254
 10
21.7924
 20
12.9955
  0
VERTEX
  8
CAPA_1
 62
   254
 10
21.733
 20
12.8344
  0
VERTEX
  8
CAPA_1
 62
   254
 10
21.5949
 20
12.8482
  0
VERTEX
  8
CAPA_1
 62
   254
 10
21.7021
 20
13.0845
  0
VERTEX
  8
CAPA_1
 62
   254
 10
21.952
 20
13.1659
  0
VERTEX
  8
CAPA_1
 62
   254
 10
22.2025
 20
13.0781
  0
VERTEX
  8
CAPA_1
 62
   254
 10
22.2948
 20
12.8604
  0
VERTEX
  8
CAPA_1
 62
   254
 10
22.2677
 20
12.7307
  0
VERTEX
  8
CAPA_1
 62
   254
 10
22.1782
 20
12.5962
  0
VERTEX
  8
CAPA_1
 62
   254
 10
21.9702
 20
12.4028
  0
VERTEX
  8
CAPA_1
 62
   254
 10
21.8139
 20
12.2644
  0
VERTEX
  8
CAPA_1
 62
   254
 10
21.7568
 20
12.1912
  0
VERTEX
  8
CAPA_1
 62
   254
 10
22.2964
 20
12.1912
  0
SEQEND
  8
CAPA_1
 62
   254
  0
POLYLINE
  8
CAPA_1
 62
   254
 66
     1
 70
     1
  0
VERTEX
  8
CAPA_1
 62
   254
 10
22.4256
 20
12.3923
  0
VERTEX
  8
CAPA_1
 62
   254
 10
22.4256
 20
12.5274
  0
VERTEX
  8
CAPA_1
 62
   254
 10
22.8431
 20
12.5274
  0
VERTEX
  8
CAPA_1
 62
   254
 10
22.8431
 20
12.3923
  0
VERTEX
  8
CAPA_1
 62
   254
 10
22.4256
 20
12.3923
  0
SEQEND
  8
CAPA_1
 62
   254
  0
POLYLINE
  8
CAPA_1
 62
   253
 66
     1
 70
     1
  0
VERTEX
  8
CAPA_1
 62
   253
 10
41.2955
 20
7.681
  0
VERTEX
  8
CAPA_1
 62
   253
 10
41.3897
 20
7.6895
  0
VERTEX
  8
CAPA_1
 62
   253
 10
41.4209
 20
7.5956
  0
VERTEX
  8
CAPA_1
 62
   253
 10
41.4971
 20
7.5364
  0
VERTEX
  8
CAPA_1
 62
   253
 10
41.6133
 20
7.5138
  0
VERTEX
  8
CAPA_1
 62
   253
 10
41.7146
 20
7.5309
  0
VERTEX
  8
CAPA_1
 62
   253
 10
41.7798
 20
7.578
  0
VERTEX
  8
CAPA_1
 62
   253
 10
41.8013
 20
7.6429
  0
VERTEX
  8
CAPA_1
 62
   253
 10
41.7807
 20
7.705
  0
VERTEX
  8
CAPA_1
 62
   253
 10
41.7125
 20
7.7496
  0
VERTEX
  8
CAPA_1
 62
   253
 10
41.5775
 20
7.7865
  0
VERTEX
  8
CAPA_1
 62
   253
 10
41.4313
 20
7.8338
  0
VERTEX
  8
CAPA_1
 62
   253
 10
41.3507
 20
7.9045
  0
VERTEX
  8
CAPA_1
 62
   253
 10
41.3241
 20
7.9989
  0
VERTEX
  8
CAPA_1
 62
   253
 10
41.3567
 20
8.1063
  0
VERTEX
  8
CAPA_1
 62
   253
 10
41.4518
 20
8.1821
  0
VERTEX
  8
CAPA_1
 62
   253
 10
41.5907
 20
8.208
  0
VERTEX
  8
CAPA_1
 62
   253
 10
41.7393
 20
8.1809
  0
VERTEX
  8
CAPA_1
 62
   253
 10
41.8382
 20
8.101
  0
VERTEX
  8
CAPA_1
 62
   253
 10
41.8754
 20
7.9816
  0
VERTEX
  8
CAPA_1
 62
   253
 10
41.7791
 20
7.9742
  0
VERTEX
  8
CAPA_1
 62
   253
 10
41.7267
 20
8.0825
  0
VERTEX
  8
CAPA_1
 62
   253
 10
41.5946
 20
8.1191
  0
VERTEX
  8
CAPA_1
 62
   253
 10
41.462
 20
8.0858
  0
VERTEX
  8
CAPA_1
 62
   253
 10
41.4204
 20
8.0054
  0
VERTEX
  8
CAPA_1
 62
   253
 10
41.4498
 20
7.9382
  0
VERTEX
  8
CAPA_1
 62
   253
 10
41.601
 20
7.8842
  0
VERTEX
  8
CAPA_1
 62
   253
 10
41.7687
 20
7.8359
  0
VERTEX
  8
CAPA_1
 62
   253
 10
41.8663
 20
7.7588
  0
VERTEX
  8
CAPA_1
 62
   253
 10
41.8977
 20
7.6514
  0
VERTEX
  8
CAPA_1
 62
   253
 10
41.8631
 20
7.5376
  0
VERTEX
  8
CAPA_1
 62
   253
 10
41.7638
 20
7.4545
  0
VERTEX
  8
CAPA_1
 62
   253
 10
41.6179
 20
7.4249
  0
VERTEX
  8
CAPA_1
 62
   253
 10
41.4459
 20
7.4549
  0
VERTEX
  8
CAPA_1
 62
   253
 10
41.3371
 20
7.545
  0
VERTEX
  8
CAPA_1
 62
   253
 10
41.2955
 20
7.681
  0
SEQEND
  8
CAPA_1
 62
   253
  0
POLYLINE
  8
CAPA_1
 62
   253
 66
     1
 70
     1
  0
VERTEX
  8
CAPA_1
 62
   253
 10
42.3464
 20
7.4376
  0
VERTEX
  8
CAPA_1
 62
   253
 10
42.2533
 20
7.4376
  0
VERTEX
  8
CAPA_1
 62
   253
 10
42.2533
 20
8.0306
  0
VERTEX
  8
CAPA_1
 62
   253
 10
42.1651
 20
7.9664
  0
VERTEX
  8
CAPA_1
 62
   253
 10
42.067
 20
7.9184
  0
VERTEX
  8
CAPA_1
 62
   253
 10
42.067
 20
8.0084
  0
VERTEX
  8
CAPA_1
 62
   253
 10
42.2035
 20
8.0973
  0
VERTEX
  8
CAPA_1
 62
   253
 10
42.2864
 20
8.1985
  0
VERTEX
  8
CAPA_1
 62
   253
 10
42.3464
 20
8.1985
  0
VERTEX
  8
CAPA_1
 62
   253
 10
42.3464
 20
7.4376
  0
SEQEND
  8
CAPA_1
 62
   253
  0
POLYLINE
  8
CAPA_1
 62
   253
 66
     1
 70
     1
  0
VERTEX
  8
CAPA_1
 62
   253
 10
42.6281
 20
7.4376
  0
VERTEX
  8
CAPA_1
 62
   253
 10
42.6281
 20
8.1953
  0
VERTEX
  8
CAPA_1
 62
   253
 10
43.1392
 20
8.1953
  0
VERTEX
  8
CAPA_1
 62
   253
 10
43.1392
 20
8.1064
  0
VERTEX
  8
CAPA_1
 62
   253
 10
42.7286
 20
8.1064
  0
VERTEX
  8
CAPA_1
 62
   253
 10
42.7286
 20
7.8704
  0
VERTEX
  8
CAPA_1
 62
   253
 10
43.0842
 20
7.8704
  0
VERTEX
  8
CAPA_1
 62
   253
 10
43.0842
 20
7.7815
  0
VERTEX
  8
CAPA_1
 62
   253
 10
42.7286
 20
7.7815
  0
VERTEX
  8
CAPA_1
 62
   253
 10
42.7286
 20
7.4376
  0
VERTEX
  8
CAPA_1
 62
   253
 10
42.6281
 20
7.4376
  0
SEQEND
  8
CAPA_1
 62
   253
  0
POLYLINE
  8
CAPA_1
 62
   253
 66
     1
 70
     1
  0
VERTEX
  8
CAPA_1
 62
   253
 10
43.8752
 20
6.9203
  0
VERTEX
  8
CAPA_1
 62
   253
 10
43.9694
 20
6.9288
  0
VERTEX
  8
CAPA_1
 62
   253
 10
44.0006
 20
6.8349
  0
VERTEX
  8
CAPA_1
 62
   253
 10
44.0768
 20
6.7757
  0
VERTEX
  8
CAPA_1
 62
   253
 10
44.193
 20
6.7531
  0
VERTEX
  8
CAPA_1
 62
   253
 10
44.2943
 20
6.7702
  0
VERTEX
  8
CAPA_1
 62
   253
 10
44.3595
 20
6.8173
  0
VERTEX
  8
CAPA_1
 62
   253
 10
44.381
 20
6.8822
  0
VERTEX
  8
CAPA_1
 62
   253
 10
44.3604
 20
6.9443
  0
VERTEX
  8
CAPA_1
 62
   253
 10
44.2922
 20
6.9889
  0
VERTEX
  8
CAPA_1
 62
   253
 10
44.1572
 20
7.0258
  0
VERTEX
  8
CAPA_1
 62
   253
 10
44.011
 20
7.0731
  0
VERTEX
  8
CAPA_1
 62
   253
 10
43.9304
 20
7.1438
  0
VERTEX
  8
CAPA_1
 62
   253
 10
43.9038
 20
7.2382
  0
VERTEX
  8
CAPA_1
 62
   253
 10
43.9364
 20
7.3456
  0
VERTEX
  8
CAPA_1
 62
   253
 10
44.0315
 20
7.4214
  0
VERTEX
  8
CAPA_1
 62
   253
 10
44.1704
 20
7.4473
  0
VERTEX
  8
CAPA_1
 62
   253
 10
44.319
 20
7.4202
  0
VERTEX
  8
CAPA_1
 62
   253
 10
44.4179
 20
7.3403
  0
VERTEX
  8
CAPA_1
 62
   253
 10
44.4551
 20
7.2209
  0
VERTEX
  8
CAPA_1
 62
   253
 10
44.3588
 20
7.2135
  0
VERTEX
  8
CAPA_1
 62
   253
 10
44.3064
 20
7.3218
  0
VERTEX
  8
CAPA_1
 62
   253
 10
44.1743
 20
7.3584
  0
VERTEX
  8
CAPA_1
 62
   253
 10
44.0417
 20
7.3251
  0
VERTEX
  8
CAPA_1
 62
   253
 10
44.0001
 20
7.2447
  0
VERTEX
  8
CAPA_1
 62
   253
 10
44.0295
 20
7.1775
  0
VERTEX
  8
CAPA_1
 62
   253
 10
44.1807
 20
7.1235
  0
VERTEX
  8
CAPA_1
 62
   253
 10
44.3484
 20
7.0752
  0
VERTEX
  8
CAPA_1
 62
   253
 10
44.446
 20
6.9981
  0
VERTEX
  8
CAPA_1
 62
   253
 10
44.4774
 20
6.8907
  0
VERTEX
  8
CAPA_1
 62
   253
 10
44.4428
 20
6.7769
  0
VERTEX
  8
CAPA_1
 62
   253
 10
44.3435
 20
6.6938
  0
VERTEX
  8
CAPA_1
 62
   253
 10
44.1976
 20
6.6642
  0
VERTEX
  8
CAPA_1
 62
   253
 10
44.0256
 20
6.6942
  0
VERTEX
  8
CAPA_1
 62
   253
 10
43.9168
 20
6.7843
  0
VERTEX
  8
CAPA_1
 62
   253
 10
43.8752
 20
6.9203
  0
SEQEND
  8
CAPA_1
 62
   253
  0
POLYLINE
  8
CAPA_1
 62
   253
 66
     1
 70
     1
  0
VERTEX
  8
CAPA_1
 62
   253
 10
44.9261
 20
6.6769
  0
VERTEX
  8
CAPA_1
 62
   253
 10
44.833
 20
6.6769
  0
VERTEX
  8
CAPA_1
 62
   253
 10
44.833
 20
7.2699
  0
VERTEX
  8
CAPA_1
 62
   253
 10
44.7448
 20
7.2057
  0
VERTEX
  8
CAPA_1
 62
   253
 10
44.6467
 20
7.1577
  0
VERTEX
  8
CAPA_1
 62
   253
 10
44.6467
 20
7.2477
  0
VERTEX
  8
CAPA_1
 62
   253
 10
44.7832
 20
7.3366
  0
VERTEX
  8
CAPA_1
 62
   253
 10
44.8661
 20
7.4378
  0
VERTEX
  8
CAPA_1
 62
   253
 10
44.9261
 20
7.4378
  0
VERTEX
  8
CAPA_1
 62
   253
 10
44.9261
 20
6.6769
  0
SEQEND
  8
CAPA_1
 62
   253
  0
POLYLINE
  8
CAPA_1
 62
   253
 66
     1
 70
     1
  0
VERTEX
  8
CAPA_1
 62
   253
 10
45.3951
 20
6.6769
  0
VERTEX
  8
CAPA_1
 62
   253
 10
45.3951
 20
7.3457
  0
VERTEX
  8
CAPA_1
 62
   253
 10
45.1453
 20
7.3457
  0
VERTEX
  8
CAPA_1
 62
   253
 10
45.1453
 20
7.4346
  0
VERTEX
  8
CAPA_1
 62
   253
 10
45.7454
 20
7.4346
  0
VERTEX
  8
CAPA_1
 62
   253
 10
45.7454
 20
7.3457
  0
VERTEX
  8
CAPA_1
 62
   253
 10
45.4956
 20
7.3457
  0
VERTEX
  8
CAPA_1
 62
   253
 10
45.4956
 20
6.6769
  0
VERTEX
  8
CAPA_1
 62
   253
 10
45.3951
 20
6.6769
  0
SEQEND
  8
CAPA_1
 62
   253
  0
POLYLINE
  8
CAPA_1
 62
   253
 66
     1
 70
     1
  0
VERTEX
  8
CAPA_1
 62
   253
 10
39.1653
 20
6.8872
  0
VERTEX
  8
CAPA_1
 62
   253
 10
39.2595
 20
6.8957
  0
VERTEX
  8
CAPA_1
 62
   253
 10
39.2907
 20
6.8018
  0
VERTEX
  8
CAPA_1
 62
   253
 10
39.3669
 20
6.7426
  0
VERTEX
  8
CAPA_1
 62
   253
 10
39.4831
 20
6.72
  0
VERTEX
  8
CAPA_1
 62
   253
 10
39.5844
 20
6.7371
  0
VERTEX
  8
CAPA_1
 62
   253
 10
39.6496
 20
6.7842
  0
VERTEX
  8
CAPA_1
 62
   253
 10
39.6711
 20
6.8491
  0
VERTEX
  8
CAPA_1
 62
   253
 10
39.6505
 20
6.9112
  0
VERTEX
  8
CAPA_1
 62
   253
 10
39.5823
 20
6.9558
  0
VERTEX
  8
CAPA_1
 62
   253
 10
39.4473
 20
6.9927
  0
VERTEX
  8
CAPA_1
 62
   253
 10
39.3011
 20
7.04
  0
VERTEX
  8
CAPA_1
 62
   253
 10
39.2205
 20
7.1107
  0
VERTEX
  8
CAPA_1
 62
   253
 10
39.1939
 20
7.2051
  0
VERTEX
  8
CAPA_1
 62
   253
 10
39.2265
 20
7.3125
  0
VERTEX
  8
CAPA_1
 62
   253
 10
39.3216
 20
7.3883
  0
VERTEX
  8
CAPA_1
 62
   253
 10
39.4605
 20
7.4142
  0
VERTEX
  8
CAPA_1
 62
   253
 10
39.6091
 20
7.3871
  0
VERTEX
  8
CAPA_1
 62
   253
 10
39.708
 20
7.3072
  0
VERTEX
  8
CAPA_1
 62
   253
 10
39.7452
 20
7.1878
  0
VERTEX
  8
CAPA_1
 62
   253
 10
39.6489
 20
7.1804
  0
VERTEX
  8
CAPA_1
 62
   253
 10
39.5965
 20
7.2887
  0
VERTEX
  8
CAPA_1
 62
   253
 10
39.4644
 20
7.3253
  0
VERTEX
  8
CAPA_1
 62
   253
 10
39.3318
 20
7.292
  0
VERTEX
  8
CAPA_1
 62
   253
 10
39.2902
 20
7.2116
  0
VERTEX
  8
CAPA_1
 62
   253
 10
39.3196
 20
7.1444
  0
VERTEX
  8
CAPA_1
 62
   253
 10
39.4708
 20
7.0904
  0
VERTEX
  8
CAPA_1
 62
   253
 10
39.6385
 20
7.0421
  0
VERTEX
  8
CAPA_1
 62
   253
 10
39.7361
 20
6.965
  0
VERTEX
  8
CAPA_1
 62
   253
 10
39.7675
 20
6.8576
  0
VERTEX
  8
CAPA_1
 62
   253
 10
39.7329
 20
6.7438
  0
VERTEX
  8
CAPA_1
 62
   253
 10
39.6336
 20
6.6607
  0
VERTEX
  8
CAPA_1
 62
   253
 10
39.4877
 20
6.6311
  0
VERTEX
  8
CAPA_1
 62
   253
 10
39.3157
 20
6.6611
  0
VERTEX
  8
CAPA_1
 62
   253
 10
39.2069
 20
6.7512
  0
VERTEX
  8
CAPA_1
 62
   253
 10
39.1653
 20
6.8872
  0
SEQEND
  8
CAPA_1
 62
   253
  0
POLYLINE
  8
CAPA_1
 62
   253
 66
     1
 70
     1
  0
VERTEX
  8
CAPA_1
 62
   253
 10
40.2162
 20
6.6438
  0
VERTEX
  8
CAPA_1
 62
   253
 10
40.1231
 20
6.6438
  0
VERTEX
  8
CAPA_1
 62
   253
 10
40.1231
 20
7.2368
  0
VERTEX
  8
CAPA_1
 62
   253
 10
40.0349
 20
7.1726
  0
VERTEX
  8
CAPA_1
 62
   253
 10
39.9368
 20
7.1246
  0
VERTEX
  8
CAPA_1
 62
   253
 10
39.9368
 20
7.2146
  0
VERTEX
  8
CAPA_1
 62
   253
 10
40.0733
 20
7.3035
  0
VERTEX
  8
CAPA_1
 62
   253
 10
40.1562
 20
7.4047
  0
VERTEX
  8
CAPA_1
 62
   253
 10
40.2162
 20
7.4047
  0
VERTEX
  8
CAPA_1
 62
   253
 10
40.2162
 20
6.6438
  0
SEQEND
  8
CAPA_1
 62
   253
  0
POLYLINE
  8
CAPA_1
 62
   253
 66
     1
 70
     1
  0
VERTEX
  8
CAPA_1
 62
   253
 10
40.4439
 20
6.8713
  0
VERTEX
  8
CAPA_1
 62
   253
 10
40.4439
 20
6.9645
  0
VERTEX
  8
CAPA_1
 62
   253
 10
40.7318
 20
6.9645
  0
VERTEX
  8
CAPA_1
 62
   253
 10
40.7318
 20
6.8713
  0
VERTEX
  8
CAPA_1
 62
   253
 10
40.4439
 20
6.8713
  0
SEQEND
  8
CAPA_1
 62
   253
  0
POLYLINE
  8
CAPA_1
 62
   254
 66
     1
 70
     1
  0
VERTEX
  8
CAPA_1
 62
   254
 10
-29.8701
 20
12.6441
  0
VERTEX
  8
CAPA_1
 62
   254
 10
-29.8701
 20
13.7431
  0
VERTEX
  8
CAPA_1
 62
   254
 10
-29.1288
 20
13.7431
  0
VERTEX
  8
CAPA_1
 62
   254
 10
-29.1288
 20
13.6142
  0
VERTEX
  8
CAPA_1
 62
   254
 10
-29.7243
 20
13.6142
  0
VERTEX
  8
CAPA_1
 62
   254
 10
-29.7243
 20
13.2719
  0
VERTEX
  8
CAPA_1
 62
   254
 10
-29.2086
 20
13.2719
  0
VERTEX
  8
CAPA_1
 62
   254
 10
-29.2086
 20
13.1429
  0
VERTEX
  8
CAPA_1
 62
   254
 10
-29.7243
 20
13.1429
  0
VERTEX
  8
CAPA_1
 62
   254
 10
-29.7243
 20
12.6441
  0
VERTEX
  8
CAPA_1
 62
   254
 10
-29.8701
 20
12.6441
  0
SEQEND
  8
CAPA_1
 62
   254
  0
POLYLINE
  8
CAPA_1
 62
   254
 66
     1
 70
     1
  0
VERTEX
  8
CAPA_1
 62
   254
 10
-28.9325
 20
12.6441
  0
VERTEX
  8
CAPA_1
 62
   254
 10
-28.9325
 20
13.7431
  0
VERTEX
  8
CAPA_1
 62
   254
 10
-28.1912
 20
13.7431
  0
VERTEX
  8
CAPA_1
 62
   254
 10
-28.1912
 20
13.6142
  0
VERTEX
  8
CAPA_1
 62
   254
 10
-28.7867
 20
13.6142
  0
VERTEX
  8
CAPA_1
 62
   254
 10
-28.7867
 20
13.2719
  0
VERTEX
  8
CAPA_1
 62
   254
 10
-28.271
 20
13.2719
  0
VERTEX
  8
CAPA_1
 62
   254
 10
-28.271
 20
13.1429
  0
VERTEX
  8
CAPA_1
 62
   254
 10
-28.7867
 20
13.1429
  0
VERTEX
  8
CAPA_1
 62
   254
 10
-28.7867
 20
12.6441
  0
VERTEX
  8
CAPA_1
 62
   254
 10
-28.9325
 20
12.6441
  0
SEQEND
  8
CAPA_1
 62
   254
  0
POLYLINE
  8
CAPA_1
 62
   254
 66
     1
 70
     1
  0
VERTEX
  8
CAPA_1
 62
   254
 10
-28.2078
 20
12.6441
  0
VERTEX
  8
CAPA_1
 62
   254
 10
-27.7862
 20
13.7431
  0
VERTEX
  8
CAPA_1
 62
   254
 10
-27.6263
 20
13.7431
  0
VERTEX
  8
CAPA_1
 62
   254
 10
-27.1789
 20
12.6441
  0
VERTEX
  8
CAPA_1
 62
   254
 10
-27.3444
 20
12.6441
  0
VERTEX
  8
CAPA_1
 62
   254
 10
-27.4716
 20
12.9772
  0
VERTEX
  8
CAPA_1
 62
   254
 10
-27.9343
 20
12.9772
  0
VERTEX
  8
CAPA_1
 62
   254
 10
-28.0535
 20
12.6441
  0
VERTEX
  8
CAPA_1
 62
   254
 10
-28.2078
 20
12.6441
  0
SEQEND
  8
CAPA_1
 62
   254
  0
POLYLINE
  8
CAPA_1
 62
   254
 66
     1
 70
     1
  0
VERTEX
  8
CAPA_1
 62
   254
 10
-27.8916
 20
13.0954
  0
VERTEX
  8
CAPA_1
 62
   254
 10
-27.5171
 20
13.0954
  0
VERTEX
  8
CAPA_1
 62
   254
 10
-27.6317
 20
13.4
  0
VERTEX
  8
CAPA_1
 62
   254
 10
-27.7105
 20
13.6295
  0
VERTEX
  8
CAPA_1
 62
   254
 10
-27.7711
 20
13.4179
  0
VERTEX
  8
CAPA_1
 62
   254
 10
-27.8916
 20
13.0954
  0
SEQEND
  8
CAPA_1
 62
   254
  0
POLYLINE
  8
CAPA_1
 62
   253
 66
     1
 70
     1
  0
VERTEX
  8
CAPA_1
 62
   253
 10
-38.4064
 20
8.0649
  0
VERTEX
  8
CAPA_1
 62
   253
 10
-38.2698
 20
8.0772
  0
VERTEX
  8
CAPA_1
 62
   253
 10
-38.2245
 20
7.9411
  0
VERTEX
  8
CAPA_1
 62
   253
 10
-38.114
 20
7.8552
  0
VERTEX
  8
CAPA_1
 62
   253
 10
-37.9454
 20
7.8224
  0
VERTEX
  8
CAPA_1
 62
   253
 10
-37.7986
 20
7.8472
  0
VERTEX
  8
CAPA_1
 62
   253
 10
-37.7039
 20
7.9155
  0
VERTEX
  8
CAPA_1
 62
   253
 10
-37.6727
 20
8.0097
  0
VERTEX
  8
CAPA_1
 62
   253
 10
-37.7026
 20
8.0997
  0
VERTEX
  8
CAPA_1
 62
   253
 10
-37.8016
 20
8.1644
  0
VERTEX
  8
CAPA_1
 62
   253
 10
-37.9973
 20
8.2179
  0
VERTEX
  8
CAPA_1
 62
   253
 10
-38.2094
 20
8.2865
  0
VERTEX
  8
CAPA_1
 62
   253
 10
-38.3263
 20
8.389
  0
VERTEX
  8
CAPA_1
 62
   253
 10
-38.365
 20
8.5259
  0
VERTEX
  8
CAPA_1
 62
   253
 10
-38.3176
 20
8.6817
  0
VERTEX
  8
CAPA_1
 62
   253
 10
-38.1797
 20
8.7917
  0
VERTEX
  8
CAPA_1
 62
   253
 10
-37.9782
 20
8.8293
  0
VERTEX
  8
CAPA_1
 62
   253
 10
-37.7628
 20
8.7899
  0
VERTEX
  8
CAPA_1
 62
   253
 10
-37.6192
 20
8.674
  0
VERTEX
  8
CAPA_1
 62
   253
 10
-37.5653
 20
8.5008
  0
VERTEX
  8
CAPA_1
 62
   253
 10
-37.7049
 20
8.4901
  0
VERTEX
  8
CAPA_1
 62
   253
 10
-37.7809
 20
8.6472
  0
VERTEX
  8
CAPA_1
 62
   253
 10
-37.9725
 20
8.7004
  0
VERTEX
  8
CAPA_1
 62
   253
 10
-38.1649
 20
8.652
  0
VERTEX
  8
CAPA_1
 62
   253
 10
-38.2253
 20
8.5354
  0
VERTEX
  8
CAPA_1
 62
   253
 10
-38.1826
 20
8.4379
  0
VERTEX
  8
CAPA_1
 62
   253
 10
-37.9633
 20
8.3596
  0
VERTEX
  8
CAPA_1
 62
   253
 10
-37.72
 20
8.2895
  0
VERTEX
  8
CAPA_1
 62
   253
 10
-37.5786
 20
8.1777
  0
VERTEX
  8
CAPA_1
 62
   253
 10
-37.533
 20
8.0219
  0
VERTEX
  8
CAPA_1
 62
   253
 10
-37.5832
 20
7.8569
  0
VERTEX
  8
CAPA_1
 62
   253
 10
-37.7272
 20
7.7365
  0
VERTEX
  8
CAPA_1
 62
   253
 10
-37.9388
 20
7.6935
  0
VERTEX
  8
CAPA_1
 62
   253
 10
-38.1882
 20
7.737
  0
VERTEX
  8
CAPA_1
 62
   253
 10
-38.346
 20
7.8677
  0
VERTEX
  8
CAPA_1
 62
   253
 10
-38.4064
 20
8.0649
  0
SEQEND
  8
CAPA_1
 62
   253
  0
POLYLINE
  8
CAPA_1
 62
   253
 66
     1
 70
     1
  0
VERTEX
  8
CAPA_1
 62
   253
 10
-36.6811
 20
7.8408
  0
VERTEX
  8
CAPA_1
 62
   253
 10
-36.6811
 20
7.7119
  0
VERTEX
  8
CAPA_1
 62
   253
 10
-37.4087
 20
7.7119
  0
VERTEX
  8
CAPA_1
 62
   253
 10
-37.3928
 20
7.8058
  0
VERTEX
  8
CAPA_1
 62
   253
 10
-37.303
 20
7.9519
  0
VERTEX
  8
CAPA_1
 62
   253
 10
-37.1265
 20
8.1176
  0
VERTEX
  8
CAPA_1
 62
   253
 10
-36.8845
 20
8.3504
  0
VERTEX
  8
CAPA_1
 62
   253
 10
-36.8208
 20
8.5131
  0
VERTEX
  8
CAPA_1
 62
   253
 10
-36.8784
 20
8.6484
  0
VERTEX
  8
CAPA_1
 62
   253
 10
-37.0285
 20
8.7034
  0
VERTEX
  8
CAPA_1
 62
   253
 10
-37.1851
 20
8.6451
  0
VERTEX
  8
CAPA_1
 62
   253
 10
-37.2445
 20
8.484
  0
VERTEX
  8
CAPA_1
 62
   253
 10
-37.3826
 20
8.4978
  0
VERTEX
  8
CAPA_1
 62
   253
 10
-37.2754
 20
8.7341
  0
VERTEX
  8
CAPA_1
 62
   253
 10
-37.0255
 20
8.8155
  0
VERTEX
  8
CAPA_1
 62
   253
 10
-36.775
 20
8.7277
  0
VERTEX
  8
CAPA_1
 62
   253
 10
-36.6827
 20
8.51
  0
VERTEX
  8
CAPA_1
 62
   253
 10
-36.7098
 20
8.3803
  0
VERTEX
  8
CAPA_1
 62
   253
 10
-36.7993
 20
8.2458
  0
VERTEX
  8
CAPA_1
 62
   253
 10
-37.0073
 20
8.0524
  0
VERTEX
  8
CAPA_1
 62
   253
 10
-37.1636
 20
7.914
  0
VERTEX
  8
CAPA_1
 62
   253
 10
-37.2207
 20
7.8408
  0
VERTEX
  8
CAPA_1
 62
   253
 10
-36.6811
 20
7.8408
  0
SEQEND
  8
CAPA_1
 62
   253
  0
POLYLINE
  8
CAPA_1
 62
   253
 66
     1
 70
     1
  0
VERTEX
  8
CAPA_1
 62
   253
 10
-42.1752
 20
8.1035
  0
VERTEX
  8
CAPA_1
 62
   253
 10
-42.1752
 20
8.2324
  0
VERTEX
  8
CAPA_1
 62
   253
 10
-41.7101
 20
8.2324
  0
VERTEX
  8
CAPA_1
 62
   253
 10
-41.7101
 20
7.8252
  0
VERTEX
  8
CAPA_1
 62
   253
 10
-41.9312
 20
7.6968
  0
VERTEX
  8
CAPA_1
 62
   253
 10
-42.165
 20
7.6538
  0
VERTEX
  8
CAPA_1
 62
   253
 10
-42.4592
 20
7.7231
  0
VERTEX
  8
CAPA_1
 62
   253
 10
-42.6587
 20
7.9234
  0
VERTEX
  8
CAPA_1
 62
   253
 10
-42.7263
 20
8.2163
  0
VERTEX
  8
CAPA_1
 62
   253
 10
-42.6592
 20
8.5159
  0
VERTEX
  8
CAPA_1
 62
   253
 10
-42.4663
 20
8.7221
  0
VERTEX
  8
CAPA_1
 62
   253
 10
-42.1762
 20
8.7896
  0
VERTEX
  8
CAPA_1
 62
   253
 10
-41.9608
 20
8.751
  0
VERTEX
  8
CAPA_1
 62
   253
 10
-41.8099
 20
8.6435
  0
VERTEX
  8
CAPA_1
 62
   253
 10
-41.7268
 20
8.4634
  0
VERTEX
  8
CAPA_1
 62
   253
 10
-41.858
 20
8.4276
  0
VERTEX
  8
CAPA_1
 62
   253
 10
-41.9194
 20
8.5596
  0
VERTEX
  8
CAPA_1
 62
   253
 10
-42.0243
 20
8.6364
  0
VERTEX
  8
CAPA_1
 62
   253
 10
-42.1755
 20
8.6653
  0
VERTEX
  8
CAPA_1
 62
   253
 10
-42.3476
 20
8.6348
  0
VERTEX
  8
CAPA_1
 62
   253
 10
-42.4648
 20
8.5548
  0
VERTEX
  8
CAPA_1
 62
   253
 10
-42.5339
 20
8.446
  0
VERTEX
  8
CAPA_1
 62
   253
 10
-42.5758
 20
8.2245
  0
VERTEX
  8
CAPA_1
 62
   253
 10
-42.5254
 20
7.9779
  0
VERTEX
  8
CAPA_1
 62
   253
 10
-42.3783
 20
7.8308
  0
VERTEX
  8
CAPA_1
 62
   253
 10
-42.1732
 20
7.7827
  0
VERTEX
  8
CAPA_1
 62
   253
 10
-41.989
 20
7.8193
  0
VERTEX
  8
CAPA_1
 62
   253
 10
-41.8529
 20
7.8976
  0
VERTEX
  8
CAPA_1
 62
   253
 10
-41.8529
 20
8.1035
  0
VERTEX
  8
CAPA_1
 62
   253
 10
-42.1752
 20
8.1035
  0
SEQEND
  8
CAPA_1
 62
   253
  0
POLYLINE
  8
CAPA_1
 62
   253
 66
     1
 70
     1
  0
VERTEX
  8
CAPA_1
 62
   253
 10
-41.497
 20
7.6722
  0
VERTEX
  8
CAPA_1
 62
   253
 10
-41.497
 20
8.7712
  0
VERTEX
  8
CAPA_1
 62
   253
 10
-41.3477
 20
8.7712
  0
VERTEX
  8
CAPA_1
 62
   253
 10
-40.771
 20
7.9086
  0
VERTEX
  8
CAPA_1
 62
   253
 10
-40.771
 20
8.7712
  0
VERTEX
  8
CAPA_1
 62
   253
 10
-40.6314
 20
8.7712
  0
VERTEX
  8
CAPA_1
 62
   253
 10
-40.6314
 20
7.6722
  0
VERTEX
  8
CAPA_1
 62
   253
 10
-40.7808
 20
7.6722
  0
VERTEX
  8
CAPA_1
 62
   253
 10
-41.3574
 20
8.5348
  0
VERTEX
  8
CAPA_1
 62
   253
 10
-41.3574
 20
7.6722
  0
VERTEX
  8
CAPA_1
 62
   253
 10
-41.497
 20
7.6722
  0
SEQEND
  8
CAPA_1
 62
   253
  0
POLYLINE
  8
CAPA_1
 62
   253
 66
     1
 70
     1
  0
VERTEX
  8
CAPA_1
 62
   253
 10
-40.387
 20
7.6722
  0
VERTEX
  8
CAPA_1
 62
   253
 10
-40.387
 20
8.7712
  0
VERTEX
  8
CAPA_1
 62
   253
 10
-40.0084
 20
8.7712
  0
VERTEX
  8
CAPA_1
 62
   253
 10
-39.8127
 20
8.7556
  0
VERTEX
  8
CAPA_1
 62
   253
 10
-39.6515
 20
8.6768
  0
VERTEX
  8
CAPA_1
 62
   253
 10
-39.5216
 20
8.489
  0
VERTEX
  8
CAPA_1
 62
   253
 10
-39.4784
 20
8.2276
  0
VERTEX
  8
CAPA_1
 62
   253
 10
-39.5075
 20
8.0058
  0
VERTEX
  8
CAPA_1
 62
   253
 10
-39.5825
 20
7.8456
  0
VERTEX
  8
CAPA_1
 62
   253
 10
-39.6827
 20
7.7461
  0
VERTEX
  8
CAPA_1
 62
   253
 10
-39.8137
 20
7.6909
  0
VERTEX
  8
CAPA_1
 62
   253
 10
-39.9905
 20
7.6722
  0
VERTEX
  8
CAPA_1
 62
   253
 10
-40.387
 20
7.6722
  0
SEQEND
  8
CAPA_1
 62
   253
  0
POLYLINE
  8
CAPA_1
 62
   253
 66
     1
 70
     1
  0
VERTEX
  8
CAPA_1
 62
   253
 10
-40.2412
 20
7.8011
  0
VERTEX
  8
CAPA_1
 62
   253
 10
-40.0069
 20
7.8011
  0
VERTEX
  8
CAPA_1
 62
   253
 10
-39.8365
 20
7.8213
  0
VERTEX
  8
CAPA_1
 62
   253
 10
-39.738
 20
7.8784
  0
VERTEX
  8
CAPA_1
 62
   253
 10
-39.6577
 20
8.0178
  0
VERTEX
  8
CAPA_1
 62
   253
 10
-39.6288
 20
8.2299
  0
VERTEX
  8
CAPA_1
 62
   253
 10
-39.6853
 20
8.4954
  0
VERTEX
  8
CAPA_1
 62
   253
 10
-39.8227
 20
8.6197
  0
VERTEX
  8
CAPA_1
 62
   253
 10
-40.0107
 20
8.6423
  0
VERTEX
  8
CAPA_1
 62
   253
 10
-40.2412
 20
8.6423
  0
VERTEX
  8
CAPA_1
 62
   253
 10
-40.2412
 20
7.8011
  0
SEQEND
  8
CAPA_1
 62
   253
  0
POLYLINE
  8
CAPA_1
 62
   253
 66
     1
 70
     1
  0
VERTEX
  8
CAPA_1
 62
   253
 10
-31.7684
 20
9.7829
  0
VERTEX
  8
CAPA_1
 62
   253
 10
-32.0612
 20
10.5406
  0
VERTEX
  8
CAPA_1
 62
   253
 10
-31.9526
 20
10.5406
  0
VERTEX
  8
CAPA_1
 62
   253
 10
-31.7557
 20
9.99
  0
VERTEX
  8
CAPA_1
 62
   253
 10
-31.716
 20
9.866
  0
VERTEX
  8
CAPA_1
 62
   253
 10
-31.6753
 20
9.99
  0
VERTEX
  8
CAPA_1
 62
   253
 10
-31.471
 20
10.5406
  0
VERTEX
  8
CAPA_1
 62
   253
 10
-31.3687
 20
10.5406
  0
VERTEX
  8
CAPA_1
 62
   253
 10
-31.6642
 20
9.7829
  0
VERTEX
  8
CAPA_1
 62
   253
 10
-31.7684
 20
9.7829
  0
SEQEND
  8
CAPA_1
 62
   253
  0
POLYLINE
  8
CAPA_1
 62
   253
 66
     1
 70
     1
  0
VERTEX
  8
CAPA_1
 62
   253
 10
-30.9313
 20
9.984
  0
VERTEX
  8
CAPA_1
 62
   253
 10
-30.8403
 20
9.9713
  0
VERTEX
  8
CAPA_1
 62
   253
 10
-30.9168
 20
9.8244
  0
VERTEX
  8
CAPA_1
 62
   253
 10
-31.0683
 20
9.7713
  0
VERTEX
  8
CAPA_1
 62
   253
 10
-31.2491
 20
9.8448
  0
VERTEX
  8
CAPA_1
 62
   253
 10
-31.3176
 20
10.0554
  0
VERTEX
  8
CAPA_1
 62
   253
 10
-31.2881
 20
10.2108
  0
VERTEX
  8
CAPA_1
 62
   253
 10
-31.1985
 20
10.3105
  0
VERTEX
  8
CAPA_1
 62
   253
 10
-31.0676
 20
10.3438
  0
VERTEX
  8
CAPA_1
 62
   253
 10
-30.9216
 20
10.2986
  0
VERTEX
  8
CAPA_1
 62
   253
 10
-30.8487
 20
10.1702
  0
VERTEX
  8
CAPA_1
 62
   253
 10
-30.9387
 20
10.1565
  0
VERTEX
  8
CAPA_1
 62
   253
 10
-30.9846
 20
10.2397
  0
VERTEX
  8
CAPA_1
 62
   253
 10
-31.0639
 20
10.2676
  0
VERTEX
  8
CAPA_1
 62
   253
 10
-31.1784
 20
10.2173
  0
VERTEX
  8
CAPA_1
 62
   253
 10
-31.2223
 20
10.0581
  0
VERTEX
  8
CAPA_1
 62
   253
 10
-31.18
 20
9.8975
  0
VERTEX
  8
CAPA_1
 62
   253
 10
-31.0694
 20
9.8475
  0
VERTEX
  8
CAPA_1
 62
   253
 10
-30.9779
 20
9.881
  0
VERTEX
  8
CAPA_1
 62
   253
 10
-30.9313
 20
9.984
  0
SEQEND
  8
CAPA_1
 62
   253
  0
POLYLINE
  8
CAPA_1
 62
   253
 66
     1
 70
     1
  0
VERTEX
  8
CAPA_1
 62
   253
 10
-30.4021
 20
9.984
  0
VERTEX
  8
CAPA_1
 62
   253
 10
-30.3111
 20
9.9713
  0
VERTEX
  8
CAPA_1
 62
   253
 10
-30.3876
 20
9.8244
  0
VERTEX
  8
CAPA_1
 62
   253
 10
-30.5391
 20
9.7713
  0
VERTEX
  8
CAPA_1
 62
   253
 10
-30.7199
 20
9.8448
  0
VERTEX
  8
CAPA_1
 62
   253
 10
-30.7884
 20
10.0554
  0
VERTEX
  8
CAPA_1
 62
   253
 10
-30.7589
 20
10.2108
  0
VERTEX
  8
CAPA_1
 62
   253
 10
-30.6693
 20
10.3105
  0
VERTEX
  8
CAPA_1
 62
   253
 10
-30.5384
 20
10.3438
  0
VERTEX
  8
CAPA_1
 62
   253
 10
-30.3924
 20
10.2986
  0
VERTEX
  8
CAPA_1
 62
   253
 10
-30.3195
 20
10.1702
  0
VERTEX
  8
CAPA_1
 62
   253
 10
-30.4095
 20
10.1565
  0
VERTEX
  8
CAPA_1
 62
   253
 10
-30.4554
 20
10.2397
  0
VERTEX
  8
CAPA_1
 62
   253
 10
-30.5347
 20
10.2676
  0
VERTEX
  8
CAPA_1
 62
   253
 10
-30.6492
 20
10.2173
  0
VERTEX
  8
CAPA_1
 62
   253
 10
-30.6931
 20
10.0581
  0
VERTEX
  8
CAPA_1
 62
   253
 10
-30.6508
 20
9.8975
  0
VERTEX
  8
CAPA_1
 62
   253
 10
-30.5402
 20
9.8475
  0
VERTEX
  8
CAPA_1
 62
   253
 10
-30.4487
 20
9.881
  0
VERTEX
  8
CAPA_1
 62
   253
 10
-30.4021
 20
9.984
  0
SEQEND
  8
CAPA_1
 62
   253
  0
POLYLINE
  8
CAPA_1
 62
   253
 66
     1
 70
     1
  0
VERTEX
  8
CAPA_1
 62
   253
 10
-29.394
 20
8.1586
  0
VERTEX
  8
CAPA_1
 62
   253
 10
-29.394
 20
8.9163
  0
VERTEX
  8
CAPA_1
 62
   253
 10
-28.8829
 20
8.9163
  0
VERTEX
  8
CAPA_1
 62
   253
 10
-28.8829
 20
8.8274
  0
VERTEX
  8
CAPA_1
 62
   253
 10
-29.2935
 20
8.8274
  0
VERTEX
  8
CAPA_1
 62
   253
 10
-29.2935
 20
8.5914
  0
VERTEX
  8
CAPA_1
 62
   253
 10
-28.9379
 20
8.5914
  0
VERTEX
  8
CAPA_1
 62
   253
 10
-28.9379
 20
8.5025
  0
VERTEX
  8
CAPA_1
 62
   253
 10
-29.2935
 20
8.5025
  0
VERTEX
  8
CAPA_1
 62
   253
 10
-29.2935
 20
8.1586
  0
VERTEX
  8
CAPA_1
 62
   253
 10
-29.394
 20
8.1586
  0
SEQEND
  8
CAPA_1
 62
   253
  0
POLYLINE
  8
CAPA_1
 62
   253
 66
     1
 70
     1
  0
VERTEX
  8
CAPA_1
 62
   253
 10
-28.7476
 20
8.1586
  0
VERTEX
  8
CAPA_1
 62
   253
 10
-28.7476
 20
8.9163
  0
VERTEX
  8
CAPA_1
 62
   253
 10
-28.2365
 20
8.9163
  0
VERTEX
  8
CAPA_1
 62
   253
 10
-28.2365
 20
8.8274
  0
VERTEX
  8
CAPA_1
 62
   253
 10
-28.6471
 20
8.8274
  0
VERTEX
  8
CAPA_1
 62
   253
 10
-28.6471
 20
8.5914
  0
VERTEX
  8
CAPA_1
 62
   253
 10
-28.2915
 20
8.5914
  0
VERTEX
  8
CAPA_1
 62
   253
 10
-28.2915
 20
8.5025
  0
VERTEX
  8
CAPA_1
 62
   253
 10
-28.6471
 20
8.5025
  0
VERTEX
  8
CAPA_1
 62
   253
 10
-28.6471
 20
8.1586
  0
VERTEX
  8
CAPA_1
 62
   253
 10
-28.7476
 20
8.1586
  0
SEQEND
  8
CAPA_1
 62
   253
  0
POLYLINE
  8
CAPA_1
 62
   253
 66
     1
 70
     1
  0
VERTEX
  8
CAPA_1
 62
   253
 10
-27.6742
 20
8.1255
  0
VERTEX
  8
CAPA_1
 62
   253
 10
-27.6742
 20
8.8832
  0
VERTEX
  8
CAPA_1
 62
   253
 10
-27.1631
 20
8.8832
  0
VERTEX
  8
CAPA_1
 62
   253
 10
-27.1631
 20
8.7943
  0
VERTEX
  8
CAPA_1
 62
   253
 10
-27.5737
 20
8.7943
  0
VERTEX
  8
CAPA_1
 62
   253
 10
-27.5737
 20
8.5583
  0
VERTEX
  8
CAPA_1
 62
   253
 10
-27.2181
 20
8.5583
  0
VERTEX
  8
CAPA_1
 62
   253
 10
-27.2181
 20
8.4694
  0
VERTEX
  8
CAPA_1
 62
   253
 10
-27.5737
 20
8.4694
  0
VERTEX
  8
CAPA_1
 62
   253
 10
-27.5737
 20
8.1255
  0
VERTEX
  8
CAPA_1
 62
   253
 10
-27.6742
 20
8.1255
  0
SEQEND
  8
CAPA_1
 62
   253
  0
POLYLINE
  8
CAPA_1
 62
   253
 66
     1
 70
     1
  0
VERTEX
  8
CAPA_1
 62
   253
 10
-26.8405
 20
8.1255
  0
VERTEX
  8
CAPA_1
 62
   253
 10
-26.8405
 20
8.7943
  0
VERTEX
  8
CAPA_1
 62
   253
 10
-27.0903
 20
8.7943
  0
VERTEX
  8
CAPA_1
 62
   253
 10
-27.0903
 20
8.8832
  0
VERTEX
  8
CAPA_1
 62
   253
 10
-26.4902
 20
8.8832
  0
VERTEX
  8
CAPA_1
 62
   253
 10
-26.4902
 20
8.7943
  0
VERTEX
  8
CAPA_1
 62
   253
 10
-26.74
 20
8.7943
  0
VERTEX
  8
CAPA_1
 62
   253
 10
-26.74
 20
8.1255
  0
VERTEX
  8
CAPA_1
 62
   253
 10
-26.8405
 20
8.1255
  0
SEQEND
  8
CAPA_1
 62
   253
  0
POLYLINE
  8
CAPA_1
 62
   253
 66
     1
 70
     1
  0
VERTEX
  8
CAPA_1
 62
   253
 10
-25.5832
 20
8.1269
  0
VERTEX
  8
CAPA_1
 62
   253
 10
-25.5832
 20
8.8846
  0
VERTEX
  8
CAPA_1
 62
   253
 10
-25.0721
 20
8.8846
  0
VERTEX
  8
CAPA_1
 62
   253
 10
-25.0721
 20
8.7957
  0
VERTEX
  8
CAPA_1
 62
   253
 10
-25.4827
 20
8.7957
  0
VERTEX
  8
CAPA_1
 62
   253
 10
-25.4827
 20
8.5597
  0
VERTEX
  8
CAPA_1
 62
   253
 10
-25.1271
 20
8.5597
  0
VERTEX
  8
CAPA_1
 62
   253
 10
-25.1271
 20
8.4708
  0
VERTEX
  8
CAPA_1
 62
   253
 10
-25.4827
 20
8.4708
  0
VERTEX
  8
CAPA_1
 62
   253
 10
-25.4827
 20
8.1269
  0
VERTEX
  8
CAPA_1
 62
   253
 10
-25.5832
 20
8.1269
  0
SEQEND
  8
CAPA_1
 62
   253
  0
POLYLINE
  8
CAPA_1
 62
   253
 66
     1
 70
     1
  0
VERTEX
  8
CAPA_1
 62
   253
 10
-24.9908
 20
8.3544
  0
VERTEX
  8
CAPA_1
 62
   253
 10
-24.9908
 20
8.4476
  0
VERTEX
  8
CAPA_1
 62
   253
 10
-24.7029
 20
8.4476
  0
VERTEX
  8
CAPA_1
 62
   253
 10
-24.7029
 20
8.3544
  0
VERTEX
  8
CAPA_1
 62
   253
 10
-24.9908
 20
8.3544
  0
SEQEND
  8
CAPA_1
 62
   253
  0
POLYLINE
  8
CAPA_1
 62
   253
 66
     1
 70
     1
  0
VERTEX
  8
CAPA_1
 62
   253
 10
-31.6157
 20
8.1798
  0
VERTEX
  8
CAPA_1
 62
   253
 10
-31.6157
 20
8.9375
  0
VERTEX
  8
CAPA_1
 62
   253
 10
-31.1046
 20
8.9375
  0
VERTEX
  8
CAPA_1
 62
   253
 10
-31.1046
 20
8.8486
  0
VERTEX
  8
CAPA_1
 62
   253
 10
-31.5152
 20
8.8486
  0
VERTEX
  8
CAPA_1
 62
   253
 10
-31.5152
 20
8.6126
  0
VERTEX
  8
CAPA_1
 62
   253
 10
-31.1596
 20
8.6126
  0
VERTEX
  8
CAPA_1
 62
   253
 10
-31.1596
 20
8.5237
  0
VERTEX
  8
CAPA_1
 62
   253
 10
-31.5152
 20
8.5237
  0
VERTEX
  8
CAPA_1
 62
   253
 10
-31.5152
 20
8.1798
  0
VERTEX
  8
CAPA_1
 62
   253
 10
-31.6157
 20
8.1798
  0
SEQEND
  8
CAPA_1
 62
   253
  0
POLYLINE
  8
CAPA_1
 62
   253
 66
     1
 70
     1
  0
VERTEX
  8
CAPA_1
 62
   253
 10
-30.7905
 20
8.3026
  0
VERTEX
  8
CAPA_1
 62
   253
 10
-30.7905
 20
8.51
  0
VERTEX
  8
CAPA_1
 62
   253
 10
-30.9968
 20
8.51
  0
VERTEX
  8
CAPA_1
 62
   253
 10
-30.9968
 20
8.5968
  0
VERTEX
  8
CAPA_1
 62
   253
 10
-30.7905
 20
8.5968
  0
VERTEX
  8
CAPA_1
 62
   253
 10
-30.7905
 20
8.8031
  0
VERTEX
  8
CAPA_1
 62
   253
 10
-30.7026
 20
8.8031
  0
VERTEX
  8
CAPA_1
 62
   253
 10
-30.7026
 20
8.5968
  0
VERTEX
  8
CAPA_1
 62
   253
 10
-30.4963
 20
8.5968
  0
VERTEX
  8
CAPA_1
 62
   253
 10
-30.4963
 20
8.51
  0
VERTEX
  8
CAPA_1
 62
   253
 10
-30.7026
 20
8.51
  0
VERTEX
  8
CAPA_1
 62
   253
 10
-30.7026
 20
8.3026
  0
VERTEX
  8
CAPA_1
 62
   253
 10
-30.7905
 20
8.3026
  0
SEQEND
  8
CAPA_1
 62
   253
  0
POLYLINE
  8
CAPA_1
 62
   253
 66
     1
 70
     1
  0
VERTEX
  8
CAPA_1
 62
   253
 10
-20.4506
 20
7.7336
  0
VERTEX
  8
CAPA_1
 62
   253
 10
-20.3564
 20
7.7421
  0
VERTEX
  8
CAPA_1
 62
   253
 10
-20.3252
 20
7.6482
  0
VERTEX
  8
CAPA_1
 62
   253
 10
-20.249
 20
7.589
  0
VERTEX
  8
CAPA_1
 62
   253
 10
-20.1328
 20
7.5664
  0
VERTEX
  8
CAPA_1
 62
   253
 10
-20.0315
 20
7.5835
  0
VERTEX
  8
CAPA_1
 62
   253
 10
-19.9663
 20
7.6306
  0
VERTEX
  8
CAPA_1
 62
   253
 10
-19.9448
 20
7.6955
  0
VERTEX
  8
CAPA_1
 62
   253
 10
-19.9654
 20
7.7576
  0
VERTEX
  8
CAPA_1
 62
   253
 10
-20.0336
 20
7.8022
  0
VERTEX
  8
CAPA_1
 62
   253
 10
-20.1686
 20
7.8391
  0
VERTEX
  8
CAPA_1
 62
   253
 10
-20.3148
 20
7.8864
  0
VERTEX
  8
CAPA_1
 62
   253
 10
-20.3954
 20
7.9571
  0
VERTEX
  8
CAPA_1
 62
   253
 10
-20.422
 20
8.0515
  0
VERTEX
  8
CAPA_1
 62
   253
 10
-20.3894
 20
8.1589
  0
VERTEX
  8
CAPA_1
 62
   253
 10
-20.2943
 20
8.2347
  0
VERTEX
  8
CAPA_1
 62
   253
 10
-20.1554
 20
8.2606
  0
VERTEX
  8
CAPA_1
 62
   253
 10
-20.0068
 20
8.2335
  0
VERTEX
  8
CAPA_1
 62
   253
 10
-19.9079
 20
8.1536
  0
VERTEX
  8
CAPA_1
 62
   253
 10
-19.8707
 20
8.0342
  0
VERTEX
  8
CAPA_1
 62
   253
 10
-19.967
 20
8.0268
  0
VERTEX
  8
CAPA_1
 62
   253
 10
-20.0194
 20
8.1351
  0
VERTEX
  8
CAPA_1
 62
   253
 10
-20.1515
 20
8.1717
  0
VERTEX
  8
CAPA_1
 62
   253
 10
-20.2841
 20
8.1384
  0
VERTEX
  8
CAPA_1
 62
   253
 10
-20.3257
 20
8.058
  0
VERTEX
  8
CAPA_1
 62
   253
 10
-20.2963
 20
7.9908
  0
VERTEX
  8
CAPA_1
 62
   253
 10
-20.1451
 20
7.9368
  0
VERTEX
  8
CAPA_1
 62
   253
 10
-19.9774
 20
7.8885
  0
VERTEX
  8
CAPA_1
 62
   253
 10
-19.8798
 20
7.8114
  0
VERTEX
  8
CAPA_1
 62
   253
 10
-19.8484
 20
7.704
  0
VERTEX
  8
CAPA_1
 62
   253
 10
-19.883
 20
7.5902
  0
VERTEX
  8
CAPA_1
 62
   253
 10
-19.9823
 20
7.5071
  0
VERTEX
  8
CAPA_1
 62
   253
 10
-20.1282
 20
7.4775
  0
VERTEX
  8
CAPA_1
 62
   253
 10
-20.3002
 20
7.5075
  0
VERTEX
  8
CAPA_1
 62
   253
 10
-20.409
 20
7.5976
  0
VERTEX
  8
CAPA_1
 62
   253
 10
-20.4506
 20
7.7336
  0
SEQEND
  8
CAPA_1
 62
   253
  0
POLYLINE
  8
CAPA_1
 62
   253
 66
     1
 70
     1
  0
VERTEX
  8
CAPA_1
 62
   253
 10
-19.3997
 20
7.4902
  0
VERTEX
  8
CAPA_1
 62
   253
 10
-19.4928
 20
7.4902
  0
VERTEX
  8
CAPA_1
 62
   253
 10
-19.4928
 20
8.0832
  0
VERTEX
  8
CAPA_1
 62
   253
 10
-19.581
 20
8.019
  0
VERTEX
  8
CAPA_1
 62
   253
 10
-19.6791
 20
7.971
  0
VERTEX
  8
CAPA_1
 62
   253
 10
-19.6791
 20
8.061
  0
VERTEX
  8
CAPA_1
 62
   253
 10
-19.5426
 20
8.1499
  0
VERTEX
  8
CAPA_1
 62
   253
 10
-19.4597
 20
8.2511
  0
VERTEX
  8
CAPA_1
 62
   253
 10
-19.3997
 20
8.2511
  0
VERTEX
  8
CAPA_1
 62
   253
 10
-19.3997
 20
7.4902
  0
SEQEND
  8
CAPA_1
 62
   253
  0
POLYLINE
  8
CAPA_1
 62
   253
 66
     1
 70
     1
  0
VERTEX
  8
CAPA_1
 62
   253
 10
-19.118
 20
7.4902
  0
VERTEX
  8
CAPA_1
 62
   253
 10
-19.118
 20
8.2479
  0
VERTEX
  8
CAPA_1
 62
   253
 10
-18.6069
 20
8.2479
  0
VERTEX
  8
CAPA_1
 62
   253
 10
-18.6069
 20
8.159
  0
VERTEX
  8
CAPA_1
 62
   253
 10
-19.0175
 20
8.159
  0
VERTEX
  8
CAPA_1
 62
   253
 10
-19.0175
 20
7.923
  0
VERTEX
  8
CAPA_1
 62
   253
 10
-18.6619
 20
7.923
  0
VERTEX
  8
CAPA_1
 62
   253
 10
-18.6619
 20
7.8341
  0
VERTEX
  8
CAPA_1
 62
   253
 10
-19.0175
 20
7.8341
  0
VERTEX
  8
CAPA_1
 62
   253
 10
-19.0175
 20
7.4902
  0
VERTEX
  8
CAPA_1
 62
   253
 10
-19.118
 20
7.4902
  0
SEQEND
  8
CAPA_1
 62
   253
  0
POLYLINE
  8
CAPA_1
 62
   253
 66
     1
 70
     1
  0
VERTEX
  8
CAPA_1
 62
   253
 10
-23.2695
 20
13.4928
  0
VERTEX
  8
CAPA_1
 62
   253
 10
-23.2695
 20
14.2505
  0
VERTEX
  8
CAPA_1
 62
   253
 10
-23.169
 20
14.2505
  0
VERTEX
  8
CAPA_1
 62
   253
 10
-23.169
 20
13.5817
  0
VERTEX
  8
CAPA_1
 62
   253
 10
-22.7965
 20
13.5817
  0
VERTEX
  8
CAPA_1
 62
   253
 10
-22.7965
 20
13.4928
  0
VERTEX
  8
CAPA_1
 62
   253
 10
-23.2695
 20
13.4928
  0
SEQEND
  8
CAPA_1
 62
   253
  0
POLYLINE
  8
CAPA_1
 62
   253
 66
     1
 70
     1
  0
VERTEX
  8
CAPA_1
 62
   253
 10
-22.6746
 20
13.4928
  0
VERTEX
  8
CAPA_1
 62
   253
 10
-22.6746
 20
14.2505
  0
VERTEX
  8
CAPA_1
 62
   253
 10
-22.1275
 20
14.2505
  0
VERTEX
  8
CAPA_1
 62
   253
 10
-22.1275
 20
14.1616
  0
VERTEX
  8
CAPA_1
 62
   253
 10
-22.5741
 20
14.1616
  0
VERTEX
  8
CAPA_1
 62
   253
 10
-22.5741
 20
13.9288
  0
VERTEX
  8
CAPA_1
 62
   253
 10
-22.156
 20
13.9288
  0
VERTEX
  8
CAPA_1
 62
   253
 10
-22.156
 20
13.8399
  0
VERTEX
  8
CAPA_1
 62
   253
 10
-22.5741
 20
13.8399
  0
VERTEX
  8
CAPA_1
 62
   253
 10
-22.5741
 20
13.5817
  0
VERTEX
  8
CAPA_1
 62
   253
 10
-22.1095
 20
13.5817
  0
VERTEX
  8
CAPA_1
 62
   253
 10
-22.1095
 20
13.4928
  0
VERTEX
  8
CAPA_1
 62
   253
 10
-22.6746
 20
13.4928
  0
SEQEND
  8
CAPA_1
 62
   253
  0
POLYLINE
  8
CAPA_1
 62
   253
 66
     1
 70
     1
  0
VERTEX
  8
CAPA_1
 62
   253
 10
-21.9708
 20
13.4928
  0
VERTEX
  8
CAPA_1
 62
   253
 10
-21.9708
 20
14.2505
  0
VERTEX
  8
CAPA_1
 62
   253
 10
-21.7098
 20
14.2505
  0
VERTEX
  8
CAPA_1
 62
   253
 10
-21.5748
 20
14.2398
  0
VERTEX
  8
CAPA_1
 62
   253
 10
-21.4637
 20
14.1855
  0
VERTEX
  8
CAPA_1
 62
   253
 10
-21.3741
 20
14.056
  0
VERTEX
  8
CAPA_1
 62
   253
 10
-21.3443
 20
13.8757
  0
VERTEX
  8
CAPA_1
 62
   253
 10
-21.3644
 20
13.7228
  0
VERTEX
  8
CAPA_1
 62
   253
 10
-21.4161
 20
13.6124
  0
VERTEX
  8
CAPA_1
 62
   253
 10
-21.4852
 20
13.5438
  0
VERTEX
  8
CAPA_1
 62
   253
 10
-21.5755
 20
13.5057
  0
VERTEX
  8
CAPA_1
 62
   253
 10
-21.6974
 20
13.4928
  0
VERTEX
  8
CAPA_1
 62
   253
 10
-21.9708
 20
13.4928
  0
SEQEND
  8
CAPA_1
 62
   253
  0
POLYLINE
  8
CAPA_1
 62
   253
 66
     1
 70
     1
  0
VERTEX
  8
CAPA_1
 62
   253
 10
-21.8703
 20
13.5817
  0
VERTEX
  8
CAPA_1
 62
   253
 10
-21.7087
 20
13.5817
  0
VERTEX
  8
CAPA_1
 62
   253
 10
-21.5912
 20
13.5956
  0
VERTEX
  8
CAPA_1
 62
   253
 10
-21.5233
 20
13.635
  0
VERTEX
  8
CAPA_1
 62
   253
 10
-21.4679
 20
13.7311
  0
VERTEX
  8
CAPA_1
 62
   253
 10
-21.448
 20
13.8773
  0
VERTEX
  8
CAPA_1
 62
   253
 10
-21.487
 20
14.0604
  0
VERTEX
  8
CAPA_1
 62
   253
 10
-21.5817
 20
14.1461
  0
VERTEX
  8
CAPA_1
 62
   253
 10
-21.7114
 20
14.1616
  0
VERTEX
  8
CAPA_1
 62
   253
 10
-21.8703
 20
14.1616
  0
VERTEX
  8
CAPA_1
 62
   253
 10
-21.8703
 20
13.5817
  0
SEQEND
  8
CAPA_1
 62
   253
  0
POLYLINE
  8
CAPA_1
 62
   253
 66
     1
 70
     1
  0
VERTEX
  8
CAPA_1
 62
   253
 10
31.6143
 20
-10.2072
  0
VERTEX
  8
CAPA_1
 62
   253
 10
31.6143
 20
-9.9345
  0
VERTEX
  8
CAPA_1
 62
   253
 10
32.457
 20
-9.9345
  0
VERTEX
  8
CAPA_1
 62
   253
 10
32.457
 20
-10.2072
  0
VERTEX
  8
CAPA_1
 62
   253
 10
31.6143
 20
-10.2072
  0
SEQEND
  8
CAPA_1
 62
   253
  0
POLYLINE
  8
CAPA_1
 62
   253
 66
     1
 70
     1
  0
VERTEX
  8
CAPA_1
 62
   253
 10
27.6271
 20
-7.5828
  0
VERTEX
  8
CAPA_1
 62
   253
 10
27.7637
 20
-7.5705
  0
VERTEX
  8
CAPA_1
 62
   253
 10
27.809
 20
-7.7066
  0
VERTEX
  8
CAPA_1
 62
   253
 10
27.9195
 20
-7.7925
  0
VERTEX
  8
CAPA_1
 62
   253
 10
28.0881
 20
-7.8253
  0
VERTEX
  8
CAPA_1
 62
   253
 10
28.2349
 20
-7.8005
  0
VERTEX
  8
CAPA_1
 62
   253
 10
28.3296
 20
-7.7322
  0
VERTEX
  8
CAPA_1
 62
   253
 10
28.3608
 20
-7.638
  0
VERTEX
  8
CAPA_1
 62
   253
 10
28.3309
 20
-7.548
  0
VERTEX
  8
CAPA_1
 62
   253
 10
28.2319
 20
-7.4833
  0
VERTEX
  8
CAPA_1
 62
   253
 10
28.0362
 20
-7.4298
  0
VERTEX
  8
CAPA_1
 62
   253
 10
27.8241
 20
-7.3612
  0
VERTEX
  8
CAPA_1
 62
   253
 10
27.7072
 20
-7.2587
  0
VERTEX
  8
CAPA_1
 62
   253
 10
27.6685
 20
-7.1218
  0
VERTEX
  8
CAPA_1
 62
   253
 10
27.7159
 20
-6.966
  0
VERTEX
  8
CAPA_1
 62
   253
 10
27.8538
 20
-6.856
  0
VERTEX
  8
CAPA_1
 62
   253
 10
28.0553
 20
-6.8184
  0
VERTEX
  8
CAPA_1
 62
   253
 10
28.2707
 20
-6.8578
  0
VERTEX
  8
CAPA_1
 62
   253
 10
28.4143
 20
-6.9737
  0
VERTEX
  8
CAPA_1
 62
   253
 10
28.4682
 20
-7.1469
  0
VERTEX
  8
CAPA_1
 62
   253
 10
28.3286
 20
-7.1576
  0
VERTEX
  8
CAPA_1
 62
   253
 10
28.2526
 20
-7.0005
  0
VERTEX
  8
CAPA_1
 62
   253
 10
28.061
 20
-6.9473
  0
VERTEX
  8
CAPA_1
 62
   253
 10
27.8686
 20
-6.9957
  0
VERTEX
  8
CAPA_1
 62
   253
 10
27.8082
 20
-7.1123
  0
VERTEX
  8
CAPA_1
 62
   253
 10
27.8509
 20
-7.2098
  0
VERTEX
  8
CAPA_1
 62
   253
 10
28.0702
 20
-7.2881
  0
VERTEX
  8
CAPA_1
 62
   253
 10
28.3135
 20
-7.3582
  0
VERTEX
  8
CAPA_1
 62
   253
 10
28.4549
 20
-7.47
  0
VERTEX
  8
CAPA_1
 62
   253
 10
28.5005
 20
-7.6258
  0
VERTEX
  8
CAPA_1
 62
   253
 10
28.4503
 20
-7.7908
  0
VERTEX
  8
CAPA_1
 62
   253
 10
28.3063
 20
-7.9112
  0
VERTEX
  8
CAPA_1
 62
   253
 10
28.0947
 20
-7.9542
  0
VERTEX
  8
CAPA_1
 62
   253
 10
27.8453
 20
-7.9107
  0
VERTEX
  8
CAPA_1
 62
   253
 10
27.6875
 20
-7.78
  0
VERTEX
  8
CAPA_1
 62
   253
 10
27.6271
 20
-7.5828
  0
SEQEND
  8
CAPA_1
 62
   253
  0
POLYLINE
  8
CAPA_1
 62
   253
 66
     1
 70
     1
  0
VERTEX
  8
CAPA_1
 62
   253
 10
28.654
 20
-7.4009
  0
VERTEX
  8
CAPA_1
 62
   253
 10
28.6632
 20
-7.2717
  0
VERTEX
  8
CAPA_1
 62
   253
 10
28.6908
 20
-7.1572
  0
VERTEX
  8
CAPA_1
 62
   253
 10
28.7368
 20
-7.0576
  0
VERTEX
  8
CAPA_1
 62
   253
 10
28.8011
 20
-6.9729
  0
VERTEX
  8
CAPA_1
 62
   253
 10
28.8799
 20
-6.9053
  0
VERTEX
  8
CAPA_1
 62
   253
 10
28.9693
 20
-6.857
  0
VERTEX
  8
CAPA_1
 62
   253
 10
29.0695
 20
-6.828
  0
VERTEX
  8
CAPA_1
 62
   253
 10
29.1804
 20
-6.8184
  0
VERTEX
  8
CAPA_1
 62
   253
 10
29.4549
 20
-6.891
  0
VERTEX
  8
CAPA_1
 62
   253
 10
29.6412
 20
-7.0937
  0
VERTEX
  8
CAPA_1
 62
   253
 10
29.7054
 20
-7.3881
  0
VERTEX
  8
CAPA_1
 62
   253
 10
29.6378
 20
-7.6869
  0
VERTEX
  8
CAPA_1
 62
   253
 10
29.4468
 20
-7.8864
  0
VERTEX
  8
CAPA_1
 62
   253
 10
29.1797
 20
-7.9542
  0
VERTEX
  8
CAPA_1
 62
   253
 10
28.9021
 20
-7.8793
  0
VERTEX
  8
CAPA_1
 62
   253
 10
28.7169
 20
-7.6749
  0
VERTEX
  8
CAPA_1
 62
   253
 10
28.654
 20
-7.4009
  0
SEQEND
  8
CAPA_1
 62
   253
  0
POLYLINE
  8
CAPA_1
 62
   253
 66
     1
 70
     1
  0
VERTEX
  8
CAPA_1
 62
   253
 10
28.8044
 20
-7.4034
  0
VERTEX
  8
CAPA_1
 62
   253
 10
28.8111
 20
-7.4973
  0
VERTEX
  8
CAPA_1
 62
   253
 10
28.8311
 20
-7.5807
  0
VERTEX
  8
CAPA_1
 62
   253
 10
28.8644
 20
-7.6535
  0
VERTEX
  8
CAPA_1
 62
   253
 10
28.9111
 20
-7.7158
  0
VERTEX
  8
CAPA_1
 62
   253
 10
28.9678
 20
-7.7657
  0
VERTEX
  8
CAPA_1
 62
   253
 10
29.0314
 20
-7.8014
  0
VERTEX
  8
CAPA_1
 62
   253
 10
29.1017
 20
-7.8228
  0
VERTEX
  8
CAPA_1
 62
   253
 10
29.1789
 20
-7.8299
  0
VERTEX
  8
CAPA_1
 62
   253
 10
29.2573
 20
-7.8227
  0
VERTEX
  8
CAPA_1
 62
   253
 10
29.3285
 20
-7.8011
  0
VERTEX
  8
CAPA_1
 62
   253
 10
29.3924
 20
-7.7651
  0
VERTEX
  8
CAPA_1
 62
   253
 10
29.4491
 20
-7.7148
  0
VERTEX
  8
CAPA_1
 62
   253
 10
29.4954
 20
-7.6512
  0
VERTEX
  8
CAPA_1
 62
   253
 10
29.5285
 20
-7.5755
  0
VERTEX
  8
CAPA_1
 62
   253
 10
29.5484
 20
-7.4877
  0
VERTEX
  8
CAPA_1
 62
   253
 10
29.555
 20
-7.3878
  0
VERTEX
  8
CAPA_1
 62
   253
 10
29.5097
 20
-7.154
  0
VERTEX
  8
CAPA_1
 62
   253
 10
29.3772
 20
-6.9993
  0
VERTEX
  8
CAPA_1
 62
   253
 10
29.1812
 20
-6.9443
  0
VERTEX
  8
CAPA_1
 62
   253
 10
28.9157
 20
-7.0502
  0
VERTEX
  8
CAPA_1
 62
   253
 10
28.867
 20
-7.112
  0
VERTEX
  8
CAPA_1
 62
   253
 10
28.8322
 20
-7.1914
  0
VERTEX
  8
CAPA_1
 62
   253
 10
28.8114
 20
-7.2885
  0
VERTEX
  8
CAPA_1
 62
   253
 10
28.8044
 20
-7.4034
  0
SEQEND
  8
CAPA_1
 62
   253
  0
POLYLINE
  8
CAPA_1
 62
   253
 66
     1
 70
     1
  0
VERTEX
  8
CAPA_1
 62
   253
 10
29.8862
 20
-7.9358
  0
VERTEX
  8
CAPA_1
 62
   253
 10
29.8862
 20
-6.8368
  0
VERTEX
  8
CAPA_1
 62
   253
 10
30.0321
 20
-6.8368
  0
VERTEX
  8
CAPA_1
 62
   253
 10
30.0321
 20
-7.8069
  0
VERTEX
  8
CAPA_1
 62
   253
 10
30.5723
 20
-7.8069
  0
VERTEX
  8
CAPA_1
 62
   253
 10
30.5723
 20
-7.9358
  0
VERTEX
  8
CAPA_1
 62
   253
 10
29.8862
 20
-7.9358
  0
SEQEND
  8
CAPA_1
 62
   253
  0
POLYLINE
  8
CAPA_1
 62
   253
 66
     1
 70
     1
  0
VERTEX
  8
CAPA_1
 62
   253
 10
30.7046
 20
-7.9542
  0
VERTEX
  8
CAPA_1
 62
   253
 10
30.7699
 20
-7.635
  0
VERTEX
  8
CAPA_1
 62
   253
 10
30.6432
 20
-7.635
  0
VERTEX
  8
CAPA_1
 62
   253
 10
30.6432
 20
-7.5229
  0
VERTEX
  8
CAPA_1
 62
   253
 10
30.7926
 20
-7.5229
  0
VERTEX
  8
CAPA_1
 62
   253
 10
30.8482
 20
-7.2512
  0
VERTEX
  8
CAPA_1
 62
   253
 10
30.6432
 20
-7.2512
  0
VERTEX
  8
CAPA_1
 62
   253
 10
30.6432
 20
-7.1392
  0
VERTEX
  8
CAPA_1
 62
   253
 10
30.8709
 20
-7.1392
  0
VERTEX
  8
CAPA_1
 62
   253
 10
30.9364
 20
-6.8184
  0
VERTEX
  8
CAPA_1
 62
   253
 10
31.049
 20
-6.8184
  0
VERTEX
  8
CAPA_1
 62
   253
 10
30.9835
 20
-7.1392
  0
VERTEX
  8
CAPA_1
 62
   253
 10
31.2176
 20
-7.1392
  0
VERTEX
  8
CAPA_1
 62
   253
 10
31.283
 20
-6.8184
  0
VERTEX
  8
CAPA_1
 62
   253
 10
31.3954
 20
-6.8184
  0
VERTEX
  8
CAPA_1
 62
   253
 10
31.3299
 20
-7.1392
  0
VERTEX
  8
CAPA_1
 62
   253
 10
31.4598
 20
-7.1392
  0
VERTEX
  8
CAPA_1
 62
   253
 10
31.4598
 20
-7.2512
  0
VERTEX
  8
CAPA_1
 62
   253
 10
31.3071
 20
-7.2512
  0
VERTEX
  8
CAPA_1
 62
   253
 10
31.2516
 20
-7.5229
  0
VERTEX
  8
CAPA_1
 62
   253
 10
31.4598
 20
-7.5229
  0
VERTEX
  8
CAPA_1
 62
   253
 10
31.4598
 20
-7.635
  0
VERTEX
  8
CAPA_1
 62
   253
 10
31.2288
 20
-7.635
  0
VERTEX
  8
CAPA_1
 62
   253
 10
31.1636
 20
-7.9542
  0
VERTEX
  8
CAPA_1
 62
   253
 10
31.051
 20
-7.9542
  0
VERTEX
  8
CAPA_1
 62
   253
 10
31.1163
 20
-7.635
  0
VERTEX
  8
CAPA_1
 62
   253
 10
30.8822
 20
-7.635
  0
VERTEX
  8
CAPA_1
 62
   253
 10
30.8169
 20
-7.9542
  0
VERTEX
  8
CAPA_1
 62
   253
 10
30.7046
 20
-7.9542
  0
SEQEND
  8
CAPA_1
 62
   253
  0
POLYLINE
  8
CAPA_1
 62
   253
 66
     1
 70
     1
  0
VERTEX
  8
CAPA_1
 62
   253
 10
30.9049
 20
-7.5229
  0
VERTEX
  8
CAPA_1
 62
   253
 10
31.139
 20
-7.5229
  0
VERTEX
  8
CAPA_1
 62
   253
 10
31.1945
 20
-7.2512
  0
VERTEX
  8
CAPA_1
 62
   253
 10
30.9605
 20
-7.2512
  0
VERTEX
  8
CAPA_1
 62
   253
 10
30.9049
 20
-7.5229
  0
SEQEND
  8
CAPA_1
 62
   253
  0
POLYLINE
  8
CAPA_1
 62
   253
 66
     1
 70
     1
  0
VERTEX
  8
CAPA_1
 62
   253
 10
32.0526
 20
-7.9358
  0
VERTEX
  8
CAPA_1
 62
   253
 10
31.9175
 20
-7.9358
  0
VERTEX
  8
CAPA_1
 62
   253
 10
31.9175
 20
-7.0757
  0
VERTEX
  8
CAPA_1
 62
   253
 10
31.7896
 20
-7.1689
  0
VERTEX
  8
CAPA_1
 62
   253
 10
31.6474
 20
-7.2384
  0
VERTEX
  8
CAPA_1
 62
   253
 10
31.6474
 20
-7.108
  0
VERTEX
  8
CAPA_1
 62
   253
 10
31.8454
 20
-6.979
  0
VERTEX
  8
CAPA_1
 62
   253
 10
31.9656
 20
-6.8322
  0
VERTEX
  8
CAPA_1
 62
   253
 10
32.0526
 20
-6.8322
  0
VERTEX
  8
CAPA_1
 62
   253
 10
32.0526
 20
-7.9358
  0
SEQEND
  8
CAPA_1
 62
   253
  0
POLYLINE
  8
CAPA_1
 62
   253
 66
     1
 70
     1
  0
VERTEX
  8
CAPA_1
 62
   253
 10
32.0617
 20
-13.5046
  0
VERTEX
  8
CAPA_1
 62
   253
 10
32.0617
 20
-13.0317
  0
VERTEX
  8
CAPA_1
 62
   253
 10
31.5912
 20
-13.0317
  0
VERTEX
  8
CAPA_1
 62
   253
 10
31.5912
 20
-12.8339
  0
VERTEX
  8
CAPA_1
 62
   253
 10
32.0617
 20
-12.8339
  0
VERTEX
  8
CAPA_1
 62
   253
 10
32.0617
 20
-12.3634
  0
VERTEX
  8
CAPA_1
 62
   253
 10
32.2619
 20
-12.3634
  0
VERTEX
  8
CAPA_1
 62
   253
 10
32.2619
 20
-12.8339
  0
VERTEX
  8
CAPA_1
 62
   253
 10
32.7324
 20
-12.8339
  0
VERTEX
  8
CAPA_1
 62
   253
 10
32.7324
 20
-13.0317
  0
VERTEX
  8
CAPA_1
 62
   253
 10
32.2619
 20
-13.0317
  0
VERTEX
  8
CAPA_1
 62
   253
 10
32.2619
 20
-13.5046
  0
VERTEX
  8
CAPA_1
 62
   253
 10
32.0617
 20
-13.5046
  0
SEQEND
  8
CAPA_1
 62
   253
  0
POLYLINE
  8
CAPA_1
 62
   253
 66
     1
 70
     1
  0
VERTEX
  8
CAPA_1
 62
   253
 10
29.9876
 20
-13.0704
  0
VERTEX
  8
CAPA_1
 62
   253
 10
29.9876
 20
-12.7977
  0
VERTEX
  8
CAPA_1
 62
   253
 10
30.8303
 20
-12.7977
  0
VERTEX
  8
CAPA_1
 62
   253
 10
30.8303
 20
-13.0704
  0
VERTEX
  8
CAPA_1
 62
   253
 10
29.9876
 20
-13.0704
  0
SEQEND
  8
CAPA_1
 62
   253
  0
POLYLINE
  8
CAPA_1
 62
   254
 66
     1
 70
     1
  0
VERTEX
  8
CAPA_1
 62
   254
 10
26.0939
 20
-10.6556
  0
VERTEX
  8
CAPA_1
 62
   254
 10
26.5532
 20
-9.4582
  0
VERTEX
  8
CAPA_1
 62
   254
 10
26.7275
 20
-9.4582
  0
VERTEX
  8
CAPA_1
 62
   254
 10
27.215
 20
-10.6556
  0
VERTEX
  8
CAPA_1
 62
   254
 10
27.0346
 20
-10.6556
  0
VERTEX
  8
CAPA_1
 62
   254
 10
26.8961
 20
-10.2927
  0
VERTEX
  8
CAPA_1
 62
   254
 10
26.3919
 20
-10.2927
  0
VERTEX
  8
CAPA_1
 62
   254
 10
26.262
 20
-10.6556
  0
VERTEX
  8
CAPA_1
 62
   254
 10
26.0939
 20
-10.6556
  0
SEQEND
  8
CAPA_1
 62
   254
  0
POLYLINE
  8
CAPA_1
 62
   254
 66
     1
 70
     1
  0
VERTEX
  8
CAPA_1
 62
   254
 10
26.4384
 20
-10.1639
  0
VERTEX
  8
CAPA_1
 62
   254
 10
26.8465
 20
-10.1639
  0
VERTEX
  8
CAPA_1
 62
   254
 10
26.7216
 20
-9.8319
  0
VERTEX
  8
CAPA_1
 62
   254
 10
26.6357
 20
-9.5819
  0
VERTEX
  8
CAPA_1
 62
   254
 10
26.5697
 20
-9.8124
  0
VERTEX
  8
CAPA_1
 62
   254
 10
26.4384
 20
-10.1639
  0
SEQEND
  8
CAPA_1
 62
   254
  0
POLYLINE
  8
CAPA_1
 62
   254
 66
     1
 70
     1
  0
VERTEX
  8
CAPA_1
 62
   254
 10
28.0662
 20
-10.6623
  0
VERTEX
  8
CAPA_1
 62
   254
 10
28.0662
 20
-9.4649
  0
VERTEX
  8
CAPA_1
 62
   254
 10
28.5155
 20
-9.4649
  0
VERTEX
  8
CAPA_1
 62
   254
 10
28.7357
 20
-9.5011
  0
VERTEX
  8
CAPA_1
 62
   254
 10
28.8653
 20
-9.6131
  0
VERTEX
  8
CAPA_1
 62
   254
 10
28.9124
 20
-9.7712
  0
VERTEX
  8
CAPA_1
 62
   254
 10
28.8709
 20
-9.9156
  0
VERTEX
  8
CAPA_1
 62
   254
 10
28.7455
 20
-10.0251
  0
VERTEX
  8
CAPA_1
 62
   254
 10
28.9124
 20
-10.1338
  0
VERTEX
  8
CAPA_1
 62
   254
 10
28.971
 20
-10.315
  0
VERTEX
  8
CAPA_1
 62
   254
 10
28.9353
 20
-10.4716
  0
VERTEX
  8
CAPA_1
 62
   254
 10
28.8475
 20
-10.5831
  0
VERTEX
  8
CAPA_1
 62
   254
 10
28.7165
 20
-10.6422
  0
VERTEX
  8
CAPA_1
 62
   254
 10
28.523
 20
-10.6623
  0
VERTEX
  8
CAPA_1
 62
   254
 10
28.0662
 20
-10.6623
  0
SEQEND
  8
CAPA_1
 62
   254
  0
POLYLINE
  8
CAPA_1
 62
   254
 66
     1
 70
     1
  0
VERTEX
  8
CAPA_1
 62
   254
 10
28.2251
 20
-9.9683
  0
VERTEX
  8
CAPA_1
 62
   254
 10
28.484
 20
-9.9683
  0
VERTEX
  8
CAPA_1
 62
   254
 10
28.6351
 20
-9.9543
  0
VERTEX
  8
CAPA_1
 62
   254
 10
28.7262
 20
-9.8944
  0
VERTEX
  8
CAPA_1
 62
   254
 10
28.7569
 20
-9.7896
  0
VERTEX
  8
CAPA_1
 62
   254
 10
28.7282
 20
-9.6845
  0
VERTEX
  8
CAPA_1
 62
   254
 10
28.6465
 20
-9.6221
  0
VERTEX
  8
CAPA_1
 62
   254
 10
28.4645
 20
-9.6053
  0
VERTEX
  8
CAPA_1
 62
   254
 10
28.2251
 20
-9.6053
  0
VERTEX
  8
CAPA_1
 62
   254
 10
28.2251
 20
-9.9683
  0
SEQEND
  8
CAPA_1
 62
   254
  0
POLYLINE
  8
CAPA_1
 62
   254
 66
     1
 70
     1
  0
VERTEX
  8
CAPA_1
 62
   254
 10
28.2251
 20
-10.5218
  0
VERTEX
  8
CAPA_1
 62
   254
 10
28.5233
 20
-10.5218
  0
VERTEX
  8
CAPA_1
 62
   254
 10
28.6315
 20
-10.516
  0
VERTEX
  8
CAPA_1
 62
   254
 10
28.7229
 20
-10.4834
  0
VERTEX
  8
CAPA_1
 62
   254
 10
28.7834
 20
-10.4165
  0
VERTEX
  8
CAPA_1
 62
   254
 10
28.8071
 20
-10.3153
  0
VERTEX
  8
CAPA_1
 62
   254
 10
28.7725
 20
-10.1985
  0
VERTEX
  8
CAPA_1
 62
   254
 10
28.6772
 20
-10.1288
  0
VERTEX
  8
CAPA_1
 62
   254
 10
28.5021
 20
-10.1087
  0
VERTEX
  8
CAPA_1
 62
   254
 10
28.2251
 20
-10.1087
  0
VERTEX
  8
CAPA_1
 62
   254
 10
28.2251
 20
-10.5218
  0
SEQEND
  8
CAPA_1
 62
   254
  0
POLYLINE
  8
CAPA_1
 62
   253
 66
     1
 70
     1
  0
VERTEX
  8
CAPA_1
 62
   253
 10
30.1912
 20
-10.6445
  0
VERTEX
  8
CAPA_1
 62
   253
 10
30.1912
 20
-10.1716
  0
VERTEX
  8
CAPA_1
 62
   253
 10
29.7207
 20
-10.1716
  0
VERTEX
  8
CAPA_1
 62
   253
 10
29.7207
 20
-9.9738
  0
VERTEX
  8
CAPA_1
 62
   253
 10
30.1912
 20
-9.9738
  0
VERTEX
  8
CAPA_1
 62
   253
 10
30.1912
 20
-9.5033
  0
VERTEX
  8
CAPA_1
 62
   253
 10
30.3914
 20
-9.5033
  0
VERTEX
  8
CAPA_1
 62
   253
 10
30.3914
 20
-9.9738
  0
VERTEX
  8
CAPA_1
 62
   253
 10
30.8619
 20
-9.9738
  0
VERTEX
  8
CAPA_1
 62
   253
 10
30.8619
 20
-10.1716
  0
VERTEX
  8
CAPA_1
 62
   253
 10
30.3914
 20
-10.1716
  0
VERTEX
  8
CAPA_1
 62
   253
 10
30.3914
 20
-10.6445
  0
VERTEX
  8
CAPA_1
 62
   253
 10
30.1912
 20
-10.6445
  0
SEQEND
  8
CAPA_1
 62
   253
  0
POLYLINE
  8
CAPA_1
 62
   253
 66
     1
 70
     1
  0
VERTEX
  8
CAPA_1
 62
   253
 10
38.0182
 20
0.4886
  0
VERTEX
  8
CAPA_1
 62
   253
 10
38.1337
 20
0.5627
  0
VERTEX
  8
CAPA_1
 62
   253
 10
38.2368
 20
0.4629
  0
VERTEX
  8
CAPA_1
 62
   253
 10
38.3744
 20
0.4378
  0
VERTEX
  8
CAPA_1
 62
   253
 10
38.5391
 20
0.4866
  0
VERTEX
  8
CAPA_1
 62
   253
 10
38.6578
 20
0.5764
  0
VERTEX
  8
CAPA_1
 62
   253
 10
38.7103
 20
0.6808
  0
VERTEX
  8
CAPA_1
 62
   253
 10
38.6944
 20
0.7787
  0
VERTEX
  8
CAPA_1
 62
   253
 10
38.6263
 20
0.8447
  0
VERTEX
  8
CAPA_1
 62
   253
 10
38.5086
 20
0.8564
  0
VERTEX
  8
CAPA_1
 62
   253
 10
38.3103
 20
0.8134
  0
VERTEX
  8
CAPA_1
 62
   253
 10
38.0905
 20
0.7762
  0
VERTEX
  8
CAPA_1
 62
   253
 10
37.9395
 20
0.8131
  0
VERTEX
  8
CAPA_1
 62
   253
 10
37.8419
 20
0.9166
  0
VERTEX
  8
CAPA_1
 62
   253
 10
37.812
 20
1.0767
  0
VERTEX
  8
CAPA_1
 62
   253
 10
37.8834
 20
1.2379
  0
VERTEX
  8
CAPA_1
 62
   253
 10
38.0447
 20
1.3644
  0
VERTEX
  8
CAPA_1
 62
   253
 10
38.254
 20
1.429
  0
VERTEX
  8
CAPA_1
 62
   253
 10
38.4349
 20
1.3926
  0
VERTEX
  8
CAPA_1
 62
   253
 10
38.5627
 20
1.2639
  0
VERTEX
  8
CAPA_1
 62
   253
 10
38.4438
 20
1.1899
  0
VERTEX
  8
CAPA_1
 62
   253
 10
38.3039
 20
1.2941
  0
VERTEX
  8
CAPA_1
 62
   253
 10
38.1094
 20
1.2527
  0
VERTEX
  8
CAPA_1
 62
   253
 10
37.9611
 20
1.1209
  0
VERTEX
  8
CAPA_1
 62
   253
 10
37.9614
 20
0.9896
  0
VERTEX
  8
CAPA_1
 62
   253
 10
38.0443
 20
0.9228
  0
VERTEX
  8
CAPA_1
 62
   253
 10
38.275
 20
0.9547
  0
VERTEX
  8
CAPA_1
 62
   253
 10
38.5232
 20
1.005
  0
VERTEX
  8
CAPA_1
 62
   253
 10
38.7002
 20
0.9712
  0
VERTEX
  8
CAPA_1
 62
   253
 10
38.8127
 20
0.8541
  0
VERTEX
  8
CAPA_1
 62
   253
 10
38.8444
 20
0.6846
  0
VERTEX
  8
CAPA_1
 62
   253
 10
38.7723
 20
0.5113
  0
VERTEX
  8
CAPA_1
 62
   253
 10
38.6045
 20
0.3754
  0
VERTEX
  8
CAPA_1
 62
   253
 10
38.3633
 20
0.2987
  0
VERTEX
  8
CAPA_1
 62
   253
 10
38.1629
 20
0.3417
  0
VERTEX
  8
CAPA_1
 62
   253
 10
38.0182
 20
0.4886
  0
SEQEND
  8
CAPA_1
 62
   253
  0
POLYLINE
  8
CAPA_1
 62
   253
 66
     1
 70
     1
  0
VERTEX
  8
CAPA_1
 62
   253
 10
38.9929
 20
1.2703
  0
VERTEX
  8
CAPA_1
 62
   253
 10
38.842
 20
1.2906
  0
VERTEX
  8
CAPA_1
 62
   253
 10
38.7429
 20
1.393
  0
VERTEX
  8
CAPA_1
 62
   253
 10
38.726
 20
1.6115
  0
VERTEX
  8
CAPA_1
 62
   253
 10
38.8914
 20
1.79
  0
VERTEX
  8
CAPA_1
 62
   253
 10
39.1352
 20
1.8227
  0
VERTEX
  8
CAPA_1
 62
   253
 10
39.3069
 20
1.6826
  0
VERTEX
  8
CAPA_1
 62
   253
 10
39.3329
 20
1.5462
  0
VERTEX
  8
CAPA_1
 62
   253
 10
39.2656
 20
1.4124
  0
VERTEX
  8
CAPA_1
 62
   253
 10
39.4507
 20
1.3889
  0
VERTEX
  8
CAPA_1
 62
   253
 10
39.5785
 20
1.2578
  0
VERTEX
  8
CAPA_1
 62
   253
 10
39.5996
 20
1.002
  0
VERTEX
  8
CAPA_1
 62
   253
 10
39.4115
 20
0.7959
  0
VERTEX
  8
CAPA_1
 62
   253
 10
39.1347
 20
0.7601
  0
VERTEX
  8
CAPA_1
 62
   253
 10
38.9355
 20
0.9271
  0
VERTEX
  8
CAPA_1
 62
   253
 10
38.901
 20
1.1113
  0
VERTEX
  8
CAPA_1
 62
   253
 10
38.9929
 20
1.2703
  0
SEQEND
  8
CAPA_1
 62
   253
  0
POLYLINE
  8
CAPA_1
 62
   253
 66
     1
 70
     1
  0
VERTEX
  8
CAPA_1
 62
   253
 10
38.8632
 20
1.4612
  0
VERTEX
  8
CAPA_1
 62
   253
 10
38.9662
 20
1.3709
  0
VERTEX
  8
CAPA_1
 62
   253
 10
39.105
 20
1.3873
  0
VERTEX
  8
CAPA_1
 62
   253
 10
39.1958
 20
1.4899
  0
VERTEX
  8
CAPA_1
 62
   253
 10
39.1839
 20
1.6196
  0
VERTEX
  8
CAPA_1
 62
   253
 10
39.0809
 20
1.707
  0
VERTEX
  8
CAPA_1
 62
   253
 10
38.9441
 20
1.6929
  0
VERTEX
  8
CAPA_1
 62
   253
 10
38.8531
 20
1.5896
  0
VERTEX
  8
CAPA_1
 62
   253
 10
38.8632
 20
1.4612
  0
SEQEND
  8
CAPA_1
 62
   253
  0
POLYLINE
  8
CAPA_1
 62
   253
 66
     1
 70
     1
  0
VERTEX
  8
CAPA_1
 62
   253
 10
39.0585
 20
0.9901
  0
VERTEX
  8
CAPA_1
 62
   253
 10
39.1339
 20
0.9034
  0
VERTEX
  8
CAPA_1
 62
   253
 10
39.2447
 20
0.867
  0
VERTEX
  8
CAPA_1
 62
   253
 10
39.3613
 20
0.8943
  0
VERTEX
  8
CAPA_1
 62
   253
 10
39.4744
 20
1.0234
  0
VERTEX
  8
CAPA_1
 62
   253
 10
39.4567
 20
1.1924
  0
VERTEX
  8
CAPA_1
 62
   253
 10
39.3253
 20
1.3056
  0
VERTEX
  8
CAPA_1
 62
   253
 10
39.1518
 20
1.2871
  0
VERTEX
  8
CAPA_1
 62
   253
 10
39.0409
 20
1.1583
  0
VERTEX
  8
CAPA_1
 62
   253
 10
39.0585
 20
0.9901
  0
SEQEND
  8
CAPA_1
 62
   253
  0
POLYLINE
  8
CAPA_1
 62
   253
 66
     1
 70
     1
  0
VERTEX
  8
CAPA_1
 62
   253
 10
38.7941
 20
-1.017
  0
VERTEX
  8
CAPA_1
 62
   253
 10
38.9096
 20
-0.9429
  0
VERTEX
  8
CAPA_1
 62
   253
 10
39.0126
 20
-1.0427
  0
VERTEX
  8
CAPA_1
 62
   253
 10
39.1503
 20
-1.0678
  0
VERTEX
  8
CAPA_1
 62
   253
 10
39.315
 20
-1.019
  0
VERTEX
  8
CAPA_1
 62
   253
 10
39.4337
 20
-0.9291
  0
VERTEX
  8
CAPA_1
 62
   253
 10
39.4861
 20
-0.8248
  0
VERTEX
  8
CAPA_1
 62
   253
 10
39.4703
 20
-0.7269
  0
VERTEX
  8
CAPA_1
 62
   253
 10
39.4022
 20
-0.6609
  0
VERTEX
  8
CAPA_1
 62
   253
 10
39.2845
 20
-0.6492
  0
VERTEX
  8
CAPA_1
 62
   253
 10
39.0862
 20
-0.6922
  0
VERTEX
  8
CAPA_1
 62
   253
 10
38.8664
 20
-0.7294
  0
VERTEX
  8
CAPA_1
 62
   253
 10
38.7154
 20
-0.6925
  0
VERTEX
  8
CAPA_1
 62
   253
 10
38.6178
 20
-0.589
  0
VERTEX
  8
CAPA_1
 62
   253
 10
38.5878
 20
-0.4289
  0
VERTEX
  8
CAPA_1
 62
   253
 10
38.6593
 20
-0.2677
  0
VERTEX
  8
CAPA_1
 62
   253
 10
38.8206
 20
-0.1412
  0
VERTEX
  8
CAPA_1
 62
   253
 10
39.0298
 20
-0.0766
  0
VERTEX
  8
CAPA_1
 62
   253
 10
39.2107
 20
-0.113
  0
VERTEX
  8
CAPA_1
 62
   253
 10
39.3386
 20
-0.2417
  0
VERTEX
  8
CAPA_1
 62
   253
 10
39.2197
 20
-0.3157
  0
VERTEX
  8
CAPA_1
 62
   253
 10
39.0797
 20
-0.2115
  0
VERTEX
  8
CAPA_1
 62
   253
 10
38.8852
 20
-0.2529
  0
VERTEX
  8
CAPA_1
 62
   253
 10
38.737
 20
-0.3847
  0
VERTEX
  8
CAPA_1
 62
   253
 10
38.7373
 20
-0.516
  0
VERTEX
  8
CAPA_1
 62
   253
 10
38.8202
 20
-0.5828
  0
VERTEX
  8
CAPA_1
 62
   253
 10
39.0509
 20
-0.5508
  0
VERTEX
  8
CAPA_1
 62
   253
 10
39.299
 20
-0.5006
  0
VERTEX
  8
CAPA_1
 62
   253
 10
39.4761
 20
-0.5344
  0
VERTEX
  8
CAPA_1
 62
   253
 10
39.5885
 20
-0.6515
  0
VERTEX
  8
CAPA_1
 62
   253
 10
39.6203
 20
-0.821
  0
VERTEX
  8
CAPA_1
 62
   253
 10
39.5482
 20
-0.9943
  0
VERTEX
  8
CAPA_1
 62
   253
 10
39.3804
 20
-1.1302
  0
VERTEX
  8
CAPA_1
 62
   253
 10
39.1391
 20
-1.2069
  0
VERTEX
  8
CAPA_1
 62
   253
 10
38.9388
 20
-1.1639
  0
VERTEX
  8
CAPA_1
 62
   253
 10
38.7941
 20
-1.017
  0
SEQEND
  8
CAPA_1
 62
   253
  0
POLYLINE
  8
CAPA_1
 62
   253
 66
     1
 70
     1
  0
VERTEX
  8
CAPA_1
 62
   253
 10
39.7596
 20
-0.6246
  0
VERTEX
  8
CAPA_1
 62
   253
 10
39.8691
 20
-0.5555
  0
VERTEX
  8
CAPA_1
 62
   253
 10
39.986
 20
-0.6436
  0
VERTEX
  8
CAPA_1
 62
   253
 10
40.1107
 20
-0.6251
  0
VERTEX
  8
CAPA_1
 62
   253
 10
40.1943
 20
-0.5493
  0
VERTEX
  8
CAPA_1
 62
   253
 10
40.2272
 20
-0.4461
  0
VERTEX
  8
CAPA_1
 62
   253
 10
40.212
 20
-0.3089
  0
VERTEX
  8
CAPA_1
 62
   253
 10
40.1536
 20
-0.1533
  0
VERTEX
  8
CAPA_1
 62
   253
 10
40.1404
 20
-0.1296
  0
VERTEX
  8
CAPA_1
 62
   253
 10
40.091
 20
-0.2734
  0
VERTEX
  8
CAPA_1
 62
   253
 10
39.9752
 20
-0.3789
  0
VERTEX
  8
CAPA_1
 62
   253
 10
39.7251
 20
-0.3977
  0
VERTEX
  8
CAPA_1
 62
   253
 10
39.5211
 20
-0.2099
  0
VERTEX
  8
CAPA_1
 62
   253
 10
39.4898
 20
-0.1366
  0
VERTEX
  8
CAPA_1
 62
   253
 10
39.4732
 20
-0.0649
  0
VERTEX
  8
CAPA_1
 62
   253
 10
39.4713
 20
0.0054
  0
VERTEX
  8
CAPA_1
 62
   253
 10
39.4841
 20
0.0742
  0
VERTEX
  8
CAPA_1
 62
   253
 10
39.6558
 20
0.2784
  0
VERTEX
  8
CAPA_1
 62
   253
 10
39.856
 20
0.3176
  0
VERTEX
  8
CAPA_1
 62
   253
 10
40.0513
 20
0.2339
  0
VERTEX
  8
CAPA_1
 62
   253
 10
40.235
 20
-0.0188
  0
VERTEX
  8
CAPA_1
 62
   253
 10
40.3496
 20
-0.3373
  0
VERTEX
  8
CAPA_1
 62
   253
 10
40.3167
 20
-0.5688
  0
VERTEX
  8
CAPA_1
 62
   253
 10
40.1595
 20
-0.7243
  0
VERTEX
  8
CAPA_1
 62
   253
 10
39.9397
 20
-0.7581
  0
VERTEX
  8
CAPA_1
 62
   253
 10
39.7596
 20
-0.6246
  0
SEQEND
  8
CAPA_1
 62
   253
  0
POLYLINE
  8
CAPA_1
 62
   253
 66
     1
 70
     1
  0
VERTEX
  8
CAPA_1
 62
   253
 10
40.0242
 20
0.06
  0
VERTEX
  8
CAPA_1
 62
   253
 10
39.8849
 20
0.1947
  0
VERTEX
  8
CAPA_1
 62
   253
 10
39.7216
 20
0.1863
  0
VERTEX
  8
CAPA_1
 62
   253
 10
39.6166
 20
0.0492
  0
VERTEX
  8
CAPA_1
 62
   253
 10
39.6456
 20
-0.15
  0
VERTEX
  8
CAPA_1
 62
   253
 10
39.7799
 20
-0.2719
  0
VERTEX
  8
CAPA_1
 62
   253
 10
39.9487
 20
-0.2578
  0
VERTEX
  8
CAPA_1
 62
   253
 10
40.0548
 20
-0.1287
  0
VERTEX
  8
CAPA_1
 62
   253
 10
40.0242
 20
0.06
  0
SEQEND
  8
CAPA_1
 62
   253
  0
POLYLINE
  8
CAPA_1
 62
   253
 66
     1
 70
     1
  0
VERTEX
  8
CAPA_1
 62
   253
 10
37.2911
 20
-4.2022
  0
VERTEX
  8
CAPA_1
 62
   253
 10
36.4067
 20
-3.4238
  0
VERTEX
  8
CAPA_1
 62
   253
 10
36.5464
 20
-3.351
  0
VERTEX
  8
CAPA_1
 62
   253
 10
37.1687
 20
-3.9274
  0
VERTEX
  8
CAPA_1
 62
   253
 10
37.3029
 20
-4.0602
  0
VERTEX
  8
CAPA_1
 62
   253
 10
37.2722
 20
-3.8735
  0
VERTEX
  8
CAPA_1
 62
   253
 10
37.1658
 20
-3.0283
  0
VERTEX
  8
CAPA_1
 62
   253
 10
37.2974
 20
-2.9597
  0
VERTEX
  8
CAPA_1
 62
   253
 10
37.4252
 20
-4.1324
  0
VERTEX
  8
CAPA_1
 62
   253
 10
37.2911
 20
-4.2022
  0
SEQEND
  8
CAPA_1
 62
   253
  0
POLYLINE
  8
CAPA_1
 62
   253
 66
     1
 70
     1
  0
VERTEX
  8
CAPA_1
 62
   253
 10
38.233
 20
-3.3826
  0
VERTEX
  8
CAPA_1
 62
   253
 10
38.3586
 20
-3.3379
  0
VERTEX
  8
CAPA_1
 62
   253
 10
38.3586
 20
-3.5782
  0
VERTEX
  8
CAPA_1
 62
   253
 10
38.1994
 20
-3.748
  0
VERTEX
  8
CAPA_1
 62
   253
 10
38.1275
 20
-3.7779
  0
VERTEX
  8
CAPA_1
 62
   253
 10
38.0566
 20
-3.7923
  0
VERTEX
  8
CAPA_1
 62
   253
 10
37.9866
 20
-3.7912
  0
VERTEX
  8
CAPA_1
 62
   253
 10
37.9176
 20
-3.7745
  0
VERTEX
  8
CAPA_1
 62
   253
 10
37.8517
 20
-3.7422
  0
VERTEX
  8
CAPA_1
 62
   253
 10
37.7916
 20
-3.694
  0
VERTEX
  8
CAPA_1
 62
   253
 10
37.7371
 20
-3.6298
  0
VERTEX
  8
CAPA_1
 62
   253
 10
37.6884
 20
-3.5496
  0
VERTEX
  8
CAPA_1
 62
   253
 10
37.6221
 20
-3.33
  0
VERTEX
  8
CAPA_1
 62
   253
 10
37.6706
 20
-3.1417
  0
VERTEX
  8
CAPA_1
 62
   253
 10
37.8165
 20
-3.0111
  0
VERTEX
  8
CAPA_1
 62
   253
 10
38.0346
 20
-2.9713
  0
VERTEX
  8
CAPA_1
 62
   253
 10
38.2144
 20
-3.0876
  0
VERTEX
  8
CAPA_1
 62
   253
 10
38.1079
 20
-3.1656
  0
VERTEX
  8
CAPA_1
 62
   253
 10
37.9931
 20
-3.0893
  0
VERTEX
  8
CAPA_1
 62
   253
 10
37.8724
 20
-3.1066
  0
VERTEX
  8
CAPA_1
 62
   253
 10
37.7588
 20
-3.248
  0
VERTEX
  8
CAPA_1
 62
   253
 10
37.809
 20
-3.4823
  0
VERTEX
  8
CAPA_1
 62
   253
 10
37.9711
 20
-3.6604
  0
VERTEX
  8
CAPA_1
 62
   253
 10
38.1469
 20
-3.6507
  0
VERTEX
  8
CAPA_1
 62
   253
 10
38.2422
 20
-3.5463
  0
VERTEX
  8
CAPA_1
 62
   253
 10
38.233
 20
-3.3826
  0
SEQEND
  8
CAPA_1
 62
   253
  0
POLYLINE
  8
CAPA_1
 62
   253
 66
     1
 70
     1
  0
VERTEX
  8
CAPA_1
 62
   253
 10
38.9137
 20
-3.0279
  0
VERTEX
  8
CAPA_1
 62
   253
 10
39.0393
 20
-2.9832
  0
VERTEX
  8
CAPA_1
 62
   253
 10
39.0393
 20
-3.2235
  0
VERTEX
  8
CAPA_1
 62
   253
 10
38.8801
 20
-3.3933
  0
VERTEX
  8
CAPA_1
 62
   253
 10
38.8082
 20
-3.4232
  0
VERTEX
  8
CAPA_1
 62
   253
 10
38.7373
 20
-3.4376
  0
VERTEX
  8
CAPA_1
 62
   253
 10
38.6673
 20
-3.4365
  0
VERTEX
  8
CAPA_1
 62
   253
 10
38.5983
 20
-3.4198
  0
VERTEX
  8
CAPA_1
 62
   253
 10
38.5324
 20
-3.3875
  0
VERTEX
  8
CAPA_1
 62
   253
 10
38.4723
 20
-3.3393
  0
VERTEX
  8
CAPA_1
 62
   253
 10
38.4178
 20
-3.2751
  0
VERTEX
  8
CAPA_1
 62
   253
 10
38.3691
 20
-3.1949
  0
VERTEX
  8
CAPA_1
 62
   253
 10
38.3028
 20
-2.9753
  0
VERTEX
  8
CAPA_1
 62
   253
 10
38.3513
 20
-2.787
  0
VERTEX
  8
CAPA_1
 62
   253
 10
38.4972
 20
-2.6564
  0
VERTEX
  8
CAPA_1
 62
   253
 10
38.7153
 20
-2.6166
  0
VERTEX
  8
CAPA_1
 62
   253
 10
38.8951
 20
-2.7329
  0
VERTEX
  8
CAPA_1
 62
   253
 10
38.7886
 20
-2.8109
  0
VERTEX
  8
CAPA_1
 62
   253
 10
38.6738
 20
-2.7346
  0
VERTEX
  8
CAPA_1
 62
   253
 10
38.5531
 20
-2.7519
  0
VERTEX
  8
CAPA_1
 62
   253
 10
38.4395
 20
-2.8933
  0
VERTEX
  8
CAPA_1
 62
   253
 10
38.4897
 20
-3.1276
  0
VERTEX
  8
CAPA_1
 62
   253
 10
38.6518
 20
-3.3057
  0
VERTEX
  8
CAPA_1
 62
   253
 10
38.8276
 20
-3.296
  0
VERTEX
  8
CAPA_1
 62
   253
 10
38.9229
 20
-3.1916
  0
VERTEX
  8
CAPA_1
 62
   253
 10
38.9137
 20
-3.0279
  0
SEQEND
  8
CAPA_1
 62
   253
  0
POLYLINE
  8
CAPA_1
 62
   253
 66
     1
 70
     1
  0
VERTEX
  8
CAPA_1
 62
   253
 10
39.0676
 20
-2.9044
  0
VERTEX
  8
CAPA_1
 62
   253
 10
39.0051
 20
-2.7846
  0
VERTEX
  8
CAPA_1
 62
   253
 10
39.3754
 20
-2.5916
  0
VERTEX
  8
CAPA_1
 62
   253
 10
39.4378
 20
-2.7115
  0
VERTEX
  8
CAPA_1
 62
   253
 10
39.0676
 20
-2.9044
  0
SEQEND
  8
CAPA_1
 62
   253
  0
POLYLINE
  8
CAPA_1
 62
   253
 66
     1
 70
     1
  0
VERTEX
  8
CAPA_1
 62
   253
 10
39.9266
 20
-1.8926
  0
VERTEX
  8
CAPA_1
 62
   253
 10
39.8132
 20
-1.9639
  0
VERTEX
  8
CAPA_1
 62
   253
 10
39.7142
 20
-1.885
  0
VERTEX
  8
CAPA_1
 62
   253
 10
39.5672
 20
-1.8964
  0
VERTEX
  8
CAPA_1
 62
   253
 10
39.4823
 20
-1.9814
  0
VERTEX
  8
CAPA_1
 62
   253
 10
39.4556
 20
-2.1479
  0
VERTEX
  8
CAPA_1
 62
   253
 10
39.539
 20
-2.3908
  0
VERTEX
  8
CAPA_1
 62
   253
 10
39.594
 20
-2.2381
  0
VERTEX
  8
CAPA_1
 62
   253
 10
39.7086
 20
-2.1378
  0
VERTEX
  8
CAPA_1
 62
   253
 10
39.9587
 20
-2.1197
  0
VERTEX
  8
CAPA_1
 62
   253
 10
40.1615
 20
-2.3035
  0
VERTEX
  8
CAPA_1
 62
   253
 10
40.211
 20
-2.4947
  0
VERTEX
  8
CAPA_1
 62
   253
 10
40.165
 20
-2.6722
  0
VERTEX
  8
CAPA_1
 62
   253
 10
40.0299
 20
-2.7959
  0
VERTEX
  8
CAPA_1
 62
   253
 10
39.955
 20
-2.8262
  0
VERTEX
  8
CAPA_1
 62
   253
 10
39.8798
 20
-2.8391
  0
VERTEX
  8
CAPA_1
 62
   253
 10
39.8042
 20
-2.8348
  0
VERTEX
  8
CAPA_1
 62
   253
 10
39.7284
 20
-2.8131
  0
VERTEX
  8
CAPA_1
 62
   253
 10
39.6539
 20
-2.7707
  0
VERTEX
  8
CAPA_1
 62
   253
 10
39.5818
 20
-2.7044
  0
VERTEX
  8
CAPA_1
 62
   253
 10
39.5122
 20
-2.6141
  0
VERTEX
  8
CAPA_1
 62
   253
 10
39.4451
 20
-2.4998
  0
VERTEX
  8
CAPA_1
 62
   253
 10
39.3831
 20
-2.3648
  0
VERTEX
  8
CAPA_1
 62
   253
 10
39.3442
 20
-2.2422
  0
VERTEX
  8
CAPA_1
 62
   253
 10
39.3284
 20
-2.132
  0
VERTEX
  8
CAPA_1
 62
   253
 10
39.3357
 20
-2.0344
  0
VERTEX
  8
CAPA_1
 62
   253
 10
39.3598
 20
-1.9598
  0
VERTEX
  8
CAPA_1
 62
   253
 10
39.3991
 20
-1.8949
  0
VERTEX
  8
CAPA_1
 62
   253
 10
39.4536
 20
-1.8399
  0
VERTEX
  8
CAPA_1
 62
   253
 10
39.5234
 20
-1.7946
  0
VERTEX
  8
CAPA_1
 62
   253
 10
39.7457
 20
-1.7608
  0
VERTEX
  8
CAPA_1
 62
   253
 10
39.9266
 20
-1.8926
  0
SEQEND
  8
CAPA_1
 62
   253
  0
POLYLINE
  8
CAPA_1
 62
   253
 66
     1
 70
     1
  0
VERTEX
  8
CAPA_1
 62
   253
 10
39.6558
 20
-2.5685
  0
VERTEX
  8
CAPA_1
 62
   253
 10
39.7438
 20
-2.6732
  0
VERTEX
  8
CAPA_1
 62
   253
 10
39.8617
 20
-2.7212
  0
VERTEX
  8
CAPA_1
 62
   253
 10
39.9768
 20
-2.699
  0
VERTEX
  8
CAPA_1
 62
   253
 10
40.0755
 20
-2.5696
  0
VERTEX
  8
CAPA_1
 62
   253
 10
40.0431
 20
-2.3751
  0
VERTEX
  8
CAPA_1
 62
   253
 10
39.9065
 20
-2.2437
  0
VERTEX
  8
CAPA_1
 62
   253
 10
39.74
 20
-2.2564
  0
VERTEX
  8
CAPA_1
 62
   253
 10
39.6327
 20
-2.3864
  0
VERTEX
  8
CAPA_1
 62
   253
 10
39.6558
 20
-2.5685
  0
SEQEND
  8
CAPA_1
 62
   253
  0
POLYLINE
  8
CAPA_1
 62
   253
 66
     1
 70
     1
  0
VERTEX
  8
CAPA_1
 62
   253
 10
40.7706
 20
-2.3891
  0
VERTEX
  8
CAPA_1
 62
   253
 10
39.8862
 20
-1.6107
  0
VERTEX
  8
CAPA_1
 62
   253
 10
40.0259
 20
-1.5379
  0
VERTEX
  8
CAPA_1
 62
   253
 10
40.6482
 20
-2.1143
  0
VERTEX
  8
CAPA_1
 62
   253
 10
40.7824
 20
-2.2471
  0
VERTEX
  8
CAPA_1
 62
   253
 10
40.7517
 20
-2.0604
  0
VERTEX
  8
CAPA_1
 62
   253
 10
40.6453
 20
-1.2152
  0
VERTEX
  8
CAPA_1
 62
   253
 10
40.7769
 20
-1.1466
  0
VERTEX
  8
CAPA_1
 62
   253
 10
40.9047
 20
-2.3193
  0
VERTEX
  8
CAPA_1
 62
   253
 10
40.7706
 20
-2.3891
  0
SEQEND
  8
CAPA_1
 62
   253
  0
POLYLINE
  8
CAPA_1
 62
   253
 66
     1
 70
     1
  0
VERTEX
  8
CAPA_1
 62
   253
 10
37.8859
 20
-5.8631
  0
VERTEX
  8
CAPA_1
 62
   253
 10
37.378
 20
-4.8885
  0
VERTEX
  8
CAPA_1
 62
   253
 10
37.5713
 20
-4.7878
  0
VERTEX
  8
CAPA_1
 62
   253
 10
38.1613
 20
-5.3576
  0
VERTEX
  8
CAPA_1
 62
   253
 10
38.283
 20
-5.4776
  0
VERTEX
  8
CAPA_1
 62
   253
 10
38.2538
 20
-5.2941
  0
VERTEX
  8
CAPA_1
 62
   253
 10
38.1351
 20
-4.494
  0
VERTEX
  8
CAPA_1
 62
   253
 10
38.3078
 20
-4.404
  0
VERTEX
  8
CAPA_1
 62
   253
 10
38.8156
 20
-5.3786
  0
VERTEX
  8
CAPA_1
 62
   253
 10
38.6917
 20
-5.4432
  0
VERTEX
  8
CAPA_1
 62
   253
 10
38.2669
 20
-4.6279
  0
VERTEX
  8
CAPA_1
 62
   253
 10
38.4072
 20
-5.5915
  0
VERTEX
  8
CAPA_1
 62
   253
 10
38.2911
 20
-5.652
  0
VERTEX
  8
CAPA_1
 62
   253
 10
37.5771
 20
-4.9682
  0
VERTEX
  8
CAPA_1
 62
   253
 10
38.0098
 20
-5.7986
  0
VERTEX
  8
CAPA_1
 62
   253
 10
37.8859
 20
-5.8631
  0
SEQEND
  8
CAPA_1
 62
   253
  0
POLYLINE
  8
CAPA_1
 62
   253
 66
     1
 70
     1
  0
VERTEX
  8
CAPA_1
 62
   253
 10
38.7786
 20
-4.9488
  0
VERTEX
  8
CAPA_1
 62
   253
 10
38.7377
 20
-4.8537
  0
VERTEX
  8
CAPA_1
 62
   253
 10
38.7171
 20
-4.7643
  0
VERTEX
  8
CAPA_1
 62
   253
 10
38.7167
 20
-4.6804
  0
VERTEX
  8
CAPA_1
 62
   253
 10
38.7366
 20
-4.602
  0
VERTEX
  8
CAPA_1
 62
   253
 10
38.9179
 20
-4.408
  0
VERTEX
  8
CAPA_1
 62
   253
 10
38.9904
 20
-4.3778
  0
VERTEX
  8
CAPA_1
 62
   253
 10
39.0625
 20
-4.3629
  0
VERTEX
  8
CAPA_1
 62
   253
 10
39.1342
 20
-4.3634
  0
VERTEX
  8
CAPA_1
 62
   253
 10
39.2055
 20
-4.3792
  0
VERTEX
  8
CAPA_1
 62
   253
 10
39.273
 20
-4.4102
  0
VERTEX
  8
CAPA_1
 62
   253
 10
39.3338
 20
-4.4564
  0
VERTEX
  8
CAPA_1
 62
   253
 10
39.3878
 20
-4.5177
  0
VERTEX
  8
CAPA_1
 62
   253
 10
39.4349
 20
-4.5941
  0
VERTEX
  8
CAPA_1
 62
   253
 10
39.5056
 20
-4.8293
  0
VERTEX
  8
CAPA_1
 62
   253
 10
39.4496
 20
-5.0125
  0
VERTEX
  8
CAPA_1
 62
   253
 10
39.3016
 20
-5.1444
  0
VERTEX
  8
CAPA_1
 62
   253
 10
39.2279
 20
-5.1753
  0
VERTEX
  8
CAPA_1
 62
   253
 10
39.1552
 20
-5.1906
  0
VERTEX
  8
CAPA_1
 62
   253
 10
39.0834
 20
-5.1904
  0
VERTEX
  8
CAPA_1
 62
   253
 10
39.0124
 20
-5.1746
  0
VERTEX
  8
CAPA_1
 62
   253
 10
38.9449
 20
-5.1427
  0
VERTEX
  8
CAPA_1
 62
   253
 10
38.8835
 20
-5.0944
  0
VERTEX
  8
CAPA_1
 62
   253
 10
38.828
 20
-5.0298
  0
VERTEX
  8
CAPA_1
 62
   253
 10
38.7786
 20
-4.9488
  0
SEQEND
  8
CAPA_1
 62
   253
  0
POLYLINE
  8
CAPA_1
 62
   253
 66
     1
 70
     1
  0
VERTEX
  8
CAPA_1
 62
   253
 10
38.9012
 20
-4.8851
  0
VERTEX
  8
CAPA_1
 62
   253
 10
39.066
 20
-5.0569
  0
VERTEX
  8
CAPA_1
 62
   253
 10
39.2505
 20
-5.0464
  0
VERTEX
  8
CAPA_1
 62
   253
 10
39.3639
 20
-4.9013
  0
VERTEX
  8
CAPA_1
 62
   253
 10
39.3157
 20
-4.6643
  0
VERTEX
  8
CAPA_1
 62
   253
 10
39.1529
 20
-4.4975
  0
VERTEX
  8
CAPA_1
 62
   253
 10
38.9697
 20
-4.5074
  0
VERTEX
  8
CAPA_1
 62
   253
 10
38.8551
 20
-4.6522
  0
VERTEX
  8
CAPA_1
 62
   253
 10
38.9012
 20
-4.8851
  0
SEQEND
  8
CAPA_1
 62
   253
  0
POLYLINE
  8
CAPA_1
 62
   253
 66
     1
 70
     1
  0
VERTEX
  8
CAPA_1
 62
   253
 10
39.969
 20
-4.6418
  0
VERTEX
  8
CAPA_1
 62
   253
 10
40.0404
 20
-4.739
  0
VERTEX
  8
CAPA_1
 62
   253
 10
39.9558
 20
-4.7966
  0
VERTEX
  8
CAPA_1
 62
   253
 10
39.8442
 20
-4.8286
  0
VERTEX
  8
CAPA_1
 62
   253
 10
39.7655
 20
-4.8005
  0
VERTEX
  8
CAPA_1
 62
   253
 10
39.6772
 20
-4.6666
  0
VERTEX
  8
CAPA_1
 62
   253
 10
39.4652
 20
-4.2596
  0
VERTEX
  8
CAPA_1
 62
   253
 10
39.3767
 20
-4.3057
  0
VERTEX
  8
CAPA_1
 62
   253
 10
39.3285
 20
-4.2131
  0
VERTEX
  8
CAPA_1
 62
   253
 10
39.4169
 20
-4.167
  0
VERTEX
  8
CAPA_1
 62
   253
 10
39.3259
 20
-3.9923
  0
VERTEX
  8
CAPA_1
 62
   253
 10
39.4082
 20
-3.858
  0
VERTEX
  8
CAPA_1
 62
   253
 10
39.5367
 20
-4.1046
  0
VERTEX
  8
CAPA_1
 62
   253
 10
39.6565
 20
-4.0422
  0
VERTEX
  8
CAPA_1
 62
   253
 10
39.7048
 20
-4.1348
  0
VERTEX
  8
CAPA_1
 62
   253
 10
39.585
 20
-4.1972
  0
VERTEX
  8
CAPA_1
 62
   253
 10
39.8006
 20
-4.611
  0
VERTEX
  8
CAPA_1
 62
   253
 10
39.8414
 20
-4.6736
  0
VERTEX
  8
CAPA_1
 62
   253
 10
39.8739
 20
-4.6864
  0
VERTEX
  8
CAPA_1
 62
   253
 10
39.9192
 20
-4.6738
  0
VERTEX
  8
CAPA_1
 62
   253
 10
39.969
 20
-4.6418
  0
SEQEND
  8
CAPA_1
 62
   253
  0
POLYLINE
  8
CAPA_1
 62
   253
 66
     1
 70
     1
  0
VERTEX
  8
CAPA_1
 62
   253
 10
39.9138
 20
-4.3573
  0
VERTEX
  8
CAPA_1
 62
   253
 10
39.8729
 20
-4.2622
  0
VERTEX
  8
CAPA_1
 62
   253
 10
39.8523
 20
-4.1728
  0
VERTEX
  8
CAPA_1
 62
   253
 10
39.8519
 20
-4.0889
  0
VERTEX
  8
CAPA_1
 62
   253
 10
39.8718
 20
-4.0105
  0
VERTEX
  8
CAPA_1
 62
   253
 10
40.0531
 20
-3.8165
  0
VERTEX
  8
CAPA_1
 62
   253
 10
40.1256
 20
-3.7863
  0
VERTEX
  8
CAPA_1
 62
   253
 10
40.1977
 20
-3.7714
  0
VERTEX
  8
CAPA_1
 62
   253
 10
40.2694
 20
-3.7719
  0
VERTEX
  8
CAPA_1
 62
   253
 10
40.3407
 20
-3.7877
  0
VERTEX
  8
CAPA_1
 62
   253
 10
40.4082
 20
-3.8187
  0
VERTEX
  8
CAPA_1
 62
   253
 10
40.469
 20
-3.8649
  0
VERTEX
  8
CAPA_1
 62
   253
 10
40.523
 20
-3.9262
  0
VERTEX
  8
CAPA_1
 62
   253
 10
40.5701
 20
-4.0026
  0
VERTEX
  8
CAPA_1
 62
   253
 10
40.6408
 20
-4.2378
  0
VERTEX
  8
CAPA_1
 62
   253
 10
40.5848
 20
-4.421
  0
VERTEX
  8
CAPA_1
 62
   253
 10
40.4368
 20
-4.5529
  0
VERTEX
  8
CAPA_1
 62
   253
 10
40.3631
 20
-4.5838
  0
VERTEX
  8
CAPA_1
 62
   253
 10
40.2904
 20
-4.5991
  0
VERTEX
  8
CAPA_1
 62
   253
 10
40.2186
 20
-4.5989
  0
VERTEX
  8
CAPA_1
 62
   253
 10
40.1476
 20
-4.5831
  0
VERTEX
  8
CAPA_1
 62
   253
 10
40.0801
 20
-4.5512
  0
VERTEX
  8
CAPA_1
 62
   253
 10
40.0187
 20
-4.5029
  0
VERTEX
  8
CAPA_1
 62
   253
 10
39.9632
 20
-4.4383
  0
VERTEX
  8
CAPA_1
 62
   253
 10
39.9138
 20
-4.3573
  0
SEQEND
  8
CAPA_1
 62
   253
  0
POLYLINE
  8
CAPA_1
 62
   253
 66
     1
 70
     1
  0
VERTEX
  8
CAPA_1
 62
   253
 10
40.0364
 20
-4.2936
  0
VERTEX
  8
CAPA_1
 62
   253
 10
40.2012
 20
-4.4654
  0
VERTEX
  8
CAPA_1
 62
   253
 10
40.3857
 20
-4.4549
  0
VERTEX
  8
CAPA_1
 62
   253
 10
40.4991
 20
-4.3098
  0
VERTEX
  8
CAPA_1
 62
   253
 10
40.4509
 20
-4.0728
  0
VERTEX
  8
CAPA_1
 62
   253
 10
40.2881
 20
-3.906
  0
VERTEX
  8
CAPA_1
 62
   253
 10
40.1049
 20
-3.9159
  0
VERTEX
  8
CAPA_1
 62
   253
 10
39.9903
 20
-4.0607
  0
VERTEX
  8
CAPA_1
 62
   253
 10
40.0364
 20
-4.2936
  0
SEQEND
  8
CAPA_1
 62
   253
  0
POLYLINE
  8
CAPA_1
 62
   253
 66
     1
 70
     1
  0
VERTEX
  8
CAPA_1
 62
   253
 10
40.8985
 20
-4.2933
  0
VERTEX
  8
CAPA_1
 62
   253
 10
40.5304
 20
-3.5869
  0
VERTEX
  8
CAPA_1
 62
   253
 10
40.6379
 20
-3.5308
  0
VERTEX
  8
CAPA_1
 62
   253
 10
40.6942
 20
-3.639
  0
VERTEX
  8
CAPA_1
 62
   253
 10
40.7188
 20
-3.5002
  0
VERTEX
  8
CAPA_1
 62
   253
 10
40.7832
 20
-3.4361
  0
VERTEX
  8
CAPA_1
 62
   253
 10
40.9261
 20
-3.4097
  0
VERTEX
  8
CAPA_1
 62
   253
 10
40.941
 20
-3.5425
  0
VERTEX
  8
CAPA_1
 62
   253
 10
40.8412
 20
-3.5634
  0
VERTEX
  8
CAPA_1
 62
   253
 10
40.7833
 20
-3.6235
  0
VERTEX
  8
CAPA_1
 62
   253
 10
40.7732
 20
-3.7119
  0
VERTEX
  8
CAPA_1
 62
   253
 10
40.8259
 20
-3.8618
  0
VERTEX
  8
CAPA_1
 62
   253
 10
41.0182
 20
-4.2309
  0
VERTEX
  8
CAPA_1
 62
   253
 10
40.8985
 20
-4.2933
  0
SEQEND
  8
CAPA_1
 62
   253
  0
POLYLINE
  8
CAPA_1
 62
   253
 66
     1
 70
     1
  0
VERTEX
  8
CAPA_1
 62
   253
 10
41.5226
 20
-3.7673
  0
VERTEX
  8
CAPA_1
 62
   253
 10
41.3836
 20
-3.5005
  0
VERTEX
  8
CAPA_1
 62
   253
 10
41.1182
 20
-3.6388
  0
VERTEX
  8
CAPA_1
 62
   253
 10
41.06
 20
-3.5271
  0
VERTEX
  8
CAPA_1
 62
   253
 10
41.3254
 20
-3.3888
  0
VERTEX
  8
CAPA_1
 62
   253
 10
41.1871
 20
-3.1234
  0
VERTEX
  8
CAPA_1
 62
   253
 10
41.3001
 20
-3.0645
  0
VERTEX
  8
CAPA_1
 62
   253
 10
41.4384
 20
-3.3299
  0
VERTEX
  8
CAPA_1
 62
   253
 10
41.7038
 20
-3.1916
  0
VERTEX
  8
CAPA_1
 62
   253
 10
41.762
 20
-3.3033
  0
VERTEX
  8
CAPA_1
 62
   253
 10
41.4966
 20
-3.4416
  0
VERTEX
  8
CAPA_1
 62
   253
 10
41.6356
 20
-3.7084
  0
VERTEX
  8
CAPA_1
 62
   253
 10
41.5226
 20
-3.7673
  0
SEQEND
  8
CAPA_1
 62
   253
  0
POLYLINE
  8
CAPA_1
 62
   253
 66
     1
 70
     1
  0
VERTEX
  8
CAPA_1
 62
   253
 10
39.8792
 20
-6.2697
  0
VERTEX
  8
CAPA_1
 62
   253
 10
39.8196
 20
-6.1554
  0
VERTEX
  8
CAPA_1
 62
   253
 10
40.2321
 20
-5.9404
  0
VERTEX
  8
CAPA_1
 62
   253
 10
40.4203
 20
-6.3016
  0
VERTEX
  8
CAPA_1
 62
   253
 10
40.2835
 20
-6.5176
  0
VERTEX
  8
CAPA_1
 62
   253
 10
40.096
 20
-6.6638
  0
VERTEX
  8
CAPA_1
 62
   253
 10
39.8031
 20
-6.7383
  0
VERTEX
  8
CAPA_1
 62
   253
 10
39.5336
 20
-6.6528
  0
VERTEX
  8
CAPA_1
 62
   253
 10
39.3383
 20
-6.4243
  0
VERTEX
  8
CAPA_1
 62
   253
 10
39.2594
 20
-6.1276
  0
VERTEX
  8
CAPA_1
 62
   253
 10
39.3352
 20
-5.8556
  0
VERTEX
  8
CAPA_1
 62
   253
 10
39.5612
 20
-5.6617
  0
VERTEX
  8
CAPA_1
 62
   253
 10
39.7701
 20
-5.5964
  0
VERTEX
  8
CAPA_1
 62
   253
 10
39.9536
 20
-5.622
  0
VERTEX
  8
CAPA_1
 62
   253
 10
40.1105
 20
-5.7433
  0
VERTEX
  8
CAPA_1
 62
   253
 10
40.0107
 20
-5.8357
  0
VERTEX
  8
CAPA_1
 62
   253
 10
39.8953
 20
-5.747
  0
VERTEX
  8
CAPA_1
 62
   253
 10
39.7668
 20
-5.7274
  0
VERTEX
  8
CAPA_1
 62
   253
 10
39.6193
 20
-5.7716
  0
VERTEX
  8
CAPA_1
 62
   253
 10
39.4808
 20
-5.8782
  0
VERTEX
  8
CAPA_1
 62
   253
 10
39.4138
 20
-6.0033
  0
VERTEX
  8
CAPA_1
 62
   253
 10
39.4028
 20
-6.1317
  0
VERTEX
  8
CAPA_1
 62
   253
 10
39.468
 20
-6.3475
  0
VERTEX
  8
CAPA_1
 62
   253
 10
39.6267
 20
-6.5429
  0
VERTEX
  8
CAPA_1
 62
   253
 10
39.8251
 20
-6.6054
  0
VERTEX
  8
CAPA_1
 62
   253
 10
40.0292
 20
-6.5532
  0
VERTEX
  8
CAPA_1
 62
   253
 10
40.1756
 20
-6.4357
  0
VERTEX
  8
CAPA_1
 62
   253
 10
40.2602
 20
-6.3033
  0
VERTEX
  8
CAPA_1
 62
   253
 10
40.165
 20
-6.1207
  0
VERTEX
  8
CAPA_1
 62
   253
 10
39.8792
 20
-6.2697
  0
SEQEND
  8
CAPA_1
 62
   253
  0
POLYLINE
  8
CAPA_1
 62
   253
 66
     1
 70
     1
  0
VERTEX
  8
CAPA_1
 62
   253
 10
40.68
 20
-6.3388
  0
VERTEX
  8
CAPA_1
 62
   253
 10
40.1721
 20
-5.3642
  0
VERTEX
  8
CAPA_1
 62
   253
 10
40.3045
 20
-5.2952
  0
VERTEX
  8
CAPA_1
 62
   253
 10
41.2146
 20
-5.7936
  0
VERTEX
  8
CAPA_1
 62
   253
 10
40.8159
 20
-5.0287
  0
VERTEX
  8
CAPA_1
 62
   253
 10
40.9397
 20
-4.9642
  0
VERTEX
  8
CAPA_1
 62
   253
 10
41.4476
 20
-5.9388
  0
VERTEX
  8
CAPA_1
 62
   253
 10
41.3151
 20
-6.0078
  0
VERTEX
  8
CAPA_1
 62
   253
 10
40.4051
 20
-5.5093
  0
VERTEX
  8
CAPA_1
 62
   253
 10
40.8038
 20
-6.2743
  0
VERTEX
  8
CAPA_1
 62
   253
 10
40.68
 20
-6.3388
  0
SEQEND
  8
CAPA_1
 62
   253
  0
POLYLINE
  8
CAPA_1
 62
   253
 66
     1
 70
     1
  0
VERTEX
  8
CAPA_1
 62
   253
 10
41.6643
 20
-5.8258
  0
VERTEX
  8
CAPA_1
 62
   253
 10
41.1564
 20
-4.8512
  0
VERTEX
  8
CAPA_1
 62
   253
 10
41.4922
 20
-4.6762
  0
VERTEX
  8
CAPA_1
 62
   253
 10
41.6729
 20
-4.5996
  0
VERTEX
  8
CAPA_1
 62
   253
 10
41.8523
 20
-4.595
  0
VERTEX
  8
CAPA_1
 62
   253
 10
42.0543
 20
-4.7015
  0
VERTEX
  8
CAPA_1
 62
   253
 10
42.2134
 20
-4.9134
  0
VERTEX
  8
CAPA_1
 62
   253
 10
42.2901
 20
-5.1235
  0
VERTEX
  8
CAPA_1
 62
   253
 10
42.2976
 20
-5.3002
  0
VERTEX
  8
CAPA_1
 62
   253
 10
42.2547
 20
-5.4348
  0
VERTEX
  8
CAPA_1
 62
   253
 10
42.1641
 20
-5.5443
  0
VERTEX
  8
CAPA_1
 62
   253
 10
42.0159
 20
-5.6426
  0
VERTEX
  8
CAPA_1
 62
   253
 10
41.6643
 20
-5.8258
  0
SEQEND
  8
CAPA_1
 62
   253
  0
POLYLINE
  8
CAPA_1
 62
   253
 66
     1
 70
     1
  0
VERTEX
  8
CAPA_1
 62
   253
 10
41.734
 20
-5.6441
  0
VERTEX
  8
CAPA_1
 62
   253
 10
41.9418
 20
-5.5358
  0
VERTEX
  8
CAPA_1
 62
   253
 10
42.0836
 20
-5.4392
  0
VERTEX
  8
CAPA_1
 62
   253
 10
42.1446
 20
-5.343
  0
VERTEX
  8
CAPA_1
 62
   253
 10
42.1513
 20
-5.1823
  0
VERTEX
  8
CAPA_1
 62
   253
 10
42.079
 20
-4.9808
  0
VERTEX
  8
CAPA_1
 62
   253
 10
41.9062
 20
-4.7715
  0
VERTEX
  8
CAPA_1
 62
   253
 10
41.7269
 20
-4.7248
  0
VERTEX
  8
CAPA_1
 62
   253
 10
41.5497
 20
-4.7916
  0
VERTEX
  8
CAPA_1
 62
   253
 10
41.3453
 20
-4.8981
  0
VERTEX
  8
CAPA_1
 62
   253
 10
41.734
 20
-5.6441
  0
SEQEND
  8
CAPA_1
 62
   253
  0
POLYLINE
  8
CAPA_1
 62
   253
 66
     1
 70
     1
  0
VERTEX
  8
CAPA_1
 62
   253
 10
42.4323
 20
-5.0536
  0
VERTEX
  8
CAPA_1
 62
   253
 10
42.3699
 20
-4.9337
  0
VERTEX
  8
CAPA_1
 62
   253
 10
42.7401
 20
-4.7408
  0
VERTEX
  8
CAPA_1
 62
   253
 10
42.8025
 20
-4.8606
  0
VERTEX
  8
CAPA_1
 62
   253
 10
42.4323
 20
-5.0536
  0
SEQEND
  8
CAPA_1
 62
   253
  0
POLYLINE
  8
CAPA_1
 62
   253
 66
     1
 70
     1
  0
VERTEX
  8
CAPA_1
 62
   253
 10
41.8905
 20
-7.3207
  0
VERTEX
  8
CAPA_1
 62
   253
 10
42.0059
 20
-7.2467
  0
VERTEX
  8
CAPA_1
 62
   253
 10
42.109
 20
-7.3464
  0
VERTEX
  8
CAPA_1
 62
   253
 10
42.2467
 20
-7.3716
  0
VERTEX
  8
CAPA_1
 62
   253
 10
42.4114
 20
-7.3227
  0
VERTEX
  8
CAPA_1
 62
   253
 10
42.5301
 20
-7.2329
  0
VERTEX
  8
CAPA_1
 62
   253
 10
42.5825
 20
-7.1286
  0
VERTEX
  8
CAPA_1
 62
   253
 10
42.5667
 20
-7.0306
  0
VERTEX
  8
CAPA_1
 62
   253
 10
42.4986
 20
-6.9646
  0
VERTEX
  8
CAPA_1
 62
   253
 10
42.3809
 20
-6.953
  0
VERTEX
  8
CAPA_1
 62
   253
 10
42.1826
 20
-6.996
  0
VERTEX
  8
CAPA_1
 62
   253
 10
41.9628
 20
-7.0332
  0
VERTEX
  8
CAPA_1
 62
   253
 10
41.8118
 20
-6.9963
  0
VERTEX
  8
CAPA_1
 62
   253
 10
41.7142
 20
-6.8928
  0
VERTEX
  8
CAPA_1
 62
   253
 10
41.6842
 20
-6.7327
  0
VERTEX
  8
CAPA_1
 62
   253
 10
41.7557
 20
-6.5714
  0
VERTEX
  8
CAPA_1
 62
   253
 10
41.917
 20
-6.445
  0
VERTEX
  8
CAPA_1
 62
   253
 10
42.1262
 20
-6.3804
  0
VERTEX
  8
CAPA_1
 62
   253
 10
42.3071
 20
-6.4168
  0
VERTEX
  8
CAPA_1
 62
   253
 10
42.435
 20
-6.5455
  0
VERTEX
  8
CAPA_1
 62
   253
 10
42.3161
 20
-6.6195
  0
VERTEX
  8
CAPA_1
 62
   253
 10
42.1761
 20
-6.5153
  0
VERTEX
  8
CAPA_1
 62
   253
 10
41.9816
 20
-6.5566
  0
VERTEX
  8
CAPA_1
 62
   253
 10
41.8334
 20
-6.6885
  0
VERTEX
  8
CAPA_1
 62
   253
 10
41.8337
 20
-6.8198
  0
VERTEX
  8
CAPA_1
 62
   253
 10
41.9166
 20
-6.8865
  0
VERTEX
  8
CAPA_1
 62
   253
 10
42.1473
 20
-6.8546
  0
VERTEX
  8
CAPA_1
 62
   253
 10
42.3954
 20
-6.8043
  0
VERTEX
  8
CAPA_1
 62
   253
 10
42.5725
 20
-6.8381
  0
VERTEX
  8
CAPA_1
 62
   253
 10
42.6849
 20
-6.9552
  0
VERTEX
  8
CAPA_1
 62
   253
 10
42.7166
 20
-7.1248
  0
VERTEX
  8
CAPA_1
 62
   253
 10
42.6446
 20
-7.2981
  0
VERTEX
  8
CAPA_1
 62
   253
 10
42.4768
 20
-7.434
  0
VERTEX
  8
CAPA_1
 62
   253
 10
42.2355
 20
-7.5107
  0
VERTEX
  8
CAPA_1
 62
   253
 10
42.0352
 20
-7.4677
  0
VERTEX
  8
CAPA_1
 62
   253
 10
41.8905
 20
-7.3207
  0
SEQEND
  8
CAPA_1
 62
   253
  0
POLYLINE
  8
CAPA_1
 62
   253
 66
     1
 70
     1
  0
VERTEX
  8
CAPA_1
 62
   253
 10
42.8214
 20
-6.9049
  0
VERTEX
  8
CAPA_1
 62
   253
 10
42.9326
 20
-6.8262
  0
VERTEX
  8
CAPA_1
 62
   253
 10
43.079
 20
-6.9367
  0
VERTEX
  8
CAPA_1
 62
   253
 10
43.2236
 20
-6.9186
  0
VERTEX
  8
CAPA_1
 62
   253
 10
43.3363
 20
-6.7854
  0
VERTEX
  8
CAPA_1
 62
   253
 10
43.3186
 20
-6.6103
  0
VERTEX
  8
CAPA_1
 62
   253
 10
43.1936
 20
-6.5023
  0
VERTEX
  8
CAPA_1
 62
   253
 10
43.0287
 20
-6.5201
  0
VERTEX
  8
CAPA_1
 62
   253
 10
42.9511
 20
-6.5776
  0
VERTEX
  8
CAPA_1
 62
   253
 10
42.9099
 20
-6.4658
  0
VERTEX
  8
CAPA_1
 62
   253
 10
42.9298
 20
-6.4572
  0
VERTEX
  8
CAPA_1
 62
   253
 10
43.0472
 20
-6.3453
  0
VERTEX
  8
CAPA_1
 62
   253
 10
43.0446
 20
-6.1908
  0
VERTEX
  8
CAPA_1
 62
   253
 10
42.9432
 20
-6.1052
  0
VERTEX
  8
CAPA_1
 62
   253
 10
42.8057
 20
-6.122
  0
VERTEX
  8
CAPA_1
 62
   253
 10
42.7121
 20
-6.227
  0
VERTEX
  8
CAPA_1
 62
   253
 10
42.7215
 20
-6.391
  0
VERTEX
  8
CAPA_1
 62
   253
 10
42.5903
 20
-6.4316
  0
VERTEX
  8
CAPA_1
 62
   253
 10
42.5926
 20
-6.1927
  0
VERTEX
  8
CAPA_1
 62
   253
 10
42.7517
 20
-6.0255
  0
VERTEX
  8
CAPA_1
 62
   253
 10
42.9163
 20
-5.9833
  0
VERTEX
  8
CAPA_1
 62
   253
 10
43.0675
 20
-6.0228
  0
VERTEX
  8
CAPA_1
 62
   253
 10
43.1685
 20
-6.1297
  0
VERTEX
  8
CAPA_1
 62
   253
 10
43.1944
 20
-6.2619
  0
VERTEX
  8
CAPA_1
 62
   253
 10
43.1369
 20
-6.3966
  0
VERTEX
  8
CAPA_1
 62
   253
 10
43.3143
 20
-6.4094
  0
VERTEX
  8
CAPA_1
 62
   253
 10
43.4438
 20
-6.5418
  0
VERTEX
  8
CAPA_1
 62
   253
 10
43.4637
 20
-6.807
  0
VERTEX
  8
CAPA_1
 62
   253
 10
43.2745
 20
-7.0183
  0
VERTEX
  8
CAPA_1
 62
   253
 10
43.0215
 20
-7.0527
  0
VERTEX
  8
CAPA_1
 62
   253
 10
42.8214
 20
-6.9049
  0
SEQEND
  8
CAPA_1
 62
   253
  0
POLYLINE
  8
CAPA_1
 62
   253
 66
     1
 70
     1
  0
VERTEX
  8
CAPA_1
 62
   253
 10
42.7494
 20
-9.0212
  0
VERTEX
  8
CAPA_1
 62
   253
 10
42.8648
 20
-8.9471
  0
VERTEX
  8
CAPA_1
 62
   253
 10
42.9679
 20
-9.0469
  0
VERTEX
  8
CAPA_1
 62
   253
 10
43.1056
 20
-9.072
  0
VERTEX
  8
CAPA_1
 62
   253
 10
43.2702
 20
-9.0232
  0
VERTEX
  8
CAPA_1
 62
   253
 10
43.389
 20
-8.9333
  0
VERTEX
  8
CAPA_1
 62
   253
 10
43.4414
 20
-8.829
  0
VERTEX
  8
CAPA_1
 62
   253
 10
43.4255
 20
-8.7311
  0
VERTEX
  8
CAPA_1
 62
   253
 10
43.3574
 20
-8.6651
  0
VERTEX
  8
CAPA_1
 62
   253
 10
43.2397
 20
-8.6534
  0
VERTEX
  8
CAPA_1
 62
   253
 10
43.0414
 20
-8.6964
  0
VERTEX
  8
CAPA_1
 62
   253
 10
42.8217
 20
-8.7336
  0
VERTEX
  8
CAPA_1
 62
   253
 10
42.6706
 20
-8.6967
  0
VERTEX
  8
CAPA_1
 62
   253
 10
42.573
 20
-8.5932
  0
VERTEX
  8
CAPA_1
 62
   253
 10
42.5431
 20
-8.4331
  0
VERTEX
  8
CAPA_1
 62
   253
 10
42.6145
 20
-8.2719
  0
VERTEX
  8
CAPA_1
 62
   253
 10
42.7758
 20
-8.1454
  0
VERTEX
  8
CAPA_1
 62
   253
 10
42.9851
 20
-8.0808
  0
VERTEX
  8
CAPA_1
 62
   253
 10
43.166
 20
-8.1172
  0
VERTEX
  8
CAPA_1
 62
   253
 10
43.2938
 20
-8.2459
  0
VERTEX
  8
CAPA_1
 62
   253
 10
43.175
 20
-8.3199
  0
VERTEX
  8
CAPA_1
 62
   253
 10
43.035
 20
-8.2157
  0
VERTEX
  8
CAPA_1
 62
   253
 10
42.8405
 20
-8.2571
  0
VERTEX
  8
CAPA_1
 62
   253
 10
42.6922
 20
-8.3889
  0
VERTEX
  8
CAPA_1
 62
   253
 10
42.6925
 20
-8.5202
  0
VERTEX
  8
CAPA_1
 62
   253
 10
42.7755
 20
-8.587
  0
VERTEX
  8
CAPA_1
 62
   253
 10
43.0061
 20
-8.5551
  0
VERTEX
  8
CAPA_1
 62
   253
 10
43.2543
 20
-8.5048
  0
VERTEX
  8
CAPA_1
 62
   253
 10
43.4313
 20
-8.5386
  0
VERTEX
  8
CAPA_1
 62
   253
 10
43.5438
 20
-8.6557
  0
VERTEX
  8
CAPA_1
 62
   253
 10
43.5755
 20
-8.8252
  0
VERTEX
  8
CAPA_1
 62
   253
 10
43.5034
 20
-8.9985
  0
VERTEX
  8
CAPA_1
 62
   253
 10
43.3357
 20
-9.1344
  0
VERTEX
  8
CAPA_1
 62
   253
 10
43.0944
 20
-9.2111
  0
VERTEX
  8
CAPA_1
 62
   253
 10
42.894
 20
-9.1681
  0
VERTEX
  8
CAPA_1
 62
   253
 10
42.7494
 20
-9.0212
  0
SEQEND
  8
CAPA_1
 62
   253
  0
POLYLINE
  8
CAPA_1
 62
   253
 66
     1
 70
     1
  0
VERTEX
  8
CAPA_1
 62
   253
 10
43.6816
 20
-8.608
  0
VERTEX
  8
CAPA_1
 62
   253
 10
43.8019
 20
-8.5333
  0
VERTEX
  8
CAPA_1
 62
   253
 10
43.938
 20
-8.6374
  0
VERTEX
  8
CAPA_1
 62
   253
 10
44.085
 20
-8.6194
  0
VERTEX
  8
CAPA_1
 62
   253
 10
44.1979
 20
-8.4778
  0
VERTEX
  8
CAPA_1
 62
   253
 10
44.167
 20
-8.2741
  0
VERTEX
  8
CAPA_1
 62
   253
 10
44.0261
 20
-8.1421
  0
VERTEX
  8
CAPA_1
 62
   253
 10
43.8448
 20
-8.1612
  0
VERTEX
  8
CAPA_1
 62
   253
 10
43.7543
 20
-8.2422
  0
VERTEX
  8
CAPA_1
 62
   253
 10
43.7177
 20
-8.3486
  0
VERTEX
  8
CAPA_1
 62
   253
 10
43.5963
 20
-8.3912
  0
VERTEX
  8
CAPA_1
 62
   253
 10
43.4291
 20
-7.8413
  0
VERTEX
  8
CAPA_1
 62
   253
 10
43.9124
 20
-7.5895
  0
VERTEX
  8
CAPA_1
 62
   253
 10
43.972
 20
-7.7039
  0
VERTEX
  8
CAPA_1
 62
   253
 10
43.5842
 20
-7.9059
  0
VERTEX
  8
CAPA_1
 62
   253
 10
43.6693
 20
-8.1959
  0
VERTEX
  8
CAPA_1
 62
   253
 10
43.8208
 20
-8.0387
  0
VERTEX
  8
CAPA_1
 62
   253
 10
44.0818
 20
-8.0153
  0
VERTEX
  8
CAPA_1
 62
   253
 10
44.2878
 20
-8.197
  0
VERTEX
  8
CAPA_1
 62
   253
 10
44.3301
 20
-8.4657
  0
VERTEX
  8
CAPA_1
 62
   253
 10
44.306
 20
-8.5441
  0
VERTEX
  8
CAPA_1
 62
   253
 10
44.2656
 20
-8.6122
  0
VERTEX
  8
CAPA_1
 62
   253
 10
44.2089
 20
-8.67
  0
VERTEX
  8
CAPA_1
 62
   253
 10
44.1361
 20
-8.7173
  0
VERTEX
  8
CAPA_1
 62
   253
 10
43.8806
 20
-8.7557
  0
VERTEX
  8
CAPA_1
 62
   253
 10
43.6816
 20
-8.608
  0
SEQEND
  8
CAPA_1
 62
   253
  0
ENDSEC
  0
EOF
