  0
SECTION
  2
HEADER
  9
$ACADVER
  1
AC1002
  9
$INSBASE
 10
0.0
 20
0.0
  9
$EXTMIN
 10
-136.6374
 20
-20.6187
  9
$EXTMAX
 10
60.9799
 20
41.7239
  9
$LIMMIN
 10
0.0
 20
0.0
  9
$LIMMAX
 10
12.0
 20
9.0
  9
$ORTHOMODE
 70
     0
  9
$REGENMODE
 70
     1
  9
$FILLMODE
 70
     1
  9
$QTEXTMODE
 70
     0
  9
$DRAGMODE
 70
     2
  9
$LTSCALE
 40
1.0
  9
$OSMODE
 70
    37
  9
$ATTMODE
 70
     1
  9
$TEXTSIZE
 40
0.2
  9
$TRACEWID
 40
0.05
  9
$TEXTSTYLE
  7
STANDARD
  9
$CLAYER
  8
0
  9
$CELTYPE
  6
BYLAYER
  9
$CECOLOR
 62
   256
  9
$DIMSCALE
 40
1.0
  9
$DIMASZ
 40
0.18
  9
$DIMEXO
 40
0.0625
  9
$DIMDLI
 40
0.38
  9
$DIMRND
 40
0.0
  9
$DIMDLE
 40
0.0
  9
$DIMEXE
 40
0.18
  9
$DIMTP
 40
0.0
  9
$DIMTM
 40
0.0
  9
$DIMTXT
 40
0.18
  9
$DIMCEN
 40
0.09
  9
$DIMTSZ
 40
0.0
  9
$DIMTOL
 70
     0
  9
$DIMLIM
 70
     0
  9
$DIMTIH
 70
     1
  9
$DIMTOH
 70
     1
  9
$DIMSE1
 70
     0
  9
$DIMSE2
 70
     0
  9
$DIMTAD
 70
     0
  9
$DIMZIN
 70
     0
  9
$DIMBLK
  1

  9
$LUNITS
 70
     2
  9
$LUPREC
 70
     4
  9
$SKETCHINC
 40
0.1
  9
$FILLETRAD
 40
0.5
  9
$AUNITS
 70
     0
  9
$AUPREC
 70
     0
  9
$MENU
  1
.
  9
$ELEVATION
 40
0.0
  9
$THICKNESS
 40
0.0
  9
$LIMCHECK
 70
     0
  9
$CHAMFERA
 40
0.5
  9
$CHAMFERB
 40
0.5
  9
$SKPOLY
 70
     0
  9
$TDCREATE
 40
2458414.771117998
  9
$TDUPDATE
 40
2458414.771117998
  9
$TDINDWG
 40
0.0000000116
  9
$TDUSRTIMER
 40
0.0000000116
  9
$USRTIMER
 70
     1
  9
$ANGBASE
 50
0.0
  9
$ANGDIR
 70
     0
  9
$PDMODE
 70
     0
  9
$PDSIZE
 40
0.0
  9
$PLINEWID
 40
0.0
  9
$COORDS
 70
     1
  9
$SURFTAB1
 70
     6
  9
$SURFTAB2
 70
     6
  9
$SURFTYPE
 70
     6
  9
$SURFU
 70
     6
  9
$SURFV
 70
     6
  9
$UCSNAME
  2

  9
$UCSORG
 10
0.0
 20
0.0
 30
0.0
  9
$UCSXDIR
 10
1.0
 20
0.0
 30
0.0
  9
$UCSYDIR
 10
0.0
 20
1.0
 30
0.0
  9
$USERI1
 70
     0
  9
$USERI2
 70
     0
  9
$USERI3
 70
     0
  9
$USERI4
 70
     0
  9
$USERI5
 70
     0
  9
$USERR1
 40
0.0
  9
$USERR2
 40
0.0
  9
$USERR3
 40
0.0
  9
$USERR4
 40
0.0
  9
$USERR5
 40
0.0
  0
ENDSEC
  0
SECTION
  2
TABLES
  0
TABLE
  2
LTYPE
 70
     1
  0
LTYPE
  2
CONTINUOUS
 70
     0
  3
Solid line
 72
    65
 73
     0
 40
0.0
  0
ENDTAB
  0
TABLE
  2
LAYER
 70
     2
  0
LAYER
  2
0
 70
     0
 62
     7
  6
CONTINUOUS
  0
LAYER
  2
CAPA_1
 70
     0
 62
     7
  6
CONTINUOUS
  0
ENDTAB
  0
TABLE
  2
STYLE
 70
     1
  0
STYLE
  2
STANDARD
 70
     0
 40
0.0
 41
1.0
 50
0.0
 71
     0
 42
0.2
  3
txt
  4

  0
ENDTAB
  0
TABLE
  2
VIEW
 70
     0
  0
ENDTAB
  0
ENDSEC
  0
SECTION
  2
BLOCKS
  0
ENDSEC
  0
SECTION
  2
ENTITIES
  0
POLYLINE
  8
CAPA_1
 62
   242
 66
     1
 70
     1
  0
VERTEX
  8
CAPA_1
 62
   242
 10
-123.5058
 20
32.6061
  0
VERTEX
  8
CAPA_1
 62
   242
 10
-62.5876
 20
32.5548
  0
VERTEX
  8
CAPA_1
 62
   242
 10
-16.8192
 20
32.5512
  0
VERTEX
  8
CAPA_1
 62
   242
 10
15.9655
 20
32.5828
  0
VERTEX
  8
CAPA_1
 62
   242
 10
37.9323
 20
32.6369
  0
VERTEX
  8
CAPA_1
 62
   242
 10
51.2472
 20
32.7009
  0
VERTEX
  8
CAPA_1
 62
   242
 10
58.0762
 20
32.7623
  0
VERTEX
  8
CAPA_1
 62
   242
 10
60.5853
 20
32.8083
  0
VERTEX
  8
CAPA_1
 62
   242
 10
60.9403
 20
32.8265
  0
VERTEX
  8
CAPA_1
 62
   242
 10
60.9799
 20
5.8563
  0
VERTEX
  8
CAPA_1
 62
   242
 10
-4.5512
 20
5.8695
  0
VERTEX
  8
CAPA_1
 62
   242
 10
-4.8013
 20
-20.6187
  0
VERTEX
  8
CAPA_1
 62
   242
 10
-122.0832
 20
-20.5349
  0
VERTEX
  8
CAPA_1
 62
   242
 10
-122.0859
 20
-19.8783
  0
VERTEX
  8
CAPA_1
 62
   242
 10
-123.7288
 20
-19.8812
  0
VERTEX
  8
CAPA_1
 62
   242
 10
-123.9447
 20
-4.9415
  0
VERTEX
  8
CAPA_1
 62
   242
 10
-113.9192
 20
-4.8924
  0
VERTEX
  8
CAPA_1
 62
   242
 10
-109.6576
 20
-3.9571
  0
VERTEX
  8
CAPA_1
 62
   242
 10
-106.5655
 20
-1.4782
  0
VERTEX
  8
CAPA_1
 62
   242
 10
-104.6714
 20
2.0339
  0
VERTEX
  8
CAPA_1
 62
   242
 10
-104.004
 20
6.0687
  0
VERTEX
  8
CAPA_1
 62
   242
 10
-104.5917
 20
10.116
  0
VERTEX
  8
CAPA_1
 62
   242
 10
-106.463
 20
13.6653
  0
VERTEX
  8
CAPA_1
 62
   242
 10
-109.6466
 20
16.2062
  0
VERTEX
  8
CAPA_1
 62
   242
 10
-114.1708
 20
17.2284
  0
VERTEX
  8
CAPA_1
 62
   242
 10
-123.6959
 20
17.1755
  0
VERTEX
  8
CAPA_1
 62
   242
 10
-126.8709
 20
17.1755
  0
VERTEX
  8
CAPA_1
 62
   242
 10
-134.3849
 20
29.9291
  0
VERTEX
  8
CAPA_1
 62
   242
 10
-133.5912
 20
30.5641
  0
VERTEX
  8
CAPA_1
 62
   242
 10
-136.0255
 20
34.7709
  0
VERTEX
  8
CAPA_1
 62
   242
 10
-136.6189
 20
36.4801
  0
VERTEX
  8
CAPA_1
 62
   242
 10
-136.4186
 20
38.1754
  0
VERTEX
  8
CAPA_1
 62
   242
 10
-135.5847
 20
39.699
  0
VERTEX
  8
CAPA_1
 62
   242
 10
-134.277
 20
40.8929
  0
VERTEX
  8
CAPA_1
 62
   242
 10
-132.6556
 20
41.5995
  0
VERTEX
  8
CAPA_1
 62
   242
 10
-130.8803
 20
41.6608
  0
VERTEX
  8
CAPA_1
 62
   242
 10
-129.1111
 20
40.9191
  0
VERTEX
  8
CAPA_1
 62
   242
 10
-127.5079
 20
39.2164
  0
VERTEX
  8
CAPA_1
 62
   242
 10
-127.8112
 20
39.7222
  0
VERTEX
  8
CAPA_1
 62
   242
 10
-123.5058
 20
32.6061
  0
SEQEND
  8
CAPA_1
 62
   242
  0
POLYLINE
  8
CAPA_1
 62
   242
 66
     1
 70
     1
  0
VERTEX
  8
CAPA_1
 62
   242
 10
20.4889
 20
24.8624
  0
VERTEX
  8
CAPA_1
 62
   242
 10
20.5201
 20
19.6268
  0
VERTEX
  8
CAPA_1
 62
   242
 10
20.5584
 20
19.5462
  0
VERTEX
  8
CAPA_1
 62
   242
 10
20.6583
 20
19.4854
  0
VERTEX
  8
CAPA_1
 62
   242
 10
20.7992
 20
19.4451
  0
VERTEX
  8
CAPA_1
 62
   242
 10
20.9607
 20
19.4264
  0
VERTEX
  8
CAPA_1
 62
   242
 10
21.1226
 20
19.4302
  0
VERTEX
  8
CAPA_1
 62
   242
 10
21.2645
 20
19.4574
  0
VERTEX
  8
CAPA_1
 62
   242
 10
21.3659
 20
19.5089
  0
VERTEX
  8
CAPA_1
 62
   242
 10
21.4064
 20
19.5857
  0
VERTEX
  8
CAPA_1
 62
   242
 10
21.3824
 20
25.1603
  0
VERTEX
  8
CAPA_1
 62
   242
 10
21.3406
 20
25.251
  0
VERTEX
  8
CAPA_1
 62
   242
 10
21.2372
 20
25.3175
  0
VERTEX
  8
CAPA_1
 62
   242
 10
21.0932
 20
25.3591
  0
VERTEX
  8
CAPA_1
 62
   242
 10
20.9293
 20
25.3751
  0
VERTEX
  8
CAPA_1
 62
   242
 10
20.7663
 20
25.3648
  0
VERTEX
  8
CAPA_1
 62
   242
 10
20.625
 20
25.3273
  0
VERTEX
  8
CAPA_1
 62
   242
 10
20.5263
 20
25.2621
  0
VERTEX
  8
CAPA_1
 62
   242
 10
20.491
 20
25.1683
  0
VERTEX
  8
CAPA_1
 62
   242
 10
20.4889
 20
24.8624
  0
SEQEND
  8
CAPA_1
 62
   242
  0
POLYLINE
  8
CAPA_1
 62
   242
 66
     1
 70
     1
  0
VERTEX
  8
CAPA_1
 62
   242
 10
58.7814
 20
24.8997
  0
VERTEX
  8
CAPA_1
 62
   242
 10
58.7617
 20
24.9866
  0
VERTEX
  8
CAPA_1
 62
   242
 10
58.7116
 20
25.0639
  0
VERTEX
  8
CAPA_1
 62
   242
 10
58.6337
 20
25.1309
  0
VERTEX
  8
CAPA_1
 62
   242
 10
58.531
 20
25.1866
  0
VERTEX
  8
CAPA_1
 62
   242
 10
58.4063
 20
25.2303
  0
VERTEX
  8
CAPA_1
 62
   242
 10
58.2624
 20
25.2612
  0
VERTEX
  8
CAPA_1
 62
   242
 10
58.1022
 20
25.2784
  0
VERTEX
  8
CAPA_1
 62
   242
 10
57.9285
 20
25.281
  0
VERTEX
  8
CAPA_1
 62
   242
 10
57.1386
 20
25.2667
  0
VERTEX
  8
CAPA_1
 62
   242
 10
56.2078
 20
25.2615
  0
VERTEX
  8
CAPA_1
 62
   242
 10
55.1808
 20
25.2632
  0
VERTEX
  8
CAPA_1
 62
   242
 10
54.1024
 20
25.2701
  0
VERTEX
  8
CAPA_1
 62
   242
 10
53.0173
 20
25.2801
  0
VERTEX
  8
CAPA_1
 62
   242
 10
51.9703
 20
25.2914
  0
VERTEX
  8
CAPA_1
 62
   242
 10
51.006
 20
25.3019
  0
VERTEX
  8
CAPA_1
 62
   242
 10
50.1692
 20
25.3098
  0
VERTEX
  8
CAPA_1
 62
   242
 10
49.9683
 20
25.3306
  0
VERTEX
  8
CAPA_1
 62
   242
 10
49.8031
 20
25.3976
  0
VERTEX
  8
CAPA_1
 62
   242
 10
49.671
 20
25.5103
  0
VERTEX
  8
CAPA_1
 62
   242
 10
49.5694
 20
25.668
  0
VERTEX
  8
CAPA_1
 62
   242
 10
49.4956
 20
25.8702
  0
VERTEX
  8
CAPA_1
 62
   242
 10
49.447
 20
26.1163
  0
VERTEX
  8
CAPA_1
 62
   242
 10
49.4209
 20
26.4056
  0
VERTEX
  8
CAPA_1
 62
   242
 10
49.4148
 20
26.7376
  0
VERTEX
  8
CAPA_1
 62
   242
 10
49.4136
 20
27.6022
  0
VERTEX
  8
CAPA_1
 62
   242
 10
49.4339
 20
28.193
  0
VERTEX
  8
CAPA_1
 62
   242
 10
49.4137
 20
28.3494
  0
VERTEX
  8
CAPA_1
 62
   242
 10
49.3607
 20
28.4705
  0
VERTEX
  8
CAPA_1
 62
   242
 10
49.2827
 20
28.5607
  0
VERTEX
  8
CAPA_1
 62
   242
 10
49.1874
 20
28.6247
  0
VERTEX
  8
CAPA_1
 62
   242
 10
49.0824
 20
28.6669
  0
VERTEX
  8
CAPA_1
 62
   242
 10
48.9756
 20
28.6917
  0
VERTEX
  8
CAPA_1
 62
   242
 10
48.8745
 20
28.7036
  0
VERTEX
  8
CAPA_1
 62
   242
 10
48.7869
 20
28.7071
  0
VERTEX
  8
CAPA_1
 62
   242
 10
44.6506
 20
28.7515
  0
VERTEX
  8
CAPA_1
 62
   242
 10
44.5704
 20
28.7363
  0
VERTEX
  8
CAPA_1
 62
   242
 10
44.5069
 20
28.6992
  0
VERTEX
  8
CAPA_1
 62
   242
 10
44.4582
 20
28.6418
  0
VERTEX
  8
CAPA_1
 62
   242
 10
44.4222
 20
28.5658
  0
VERTEX
  8
CAPA_1
 62
   242
 10
44.3803
 20
28.3643
  0
VERTEX
  8
CAPA_1
 62
   242
 10
44.3656
 20
28.108
  0
VERTEX
  8
CAPA_1
 62
   242
 10
44.3315
 20
27.826
  0
VERTEX
  8
CAPA_1
 62
   242
 10
44.251
 20
27.6059
  0
VERTEX
  8
CAPA_1
 62
   242
 10
44.135
 20
27.4407
  0
VERTEX
  8
CAPA_1
 62
   242
 10
43.9941
 20
27.3231
  0
VERTEX
  8
CAPA_1
 62
   242
 10
43.839
 20
27.246
  0
VERTEX
  8
CAPA_1
 62
   242
 10
43.6803
 20
27.2022
  0
VERTEX
  8
CAPA_1
 62
   242
 10
43.5288
 20
27.1845
  0
VERTEX
  8
CAPA_1
 62
   242
 10
43.3952
 20
27.1858
  0
VERTEX
  8
CAPA_1
 62
   242
 10
40.25
 20
27.1152
  0
VERTEX
  8
CAPA_1
 62
   242
 10
40.1598
 20
27.1096
  0
VERTEX
  8
CAPA_1
 62
   242
 10
40.0896
 20
27.0916
  0
VERTEX
  8
CAPA_1
 62
   242
 10
40.0371
 20
27.0548
  0
VERTEX
  8
CAPA_1
 62
   242
 10
40.0002
 20
26.9928
  0
VERTEX
  8
CAPA_1
 62
   242
 10
39.9768
 20
26.8992
  0
VERTEX
  8
CAPA_1
 62
   242
 10
39.9648
 20
26.7675
  0
VERTEX
  8
CAPA_1
 62
   242
 10
39.9619
 20
26.5915
  0
VERTEX
  8
CAPA_1
 62
   242
 10
39.966
 20
26.3646
  0
VERTEX
  8
CAPA_1
 62
   242
 10
39.9632
 20
26.2522
  0
VERTEX
  8
CAPA_1
 62
   242
 10
39.948
 20
26.1458
  0
VERTEX
  8
CAPA_1
 62
   242
 10
39.9197
 20
26.047
  0
VERTEX
  8
CAPA_1
 62
   242
 10
39.8775
 20
25.9576
  0
VERTEX
  8
CAPA_1
 62
   242
 10
39.8208
 20
25.8791
  0
VERTEX
  8
CAPA_1
 62
   242
 10
39.7488
 20
25.8133
  0
VERTEX
  8
CAPA_1
 62
   242
 10
39.6607
 20
25.7619
  0
VERTEX
  8
CAPA_1
 62
   242
 10
39.5558
 20
25.7264
  0
VERTEX
  8
CAPA_1
 62
   242
 10
33.8066
 20
24.5395
  0
VERTEX
  8
CAPA_1
 62
   242
 10
33.7405
 20
24.5181
  0
VERTEX
  8
CAPA_1
 62
   242
 10
33.6495
 20
24.4836
  0
VERTEX
  8
CAPA_1
 62
   242
 10
33.6059
 20
24.4609
  0
VERTEX
  8
CAPA_1
 62
   242
 10
33.5694
 20
24.4341
  0
VERTEX
  8
CAPA_1
 62
   242
 10
33.5446
 20
24.4031
  0
VERTEX
  8
CAPA_1
 62
   242
 10
33.5359
 20
24.3676
  0
VERTEX
  8
CAPA_1
 62
   242
 10
33.3259
 20
24.029
  0
VERTEX
  8
CAPA_1
 62
   242
 10
33.2889
 20
23.9644
  0
VERTEX
  8
CAPA_1
 62
   242
 10
33.242
 20
23.9103
  0
VERTEX
  8
CAPA_1
 62
   242
 10
33.1881
 20
23.8657
  0
VERTEX
  8
CAPA_1
 62
   242
 10
33.1303
 20
23.8295
  0
VERTEX
  8
CAPA_1
 62
   242
 10
33.0153
 20
23.7782
  0
VERTEX
  8
CAPA_1
 62
   242
 10
32.9212
 20
23.7484
  0
VERTEX
  8
CAPA_1
 62
   242
 10
27.5552
 20
23.6376
  0
VERTEX
  8
CAPA_1
 62
   242
 10
27.3933
 20
23.6184
  0
VERTEX
  8
CAPA_1
 62
   242
 10
27.2715
 20
23.5685
  0
VERTEX
  8
CAPA_1
 62
   242
 10
27.1844
 20
23.4862
  0
VERTEX
  8
CAPA_1
 62
   242
 10
27.1267
 20
23.37
  0
VERTEX
  8
CAPA_1
 62
   242
 10
27.093
 20
23.2181
  0
VERTEX
  8
CAPA_1
 62
   242
 10
27.078
 20
23.0291
  0
VERTEX
  8
CAPA_1
 62
   242
 10
27.0764
 20
22.8012
  0
VERTEX
  8
CAPA_1
 62
   242
 10
27.0828
 20
22.5328
  0
VERTEX
  8
CAPA_1
 62
   242
 10
27.0808
 20
22.2131
  0
VERTEX
  8
CAPA_1
 62
   242
 10
27.1032
 20
21.8552
  0
VERTEX
  8
CAPA_1
 62
   242
 10
27.1393
 20
21.6925
  0
VERTEX
  8
CAPA_1
 62
   242
 10
27.2005
 20
21.5572
  0
VERTEX
  8
CAPA_1
 62
   242
 10
27.2931
 20
21.4613
  0
VERTEX
  8
CAPA_1
 62
   242
 10
27.4233
 20
21.4172
  0
VERTEX
  8
CAPA_1
 62
   242
 10
32.9691
 20
21.4196
  0
VERTEX
  8
CAPA_1
 62
   242
 10
33.0952
 20
21.3964
  0
VERTEX
  8
CAPA_1
 62
   242
 10
33.2429
 20
21.3247
  0
VERTEX
  8
CAPA_1
 62
   242
 10
33.3125
 20
21.2719
  0
VERTEX
  8
CAPA_1
 62
   242
 10
33.3725
 20
21.2085
  0
VERTEX
  8
CAPA_1
 62
   242
 10
33.4181
 20
21.1349
  0
VERTEX
  8
CAPA_1
 62
   242
 10
33.4443
 20
21.0518
  0
VERTEX
  8
CAPA_1
 62
   242
 10
33.4755
 20
20.747
  0
VERTEX
  8
CAPA_1
 62
   242
 10
33.5104
 20
20.6623
  0
VERTEX
  8
CAPA_1
 62
   242
 10
33.588
 20
20.5738
  0
VERTEX
  8
CAPA_1
 62
   242
 10
33.6874
 20
20.499
  0
VERTEX
  8
CAPA_1
 62
   242
 10
33.7874
 20
20.4553
  0
VERTEX
  8
CAPA_1
 62
   242
 10
34.5576
 20
20.3082
  0
VERTEX
  8
CAPA_1
 62
   242
 10
35.2927
 20
20.1821
  0
VERTEX
  8
CAPA_1
 62
   242
 10
36.0044
 20
20.0699
  0
VERTEX
  8
CAPA_1
 62
   242
 10
36.7044
 20
19.9647
  0
VERTEX
  8
CAPA_1
 62
   242
 10
37.4044
 20
19.8595
  0
VERTEX
  8
CAPA_1
 62
   242
 10
38.1161
 20
19.7473
  0
VERTEX
  8
CAPA_1
 62
   242
 10
38.8512
 20
19.6212
  0
VERTEX
  8
CAPA_1
 62
   242
 10
39.6214
 20
19.4741
  0
VERTEX
  8
CAPA_1
 62
   242
 10
39.7249
 20
19.431
  0
VERTEX
  8
CAPA_1
 62
   242
 10
39.8087
 20
19.3558
  0
VERTEX
  8
CAPA_1
 62
   242
 10
39.8739
 20
19.2539
  0
VERTEX
  8
CAPA_1
 62
   242
 10
39.9219
 20
19.1309
  0
VERTEX
  8
CAPA_1
 62
   242
 10
39.954
 20
18.9922
  0
VERTEX
  8
CAPA_1
 62
   242
 10
39.9716
 20
18.8431
  0
VERTEX
  8
CAPA_1
 62
   242
 10
39.9759
 20
18.6891
  0
VERTEX
  8
CAPA_1
 62
   242
 10
39.9683
 20
18.5356
  0
VERTEX
  8
CAPA_1
 62
   242
 10
39.9711
 20
18.4268
  0
VERTEX
  8
CAPA_1
 62
   242
 10
39.9965
 20
18.308
  0
VERTEX
  8
CAPA_1
 62
   242
 10
40.0434
 20
18.1868
  0
VERTEX
  8
CAPA_1
 62
   242
 10
40.1109
 20
18.0707
  0
VERTEX
  8
CAPA_1
 62
   242
 10
40.1981
 20
17.9673
  0
VERTEX
  8
CAPA_1
 62
   242
 10
40.3038
 20
17.884
  0
VERTEX
  8
CAPA_1
 62
   242
 10
40.4272
 20
17.8285
  0
VERTEX
  8
CAPA_1
 62
   242
 10
40.5672
 20
17.8083
  0
VERTEX
  8
CAPA_1
 62
   242
 10
43.998
 20
17.8756
  0
VERTEX
  8
CAPA_1
 62
   242
 10
44.0921
 20
17.8737
  0
VERTEX
  8
CAPA_1
 62
   242
 10
44.174
 20
17.8592
  0
VERTEX
  8
CAPA_1
 62
   242
 10
44.244
 20
17.8187
  0
VERTEX
  8
CAPA_1
 62
   242
 10
44.3025
 20
17.7389
  0
VERTEX
  8
CAPA_1
 62
   242
 10
44.35
 20
17.6065
  0
VERTEX
  8
CAPA_1
 62
   242
 10
44.3867
 20
17.4081
  0
VERTEX
  8
CAPA_1
 62
   242
 10
44.413
 20
17.1303
  0
VERTEX
  8
CAPA_1
 62
   242
 10
44.4294
 20
16.7598
  0
VERTEX
  8
CAPA_1
 62
   242
 10
44.4433
 20
16.5173
  0
VERTEX
  8
CAPA_1
 62
   242
 10
44.4817
 20
16.3465
  0
VERTEX
  8
CAPA_1
 62
   242
 10
44.5159
 20
16.2871
  0
VERTEX
  8
CAPA_1
 62
   242
 10
44.563
 20
16.2445
  0
VERTEX
  8
CAPA_1
 62
   242
 10
44.6252
 20
16.2182
  0
VERTEX
  8
CAPA_1
 62
   242
 10
44.705
 20
16.208
  0
VERTEX
  8
CAPA_1
 62
   242
 10
48.8895
 20
16.2361
  0
VERTEX
  8
CAPA_1
 62
   242
 10
48.9787
 20
16.2439
  0
VERTEX
  8
CAPA_1
 62
   242
 10
49.0779
 20
16.2661
  0
VERTEX
  8
CAPA_1
 62
   242
 10
49.1803
 20
16.3028
  0
VERTEX
  8
CAPA_1
 62
   242
 10
49.2792
 20
16.3543
  0
VERTEX
  8
CAPA_1
 62
   242
 10
49.3679
 20
16.4204
  0
VERTEX
  8
CAPA_1
 62
   242
 10
49.4397
 20
16.5014
  0
VERTEX
  8
CAPA_1
 62
   242
 10
49.4879
 20
16.5973
  0
VERTEX
  8
CAPA_1
 62
   242
 10
49.5057
 20
16.7082
  0
VERTEX
  8
CAPA_1
 62
   242
 10
49.5129
 20
17.3818
  0
VERTEX
  8
CAPA_1
 62
   242
 10
49.5216
 20
18.2397
  0
VERTEX
  8
CAPA_1
 62
   242
 10
49.5211
 20
18.7782
  0
VERTEX
  8
CAPA_1
 62
   242
 10
49.5531
 20
19.2251
  0
VERTEX
  8
CAPA_1
 62
   242
 10
49.5969
 20
19.3991
  0
VERTEX
  8
CAPA_1
 62
   242
 10
49.6674
 20
19.5321
  0
VERTEX
  8
CAPA_1
 62
   242
 10
49.7711
 20
19.6181
  0
VERTEX
  8
CAPA_1
 62
   242
 10
49.914
 20
19.651
  0
VERTEX
  8
CAPA_1
 62
   242
 10
50.632
 20
19.6602
  0
VERTEX
  8
CAPA_1
 62
   242
 10
51.5402
 20
19.6626
  0
VERTEX
  8
CAPA_1
 62
   242
 10
52.5821
 20
19.6604
  0
VERTEX
  8
CAPA_1
 62
   242
 10
53.7012
 20
19.6553
  0
VERTEX
  8
CAPA_1
 62
   242
 10
54.8414
 20
19.6494
  0
VERTEX
  8
CAPA_1
 62
   242
 10
55.946
 20
19.6447
  0
VERTEX
  8
CAPA_1
 62
   242
 10
56.9589
 20
19.643
  0
VERTEX
  8
CAPA_1
 62
   242
 10
57.8235
 20
19.6464
  0
VERTEX
  8
CAPA_1
 62
   242
 10
58.017
 20
19.6531
  0
VERTEX
  8
CAPA_1
 62
   242
 10
58.2017
 20
19.6734
  0
VERTEX
  8
CAPA_1
 62
   242
 10
58.3723
 20
19.712
  0
VERTEX
  8
CAPA_1
 62
   242
 10
58.5233
 20
19.7741
  0
VERTEX
  8
CAPA_1
 62
   242
 10
58.6495
 20
19.8645
  0
VERTEX
  8
CAPA_1
 62
   242
 10
58.7455
 20
19.9882
  0
VERTEX
  8
CAPA_1
 62
   242
 10
58.806
 20
20.1502
  0
VERTEX
  8
CAPA_1
 62
   242
 10
58.8257
 20
20.3555
  0
VERTEX
  8
CAPA_1
 62
   242
 10
58.7814
 20
24.8997
  0
SEQEND
  8
CAPA_1
 62
   242
  0
POLYLINE
  8
CAPA_1
 62
   242
 66
     1
 70
     1
  0
VERTEX
  8
CAPA_1
 62
   242
 10
-132.2452
 20
38.8632
  0
VERTEX
  8
CAPA_1
 62
   242
 10
-131.9146
 20
38.8299
  0
VERTEX
  8
CAPA_1
 62
   242
 10
-131.6067
 20
38.7343
  0
VERTEX
  8
CAPA_1
 62
   242
 10
-131.328
 20
38.5831
  0
VERTEX
  8
CAPA_1
 62
   242
 10
-131.0853
 20
38.3828
  0
VERTEX
  8
CAPA_1
 62
   242
 10
-130.8849
 20
38.14
  0
VERTEX
  8
CAPA_1
 62
   242
 10
-130.7337
 20
37.8613
  0
VERTEX
  8
CAPA_1
 62
   242
 10
-130.6381
 20
37.5534
  0
VERTEX
  8
CAPA_1
 62
   242
 10
-130.6048
 20
37.2228
  0
VERTEX
  8
CAPA_1
 62
   242
 10
-130.6381
 20
36.8922
  0
VERTEX
  8
CAPA_1
 62
   242
 10
-130.7337
 20
36.5843
  0
VERTEX
  8
CAPA_1
 62
   242
 10
-130.8849
 20
36.3056
  0
VERTEX
  8
CAPA_1
 62
   242
 10
-131.0853
 20
36.0629
  0
VERTEX
  8
CAPA_1
 62
   242
 10
-131.328
 20
35.8625
  0
VERTEX
  8
CAPA_1
 62
   242
 10
-131.6067
 20
35.7113
  0
VERTEX
  8
CAPA_1
 62
   242
 10
-131.9146
 20
35.6157
  0
VERTEX
  8
CAPA_1
 62
   242
 10
-132.2452
 20
35.5824
  0
VERTEX
  8
CAPA_1
 62
   242
 10
-132.5758
 20
35.6157
  0
VERTEX
  8
CAPA_1
 62
   242
 10
-132.8837
 20
35.7113
  0
VERTEX
  8
CAPA_1
 62
   242
 10
-133.1624
 20
35.8625
  0
VERTEX
  8
CAPA_1
 62
   242
 10
-133.4052
 20
36.0629
  0
VERTEX
  8
CAPA_1
 62
   242
 10
-133.6055
 20
36.3056
  0
VERTEX
  8
CAPA_1
 62
   242
 10
-133.7567
 20
36.5843
  0
VERTEX
  8
CAPA_1
 62
   242
 10
-133.8523
 20
36.8922
  0
VERTEX
  8
CAPA_1
 62
   242
 10
-133.8856
 20
37.2228
  0
VERTEX
  8
CAPA_1
 62
   242
 10
-133.8523
 20
37.5534
  0
VERTEX
  8
CAPA_1
 62
   242
 10
-133.7567
 20
37.8613
  0
VERTEX
  8
CAPA_1
 62
   242
 10
-133.6055
 20
38.14
  0
VERTEX
  8
CAPA_1
 62
   242
 10
-133.4052
 20
38.3828
  0
VERTEX
  8
CAPA_1
 62
   242
 10
-133.1624
 20
38.5831
  0
VERTEX
  8
CAPA_1
 62
   242
 10
-132.8837
 20
38.7343
  0
VERTEX
  8
CAPA_1
 62
   242
 10
-132.5758
 20
38.8299
  0
VERTEX
  8
CAPA_1
 62
   242
 10
-132.2452
 20
38.8632
  0
SEQEND
  8
CAPA_1
 62
   242
  0
POLYLINE
  8
CAPA_1
 62
   242
 66
     1
 70
     1
  0
VERTEX
  8
CAPA_1
 62
   242
 10
-18.4264
 20
6.0433
  0
VERTEX
  8
CAPA_1
 62
   242
 10
-18.8879
 20
1.5176
  0
VERTEX
  8
CAPA_1
 62
   242
 10
-20.2637
 20
-2.6446
  0
VERTEX
  8
CAPA_1
 62
   242
 10
-22.4418
 20
-6.3657
  0
VERTEX
  8
CAPA_1
 62
   242
 10
-25.3099
 20
-9.5683
  0
VERTEX
  8
CAPA_1
 62
   242
 10
-28.7559
 20
-12.1747
  0
VERTEX
  8
CAPA_1
 62
   242
 10
-32.6675
 20
-14.1074
  0
VERTEX
  8
CAPA_1
 62
   242
 10
-36.9326
 20
-15.2889
  0
VERTEX
  8
CAPA_1
 62
   242
 10
-41.439
 20
-15.6417
  0
VERTEX
  8
CAPA_1
 62
   242
 10
-44.3489
 20
-15.4654
  0
VERTEX
  8
CAPA_1
 62
   242
 10
-46.8889
 20
-15.0877
  0
VERTEX
  8
CAPA_1
 62
   242
 10
-49.0856
 20
-14.5576
  0
VERTEX
  8
CAPA_1
 62
   242
 10
-50.9658
 20
-13.9244
  0
VERTEX
  8
CAPA_1
 62
   242
 10
-52.5563
 20
-13.2372
  0
VERTEX
  8
CAPA_1
 62
   242
 10
-53.8837
 20
-12.5453
  0
VERTEX
  8
CAPA_1
 62
   242
 10
-54.9747
 20
-11.8978
  0
VERTEX
  8
CAPA_1
 62
   242
 10
-55.8561
 20
-11.344
  0
VERTEX
  8
CAPA_1
 62
   242
 10
-56.179
 20
-11.1317
  0
VERTEX
  8
CAPA_1
 62
   242
 10
-56.4972
 20
-10.9052
  0
VERTEX
  8
CAPA_1
 62
   242
 10
-56.7988
 20
-10.6775
  0
VERTEX
  8
CAPA_1
 62
   242
 10
-57.072
 20
-10.4617
  0
VERTEX
  8
CAPA_1
 62
   242
 10
-57.4861
 20
-10.1186
  0
VERTEX
  8
CAPA_1
 62
   242
 10
-57.6451
 20
-9.9809
  0
VERTEX
  8
CAPA_1
 62
   242
 10
-58.3307
 20
-7.6324
  0
VERTEX
  8
CAPA_1
 62
   242
 10
-59.2473
 20
-5.3876
  0
VERTEX
  8
CAPA_1
 62
   242
 10
-60.335
 20
-3.2659
  0
VERTEX
  8
CAPA_1
 62
   242
 10
-61.5343
 20
-1.2869
  0
VERTEX
  8
CAPA_1
 62
   242
 10
-62.7852
 20
0.5302
  0
VERTEX
  8
CAPA_1
 62
   242
 10
-64.0281
 20
2.166
  0
VERTEX
  8
CAPA_1
 62
   242
 10
-65.2031
 20
3.6008
  0
VERTEX
  8
CAPA_1
 62
   242
 10
-66.2506
 20
4.8155
  0
VERTEX
  8
CAPA_1
 62
   242
 10
-67.0332
 20
5.072
  0
VERTEX
  8
CAPA_1
 62
   242
 10
-67.712
 20
5.1194
  0
VERTEX
  8
CAPA_1
 62
   242
 10
-68.2865
 20
5.0332
  0
VERTEX
  8
CAPA_1
 62
   242
 10
-68.7563
 20
4.889
  0
VERTEX
  8
CAPA_1
 62
   242
 10
-69.1209
 20
4.7626
  0
VERTEX
  8
CAPA_1
 62
   242
 10
-69.3799
 20
4.7296
  0
VERTEX
  8
CAPA_1
 62
   242
 10
-69.5328
 20
4.8656
  0
VERTEX
  8
CAPA_1
 62
   242
 10
-69.5793
 20
5.2462
  0
VERTEX
  8
CAPA_1
 62
   242
 10
-69.5793
 20
6.0948
  0
VERTEX
  8
CAPA_1
 62
   242
 10
-69.5793
 20
6.2201
  0
VERTEX
  8
CAPA_1
 62
   242
 10
-69.5793
 20
6.2201
  0
VERTEX
  8
CAPA_1
 62
   242
 10
-69.5793
 20
6.9777
  0
VERTEX
  8
CAPA_1
 62
   242
 10
-69.5158
 20
7.4633
  0
VERTEX
  8
CAPA_1
 62
   242
 10
-69.3144
 20
7.6641
  0
VERTEX
  8
CAPA_1
 62
   242
 10
-68.9983
 20
7.6617
  0
VERTEX
  8
CAPA_1
 62
   242
 10
-68.5908
 20
7.5379
  0
VERTEX
  8
CAPA_1
 62
   242
 10
-68.1149
 20
7.3742
  0
VERTEX
  8
CAPA_1
 62
   242
 10
-67.5939
 20
7.2523
  0
VERTEX
  8
CAPA_1
 62
   242
 10
-67.0508
 20
7.254
  0
VERTEX
  8
CAPA_1
 62
   242
 10
-66.5089
 20
7.4609
  0
VERTEX
  8
CAPA_1
 62
   242
 10
-65.3412
 20
8.6122
  0
VERTEX
  8
CAPA_1
 62
   242
 10
-64.0857
 20
10.0625
  0
VERTEX
  8
CAPA_1
 62
   242
 10
-62.7948
 20
11.7707
  0
VERTEX
  8
CAPA_1
 62
   242
 10
-61.521
 20
13.6958
  0
VERTEX
  8
CAPA_1
 62
   242
 10
-60.3166
 20
15.7965
  0
VERTEX
  8
CAPA_1
 62
   242
 10
-59.2342
 20
18.0319
  0
VERTEX
  8
CAPA_1
 62
   242
 10
-58.3262
 20
20.3608
  0
VERTEX
  8
CAPA_1
 62
   242
 10
-57.6451
 20
22.7422
  0
VERTEX
  8
CAPA_1
 62
   242
 10
-57.4861
 20
22.8799
  0
VERTEX
  8
CAPA_1
 62
   242
 10
-57.072
 20
23.223
  0
VERTEX
  8
CAPA_1
 62
   242
 10
-56.7988
 20
23.4388
  0
VERTEX
  8
CAPA_1
 62
   242
 10
-56.4972
 20
23.6665
  0
VERTEX
  8
CAPA_1
 62
   242
 10
-56.179
 20
23.893
  0
VERTEX
  8
CAPA_1
 62
   242
 10
-55.8561
 20
24.1053
  0
VERTEX
  8
CAPA_1
 62
   242
 10
-54.9747
 20
24.6591
  0
VERTEX
  8
CAPA_1
 62
   242
 10
-53.8837
 20
25.3066
  0
VERTEX
  8
CAPA_1
 62
   242
 10
-52.5563
 20
25.9985
  0
VERTEX
  8
CAPA_1
 62
   242
 10
-50.9658
 20
26.6857
  0
VERTEX
  8
CAPA_1
 62
   242
 10
-49.0856
 20
27.3189
  0
VERTEX
  8
CAPA_1
 62
   242
 10
-46.8889
 20
27.849
  0
VERTEX
  8
CAPA_1
 62
   242
 10
-44.3489
 20
28.2267
  0
VERTEX
  8
CAPA_1
 62
   242
 10
-41.439
 20
28.403
  0
VERTEX
  8
CAPA_1
 62
   242
 10
-36.9326
 20
28.0502
  0
VERTEX
  8
CAPA_1
 62
   242
 10
-32.6675
 20
26.8687
  0
VERTEX
  8
CAPA_1
 62
   242
 10
-28.7559
 20
24.936
  0
VERTEX
  8
CAPA_1
 62
   242
 10
-25.3099
 20
22.3296
  0
VERTEX
  8
CAPA_1
 62
   242
 10
-22.4418
 20
19.127
  0
VERTEX
  8
CAPA_1
 62
   242
 10
-20.2637
 20
15.4059
  0
VERTEX
  8
CAPA_1
 62
   242
 10
-18.8879
 20
11.2437
  0
VERTEX
  8
CAPA_1
 62
   242
 10
-18.4264
 20
6.718
  0
VERTEX
  8
CAPA_1
 62
   242
 10
-18.4264
 20
6.0433
  0
SEQEND
  8
CAPA_1
 62
   242
  0
ENDSEC
  0
EOF
