  0
SECTION
  2
HEADER
  9
$ACADVER
  1
AC1002
  9
$INSBASE
 10
0.0
 20
0.0
  9
$EXTMIN
 10
-100.1084
 20
35.0509
  9
$EXTMAX
 10
99.5453
 20
96.8605
  9
$LIMMIN
 10
0.0
 20
0.0
  9
$LIMMAX
 10
12.0
 20
9.0
  9
$ORTHOMODE
 70
     0
  9
$REGENMODE
 70
     1
  9
$FILLMODE
 70
     1
  9
$QTEXTMODE
 70
     0
  9
$DRAGMODE
 70
     2
  9
$LTSCALE
 40
1.0
  9
$OSMODE
 70
    37
  9
$ATTMODE
 70
     1
  9
$TEXTSIZE
 40
0.2
  9
$TRACEWID
 40
0.05
  9
$TEXTSTYLE
  7
STANDARD
  9
$CLAYER
  8
0
  9
$CELTYPE
  6
BYLAYER
  9
$CECOLOR
 62
   256
  9
$DIMSCALE
 40
1.0
  9
$DIMASZ
 40
0.18
  9
$DIMEXO
 40
0.0625
  9
$DIMDLI
 40
0.38
  9
$DIMRND
 40
0.0
  9
$DIMDLE
 40
0.0
  9
$DIMEXE
 40
0.18
  9
$DIMTP
 40
0.0
  9
$DIMTM
 40
0.0
  9
$DIMTXT
 40
0.18
  9
$DIMCEN
 40
0.09
  9
$DIMTSZ
 40
0.0
  9
$DIMTOL
 70
     0
  9
$DIMLIM
 70
     0
  9
$DIMTIH
 70
     1
  9
$DIMTOH
 70
     1
  9
$DIMSE1
 70
     0
  9
$DIMSE2
 70
     0
  9
$DIMTAD
 70
     0
  9
$DIMZIN
 70
     0
  9
$DIMBLK
  1

  9
$LUNITS
 70
     2
  9
$LUPREC
 70
     4
  9
$SKETCHINC
 40
0.1
  9
$FILLETRAD
 40
0.5
  9
$AUNITS
 70
     0
  9
$AUPREC
 70
     0
  9
$MENU
  1
.
  9
$ELEVATION
 40
0.0
  9
$THICKNESS
 40
0.0
  9
$LIMCHECK
 70
     0
  9
$CHAMFERA
 40
0.5
  9
$CHAMFERB
 40
0.5
  9
$SKPOLY
 70
     0
  9
$TDCREATE
 40
2458414.770900162
  9
$TDUPDATE
 40
2458414.770900162
  9
$TDINDWG
 40
0.0000000116
  9
$TDUSRTIMER
 40
0.0000000116
  9
$USRTIMER
 70
     1
  9
$ANGBASE
 50
0.0
  9
$ANGDIR
 70
     0
  9
$PDMODE
 70
     0
  9
$PDSIZE
 40
0.0
  9
$PLINEWID
 40
0.0
  9
$COORDS
 70
     1
  9
$SURFTAB1
 70
     6
  9
$SURFTAB2
 70
     6
  9
$SURFTYPE
 70
     6
  9
$SURFU
 70
     6
  9
$SURFV
 70
     6
  9
$UCSNAME
  2

  9
$UCSORG
 10
0.0
 20
0.0
 30
0.0
  9
$UCSXDIR
 10
1.0
 20
0.0
 30
0.0
  9
$UCSYDIR
 10
0.0
 20
1.0
 30
0.0
  9
$USERI1
 70
     0
  9
$USERI2
 70
     0
  9
$USERI3
 70
     0
  9
$USERI4
 70
     0
  9
$USERI5
 70
     0
  9
$USERR1
 40
0.0
  9
$USERR2
 40
0.0
  9
$USERR3
 40
0.0
  9
$USERR4
 40
0.0
  9
$USERR5
 40
0.0
  0
ENDSEC
  0
SECTION
  2
TABLES
  0
TABLE
  2
LTYPE
 70
     1
  0
LTYPE
  2
CONTINUOUS
 70
     0
  3
Solid line
 72
    65
 73
     0
 40
0.0
  0
ENDTAB
  0
TABLE
  2
LAYER
 70
     2
  0
LAYER
  2
0
 70
     0
 62
     7
  6
CONTINUOUS
  0
LAYER
  2
CAPA_1
 70
     0
 62
     7
  6
CONTINUOUS
  0
ENDTAB
  0
TABLE
  2
STYLE
 70
     1
  0
STYLE
  2
STANDARD
 70
     0
 40
0.0
 41
1.0
 50
0.0
 71
     0
 42
0.2
  3
txt
  4

  0
ENDTAB
  0
TABLE
  2
VIEW
 70
     0
  0
ENDTAB
  0
ENDSEC
  0
SECTION
  2
BLOCKS
  0
ENDSEC
  0
SECTION
  2
ENTITIES
  0
POLYLINE
  8
CAPA_1
 62
     2
 66
     1
 70
     1
  0
VERTEX
  8
CAPA_1
 62
     2
 10
-87.2173
 20
86.3494
  0
VERTEX
  8
CAPA_1
 62
     2
 10
-87.1997
 20
96.7245
  0
VERTEX
  8
CAPA_1
 62
     2
 10
99.5453
 20
96.8605
  0
VERTEX
  8
CAPA_1
 62
     2
 10
99.5344
 20
69.7405
  0
VERTEX
  8
CAPA_1
 62
     2
 10
32.4058
 20
69.7493
  0
VERTEX
  8
CAPA_1
 62
     2
 10
32.3256
 20
43.5787
  0
VERTEX
  8
CAPA_1
 62
     2
 10
-89.9566
 20
43.6083
  0
VERTEX
  8
CAPA_1
 62
     2
 10
-89.9672
 20
39.9927
  0
VERTEX
  8
CAPA_1
 62
     2
 10
-90.3802
 20
37.8297
  0
VERTEX
  8
CAPA_1
 62
     2
 10
-91.4894
 20
36.285
  0
VERTEX
  8
CAPA_1
 62
     2
 10
-93.0626
 20
35.3587
  0
VERTEX
  8
CAPA_1
 62
     2
 10
-94.868
 20
35.051
  0
VERTEX
  8
CAPA_1
 62
     2
 10
-96.6733
 20
35.3619
  0
VERTEX
  8
CAPA_1
 62
     2
 10
-98.2466
 20
36.2917
  0
VERTEX
  8
CAPA_1
 62
     2
 10
-99.3558
 20
37.8403
  0
VERTEX
  8
CAPA_1
 62
     2
 10
-99.7689
 20
40.0081
  0
VERTEX
  8
CAPA_1
 62
     2
 10
-99.7667
 20
42.0313
  0
VERTEX
  8
CAPA_1
 62
     2
 10
-100.0638
 20
42.0346
  0
VERTEX
  8
CAPA_1
 62
     2
 10
-100.1084
 20
54.3442
  0
VERTEX
  8
CAPA_1
 62
     2
 10
-73.7051
 20
60.3763
  0
VERTEX
  8
CAPA_1
 62
     2
 10
-71.4225
 20
61.7037
  0
VERTEX
  8
CAPA_1
 62
     2
 10
-69.7393
 20
63.0884
  0
VERTEX
  8
CAPA_1
 62
     2
 10
-68.5637
 20
64.4841
  0
VERTEX
  8
CAPA_1
 62
     2
 10
-67.8041
 20
65.8445
  0
VERTEX
  8
CAPA_1
 62
     2
 10
-67.3686
 20
67.1234
  0
VERTEX
  8
CAPA_1
 62
     2
 10
-67.1657
 20
68.2743
  0
VERTEX
  8
CAPA_1
 62
     2
 10
-67.1036
 20
69.251
  0
VERTEX
  8
CAPA_1
 62
     2
 10
-67.0905
 20
70.0072
  0
VERTEX
  8
CAPA_1
 62
     2
 10
-67.168
 20
71.1741
  0
VERTEX
  8
CAPA_1
 62
     2
 10
-67.3411
 20
72.4989
  0
VERTEX
  8
CAPA_1
 62
     2
 10
-67.6637
 20
73.9258
  0
VERTEX
  8
CAPA_1
 62
     2
 10
-68.1901
 20
75.3992
  0
VERTEX
  8
CAPA_1
 62
     2
 10
-68.9742
 20
76.8634
  0
VERTEX
  8
CAPA_1
 62
     2
 10
-70.0702
 20
78.2626
  0
VERTEX
  8
CAPA_1
 62
     2
 10
-71.5322
 20
79.5412
  0
VERTEX
  8
CAPA_1
 62
     2
 10
-73.4142
 20
80.6434
  0
VERTEX
  8
CAPA_1
 62
     2
 10
-87.2173
 20
86.3494
  0
SEQEND
  8
CAPA_1
 62
     2
  0
POLYLINE
  8
CAPA_1
 62
     2
 66
     1
 70
     1
  0
VERTEX
  8
CAPA_1
 62
     2
 10
-94.8599
 20
41.151
  0
VERTEX
  8
CAPA_1
 62
     2
 10
-94.5293
 20
41.1177
  0
VERTEX
  8
CAPA_1
 62
     2
 10
-94.2214
 20
41.0221
  0
VERTEX
  8
CAPA_1
 62
     2
 10
-93.9427
 20
40.8709
  0
VERTEX
  8
CAPA_1
 62
     2
 10
-93.7
 20
40.6706
  0
VERTEX
  8
CAPA_1
 62
     2
 10
-93.4996
 20
40.4278
  0
VERTEX
  8
CAPA_1
 62
     2
 10
-93.3484
 20
40.1491
  0
VERTEX
  8
CAPA_1
 62
     2
 10
-93.2528
 20
39.8412
  0
VERTEX
  8
CAPA_1
 62
     2
 10
-93.2195
 20
39.5106
  0
VERTEX
  8
CAPA_1
 62
     2
 10
-93.2528
 20
39.18
  0
VERTEX
  8
CAPA_1
 62
     2
 10
-93.3484
 20
38.8721
  0
VERTEX
  8
CAPA_1
 62
     2
 10
-93.4996
 20
38.5934
  0
VERTEX
  8
CAPA_1
 62
     2
 10
-93.7
 20
38.3507
  0
VERTEX
  8
CAPA_1
 62
     2
 10
-93.9427
 20
38.1503
  0
VERTEX
  8
CAPA_1
 62
     2
 10
-94.2214
 20
37.9991
  0
VERTEX
  8
CAPA_1
 62
     2
 10
-94.5293
 20
37.9035
  0
VERTEX
  8
CAPA_1
 62
     2
 10
-94.8599
 20
37.8702
  0
VERTEX
  8
CAPA_1
 62
     2
 10
-95.1905
 20
37.9035
  0
VERTEX
  8
CAPA_1
 62
     2
 10
-95.4984
 20
37.9991
  0
VERTEX
  8
CAPA_1
 62
     2
 10
-95.7771
 20
38.1503
  0
VERTEX
  8
CAPA_1
 62
     2
 10
-96.0199
 20
38.3507
  0
VERTEX
  8
CAPA_1
 62
     2
 10
-96.2202
 20
38.5934
  0
VERTEX
  8
CAPA_1
 62
     2
 10
-96.3714
 20
38.8721
  0
VERTEX
  8
CAPA_1
 62
     2
 10
-96.467
 20
39.18
  0
VERTEX
  8
CAPA_1
 62
     2
 10
-96.5003
 20
39.5106
  0
VERTEX
  8
CAPA_1
 62
     2
 10
-96.467
 20
39.8412
  0
VERTEX
  8
CAPA_1
 62
     2
 10
-96.3714
 20
40.1491
  0
VERTEX
  8
CAPA_1
 62
     2
 10
-96.2202
 20
40.4278
  0
VERTEX
  8
CAPA_1
 62
     2
 10
-96.0199
 20
40.6706
  0
VERTEX
  8
CAPA_1
 62
     2
 10
-95.7771
 20
40.8709
  0
VERTEX
  8
CAPA_1
 62
     2
 10
-95.4984
 20
41.0221
  0
VERTEX
  8
CAPA_1
 62
     2
 10
-95.1905
 20
41.1177
  0
VERTEX
  8
CAPA_1
 62
     2
 10
-94.8599
 20
41.151
  0
SEQEND
  8
CAPA_1
 62
     2
  0
POLYLINE
  8
CAPA_1
 62
     2
 66
     1
 70
     1
  0
VERTEX
  8
CAPA_1
 62
     2
 10
80.2994
 20
86.6897
  0
VERTEX
  8
CAPA_1
 62
     2
 10
80.3817
 20
86.6787
  0
VERTEX
  8
CAPA_1
 62
     2
 10
80.4428
 20
86.6504
  0
VERTEX
  8
CAPA_1
 62
     2
 10
80.4859
 20
86.6094
  0
VERTEX
  8
CAPA_1
 62
     2
 10
80.5141
 20
86.5601
  0
VERTEX
  8
CAPA_1
 62
     2
 10
80.5389
 20
86.4548
  0
VERTEX
  8
CAPA_1
 62
     2
 10
80.5427
 20
86.3704
  0
VERTEX
  8
CAPA_1
 62
     2
 10
80.5448
 20
86.2767
  0
VERTEX
  8
CAPA_1
 62
     2
 10
80.5341
 20
86.1508
  0
VERTEX
  8
CAPA_1
 62
     2
 10
80.5134
 20
86.0908
  0
VERTEX
  8
CAPA_1
 62
     2
 10
80.4769
 20
86.0406
  0
VERTEX
  8
CAPA_1
 62
     2
 10
80.4205
 20
86.0063
  0
VERTEX
  8
CAPA_1
 62
     2
 10
80.34
 20
85.9938
  0
VERTEX
  8
CAPA_1
 62
     2
 10
74.4441
 20
85.9866
  0
VERTEX
  8
CAPA_1
 62
     2
 10
74.352
 20
85.9851
  0
VERTEX
  8
CAPA_1
 62
     2
 10
74.2791
 20
85.9745
  0
VERTEX
  8
CAPA_1
 62
     2
 10
74.2222
 20
85.9546
  0
VERTEX
  8
CAPA_1
 62
     2
 10
74.1775
 20
85.9251
  0
VERTEX
  8
CAPA_1
 62
     2
 10
74.111
 20
85.8361
  0
VERTEX
  8
CAPA_1
 62
     2
 10
74.0517
 20
85.7054
  0
VERTEX
  8
CAPA_1
 62
     2
 10
73.9439
 20
85.6232
  0
VERTEX
  8
CAPA_1
 62
     2
 10
73.8616
 20
85.5939
  0
VERTEX
  8
CAPA_1
 62
     2
 10
73.7709
 20
85.59
  0
VERTEX
  8
CAPA_1
 62
     2
 10
73.6376
 20
85.5842
  0
VERTEX
  8
CAPA_1
 62
     2
 10
68.2836
 20
85.322
  0
VERTEX
  8
CAPA_1
 62
     2
 10
68.2239
 20
85.3132
  0
VERTEX
  8
CAPA_1
 62
     2
 10
68.1512
 20
85.2868
  0
VERTEX
  8
CAPA_1
 62
     2
 10
68.0716
 20
85.2465
  0
VERTEX
  8
CAPA_1
 62
     2
 10
67.9914
 20
85.196
  0
VERTEX
  8
CAPA_1
 62
     2
 10
67.9167
 20
85.1389
  0
VERTEX
  8
CAPA_1
 62
     2
 10
67.8539
 20
85.0791
  0
VERTEX
  8
CAPA_1
 62
     2
 10
67.8091
 20
85.0201
  0
VERTEX
  8
CAPA_1
 62
     2
 10
67.7885
 20
84.9658
  0
VERTEX
  8
CAPA_1
 62
     2
 10
67.7607
 20
84.6477
  0
VERTEX
  8
CAPA_1
 62
     2
 10
67.753
 20
84.5852
  0
VERTEX
  8
CAPA_1
 62
     2
 10
67.735
 20
84.5457
  0
VERTEX
  8
CAPA_1
 62
     2
 10
67.6953
 20
84.5198
  0
VERTEX
  8
CAPA_1
 62
     2
 10
67.6224
 20
84.4983
  0
VERTEX
  8
CAPA_1
 62
     2
 10
61.5255
 20
83.2575
  0
VERTEX
  8
CAPA_1
 62
     2
 10
61.4262
 20
83.2214
  0
VERTEX
  8
CAPA_1
 62
     2
 10
61.3533
 20
83.1658
  0
VERTEX
  8
CAPA_1
 62
     2
 10
61.3026
 20
83.0933
  0
VERTEX
  8
CAPA_1
 62
     2
 10
61.2701
 20
83.0068
  0
VERTEX
  8
CAPA_1
 62
     2
 10
61.2427
 20
82.803
  0
VERTEX
  8
CAPA_1
 62
     2
 10
61.2381
 20
82.5769
  0
VERTEX
  8
CAPA_1
 62
     2
 10
61.2353
 20
82.3012
  0
VERTEX
  8
CAPA_1
 62
     2
 10
61.2156
 20
82.0597
  0
VERTEX
  8
CAPA_1
 62
     2
 10
61.1893
 20
81.963
  0
VERTEX
  8
CAPA_1
 62
     2
 10
61.1467
 20
81.8883
  0
VERTEX
  8
CAPA_1
 62
     2
 10
61.0837
 20
81.8402
  0
VERTEX
  8
CAPA_1
 62
     2
 10
60.9964
 20
81.8231
  0
VERTEX
  8
CAPA_1
 62
     2
 10
57.1058
 20
81.7846
  0
VERTEX
  8
CAPA_1
 62
     2
 10
57.0174
 20
81.7887
  0
VERTEX
  8
CAPA_1
 62
     2
 10
56.9506
 20
81.7899
  0
VERTEX
  8
CAPA_1
 62
     2
 10
56.9018
 20
81.7717
  0
VERTEX
  8
CAPA_1
 62
     2
 10
56.8675
 20
81.7174
  0
VERTEX
  8
CAPA_1
 62
     2
 10
56.8289
 20
81.4343
  0
VERTEX
  8
CAPA_1
 62
     2
 10
56.8068
 20
80.8077
  0
VERTEX
  8
CAPA_1
 62
     2
 10
56.7953
 20
80.6744
  0
VERTEX
  8
CAPA_1
 62
     2
 10
56.7694
 20
80.555
  0
VERTEX
  8
CAPA_1
 62
     2
 10
56.7303
 20
80.4506
  0
VERTEX
  8
CAPA_1
 62
     2
 10
56.6792
 20
80.3622
  0
VERTEX
  8
CAPA_1
 62
     2
 10
56.6174
 20
80.2909
  0
VERTEX
  8
CAPA_1
 62
     2
 10
56.5463
 20
80.238
  0
VERTEX
  8
CAPA_1
 62
     2
 10
56.4669
 20
80.2045
  0
VERTEX
  8
CAPA_1
 62
     2
 10
56.3807
 20
80.1915
  0
VERTEX
  8
CAPA_1
 62
     2
 10
52.2276
 20
80.2013
  0
VERTEX
  8
CAPA_1
 62
     2
 10
52.1432
 20
80.2107
  0
VERTEX
  8
CAPA_1
 62
     2
 10
52.0507
 20
80.2366
  0
VERTEX
  8
CAPA_1
 62
     2
 10
51.9561
 20
80.276
  0
VERTEX
  8
CAPA_1
 62
     2
 10
51.8654
 20
80.3258
  0
VERTEX
  8
CAPA_1
 62
     2
 10
51.7843
 20
80.3829
  0
VERTEX
  8
CAPA_1
 62
     2
 10
51.719
 20
80.4444
  0
VERTEX
  8
CAPA_1
 62
     2
 10
51.6753
 20
80.507
  0
VERTEX
  8
CAPA_1
 62
     2
 10
51.6591
 20
80.5679
  0
VERTEX
  8
CAPA_1
 62
     2
 10
51.6803
 20
81.3901
  0
VERTEX
  8
CAPA_1
 62
     2
 10
51.6881
 20
82.2711
  0
VERTEX
  8
CAPA_1
 62
     2
 10
51.6963
 20
82.8127
  0
VERTEX
  8
CAPA_1
 62
     2
 10
51.6688
 20
83.2714
  0
VERTEX
  8
CAPA_1
 62
     2
 10
51.6173
 20
83.4558
  0
VERTEX
  8
CAPA_1
 62
     2
 10
51.5279
 20
83.6031
  0
VERTEX
  8
CAPA_1
 62
     2
 10
51.3906
 20
83.7077
  0
VERTEX
  8
CAPA_1
 62
     2
 10
51.1959
 20
83.764
  0
VERTEX
  8
CAPA_1
 62
     2
 10
43.1526
 20
83.847
  0
VERTEX
  8
CAPA_1
 62
     2
 10
42.9711
 20
83.8561
  0
VERTEX
  8
CAPA_1
 62
     2
 10
42.8197
 20
83.8768
  0
VERTEX
  8
CAPA_1
 62
     2
 10
42.6968
 20
83.9091
  0
VERTEX
  8
CAPA_1
 62
     2
 10
42.6007
 20
83.9533
  0
VERTEX
  8
CAPA_1
 62
     2
 10
42.5297
 20
84.0094
  0
VERTEX
  8
CAPA_1
 62
     2
 10
42.4822
 20
84.0777
  0
VERTEX
  8
CAPA_1
 62
     2
 10
42.4564
 20
84.1582
  0
VERTEX
  8
CAPA_1
 62
     2
 10
42.4508
 20
84.2513
  0
VERTEX
  8
CAPA_1
 62
     2
 10
42.4317
 20
86.4044
  0
VERTEX
  8
CAPA_1
 62
     2
 10
42.4382
 20
88.9609
  0
VERTEX
  8
CAPA_1
 62
     2
 10
42.4452
 20
89.0539
  0
VERTEX
  8
CAPA_1
 62
     2
 10
42.472
 20
89.1341
  0
VERTEX
  8
CAPA_1
 62
     2
 10
42.5205
 20
89.2017
  0
VERTEX
  8
CAPA_1
 62
     2
 10
42.5923
 20
89.2569
  0
VERTEX
  8
CAPA_1
 62
     2
 10
42.689
 20
89.2997
  0
VERTEX
  8
CAPA_1
 62
     2
 10
42.8123
 20
89.3303
  0
VERTEX
  8
CAPA_1
 62
     2
 10
42.964
 20
89.3488
  0
VERTEX
  8
CAPA_1
 62
     2
 10
43.1456
 20
89.3554
  0
VERTEX
  8
CAPA_1
 62
     2
 10
51.1893
 20
89.3262
  0
VERTEX
  8
CAPA_1
 62
     2
 10
51.3848
 20
89.3798
  0
VERTEX
  8
CAPA_1
 62
     2
 10
51.5235
 20
89.4824
  0
VERTEX
  8
CAPA_1
 62
     2
 10
51.615
 20
89.6284
  0
VERTEX
  8
CAPA_1
 62
     2
 10
51.669
 20
89.8122
  0
VERTEX
  8
CAPA_1
 62
     2
 10
51.7029
 20
90.2704
  0
VERTEX
  8
CAPA_1
 62
     2
 10
51.7023
 20
90.812
  0
VERTEX
  8
CAPA_1
 62
     2
 10
51.7068
 20
91.6931
  0
VERTEX
  8
CAPA_1
 62
     2
 10
51.697
 20
92.5155
  0
VERTEX
  8
CAPA_1
 62
     2
 10
51.7141
 20
92.5761
  0
VERTEX
  8
CAPA_1
 62
     2
 10
51.7587
 20
92.6381
  0
VERTEX
  8
CAPA_1
 62
     2
 10
51.8249
 20
92.6986
  0
VERTEX
  8
CAPA_1
 62
     2
 10
51.9067
 20
92.7546
  0
VERTEX
  8
CAPA_1
 62
     2
 10
51.9982
 20
92.8031
  0
VERTEX
  8
CAPA_1
 62
     2
 10
52.0933
 20
92.8412
  0
VERTEX
  8
CAPA_1
 62
     2
 10
52.1862
 20
92.8658
  0
VERTEX
  8
CAPA_1
 62
     2
 10
52.2707
 20
92.8741
  0
VERTEX
  8
CAPA_1
 62
     2
 10
56.4235
 20
92.8259
  0
VERTEX
  8
CAPA_1
 62
     2
 10
56.5095
 20
92.8117
  0
VERTEX
  8
CAPA_1
 62
     2
 10
56.5884
 20
92.777
  0
VERTEX
  8
CAPA_1
 62
     2
 10
56.6588
 20
92.7231
  0
VERTEX
  8
CAPA_1
 62
     2
 10
56.7196
 20
92.6511
  0
VERTEX
  8
CAPA_1
 62
     2
 10
56.7694
 20
92.562
  0
VERTEX
  8
CAPA_1
 62
     2
 10
56.8071
 20
92.457
  0
VERTEX
  8
CAPA_1
 62
     2
 10
56.8313
 20
92.3372
  0
VERTEX
  8
CAPA_1
 62
     2
 10
56.8409
 20
92.2038
  0
VERTEX
  8
CAPA_1
 62
     2
 10
56.8542
 20
91.577
  0
VERTEX
  8
CAPA_1
 62
     2
 10
56.889
 20
91.2933
  0
VERTEX
  8
CAPA_1
 62
     2
 10
56.9224
 20
91.2386
  0
VERTEX
  8
CAPA_1
 62
     2
 10
56.971
 20
91.2197
  0
VERTEX
  8
CAPA_1
 62
     2
 10
57.0379
 20
91.22
  0
VERTEX
  8
CAPA_1
 62
     2
 10
57.1263
 20
91.2228
  0
VERTEX
  8
CAPA_1
 62
     2
 10
61.0159
 20
91.13
  0
VERTEX
  8
CAPA_1
 62
     2
 10
61.103
 20
91.1117
  0
VERTEX
  8
CAPA_1
 62
     2
 10
61.1653
 20
91.0627
  0
VERTEX
  8
CAPA_1
 62
     2
 10
61.2068
 20
90.9874
  0
VERTEX
  8
CAPA_1
 62
     2
 10
61.2318
 20
90.8903
  0
VERTEX
  8
CAPA_1
 62
     2
 10
61.2481
 20
90.6485
  0
VERTEX
  8
CAPA_1
 62
     2
 10
61.2471
 20
90.3729
  0
VERTEX
  8
CAPA_1
 62
     2
 10
61.2485
 20
90.1467
  0
VERTEX
  8
CAPA_1
 62
     2
 10
61.273
 20
89.9426
  0
VERTEX
  8
CAPA_1
 62
     2
 10
61.3043
 20
89.8556
  0
VERTEX
  8
CAPA_1
 62
     2
 10
61.354
 20
89.7825
  0
VERTEX
  8
CAPA_1
 62
     2
 10
61.4261
 20
89.7258
  0
VERTEX
  8
CAPA_1
 62
     2
 10
61.5249
 20
89.6883
  0
VERTEX
  8
CAPA_1
 62
     2
 10
67.6082
 20
88.432
  0
VERTEX
  8
CAPA_1
 62
     2
 10
67.6526
 20
88.403
  0
VERTEX
  8
CAPA_1
 62
     2
 10
67.6959
 20
88.3517
  0
VERTEX
  8
CAPA_1
 62
     2
 10
67.7284
 20
88.2854
  0
VERTEX
  8
CAPA_1
 62
     2
 10
67.7402
 20
88.2113
  0
VERTEX
  8
CAPA_1
 62
     2
 10
67.7668
 20
87.8481
  0
VERTEX
  8
CAPA_1
 62
     2
 10
67.8027
 20
87.7833
  0
VERTEX
  8
CAPA_1
 62
     2
 10
67.8468
 20
87.7285
  0
VERTEX
  8
CAPA_1
 62
     2
 10
67.8966
 20
87.6829
  0
VERTEX
  8
CAPA_1
 62
     2
 10
67.9498
 20
87.6456
  0
VERTEX
  8
CAPA_1
 62
     2
 10
68.0561
 20
87.5922
  0
VERTEX
  8
CAPA_1
 62
     2
 10
68.1463
 20
87.5615
  0
VERTEX
  8
CAPA_1
 62
     2
 10
73.6115
 20
87.2952
  0
VERTEX
  8
CAPA_1
 62
     2
 10
73.776
 20
87.2639
  0
VERTEX
  8
CAPA_1
 62
     2
 10
73.9268
 20
87.2092
  0
VERTEX
  8
CAPA_1
 62
     2
 10
73.9917
 20
87.1745
  0
VERTEX
  8
CAPA_1
 62
     2
 10
74.0466
 20
87.1356
  0
VERTEX
  8
CAPA_1
 62
     2
 10
74.0894
 20
87.0932
  0
VERTEX
  8
CAPA_1
 62
     2
 10
74.118
 20
87.0478
  0
VERTEX
  8
CAPA_1
 62
     2
 10
74.1549
 20
86.9192
  0
VERTEX
  8
CAPA_1
 62
     2
 10
74.1748
 20
86.8356
  0
VERTEX
  8
CAPA_1
 62
     2
 10
74.1948
 20
86.8089
  0
VERTEX
  8
CAPA_1
 62
     2
 10
74.2304
 20
86.7911
  0
VERTEX
  8
CAPA_1
 62
     2
 10
74.2881
 20
86.7816
  0
VERTEX
  8
CAPA_1
 62
     2
 10
74.3745
 20
86.7796
  0
VERTEX
  8
CAPA_1
 62
     2
 10
80.2994
 20
86.6897
  0
SEQEND
  8
CAPA_1
 62
     2
  0
POLYLINE
  8
CAPA_1
 62
     2
 66
     1
 70
     1
  0
VERTEX
  8
CAPA_1
 62
     2
 10
-23.3062
 20
87.9727
  0
VERTEX
  8
CAPA_1
 62
     2
 10
-22.9833
 20
87.7604
  0
VERTEX
  8
CAPA_1
 62
     2
 10
-22.6651
 20
87.5339
  0
VERTEX
  8
CAPA_1
 62
     2
 10
-22.3635
 20
87.3062
  0
VERTEX
  8
CAPA_1
 62
     2
 10
-22.0903
 20
87.0905
  0
VERTEX
  8
CAPA_1
 62
     2
 10
-21.6762
 20
86.7474
  0
VERTEX
  8
CAPA_1
 62
     2
 10
-21.5172
 20
86.6097
  0
VERTEX
  8
CAPA_1
 62
     2
 10
-20.8368
 20
84.2396
  0
VERTEX
  8
CAPA_1
 62
     2
 10
-19.9307
 20
81.9406
  0
VERTEX
  8
CAPA_1
 62
     2
 10
-18.8509
 20
79.7476
  0
VERTEX
  8
CAPA_1
 62
     2
 10
-17.6496
 20
77.6954
  0
VERTEX
  8
CAPA_1
 62
     2
 10
-16.3788
 20
75.8189
  0
VERTEX
  8
CAPA_1
 62
     2
 10
-15.0905
 20
74.1531
  0
VERTEX
  8
CAPA_1
 62
     2
 10
-13.8369
 20
72.7328
  0
VERTEX
  8
CAPA_1
 62
     2
 10
-12.6699
 20
71.5928
  0
VERTEX
  8
CAPA_1
 62
     2
 10
-11.8481
 20
71.3895
  0
VERTEX
  8
CAPA_1
 62
     2
 10
-11.1974
 20
71.3524
  0
VERTEX
  8
CAPA_1
 62
     2
 10
-10.6945
 20
71.4238
  0
VERTEX
  8
CAPA_1
 62
     2
 10
-10.3162
 20
71.5458
  0
VERTEX
  8
CAPA_1
 62
     2
 10
-10.0391
 20
71.6605
  0
VERTEX
  8
CAPA_1
 62
     2
 10
-9.84
 20
71.7101
  0
VERTEX
  8
CAPA_1
 62
     2
 10
-9.6957
 20
71.6367
  0
VERTEX
  8
CAPA_1
 62
     2
 10
-9.583
 20
71.3826
  0
VERTEX
  8
CAPA_1
 62
     2
 10
-9.583
 20
70.4085
  0
VERTEX
  8
CAPA_1
 62
     2
 10
-9.583
 20
70.0875
  0
VERTEX
  8
CAPA_1
 62
     2
 10
-9.583
 20
70.0723
  0
VERTEX
  8
CAPA_1
 62
     2
 10
-9.583
 20
70.0571
  0
VERTEX
  8
CAPA_1
 62
     2
 10
-9.583
 20
70.0418
  0
VERTEX
  8
CAPA_1
 62
     2
 10
-9.583
 20
70.0266
  0
VERTEX
  8
CAPA_1
 62
     2
 10
-9.583
 20
70.0114
  0
VERTEX
  8
CAPA_1
 62
     2
 10
-9.583
 20
69.9962
  0
VERTEX
  8
CAPA_1
 62
     2
 10
-9.583
 20
69.981
  0
VERTEX
  8
CAPA_1
 62
     2
 10
-9.583
 20
69.9657
  0
VERTEX
  8
CAPA_1
 62
     2
 10
-9.583
 20
69.9623
  0
VERTEX
  8
CAPA_1
 62
     2
 10
-9.583
 20
69.1135
  0
VERTEX
  8
CAPA_1
 62
     2
 10
-9.6957
 20
68.8594
  0
VERTEX
  8
CAPA_1
 62
     2
 10
-9.84
 20
68.786
  0
VERTEX
  8
CAPA_1
 62
     2
 10
-10.0391
 20
68.8356
  0
VERTEX
  8
CAPA_1
 62
     2
 10
-10.3162
 20
68.9504
  0
VERTEX
  8
CAPA_1
 62
     2
 10
-10.6945
 20
69.0723
  0
VERTEX
  8
CAPA_1
 62
     2
 10
-11.1974
 20
69.1437
  0
VERTEX
  8
CAPA_1
 62
     2
 10
-11.8481
 20
69.1066
  0
VERTEX
  8
CAPA_1
 62
     2
 10
-12.6699
 20
68.9033
  0
VERTEX
  8
CAPA_1
 62
     2
 10
-13.8369
 20
67.7633
  0
VERTEX
  8
CAPA_1
 62
     2
 10
-15.0905
 20
66.343
  0
VERTEX
  8
CAPA_1
 62
     2
 10
-16.3788
 20
64.6772
  0
VERTEX
  8
CAPA_1
 62
     2
 10
-17.6496
 20
62.8007
  0
VERTEX
  8
CAPA_1
 62
     2
 10
-18.8509
 20
60.7485
  0
VERTEX
  8
CAPA_1
 62
     2
 10
-19.9307
 20
58.5555
  0
VERTEX
  8
CAPA_1
 62
     2
 10
-20.8368
 20
56.2565
  0
VERTEX
  8
CAPA_1
 62
     2
 10
-21.5172
 20
53.8864
  0
VERTEX
  8
CAPA_1
 62
     2
 10
-21.6762
 20
53.7487
  0
VERTEX
  8
CAPA_1
 62
     2
 10
-22.0903
 20
53.4056
  0
VERTEX
  8
CAPA_1
 62
     2
 10
-22.3635
 20
53.1899
  0
VERTEX
  8
CAPA_1
 62
     2
 10
-22.6651
 20
52.9622
  0
VERTEX
  8
CAPA_1
 62
     2
 10
-22.9833
 20
52.7357
  0
VERTEX
  8
CAPA_1
 62
     2
 10
-23.3062
 20
52.5234
  0
VERTEX
  8
CAPA_1
 62
     2
 10
-24.1876
 20
51.9696
  0
VERTEX
  8
CAPA_1
 62
     2
 10
-25.2786
 20
51.3221
  0
VERTEX
  8
CAPA_1
 62
     2
 10
-26.606
 20
50.6302
  0
VERTEX
  8
CAPA_1
 62
     2
 10
-28.1965
 20
49.9431
  0
VERTEX
  8
CAPA_1
 62
     2
 10
-30.0767
 20
49.3099
  0
VERTEX
  8
CAPA_1
 62
     2
 10
-32.2734
 20
48.7798
  0
VERTEX
  8
CAPA_1
 62
     2
 10
-34.8134
 20
48.402
  0
VERTEX
  8
CAPA_1
 62
     2
 10
-37.7233
 20
48.2257
  0
VERTEX
  8
CAPA_1
 62
     2
 10
-42.2297
 20
48.5785
  0
VERTEX
  8
CAPA_1
 62
     2
 10
-46.4948
 20
49.76
  0
VERTEX
  8
CAPA_1
 62
     2
 10
-50.4064
 20
51.6927
  0
VERTEX
  8
CAPA_1
 62
     2
 10
-53.8524
 20
54.2991
  0
VERTEX
  8
CAPA_1
 62
     2
 10
-56.7205
 20
57.5017
  0
VERTEX
  8
CAPA_1
 62
     2
 10
-58.8986
 20
61.2228
  0
VERTEX
  8
CAPA_1
 62
     2
 10
-60.2744
 20
65.385
  0
VERTEX
  8
CAPA_1
 62
     2
 10
-60.7359
 20
69.9107
  0
VERTEX
  8
CAPA_1
 62
     2
 10
-60.7359
 20
70.5854
  0
VERTEX
  8
CAPA_1
 62
     2
 10
-60.2744
 20
75.1111
  0
VERTEX
  8
CAPA_1
 62
     2
 10
-58.8986
 20
79.2733
  0
VERTEX
  8
CAPA_1
 62
     2
 10
-56.7205
 20
82.9945
  0
VERTEX
  8
CAPA_1
 62
     2
 10
-53.8524
 20
86.197
  0
VERTEX
  8
CAPA_1
 62
     2
 10
-50.4064
 20
88.8034
  0
VERTEX
  8
CAPA_1
 62
     2
 10
-46.4948
 20
90.7361
  0
VERTEX
  8
CAPA_1
 62
     2
 10
-42.2297
 20
91.9176
  0
VERTEX
  8
CAPA_1
 62
     2
 10
-37.7233
 20
92.2704
  0
VERTEX
  8
CAPA_1
 62
     2
 10
-34.8134
 20
92.0941
  0
VERTEX
  8
CAPA_1
 62
     2
 10
-32.2734
 20
91.7163
  0
VERTEX
  8
CAPA_1
 62
     2
 10
-30.0767
 20
91.1862
  0
VERTEX
  8
CAPA_1
 62
     2
 10
-28.1965
 20
90.553
  0
VERTEX
  8
CAPA_1
 62
     2
 10
-26.606
 20
89.8659
  0
VERTEX
  8
CAPA_1
 62
     2
 10
-25.2786
 20
89.174
  0
VERTEX
  8
CAPA_1
 62
     2
 10
-24.1876
 20
88.5265
  0
VERTEX
  8
CAPA_1
 62
     2
 10
-23.3062
 20
87.9727
  0
SEQEND
  8
CAPA_1
 62
     2
  0
ENDSEC
  0
EOF
