G04 EAGLE Gerber RS-274X export*
G75*
%MOMM*%
%FSLAX34Y34*%
%LPD*%
%INSilk bottom*%
%IPPOS*%
%AMOC8*
5,1,8,0,0,1.08239X$1,22.5*%
G01*
%ADD10C,0.001000*%
%ADD11C,0.050800*%
%ADD12C,0.152400*%
%ADD13C,0.000000*%


D10*
X23631Y143928D02*
X933481Y143928D01*
X936509Y143620D01*
X939335Y142739D01*
X941895Y141345D01*
X944128Y139500D01*
X945973Y137267D01*
X947367Y134707D01*
X948248Y131881D01*
X948556Y128853D01*
X948556Y29003D01*
X948248Y25975D01*
X947367Y23149D01*
X945973Y20589D01*
X944128Y18356D01*
X941895Y16511D01*
X939335Y15117D01*
X936509Y14236D01*
X933481Y13928D01*
X23631Y13928D01*
X20603Y14236D01*
X17777Y15117D01*
X15217Y16511D01*
X12984Y18356D01*
X11139Y20589D01*
X9745Y23149D01*
X8864Y25975D01*
X8556Y29003D01*
X8556Y128853D01*
X8864Y131881D01*
X9745Y134707D01*
X11139Y137267D01*
X12984Y139500D01*
X15217Y141345D01*
X17777Y142739D01*
X20603Y143620D01*
X23631Y143928D01*
X758556Y84978D02*
X761791Y84652D01*
X764803Y83717D01*
X767530Y82237D01*
X769905Y80277D01*
X771865Y77902D01*
X773345Y75175D01*
X774280Y72163D01*
X774606Y68928D01*
X774280Y65693D01*
X773345Y62681D01*
X771865Y59954D01*
X769905Y57579D01*
X767530Y55619D01*
X764803Y54139D01*
X761791Y53204D01*
X758556Y52878D01*
X755321Y53204D01*
X752309Y54139D01*
X749582Y55619D01*
X747207Y57579D01*
X745247Y59954D01*
X743767Y62681D01*
X742832Y65693D01*
X742506Y68928D01*
X742832Y72163D01*
X743767Y75175D01*
X745247Y77902D01*
X747207Y80277D01*
X749582Y82237D01*
X752309Y83717D01*
X755321Y84652D01*
X758556Y84978D01*
X201791Y84652D02*
X198556Y84978D01*
X201791Y84652D02*
X204803Y83717D01*
X207530Y82237D01*
X209905Y80277D01*
X211865Y77902D01*
X213345Y75175D01*
X214280Y72163D01*
X214606Y68928D01*
X214280Y65693D01*
X213345Y62681D01*
X211865Y59954D01*
X209905Y57579D01*
X207530Y55619D01*
X204803Y54139D01*
X201791Y53204D01*
X198556Y52878D01*
X195321Y53204D01*
X192309Y54139D01*
X189582Y55619D01*
X187207Y57579D01*
X185247Y59954D01*
X183767Y62681D01*
X182832Y65693D01*
X182506Y68928D01*
X182832Y72163D01*
X183767Y75175D01*
X185247Y77902D01*
X187207Y80277D01*
X189582Y82237D01*
X192309Y83717D01*
X195321Y84652D01*
X198556Y84978D01*
X373556Y58928D02*
X583556Y58928D01*
X583556Y68928D01*
X373556Y68928D01*
X373556Y58928D01*
X755425Y84670D02*
X758556Y84978D01*
X755425Y84670D02*
X752414Y83756D01*
X749639Y82273D01*
X747207Y80277D01*
X745211Y77845D01*
X743728Y75070D01*
X742814Y72059D01*
X742506Y68928D01*
X742814Y65797D01*
X743728Y62786D01*
X745211Y60011D01*
X747207Y57579D01*
X749639Y55583D01*
X752414Y54100D01*
X755425Y53186D01*
X758556Y52878D01*
X761687Y53186D01*
X764698Y54100D01*
X767473Y55583D01*
X769905Y57579D01*
X771901Y60011D01*
X773384Y62786D01*
X774298Y65797D01*
X774606Y68928D01*
X774298Y72059D01*
X773384Y75070D01*
X771901Y77845D01*
X769905Y80277D01*
X767473Y82273D01*
X764698Y83756D01*
X761687Y84670D01*
X758556Y84978D01*
X198556Y84978D02*
X195425Y84670D01*
X192414Y83756D01*
X189639Y82273D01*
X187207Y80277D01*
X185211Y77845D01*
X183728Y75070D01*
X182814Y72059D01*
X182506Y68928D01*
X182814Y65797D01*
X183728Y62786D01*
X185211Y60011D01*
X187207Y57579D01*
X189639Y55583D01*
X192414Y54100D01*
X195425Y53186D01*
X198556Y52878D01*
X201687Y53186D01*
X204698Y54100D01*
X207473Y55583D01*
X209905Y57579D01*
X211901Y60011D01*
X213384Y62786D01*
X214298Y65797D01*
X214606Y68928D01*
X214298Y72059D01*
X213384Y75070D01*
X211901Y77845D01*
X209905Y80277D01*
X207473Y82273D01*
X204698Y83756D01*
X201687Y84670D01*
X198556Y84978D01*
D11*
X194738Y71398D02*
X193496Y71398D01*
X193426Y71400D01*
X193357Y71406D01*
X193288Y71416D01*
X193220Y71429D01*
X193152Y71447D01*
X193086Y71468D01*
X193021Y71493D01*
X192957Y71521D01*
X192895Y71553D01*
X192835Y71588D01*
X192777Y71627D01*
X192722Y71669D01*
X192668Y71714D01*
X192618Y71762D01*
X192570Y71812D01*
X192525Y71866D01*
X192483Y71921D01*
X192444Y71979D01*
X192409Y72039D01*
X192377Y72101D01*
X192349Y72165D01*
X192324Y72230D01*
X192303Y72296D01*
X192285Y72364D01*
X192272Y72432D01*
X192262Y72501D01*
X192256Y72570D01*
X192254Y72640D01*
X192254Y75744D01*
X192256Y75814D01*
X192262Y75883D01*
X192272Y75952D01*
X192285Y76020D01*
X192303Y76088D01*
X192324Y76154D01*
X192349Y76219D01*
X192377Y76283D01*
X192409Y76345D01*
X192444Y76405D01*
X192483Y76463D01*
X192525Y76518D01*
X192570Y76572D01*
X192618Y76622D01*
X192668Y76670D01*
X192722Y76715D01*
X192777Y76757D01*
X192835Y76796D01*
X192895Y76831D01*
X192957Y76863D01*
X193021Y76891D01*
X193086Y76916D01*
X193152Y76937D01*
X193220Y76955D01*
X193288Y76968D01*
X193357Y76978D01*
X193426Y76984D01*
X193496Y76986D01*
X194738Y76986D01*
X197025Y76986D02*
X197025Y72950D01*
X197027Y72873D01*
X197033Y72795D01*
X197042Y72719D01*
X197056Y72642D01*
X197073Y72567D01*
X197094Y72493D01*
X197119Y72419D01*
X197147Y72347D01*
X197179Y72277D01*
X197214Y72208D01*
X197253Y72141D01*
X197295Y72076D01*
X197340Y72013D01*
X197388Y71952D01*
X197439Y71894D01*
X197493Y71839D01*
X197550Y71786D01*
X197609Y71737D01*
X197671Y71690D01*
X197735Y71646D01*
X197801Y71606D01*
X197869Y71569D01*
X197939Y71535D01*
X198010Y71505D01*
X198083Y71479D01*
X198157Y71456D01*
X198232Y71437D01*
X198307Y71422D01*
X198384Y71410D01*
X198461Y71402D01*
X198538Y71398D01*
X198616Y71398D01*
X198693Y71402D01*
X198770Y71410D01*
X198847Y71422D01*
X198922Y71437D01*
X198997Y71456D01*
X199071Y71479D01*
X199144Y71505D01*
X199215Y71535D01*
X199285Y71569D01*
X199353Y71606D01*
X199419Y71646D01*
X199483Y71690D01*
X199545Y71737D01*
X199604Y71786D01*
X199661Y71839D01*
X199715Y71894D01*
X199766Y71952D01*
X199814Y72013D01*
X199859Y72076D01*
X199901Y72141D01*
X199940Y72208D01*
X199975Y72277D01*
X200007Y72347D01*
X200035Y72419D01*
X200060Y72493D01*
X200081Y72567D01*
X200098Y72642D01*
X200112Y72719D01*
X200121Y72795D01*
X200127Y72873D01*
X200129Y72950D01*
X200130Y72950D02*
X200130Y76986D01*
X203881Y76986D02*
X203881Y71398D01*
X202329Y76986D02*
X205433Y76986D01*
X192254Y66290D02*
X192254Y63806D01*
X192254Y66290D02*
X192256Y66367D01*
X192262Y66445D01*
X192271Y66521D01*
X192285Y66598D01*
X192302Y66673D01*
X192323Y66747D01*
X192348Y66821D01*
X192376Y66893D01*
X192408Y66963D01*
X192443Y67032D01*
X192482Y67099D01*
X192524Y67164D01*
X192569Y67227D01*
X192617Y67288D01*
X192668Y67346D01*
X192722Y67401D01*
X192779Y67454D01*
X192838Y67503D01*
X192900Y67550D01*
X192964Y67594D01*
X193030Y67634D01*
X193098Y67671D01*
X193168Y67705D01*
X193239Y67735D01*
X193312Y67761D01*
X193386Y67784D01*
X193461Y67803D01*
X193536Y67818D01*
X193613Y67830D01*
X193690Y67838D01*
X193767Y67842D01*
X193845Y67842D01*
X193922Y67838D01*
X193999Y67830D01*
X194076Y67818D01*
X194151Y67803D01*
X194226Y67784D01*
X194300Y67761D01*
X194373Y67735D01*
X194444Y67705D01*
X194514Y67671D01*
X194582Y67634D01*
X194648Y67594D01*
X194712Y67550D01*
X194774Y67503D01*
X194833Y67454D01*
X194890Y67401D01*
X194944Y67346D01*
X194995Y67288D01*
X195043Y67227D01*
X195088Y67164D01*
X195130Y67099D01*
X195169Y67032D01*
X195204Y66963D01*
X195236Y66893D01*
X195264Y66821D01*
X195289Y66747D01*
X195310Y66673D01*
X195327Y66598D01*
X195341Y66521D01*
X195350Y66445D01*
X195356Y66367D01*
X195358Y66290D01*
X195358Y63806D01*
X195356Y63729D01*
X195350Y63651D01*
X195341Y63575D01*
X195327Y63498D01*
X195310Y63423D01*
X195289Y63349D01*
X195264Y63275D01*
X195236Y63203D01*
X195204Y63133D01*
X195169Y63064D01*
X195130Y62997D01*
X195088Y62932D01*
X195043Y62869D01*
X194995Y62808D01*
X194944Y62750D01*
X194890Y62695D01*
X194833Y62642D01*
X194774Y62593D01*
X194712Y62546D01*
X194648Y62502D01*
X194582Y62462D01*
X194514Y62425D01*
X194444Y62391D01*
X194373Y62361D01*
X194300Y62335D01*
X194226Y62312D01*
X194151Y62293D01*
X194076Y62278D01*
X193999Y62266D01*
X193922Y62258D01*
X193845Y62254D01*
X193767Y62254D01*
X193690Y62258D01*
X193613Y62266D01*
X193536Y62278D01*
X193461Y62293D01*
X193386Y62312D01*
X193312Y62335D01*
X193239Y62361D01*
X193168Y62391D01*
X193098Y62425D01*
X193030Y62462D01*
X192964Y62502D01*
X192900Y62546D01*
X192838Y62593D01*
X192779Y62642D01*
X192722Y62695D01*
X192668Y62750D01*
X192617Y62808D01*
X192569Y62869D01*
X192524Y62932D01*
X192482Y62997D01*
X192443Y63064D01*
X192408Y63133D01*
X192376Y63203D01*
X192348Y63275D01*
X192323Y63349D01*
X192302Y63423D01*
X192285Y63498D01*
X192271Y63575D01*
X192262Y63651D01*
X192256Y63729D01*
X192254Y63806D01*
X197923Y63806D02*
X197923Y67842D01*
X197923Y63806D02*
X197925Y63729D01*
X197931Y63651D01*
X197940Y63575D01*
X197954Y63498D01*
X197971Y63423D01*
X197992Y63349D01*
X198017Y63275D01*
X198045Y63203D01*
X198077Y63133D01*
X198112Y63064D01*
X198151Y62997D01*
X198193Y62932D01*
X198238Y62869D01*
X198286Y62808D01*
X198337Y62750D01*
X198391Y62695D01*
X198448Y62642D01*
X198507Y62593D01*
X198569Y62546D01*
X198633Y62502D01*
X198699Y62462D01*
X198767Y62425D01*
X198837Y62391D01*
X198908Y62361D01*
X198981Y62335D01*
X199055Y62312D01*
X199130Y62293D01*
X199205Y62278D01*
X199282Y62266D01*
X199359Y62258D01*
X199436Y62254D01*
X199514Y62254D01*
X199591Y62258D01*
X199668Y62266D01*
X199745Y62278D01*
X199820Y62293D01*
X199895Y62312D01*
X199969Y62335D01*
X200042Y62361D01*
X200113Y62391D01*
X200183Y62425D01*
X200251Y62462D01*
X200317Y62502D01*
X200381Y62546D01*
X200443Y62593D01*
X200502Y62642D01*
X200559Y62695D01*
X200613Y62750D01*
X200664Y62808D01*
X200712Y62869D01*
X200757Y62932D01*
X200799Y62997D01*
X200838Y63064D01*
X200873Y63133D01*
X200905Y63203D01*
X200933Y63275D01*
X200958Y63349D01*
X200979Y63423D01*
X200996Y63498D01*
X201010Y63575D01*
X201019Y63651D01*
X201025Y63729D01*
X201027Y63806D01*
X201028Y63806D02*
X201028Y67842D01*
X204779Y67842D02*
X204779Y62254D01*
X203227Y67842D02*
X206331Y67842D01*
X752496Y71398D02*
X753738Y71398D01*
X752496Y71398D02*
X752426Y71400D01*
X752357Y71406D01*
X752288Y71416D01*
X752220Y71429D01*
X752152Y71447D01*
X752086Y71468D01*
X752021Y71493D01*
X751957Y71521D01*
X751895Y71553D01*
X751835Y71588D01*
X751777Y71627D01*
X751722Y71669D01*
X751668Y71714D01*
X751618Y71762D01*
X751570Y71812D01*
X751525Y71866D01*
X751483Y71921D01*
X751444Y71979D01*
X751409Y72039D01*
X751377Y72101D01*
X751349Y72165D01*
X751324Y72230D01*
X751303Y72296D01*
X751285Y72364D01*
X751272Y72432D01*
X751262Y72501D01*
X751256Y72570D01*
X751254Y72640D01*
X751254Y75744D01*
X751256Y75814D01*
X751262Y75883D01*
X751272Y75952D01*
X751285Y76020D01*
X751303Y76088D01*
X751324Y76154D01*
X751349Y76219D01*
X751377Y76283D01*
X751409Y76345D01*
X751444Y76405D01*
X751483Y76463D01*
X751525Y76518D01*
X751570Y76572D01*
X751618Y76622D01*
X751668Y76670D01*
X751722Y76715D01*
X751777Y76757D01*
X751835Y76796D01*
X751895Y76831D01*
X751957Y76863D01*
X752021Y76891D01*
X752086Y76916D01*
X752152Y76937D01*
X752220Y76955D01*
X752288Y76968D01*
X752357Y76978D01*
X752426Y76984D01*
X752496Y76986D01*
X753738Y76986D01*
X756025Y76986D02*
X756025Y72950D01*
X756027Y72873D01*
X756033Y72795D01*
X756042Y72719D01*
X756056Y72642D01*
X756073Y72567D01*
X756094Y72493D01*
X756119Y72419D01*
X756147Y72347D01*
X756179Y72277D01*
X756214Y72208D01*
X756253Y72141D01*
X756295Y72076D01*
X756340Y72013D01*
X756388Y71952D01*
X756439Y71894D01*
X756493Y71839D01*
X756550Y71786D01*
X756609Y71737D01*
X756671Y71690D01*
X756735Y71646D01*
X756801Y71606D01*
X756869Y71569D01*
X756939Y71535D01*
X757010Y71505D01*
X757083Y71479D01*
X757157Y71456D01*
X757232Y71437D01*
X757307Y71422D01*
X757384Y71410D01*
X757461Y71402D01*
X757538Y71398D01*
X757616Y71398D01*
X757693Y71402D01*
X757770Y71410D01*
X757847Y71422D01*
X757922Y71437D01*
X757997Y71456D01*
X758071Y71479D01*
X758144Y71505D01*
X758215Y71535D01*
X758285Y71569D01*
X758353Y71606D01*
X758419Y71646D01*
X758483Y71690D01*
X758545Y71737D01*
X758604Y71786D01*
X758661Y71839D01*
X758715Y71894D01*
X758766Y71952D01*
X758814Y72013D01*
X758859Y72076D01*
X758901Y72141D01*
X758940Y72208D01*
X758975Y72277D01*
X759007Y72347D01*
X759035Y72419D01*
X759060Y72493D01*
X759081Y72567D01*
X759098Y72642D01*
X759112Y72719D01*
X759121Y72795D01*
X759127Y72873D01*
X759129Y72950D01*
X759130Y72950D02*
X759130Y76986D01*
X762881Y76986D02*
X762881Y71398D01*
X761329Y76986D02*
X764433Y76986D01*
X751254Y66290D02*
X751254Y63806D01*
X751254Y66290D02*
X751256Y66367D01*
X751262Y66445D01*
X751271Y66521D01*
X751285Y66598D01*
X751302Y66673D01*
X751323Y66747D01*
X751348Y66821D01*
X751376Y66893D01*
X751408Y66963D01*
X751443Y67032D01*
X751482Y67099D01*
X751524Y67164D01*
X751569Y67227D01*
X751617Y67288D01*
X751668Y67346D01*
X751722Y67401D01*
X751779Y67454D01*
X751838Y67503D01*
X751900Y67550D01*
X751964Y67594D01*
X752030Y67634D01*
X752098Y67671D01*
X752168Y67705D01*
X752239Y67735D01*
X752312Y67761D01*
X752386Y67784D01*
X752461Y67803D01*
X752536Y67818D01*
X752613Y67830D01*
X752690Y67838D01*
X752767Y67842D01*
X752845Y67842D01*
X752922Y67838D01*
X752999Y67830D01*
X753076Y67818D01*
X753151Y67803D01*
X753226Y67784D01*
X753300Y67761D01*
X753373Y67735D01*
X753444Y67705D01*
X753514Y67671D01*
X753582Y67634D01*
X753648Y67594D01*
X753712Y67550D01*
X753774Y67503D01*
X753833Y67454D01*
X753890Y67401D01*
X753944Y67346D01*
X753995Y67288D01*
X754043Y67227D01*
X754088Y67164D01*
X754130Y67099D01*
X754169Y67032D01*
X754204Y66963D01*
X754236Y66893D01*
X754264Y66821D01*
X754289Y66747D01*
X754310Y66673D01*
X754327Y66598D01*
X754341Y66521D01*
X754350Y66445D01*
X754356Y66367D01*
X754358Y66290D01*
X754358Y63806D01*
X754356Y63729D01*
X754350Y63651D01*
X754341Y63575D01*
X754327Y63498D01*
X754310Y63423D01*
X754289Y63349D01*
X754264Y63275D01*
X754236Y63203D01*
X754204Y63133D01*
X754169Y63064D01*
X754130Y62997D01*
X754088Y62932D01*
X754043Y62869D01*
X753995Y62808D01*
X753944Y62750D01*
X753890Y62695D01*
X753833Y62642D01*
X753774Y62593D01*
X753712Y62546D01*
X753648Y62502D01*
X753582Y62462D01*
X753514Y62425D01*
X753444Y62391D01*
X753373Y62361D01*
X753300Y62335D01*
X753226Y62312D01*
X753151Y62293D01*
X753076Y62278D01*
X752999Y62266D01*
X752922Y62258D01*
X752845Y62254D01*
X752767Y62254D01*
X752690Y62258D01*
X752613Y62266D01*
X752536Y62278D01*
X752461Y62293D01*
X752386Y62312D01*
X752312Y62335D01*
X752239Y62361D01*
X752168Y62391D01*
X752098Y62425D01*
X752030Y62462D01*
X751964Y62502D01*
X751900Y62546D01*
X751838Y62593D01*
X751779Y62642D01*
X751722Y62695D01*
X751668Y62750D01*
X751617Y62808D01*
X751569Y62869D01*
X751524Y62932D01*
X751482Y62997D01*
X751443Y63064D01*
X751408Y63133D01*
X751376Y63203D01*
X751348Y63275D01*
X751323Y63349D01*
X751302Y63423D01*
X751285Y63498D01*
X751271Y63575D01*
X751262Y63651D01*
X751256Y63729D01*
X751254Y63806D01*
X756923Y63806D02*
X756923Y67842D01*
X756923Y63806D02*
X756925Y63729D01*
X756931Y63651D01*
X756940Y63575D01*
X756954Y63498D01*
X756971Y63423D01*
X756992Y63349D01*
X757017Y63275D01*
X757045Y63203D01*
X757077Y63133D01*
X757112Y63064D01*
X757151Y62997D01*
X757193Y62932D01*
X757238Y62869D01*
X757286Y62808D01*
X757337Y62750D01*
X757391Y62695D01*
X757448Y62642D01*
X757507Y62593D01*
X757569Y62546D01*
X757633Y62502D01*
X757699Y62462D01*
X757767Y62425D01*
X757837Y62391D01*
X757908Y62361D01*
X757981Y62335D01*
X758055Y62312D01*
X758130Y62293D01*
X758205Y62278D01*
X758282Y62266D01*
X758359Y62258D01*
X758436Y62254D01*
X758514Y62254D01*
X758591Y62258D01*
X758668Y62266D01*
X758745Y62278D01*
X758820Y62293D01*
X758895Y62312D01*
X758969Y62335D01*
X759042Y62361D01*
X759113Y62391D01*
X759183Y62425D01*
X759251Y62462D01*
X759317Y62502D01*
X759381Y62546D01*
X759443Y62593D01*
X759502Y62642D01*
X759559Y62695D01*
X759613Y62750D01*
X759664Y62808D01*
X759712Y62869D01*
X759757Y62932D01*
X759799Y62997D01*
X759838Y63064D01*
X759873Y63133D01*
X759905Y63203D01*
X759933Y63275D01*
X759958Y63349D01*
X759979Y63423D01*
X759996Y63498D01*
X760010Y63575D01*
X760019Y63651D01*
X760025Y63729D01*
X760027Y63806D01*
X760028Y63806D02*
X760028Y67842D01*
X763779Y67842D02*
X763779Y62254D01*
X762227Y67842D02*
X765331Y67842D01*
X383965Y61278D02*
X382724Y61278D01*
X382724Y61277D02*
X382654Y61279D01*
X382585Y61285D01*
X382516Y61295D01*
X382448Y61308D01*
X382380Y61326D01*
X382314Y61347D01*
X382249Y61372D01*
X382185Y61400D01*
X382123Y61432D01*
X382063Y61467D01*
X382005Y61506D01*
X381950Y61548D01*
X381896Y61593D01*
X381846Y61641D01*
X381798Y61691D01*
X381753Y61745D01*
X381711Y61800D01*
X381672Y61858D01*
X381637Y61918D01*
X381605Y61980D01*
X381577Y62044D01*
X381552Y62109D01*
X381531Y62175D01*
X381513Y62243D01*
X381500Y62311D01*
X381490Y62380D01*
X381484Y62449D01*
X381482Y62519D01*
X381482Y65624D01*
X381484Y65694D01*
X381490Y65763D01*
X381500Y65832D01*
X381513Y65900D01*
X381531Y65968D01*
X381552Y66034D01*
X381577Y66099D01*
X381605Y66163D01*
X381637Y66225D01*
X381672Y66285D01*
X381711Y66343D01*
X381753Y66398D01*
X381798Y66452D01*
X381846Y66502D01*
X381896Y66550D01*
X381950Y66595D01*
X382005Y66637D01*
X382063Y66676D01*
X382123Y66711D01*
X382185Y66743D01*
X382249Y66771D01*
X382314Y66796D01*
X382380Y66817D01*
X382448Y66835D01*
X382516Y66848D01*
X382585Y66858D01*
X382654Y66864D01*
X382724Y66866D01*
X383965Y66866D01*
X386253Y66866D02*
X386253Y62830D01*
X386255Y62753D01*
X386261Y62675D01*
X386270Y62599D01*
X386284Y62522D01*
X386301Y62447D01*
X386322Y62373D01*
X386347Y62299D01*
X386375Y62227D01*
X386407Y62157D01*
X386442Y62088D01*
X386481Y62021D01*
X386523Y61956D01*
X386568Y61893D01*
X386616Y61832D01*
X386667Y61774D01*
X386721Y61719D01*
X386778Y61666D01*
X386837Y61617D01*
X386899Y61570D01*
X386963Y61526D01*
X387029Y61486D01*
X387097Y61449D01*
X387167Y61415D01*
X387238Y61385D01*
X387311Y61359D01*
X387385Y61336D01*
X387460Y61317D01*
X387535Y61302D01*
X387612Y61290D01*
X387689Y61282D01*
X387766Y61278D01*
X387844Y61278D01*
X387921Y61282D01*
X387998Y61290D01*
X388075Y61302D01*
X388150Y61317D01*
X388225Y61336D01*
X388299Y61359D01*
X388372Y61385D01*
X388443Y61415D01*
X388513Y61449D01*
X388581Y61486D01*
X388647Y61526D01*
X388711Y61570D01*
X388773Y61617D01*
X388832Y61666D01*
X388889Y61719D01*
X388943Y61774D01*
X388994Y61832D01*
X389042Y61893D01*
X389087Y61956D01*
X389129Y62021D01*
X389168Y62088D01*
X389203Y62157D01*
X389235Y62227D01*
X389263Y62299D01*
X389288Y62373D01*
X389309Y62447D01*
X389326Y62522D01*
X389340Y62599D01*
X389349Y62675D01*
X389355Y62753D01*
X389357Y62830D01*
X389357Y66866D01*
X393109Y66866D02*
X393109Y61278D01*
X391556Y66866D02*
X394661Y66866D01*
X399603Y65313D02*
X399603Y62830D01*
X399603Y65313D02*
X399605Y65390D01*
X399611Y65468D01*
X399620Y65544D01*
X399634Y65621D01*
X399651Y65696D01*
X399672Y65770D01*
X399697Y65844D01*
X399725Y65916D01*
X399757Y65986D01*
X399792Y66055D01*
X399831Y66122D01*
X399873Y66187D01*
X399918Y66250D01*
X399966Y66311D01*
X400017Y66369D01*
X400071Y66424D01*
X400128Y66477D01*
X400187Y66526D01*
X400249Y66573D01*
X400313Y66617D01*
X400379Y66657D01*
X400447Y66694D01*
X400517Y66728D01*
X400588Y66758D01*
X400661Y66784D01*
X400735Y66807D01*
X400810Y66826D01*
X400885Y66841D01*
X400962Y66853D01*
X401039Y66861D01*
X401116Y66865D01*
X401194Y66865D01*
X401271Y66861D01*
X401348Y66853D01*
X401425Y66841D01*
X401500Y66826D01*
X401575Y66807D01*
X401649Y66784D01*
X401722Y66758D01*
X401793Y66728D01*
X401863Y66694D01*
X401931Y66657D01*
X401997Y66617D01*
X402061Y66573D01*
X402123Y66526D01*
X402182Y66477D01*
X402239Y66424D01*
X402293Y66369D01*
X402344Y66311D01*
X402392Y66250D01*
X402437Y66187D01*
X402479Y66122D01*
X402518Y66055D01*
X402553Y65986D01*
X402585Y65916D01*
X402613Y65844D01*
X402638Y65770D01*
X402659Y65696D01*
X402676Y65621D01*
X402690Y65544D01*
X402699Y65468D01*
X402705Y65390D01*
X402707Y65313D01*
X402707Y62830D01*
X402705Y62753D01*
X402699Y62675D01*
X402690Y62599D01*
X402676Y62522D01*
X402659Y62447D01*
X402638Y62373D01*
X402613Y62299D01*
X402585Y62227D01*
X402553Y62157D01*
X402518Y62088D01*
X402479Y62021D01*
X402437Y61956D01*
X402392Y61893D01*
X402344Y61832D01*
X402293Y61774D01*
X402239Y61719D01*
X402182Y61666D01*
X402123Y61617D01*
X402061Y61570D01*
X401997Y61526D01*
X401931Y61486D01*
X401863Y61449D01*
X401793Y61415D01*
X401722Y61385D01*
X401649Y61359D01*
X401575Y61336D01*
X401500Y61317D01*
X401425Y61302D01*
X401348Y61290D01*
X401271Y61282D01*
X401194Y61278D01*
X401116Y61278D01*
X401039Y61282D01*
X400962Y61290D01*
X400885Y61302D01*
X400810Y61317D01*
X400735Y61336D01*
X400661Y61359D01*
X400588Y61385D01*
X400517Y61415D01*
X400447Y61449D01*
X400379Y61486D01*
X400313Y61526D01*
X400249Y61570D01*
X400187Y61617D01*
X400128Y61666D01*
X400071Y61719D01*
X400017Y61774D01*
X399966Y61832D01*
X399918Y61893D01*
X399873Y61956D01*
X399831Y62021D01*
X399792Y62088D01*
X399757Y62157D01*
X399725Y62227D01*
X399697Y62299D01*
X399672Y62373D01*
X399651Y62447D01*
X399634Y62522D01*
X399620Y62599D01*
X399611Y62675D01*
X399605Y62753D01*
X399603Y62830D01*
X405272Y62830D02*
X405272Y66866D01*
X405273Y62830D02*
X405275Y62753D01*
X405281Y62675D01*
X405290Y62599D01*
X405304Y62522D01*
X405321Y62447D01*
X405342Y62373D01*
X405367Y62299D01*
X405395Y62227D01*
X405427Y62157D01*
X405462Y62088D01*
X405501Y62021D01*
X405543Y61956D01*
X405588Y61893D01*
X405636Y61832D01*
X405687Y61774D01*
X405741Y61719D01*
X405798Y61666D01*
X405857Y61617D01*
X405919Y61570D01*
X405983Y61526D01*
X406049Y61486D01*
X406117Y61449D01*
X406187Y61415D01*
X406258Y61385D01*
X406331Y61359D01*
X406405Y61336D01*
X406480Y61317D01*
X406555Y61302D01*
X406632Y61290D01*
X406709Y61282D01*
X406786Y61278D01*
X406864Y61278D01*
X406941Y61282D01*
X407018Y61290D01*
X407095Y61302D01*
X407170Y61317D01*
X407245Y61336D01*
X407319Y61359D01*
X407392Y61385D01*
X407463Y61415D01*
X407533Y61449D01*
X407601Y61486D01*
X407667Y61526D01*
X407731Y61570D01*
X407793Y61617D01*
X407852Y61666D01*
X407909Y61719D01*
X407963Y61774D01*
X408014Y61832D01*
X408062Y61893D01*
X408107Y61956D01*
X408149Y62021D01*
X408188Y62088D01*
X408223Y62157D01*
X408255Y62227D01*
X408283Y62299D01*
X408308Y62373D01*
X408329Y62447D01*
X408346Y62522D01*
X408360Y62599D01*
X408369Y62675D01*
X408375Y62753D01*
X408377Y62830D01*
X408377Y66866D01*
X412128Y66866D02*
X412128Y61278D01*
X410576Y66866D02*
X413680Y66866D01*
X540496Y61254D02*
X541738Y61254D01*
X540496Y61254D02*
X540426Y61256D01*
X540357Y61262D01*
X540288Y61272D01*
X540220Y61285D01*
X540152Y61303D01*
X540086Y61324D01*
X540021Y61349D01*
X539957Y61377D01*
X539895Y61409D01*
X539835Y61444D01*
X539777Y61483D01*
X539722Y61525D01*
X539668Y61570D01*
X539618Y61618D01*
X539570Y61668D01*
X539525Y61722D01*
X539483Y61777D01*
X539444Y61835D01*
X539409Y61895D01*
X539377Y61957D01*
X539349Y62021D01*
X539324Y62086D01*
X539303Y62152D01*
X539285Y62220D01*
X539272Y62288D01*
X539262Y62357D01*
X539256Y62426D01*
X539254Y62496D01*
X539254Y65600D01*
X539256Y65670D01*
X539262Y65739D01*
X539272Y65808D01*
X539285Y65876D01*
X539303Y65944D01*
X539324Y66010D01*
X539349Y66075D01*
X539377Y66139D01*
X539409Y66201D01*
X539444Y66261D01*
X539483Y66319D01*
X539525Y66374D01*
X539570Y66428D01*
X539618Y66478D01*
X539668Y66526D01*
X539722Y66571D01*
X539777Y66613D01*
X539835Y66652D01*
X539895Y66687D01*
X539957Y66719D01*
X540021Y66747D01*
X540086Y66772D01*
X540152Y66793D01*
X540220Y66811D01*
X540288Y66824D01*
X540357Y66834D01*
X540426Y66840D01*
X540496Y66842D01*
X541738Y66842D01*
X544025Y66842D02*
X544025Y62806D01*
X544027Y62729D01*
X544033Y62651D01*
X544042Y62575D01*
X544056Y62498D01*
X544073Y62423D01*
X544094Y62349D01*
X544119Y62275D01*
X544147Y62203D01*
X544179Y62133D01*
X544214Y62064D01*
X544253Y61997D01*
X544295Y61932D01*
X544340Y61869D01*
X544388Y61808D01*
X544439Y61750D01*
X544493Y61695D01*
X544550Y61642D01*
X544609Y61593D01*
X544671Y61546D01*
X544735Y61502D01*
X544801Y61462D01*
X544869Y61425D01*
X544939Y61391D01*
X545010Y61361D01*
X545083Y61335D01*
X545157Y61312D01*
X545232Y61293D01*
X545307Y61278D01*
X545384Y61266D01*
X545461Y61258D01*
X545538Y61254D01*
X545616Y61254D01*
X545693Y61258D01*
X545770Y61266D01*
X545847Y61278D01*
X545922Y61293D01*
X545997Y61312D01*
X546071Y61335D01*
X546144Y61361D01*
X546215Y61391D01*
X546285Y61425D01*
X546353Y61462D01*
X546419Y61502D01*
X546483Y61546D01*
X546545Y61593D01*
X546604Y61642D01*
X546661Y61695D01*
X546715Y61750D01*
X546766Y61808D01*
X546814Y61869D01*
X546859Y61932D01*
X546901Y61997D01*
X546940Y62064D01*
X546975Y62133D01*
X547007Y62203D01*
X547035Y62275D01*
X547060Y62349D01*
X547081Y62423D01*
X547098Y62498D01*
X547112Y62575D01*
X547121Y62651D01*
X547127Y62729D01*
X547129Y62806D01*
X547130Y62806D02*
X547130Y66842D01*
X550881Y66842D02*
X550881Y61254D01*
X549329Y66842D02*
X552433Y66842D01*
X557375Y65290D02*
X557375Y62806D01*
X557375Y65290D02*
X557377Y65367D01*
X557383Y65445D01*
X557392Y65521D01*
X557406Y65598D01*
X557423Y65673D01*
X557444Y65747D01*
X557469Y65821D01*
X557497Y65893D01*
X557529Y65963D01*
X557564Y66032D01*
X557603Y66099D01*
X557645Y66164D01*
X557690Y66227D01*
X557738Y66288D01*
X557789Y66346D01*
X557843Y66401D01*
X557900Y66454D01*
X557959Y66503D01*
X558021Y66550D01*
X558085Y66594D01*
X558151Y66634D01*
X558219Y66671D01*
X558289Y66705D01*
X558360Y66735D01*
X558433Y66761D01*
X558507Y66784D01*
X558582Y66803D01*
X558657Y66818D01*
X558734Y66830D01*
X558811Y66838D01*
X558888Y66842D01*
X558966Y66842D01*
X559043Y66838D01*
X559120Y66830D01*
X559197Y66818D01*
X559272Y66803D01*
X559347Y66784D01*
X559421Y66761D01*
X559494Y66735D01*
X559565Y66705D01*
X559635Y66671D01*
X559703Y66634D01*
X559769Y66594D01*
X559833Y66550D01*
X559895Y66503D01*
X559954Y66454D01*
X560011Y66401D01*
X560065Y66346D01*
X560116Y66288D01*
X560164Y66227D01*
X560209Y66164D01*
X560251Y66099D01*
X560290Y66032D01*
X560325Y65963D01*
X560357Y65893D01*
X560385Y65821D01*
X560410Y65747D01*
X560431Y65673D01*
X560448Y65598D01*
X560462Y65521D01*
X560471Y65445D01*
X560477Y65367D01*
X560479Y65290D01*
X560480Y65290D02*
X560480Y62806D01*
X560479Y62806D02*
X560477Y62729D01*
X560471Y62651D01*
X560462Y62575D01*
X560448Y62498D01*
X560431Y62423D01*
X560410Y62349D01*
X560385Y62275D01*
X560357Y62203D01*
X560325Y62133D01*
X560290Y62064D01*
X560251Y61997D01*
X560209Y61932D01*
X560164Y61869D01*
X560116Y61808D01*
X560065Y61750D01*
X560011Y61695D01*
X559954Y61642D01*
X559895Y61593D01*
X559833Y61546D01*
X559769Y61502D01*
X559703Y61462D01*
X559635Y61425D01*
X559565Y61391D01*
X559494Y61361D01*
X559421Y61335D01*
X559347Y61312D01*
X559272Y61293D01*
X559197Y61278D01*
X559120Y61266D01*
X559043Y61258D01*
X558966Y61254D01*
X558888Y61254D01*
X558811Y61258D01*
X558734Y61266D01*
X558657Y61278D01*
X558582Y61293D01*
X558507Y61312D01*
X558433Y61335D01*
X558360Y61361D01*
X558289Y61391D01*
X558219Y61425D01*
X558151Y61462D01*
X558085Y61502D01*
X558021Y61546D01*
X557959Y61593D01*
X557900Y61642D01*
X557843Y61695D01*
X557789Y61750D01*
X557738Y61808D01*
X557690Y61869D01*
X557645Y61932D01*
X557603Y61997D01*
X557564Y62064D01*
X557529Y62133D01*
X557497Y62203D01*
X557469Y62275D01*
X557444Y62349D01*
X557423Y62423D01*
X557406Y62498D01*
X557392Y62575D01*
X557383Y62651D01*
X557377Y62729D01*
X557375Y62806D01*
X563045Y62806D02*
X563045Y66842D01*
X563045Y62806D02*
X563047Y62729D01*
X563053Y62651D01*
X563062Y62575D01*
X563076Y62498D01*
X563093Y62423D01*
X563114Y62349D01*
X563139Y62275D01*
X563167Y62203D01*
X563199Y62133D01*
X563234Y62064D01*
X563273Y61997D01*
X563315Y61932D01*
X563360Y61869D01*
X563408Y61808D01*
X563459Y61750D01*
X563513Y61695D01*
X563570Y61642D01*
X563629Y61593D01*
X563691Y61546D01*
X563755Y61502D01*
X563821Y61462D01*
X563889Y61425D01*
X563959Y61391D01*
X564030Y61361D01*
X564103Y61335D01*
X564177Y61312D01*
X564252Y61293D01*
X564327Y61278D01*
X564404Y61266D01*
X564481Y61258D01*
X564558Y61254D01*
X564636Y61254D01*
X564713Y61258D01*
X564790Y61266D01*
X564867Y61278D01*
X564942Y61293D01*
X565017Y61312D01*
X565091Y61335D01*
X565164Y61361D01*
X565235Y61391D01*
X565305Y61425D01*
X565373Y61462D01*
X565439Y61502D01*
X565503Y61546D01*
X565565Y61593D01*
X565624Y61642D01*
X565681Y61695D01*
X565735Y61750D01*
X565786Y61808D01*
X565834Y61869D01*
X565879Y61932D01*
X565921Y61997D01*
X565960Y62064D01*
X565995Y62133D01*
X566027Y62203D01*
X566055Y62275D01*
X566080Y62349D01*
X566101Y62423D01*
X566118Y62498D01*
X566132Y62575D01*
X566141Y62651D01*
X566147Y62729D01*
X566149Y62806D01*
X566149Y66842D01*
X569900Y66842D02*
X569900Y61254D01*
X568348Y66842D02*
X571452Y66842D01*
X459463Y61142D02*
X458221Y61142D01*
X458151Y61144D01*
X458082Y61150D01*
X458013Y61160D01*
X457945Y61173D01*
X457877Y61191D01*
X457811Y61212D01*
X457746Y61237D01*
X457682Y61265D01*
X457620Y61297D01*
X457560Y61332D01*
X457502Y61371D01*
X457447Y61413D01*
X457393Y61458D01*
X457343Y61506D01*
X457295Y61556D01*
X457250Y61610D01*
X457208Y61665D01*
X457169Y61723D01*
X457134Y61783D01*
X457102Y61845D01*
X457074Y61909D01*
X457049Y61974D01*
X457028Y62040D01*
X457010Y62108D01*
X456997Y62176D01*
X456987Y62245D01*
X456981Y62314D01*
X456979Y62384D01*
X456979Y65488D01*
X456981Y65558D01*
X456987Y65627D01*
X456997Y65696D01*
X457010Y65764D01*
X457028Y65832D01*
X457049Y65898D01*
X457074Y65963D01*
X457102Y66027D01*
X457134Y66089D01*
X457169Y66149D01*
X457208Y66207D01*
X457250Y66262D01*
X457295Y66316D01*
X457343Y66366D01*
X457393Y66414D01*
X457447Y66459D01*
X457502Y66501D01*
X457560Y66540D01*
X457620Y66575D01*
X457682Y66607D01*
X457746Y66635D01*
X457811Y66660D01*
X457877Y66681D01*
X457945Y66699D01*
X458013Y66712D01*
X458082Y66722D01*
X458151Y66728D01*
X458221Y66730D01*
X459463Y66730D01*
X461750Y66730D02*
X461750Y62694D01*
X461751Y62694D02*
X461753Y62617D01*
X461759Y62539D01*
X461768Y62463D01*
X461782Y62386D01*
X461799Y62311D01*
X461820Y62237D01*
X461845Y62163D01*
X461873Y62091D01*
X461905Y62021D01*
X461940Y61952D01*
X461979Y61885D01*
X462021Y61820D01*
X462066Y61757D01*
X462114Y61696D01*
X462165Y61638D01*
X462219Y61583D01*
X462276Y61530D01*
X462335Y61481D01*
X462397Y61434D01*
X462461Y61390D01*
X462527Y61350D01*
X462595Y61313D01*
X462665Y61279D01*
X462736Y61249D01*
X462809Y61223D01*
X462883Y61200D01*
X462958Y61181D01*
X463033Y61166D01*
X463110Y61154D01*
X463187Y61146D01*
X463264Y61142D01*
X463342Y61142D01*
X463419Y61146D01*
X463496Y61154D01*
X463573Y61166D01*
X463648Y61181D01*
X463723Y61200D01*
X463797Y61223D01*
X463870Y61249D01*
X463941Y61279D01*
X464011Y61313D01*
X464079Y61350D01*
X464145Y61390D01*
X464209Y61434D01*
X464271Y61481D01*
X464330Y61530D01*
X464387Y61583D01*
X464441Y61638D01*
X464492Y61696D01*
X464540Y61757D01*
X464585Y61820D01*
X464627Y61885D01*
X464666Y61952D01*
X464701Y62021D01*
X464733Y62091D01*
X464761Y62163D01*
X464786Y62237D01*
X464807Y62311D01*
X464824Y62386D01*
X464838Y62463D01*
X464847Y62539D01*
X464853Y62617D01*
X464855Y62694D01*
X464855Y66730D01*
X468606Y66730D02*
X468606Y61142D01*
X467054Y66730D02*
X470158Y66730D01*
X475100Y65178D02*
X475100Y62694D01*
X475101Y65178D02*
X475103Y65255D01*
X475109Y65333D01*
X475118Y65409D01*
X475132Y65486D01*
X475149Y65561D01*
X475170Y65635D01*
X475195Y65709D01*
X475223Y65781D01*
X475255Y65851D01*
X475290Y65920D01*
X475329Y65987D01*
X475371Y66052D01*
X475416Y66115D01*
X475464Y66176D01*
X475515Y66234D01*
X475569Y66289D01*
X475626Y66342D01*
X475685Y66391D01*
X475747Y66438D01*
X475811Y66482D01*
X475877Y66522D01*
X475945Y66559D01*
X476015Y66593D01*
X476086Y66623D01*
X476159Y66649D01*
X476233Y66672D01*
X476308Y66691D01*
X476383Y66706D01*
X476460Y66718D01*
X476537Y66726D01*
X476614Y66730D01*
X476692Y66730D01*
X476769Y66726D01*
X476846Y66718D01*
X476923Y66706D01*
X476998Y66691D01*
X477073Y66672D01*
X477147Y66649D01*
X477220Y66623D01*
X477291Y66593D01*
X477361Y66559D01*
X477429Y66522D01*
X477495Y66482D01*
X477559Y66438D01*
X477621Y66391D01*
X477680Y66342D01*
X477737Y66289D01*
X477791Y66234D01*
X477842Y66176D01*
X477890Y66115D01*
X477935Y66052D01*
X477977Y65987D01*
X478016Y65920D01*
X478051Y65851D01*
X478083Y65781D01*
X478111Y65709D01*
X478136Y65635D01*
X478157Y65561D01*
X478174Y65486D01*
X478188Y65409D01*
X478197Y65333D01*
X478203Y65255D01*
X478205Y65178D01*
X478205Y62694D01*
X478203Y62617D01*
X478197Y62539D01*
X478188Y62463D01*
X478174Y62386D01*
X478157Y62311D01*
X478136Y62237D01*
X478111Y62163D01*
X478083Y62091D01*
X478051Y62021D01*
X478016Y61952D01*
X477977Y61885D01*
X477935Y61820D01*
X477890Y61757D01*
X477842Y61696D01*
X477791Y61638D01*
X477737Y61583D01*
X477680Y61530D01*
X477621Y61481D01*
X477559Y61434D01*
X477495Y61390D01*
X477429Y61350D01*
X477361Y61313D01*
X477291Y61279D01*
X477220Y61249D01*
X477147Y61223D01*
X477073Y61200D01*
X476998Y61181D01*
X476923Y61166D01*
X476846Y61154D01*
X476769Y61146D01*
X476692Y61142D01*
X476614Y61142D01*
X476537Y61146D01*
X476460Y61154D01*
X476383Y61166D01*
X476308Y61181D01*
X476233Y61200D01*
X476159Y61223D01*
X476086Y61249D01*
X476015Y61279D01*
X475945Y61313D01*
X475877Y61350D01*
X475811Y61390D01*
X475747Y61434D01*
X475685Y61481D01*
X475626Y61530D01*
X475569Y61583D01*
X475515Y61638D01*
X475464Y61696D01*
X475416Y61757D01*
X475371Y61820D01*
X475329Y61885D01*
X475290Y61952D01*
X475255Y62021D01*
X475223Y62091D01*
X475195Y62163D01*
X475170Y62237D01*
X475149Y62311D01*
X475132Y62386D01*
X475118Y62463D01*
X475109Y62539D01*
X475103Y62617D01*
X475101Y62694D01*
X480770Y62694D02*
X480770Y66730D01*
X480770Y62694D02*
X480772Y62617D01*
X480778Y62539D01*
X480787Y62463D01*
X480801Y62386D01*
X480818Y62311D01*
X480839Y62237D01*
X480864Y62163D01*
X480892Y62091D01*
X480924Y62021D01*
X480959Y61952D01*
X480998Y61885D01*
X481040Y61820D01*
X481085Y61757D01*
X481133Y61696D01*
X481184Y61638D01*
X481238Y61583D01*
X481295Y61530D01*
X481354Y61481D01*
X481416Y61434D01*
X481480Y61390D01*
X481546Y61350D01*
X481614Y61313D01*
X481684Y61279D01*
X481755Y61249D01*
X481828Y61223D01*
X481902Y61200D01*
X481977Y61181D01*
X482052Y61166D01*
X482129Y61154D01*
X482206Y61146D01*
X482283Y61142D01*
X482361Y61142D01*
X482438Y61146D01*
X482515Y61154D01*
X482592Y61166D01*
X482667Y61181D01*
X482742Y61200D01*
X482816Y61223D01*
X482889Y61249D01*
X482960Y61279D01*
X483030Y61313D01*
X483098Y61350D01*
X483164Y61390D01*
X483228Y61434D01*
X483290Y61481D01*
X483349Y61530D01*
X483406Y61583D01*
X483460Y61638D01*
X483511Y61696D01*
X483559Y61757D01*
X483604Y61820D01*
X483646Y61885D01*
X483685Y61952D01*
X483720Y62021D01*
X483752Y62091D01*
X483780Y62163D01*
X483805Y62237D01*
X483826Y62311D01*
X483843Y62386D01*
X483857Y62463D01*
X483866Y62539D01*
X483872Y62617D01*
X483874Y62694D01*
X483874Y66730D01*
X487625Y66730D02*
X487625Y61142D01*
X486073Y66730D02*
X489178Y66730D01*
D12*
X558416Y40207D02*
X558416Y36594D01*
X558416Y40207D02*
X558414Y40326D01*
X558408Y40446D01*
X558398Y40565D01*
X558384Y40683D01*
X558367Y40802D01*
X558345Y40919D01*
X558320Y41036D01*
X558290Y41151D01*
X558257Y41266D01*
X558220Y41380D01*
X558180Y41492D01*
X558135Y41603D01*
X558087Y41712D01*
X558036Y41820D01*
X557981Y41926D01*
X557922Y42030D01*
X557860Y42132D01*
X557795Y42232D01*
X557726Y42330D01*
X557654Y42426D01*
X557579Y42519D01*
X557502Y42609D01*
X557421Y42697D01*
X557337Y42782D01*
X557250Y42864D01*
X557161Y42944D01*
X557069Y43020D01*
X556975Y43094D01*
X556878Y43164D01*
X556780Y43231D01*
X556679Y43295D01*
X556575Y43355D01*
X556470Y43412D01*
X556363Y43465D01*
X556255Y43515D01*
X556145Y43561D01*
X556033Y43603D01*
X555920Y43642D01*
X555806Y43677D01*
X555691Y43708D01*
X555574Y43736D01*
X555457Y43759D01*
X555340Y43779D01*
X555221Y43795D01*
X555102Y43807D01*
X554983Y43815D01*
X554864Y43819D01*
X554744Y43819D01*
X554625Y43815D01*
X554506Y43807D01*
X554387Y43795D01*
X554268Y43779D01*
X554151Y43759D01*
X554034Y43736D01*
X553917Y43708D01*
X553802Y43677D01*
X553688Y43642D01*
X553575Y43603D01*
X553463Y43561D01*
X553353Y43515D01*
X553245Y43465D01*
X553138Y43412D01*
X553033Y43355D01*
X552929Y43295D01*
X552828Y43231D01*
X552730Y43164D01*
X552633Y43094D01*
X552539Y43020D01*
X552447Y42944D01*
X552358Y42864D01*
X552271Y42782D01*
X552187Y42697D01*
X552106Y42609D01*
X552029Y42519D01*
X551954Y42426D01*
X551882Y42330D01*
X551813Y42232D01*
X551748Y42132D01*
X551686Y42030D01*
X551627Y41926D01*
X551572Y41820D01*
X551521Y41712D01*
X551473Y41603D01*
X551428Y41492D01*
X551388Y41380D01*
X551351Y41266D01*
X551318Y41151D01*
X551288Y41036D01*
X551263Y40919D01*
X551241Y40802D01*
X551224Y40683D01*
X551210Y40565D01*
X551200Y40446D01*
X551194Y40326D01*
X551192Y40207D01*
X551191Y40207D02*
X551191Y36594D01*
X551192Y36594D02*
X551194Y36475D01*
X551200Y36355D01*
X551210Y36236D01*
X551224Y36118D01*
X551241Y35999D01*
X551263Y35882D01*
X551288Y35765D01*
X551318Y35650D01*
X551351Y35535D01*
X551388Y35421D01*
X551428Y35309D01*
X551473Y35198D01*
X551521Y35089D01*
X551572Y34981D01*
X551627Y34875D01*
X551686Y34771D01*
X551748Y34669D01*
X551813Y34569D01*
X551882Y34471D01*
X551954Y34375D01*
X552029Y34282D01*
X552106Y34192D01*
X552187Y34104D01*
X552271Y34019D01*
X552358Y33937D01*
X552447Y33857D01*
X552539Y33781D01*
X552633Y33707D01*
X552730Y33637D01*
X552828Y33570D01*
X552929Y33506D01*
X553033Y33446D01*
X553138Y33389D01*
X553245Y33336D01*
X553353Y33286D01*
X553463Y33240D01*
X553575Y33198D01*
X553688Y33159D01*
X553802Y33124D01*
X553917Y33093D01*
X554034Y33065D01*
X554151Y33042D01*
X554268Y33022D01*
X554387Y33006D01*
X554506Y32994D01*
X554625Y32986D01*
X554744Y32982D01*
X554864Y32982D01*
X554983Y32986D01*
X555102Y32994D01*
X555221Y33006D01*
X555340Y33022D01*
X555457Y33042D01*
X555574Y33065D01*
X555691Y33093D01*
X555806Y33124D01*
X555920Y33159D01*
X556033Y33198D01*
X556145Y33240D01*
X556255Y33286D01*
X556363Y33336D01*
X556470Y33389D01*
X556575Y33446D01*
X556679Y33506D01*
X556780Y33570D01*
X556878Y33637D01*
X556975Y33707D01*
X557069Y33781D01*
X557161Y33857D01*
X557250Y33937D01*
X557337Y34019D01*
X557421Y34104D01*
X557502Y34192D01*
X557579Y34282D01*
X557654Y34375D01*
X557726Y34471D01*
X557795Y34569D01*
X557860Y34669D01*
X557922Y34771D01*
X557981Y34875D01*
X558036Y34981D01*
X558087Y35089D01*
X558135Y35198D01*
X558180Y35309D01*
X558220Y35421D01*
X558257Y35535D01*
X558290Y35650D01*
X558320Y35765D01*
X558345Y35882D01*
X558367Y35999D01*
X558384Y36118D01*
X558398Y36236D01*
X558408Y36355D01*
X558414Y36475D01*
X558416Y36594D01*
X544275Y43819D02*
X544275Y27563D01*
X544275Y43819D02*
X539759Y43819D01*
X539655Y43817D01*
X539552Y43811D01*
X539448Y43801D01*
X539345Y43787D01*
X539243Y43769D01*
X539142Y43748D01*
X539041Y43722D01*
X538942Y43693D01*
X538843Y43660D01*
X538746Y43623D01*
X538651Y43582D01*
X538557Y43538D01*
X538465Y43490D01*
X538375Y43439D01*
X538286Y43384D01*
X538200Y43326D01*
X538117Y43264D01*
X538035Y43200D01*
X537957Y43132D01*
X537881Y43062D01*
X537807Y42989D01*
X537737Y42912D01*
X537669Y42834D01*
X537605Y42752D01*
X537543Y42669D01*
X537485Y42583D01*
X537430Y42494D01*
X537379Y42404D01*
X537331Y42312D01*
X537287Y42218D01*
X537246Y42123D01*
X537209Y42026D01*
X537176Y41927D01*
X537147Y41828D01*
X537121Y41727D01*
X537100Y41626D01*
X537082Y41524D01*
X537068Y41421D01*
X537058Y41317D01*
X537052Y41214D01*
X537050Y41110D01*
X537050Y35691D01*
X537052Y35590D01*
X537058Y35489D01*
X537067Y35388D01*
X537080Y35287D01*
X537097Y35187D01*
X537118Y35088D01*
X537142Y34990D01*
X537170Y34893D01*
X537202Y34796D01*
X537237Y34701D01*
X537276Y34608D01*
X537318Y34516D01*
X537364Y34425D01*
X537413Y34336D01*
X537465Y34250D01*
X537521Y34165D01*
X537579Y34082D01*
X537641Y34002D01*
X537706Y33924D01*
X537773Y33848D01*
X537843Y33775D01*
X537916Y33705D01*
X537992Y33638D01*
X538070Y33573D01*
X538150Y33511D01*
X538233Y33453D01*
X538318Y33397D01*
X538405Y33345D01*
X538493Y33296D01*
X538584Y33250D01*
X538676Y33208D01*
X538769Y33169D01*
X538864Y33134D01*
X538961Y33102D01*
X539058Y33074D01*
X539156Y33050D01*
X539255Y33029D01*
X539355Y33012D01*
X539456Y32999D01*
X539557Y32990D01*
X539658Y32984D01*
X539759Y32982D01*
X544275Y32982D01*
X528092Y32982D02*
X523576Y32982D01*
X528092Y32982D02*
X528193Y32984D01*
X528294Y32990D01*
X528395Y32999D01*
X528496Y33012D01*
X528596Y33029D01*
X528695Y33050D01*
X528793Y33074D01*
X528890Y33102D01*
X528987Y33134D01*
X529082Y33169D01*
X529175Y33208D01*
X529267Y33250D01*
X529358Y33296D01*
X529447Y33345D01*
X529533Y33397D01*
X529618Y33453D01*
X529701Y33511D01*
X529781Y33573D01*
X529859Y33638D01*
X529935Y33705D01*
X530008Y33775D01*
X530078Y33848D01*
X530145Y33924D01*
X530210Y34002D01*
X530272Y34082D01*
X530330Y34165D01*
X530386Y34250D01*
X530438Y34336D01*
X530487Y34425D01*
X530533Y34516D01*
X530575Y34608D01*
X530614Y34701D01*
X530649Y34796D01*
X530681Y34893D01*
X530709Y34990D01*
X530733Y35088D01*
X530754Y35187D01*
X530771Y35287D01*
X530784Y35388D01*
X530793Y35489D01*
X530799Y35590D01*
X530801Y35691D01*
X530801Y40207D01*
X530800Y40207D02*
X530798Y40326D01*
X530792Y40446D01*
X530782Y40565D01*
X530768Y40683D01*
X530751Y40802D01*
X530729Y40919D01*
X530704Y41036D01*
X530674Y41151D01*
X530641Y41266D01*
X530604Y41380D01*
X530564Y41492D01*
X530519Y41603D01*
X530471Y41712D01*
X530420Y41820D01*
X530365Y41926D01*
X530306Y42030D01*
X530244Y42132D01*
X530179Y42232D01*
X530110Y42330D01*
X530038Y42426D01*
X529963Y42519D01*
X529886Y42609D01*
X529805Y42697D01*
X529721Y42782D01*
X529634Y42864D01*
X529545Y42944D01*
X529453Y43020D01*
X529359Y43094D01*
X529262Y43164D01*
X529164Y43231D01*
X529063Y43295D01*
X528959Y43355D01*
X528854Y43412D01*
X528747Y43465D01*
X528639Y43515D01*
X528529Y43561D01*
X528417Y43603D01*
X528304Y43642D01*
X528190Y43677D01*
X528075Y43708D01*
X527958Y43736D01*
X527841Y43759D01*
X527724Y43779D01*
X527605Y43795D01*
X527486Y43807D01*
X527367Y43815D01*
X527248Y43819D01*
X527128Y43819D01*
X527009Y43815D01*
X526890Y43807D01*
X526771Y43795D01*
X526652Y43779D01*
X526535Y43759D01*
X526418Y43736D01*
X526301Y43708D01*
X526186Y43677D01*
X526072Y43642D01*
X525959Y43603D01*
X525847Y43561D01*
X525737Y43515D01*
X525629Y43465D01*
X525522Y43412D01*
X525417Y43355D01*
X525313Y43295D01*
X525212Y43231D01*
X525114Y43164D01*
X525017Y43094D01*
X524923Y43020D01*
X524831Y42944D01*
X524742Y42864D01*
X524655Y42782D01*
X524571Y42697D01*
X524490Y42609D01*
X524413Y42519D01*
X524338Y42426D01*
X524266Y42330D01*
X524197Y42232D01*
X524132Y42132D01*
X524070Y42030D01*
X524011Y41926D01*
X523956Y41820D01*
X523905Y41712D01*
X523857Y41603D01*
X523812Y41492D01*
X523772Y41380D01*
X523735Y41266D01*
X523702Y41151D01*
X523672Y41036D01*
X523647Y40919D01*
X523625Y40802D01*
X523608Y40683D01*
X523594Y40565D01*
X523584Y40446D01*
X523578Y40326D01*
X523576Y40207D01*
X523576Y38401D01*
X530801Y38401D01*
X516733Y32982D02*
X516733Y43819D01*
X512217Y43819D01*
X512113Y43817D01*
X512010Y43811D01*
X511906Y43801D01*
X511803Y43787D01*
X511701Y43769D01*
X511600Y43748D01*
X511499Y43722D01*
X511400Y43693D01*
X511301Y43660D01*
X511204Y43623D01*
X511109Y43582D01*
X511015Y43538D01*
X510923Y43490D01*
X510833Y43439D01*
X510744Y43384D01*
X510658Y43326D01*
X510575Y43264D01*
X510493Y43200D01*
X510415Y43132D01*
X510339Y43062D01*
X510265Y42989D01*
X510195Y42912D01*
X510127Y42834D01*
X510063Y42752D01*
X510001Y42669D01*
X509943Y42583D01*
X509888Y42494D01*
X509837Y42404D01*
X509789Y42312D01*
X509745Y42218D01*
X509704Y42123D01*
X509667Y42026D01*
X509634Y41927D01*
X509605Y41828D01*
X509579Y41727D01*
X509558Y41626D01*
X509540Y41524D01*
X509526Y41421D01*
X509516Y41317D01*
X509510Y41214D01*
X509508Y41110D01*
X509508Y32982D01*
X497628Y32982D02*
X497510Y32984D01*
X497392Y32990D01*
X497274Y32999D01*
X497157Y33013D01*
X497040Y33030D01*
X496923Y33051D01*
X496808Y33076D01*
X496693Y33105D01*
X496579Y33138D01*
X496467Y33174D01*
X496356Y33214D01*
X496246Y33257D01*
X496137Y33304D01*
X496030Y33354D01*
X495925Y33409D01*
X495822Y33466D01*
X495721Y33527D01*
X495621Y33591D01*
X495524Y33658D01*
X495429Y33728D01*
X495337Y33802D01*
X495246Y33878D01*
X495159Y33958D01*
X495074Y34040D01*
X494992Y34125D01*
X494912Y34212D01*
X494836Y34303D01*
X494762Y34395D01*
X494692Y34490D01*
X494625Y34587D01*
X494561Y34687D01*
X494500Y34788D01*
X494443Y34891D01*
X494388Y34996D01*
X494338Y35103D01*
X494291Y35212D01*
X494248Y35322D01*
X494208Y35433D01*
X494172Y35545D01*
X494139Y35659D01*
X494110Y35774D01*
X494085Y35889D01*
X494064Y36006D01*
X494047Y36123D01*
X494033Y36240D01*
X494024Y36358D01*
X494018Y36476D01*
X494016Y36594D01*
X497628Y32982D02*
X497811Y32984D01*
X497993Y32991D01*
X498175Y33002D01*
X498357Y33017D01*
X498539Y33037D01*
X498720Y33061D01*
X498900Y33089D01*
X499080Y33121D01*
X499259Y33158D01*
X499436Y33199D01*
X499613Y33245D01*
X499789Y33294D01*
X499964Y33348D01*
X500137Y33406D01*
X500308Y33468D01*
X500479Y33534D01*
X500647Y33605D01*
X500814Y33679D01*
X500979Y33757D01*
X501142Y33839D01*
X501303Y33925D01*
X501462Y34015D01*
X501619Y34109D01*
X501773Y34206D01*
X501925Y34307D01*
X502075Y34412D01*
X502222Y34520D01*
X502366Y34631D01*
X502508Y34746D01*
X502647Y34865D01*
X502783Y34987D01*
X502916Y35112D01*
X503046Y35240D01*
X502595Y45626D02*
X502593Y45744D01*
X502587Y45862D01*
X502578Y45980D01*
X502564Y46097D01*
X502547Y46214D01*
X502526Y46331D01*
X502501Y46446D01*
X502472Y46561D01*
X502439Y46675D01*
X502403Y46787D01*
X502363Y46898D01*
X502320Y47008D01*
X502273Y47117D01*
X502223Y47224D01*
X502168Y47329D01*
X502111Y47432D01*
X502050Y47533D01*
X501986Y47633D01*
X501919Y47730D01*
X501849Y47825D01*
X501775Y47917D01*
X501699Y48008D01*
X501619Y48095D01*
X501537Y48180D01*
X501452Y48262D01*
X501365Y48342D01*
X501274Y48418D01*
X501182Y48492D01*
X501087Y48562D01*
X500990Y48629D01*
X500890Y48693D01*
X500789Y48754D01*
X500686Y48811D01*
X500581Y48866D01*
X500474Y48916D01*
X500365Y48963D01*
X500255Y49006D01*
X500144Y49046D01*
X500032Y49082D01*
X499918Y49115D01*
X499803Y49144D01*
X499688Y49169D01*
X499571Y49190D01*
X499454Y49207D01*
X499337Y49221D01*
X499219Y49230D01*
X499101Y49236D01*
X498983Y49238D01*
X498822Y49236D01*
X498660Y49230D01*
X498499Y49221D01*
X498338Y49207D01*
X498178Y49190D01*
X498018Y49169D01*
X497858Y49144D01*
X497699Y49115D01*
X497541Y49083D01*
X497384Y49047D01*
X497228Y49007D01*
X497072Y48963D01*
X496918Y48915D01*
X496765Y48864D01*
X496613Y48810D01*
X496462Y48751D01*
X496313Y48690D01*
X496166Y48624D01*
X496020Y48555D01*
X495875Y48483D01*
X495733Y48407D01*
X495592Y48328D01*
X495453Y48246D01*
X495317Y48160D01*
X495182Y48071D01*
X495049Y47979D01*
X494919Y47883D01*
X500789Y42465D02*
X500890Y42527D01*
X500990Y42592D01*
X501087Y42661D01*
X501182Y42733D01*
X501275Y42807D01*
X501365Y42885D01*
X501453Y42966D01*
X501538Y43049D01*
X501620Y43135D01*
X501699Y43224D01*
X501776Y43315D01*
X501849Y43409D01*
X501920Y43505D01*
X501987Y43603D01*
X502051Y43703D01*
X502112Y43806D01*
X502169Y43910D01*
X502223Y44016D01*
X502273Y44124D01*
X502320Y44233D01*
X502364Y44344D01*
X502404Y44456D01*
X502440Y44570D01*
X502472Y44684D01*
X502501Y44800D01*
X502526Y44916D01*
X502547Y45033D01*
X502564Y45151D01*
X502578Y45269D01*
X502587Y45388D01*
X502593Y45507D01*
X502595Y45626D01*
X495821Y39755D02*
X495720Y39693D01*
X495620Y39628D01*
X495523Y39559D01*
X495428Y39487D01*
X495335Y39413D01*
X495245Y39335D01*
X495157Y39254D01*
X495072Y39171D01*
X494990Y39085D01*
X494911Y38996D01*
X494834Y38905D01*
X494761Y38811D01*
X494690Y38715D01*
X494623Y38617D01*
X494559Y38517D01*
X494498Y38414D01*
X494441Y38310D01*
X494387Y38204D01*
X494337Y38096D01*
X494290Y37987D01*
X494246Y37876D01*
X494206Y37764D01*
X494170Y37650D01*
X494138Y37536D01*
X494109Y37420D01*
X494084Y37304D01*
X494063Y37187D01*
X494046Y37069D01*
X494032Y36951D01*
X494023Y36832D01*
X494017Y36713D01*
X494015Y36594D01*
X495822Y39755D02*
X500789Y42465D01*
X488840Y32982D02*
X478002Y49238D01*
X488840Y49238D02*
X478002Y32982D01*
X472305Y47432D02*
X472305Y49238D01*
X463274Y49238D01*
X467790Y32982D01*
X456674Y41110D02*
X456670Y41430D01*
X456659Y41749D01*
X456640Y42069D01*
X456613Y42387D01*
X456579Y42705D01*
X456537Y43022D01*
X456487Y43338D01*
X456430Y43653D01*
X456366Y43966D01*
X456294Y44278D01*
X456215Y44588D01*
X456128Y44895D01*
X456034Y45201D01*
X455933Y45504D01*
X455824Y45805D01*
X455709Y46103D01*
X455586Y46399D01*
X455456Y46691D01*
X455319Y46980D01*
X455320Y46981D02*
X455281Y47089D01*
X455238Y47196D01*
X455192Y47301D01*
X455141Y47405D01*
X455088Y47507D01*
X455031Y47607D01*
X454970Y47705D01*
X454906Y47800D01*
X454839Y47894D01*
X454768Y47985D01*
X454695Y48074D01*
X454618Y48160D01*
X454539Y48243D01*
X454457Y48324D01*
X454372Y48402D01*
X454284Y48476D01*
X454194Y48548D01*
X454102Y48616D01*
X454007Y48682D01*
X453910Y48744D01*
X453811Y48802D01*
X453709Y48858D01*
X453607Y48909D01*
X453502Y48957D01*
X453396Y49002D01*
X453288Y49043D01*
X453179Y49080D01*
X453069Y49113D01*
X452957Y49142D01*
X452845Y49168D01*
X452732Y49190D01*
X452618Y49207D01*
X452504Y49221D01*
X452389Y49231D01*
X452274Y49237D01*
X452159Y49239D01*
X452159Y49238D02*
X452044Y49236D01*
X451929Y49230D01*
X451814Y49220D01*
X451700Y49206D01*
X451586Y49189D01*
X451473Y49167D01*
X451361Y49141D01*
X451249Y49112D01*
X451139Y49079D01*
X451030Y49042D01*
X450922Y49001D01*
X450816Y48956D01*
X450712Y48908D01*
X450609Y48857D01*
X450508Y48801D01*
X450408Y48743D01*
X450311Y48681D01*
X450217Y48616D01*
X450124Y48547D01*
X450034Y48475D01*
X449946Y48401D01*
X449861Y48323D01*
X449779Y48242D01*
X449700Y48159D01*
X449623Y48073D01*
X449550Y47984D01*
X449479Y47893D01*
X449412Y47799D01*
X449348Y47704D01*
X449287Y47606D01*
X449230Y47506D01*
X449177Y47404D01*
X449126Y47300D01*
X449080Y47195D01*
X449037Y47088D01*
X448998Y46980D01*
X448861Y46691D01*
X448731Y46399D01*
X448608Y46103D01*
X448493Y45805D01*
X448384Y45504D01*
X448283Y45201D01*
X448189Y44895D01*
X448102Y44588D01*
X448023Y44278D01*
X447951Y43966D01*
X447887Y43653D01*
X447830Y43338D01*
X447780Y43022D01*
X447738Y42705D01*
X447704Y42387D01*
X447677Y42069D01*
X447658Y41749D01*
X447647Y41430D01*
X447643Y41110D01*
X456674Y41110D02*
X456670Y40790D01*
X456659Y40471D01*
X456640Y40151D01*
X456613Y39833D01*
X456579Y39515D01*
X456537Y39198D01*
X456487Y38882D01*
X456430Y38567D01*
X456366Y38254D01*
X456294Y37942D01*
X456215Y37632D01*
X456128Y37325D01*
X456034Y37019D01*
X455933Y36716D01*
X455824Y36415D01*
X455709Y36117D01*
X455586Y35821D01*
X455456Y35529D01*
X455319Y35240D01*
X455320Y35240D02*
X455281Y35132D01*
X455238Y35025D01*
X455192Y34920D01*
X455141Y34816D01*
X455088Y34714D01*
X455031Y34614D01*
X454970Y34516D01*
X454906Y34421D01*
X454839Y34327D01*
X454768Y34236D01*
X454695Y34147D01*
X454618Y34061D01*
X454539Y33978D01*
X454457Y33897D01*
X454372Y33819D01*
X454284Y33745D01*
X454194Y33673D01*
X454101Y33604D01*
X454007Y33539D01*
X453910Y33477D01*
X453810Y33419D01*
X453709Y33363D01*
X453607Y33312D01*
X453502Y33264D01*
X453396Y33219D01*
X453288Y33178D01*
X453179Y33141D01*
X453069Y33108D01*
X452957Y33079D01*
X452845Y33053D01*
X452732Y33031D01*
X452618Y33014D01*
X452504Y33000D01*
X452389Y32990D01*
X452274Y32984D01*
X452159Y32982D01*
X448998Y35240D02*
X448861Y35529D01*
X448731Y35821D01*
X448608Y36117D01*
X448493Y36415D01*
X448384Y36716D01*
X448283Y37019D01*
X448189Y37325D01*
X448102Y37632D01*
X448023Y37942D01*
X447951Y38254D01*
X447887Y38567D01*
X447830Y38882D01*
X447780Y39198D01*
X447738Y39515D01*
X447704Y39833D01*
X447677Y40151D01*
X447658Y40471D01*
X447647Y40790D01*
X447643Y41110D01*
X448998Y35240D02*
X449037Y35132D01*
X449080Y35025D01*
X449126Y34920D01*
X449177Y34816D01*
X449230Y34714D01*
X449288Y34614D01*
X449348Y34516D01*
X449412Y34421D01*
X449479Y34327D01*
X449550Y34236D01*
X449623Y34147D01*
X449700Y34061D01*
X449779Y33978D01*
X449861Y33897D01*
X449946Y33819D01*
X450034Y33745D01*
X450124Y33673D01*
X450217Y33604D01*
X450311Y33539D01*
X450408Y33477D01*
X450508Y33419D01*
X450609Y33363D01*
X450712Y33312D01*
X450816Y33264D01*
X450922Y33219D01*
X451030Y33178D01*
X451139Y33141D01*
X451249Y33108D01*
X451361Y33079D01*
X451473Y33053D01*
X451586Y33031D01*
X451700Y33014D01*
X451814Y33000D01*
X451929Y32990D01*
X452044Y32984D01*
X452159Y32982D01*
X455771Y36594D02*
X448546Y45626D01*
X441668Y33885D02*
X441668Y32982D01*
X441668Y33885D02*
X440765Y33885D01*
X440765Y32982D01*
X441668Y32982D01*
X432202Y32982D02*
X428590Y32982D01*
X432202Y32982D02*
X432303Y32984D01*
X432404Y32990D01*
X432505Y32999D01*
X432606Y33012D01*
X432706Y33029D01*
X432805Y33050D01*
X432903Y33074D01*
X433000Y33102D01*
X433097Y33134D01*
X433192Y33169D01*
X433285Y33208D01*
X433377Y33250D01*
X433468Y33296D01*
X433557Y33345D01*
X433643Y33397D01*
X433728Y33453D01*
X433811Y33511D01*
X433891Y33573D01*
X433969Y33638D01*
X434045Y33705D01*
X434118Y33775D01*
X434188Y33848D01*
X434255Y33924D01*
X434320Y34002D01*
X434382Y34082D01*
X434440Y34165D01*
X434496Y34250D01*
X434548Y34336D01*
X434597Y34425D01*
X434643Y34516D01*
X434685Y34608D01*
X434724Y34701D01*
X434759Y34796D01*
X434791Y34893D01*
X434819Y34990D01*
X434843Y35088D01*
X434864Y35187D01*
X434881Y35287D01*
X434894Y35388D01*
X434903Y35489D01*
X434909Y35590D01*
X434911Y35691D01*
X434912Y35691D02*
X434912Y41110D01*
X434911Y41110D02*
X434909Y41211D01*
X434903Y41312D01*
X434894Y41413D01*
X434881Y41514D01*
X434864Y41614D01*
X434843Y41713D01*
X434819Y41811D01*
X434791Y41908D01*
X434759Y42005D01*
X434724Y42100D01*
X434685Y42193D01*
X434643Y42285D01*
X434597Y42376D01*
X434548Y42465D01*
X434496Y42551D01*
X434440Y42636D01*
X434382Y42719D01*
X434320Y42799D01*
X434255Y42877D01*
X434188Y42953D01*
X434118Y43026D01*
X434045Y43096D01*
X433969Y43163D01*
X433891Y43228D01*
X433811Y43290D01*
X433728Y43348D01*
X433643Y43404D01*
X433557Y43456D01*
X433468Y43505D01*
X433377Y43551D01*
X433285Y43593D01*
X433192Y43632D01*
X433097Y43667D01*
X433000Y43699D01*
X432903Y43727D01*
X432805Y43751D01*
X432706Y43772D01*
X432606Y43789D01*
X432505Y43802D01*
X432404Y43811D01*
X432303Y43817D01*
X432202Y43819D01*
X428590Y43819D01*
X422945Y40207D02*
X422945Y36594D01*
X422945Y40207D02*
X422943Y40326D01*
X422937Y40446D01*
X422927Y40565D01*
X422913Y40683D01*
X422896Y40802D01*
X422874Y40919D01*
X422849Y41036D01*
X422819Y41151D01*
X422786Y41266D01*
X422749Y41380D01*
X422709Y41492D01*
X422664Y41603D01*
X422616Y41712D01*
X422565Y41820D01*
X422510Y41926D01*
X422451Y42030D01*
X422389Y42132D01*
X422324Y42232D01*
X422255Y42330D01*
X422183Y42426D01*
X422108Y42519D01*
X422031Y42609D01*
X421950Y42697D01*
X421866Y42782D01*
X421779Y42864D01*
X421690Y42944D01*
X421598Y43020D01*
X421504Y43094D01*
X421407Y43164D01*
X421309Y43231D01*
X421208Y43295D01*
X421104Y43355D01*
X420999Y43412D01*
X420892Y43465D01*
X420784Y43515D01*
X420674Y43561D01*
X420562Y43603D01*
X420449Y43642D01*
X420335Y43677D01*
X420220Y43708D01*
X420103Y43736D01*
X419986Y43759D01*
X419869Y43779D01*
X419750Y43795D01*
X419631Y43807D01*
X419512Y43815D01*
X419393Y43819D01*
X419273Y43819D01*
X419154Y43815D01*
X419035Y43807D01*
X418916Y43795D01*
X418797Y43779D01*
X418680Y43759D01*
X418563Y43736D01*
X418446Y43708D01*
X418331Y43677D01*
X418217Y43642D01*
X418104Y43603D01*
X417992Y43561D01*
X417882Y43515D01*
X417774Y43465D01*
X417667Y43412D01*
X417562Y43355D01*
X417458Y43295D01*
X417357Y43231D01*
X417259Y43164D01*
X417162Y43094D01*
X417068Y43020D01*
X416976Y42944D01*
X416887Y42864D01*
X416800Y42782D01*
X416716Y42697D01*
X416635Y42609D01*
X416558Y42519D01*
X416483Y42426D01*
X416411Y42330D01*
X416342Y42232D01*
X416277Y42132D01*
X416215Y42030D01*
X416156Y41926D01*
X416101Y41820D01*
X416050Y41712D01*
X416002Y41603D01*
X415957Y41492D01*
X415917Y41380D01*
X415880Y41266D01*
X415847Y41151D01*
X415817Y41036D01*
X415792Y40919D01*
X415770Y40802D01*
X415753Y40683D01*
X415739Y40565D01*
X415729Y40446D01*
X415723Y40326D01*
X415721Y40207D01*
X415721Y36594D01*
X415723Y36475D01*
X415729Y36355D01*
X415739Y36236D01*
X415753Y36118D01*
X415770Y35999D01*
X415792Y35882D01*
X415817Y35765D01*
X415847Y35650D01*
X415880Y35535D01*
X415917Y35421D01*
X415957Y35309D01*
X416002Y35198D01*
X416050Y35089D01*
X416101Y34981D01*
X416156Y34875D01*
X416215Y34771D01*
X416277Y34669D01*
X416342Y34569D01*
X416411Y34471D01*
X416483Y34375D01*
X416558Y34282D01*
X416635Y34192D01*
X416716Y34104D01*
X416800Y34019D01*
X416887Y33937D01*
X416976Y33857D01*
X417068Y33781D01*
X417162Y33707D01*
X417259Y33637D01*
X417357Y33570D01*
X417458Y33506D01*
X417562Y33446D01*
X417667Y33389D01*
X417774Y33336D01*
X417882Y33286D01*
X417992Y33240D01*
X418104Y33198D01*
X418217Y33159D01*
X418331Y33124D01*
X418446Y33093D01*
X418563Y33065D01*
X418680Y33042D01*
X418797Y33022D01*
X418916Y33006D01*
X419035Y32994D01*
X419154Y32986D01*
X419273Y32982D01*
X419393Y32982D01*
X419512Y32986D01*
X419631Y32994D01*
X419750Y33006D01*
X419869Y33022D01*
X419986Y33042D01*
X420103Y33065D01*
X420220Y33093D01*
X420335Y33124D01*
X420449Y33159D01*
X420562Y33198D01*
X420674Y33240D01*
X420784Y33286D01*
X420892Y33336D01*
X420999Y33389D01*
X421104Y33446D01*
X421208Y33506D01*
X421309Y33570D01*
X421407Y33637D01*
X421504Y33707D01*
X421598Y33781D01*
X421690Y33857D01*
X421779Y33937D01*
X421866Y34019D01*
X421950Y34104D01*
X422031Y34192D01*
X422108Y34282D01*
X422183Y34375D01*
X422255Y34471D01*
X422324Y34569D01*
X422389Y34669D01*
X422451Y34771D01*
X422510Y34875D01*
X422565Y34981D01*
X422616Y35089D01*
X422664Y35198D01*
X422709Y35309D01*
X422749Y35421D01*
X422786Y35535D01*
X422819Y35650D01*
X422849Y35765D01*
X422874Y35882D01*
X422896Y35999D01*
X422913Y36118D01*
X422927Y36236D01*
X422937Y36355D01*
X422943Y36475D01*
X422945Y36594D01*
X408599Y32982D02*
X408599Y43819D01*
X400471Y43819D01*
X400370Y43817D01*
X400269Y43811D01*
X400168Y43802D01*
X400067Y43789D01*
X399967Y43772D01*
X399868Y43751D01*
X399770Y43727D01*
X399673Y43699D01*
X399576Y43667D01*
X399481Y43632D01*
X399388Y43593D01*
X399296Y43551D01*
X399205Y43505D01*
X399117Y43456D01*
X399030Y43404D01*
X398945Y43348D01*
X398862Y43290D01*
X398782Y43228D01*
X398704Y43163D01*
X398628Y43096D01*
X398555Y43026D01*
X398485Y42953D01*
X398418Y42877D01*
X398353Y42799D01*
X398291Y42719D01*
X398233Y42636D01*
X398177Y42551D01*
X398125Y42465D01*
X398076Y42376D01*
X398030Y42285D01*
X397988Y42193D01*
X397949Y42100D01*
X397914Y42005D01*
X397882Y41908D01*
X397854Y41811D01*
X397830Y41713D01*
X397809Y41614D01*
X397792Y41514D01*
X397779Y41413D01*
X397770Y41312D01*
X397764Y41211D01*
X397762Y41110D01*
X397762Y32982D01*
X403181Y32982D02*
X403181Y43819D01*
X540882Y94498D02*
X540882Y101722D01*
X540880Y101855D01*
X540874Y101987D01*
X540864Y102119D01*
X540851Y102251D01*
X540833Y102383D01*
X540812Y102513D01*
X540787Y102644D01*
X540758Y102773D01*
X540725Y102901D01*
X540689Y103029D01*
X540649Y103155D01*
X540605Y103280D01*
X540557Y103404D01*
X540506Y103526D01*
X540451Y103647D01*
X540393Y103766D01*
X540331Y103884D01*
X540266Y103999D01*
X540197Y104113D01*
X540126Y104224D01*
X540050Y104333D01*
X539972Y104440D01*
X539891Y104545D01*
X539806Y104647D01*
X539719Y104747D01*
X539629Y104844D01*
X539536Y104939D01*
X539440Y105030D01*
X539342Y105119D01*
X539241Y105205D01*
X539137Y105288D01*
X539031Y105368D01*
X538923Y105444D01*
X538813Y105518D01*
X538700Y105588D01*
X538586Y105655D01*
X538469Y105718D01*
X538351Y105778D01*
X538231Y105835D01*
X538109Y105888D01*
X537986Y105937D01*
X537862Y105983D01*
X537736Y106025D01*
X537609Y106063D01*
X537481Y106098D01*
X537352Y106129D01*
X537223Y106156D01*
X537092Y106179D01*
X536961Y106199D01*
X536829Y106214D01*
X536697Y106226D01*
X536565Y106234D01*
X536432Y106238D01*
X536300Y106238D01*
X536167Y106234D01*
X536035Y106226D01*
X535903Y106214D01*
X535771Y106199D01*
X535640Y106179D01*
X535509Y106156D01*
X535380Y106129D01*
X535251Y106098D01*
X535123Y106063D01*
X534996Y106025D01*
X534870Y105983D01*
X534746Y105937D01*
X534623Y105888D01*
X534501Y105835D01*
X534381Y105778D01*
X534263Y105718D01*
X534146Y105655D01*
X534032Y105588D01*
X533919Y105518D01*
X533809Y105444D01*
X533701Y105368D01*
X533595Y105288D01*
X533491Y105205D01*
X533390Y105119D01*
X533292Y105030D01*
X533196Y104939D01*
X533103Y104844D01*
X533013Y104747D01*
X532926Y104647D01*
X532841Y104545D01*
X532760Y104440D01*
X532682Y104333D01*
X532606Y104224D01*
X532535Y104113D01*
X532466Y103999D01*
X532401Y103884D01*
X532339Y103766D01*
X532281Y103647D01*
X532226Y103526D01*
X532175Y103404D01*
X532127Y103280D01*
X532083Y103155D01*
X532043Y103029D01*
X532007Y102901D01*
X531974Y102773D01*
X531945Y102644D01*
X531920Y102513D01*
X531899Y102383D01*
X531881Y102251D01*
X531868Y102119D01*
X531858Y101987D01*
X531852Y101855D01*
X531850Y101722D01*
X531850Y94498D01*
X531852Y94365D01*
X531858Y94233D01*
X531868Y94101D01*
X531881Y93969D01*
X531899Y93837D01*
X531920Y93707D01*
X531945Y93576D01*
X531974Y93447D01*
X532007Y93319D01*
X532043Y93191D01*
X532083Y93065D01*
X532127Y92940D01*
X532175Y92816D01*
X532226Y92694D01*
X532281Y92573D01*
X532339Y92454D01*
X532401Y92336D01*
X532466Y92221D01*
X532535Y92107D01*
X532606Y91996D01*
X532682Y91887D01*
X532760Y91780D01*
X532841Y91675D01*
X532926Y91573D01*
X533013Y91473D01*
X533103Y91376D01*
X533196Y91281D01*
X533292Y91190D01*
X533390Y91101D01*
X533491Y91015D01*
X533595Y90932D01*
X533701Y90852D01*
X533809Y90776D01*
X533919Y90702D01*
X534032Y90632D01*
X534146Y90565D01*
X534263Y90502D01*
X534381Y90442D01*
X534501Y90385D01*
X534623Y90332D01*
X534746Y90283D01*
X534870Y90237D01*
X534996Y90195D01*
X535123Y90157D01*
X535251Y90122D01*
X535380Y90091D01*
X535509Y90064D01*
X535640Y90041D01*
X535771Y90021D01*
X535903Y90006D01*
X536035Y89994D01*
X536167Y89986D01*
X536300Y89982D01*
X536432Y89982D01*
X536565Y89986D01*
X536697Y89994D01*
X536829Y90006D01*
X536961Y90021D01*
X537092Y90041D01*
X537223Y90064D01*
X537352Y90091D01*
X537481Y90122D01*
X537609Y90157D01*
X537736Y90195D01*
X537862Y90237D01*
X537986Y90283D01*
X538109Y90332D01*
X538231Y90385D01*
X538351Y90442D01*
X538469Y90502D01*
X538586Y90565D01*
X538700Y90632D01*
X538813Y90702D01*
X538923Y90776D01*
X539031Y90852D01*
X539137Y90932D01*
X539241Y91015D01*
X539342Y91101D01*
X539440Y91190D01*
X539536Y91281D01*
X539629Y91376D01*
X539719Y91473D01*
X539806Y91573D01*
X539891Y91675D01*
X539972Y91780D01*
X540050Y91887D01*
X540126Y91996D01*
X540197Y92107D01*
X540266Y92221D01*
X540331Y92336D01*
X540393Y92454D01*
X540451Y92573D01*
X540506Y92694D01*
X540557Y92816D01*
X540605Y92940D01*
X540649Y93065D01*
X540689Y93191D01*
X540725Y93319D01*
X540758Y93447D01*
X540787Y93576D01*
X540812Y93707D01*
X540833Y93837D01*
X540851Y93969D01*
X540864Y94101D01*
X540874Y94233D01*
X540880Y94365D01*
X540882Y94498D01*
X524783Y89982D02*
X524783Y100819D01*
X519365Y100819D01*
X519365Y99013D01*
X514482Y100819D02*
X514482Y89982D01*
X514934Y105335D02*
X514934Y106238D01*
X514031Y106238D01*
X514031Y105335D01*
X514934Y105335D01*
X505559Y89982D02*
X501043Y89982D01*
X505559Y89982D02*
X505660Y89984D01*
X505761Y89990D01*
X505862Y89999D01*
X505963Y90012D01*
X506063Y90029D01*
X506162Y90050D01*
X506260Y90074D01*
X506357Y90102D01*
X506454Y90134D01*
X506549Y90169D01*
X506642Y90208D01*
X506734Y90250D01*
X506825Y90296D01*
X506914Y90345D01*
X507000Y90397D01*
X507085Y90453D01*
X507168Y90511D01*
X507248Y90573D01*
X507326Y90638D01*
X507402Y90705D01*
X507475Y90775D01*
X507545Y90848D01*
X507612Y90924D01*
X507677Y91002D01*
X507739Y91082D01*
X507797Y91165D01*
X507853Y91250D01*
X507905Y91336D01*
X507954Y91425D01*
X508000Y91516D01*
X508042Y91608D01*
X508081Y91701D01*
X508116Y91796D01*
X508148Y91893D01*
X508176Y91990D01*
X508200Y92088D01*
X508221Y92187D01*
X508238Y92287D01*
X508251Y92388D01*
X508260Y92489D01*
X508266Y92590D01*
X508268Y92691D01*
X508268Y98110D01*
X508266Y98211D01*
X508260Y98312D01*
X508251Y98413D01*
X508238Y98514D01*
X508221Y98614D01*
X508200Y98713D01*
X508176Y98811D01*
X508148Y98908D01*
X508116Y99005D01*
X508081Y99100D01*
X508042Y99193D01*
X508000Y99285D01*
X507954Y99376D01*
X507905Y99465D01*
X507853Y99551D01*
X507797Y99636D01*
X507739Y99719D01*
X507677Y99799D01*
X507612Y99877D01*
X507545Y99953D01*
X507475Y100026D01*
X507402Y100096D01*
X507326Y100163D01*
X507248Y100228D01*
X507168Y100290D01*
X507085Y100348D01*
X507000Y100404D01*
X506914Y100456D01*
X506825Y100505D01*
X506734Y100551D01*
X506642Y100593D01*
X506549Y100632D01*
X506454Y100667D01*
X506357Y100699D01*
X506260Y100727D01*
X506162Y100751D01*
X506063Y100772D01*
X505963Y100789D01*
X505862Y100802D01*
X505761Y100811D01*
X505660Y100817D01*
X505559Y100819D01*
X501043Y100819D01*
X501043Y87273D01*
X501044Y87273D02*
X501046Y87172D01*
X501052Y87071D01*
X501061Y86970D01*
X501074Y86869D01*
X501091Y86769D01*
X501112Y86670D01*
X501136Y86572D01*
X501164Y86475D01*
X501196Y86378D01*
X501231Y86283D01*
X501270Y86190D01*
X501312Y86098D01*
X501358Y86007D01*
X501407Y85919D01*
X501459Y85832D01*
X501515Y85747D01*
X501573Y85664D01*
X501635Y85584D01*
X501700Y85506D01*
X501767Y85430D01*
X501837Y85357D01*
X501910Y85287D01*
X501986Y85220D01*
X502064Y85155D01*
X502144Y85093D01*
X502227Y85035D01*
X502312Y84979D01*
X502399Y84927D01*
X502487Y84878D01*
X502578Y84832D01*
X502670Y84790D01*
X502763Y84751D01*
X502858Y84716D01*
X502955Y84684D01*
X503052Y84656D01*
X503150Y84632D01*
X503249Y84611D01*
X503349Y84594D01*
X503450Y84581D01*
X503551Y84572D01*
X503652Y84566D01*
X503753Y84564D01*
X503753Y84563D02*
X507365Y84563D01*
X491039Y96304D02*
X486975Y96304D01*
X491039Y96304D02*
X491151Y96302D01*
X491262Y96296D01*
X491373Y96286D01*
X491484Y96273D01*
X491594Y96255D01*
X491703Y96233D01*
X491812Y96208D01*
X491920Y96179D01*
X492026Y96146D01*
X492132Y96109D01*
X492236Y96069D01*
X492338Y96025D01*
X492439Y95977D01*
X492538Y95926D01*
X492636Y95871D01*
X492731Y95813D01*
X492824Y95752D01*
X492915Y95687D01*
X493004Y95619D01*
X493090Y95548D01*
X493173Y95475D01*
X493254Y95398D01*
X493333Y95318D01*
X493408Y95236D01*
X493480Y95151D01*
X493550Y95064D01*
X493616Y94974D01*
X493679Y94882D01*
X493739Y94787D01*
X493795Y94691D01*
X493848Y94593D01*
X493897Y94493D01*
X493943Y94391D01*
X493985Y94288D01*
X494024Y94183D01*
X494059Y94077D01*
X494090Y93970D01*
X494117Y93862D01*
X494141Y93753D01*
X494160Y93643D01*
X494176Y93533D01*
X494188Y93422D01*
X494196Y93310D01*
X494200Y93199D01*
X494200Y93087D01*
X494196Y92976D01*
X494188Y92864D01*
X494176Y92753D01*
X494160Y92643D01*
X494141Y92533D01*
X494117Y92424D01*
X494090Y92316D01*
X494059Y92209D01*
X494024Y92103D01*
X493985Y91998D01*
X493943Y91895D01*
X493897Y91793D01*
X493848Y91693D01*
X493795Y91595D01*
X493739Y91499D01*
X493679Y91404D01*
X493616Y91312D01*
X493550Y91222D01*
X493480Y91135D01*
X493408Y91050D01*
X493333Y90968D01*
X493254Y90888D01*
X493173Y90811D01*
X493090Y90738D01*
X493004Y90667D01*
X492915Y90599D01*
X492824Y90534D01*
X492731Y90473D01*
X492636Y90415D01*
X492538Y90360D01*
X492439Y90309D01*
X492338Y90261D01*
X492236Y90217D01*
X492132Y90177D01*
X492026Y90140D01*
X491920Y90107D01*
X491812Y90078D01*
X491703Y90053D01*
X491594Y90031D01*
X491484Y90013D01*
X491373Y90000D01*
X491262Y89990D01*
X491151Y89984D01*
X491039Y89982D01*
X486975Y89982D01*
X486975Y98110D01*
X486976Y98110D02*
X486978Y98211D01*
X486984Y98312D01*
X486993Y98413D01*
X487006Y98514D01*
X487023Y98614D01*
X487044Y98713D01*
X487068Y98811D01*
X487096Y98908D01*
X487128Y99005D01*
X487163Y99100D01*
X487202Y99193D01*
X487244Y99285D01*
X487290Y99376D01*
X487339Y99465D01*
X487391Y99551D01*
X487447Y99636D01*
X487505Y99719D01*
X487567Y99799D01*
X487632Y99877D01*
X487699Y99953D01*
X487769Y100026D01*
X487842Y100096D01*
X487918Y100163D01*
X487996Y100228D01*
X488076Y100290D01*
X488159Y100348D01*
X488244Y100404D01*
X488331Y100456D01*
X488419Y100505D01*
X488510Y100551D01*
X488602Y100593D01*
X488695Y100632D01*
X488790Y100667D01*
X488887Y100699D01*
X488984Y100727D01*
X489082Y100751D01*
X489181Y100772D01*
X489281Y100789D01*
X489382Y100802D01*
X489483Y100811D01*
X489584Y100817D01*
X489685Y100819D01*
X493297Y100819D01*
X479260Y100819D02*
X479260Y89982D01*
X479260Y100819D02*
X471132Y100819D01*
X471031Y100817D01*
X470930Y100811D01*
X470829Y100802D01*
X470728Y100789D01*
X470628Y100772D01*
X470529Y100751D01*
X470431Y100727D01*
X470334Y100699D01*
X470237Y100667D01*
X470142Y100632D01*
X470049Y100593D01*
X469957Y100551D01*
X469866Y100505D01*
X469778Y100456D01*
X469691Y100404D01*
X469606Y100348D01*
X469523Y100290D01*
X469443Y100228D01*
X469365Y100163D01*
X469289Y100096D01*
X469216Y100026D01*
X469146Y99953D01*
X469079Y99877D01*
X469014Y99799D01*
X468952Y99719D01*
X468894Y99636D01*
X468838Y99551D01*
X468786Y99465D01*
X468737Y99376D01*
X468691Y99285D01*
X468649Y99193D01*
X468610Y99100D01*
X468575Y99005D01*
X468543Y98908D01*
X468515Y98811D01*
X468491Y98713D01*
X468470Y98614D01*
X468453Y98514D01*
X468440Y98413D01*
X468431Y98312D01*
X468425Y98211D01*
X468423Y98110D01*
X468422Y98110D02*
X468422Y89982D01*
X473841Y89982D02*
X473841Y100819D01*
X461336Y100819D02*
X461336Y89982D01*
X461788Y105335D02*
X461788Y106238D01*
X460885Y106238D01*
X460885Y105335D01*
X461788Y105335D01*
X446118Y100819D02*
X446118Y84563D01*
X446118Y100819D02*
X441602Y100819D01*
X441498Y100817D01*
X441395Y100811D01*
X441291Y100801D01*
X441188Y100787D01*
X441086Y100769D01*
X440985Y100748D01*
X440884Y100722D01*
X440785Y100693D01*
X440686Y100660D01*
X440589Y100623D01*
X440494Y100582D01*
X440400Y100538D01*
X440308Y100490D01*
X440218Y100439D01*
X440129Y100384D01*
X440043Y100326D01*
X439960Y100264D01*
X439878Y100200D01*
X439800Y100132D01*
X439724Y100062D01*
X439650Y99989D01*
X439580Y99912D01*
X439512Y99834D01*
X439448Y99752D01*
X439386Y99669D01*
X439328Y99583D01*
X439273Y99494D01*
X439222Y99404D01*
X439174Y99312D01*
X439130Y99218D01*
X439089Y99123D01*
X439052Y99026D01*
X439019Y98927D01*
X438990Y98828D01*
X438964Y98727D01*
X438943Y98626D01*
X438925Y98524D01*
X438911Y98421D01*
X438901Y98317D01*
X438895Y98214D01*
X438893Y98110D01*
X438893Y92691D01*
X438895Y92590D01*
X438901Y92489D01*
X438910Y92388D01*
X438923Y92287D01*
X438940Y92187D01*
X438961Y92088D01*
X438985Y91990D01*
X439013Y91893D01*
X439045Y91796D01*
X439080Y91701D01*
X439119Y91608D01*
X439161Y91516D01*
X439207Y91425D01*
X439256Y91336D01*
X439308Y91250D01*
X439364Y91165D01*
X439422Y91082D01*
X439484Y91002D01*
X439549Y90924D01*
X439616Y90848D01*
X439686Y90775D01*
X439759Y90705D01*
X439835Y90638D01*
X439913Y90573D01*
X439993Y90511D01*
X440076Y90453D01*
X440161Y90397D01*
X440248Y90345D01*
X440336Y90296D01*
X440427Y90250D01*
X440519Y90208D01*
X440612Y90169D01*
X440707Y90134D01*
X440804Y90102D01*
X440901Y90074D01*
X440999Y90050D01*
X441098Y90029D01*
X441198Y90012D01*
X441299Y89999D01*
X441400Y89990D01*
X441501Y89984D01*
X441602Y89982D01*
X446118Y89982D01*
X432123Y92691D02*
X432123Y100819D01*
X432123Y92691D02*
X432121Y92590D01*
X432115Y92489D01*
X432106Y92388D01*
X432093Y92287D01*
X432076Y92187D01*
X432055Y92088D01*
X432031Y91990D01*
X432003Y91893D01*
X431971Y91796D01*
X431936Y91701D01*
X431897Y91608D01*
X431855Y91516D01*
X431809Y91425D01*
X431760Y91336D01*
X431708Y91250D01*
X431652Y91165D01*
X431594Y91082D01*
X431532Y91002D01*
X431467Y90924D01*
X431400Y90848D01*
X431330Y90775D01*
X431257Y90705D01*
X431181Y90638D01*
X431103Y90573D01*
X431023Y90511D01*
X430940Y90453D01*
X430855Y90397D01*
X430769Y90345D01*
X430680Y90296D01*
X430589Y90250D01*
X430497Y90208D01*
X430404Y90169D01*
X430309Y90134D01*
X430212Y90102D01*
X430115Y90074D01*
X430017Y90050D01*
X429918Y90029D01*
X429818Y90012D01*
X429717Y89999D01*
X429616Y89990D01*
X429515Y89984D01*
X429414Y89982D01*
X424898Y89982D01*
X424898Y100819D01*
X416700Y96304D02*
X412185Y94498D01*
X416701Y96304D02*
X416789Y96341D01*
X416875Y96382D01*
X416960Y96426D01*
X417043Y96474D01*
X417123Y96525D01*
X417202Y96579D01*
X417278Y96637D01*
X417352Y96697D01*
X417424Y96761D01*
X417492Y96827D01*
X417558Y96897D01*
X417621Y96968D01*
X417682Y97043D01*
X417739Y97119D01*
X417792Y97198D01*
X417843Y97279D01*
X417890Y97362D01*
X417934Y97447D01*
X417974Y97534D01*
X418011Y97622D01*
X418044Y97712D01*
X418074Y97803D01*
X418099Y97895D01*
X418121Y97988D01*
X418139Y98082D01*
X418154Y98176D01*
X418164Y98271D01*
X418170Y98367D01*
X418173Y98462D01*
X418172Y98558D01*
X418166Y98653D01*
X418157Y98749D01*
X418144Y98843D01*
X418128Y98937D01*
X418107Y99031D01*
X418082Y99123D01*
X418054Y99214D01*
X418022Y99304D01*
X417987Y99393D01*
X417948Y99480D01*
X417905Y99566D01*
X417859Y99650D01*
X417809Y99731D01*
X417757Y99811D01*
X417701Y99889D01*
X417641Y99964D01*
X417579Y100036D01*
X417514Y100106D01*
X417446Y100174D01*
X417376Y100238D01*
X417303Y100300D01*
X417227Y100358D01*
X417149Y100414D01*
X417069Y100466D01*
X416987Y100515D01*
X416903Y100560D01*
X416817Y100602D01*
X416730Y100641D01*
X416641Y100676D01*
X416550Y100707D01*
X416459Y100734D01*
X416366Y100758D01*
X416273Y100778D01*
X416179Y100794D01*
X416084Y100806D01*
X415989Y100815D01*
X415893Y100819D01*
X415798Y100820D01*
X415551Y100813D01*
X415305Y100801D01*
X415059Y100783D01*
X414813Y100758D01*
X414569Y100728D01*
X414325Y100692D01*
X414082Y100651D01*
X413840Y100603D01*
X413599Y100549D01*
X413360Y100490D01*
X413122Y100425D01*
X412886Y100354D01*
X412651Y100278D01*
X412418Y100196D01*
X412188Y100108D01*
X411960Y100015D01*
X411733Y99917D01*
X412184Y94497D02*
X412096Y94460D01*
X412010Y94419D01*
X411925Y94375D01*
X411842Y94327D01*
X411762Y94276D01*
X411683Y94222D01*
X411607Y94164D01*
X411533Y94104D01*
X411461Y94040D01*
X411393Y93974D01*
X411327Y93904D01*
X411264Y93833D01*
X411203Y93758D01*
X411146Y93682D01*
X411093Y93603D01*
X411042Y93522D01*
X410995Y93439D01*
X410951Y93354D01*
X410911Y93267D01*
X410874Y93179D01*
X410841Y93089D01*
X410811Y92998D01*
X410786Y92906D01*
X410764Y92813D01*
X410746Y92719D01*
X410731Y92625D01*
X410721Y92530D01*
X410715Y92434D01*
X410712Y92339D01*
X410713Y92243D01*
X410719Y92148D01*
X410728Y92052D01*
X410741Y91958D01*
X410757Y91864D01*
X410778Y91770D01*
X410803Y91678D01*
X410831Y91587D01*
X410863Y91497D01*
X410898Y91408D01*
X410937Y91321D01*
X410980Y91235D01*
X411026Y91151D01*
X411076Y91070D01*
X411128Y90990D01*
X411184Y90912D01*
X411244Y90837D01*
X411306Y90765D01*
X411371Y90695D01*
X411439Y90627D01*
X411509Y90563D01*
X411582Y90501D01*
X411658Y90443D01*
X411736Y90387D01*
X411816Y90335D01*
X411898Y90286D01*
X411982Y90241D01*
X412068Y90199D01*
X412155Y90160D01*
X412244Y90125D01*
X412335Y90094D01*
X412426Y90067D01*
X412519Y90043D01*
X412612Y90023D01*
X412706Y90007D01*
X412801Y89995D01*
X412896Y89986D01*
X412992Y89982D01*
X413087Y89981D01*
X413088Y89982D02*
X413450Y89991D01*
X413812Y90009D01*
X414173Y90036D01*
X414533Y90071D01*
X414893Y90114D01*
X415252Y90166D01*
X415609Y90227D01*
X415964Y90296D01*
X416318Y90373D01*
X416670Y90459D01*
X417020Y90553D01*
X417368Y90656D01*
X417713Y90766D01*
X418055Y90885D01*
X403987Y89982D02*
X403987Y106238D01*
X403987Y100819D02*
X399471Y100819D01*
X399367Y100817D01*
X399264Y100811D01*
X399160Y100801D01*
X399057Y100787D01*
X398955Y100769D01*
X398854Y100748D01*
X398753Y100722D01*
X398654Y100693D01*
X398555Y100660D01*
X398458Y100623D01*
X398363Y100582D01*
X398269Y100538D01*
X398177Y100490D01*
X398087Y100439D01*
X397998Y100384D01*
X397912Y100326D01*
X397829Y100264D01*
X397747Y100200D01*
X397669Y100132D01*
X397593Y100062D01*
X397519Y99989D01*
X397449Y99912D01*
X397381Y99834D01*
X397317Y99752D01*
X397255Y99669D01*
X397197Y99583D01*
X397142Y99494D01*
X397091Y99404D01*
X397043Y99312D01*
X396999Y99218D01*
X396958Y99123D01*
X396921Y99026D01*
X396888Y98927D01*
X396859Y98828D01*
X396833Y98727D01*
X396812Y98626D01*
X396794Y98524D01*
X396780Y98421D01*
X396770Y98317D01*
X396764Y98214D01*
X396762Y98110D01*
X396762Y89982D01*
D13*
X36100Y90000D02*
X36103Y90209D01*
X36110Y90417D01*
X36123Y90625D01*
X36141Y90833D01*
X36164Y91040D01*
X36192Y91247D01*
X36225Y91453D01*
X36263Y91658D01*
X36307Y91862D01*
X36355Y92065D01*
X36408Y92267D01*
X36466Y92467D01*
X36529Y92666D01*
X36597Y92864D01*
X36670Y93059D01*
X36747Y93253D01*
X36829Y93445D01*
X36916Y93634D01*
X37008Y93822D01*
X37104Y94007D01*
X37204Y94190D01*
X37309Y94370D01*
X37419Y94547D01*
X37533Y94722D01*
X37651Y94894D01*
X37773Y95063D01*
X37899Y95229D01*
X38029Y95392D01*
X38164Y95552D01*
X38302Y95708D01*
X38444Y95861D01*
X38590Y96010D01*
X38739Y96156D01*
X38892Y96298D01*
X39048Y96436D01*
X39208Y96571D01*
X39371Y96701D01*
X39537Y96827D01*
X39706Y96949D01*
X39878Y97067D01*
X40053Y97181D01*
X40230Y97291D01*
X40410Y97396D01*
X40593Y97496D01*
X40778Y97592D01*
X40966Y97684D01*
X41155Y97771D01*
X41347Y97853D01*
X41541Y97930D01*
X41736Y98003D01*
X41934Y98071D01*
X42133Y98134D01*
X42333Y98192D01*
X42535Y98245D01*
X42738Y98293D01*
X42942Y98337D01*
X43147Y98375D01*
X43353Y98408D01*
X43560Y98436D01*
X43767Y98459D01*
X43975Y98477D01*
X44183Y98490D01*
X44391Y98497D01*
X44600Y98500D01*
X44809Y98497D01*
X45017Y98490D01*
X45225Y98477D01*
X45433Y98459D01*
X45640Y98436D01*
X45847Y98408D01*
X46053Y98375D01*
X46258Y98337D01*
X46462Y98293D01*
X46665Y98245D01*
X46867Y98192D01*
X47067Y98134D01*
X47266Y98071D01*
X47464Y98003D01*
X47659Y97930D01*
X47853Y97853D01*
X48045Y97771D01*
X48234Y97684D01*
X48422Y97592D01*
X48607Y97496D01*
X48790Y97396D01*
X48970Y97291D01*
X49147Y97181D01*
X49322Y97067D01*
X49494Y96949D01*
X49663Y96827D01*
X49829Y96701D01*
X49992Y96571D01*
X50152Y96436D01*
X50308Y96298D01*
X50461Y96156D01*
X50610Y96010D01*
X50756Y95861D01*
X50898Y95708D01*
X51036Y95552D01*
X51171Y95392D01*
X51301Y95229D01*
X51427Y95063D01*
X51549Y94894D01*
X51667Y94722D01*
X51781Y94547D01*
X51891Y94370D01*
X51996Y94190D01*
X52096Y94007D01*
X52192Y93822D01*
X52284Y93634D01*
X52371Y93445D01*
X52453Y93253D01*
X52530Y93059D01*
X52603Y92864D01*
X52671Y92666D01*
X52734Y92467D01*
X52792Y92267D01*
X52845Y92065D01*
X52893Y91862D01*
X52937Y91658D01*
X52975Y91453D01*
X53008Y91247D01*
X53036Y91040D01*
X53059Y90833D01*
X53077Y90625D01*
X53090Y90417D01*
X53097Y90209D01*
X53100Y90000D01*
X53097Y89791D01*
X53090Y89583D01*
X53077Y89375D01*
X53059Y89167D01*
X53036Y88960D01*
X53008Y88753D01*
X52975Y88547D01*
X52937Y88342D01*
X52893Y88138D01*
X52845Y87935D01*
X52792Y87733D01*
X52734Y87533D01*
X52671Y87334D01*
X52603Y87136D01*
X52530Y86941D01*
X52453Y86747D01*
X52371Y86555D01*
X52284Y86366D01*
X52192Y86178D01*
X52096Y85993D01*
X51996Y85810D01*
X51891Y85630D01*
X51781Y85453D01*
X51667Y85278D01*
X51549Y85106D01*
X51427Y84937D01*
X51301Y84771D01*
X51171Y84608D01*
X51036Y84448D01*
X50898Y84292D01*
X50756Y84139D01*
X50610Y83990D01*
X50461Y83844D01*
X50308Y83702D01*
X50152Y83564D01*
X49992Y83429D01*
X49829Y83299D01*
X49663Y83173D01*
X49494Y83051D01*
X49322Y82933D01*
X49147Y82819D01*
X48970Y82709D01*
X48790Y82604D01*
X48607Y82504D01*
X48422Y82408D01*
X48234Y82316D01*
X48045Y82229D01*
X47853Y82147D01*
X47659Y82070D01*
X47464Y81997D01*
X47266Y81929D01*
X47067Y81866D01*
X46867Y81808D01*
X46665Y81755D01*
X46462Y81707D01*
X46258Y81663D01*
X46053Y81625D01*
X45847Y81592D01*
X45640Y81564D01*
X45433Y81541D01*
X45225Y81523D01*
X45017Y81510D01*
X44809Y81503D01*
X44600Y81500D01*
X44391Y81503D01*
X44183Y81510D01*
X43975Y81523D01*
X43767Y81541D01*
X43560Y81564D01*
X43353Y81592D01*
X43147Y81625D01*
X42942Y81663D01*
X42738Y81707D01*
X42535Y81755D01*
X42333Y81808D01*
X42133Y81866D01*
X41934Y81929D01*
X41736Y81997D01*
X41541Y82070D01*
X41347Y82147D01*
X41155Y82229D01*
X40966Y82316D01*
X40778Y82408D01*
X40593Y82504D01*
X40410Y82604D01*
X40230Y82709D01*
X40053Y82819D01*
X39878Y82933D01*
X39706Y83051D01*
X39537Y83173D01*
X39371Y83299D01*
X39208Y83429D01*
X39048Y83564D01*
X38892Y83702D01*
X38739Y83844D01*
X38590Y83990D01*
X38444Y84139D01*
X38302Y84292D01*
X38164Y84448D01*
X38029Y84608D01*
X37899Y84771D01*
X37773Y84937D01*
X37651Y85106D01*
X37533Y85278D01*
X37419Y85453D01*
X37309Y85630D01*
X37204Y85810D01*
X37104Y85993D01*
X37008Y86178D01*
X36916Y86366D01*
X36829Y86555D01*
X36747Y86747D01*
X36670Y86941D01*
X36597Y87136D01*
X36529Y87334D01*
X36466Y87533D01*
X36408Y87733D01*
X36355Y87935D01*
X36307Y88138D01*
X36263Y88342D01*
X36225Y88547D01*
X36192Y88753D01*
X36164Y88960D01*
X36141Y89167D01*
X36123Y89375D01*
X36110Y89583D01*
X36103Y89791D01*
X36100Y90000D01*
X106100Y90000D02*
X106103Y90209D01*
X106110Y90417D01*
X106123Y90625D01*
X106141Y90833D01*
X106164Y91040D01*
X106192Y91247D01*
X106225Y91453D01*
X106263Y91658D01*
X106307Y91862D01*
X106355Y92065D01*
X106408Y92267D01*
X106466Y92467D01*
X106529Y92666D01*
X106597Y92864D01*
X106670Y93059D01*
X106747Y93253D01*
X106829Y93445D01*
X106916Y93634D01*
X107008Y93822D01*
X107104Y94007D01*
X107204Y94190D01*
X107309Y94370D01*
X107419Y94547D01*
X107533Y94722D01*
X107651Y94894D01*
X107773Y95063D01*
X107899Y95229D01*
X108029Y95392D01*
X108164Y95552D01*
X108302Y95708D01*
X108444Y95861D01*
X108590Y96010D01*
X108739Y96156D01*
X108892Y96298D01*
X109048Y96436D01*
X109208Y96571D01*
X109371Y96701D01*
X109537Y96827D01*
X109706Y96949D01*
X109878Y97067D01*
X110053Y97181D01*
X110230Y97291D01*
X110410Y97396D01*
X110593Y97496D01*
X110778Y97592D01*
X110966Y97684D01*
X111155Y97771D01*
X111347Y97853D01*
X111541Y97930D01*
X111736Y98003D01*
X111934Y98071D01*
X112133Y98134D01*
X112333Y98192D01*
X112535Y98245D01*
X112738Y98293D01*
X112942Y98337D01*
X113147Y98375D01*
X113353Y98408D01*
X113560Y98436D01*
X113767Y98459D01*
X113975Y98477D01*
X114183Y98490D01*
X114391Y98497D01*
X114600Y98500D01*
X114809Y98497D01*
X115017Y98490D01*
X115225Y98477D01*
X115433Y98459D01*
X115640Y98436D01*
X115847Y98408D01*
X116053Y98375D01*
X116258Y98337D01*
X116462Y98293D01*
X116665Y98245D01*
X116867Y98192D01*
X117067Y98134D01*
X117266Y98071D01*
X117464Y98003D01*
X117659Y97930D01*
X117853Y97853D01*
X118045Y97771D01*
X118234Y97684D01*
X118422Y97592D01*
X118607Y97496D01*
X118790Y97396D01*
X118970Y97291D01*
X119147Y97181D01*
X119322Y97067D01*
X119494Y96949D01*
X119663Y96827D01*
X119829Y96701D01*
X119992Y96571D01*
X120152Y96436D01*
X120308Y96298D01*
X120461Y96156D01*
X120610Y96010D01*
X120756Y95861D01*
X120898Y95708D01*
X121036Y95552D01*
X121171Y95392D01*
X121301Y95229D01*
X121427Y95063D01*
X121549Y94894D01*
X121667Y94722D01*
X121781Y94547D01*
X121891Y94370D01*
X121996Y94190D01*
X122096Y94007D01*
X122192Y93822D01*
X122284Y93634D01*
X122371Y93445D01*
X122453Y93253D01*
X122530Y93059D01*
X122603Y92864D01*
X122671Y92666D01*
X122734Y92467D01*
X122792Y92267D01*
X122845Y92065D01*
X122893Y91862D01*
X122937Y91658D01*
X122975Y91453D01*
X123008Y91247D01*
X123036Y91040D01*
X123059Y90833D01*
X123077Y90625D01*
X123090Y90417D01*
X123097Y90209D01*
X123100Y90000D01*
X123097Y89791D01*
X123090Y89583D01*
X123077Y89375D01*
X123059Y89167D01*
X123036Y88960D01*
X123008Y88753D01*
X122975Y88547D01*
X122937Y88342D01*
X122893Y88138D01*
X122845Y87935D01*
X122792Y87733D01*
X122734Y87533D01*
X122671Y87334D01*
X122603Y87136D01*
X122530Y86941D01*
X122453Y86747D01*
X122371Y86555D01*
X122284Y86366D01*
X122192Y86178D01*
X122096Y85993D01*
X121996Y85810D01*
X121891Y85630D01*
X121781Y85453D01*
X121667Y85278D01*
X121549Y85106D01*
X121427Y84937D01*
X121301Y84771D01*
X121171Y84608D01*
X121036Y84448D01*
X120898Y84292D01*
X120756Y84139D01*
X120610Y83990D01*
X120461Y83844D01*
X120308Y83702D01*
X120152Y83564D01*
X119992Y83429D01*
X119829Y83299D01*
X119663Y83173D01*
X119494Y83051D01*
X119322Y82933D01*
X119147Y82819D01*
X118970Y82709D01*
X118790Y82604D01*
X118607Y82504D01*
X118422Y82408D01*
X118234Y82316D01*
X118045Y82229D01*
X117853Y82147D01*
X117659Y82070D01*
X117464Y81997D01*
X117266Y81929D01*
X117067Y81866D01*
X116867Y81808D01*
X116665Y81755D01*
X116462Y81707D01*
X116258Y81663D01*
X116053Y81625D01*
X115847Y81592D01*
X115640Y81564D01*
X115433Y81541D01*
X115225Y81523D01*
X115017Y81510D01*
X114809Y81503D01*
X114600Y81500D01*
X114391Y81503D01*
X114183Y81510D01*
X113975Y81523D01*
X113767Y81541D01*
X113560Y81564D01*
X113353Y81592D01*
X113147Y81625D01*
X112942Y81663D01*
X112738Y81707D01*
X112535Y81755D01*
X112333Y81808D01*
X112133Y81866D01*
X111934Y81929D01*
X111736Y81997D01*
X111541Y82070D01*
X111347Y82147D01*
X111155Y82229D01*
X110966Y82316D01*
X110778Y82408D01*
X110593Y82504D01*
X110410Y82604D01*
X110230Y82709D01*
X110053Y82819D01*
X109878Y82933D01*
X109706Y83051D01*
X109537Y83173D01*
X109371Y83299D01*
X109208Y83429D01*
X109048Y83564D01*
X108892Y83702D01*
X108739Y83844D01*
X108590Y83990D01*
X108444Y84139D01*
X108302Y84292D01*
X108164Y84448D01*
X108029Y84608D01*
X107899Y84771D01*
X107773Y84937D01*
X107651Y85106D01*
X107533Y85278D01*
X107419Y85453D01*
X107309Y85630D01*
X107204Y85810D01*
X107104Y85993D01*
X107008Y86178D01*
X106916Y86366D01*
X106829Y86555D01*
X106747Y86747D01*
X106670Y86941D01*
X106597Y87136D01*
X106529Y87334D01*
X106466Y87533D01*
X106408Y87733D01*
X106355Y87935D01*
X106307Y88138D01*
X106263Y88342D01*
X106225Y88547D01*
X106192Y88753D01*
X106164Y88960D01*
X106141Y89167D01*
X106123Y89375D01*
X106110Y89583D01*
X106103Y89791D01*
X106100Y90000D01*
M02*
