M48
;GenerationSoftware,Autodesk,EAGLE,9.2.0*%
;CreationDate,2019-01-06T22:22:13Z*%
FMAT,2
ICI,OFF
METRIC,TZ,000.000
T2C0.305
T1C1.700
%
G90
M71
T1
X11460Y9000
X4460Y9000
T2
X41488Y2518
X64348Y5490
X23200Y9834
X89723Y7776
X69834Y5719
X68234Y6405
X76464Y3661
X42860Y2747
X23200Y5490
X37145Y5262
X35316Y5262
X62291Y9605
X60690Y11434
X68006Y8233
X62976Y5262
X60919Y3661
X60005Y4576
X60005Y5947
X14742Y3204
X63891Y12120
X65034Y8919
X60462Y12577
X74178Y5490
X75092Y9148
X28001Y10291
X36459Y12577
X49946Y8919
X16799Y12348
X5141Y6633
X45831Y4576
X62976Y6862
X64119Y2290
X70520Y10977
X11770Y2518
X56118Y7548
X26629Y6862
X59776Y10291
X64805Y10291
X70063Y10291
X59547Y11662
X31430Y10291
M30