G04 EAGLE Gerber RS-274X export*
G75*
%MOMM*%
%FSLAX34Y34*%
%LPD*%
%INBottom layer*%
%IPPOS*%
%AMOC8*
5,1,8,0,0,1.08239X$1,22.5*%
G01*
%ADD10C,0.001000*%
%ADD11C,0.050800*%
%ADD12C,0.000000*%
%ADD13C,0.304800*%
%ADD14C,0.609600*%

G36*
X933340Y16478D02*
X933340Y16478D01*
X933390Y16478D01*
X935920Y16735D01*
X935941Y16741D01*
X936069Y16766D01*
X938266Y17450D01*
X938288Y17461D01*
X938404Y17509D01*
X940398Y18595D01*
X940419Y18611D01*
X940519Y18676D01*
X942264Y20118D01*
X942282Y20138D01*
X942366Y20220D01*
X943808Y21965D01*
X943821Y21988D01*
X943889Y22086D01*
X944975Y24080D01*
X944983Y24103D01*
X945034Y24218D01*
X945718Y26415D01*
X945721Y26436D01*
X945749Y26564D01*
X946006Y29094D01*
X946005Y29121D01*
X946010Y29171D01*
X946010Y128685D01*
X946006Y128712D01*
X946006Y128762D01*
X945749Y131292D01*
X945743Y131313D01*
X945718Y131441D01*
X945034Y133638D01*
X945023Y133660D01*
X944975Y133776D01*
X943889Y135770D01*
X943873Y135791D01*
X943808Y135891D01*
X942366Y137636D01*
X942346Y137654D01*
X942264Y137738D01*
X940519Y139180D01*
X940496Y139193D01*
X940398Y139261D01*
X938404Y140347D01*
X938381Y140355D01*
X938266Y140406D01*
X936069Y141090D01*
X936048Y141093D01*
X935920Y141121D01*
X933390Y141378D01*
X933363Y141377D01*
X933313Y141382D01*
X839755Y141382D01*
X839684Y141371D01*
X839613Y141369D01*
X839564Y141351D01*
X839512Y141343D01*
X839449Y141309D01*
X839382Y141284D01*
X839341Y141252D01*
X839295Y141227D01*
X839246Y141175D01*
X839190Y141131D01*
X839161Y141087D01*
X839126Y141049D01*
X839095Y140984D01*
X839057Y140924D01*
X839044Y140873D01*
X839022Y140826D01*
X839014Y140755D01*
X838997Y140685D01*
X839001Y140633D01*
X838995Y140582D01*
X839010Y140511D01*
X839016Y140440D01*
X839036Y140392D01*
X839047Y140341D01*
X839084Y140280D01*
X839112Y140214D01*
X839157Y140158D01*
X839173Y140130D01*
X839191Y140115D01*
X839217Y140083D01*
X896742Y82558D01*
X896816Y82505D01*
X896885Y82445D01*
X896915Y82433D01*
X896942Y82414D01*
X897029Y82387D01*
X897113Y82353D01*
X897154Y82349D01*
X897177Y82342D01*
X897209Y82343D01*
X897280Y82335D01*
X899120Y82335D01*
X901799Y79656D01*
X901799Y75868D01*
X899120Y73189D01*
X895332Y73189D01*
X892653Y75868D01*
X892653Y77708D01*
X892639Y77798D01*
X892631Y77889D01*
X892619Y77919D01*
X892614Y77951D01*
X892571Y78031D01*
X892535Y78115D01*
X892509Y78147D01*
X892498Y78168D01*
X892475Y78190D01*
X892430Y78246D01*
X836750Y133926D01*
X836676Y133979D01*
X836607Y134039D01*
X836577Y134051D01*
X836550Y134070D01*
X836463Y134097D01*
X836379Y134131D01*
X836338Y134135D01*
X836315Y134142D01*
X836283Y134141D01*
X836212Y134149D01*
X784450Y134149D01*
X784430Y134146D01*
X784411Y134148D01*
X784309Y134126D01*
X784207Y134110D01*
X784190Y134100D01*
X784170Y134096D01*
X784081Y134043D01*
X783990Y133994D01*
X783976Y133980D01*
X783959Y133970D01*
X783892Y133891D01*
X783820Y133816D01*
X783812Y133798D01*
X783799Y133783D01*
X783760Y133687D01*
X783717Y133593D01*
X783715Y133573D01*
X783707Y133555D01*
X783689Y133388D01*
X783689Y60497D01*
X768187Y44995D01*
X738229Y44995D01*
X729308Y53916D01*
X729234Y53969D01*
X729165Y54029D01*
X729135Y54041D01*
X729108Y54060D01*
X729021Y54087D01*
X728937Y54121D01*
X728896Y54125D01*
X728873Y54132D01*
X728841Y54131D01*
X728770Y54139D01*
X702077Y54139D01*
X701987Y54125D01*
X701896Y54117D01*
X701867Y54105D01*
X701835Y54100D01*
X701754Y54057D01*
X701670Y54021D01*
X701638Y53995D01*
X701617Y53984D01*
X701595Y53961D01*
X701539Y53916D01*
X700238Y52615D01*
X699922Y52615D01*
X699851Y52604D01*
X699780Y52602D01*
X699731Y52584D01*
X699679Y52576D01*
X699616Y52542D01*
X699549Y52517D01*
X699508Y52485D01*
X699462Y52460D01*
X699413Y52408D01*
X699357Y52364D01*
X699328Y52320D01*
X699293Y52282D01*
X699262Y52217D01*
X699224Y52157D01*
X699211Y52106D01*
X699189Y52059D01*
X699181Y51988D01*
X699164Y51918D01*
X699168Y51866D01*
X699162Y51815D01*
X699177Y51744D01*
X699183Y51673D01*
X699203Y51625D01*
X699214Y51574D01*
X699251Y51513D01*
X699279Y51447D01*
X699324Y51391D01*
X699340Y51363D01*
X699358Y51348D01*
X699384Y51316D01*
X710814Y39886D01*
X710888Y39833D01*
X710957Y39773D01*
X710987Y39761D01*
X711014Y39742D01*
X711101Y39715D01*
X711185Y39681D01*
X711226Y39677D01*
X711249Y39670D01*
X711281Y39671D01*
X711352Y39663D01*
X760905Y39663D01*
X760995Y39677D01*
X761086Y39685D01*
X761115Y39697D01*
X761147Y39702D01*
X761228Y39745D01*
X761312Y39781D01*
X761344Y39807D01*
X761365Y39818D01*
X761387Y39841D01*
X761443Y39886D01*
X762744Y41187D01*
X766532Y41187D01*
X769211Y38508D01*
X769211Y34720D01*
X766532Y32041D01*
X762744Y32041D01*
X761443Y33342D01*
X761369Y33395D01*
X761299Y33455D01*
X761269Y33467D01*
X761243Y33486D01*
X761156Y33513D01*
X761071Y33547D01*
X761030Y33551D01*
X761008Y33558D01*
X760976Y33557D01*
X760905Y33565D01*
X708511Y33565D01*
X682826Y59250D01*
X682752Y59303D01*
X682683Y59363D01*
X682653Y59375D01*
X682626Y59394D01*
X682539Y59421D01*
X682455Y59455D01*
X682414Y59459D01*
X682391Y59466D01*
X682359Y59465D01*
X682288Y59473D01*
X680448Y59473D01*
X677769Y62152D01*
X677769Y64754D01*
X677758Y64825D01*
X677756Y64896D01*
X677738Y64945D01*
X677730Y64997D01*
X677696Y65060D01*
X677671Y65127D01*
X677639Y65168D01*
X677614Y65214D01*
X677562Y65263D01*
X677518Y65319D01*
X677474Y65348D01*
X677436Y65383D01*
X677371Y65414D01*
X677311Y65452D01*
X677260Y65465D01*
X677213Y65487D01*
X677142Y65495D01*
X677072Y65512D01*
X677020Y65508D01*
X676969Y65514D01*
X676898Y65499D01*
X676827Y65493D01*
X676779Y65473D01*
X676728Y65462D01*
X676667Y65425D01*
X676601Y65397D01*
X676545Y65352D01*
X676517Y65336D01*
X676502Y65318D01*
X676470Y65292D01*
X644466Y33288D01*
X644413Y33214D01*
X644353Y33145D01*
X644341Y33115D01*
X644322Y33088D01*
X644295Y33001D01*
X644261Y32917D01*
X644257Y32876D01*
X644250Y32853D01*
X644251Y32821D01*
X644243Y32750D01*
X644243Y26631D01*
X644257Y26541D01*
X644265Y26450D01*
X644277Y26421D01*
X644282Y26389D01*
X644325Y26308D01*
X644361Y26224D01*
X644387Y26192D01*
X644398Y26171D01*
X644421Y26149D01*
X644466Y26093D01*
X645767Y24792D01*
X645767Y21004D01*
X643088Y18325D01*
X639300Y18325D01*
X636621Y21004D01*
X636621Y24792D01*
X637922Y26093D01*
X637975Y26167D01*
X638035Y26237D01*
X638047Y26267D01*
X638066Y26293D01*
X638093Y26380D01*
X638127Y26465D01*
X638131Y26506D01*
X638138Y26528D01*
X638137Y26560D01*
X638145Y26631D01*
X638145Y35591D01*
X699590Y97036D01*
X699632Y97094D01*
X699681Y97146D01*
X699703Y97193D01*
X699734Y97235D01*
X699755Y97304D01*
X699785Y97369D01*
X699791Y97421D01*
X699806Y97471D01*
X699804Y97542D01*
X699812Y97613D01*
X699801Y97664D01*
X699800Y97716D01*
X699775Y97784D01*
X699760Y97854D01*
X699733Y97899D01*
X699715Y97947D01*
X699670Y98003D01*
X699634Y98065D01*
X699594Y98099D01*
X699562Y98139D01*
X699501Y98178D01*
X699447Y98225D01*
X699398Y98244D01*
X699355Y98272D01*
X699285Y98290D01*
X699219Y98317D01*
X699147Y98325D01*
X699116Y98333D01*
X699093Y98331D01*
X699052Y98335D01*
X698736Y98335D01*
X697435Y99636D01*
X697361Y99689D01*
X697291Y99749D01*
X697261Y99761D01*
X697235Y99780D01*
X697148Y99807D01*
X697063Y99841D01*
X697022Y99845D01*
X697000Y99852D01*
X696968Y99851D01*
X696897Y99859D01*
X651785Y99859D01*
X651695Y99845D01*
X651604Y99837D01*
X651575Y99825D01*
X651543Y99820D01*
X651462Y99777D01*
X651378Y99741D01*
X651346Y99715D01*
X651325Y99704D01*
X651303Y99681D01*
X651247Y99636D01*
X649946Y98335D01*
X647344Y98335D01*
X647273Y98324D01*
X647202Y98322D01*
X647153Y98304D01*
X647101Y98296D01*
X647038Y98262D01*
X646971Y98237D01*
X646930Y98205D01*
X646884Y98180D01*
X646835Y98128D01*
X646779Y98084D01*
X646750Y98040D01*
X646715Y98002D01*
X646684Y97937D01*
X646646Y97877D01*
X646633Y97826D01*
X646611Y97779D01*
X646603Y97708D01*
X646586Y97638D01*
X646590Y97586D01*
X646584Y97535D01*
X646599Y97464D01*
X646605Y97393D01*
X646625Y97345D01*
X646636Y97294D01*
X646673Y97233D01*
X646701Y97167D01*
X646746Y97111D01*
X646762Y97083D01*
X646780Y97068D01*
X646806Y97036D01*
X649854Y93988D01*
X649928Y93935D01*
X649997Y93875D01*
X650027Y93863D01*
X650054Y93844D01*
X650141Y93817D01*
X650225Y93783D01*
X650266Y93779D01*
X650289Y93772D01*
X650321Y93773D01*
X650392Y93765D01*
X652232Y93765D01*
X654911Y91086D01*
X654911Y87298D01*
X652232Y84619D01*
X648444Y84619D01*
X645765Y87298D01*
X645765Y89138D01*
X645751Y89228D01*
X645743Y89319D01*
X645731Y89349D01*
X645726Y89381D01*
X645683Y89461D01*
X645647Y89545D01*
X645621Y89577D01*
X645610Y89598D01*
X645587Y89620D01*
X645542Y89676D01*
X635859Y99359D01*
X635859Y117463D01*
X635845Y117553D01*
X635837Y117644D01*
X635825Y117673D01*
X635820Y117705D01*
X635777Y117786D01*
X635741Y117870D01*
X635715Y117902D01*
X635704Y117923D01*
X635681Y117945D01*
X635636Y118001D01*
X634335Y119302D01*
X634335Y121142D01*
X634321Y121232D01*
X634313Y121323D01*
X634301Y121353D01*
X634296Y121385D01*
X634253Y121465D01*
X634217Y121549D01*
X634191Y121581D01*
X634180Y121602D01*
X634157Y121624D01*
X634112Y121680D01*
X633296Y122496D01*
X633222Y122549D01*
X633153Y122609D01*
X633123Y122621D01*
X633096Y122640D01*
X633009Y122667D01*
X632925Y122701D01*
X632884Y122705D01*
X632861Y122712D01*
X632829Y122711D01*
X632758Y122719D01*
X608351Y122719D01*
X608261Y122705D01*
X608170Y122697D01*
X608141Y122685D01*
X608109Y122680D01*
X608028Y122637D01*
X607944Y122601D01*
X607912Y122575D01*
X607891Y122564D01*
X607869Y122541D01*
X607813Y122496D01*
X606512Y121195D01*
X602724Y121195D01*
X600045Y123874D01*
X600045Y127662D01*
X600661Y128278D01*
X600703Y128336D01*
X600752Y128388D01*
X600774Y128435D01*
X600804Y128477D01*
X600826Y128546D01*
X600856Y128611D01*
X600861Y128663D01*
X600877Y128713D01*
X600875Y128784D01*
X600883Y128855D01*
X600872Y128906D01*
X600870Y128958D01*
X600846Y129026D01*
X600831Y129096D01*
X600804Y129141D01*
X600786Y129189D01*
X600741Y129245D01*
X600704Y129307D01*
X600665Y129341D01*
X600632Y129381D01*
X600572Y129420D01*
X600518Y129467D01*
X600469Y129486D01*
X600425Y129514D01*
X600356Y129532D01*
X600289Y129559D01*
X600218Y129567D01*
X600187Y129575D01*
X600164Y129573D01*
X600123Y129577D01*
X598000Y129577D01*
X597980Y129574D01*
X597961Y129576D01*
X597859Y129554D01*
X597757Y129538D01*
X597740Y129528D01*
X597720Y129524D01*
X597631Y129471D01*
X597540Y129422D01*
X597526Y129408D01*
X597509Y129398D01*
X597442Y129319D01*
X597371Y129244D01*
X597362Y129226D01*
X597349Y129211D01*
X597310Y129115D01*
X597267Y129021D01*
X597265Y129001D01*
X597257Y128983D01*
X597239Y128816D01*
X597239Y121641D01*
X597254Y121551D01*
X597261Y121460D01*
X597273Y121431D01*
X597279Y121399D01*
X597321Y121318D01*
X597357Y121234D01*
X597383Y121202D01*
X597394Y121181D01*
X597417Y121159D01*
X597462Y121103D01*
X600047Y118518D01*
X600047Y114520D01*
X600043Y114507D01*
X600043Y114487D01*
X600038Y114468D01*
X600046Y114365D01*
X600049Y114261D01*
X600056Y114242D01*
X600057Y114222D01*
X600098Y114128D01*
X600133Y114030D01*
X600146Y114014D01*
X600154Y113996D01*
X600258Y113865D01*
X632813Y81311D01*
X632813Y72351D01*
X632827Y72261D01*
X632835Y72170D01*
X632847Y72141D01*
X632852Y72109D01*
X632895Y72028D01*
X632931Y71944D01*
X632957Y71912D01*
X632968Y71891D01*
X632991Y71869D01*
X633036Y71813D01*
X634337Y70512D01*
X634337Y66724D01*
X631658Y64045D01*
X627870Y64045D01*
X625191Y66724D01*
X625191Y70512D01*
X626492Y71813D01*
X626545Y71887D01*
X626605Y71957D01*
X626617Y71987D01*
X626636Y72013D01*
X626663Y72100D01*
X626697Y72185D01*
X626701Y72226D01*
X626708Y72248D01*
X626707Y72280D01*
X626715Y72351D01*
X626715Y78470D01*
X626701Y78560D01*
X626693Y78651D01*
X626681Y78681D01*
X626676Y78713D01*
X626633Y78793D01*
X626597Y78877D01*
X626571Y78909D01*
X626560Y78930D01*
X626537Y78952D01*
X626492Y79008D01*
X603632Y101868D01*
X603574Y101910D01*
X603522Y101959D01*
X603475Y101981D01*
X603433Y102012D01*
X603364Y102033D01*
X603299Y102063D01*
X603247Y102069D01*
X603197Y102084D01*
X603126Y102082D01*
X603055Y102090D01*
X603004Y102079D01*
X602952Y102078D01*
X602884Y102053D01*
X602814Y102038D01*
X602769Y102011D01*
X602721Y101993D01*
X602665Y101948D01*
X602603Y101912D01*
X602569Y101872D01*
X602529Y101840D01*
X602490Y101779D01*
X602443Y101725D01*
X602424Y101676D01*
X602396Y101633D01*
X602378Y101563D01*
X602351Y101497D01*
X602343Y101425D01*
X602335Y101394D01*
X602337Y101371D01*
X602333Y101330D01*
X602333Y101014D01*
X599654Y98335D01*
X598000Y98335D01*
X597980Y98332D01*
X597961Y98334D01*
X597859Y98312D01*
X597757Y98296D01*
X597740Y98286D01*
X597720Y98282D01*
X597631Y98229D01*
X597540Y98180D01*
X597526Y98166D01*
X597509Y98156D01*
X597442Y98077D01*
X597371Y98002D01*
X597362Y97984D01*
X597349Y97969D01*
X597310Y97873D01*
X597267Y97779D01*
X597265Y97759D01*
X597257Y97741D01*
X597239Y97574D01*
X597239Y66908D01*
X597254Y66818D01*
X597261Y66727D01*
X597273Y66697D01*
X597279Y66665D01*
X597321Y66585D01*
X597357Y66501D01*
X597383Y66469D01*
X597394Y66448D01*
X597417Y66426D01*
X597462Y66370D01*
X599562Y64270D01*
X599636Y64217D01*
X599705Y64157D01*
X599735Y64145D01*
X599762Y64126D01*
X599849Y64099D01*
X599933Y64065D01*
X599974Y64061D01*
X599997Y64054D01*
X600029Y64055D01*
X600100Y64047D01*
X601940Y64047D01*
X604619Y61368D01*
X604619Y57580D01*
X601940Y54901D01*
X598000Y54901D01*
X597980Y54898D01*
X597961Y54900D01*
X597859Y54878D01*
X597757Y54862D01*
X597740Y54852D01*
X597720Y54848D01*
X597631Y54795D01*
X597540Y54746D01*
X597526Y54732D01*
X597509Y54722D01*
X597442Y54643D01*
X597371Y54568D01*
X597362Y54550D01*
X597349Y54535D01*
X597310Y54439D01*
X597267Y54345D01*
X597265Y54325D01*
X597257Y54307D01*
X597239Y54140D01*
X597239Y51092D01*
X597242Y51072D01*
X597240Y51053D01*
X597262Y50951D01*
X597279Y50849D01*
X597288Y50832D01*
X597292Y50812D01*
X597345Y50723D01*
X597394Y50632D01*
X597408Y50618D01*
X597418Y50601D01*
X597497Y50534D01*
X597572Y50462D01*
X597590Y50454D01*
X597605Y50441D01*
X597701Y50402D01*
X597795Y50359D01*
X597815Y50357D01*
X597833Y50349D01*
X598000Y50331D01*
X601940Y50331D01*
X604619Y47652D01*
X604619Y45812D01*
X604633Y45722D01*
X604641Y45631D01*
X604653Y45601D01*
X604658Y45569D01*
X604701Y45489D01*
X604737Y45405D01*
X604763Y45373D01*
X604774Y45352D01*
X604797Y45330D01*
X604842Y45274D01*
X608706Y41410D01*
X608780Y41357D01*
X608849Y41297D01*
X608879Y41285D01*
X608906Y41266D01*
X608993Y41239D01*
X609077Y41205D01*
X609118Y41201D01*
X609141Y41194D01*
X609173Y41195D01*
X609244Y41187D01*
X611084Y41187D01*
X613763Y38508D01*
X613763Y34720D01*
X611084Y32041D01*
X607296Y32041D01*
X604617Y34720D01*
X604617Y36560D01*
X604603Y36650D01*
X604595Y36741D01*
X604583Y36771D01*
X604578Y36803D01*
X604535Y36883D01*
X604499Y36967D01*
X604473Y36999D01*
X604462Y37020D01*
X604439Y37042D01*
X604394Y37098D01*
X600530Y40962D01*
X600456Y41015D01*
X600387Y41075D01*
X600357Y41087D01*
X600330Y41106D01*
X600243Y41133D01*
X600159Y41167D01*
X600118Y41171D01*
X600095Y41178D01*
X600063Y41177D01*
X599992Y41185D01*
X598000Y41185D01*
X597980Y41182D01*
X597961Y41184D01*
X597859Y41162D01*
X597757Y41146D01*
X597740Y41136D01*
X597720Y41132D01*
X597631Y41079D01*
X597540Y41030D01*
X597526Y41016D01*
X597509Y41006D01*
X597442Y40927D01*
X597371Y40852D01*
X597362Y40834D01*
X597349Y40819D01*
X597310Y40723D01*
X597267Y40629D01*
X597265Y40609D01*
X597257Y40591D01*
X597239Y40424D01*
X597239Y24422D01*
X597242Y24402D01*
X597240Y24383D01*
X597262Y24281D01*
X597279Y24179D01*
X597288Y24162D01*
X597292Y24142D01*
X597345Y24053D01*
X597394Y23962D01*
X597408Y23948D01*
X597418Y23931D01*
X597497Y23864D01*
X597572Y23792D01*
X597590Y23784D01*
X597605Y23771D01*
X597701Y23732D01*
X597795Y23689D01*
X597815Y23687D01*
X597833Y23679D01*
X598000Y23661D01*
X607612Y23661D01*
X607702Y23675D01*
X607793Y23683D01*
X607823Y23695D01*
X607855Y23700D01*
X607935Y23743D01*
X608019Y23779D01*
X608051Y23805D01*
X608072Y23816D01*
X608094Y23839D01*
X608150Y23884D01*
X638684Y54418D01*
X638737Y54492D01*
X638797Y54561D01*
X638809Y54591D01*
X638828Y54618D01*
X638855Y54705D01*
X638889Y54789D01*
X638893Y54830D01*
X638900Y54853D01*
X638899Y54885D01*
X638907Y54956D01*
X638907Y56796D01*
X641586Y59475D01*
X645374Y59475D01*
X648053Y56796D01*
X648053Y53008D01*
X645374Y50329D01*
X643534Y50329D01*
X643444Y50315D01*
X643353Y50307D01*
X643323Y50295D01*
X643291Y50290D01*
X643211Y50247D01*
X643127Y50211D01*
X643095Y50185D01*
X643074Y50174D01*
X643052Y50151D01*
X642996Y50106D01*
X610663Y17773D01*
X610621Y17715D01*
X610572Y17663D01*
X610550Y17616D01*
X610519Y17574D01*
X610498Y17505D01*
X610468Y17440D01*
X610462Y17388D01*
X610447Y17338D01*
X610449Y17267D01*
X610441Y17196D01*
X610452Y17145D01*
X610453Y17093D01*
X610478Y17025D01*
X610493Y16955D01*
X610520Y16910D01*
X610538Y16862D01*
X610583Y16805D01*
X610619Y16744D01*
X610659Y16710D01*
X610691Y16670D01*
X610752Y16631D01*
X610806Y16584D01*
X610855Y16565D01*
X610898Y16537D01*
X610968Y16519D01*
X611034Y16492D01*
X611106Y16484D01*
X611137Y16476D01*
X611160Y16478D01*
X611201Y16474D01*
X933313Y16474D01*
X933340Y16478D01*
G37*
G36*
X367020Y48810D02*
X367020Y48810D01*
X367039Y48808D01*
X367141Y48830D01*
X367243Y48846D01*
X367260Y48856D01*
X367280Y48860D01*
X367369Y48913D01*
X367460Y48962D01*
X367474Y48976D01*
X367491Y48986D01*
X367558Y49065D01*
X367630Y49140D01*
X367638Y49158D01*
X367651Y49173D01*
X367690Y49269D01*
X367733Y49363D01*
X367735Y49383D01*
X367743Y49401D01*
X367761Y49568D01*
X367761Y71666D01*
X367759Y71677D01*
X367760Y71684D01*
X367759Y71691D01*
X367760Y71705D01*
X367738Y71807D01*
X367722Y71909D01*
X367712Y71926D01*
X367708Y71946D01*
X367655Y72035D01*
X367606Y72126D01*
X367592Y72140D01*
X367582Y72157D01*
X367503Y72224D01*
X367428Y72296D01*
X367410Y72304D01*
X367395Y72317D01*
X367299Y72356D01*
X367205Y72399D01*
X367185Y72401D01*
X367167Y72409D01*
X367000Y72427D01*
X270785Y72427D01*
X270715Y72416D01*
X270643Y72414D01*
X270594Y72396D01*
X270543Y72388D01*
X270479Y72354D01*
X270412Y72329D01*
X270371Y72297D01*
X270325Y72272D01*
X270276Y72220D01*
X270220Y72176D01*
X270192Y72132D01*
X270156Y72094D01*
X270126Y72029D01*
X270087Y71969D01*
X270074Y71918D01*
X270052Y71871D01*
X270044Y71800D01*
X270027Y71730D01*
X270031Y71678D01*
X270025Y71627D01*
X270040Y71556D01*
X270046Y71485D01*
X270066Y71437D01*
X270077Y71386D01*
X270114Y71325D01*
X270142Y71259D01*
X270187Y71203D01*
X270204Y71175D01*
X270221Y71160D01*
X270222Y71159D01*
X270225Y71153D01*
X270229Y71150D01*
X270247Y71128D01*
X270863Y70512D01*
X270863Y68672D01*
X270877Y68582D01*
X270885Y68491D01*
X270897Y68461D01*
X270902Y68429D01*
X270945Y68349D01*
X270981Y68265D01*
X271007Y68233D01*
X271018Y68212D01*
X271041Y68190D01*
X271086Y68134D01*
X290190Y49030D01*
X290264Y48977D01*
X290333Y48917D01*
X290363Y48905D01*
X290390Y48886D01*
X290477Y48859D01*
X290561Y48825D01*
X290602Y48821D01*
X290625Y48814D01*
X290657Y48815D01*
X290728Y48807D01*
X367000Y48807D01*
X367020Y48810D01*
G37*
D10*
X23631Y143928D02*
X933481Y143928D01*
X936509Y143620D01*
X939335Y142739D01*
X941895Y141345D01*
X944128Y139500D01*
X945973Y137267D01*
X947367Y134707D01*
X948248Y131881D01*
X948556Y128853D01*
X948556Y29003D01*
X948248Y25975D01*
X947367Y23149D01*
X945973Y20589D01*
X944128Y18356D01*
X941895Y16511D01*
X939335Y15117D01*
X936509Y14236D01*
X933481Y13928D01*
X23631Y13928D01*
X20603Y14236D01*
X17777Y15117D01*
X15217Y16511D01*
X12984Y18356D01*
X11139Y20589D01*
X9745Y23149D01*
X8864Y25975D01*
X8556Y29003D01*
X8556Y128853D01*
X8864Y131881D01*
X9745Y134707D01*
X11139Y137267D01*
X12984Y139500D01*
X15217Y141345D01*
X17777Y142739D01*
X20603Y143620D01*
X23631Y143928D01*
X758556Y84978D02*
X761791Y84652D01*
X764803Y83717D01*
X767530Y82237D01*
X769905Y80277D01*
X771865Y77902D01*
X773345Y75175D01*
X774280Y72163D01*
X774606Y68928D01*
X774280Y65693D01*
X773345Y62681D01*
X771865Y59954D01*
X769905Y57579D01*
X767530Y55619D01*
X764803Y54139D01*
X761791Y53204D01*
X758556Y52878D01*
X755321Y53204D01*
X752309Y54139D01*
X749582Y55619D01*
X747207Y57579D01*
X745247Y59954D01*
X743767Y62681D01*
X742832Y65693D01*
X742506Y68928D01*
X742832Y72163D01*
X743767Y75175D01*
X745247Y77902D01*
X747207Y80277D01*
X749582Y82237D01*
X752309Y83717D01*
X755321Y84652D01*
X758556Y84978D01*
X201791Y84652D02*
X198556Y84978D01*
X201791Y84652D02*
X204803Y83717D01*
X207530Y82237D01*
X209905Y80277D01*
X211865Y77902D01*
X213345Y75175D01*
X214280Y72163D01*
X214606Y68928D01*
X214280Y65693D01*
X213345Y62681D01*
X211865Y59954D01*
X209905Y57579D01*
X207530Y55619D01*
X204803Y54139D01*
X201791Y53204D01*
X198556Y52878D01*
X195321Y53204D01*
X192309Y54139D01*
X189582Y55619D01*
X187207Y57579D01*
X185247Y59954D01*
X183767Y62681D01*
X182832Y65693D01*
X182506Y68928D01*
X182832Y72163D01*
X183767Y75175D01*
X185247Y77902D01*
X187207Y80277D01*
X189582Y82237D01*
X192309Y83717D01*
X195321Y84652D01*
X198556Y84978D01*
X373556Y58928D02*
X583556Y58928D01*
X583556Y68928D01*
X373556Y68928D01*
X373556Y58928D01*
X755425Y84670D02*
X758556Y84978D01*
X755425Y84670D02*
X752414Y83756D01*
X749639Y82273D01*
X747207Y80277D01*
X745211Y77845D01*
X743728Y75070D01*
X742814Y72059D01*
X742506Y68928D01*
X742814Y65797D01*
X743728Y62786D01*
X745211Y60011D01*
X747207Y57579D01*
X749639Y55583D01*
X752414Y54100D01*
X755425Y53186D01*
X758556Y52878D01*
X761687Y53186D01*
X764698Y54100D01*
X767473Y55583D01*
X769905Y57579D01*
X771901Y60011D01*
X773384Y62786D01*
X774298Y65797D01*
X774606Y68928D01*
X774298Y72059D01*
X773384Y75070D01*
X771901Y77845D01*
X769905Y80277D01*
X767473Y82273D01*
X764698Y83756D01*
X761687Y84670D01*
X758556Y84978D01*
X198556Y84978D02*
X195425Y84670D01*
X192414Y83756D01*
X189639Y82273D01*
X187207Y80277D01*
X185211Y77845D01*
X183728Y75070D01*
X182814Y72059D01*
X182506Y68928D01*
X182814Y65797D01*
X183728Y62786D01*
X185211Y60011D01*
X187207Y57579D01*
X189639Y55583D01*
X192414Y54100D01*
X195425Y53186D01*
X198556Y52878D01*
X201687Y53186D01*
X204698Y54100D01*
X207473Y55583D01*
X209905Y57579D01*
X211901Y60011D01*
X213384Y62786D01*
X214298Y65797D01*
X214606Y68928D01*
X214298Y72059D01*
X213384Y75070D01*
X211901Y77845D01*
X209905Y80277D01*
X207473Y82273D01*
X204698Y83756D01*
X201687Y84670D01*
X198556Y84978D01*
D11*
X194738Y71398D02*
X193496Y71398D01*
X193426Y71400D01*
X193357Y71406D01*
X193288Y71416D01*
X193220Y71429D01*
X193152Y71447D01*
X193086Y71468D01*
X193021Y71493D01*
X192957Y71521D01*
X192895Y71553D01*
X192835Y71588D01*
X192777Y71627D01*
X192722Y71669D01*
X192668Y71714D01*
X192618Y71762D01*
X192570Y71812D01*
X192525Y71866D01*
X192483Y71921D01*
X192444Y71979D01*
X192409Y72039D01*
X192377Y72101D01*
X192349Y72165D01*
X192324Y72230D01*
X192303Y72296D01*
X192285Y72364D01*
X192272Y72432D01*
X192262Y72501D01*
X192256Y72570D01*
X192254Y72640D01*
X192254Y75744D01*
X192256Y75814D01*
X192262Y75883D01*
X192272Y75952D01*
X192285Y76020D01*
X192303Y76088D01*
X192324Y76154D01*
X192349Y76219D01*
X192377Y76283D01*
X192409Y76345D01*
X192444Y76405D01*
X192483Y76463D01*
X192525Y76518D01*
X192570Y76572D01*
X192618Y76622D01*
X192668Y76670D01*
X192722Y76715D01*
X192777Y76757D01*
X192835Y76796D01*
X192895Y76831D01*
X192957Y76863D01*
X193021Y76891D01*
X193086Y76916D01*
X193152Y76937D01*
X193220Y76955D01*
X193288Y76968D01*
X193357Y76978D01*
X193426Y76984D01*
X193496Y76986D01*
X194738Y76986D01*
X197025Y76986D02*
X197025Y72950D01*
X197027Y72873D01*
X197033Y72795D01*
X197042Y72719D01*
X197056Y72642D01*
X197073Y72567D01*
X197094Y72493D01*
X197119Y72419D01*
X197147Y72347D01*
X197179Y72277D01*
X197214Y72208D01*
X197253Y72141D01*
X197295Y72076D01*
X197340Y72013D01*
X197388Y71952D01*
X197439Y71894D01*
X197493Y71839D01*
X197550Y71786D01*
X197609Y71737D01*
X197671Y71690D01*
X197735Y71646D01*
X197801Y71606D01*
X197869Y71569D01*
X197939Y71535D01*
X198010Y71505D01*
X198083Y71479D01*
X198157Y71456D01*
X198232Y71437D01*
X198307Y71422D01*
X198384Y71410D01*
X198461Y71402D01*
X198538Y71398D01*
X198616Y71398D01*
X198693Y71402D01*
X198770Y71410D01*
X198847Y71422D01*
X198922Y71437D01*
X198997Y71456D01*
X199071Y71479D01*
X199144Y71505D01*
X199215Y71535D01*
X199285Y71569D01*
X199353Y71606D01*
X199419Y71646D01*
X199483Y71690D01*
X199545Y71737D01*
X199604Y71786D01*
X199661Y71839D01*
X199715Y71894D01*
X199766Y71952D01*
X199814Y72013D01*
X199859Y72076D01*
X199901Y72141D01*
X199940Y72208D01*
X199975Y72277D01*
X200007Y72347D01*
X200035Y72419D01*
X200060Y72493D01*
X200081Y72567D01*
X200098Y72642D01*
X200112Y72719D01*
X200121Y72795D01*
X200127Y72873D01*
X200129Y72950D01*
X200130Y72950D02*
X200130Y76986D01*
X203881Y76986D02*
X203881Y71398D01*
X202329Y76986D02*
X205433Y76986D01*
X192254Y66290D02*
X192254Y63806D01*
X192254Y66290D02*
X192256Y66367D01*
X192262Y66445D01*
X192271Y66521D01*
X192285Y66598D01*
X192302Y66673D01*
X192323Y66747D01*
X192348Y66821D01*
X192376Y66893D01*
X192408Y66963D01*
X192443Y67032D01*
X192482Y67099D01*
X192524Y67164D01*
X192569Y67227D01*
X192617Y67288D01*
X192668Y67346D01*
X192722Y67401D01*
X192779Y67454D01*
X192838Y67503D01*
X192900Y67550D01*
X192964Y67594D01*
X193030Y67634D01*
X193098Y67671D01*
X193168Y67705D01*
X193239Y67735D01*
X193312Y67761D01*
X193386Y67784D01*
X193461Y67803D01*
X193536Y67818D01*
X193613Y67830D01*
X193690Y67838D01*
X193767Y67842D01*
X193845Y67842D01*
X193922Y67838D01*
X193999Y67830D01*
X194076Y67818D01*
X194151Y67803D01*
X194226Y67784D01*
X194300Y67761D01*
X194373Y67735D01*
X194444Y67705D01*
X194514Y67671D01*
X194582Y67634D01*
X194648Y67594D01*
X194712Y67550D01*
X194774Y67503D01*
X194833Y67454D01*
X194890Y67401D01*
X194944Y67346D01*
X194995Y67288D01*
X195043Y67227D01*
X195088Y67164D01*
X195130Y67099D01*
X195169Y67032D01*
X195204Y66963D01*
X195236Y66893D01*
X195264Y66821D01*
X195289Y66747D01*
X195310Y66673D01*
X195327Y66598D01*
X195341Y66521D01*
X195350Y66445D01*
X195356Y66367D01*
X195358Y66290D01*
X195358Y63806D01*
X195356Y63729D01*
X195350Y63651D01*
X195341Y63575D01*
X195327Y63498D01*
X195310Y63423D01*
X195289Y63349D01*
X195264Y63275D01*
X195236Y63203D01*
X195204Y63133D01*
X195169Y63064D01*
X195130Y62997D01*
X195088Y62932D01*
X195043Y62869D01*
X194995Y62808D01*
X194944Y62750D01*
X194890Y62695D01*
X194833Y62642D01*
X194774Y62593D01*
X194712Y62546D01*
X194648Y62502D01*
X194582Y62462D01*
X194514Y62425D01*
X194444Y62391D01*
X194373Y62361D01*
X194300Y62335D01*
X194226Y62312D01*
X194151Y62293D01*
X194076Y62278D01*
X193999Y62266D01*
X193922Y62258D01*
X193845Y62254D01*
X193767Y62254D01*
X193690Y62258D01*
X193613Y62266D01*
X193536Y62278D01*
X193461Y62293D01*
X193386Y62312D01*
X193312Y62335D01*
X193239Y62361D01*
X193168Y62391D01*
X193098Y62425D01*
X193030Y62462D01*
X192964Y62502D01*
X192900Y62546D01*
X192838Y62593D01*
X192779Y62642D01*
X192722Y62695D01*
X192668Y62750D01*
X192617Y62808D01*
X192569Y62869D01*
X192524Y62932D01*
X192482Y62997D01*
X192443Y63064D01*
X192408Y63133D01*
X192376Y63203D01*
X192348Y63275D01*
X192323Y63349D01*
X192302Y63423D01*
X192285Y63498D01*
X192271Y63575D01*
X192262Y63651D01*
X192256Y63729D01*
X192254Y63806D01*
X197923Y63806D02*
X197923Y67842D01*
X197923Y63806D02*
X197925Y63729D01*
X197931Y63651D01*
X197940Y63575D01*
X197954Y63498D01*
X197971Y63423D01*
X197992Y63349D01*
X198017Y63275D01*
X198045Y63203D01*
X198077Y63133D01*
X198112Y63064D01*
X198151Y62997D01*
X198193Y62932D01*
X198238Y62869D01*
X198286Y62808D01*
X198337Y62750D01*
X198391Y62695D01*
X198448Y62642D01*
X198507Y62593D01*
X198569Y62546D01*
X198633Y62502D01*
X198699Y62462D01*
X198767Y62425D01*
X198837Y62391D01*
X198908Y62361D01*
X198981Y62335D01*
X199055Y62312D01*
X199130Y62293D01*
X199205Y62278D01*
X199282Y62266D01*
X199359Y62258D01*
X199436Y62254D01*
X199514Y62254D01*
X199591Y62258D01*
X199668Y62266D01*
X199745Y62278D01*
X199820Y62293D01*
X199895Y62312D01*
X199969Y62335D01*
X200042Y62361D01*
X200113Y62391D01*
X200183Y62425D01*
X200251Y62462D01*
X200317Y62502D01*
X200381Y62546D01*
X200443Y62593D01*
X200502Y62642D01*
X200559Y62695D01*
X200613Y62750D01*
X200664Y62808D01*
X200712Y62869D01*
X200757Y62932D01*
X200799Y62997D01*
X200838Y63064D01*
X200873Y63133D01*
X200905Y63203D01*
X200933Y63275D01*
X200958Y63349D01*
X200979Y63423D01*
X200996Y63498D01*
X201010Y63575D01*
X201019Y63651D01*
X201025Y63729D01*
X201027Y63806D01*
X201028Y63806D02*
X201028Y67842D01*
X204779Y67842D02*
X204779Y62254D01*
X203227Y67842D02*
X206331Y67842D01*
X752496Y71398D02*
X753738Y71398D01*
X752496Y71398D02*
X752426Y71400D01*
X752357Y71406D01*
X752288Y71416D01*
X752220Y71429D01*
X752152Y71447D01*
X752086Y71468D01*
X752021Y71493D01*
X751957Y71521D01*
X751895Y71553D01*
X751835Y71588D01*
X751777Y71627D01*
X751722Y71669D01*
X751668Y71714D01*
X751618Y71762D01*
X751570Y71812D01*
X751525Y71866D01*
X751483Y71921D01*
X751444Y71979D01*
X751409Y72039D01*
X751377Y72101D01*
X751349Y72165D01*
X751324Y72230D01*
X751303Y72296D01*
X751285Y72364D01*
X751272Y72432D01*
X751262Y72501D01*
X751256Y72570D01*
X751254Y72640D01*
X751254Y75744D01*
X751256Y75814D01*
X751262Y75883D01*
X751272Y75952D01*
X751285Y76020D01*
X751303Y76088D01*
X751324Y76154D01*
X751349Y76219D01*
X751377Y76283D01*
X751409Y76345D01*
X751444Y76405D01*
X751483Y76463D01*
X751525Y76518D01*
X751570Y76572D01*
X751618Y76622D01*
X751668Y76670D01*
X751722Y76715D01*
X751777Y76757D01*
X751835Y76796D01*
X751895Y76831D01*
X751957Y76863D01*
X752021Y76891D01*
X752086Y76916D01*
X752152Y76937D01*
X752220Y76955D01*
X752288Y76968D01*
X752357Y76978D01*
X752426Y76984D01*
X752496Y76986D01*
X753738Y76986D01*
X756025Y76986D02*
X756025Y72950D01*
X756027Y72873D01*
X756033Y72795D01*
X756042Y72719D01*
X756056Y72642D01*
X756073Y72567D01*
X756094Y72493D01*
X756119Y72419D01*
X756147Y72347D01*
X756179Y72277D01*
X756214Y72208D01*
X756253Y72141D01*
X756295Y72076D01*
X756340Y72013D01*
X756388Y71952D01*
X756439Y71894D01*
X756493Y71839D01*
X756550Y71786D01*
X756609Y71737D01*
X756671Y71690D01*
X756735Y71646D01*
X756801Y71606D01*
X756869Y71569D01*
X756939Y71535D01*
X757010Y71505D01*
X757083Y71479D01*
X757157Y71456D01*
X757232Y71437D01*
X757307Y71422D01*
X757384Y71410D01*
X757461Y71402D01*
X757538Y71398D01*
X757616Y71398D01*
X757693Y71402D01*
X757770Y71410D01*
X757847Y71422D01*
X757922Y71437D01*
X757997Y71456D01*
X758071Y71479D01*
X758144Y71505D01*
X758215Y71535D01*
X758285Y71569D01*
X758353Y71606D01*
X758419Y71646D01*
X758483Y71690D01*
X758545Y71737D01*
X758604Y71786D01*
X758661Y71839D01*
X758715Y71894D01*
X758766Y71952D01*
X758814Y72013D01*
X758859Y72076D01*
X758901Y72141D01*
X758940Y72208D01*
X758975Y72277D01*
X759007Y72347D01*
X759035Y72419D01*
X759060Y72493D01*
X759081Y72567D01*
X759098Y72642D01*
X759112Y72719D01*
X759121Y72795D01*
X759127Y72873D01*
X759129Y72950D01*
X759130Y72950D02*
X759130Y76986D01*
X762881Y76986D02*
X762881Y71398D01*
X761329Y76986D02*
X764433Y76986D01*
X751254Y66290D02*
X751254Y63806D01*
X751254Y66290D02*
X751256Y66367D01*
X751262Y66445D01*
X751271Y66521D01*
X751285Y66598D01*
X751302Y66673D01*
X751323Y66747D01*
X751348Y66821D01*
X751376Y66893D01*
X751408Y66963D01*
X751443Y67032D01*
X751482Y67099D01*
X751524Y67164D01*
X751569Y67227D01*
X751617Y67288D01*
X751668Y67346D01*
X751722Y67401D01*
X751779Y67454D01*
X751838Y67503D01*
X751900Y67550D01*
X751964Y67594D01*
X752030Y67634D01*
X752098Y67671D01*
X752168Y67705D01*
X752239Y67735D01*
X752312Y67761D01*
X752386Y67784D01*
X752461Y67803D01*
X752536Y67818D01*
X752613Y67830D01*
X752690Y67838D01*
X752767Y67842D01*
X752845Y67842D01*
X752922Y67838D01*
X752999Y67830D01*
X753076Y67818D01*
X753151Y67803D01*
X753226Y67784D01*
X753300Y67761D01*
X753373Y67735D01*
X753444Y67705D01*
X753514Y67671D01*
X753582Y67634D01*
X753648Y67594D01*
X753712Y67550D01*
X753774Y67503D01*
X753833Y67454D01*
X753890Y67401D01*
X753944Y67346D01*
X753995Y67288D01*
X754043Y67227D01*
X754088Y67164D01*
X754130Y67099D01*
X754169Y67032D01*
X754204Y66963D01*
X754236Y66893D01*
X754264Y66821D01*
X754289Y66747D01*
X754310Y66673D01*
X754327Y66598D01*
X754341Y66521D01*
X754350Y66445D01*
X754356Y66367D01*
X754358Y66290D01*
X754358Y63806D01*
X754356Y63729D01*
X754350Y63651D01*
X754341Y63575D01*
X754327Y63498D01*
X754310Y63423D01*
X754289Y63349D01*
X754264Y63275D01*
X754236Y63203D01*
X754204Y63133D01*
X754169Y63064D01*
X754130Y62997D01*
X754088Y62932D01*
X754043Y62869D01*
X753995Y62808D01*
X753944Y62750D01*
X753890Y62695D01*
X753833Y62642D01*
X753774Y62593D01*
X753712Y62546D01*
X753648Y62502D01*
X753582Y62462D01*
X753514Y62425D01*
X753444Y62391D01*
X753373Y62361D01*
X753300Y62335D01*
X753226Y62312D01*
X753151Y62293D01*
X753076Y62278D01*
X752999Y62266D01*
X752922Y62258D01*
X752845Y62254D01*
X752767Y62254D01*
X752690Y62258D01*
X752613Y62266D01*
X752536Y62278D01*
X752461Y62293D01*
X752386Y62312D01*
X752312Y62335D01*
X752239Y62361D01*
X752168Y62391D01*
X752098Y62425D01*
X752030Y62462D01*
X751964Y62502D01*
X751900Y62546D01*
X751838Y62593D01*
X751779Y62642D01*
X751722Y62695D01*
X751668Y62750D01*
X751617Y62808D01*
X751569Y62869D01*
X751524Y62932D01*
X751482Y62997D01*
X751443Y63064D01*
X751408Y63133D01*
X751376Y63203D01*
X751348Y63275D01*
X751323Y63349D01*
X751302Y63423D01*
X751285Y63498D01*
X751271Y63575D01*
X751262Y63651D01*
X751256Y63729D01*
X751254Y63806D01*
X756923Y63806D02*
X756923Y67842D01*
X756923Y63806D02*
X756925Y63729D01*
X756931Y63651D01*
X756940Y63575D01*
X756954Y63498D01*
X756971Y63423D01*
X756992Y63349D01*
X757017Y63275D01*
X757045Y63203D01*
X757077Y63133D01*
X757112Y63064D01*
X757151Y62997D01*
X757193Y62932D01*
X757238Y62869D01*
X757286Y62808D01*
X757337Y62750D01*
X757391Y62695D01*
X757448Y62642D01*
X757507Y62593D01*
X757569Y62546D01*
X757633Y62502D01*
X757699Y62462D01*
X757767Y62425D01*
X757837Y62391D01*
X757908Y62361D01*
X757981Y62335D01*
X758055Y62312D01*
X758130Y62293D01*
X758205Y62278D01*
X758282Y62266D01*
X758359Y62258D01*
X758436Y62254D01*
X758514Y62254D01*
X758591Y62258D01*
X758668Y62266D01*
X758745Y62278D01*
X758820Y62293D01*
X758895Y62312D01*
X758969Y62335D01*
X759042Y62361D01*
X759113Y62391D01*
X759183Y62425D01*
X759251Y62462D01*
X759317Y62502D01*
X759381Y62546D01*
X759443Y62593D01*
X759502Y62642D01*
X759559Y62695D01*
X759613Y62750D01*
X759664Y62808D01*
X759712Y62869D01*
X759757Y62932D01*
X759799Y62997D01*
X759838Y63064D01*
X759873Y63133D01*
X759905Y63203D01*
X759933Y63275D01*
X759958Y63349D01*
X759979Y63423D01*
X759996Y63498D01*
X760010Y63575D01*
X760019Y63651D01*
X760025Y63729D01*
X760027Y63806D01*
X760028Y63806D02*
X760028Y67842D01*
X763779Y67842D02*
X763779Y62254D01*
X762227Y67842D02*
X765331Y67842D01*
X383965Y61278D02*
X382724Y61278D01*
X382724Y61277D02*
X382654Y61279D01*
X382585Y61285D01*
X382516Y61295D01*
X382448Y61308D01*
X382380Y61326D01*
X382314Y61347D01*
X382249Y61372D01*
X382185Y61400D01*
X382123Y61432D01*
X382063Y61467D01*
X382005Y61506D01*
X381950Y61548D01*
X381896Y61593D01*
X381846Y61641D01*
X381798Y61691D01*
X381753Y61745D01*
X381711Y61800D01*
X381672Y61858D01*
X381637Y61918D01*
X381605Y61980D01*
X381577Y62044D01*
X381552Y62109D01*
X381531Y62175D01*
X381513Y62243D01*
X381500Y62311D01*
X381490Y62380D01*
X381484Y62449D01*
X381482Y62519D01*
X381482Y65624D01*
X381484Y65694D01*
X381490Y65763D01*
X381500Y65832D01*
X381513Y65900D01*
X381531Y65968D01*
X381552Y66034D01*
X381577Y66099D01*
X381605Y66163D01*
X381637Y66225D01*
X381672Y66285D01*
X381711Y66343D01*
X381753Y66398D01*
X381798Y66452D01*
X381846Y66502D01*
X381896Y66550D01*
X381950Y66595D01*
X382005Y66637D01*
X382063Y66676D01*
X382123Y66711D01*
X382185Y66743D01*
X382249Y66771D01*
X382314Y66796D01*
X382380Y66817D01*
X382448Y66835D01*
X382516Y66848D01*
X382585Y66858D01*
X382654Y66864D01*
X382724Y66866D01*
X383965Y66866D01*
X386253Y66866D02*
X386253Y62830D01*
X386255Y62753D01*
X386261Y62675D01*
X386270Y62599D01*
X386284Y62522D01*
X386301Y62447D01*
X386322Y62373D01*
X386347Y62299D01*
X386375Y62227D01*
X386407Y62157D01*
X386442Y62088D01*
X386481Y62021D01*
X386523Y61956D01*
X386568Y61893D01*
X386616Y61832D01*
X386667Y61774D01*
X386721Y61719D01*
X386778Y61666D01*
X386837Y61617D01*
X386899Y61570D01*
X386963Y61526D01*
X387029Y61486D01*
X387097Y61449D01*
X387167Y61415D01*
X387238Y61385D01*
X387311Y61359D01*
X387385Y61336D01*
X387460Y61317D01*
X387535Y61302D01*
X387612Y61290D01*
X387689Y61282D01*
X387766Y61278D01*
X387844Y61278D01*
X387921Y61282D01*
X387998Y61290D01*
X388075Y61302D01*
X388150Y61317D01*
X388225Y61336D01*
X388299Y61359D01*
X388372Y61385D01*
X388443Y61415D01*
X388513Y61449D01*
X388581Y61486D01*
X388647Y61526D01*
X388711Y61570D01*
X388773Y61617D01*
X388832Y61666D01*
X388889Y61719D01*
X388943Y61774D01*
X388994Y61832D01*
X389042Y61893D01*
X389087Y61956D01*
X389129Y62021D01*
X389168Y62088D01*
X389203Y62157D01*
X389235Y62227D01*
X389263Y62299D01*
X389288Y62373D01*
X389309Y62447D01*
X389326Y62522D01*
X389340Y62599D01*
X389349Y62675D01*
X389355Y62753D01*
X389357Y62830D01*
X389357Y66866D01*
X393109Y66866D02*
X393109Y61278D01*
X391556Y66866D02*
X394661Y66866D01*
X399603Y65313D02*
X399603Y62830D01*
X399603Y65313D02*
X399605Y65390D01*
X399611Y65468D01*
X399620Y65544D01*
X399634Y65621D01*
X399651Y65696D01*
X399672Y65770D01*
X399697Y65844D01*
X399725Y65916D01*
X399757Y65986D01*
X399792Y66055D01*
X399831Y66122D01*
X399873Y66187D01*
X399918Y66250D01*
X399966Y66311D01*
X400017Y66369D01*
X400071Y66424D01*
X400128Y66477D01*
X400187Y66526D01*
X400249Y66573D01*
X400313Y66617D01*
X400379Y66657D01*
X400447Y66694D01*
X400517Y66728D01*
X400588Y66758D01*
X400661Y66784D01*
X400735Y66807D01*
X400810Y66826D01*
X400885Y66841D01*
X400962Y66853D01*
X401039Y66861D01*
X401116Y66865D01*
X401194Y66865D01*
X401271Y66861D01*
X401348Y66853D01*
X401425Y66841D01*
X401500Y66826D01*
X401575Y66807D01*
X401649Y66784D01*
X401722Y66758D01*
X401793Y66728D01*
X401863Y66694D01*
X401931Y66657D01*
X401997Y66617D01*
X402061Y66573D01*
X402123Y66526D01*
X402182Y66477D01*
X402239Y66424D01*
X402293Y66369D01*
X402344Y66311D01*
X402392Y66250D01*
X402437Y66187D01*
X402479Y66122D01*
X402518Y66055D01*
X402553Y65986D01*
X402585Y65916D01*
X402613Y65844D01*
X402638Y65770D01*
X402659Y65696D01*
X402676Y65621D01*
X402690Y65544D01*
X402699Y65468D01*
X402705Y65390D01*
X402707Y65313D01*
X402707Y62830D01*
X402705Y62753D01*
X402699Y62675D01*
X402690Y62599D01*
X402676Y62522D01*
X402659Y62447D01*
X402638Y62373D01*
X402613Y62299D01*
X402585Y62227D01*
X402553Y62157D01*
X402518Y62088D01*
X402479Y62021D01*
X402437Y61956D01*
X402392Y61893D01*
X402344Y61832D01*
X402293Y61774D01*
X402239Y61719D01*
X402182Y61666D01*
X402123Y61617D01*
X402061Y61570D01*
X401997Y61526D01*
X401931Y61486D01*
X401863Y61449D01*
X401793Y61415D01*
X401722Y61385D01*
X401649Y61359D01*
X401575Y61336D01*
X401500Y61317D01*
X401425Y61302D01*
X401348Y61290D01*
X401271Y61282D01*
X401194Y61278D01*
X401116Y61278D01*
X401039Y61282D01*
X400962Y61290D01*
X400885Y61302D01*
X400810Y61317D01*
X400735Y61336D01*
X400661Y61359D01*
X400588Y61385D01*
X400517Y61415D01*
X400447Y61449D01*
X400379Y61486D01*
X400313Y61526D01*
X400249Y61570D01*
X400187Y61617D01*
X400128Y61666D01*
X400071Y61719D01*
X400017Y61774D01*
X399966Y61832D01*
X399918Y61893D01*
X399873Y61956D01*
X399831Y62021D01*
X399792Y62088D01*
X399757Y62157D01*
X399725Y62227D01*
X399697Y62299D01*
X399672Y62373D01*
X399651Y62447D01*
X399634Y62522D01*
X399620Y62599D01*
X399611Y62675D01*
X399605Y62753D01*
X399603Y62830D01*
X405272Y62830D02*
X405272Y66866D01*
X405273Y62830D02*
X405275Y62753D01*
X405281Y62675D01*
X405290Y62599D01*
X405304Y62522D01*
X405321Y62447D01*
X405342Y62373D01*
X405367Y62299D01*
X405395Y62227D01*
X405427Y62157D01*
X405462Y62088D01*
X405501Y62021D01*
X405543Y61956D01*
X405588Y61893D01*
X405636Y61832D01*
X405687Y61774D01*
X405741Y61719D01*
X405798Y61666D01*
X405857Y61617D01*
X405919Y61570D01*
X405983Y61526D01*
X406049Y61486D01*
X406117Y61449D01*
X406187Y61415D01*
X406258Y61385D01*
X406331Y61359D01*
X406405Y61336D01*
X406480Y61317D01*
X406555Y61302D01*
X406632Y61290D01*
X406709Y61282D01*
X406786Y61278D01*
X406864Y61278D01*
X406941Y61282D01*
X407018Y61290D01*
X407095Y61302D01*
X407170Y61317D01*
X407245Y61336D01*
X407319Y61359D01*
X407392Y61385D01*
X407463Y61415D01*
X407533Y61449D01*
X407601Y61486D01*
X407667Y61526D01*
X407731Y61570D01*
X407793Y61617D01*
X407852Y61666D01*
X407909Y61719D01*
X407963Y61774D01*
X408014Y61832D01*
X408062Y61893D01*
X408107Y61956D01*
X408149Y62021D01*
X408188Y62088D01*
X408223Y62157D01*
X408255Y62227D01*
X408283Y62299D01*
X408308Y62373D01*
X408329Y62447D01*
X408346Y62522D01*
X408360Y62599D01*
X408369Y62675D01*
X408375Y62753D01*
X408377Y62830D01*
X408377Y66866D01*
X412128Y66866D02*
X412128Y61278D01*
X410576Y66866D02*
X413680Y66866D01*
X540496Y61254D02*
X541738Y61254D01*
X540496Y61254D02*
X540426Y61256D01*
X540357Y61262D01*
X540288Y61272D01*
X540220Y61285D01*
X540152Y61303D01*
X540086Y61324D01*
X540021Y61349D01*
X539957Y61377D01*
X539895Y61409D01*
X539835Y61444D01*
X539777Y61483D01*
X539722Y61525D01*
X539668Y61570D01*
X539618Y61618D01*
X539570Y61668D01*
X539525Y61722D01*
X539483Y61777D01*
X539444Y61835D01*
X539409Y61895D01*
X539377Y61957D01*
X539349Y62021D01*
X539324Y62086D01*
X539303Y62152D01*
X539285Y62220D01*
X539272Y62288D01*
X539262Y62357D01*
X539256Y62426D01*
X539254Y62496D01*
X539254Y65600D01*
X539256Y65670D01*
X539262Y65739D01*
X539272Y65808D01*
X539285Y65876D01*
X539303Y65944D01*
X539324Y66010D01*
X539349Y66075D01*
X539377Y66139D01*
X539409Y66201D01*
X539444Y66261D01*
X539483Y66319D01*
X539525Y66374D01*
X539570Y66428D01*
X539618Y66478D01*
X539668Y66526D01*
X539722Y66571D01*
X539777Y66613D01*
X539835Y66652D01*
X539895Y66687D01*
X539957Y66719D01*
X540021Y66747D01*
X540086Y66772D01*
X540152Y66793D01*
X540220Y66811D01*
X540288Y66824D01*
X540357Y66834D01*
X540426Y66840D01*
X540496Y66842D01*
X541738Y66842D01*
X544025Y66842D02*
X544025Y62806D01*
X544027Y62729D01*
X544033Y62651D01*
X544042Y62575D01*
X544056Y62498D01*
X544073Y62423D01*
X544094Y62349D01*
X544119Y62275D01*
X544147Y62203D01*
X544179Y62133D01*
X544214Y62064D01*
X544253Y61997D01*
X544295Y61932D01*
X544340Y61869D01*
X544388Y61808D01*
X544439Y61750D01*
X544493Y61695D01*
X544550Y61642D01*
X544609Y61593D01*
X544671Y61546D01*
X544735Y61502D01*
X544801Y61462D01*
X544869Y61425D01*
X544939Y61391D01*
X545010Y61361D01*
X545083Y61335D01*
X545157Y61312D01*
X545232Y61293D01*
X545307Y61278D01*
X545384Y61266D01*
X545461Y61258D01*
X545538Y61254D01*
X545616Y61254D01*
X545693Y61258D01*
X545770Y61266D01*
X545847Y61278D01*
X545922Y61293D01*
X545997Y61312D01*
X546071Y61335D01*
X546144Y61361D01*
X546215Y61391D01*
X546285Y61425D01*
X546353Y61462D01*
X546419Y61502D01*
X546483Y61546D01*
X546545Y61593D01*
X546604Y61642D01*
X546661Y61695D01*
X546715Y61750D01*
X546766Y61808D01*
X546814Y61869D01*
X546859Y61932D01*
X546901Y61997D01*
X546940Y62064D01*
X546975Y62133D01*
X547007Y62203D01*
X547035Y62275D01*
X547060Y62349D01*
X547081Y62423D01*
X547098Y62498D01*
X547112Y62575D01*
X547121Y62651D01*
X547127Y62729D01*
X547129Y62806D01*
X547130Y62806D02*
X547130Y66842D01*
X550881Y66842D02*
X550881Y61254D01*
X549329Y66842D02*
X552433Y66842D01*
X557375Y65290D02*
X557375Y62806D01*
X557375Y65290D02*
X557377Y65367D01*
X557383Y65445D01*
X557392Y65521D01*
X557406Y65598D01*
X557423Y65673D01*
X557444Y65747D01*
X557469Y65821D01*
X557497Y65893D01*
X557529Y65963D01*
X557564Y66032D01*
X557603Y66099D01*
X557645Y66164D01*
X557690Y66227D01*
X557738Y66288D01*
X557789Y66346D01*
X557843Y66401D01*
X557900Y66454D01*
X557959Y66503D01*
X558021Y66550D01*
X558085Y66594D01*
X558151Y66634D01*
X558219Y66671D01*
X558289Y66705D01*
X558360Y66735D01*
X558433Y66761D01*
X558507Y66784D01*
X558582Y66803D01*
X558657Y66818D01*
X558734Y66830D01*
X558811Y66838D01*
X558888Y66842D01*
X558966Y66842D01*
X559043Y66838D01*
X559120Y66830D01*
X559197Y66818D01*
X559272Y66803D01*
X559347Y66784D01*
X559421Y66761D01*
X559494Y66735D01*
X559565Y66705D01*
X559635Y66671D01*
X559703Y66634D01*
X559769Y66594D01*
X559833Y66550D01*
X559895Y66503D01*
X559954Y66454D01*
X560011Y66401D01*
X560065Y66346D01*
X560116Y66288D01*
X560164Y66227D01*
X560209Y66164D01*
X560251Y66099D01*
X560290Y66032D01*
X560325Y65963D01*
X560357Y65893D01*
X560385Y65821D01*
X560410Y65747D01*
X560431Y65673D01*
X560448Y65598D01*
X560462Y65521D01*
X560471Y65445D01*
X560477Y65367D01*
X560479Y65290D01*
X560480Y65290D02*
X560480Y62806D01*
X560479Y62806D02*
X560477Y62729D01*
X560471Y62651D01*
X560462Y62575D01*
X560448Y62498D01*
X560431Y62423D01*
X560410Y62349D01*
X560385Y62275D01*
X560357Y62203D01*
X560325Y62133D01*
X560290Y62064D01*
X560251Y61997D01*
X560209Y61932D01*
X560164Y61869D01*
X560116Y61808D01*
X560065Y61750D01*
X560011Y61695D01*
X559954Y61642D01*
X559895Y61593D01*
X559833Y61546D01*
X559769Y61502D01*
X559703Y61462D01*
X559635Y61425D01*
X559565Y61391D01*
X559494Y61361D01*
X559421Y61335D01*
X559347Y61312D01*
X559272Y61293D01*
X559197Y61278D01*
X559120Y61266D01*
X559043Y61258D01*
X558966Y61254D01*
X558888Y61254D01*
X558811Y61258D01*
X558734Y61266D01*
X558657Y61278D01*
X558582Y61293D01*
X558507Y61312D01*
X558433Y61335D01*
X558360Y61361D01*
X558289Y61391D01*
X558219Y61425D01*
X558151Y61462D01*
X558085Y61502D01*
X558021Y61546D01*
X557959Y61593D01*
X557900Y61642D01*
X557843Y61695D01*
X557789Y61750D01*
X557738Y61808D01*
X557690Y61869D01*
X557645Y61932D01*
X557603Y61997D01*
X557564Y62064D01*
X557529Y62133D01*
X557497Y62203D01*
X557469Y62275D01*
X557444Y62349D01*
X557423Y62423D01*
X557406Y62498D01*
X557392Y62575D01*
X557383Y62651D01*
X557377Y62729D01*
X557375Y62806D01*
X563045Y62806D02*
X563045Y66842D01*
X563045Y62806D02*
X563047Y62729D01*
X563053Y62651D01*
X563062Y62575D01*
X563076Y62498D01*
X563093Y62423D01*
X563114Y62349D01*
X563139Y62275D01*
X563167Y62203D01*
X563199Y62133D01*
X563234Y62064D01*
X563273Y61997D01*
X563315Y61932D01*
X563360Y61869D01*
X563408Y61808D01*
X563459Y61750D01*
X563513Y61695D01*
X563570Y61642D01*
X563629Y61593D01*
X563691Y61546D01*
X563755Y61502D01*
X563821Y61462D01*
X563889Y61425D01*
X563959Y61391D01*
X564030Y61361D01*
X564103Y61335D01*
X564177Y61312D01*
X564252Y61293D01*
X564327Y61278D01*
X564404Y61266D01*
X564481Y61258D01*
X564558Y61254D01*
X564636Y61254D01*
X564713Y61258D01*
X564790Y61266D01*
X564867Y61278D01*
X564942Y61293D01*
X565017Y61312D01*
X565091Y61335D01*
X565164Y61361D01*
X565235Y61391D01*
X565305Y61425D01*
X565373Y61462D01*
X565439Y61502D01*
X565503Y61546D01*
X565565Y61593D01*
X565624Y61642D01*
X565681Y61695D01*
X565735Y61750D01*
X565786Y61808D01*
X565834Y61869D01*
X565879Y61932D01*
X565921Y61997D01*
X565960Y62064D01*
X565995Y62133D01*
X566027Y62203D01*
X566055Y62275D01*
X566080Y62349D01*
X566101Y62423D01*
X566118Y62498D01*
X566132Y62575D01*
X566141Y62651D01*
X566147Y62729D01*
X566149Y62806D01*
X566149Y66842D01*
X569900Y66842D02*
X569900Y61254D01*
X568348Y66842D02*
X571452Y66842D01*
X459463Y61142D02*
X458221Y61142D01*
X458151Y61144D01*
X458082Y61150D01*
X458013Y61160D01*
X457945Y61173D01*
X457877Y61191D01*
X457811Y61212D01*
X457746Y61237D01*
X457682Y61265D01*
X457620Y61297D01*
X457560Y61332D01*
X457502Y61371D01*
X457447Y61413D01*
X457393Y61458D01*
X457343Y61506D01*
X457295Y61556D01*
X457250Y61610D01*
X457208Y61665D01*
X457169Y61723D01*
X457134Y61783D01*
X457102Y61845D01*
X457074Y61909D01*
X457049Y61974D01*
X457028Y62040D01*
X457010Y62108D01*
X456997Y62176D01*
X456987Y62245D01*
X456981Y62314D01*
X456979Y62384D01*
X456979Y65488D01*
X456981Y65558D01*
X456987Y65627D01*
X456997Y65696D01*
X457010Y65764D01*
X457028Y65832D01*
X457049Y65898D01*
X457074Y65963D01*
X457102Y66027D01*
X457134Y66089D01*
X457169Y66149D01*
X457208Y66207D01*
X457250Y66262D01*
X457295Y66316D01*
X457343Y66366D01*
X457393Y66414D01*
X457447Y66459D01*
X457502Y66501D01*
X457560Y66540D01*
X457620Y66575D01*
X457682Y66607D01*
X457746Y66635D01*
X457811Y66660D01*
X457877Y66681D01*
X457945Y66699D01*
X458013Y66712D01*
X458082Y66722D01*
X458151Y66728D01*
X458221Y66730D01*
X459463Y66730D01*
X461750Y66730D02*
X461750Y62694D01*
X461751Y62694D02*
X461753Y62617D01*
X461759Y62539D01*
X461768Y62463D01*
X461782Y62386D01*
X461799Y62311D01*
X461820Y62237D01*
X461845Y62163D01*
X461873Y62091D01*
X461905Y62021D01*
X461940Y61952D01*
X461979Y61885D01*
X462021Y61820D01*
X462066Y61757D01*
X462114Y61696D01*
X462165Y61638D01*
X462219Y61583D01*
X462276Y61530D01*
X462335Y61481D01*
X462397Y61434D01*
X462461Y61390D01*
X462527Y61350D01*
X462595Y61313D01*
X462665Y61279D01*
X462736Y61249D01*
X462809Y61223D01*
X462883Y61200D01*
X462958Y61181D01*
X463033Y61166D01*
X463110Y61154D01*
X463187Y61146D01*
X463264Y61142D01*
X463342Y61142D01*
X463419Y61146D01*
X463496Y61154D01*
X463573Y61166D01*
X463648Y61181D01*
X463723Y61200D01*
X463797Y61223D01*
X463870Y61249D01*
X463941Y61279D01*
X464011Y61313D01*
X464079Y61350D01*
X464145Y61390D01*
X464209Y61434D01*
X464271Y61481D01*
X464330Y61530D01*
X464387Y61583D01*
X464441Y61638D01*
X464492Y61696D01*
X464540Y61757D01*
X464585Y61820D01*
X464627Y61885D01*
X464666Y61952D01*
X464701Y62021D01*
X464733Y62091D01*
X464761Y62163D01*
X464786Y62237D01*
X464807Y62311D01*
X464824Y62386D01*
X464838Y62463D01*
X464847Y62539D01*
X464853Y62617D01*
X464855Y62694D01*
X464855Y66730D01*
X468606Y66730D02*
X468606Y61142D01*
X467054Y66730D02*
X470158Y66730D01*
X475100Y65178D02*
X475100Y62694D01*
X475101Y65178D02*
X475103Y65255D01*
X475109Y65333D01*
X475118Y65409D01*
X475132Y65486D01*
X475149Y65561D01*
X475170Y65635D01*
X475195Y65709D01*
X475223Y65781D01*
X475255Y65851D01*
X475290Y65920D01*
X475329Y65987D01*
X475371Y66052D01*
X475416Y66115D01*
X475464Y66176D01*
X475515Y66234D01*
X475569Y66289D01*
X475626Y66342D01*
X475685Y66391D01*
X475747Y66438D01*
X475811Y66482D01*
X475877Y66522D01*
X475945Y66559D01*
X476015Y66593D01*
X476086Y66623D01*
X476159Y66649D01*
X476233Y66672D01*
X476308Y66691D01*
X476383Y66706D01*
X476460Y66718D01*
X476537Y66726D01*
X476614Y66730D01*
X476692Y66730D01*
X476769Y66726D01*
X476846Y66718D01*
X476923Y66706D01*
X476998Y66691D01*
X477073Y66672D01*
X477147Y66649D01*
X477220Y66623D01*
X477291Y66593D01*
X477361Y66559D01*
X477429Y66522D01*
X477495Y66482D01*
X477559Y66438D01*
X477621Y66391D01*
X477680Y66342D01*
X477737Y66289D01*
X477791Y66234D01*
X477842Y66176D01*
X477890Y66115D01*
X477935Y66052D01*
X477977Y65987D01*
X478016Y65920D01*
X478051Y65851D01*
X478083Y65781D01*
X478111Y65709D01*
X478136Y65635D01*
X478157Y65561D01*
X478174Y65486D01*
X478188Y65409D01*
X478197Y65333D01*
X478203Y65255D01*
X478205Y65178D01*
X478205Y62694D01*
X478203Y62617D01*
X478197Y62539D01*
X478188Y62463D01*
X478174Y62386D01*
X478157Y62311D01*
X478136Y62237D01*
X478111Y62163D01*
X478083Y62091D01*
X478051Y62021D01*
X478016Y61952D01*
X477977Y61885D01*
X477935Y61820D01*
X477890Y61757D01*
X477842Y61696D01*
X477791Y61638D01*
X477737Y61583D01*
X477680Y61530D01*
X477621Y61481D01*
X477559Y61434D01*
X477495Y61390D01*
X477429Y61350D01*
X477361Y61313D01*
X477291Y61279D01*
X477220Y61249D01*
X477147Y61223D01*
X477073Y61200D01*
X476998Y61181D01*
X476923Y61166D01*
X476846Y61154D01*
X476769Y61146D01*
X476692Y61142D01*
X476614Y61142D01*
X476537Y61146D01*
X476460Y61154D01*
X476383Y61166D01*
X476308Y61181D01*
X476233Y61200D01*
X476159Y61223D01*
X476086Y61249D01*
X476015Y61279D01*
X475945Y61313D01*
X475877Y61350D01*
X475811Y61390D01*
X475747Y61434D01*
X475685Y61481D01*
X475626Y61530D01*
X475569Y61583D01*
X475515Y61638D01*
X475464Y61696D01*
X475416Y61757D01*
X475371Y61820D01*
X475329Y61885D01*
X475290Y61952D01*
X475255Y62021D01*
X475223Y62091D01*
X475195Y62163D01*
X475170Y62237D01*
X475149Y62311D01*
X475132Y62386D01*
X475118Y62463D01*
X475109Y62539D01*
X475103Y62617D01*
X475101Y62694D01*
X480770Y62694D02*
X480770Y66730D01*
X480770Y62694D02*
X480772Y62617D01*
X480778Y62539D01*
X480787Y62463D01*
X480801Y62386D01*
X480818Y62311D01*
X480839Y62237D01*
X480864Y62163D01*
X480892Y62091D01*
X480924Y62021D01*
X480959Y61952D01*
X480998Y61885D01*
X481040Y61820D01*
X481085Y61757D01*
X481133Y61696D01*
X481184Y61638D01*
X481238Y61583D01*
X481295Y61530D01*
X481354Y61481D01*
X481416Y61434D01*
X481480Y61390D01*
X481546Y61350D01*
X481614Y61313D01*
X481684Y61279D01*
X481755Y61249D01*
X481828Y61223D01*
X481902Y61200D01*
X481977Y61181D01*
X482052Y61166D01*
X482129Y61154D01*
X482206Y61146D01*
X482283Y61142D01*
X482361Y61142D01*
X482438Y61146D01*
X482515Y61154D01*
X482592Y61166D01*
X482667Y61181D01*
X482742Y61200D01*
X482816Y61223D01*
X482889Y61249D01*
X482960Y61279D01*
X483030Y61313D01*
X483098Y61350D01*
X483164Y61390D01*
X483228Y61434D01*
X483290Y61481D01*
X483349Y61530D01*
X483406Y61583D01*
X483460Y61638D01*
X483511Y61696D01*
X483559Y61757D01*
X483604Y61820D01*
X483646Y61885D01*
X483685Y61952D01*
X483720Y62021D01*
X483752Y62091D01*
X483780Y62163D01*
X483805Y62237D01*
X483826Y62311D01*
X483843Y62386D01*
X483857Y62463D01*
X483866Y62539D01*
X483872Y62617D01*
X483874Y62694D01*
X483874Y66730D01*
X487625Y66730D02*
X487625Y61142D01*
X486073Y66730D02*
X489178Y66730D01*
D12*
X36100Y90000D02*
X36103Y90209D01*
X36110Y90417D01*
X36123Y90625D01*
X36141Y90833D01*
X36164Y91040D01*
X36192Y91247D01*
X36225Y91453D01*
X36263Y91658D01*
X36307Y91862D01*
X36355Y92065D01*
X36408Y92267D01*
X36466Y92467D01*
X36529Y92666D01*
X36597Y92864D01*
X36670Y93059D01*
X36747Y93253D01*
X36829Y93445D01*
X36916Y93634D01*
X37008Y93822D01*
X37104Y94007D01*
X37204Y94190D01*
X37309Y94370D01*
X37419Y94547D01*
X37533Y94722D01*
X37651Y94894D01*
X37773Y95063D01*
X37899Y95229D01*
X38029Y95392D01*
X38164Y95552D01*
X38302Y95708D01*
X38444Y95861D01*
X38590Y96010D01*
X38739Y96156D01*
X38892Y96298D01*
X39048Y96436D01*
X39208Y96571D01*
X39371Y96701D01*
X39537Y96827D01*
X39706Y96949D01*
X39878Y97067D01*
X40053Y97181D01*
X40230Y97291D01*
X40410Y97396D01*
X40593Y97496D01*
X40778Y97592D01*
X40966Y97684D01*
X41155Y97771D01*
X41347Y97853D01*
X41541Y97930D01*
X41736Y98003D01*
X41934Y98071D01*
X42133Y98134D01*
X42333Y98192D01*
X42535Y98245D01*
X42738Y98293D01*
X42942Y98337D01*
X43147Y98375D01*
X43353Y98408D01*
X43560Y98436D01*
X43767Y98459D01*
X43975Y98477D01*
X44183Y98490D01*
X44391Y98497D01*
X44600Y98500D01*
X44809Y98497D01*
X45017Y98490D01*
X45225Y98477D01*
X45433Y98459D01*
X45640Y98436D01*
X45847Y98408D01*
X46053Y98375D01*
X46258Y98337D01*
X46462Y98293D01*
X46665Y98245D01*
X46867Y98192D01*
X47067Y98134D01*
X47266Y98071D01*
X47464Y98003D01*
X47659Y97930D01*
X47853Y97853D01*
X48045Y97771D01*
X48234Y97684D01*
X48422Y97592D01*
X48607Y97496D01*
X48790Y97396D01*
X48970Y97291D01*
X49147Y97181D01*
X49322Y97067D01*
X49494Y96949D01*
X49663Y96827D01*
X49829Y96701D01*
X49992Y96571D01*
X50152Y96436D01*
X50308Y96298D01*
X50461Y96156D01*
X50610Y96010D01*
X50756Y95861D01*
X50898Y95708D01*
X51036Y95552D01*
X51171Y95392D01*
X51301Y95229D01*
X51427Y95063D01*
X51549Y94894D01*
X51667Y94722D01*
X51781Y94547D01*
X51891Y94370D01*
X51996Y94190D01*
X52096Y94007D01*
X52192Y93822D01*
X52284Y93634D01*
X52371Y93445D01*
X52453Y93253D01*
X52530Y93059D01*
X52603Y92864D01*
X52671Y92666D01*
X52734Y92467D01*
X52792Y92267D01*
X52845Y92065D01*
X52893Y91862D01*
X52937Y91658D01*
X52975Y91453D01*
X53008Y91247D01*
X53036Y91040D01*
X53059Y90833D01*
X53077Y90625D01*
X53090Y90417D01*
X53097Y90209D01*
X53100Y90000D01*
X53097Y89791D01*
X53090Y89583D01*
X53077Y89375D01*
X53059Y89167D01*
X53036Y88960D01*
X53008Y88753D01*
X52975Y88547D01*
X52937Y88342D01*
X52893Y88138D01*
X52845Y87935D01*
X52792Y87733D01*
X52734Y87533D01*
X52671Y87334D01*
X52603Y87136D01*
X52530Y86941D01*
X52453Y86747D01*
X52371Y86555D01*
X52284Y86366D01*
X52192Y86178D01*
X52096Y85993D01*
X51996Y85810D01*
X51891Y85630D01*
X51781Y85453D01*
X51667Y85278D01*
X51549Y85106D01*
X51427Y84937D01*
X51301Y84771D01*
X51171Y84608D01*
X51036Y84448D01*
X50898Y84292D01*
X50756Y84139D01*
X50610Y83990D01*
X50461Y83844D01*
X50308Y83702D01*
X50152Y83564D01*
X49992Y83429D01*
X49829Y83299D01*
X49663Y83173D01*
X49494Y83051D01*
X49322Y82933D01*
X49147Y82819D01*
X48970Y82709D01*
X48790Y82604D01*
X48607Y82504D01*
X48422Y82408D01*
X48234Y82316D01*
X48045Y82229D01*
X47853Y82147D01*
X47659Y82070D01*
X47464Y81997D01*
X47266Y81929D01*
X47067Y81866D01*
X46867Y81808D01*
X46665Y81755D01*
X46462Y81707D01*
X46258Y81663D01*
X46053Y81625D01*
X45847Y81592D01*
X45640Y81564D01*
X45433Y81541D01*
X45225Y81523D01*
X45017Y81510D01*
X44809Y81503D01*
X44600Y81500D01*
X44391Y81503D01*
X44183Y81510D01*
X43975Y81523D01*
X43767Y81541D01*
X43560Y81564D01*
X43353Y81592D01*
X43147Y81625D01*
X42942Y81663D01*
X42738Y81707D01*
X42535Y81755D01*
X42333Y81808D01*
X42133Y81866D01*
X41934Y81929D01*
X41736Y81997D01*
X41541Y82070D01*
X41347Y82147D01*
X41155Y82229D01*
X40966Y82316D01*
X40778Y82408D01*
X40593Y82504D01*
X40410Y82604D01*
X40230Y82709D01*
X40053Y82819D01*
X39878Y82933D01*
X39706Y83051D01*
X39537Y83173D01*
X39371Y83299D01*
X39208Y83429D01*
X39048Y83564D01*
X38892Y83702D01*
X38739Y83844D01*
X38590Y83990D01*
X38444Y84139D01*
X38302Y84292D01*
X38164Y84448D01*
X38029Y84608D01*
X37899Y84771D01*
X37773Y84937D01*
X37651Y85106D01*
X37533Y85278D01*
X37419Y85453D01*
X37309Y85630D01*
X37204Y85810D01*
X37104Y85993D01*
X37008Y86178D01*
X36916Y86366D01*
X36829Y86555D01*
X36747Y86747D01*
X36670Y86941D01*
X36597Y87136D01*
X36529Y87334D01*
X36466Y87533D01*
X36408Y87733D01*
X36355Y87935D01*
X36307Y88138D01*
X36263Y88342D01*
X36225Y88547D01*
X36192Y88753D01*
X36164Y88960D01*
X36141Y89167D01*
X36123Y89375D01*
X36110Y89583D01*
X36103Y89791D01*
X36100Y90000D01*
X106100Y90000D02*
X106103Y90209D01*
X106110Y90417D01*
X106123Y90625D01*
X106141Y90833D01*
X106164Y91040D01*
X106192Y91247D01*
X106225Y91453D01*
X106263Y91658D01*
X106307Y91862D01*
X106355Y92065D01*
X106408Y92267D01*
X106466Y92467D01*
X106529Y92666D01*
X106597Y92864D01*
X106670Y93059D01*
X106747Y93253D01*
X106829Y93445D01*
X106916Y93634D01*
X107008Y93822D01*
X107104Y94007D01*
X107204Y94190D01*
X107309Y94370D01*
X107419Y94547D01*
X107533Y94722D01*
X107651Y94894D01*
X107773Y95063D01*
X107899Y95229D01*
X108029Y95392D01*
X108164Y95552D01*
X108302Y95708D01*
X108444Y95861D01*
X108590Y96010D01*
X108739Y96156D01*
X108892Y96298D01*
X109048Y96436D01*
X109208Y96571D01*
X109371Y96701D01*
X109537Y96827D01*
X109706Y96949D01*
X109878Y97067D01*
X110053Y97181D01*
X110230Y97291D01*
X110410Y97396D01*
X110593Y97496D01*
X110778Y97592D01*
X110966Y97684D01*
X111155Y97771D01*
X111347Y97853D01*
X111541Y97930D01*
X111736Y98003D01*
X111934Y98071D01*
X112133Y98134D01*
X112333Y98192D01*
X112535Y98245D01*
X112738Y98293D01*
X112942Y98337D01*
X113147Y98375D01*
X113353Y98408D01*
X113560Y98436D01*
X113767Y98459D01*
X113975Y98477D01*
X114183Y98490D01*
X114391Y98497D01*
X114600Y98500D01*
X114809Y98497D01*
X115017Y98490D01*
X115225Y98477D01*
X115433Y98459D01*
X115640Y98436D01*
X115847Y98408D01*
X116053Y98375D01*
X116258Y98337D01*
X116462Y98293D01*
X116665Y98245D01*
X116867Y98192D01*
X117067Y98134D01*
X117266Y98071D01*
X117464Y98003D01*
X117659Y97930D01*
X117853Y97853D01*
X118045Y97771D01*
X118234Y97684D01*
X118422Y97592D01*
X118607Y97496D01*
X118790Y97396D01*
X118970Y97291D01*
X119147Y97181D01*
X119322Y97067D01*
X119494Y96949D01*
X119663Y96827D01*
X119829Y96701D01*
X119992Y96571D01*
X120152Y96436D01*
X120308Y96298D01*
X120461Y96156D01*
X120610Y96010D01*
X120756Y95861D01*
X120898Y95708D01*
X121036Y95552D01*
X121171Y95392D01*
X121301Y95229D01*
X121427Y95063D01*
X121549Y94894D01*
X121667Y94722D01*
X121781Y94547D01*
X121891Y94370D01*
X121996Y94190D01*
X122096Y94007D01*
X122192Y93822D01*
X122284Y93634D01*
X122371Y93445D01*
X122453Y93253D01*
X122530Y93059D01*
X122603Y92864D01*
X122671Y92666D01*
X122734Y92467D01*
X122792Y92267D01*
X122845Y92065D01*
X122893Y91862D01*
X122937Y91658D01*
X122975Y91453D01*
X123008Y91247D01*
X123036Y91040D01*
X123059Y90833D01*
X123077Y90625D01*
X123090Y90417D01*
X123097Y90209D01*
X123100Y90000D01*
X123097Y89791D01*
X123090Y89583D01*
X123077Y89375D01*
X123059Y89167D01*
X123036Y88960D01*
X123008Y88753D01*
X122975Y88547D01*
X122937Y88342D01*
X122893Y88138D01*
X122845Y87935D01*
X122792Y87733D01*
X122734Y87533D01*
X122671Y87334D01*
X122603Y87136D01*
X122530Y86941D01*
X122453Y86747D01*
X122371Y86555D01*
X122284Y86366D01*
X122192Y86178D01*
X122096Y85993D01*
X121996Y85810D01*
X121891Y85630D01*
X121781Y85453D01*
X121667Y85278D01*
X121549Y85106D01*
X121427Y84937D01*
X121301Y84771D01*
X121171Y84608D01*
X121036Y84448D01*
X120898Y84292D01*
X120756Y84139D01*
X120610Y83990D01*
X120461Y83844D01*
X120308Y83702D01*
X120152Y83564D01*
X119992Y83429D01*
X119829Y83299D01*
X119663Y83173D01*
X119494Y83051D01*
X119322Y82933D01*
X119147Y82819D01*
X118970Y82709D01*
X118790Y82604D01*
X118607Y82504D01*
X118422Y82408D01*
X118234Y82316D01*
X118045Y82229D01*
X117853Y82147D01*
X117659Y82070D01*
X117464Y81997D01*
X117266Y81929D01*
X117067Y81866D01*
X116867Y81808D01*
X116665Y81755D01*
X116462Y81707D01*
X116258Y81663D01*
X116053Y81625D01*
X115847Y81592D01*
X115640Y81564D01*
X115433Y81541D01*
X115225Y81523D01*
X115017Y81510D01*
X114809Y81503D01*
X114600Y81500D01*
X114391Y81503D01*
X114183Y81510D01*
X113975Y81523D01*
X113767Y81541D01*
X113560Y81564D01*
X113353Y81592D01*
X113147Y81625D01*
X112942Y81663D01*
X112738Y81707D01*
X112535Y81755D01*
X112333Y81808D01*
X112133Y81866D01*
X111934Y81929D01*
X111736Y81997D01*
X111541Y82070D01*
X111347Y82147D01*
X111155Y82229D01*
X110966Y82316D01*
X110778Y82408D01*
X110593Y82504D01*
X110410Y82604D01*
X110230Y82709D01*
X110053Y82819D01*
X109878Y82933D01*
X109706Y83051D01*
X109537Y83173D01*
X109371Y83299D01*
X109208Y83429D01*
X109048Y83564D01*
X108892Y83702D01*
X108739Y83844D01*
X108590Y83990D01*
X108444Y84139D01*
X108302Y84292D01*
X108164Y84448D01*
X108029Y84608D01*
X107899Y84771D01*
X107773Y84937D01*
X107651Y85106D01*
X107533Y85278D01*
X107419Y85453D01*
X107309Y85630D01*
X107204Y85810D01*
X107104Y85993D01*
X107008Y86178D01*
X106916Y86366D01*
X106829Y86555D01*
X106747Y86747D01*
X106670Y86941D01*
X106597Y87136D01*
X106529Y87334D01*
X106466Y87533D01*
X106408Y87733D01*
X106355Y87935D01*
X106307Y88138D01*
X106263Y88342D01*
X106225Y88547D01*
X106192Y88753D01*
X106164Y88960D01*
X106141Y89167D01*
X106123Y89375D01*
X106110Y89583D01*
X106103Y89791D01*
X106100Y90000D01*
D13*
X629764Y80048D02*
X629764Y68618D01*
X629764Y80048D02*
X595474Y114338D01*
X595474Y116624D01*
X419452Y20612D02*
X414880Y25184D01*
X419452Y20612D02*
X609190Y20612D01*
X643480Y54902D01*
D14*
X629764Y68618D03*
X595474Y116624D03*
X414880Y25184D03*
X643480Y54902D03*
D13*
X266290Y98336D02*
X232000Y98336D01*
X266290Y98336D02*
X305152Y137198D01*
X780640Y137198D02*
X837790Y137198D01*
X780640Y137198D02*
X305152Y137198D01*
X837790Y137198D02*
X897226Y77762D01*
X730348Y57188D02*
X698344Y57188D01*
X730348Y57188D02*
X739492Y48044D01*
X766924Y48044D01*
X780640Y61760D01*
X780640Y137198D01*
D14*
X232000Y98336D03*
X897226Y77762D03*
X698344Y57188D03*
D13*
X682342Y64046D02*
X709774Y36614D01*
X764638Y36614D01*
D14*
X682342Y64046D03*
X764638Y36614D03*
D13*
X428596Y27470D02*
X421738Y27470D01*
X408022Y41186D01*
X245716Y41186D01*
X232000Y54902D01*
D14*
X428596Y27470D03*
X232000Y54902D03*
D13*
X353158Y52616D02*
X371446Y52616D01*
X606904Y112052D02*
X622906Y96050D01*
X606904Y112052D02*
X606904Y114338D01*
X636622Y82334D02*
X680056Y82334D01*
X636622Y82334D02*
X622906Y96050D01*
X622906Y52616D02*
X371446Y52616D01*
X622906Y52616D02*
X636622Y66332D01*
X636622Y82334D01*
X629764Y52616D02*
X622906Y52616D01*
D14*
X371446Y52616D03*
X353158Y52616D03*
X622906Y96050D03*
X606904Y114338D03*
X680056Y82334D03*
X629764Y52616D03*
D13*
X609190Y36614D02*
X600046Y45758D01*
X600046Y59474D02*
X577186Y82334D01*
X241144Y82334D01*
X190852Y32042D01*
X147418Y32042D01*
D14*
X609190Y36614D03*
X600046Y45758D03*
X600046Y59474D03*
X147418Y32042D03*
D13*
X638908Y100622D02*
X638908Y121196D01*
X638908Y100622D02*
X650338Y89192D01*
X634336Y125768D02*
X604618Y125768D01*
X634336Y125768D02*
X638908Y121196D01*
D14*
X638908Y121196D03*
X650338Y89192D03*
X604618Y125768D03*
D13*
X737206Y59474D02*
X741778Y54902D01*
X737206Y59474D02*
X737206Y77762D01*
X741778Y82334D02*
X750922Y91478D01*
X741778Y82334D02*
X737206Y77762D01*
X305152Y102908D02*
X280006Y102908D01*
X305152Y102908D02*
X328012Y125768D01*
X364588Y125768D01*
X318868Y89192D02*
X499462Y89192D01*
X318868Y89192D02*
X305152Y102908D01*
X691486Y132626D02*
X741778Y82334D01*
X691486Y132626D02*
X371446Y132626D01*
X364588Y125768D01*
D14*
X741778Y54902D03*
X750922Y91478D03*
X280006Y102908D03*
X364588Y125768D03*
X499462Y89192D03*
D13*
X167992Y123482D02*
X108556Y123482D01*
X51406Y66332D01*
D14*
X167992Y123482D03*
X51406Y66332D03*
D13*
X289150Y45758D02*
X458314Y45758D01*
X289150Y45758D02*
X266290Y68618D01*
D14*
X458314Y45758D03*
X266290Y68618D03*
D13*
X641194Y34328D02*
X641194Y22898D01*
X641194Y34328D02*
X707488Y100622D01*
X707488Y107480D01*
X705202Y109766D01*
D14*
X641194Y22898D03*
X705202Y109766D03*
D13*
X193138Y25184D02*
X117700Y25184D01*
X193138Y25184D02*
X243430Y75476D01*
X561184Y75476D01*
D14*
X117700Y25184D03*
X561184Y75476D03*
D13*
X597760Y102908D02*
X314296Y102908D01*
X648052Y102908D02*
X700630Y102908D01*
D14*
X314296Y102908D03*
X597760Y102908D03*
X648052Y102908D03*
X700630Y102908D03*
M02*
